<svg width="218" height="511" viewBox="0 0 218 511" fill="none" xmlns="http://www.w3.org/2000/svg">
<path d="M216.5 26.25C217.19 26.25 217.75 25.6904 217.75 25C217.75 24.3096 217.19 23.75 216.5 23.75V26.25ZM148.5 26.25H216.5V23.75H148.5V26.25Z" fill="black"/>
<path d="M193.793 13.9659C194.327 13.5277 194.404 12.74 193.966 12.2066C193.528 11.6731 192.74 11.5959 192.207 12.0341L193.793 13.9659ZM179.793 25.4659L193.793 13.9659L192.207 12.0341L178.207 23.5341L179.793 25.4659Z" fill="black"/>
<path d="M183.5 39.25C184.19 39.25 184.75 38.6904 184.75 38C184.75 37.3096 184.19 36.75 183.5 36.75V39.25ZM149 39.25H183.5V36.75H149V39.25Z" fill="black"/>
<path d="M191.143 67.9102C191.646 68.3834 192.437 68.3594 192.91 67.8567C193.383 67.354 193.359 66.5629 192.857 66.0898L191.143 67.9102ZM183.5 59L184.357 58.0898L183.996 57.75H183.5V59ZM164 59L163.116 59.8839L163.482 60.25H164V59ZM192.857 66.0898L184.357 58.0898L182.643 59.9102L191.143 67.9102L192.857 66.0898ZM183.5 57.75H164V60.25H183.5V57.75ZM164.884 58.1161L148.884 42.1161L147.116 43.8839L163.116 59.8839L164.884 58.1161Z" fill="black"/>
<path d="M183.405 49.8621C183.881 49.3622 183.862 48.5709 183.362 48.0948C182.862 47.6187 182.071 47.638 181.595 48.1379L183.405 49.8621ZM173.405 60.3621L183.405 49.8621L181.595 48.1379L171.595 58.6379L173.405 60.3621Z" fill="black"/>
<path d="M49.5 458V456.75H49.0515L48.7054 457.035L49.5 458ZM40.2054 464.035C39.6725 464.474 39.5962 465.262 40.0351 465.795C40.474 466.328 41.2617 466.404 41.7946 465.965L40.2054 464.035ZM144.985 408.515L144.101 407.631L144.985 408.515ZM14.5 9.25H136.5V6.75H14.5V9.25ZM144.101 407.631L98.1308 453.601L99.8986 455.369L145.869 409.399L144.101 407.631ZM90.5294 456.75H49.5V459.25H90.5294V456.75ZM48.7054 457.035L40.2054 464.035L41.7946 465.965L50.2946 458.965L48.7054 457.035ZM147.25 335V400.029H149.75V335H147.25ZM147.25 20V38.5H149.75V20H147.25ZM147.25 38.5V335H149.75V38.5H147.25ZM98.1308 453.601C96.1148 455.617 93.3805 456.75 90.5294 456.75V459.25C94.0436 459.25 97.4137 457.854 99.8986 455.369L98.1308 453.601ZM145.869 409.399C148.354 406.914 149.75 403.544 149.75 400.029H147.25C147.25 402.881 146.117 405.615 144.101 407.631L145.869 409.399ZM136.5 9.25C142.437 9.25 147.25 14.0629 147.25 20H149.75C149.75 12.6822 143.818 6.75 136.5 6.75V9.25Z" fill="black"/>
<circle cx="8" cy="8" r="6" stroke="black" stroke-width="2.5"/>
<path d="M67.5 468L75.5 458" stroke="black" stroke-width="2.5"/>
<path d="M99.5 482.5L123 459" stroke="black" stroke-width="2.5"/>
<path d="M123 499.5V430" stroke="black" stroke-width="2.5"/>
<circle cx="33.5" cy="472.5" r="9.5" stroke="black" stroke-width="2.5"/>
<circle cx="64" cy="473" r="6" stroke="black" stroke-width="2.5"/>
<circle cx="96" cy="486" r="5" stroke="black" stroke-width="2.5"/>
<circle cx="123" cy="504" r="5" stroke="black" stroke-width="2.5"/>
</svg>
