<svg width="47" height="33" viewBox="0 0 47 33" fill="none" xmlns="http://www.w3.org/2000/svg">
<g clip-path="url(#clip0_1057_6471)">
<path d="M27.4127 4.46875H26.9739V4.90497H27.4127V4.46875Z" fill="#A6A6A8"/>
<path d="M36.5335 9.89453H36.0947V10.3308H36.5335V9.89453Z" fill="#A6A6A8"/>
<path d="M41.4264 9.42341C41.5343 9.37228 41.6212 9.29922 41.6872 9.20217C41.7532 9.10616 41.7992 8.98928 41.8265 8.85361C41.8537 8.7169 41.8673 8.56349 41.8673 8.39339V5.33984H41.4285V8.39339C41.4285 8.51653 41.4222 8.62089 41.4097 8.70647C41.3971 8.79204 41.3751 8.86092 41.3437 8.91414C41.3123 8.96632 41.2704 9.00493 41.218 9.02893C41.1646 9.05294 41.0965 9.06442 41.0128 9.06442C40.973 9.06442 40.9374 9.06233 40.9091 9.0592C40.8798 9.05607 40.84 9.04668 40.7887 9.03207L40.6735 9.45159C40.7939 9.48498 40.9133 9.50064 41.0295 9.50064C41.1866 9.50064 41.3186 9.47559 41.4264 9.42445V9.42341Z" fill="#A6A6A8"/>
<path d="M39.9186 4.57084H39.3165V4.46962C39.3165 4.41431 39.328 4.37152 39.3521 4.34125C39.372 4.31621 39.4191 4.30368 39.4872 4.30368H39.7888V4H39.4798C39.3123 4 39.1814 4.04383 39.0934 4.13045C39.0044 4.21707 38.9594 4.35899 38.9594 4.54997V4.90584H39.9197V4.5698L39.9186 4.57084Z" fill="#A6A6A8"/>
<path d="M35.6592 9.89453H35.2205V10.3308H35.6592V9.89453Z" fill="#A6A6A8"/>
<path d="M28.2927 4.46875H27.8539V4.90497H28.2927V4.46875Z" fill="#A6A6A8"/>
<path d="M37.941 7.95404C38.1075 8.07196 38.3002 8.15962 38.5191 8.21598C38.7379 8.27233 38.9704 8.30051 39.2155 8.30051H39.3317L39.4794 7.99265V8.42574C39.4794 8.65429 39.4134 8.81813 39.2825 8.91623C39.1506 9.01432 38.9662 9.06337 38.7285 9.06337C38.5934 9.06337 38.4719 9.05085 38.3641 9.02476C38.2562 8.99971 38.1326 8.95588 37.9944 8.89431L37.8572 9.31383C38.0248 9.37541 38.1745 9.42237 38.3044 9.45263C38.4342 9.48394 38.5651 9.49855 38.6961 9.49855C39.1233 9.49855 39.4344 9.39732 39.6281 9.19591C39.8218 8.99345 39.9182 8.72212 39.9182 8.38086V5.33984H39.2165C38.9463 5.33984 38.6992 5.37846 38.4761 5.45464C38.2531 5.53082 38.0625 5.63518 37.9033 5.76772C37.7441 5.90025 37.6205 6.05888 37.5336 6.24255C37.4457 6.42622 37.4017 6.62555 37.4017 6.83948C37.4017 7.09725 37.4498 7.31849 37.5472 7.50216C37.6436 7.68583 37.7755 7.83715 37.942 7.95508L37.941 7.95404ZM37.941 6.40848C38.008 6.27803 38.0981 6.16637 38.2091 6.07349C38.3201 5.98061 38.4479 5.90964 38.5903 5.85851C38.7285 5.80946 38.872 5.78441 39.0207 5.78337H39.7297L39.4794 5.90756V7.86638H39.0354C38.8709 7.86638 38.717 7.84342 38.5725 7.7975C38.428 7.75262 38.3012 7.68583 38.1913 7.59817C38.0813 7.51051 37.9955 7.40406 37.9337 7.27675C37.8719 7.14943 37.8405 7.00437 37.8405 6.84053C37.8405 6.67668 37.874 6.54102 37.942 6.40952L37.941 6.40848Z" fill="#A6A6A8"/>
<path d="M27.0965 9.43907H28.0076V9.11242C28.0159 9.12808 28.0254 9.14373 28.0348 9.1573C28.1008 9.25331 28.1877 9.3274 28.2956 9.37854C28.4034 9.42967 28.5354 9.45472 28.6925 9.45472H36.6881V5.33984H36.2493V9.01954H28.7082C28.6244 9.01954 28.5553 9.00806 28.5029 8.98406C28.4505 8.96006 28.4076 8.92249 28.3772 8.86927C28.3469 8.81604 28.3249 8.74717 28.3113 8.66159C28.2987 8.57602 28.2924 8.47166 28.2924 8.34851V5.33984H27.1069C25.8943 5.33984 25.069 6.29682 25.069 7.38945V7.40093C25.069 8.49357 25.8827 9.43907 27.0954 9.43907H27.0965ZM25.5361 7.37798C25.5361 6.47736 26.1854 5.75311 27.0954 5.75311H28.1217L27.8526 5.88669V8.34851C27.8526 8.51966 27.8662 8.67307 27.8934 8.80874C27.9091 8.88805 27.9322 8.96006 27.9615 9.0258H27.1059C26.1948 9.0258 25.535 8.28903 25.535 7.38945V7.37798H25.5361Z" fill="#A6A6A8"/>
<path d="M22.8734 8.35999L23.064 8.863L20.2794 5.33984H19.8438V9.43489H20.2962V6.34795L20.0385 5.75102L22.9551 9.43489H23.3258V5.33984H22.8734V8.35999Z" fill="#A6A6A8"/>
<path d="M29.1172 15.9788L31.6453 13.5775V11.9297H24.8885V13.805H28.3528L29.6377 12.9827L26.43 16.1917L26.7735 17.5839H27.6878C28.9162 17.5839 29.645 18.0389 29.645 18.8487V18.8769C29.645 19.6157 29.0596 20.0843 28.2313 20.0843C27.2176 20.0843 26.5033 19.6585 25.8174 18.8904L24.3031 20.3254C25.1597 21.3345 26.4028 22.0442 28.203 22.0442C30.4315 22.0442 31.8023 20.6656 31.8023 18.7902V18.7621C31.8023 16.9149 30.4734 16.2053 29.1172 15.9778V15.9788Z" fill="#A6A6A8"/>
<path d="M16.9922 5.26953C15.7397 5.26953 14.8862 6.25781 14.8862 7.38802V7.3995C14.8862 8.52866 15.7271 9.50546 16.9806 9.50546C18.2342 9.50546 19.0866 8.51718 19.0866 7.38802V7.37654C19.0866 6.24738 18.2457 5.27057 16.9922 5.27057V5.26953ZM18.6038 7.3995C18.6038 8.32934 17.9336 9.07863 16.9922 9.07863C16.0507 9.07863 15.3689 8.31786 15.3689 7.38802V7.37654C15.3689 6.4467 16.0402 5.6974 16.9806 5.6974C17.9211 5.6974 18.6038 6.45818 18.6038 7.38802V7.3995Z" fill="#A6A6A8"/>
<path d="M37.6984 11.7578C34.6133 11.7578 32.3701 14.0735 32.3701 16.9006V16.9288C32.3701 19.7559 34.584 22.0434 37.6691 22.0434C40.7543 22.0434 42.9974 19.7277 42.9974 16.9006V16.8724C42.9974 14.0454 40.7836 11.7578 37.6984 11.7578ZM40.6988 16.9298C40.6988 18.6351 39.4704 20.0272 37.6984 20.0272C35.9265 20.0272 34.6698 18.6069 34.6698 16.9017V16.8735C34.6698 15.1683 35.8982 13.7761 37.6691 13.7761C39.44 13.7761 40.6977 15.1964 40.6977 16.9017V16.9298H40.6988Z" fill="#A6A6A8"/>
<path d="M14.0812 5.33984H13.6162V9.43489H14.0812V5.33984Z" fill="#A6A6A8"/>
<path d="M6.15495 20.7399L6.57908 20.4143L8.76465 18.7362C10.5355 17.3723 11.3932 16.5489 11.3932 14.8864V14.8583C11.3932 12.9965 10.0224 11.7891 7.95095 11.7891C6.16542 11.7891 5.20825 12.5133 4.2228 13.8491L5.76538 15.0847C6.50787 14.1758 7.03672 13.75 7.80853 13.75C8.58034 13.75 9.15108 14.205 9.15108 15.043C9.15108 15.881 8.66517 16.4069 7.42315 17.4297L4.09399 20.143V21.8764H11.4937V19.9865H7.68077L6.15495 20.7399Z" fill="#A6A6A8"/>
<path d="M6.18243 9.46411L7.9533 5.33984H7.45273L6.05362 8.69707L6.09865 9.14686L5.98241 8.86718L4.77076 5.9493L4.51733 5.33984H4L5.77087 9.46411H6.18243Z" fill="#A6A6A8"/>
<path d="M9.04951 5.33984H8.58453V9.43489H9.04951V5.33984Z" fill="#A6A6A8"/>
<path d="M11.5103 7.16389C10.6044 6.97082 10.3929 6.7548 10.3929 6.36867V6.35719C10.3929 5.9888 10.7343 5.6966 11.2694 5.6966C11.6925 5.6966 12.0758 5.83122 12.458 6.14117L12.7282 5.78426C12.3104 5.45031 11.881 5.28125 11.2809 5.28125C10.4986 5.28125 9.9279 5.75504 9.9279 6.39893V6.41041C9.9279 7.08353 10.3636 7.38721 11.3103 7.5928C12.1753 7.77439 12.3805 7.99041 12.3805 8.37132V8.3828C12.3805 8.78667 12.0161 9.07887 11.4631 9.07887C10.9102 9.07887 10.4808 8.88581 10.0515 8.49968L9.76349 8.83885C10.2578 9.2782 10.7929 9.49422 11.4453 9.49422C12.2632 9.49422 12.8507 9.03817 12.8507 8.33584V8.32436C12.8507 7.6982 12.4276 7.3653 11.5092 7.16597L11.5103 7.16389Z" fill="#A6A6A8"/>
<path d="M17.4679 11.1055L17.9737 11.5887L17.4878 12.0917L16.982 11.6085L17.4679 11.1055Z" fill="#273877"/>
<path d="M18.625 11.6085L19.1319 12.0917L19.6178 11.5887L19.1109 11.1055L18.625 11.6085Z" fill="#AAAAAD"/>
<path d="M17.9131 12.2429L18.3079 12.6196L18.6859 12.2273L18.2922 11.8516L17.9131 12.2429Z" fill="#CCD533"/>
<path d="M19.3568 12.4588L19.7505 12.8345L20.1296 12.4431L19.7348 12.0664L19.3568 12.4588Z" fill="#71B645"/>
<path d="M17.2695 12.8416L17.6633 13.2183L18.0413 12.826L17.6476 12.4492L17.2695 12.8416Z" fill="#CCD533"/>
<path d="M18.5908 12.8885L18.9846 13.2642L19.3637 12.8728L18.9689 12.4961L18.5908 12.8885Z" fill="#26B4BB"/>
<path d="M18.0726 13.3391L18.3501 13.6041L18.6161 13.3276L18.3386 13.0625L18.0726 13.3391Z" fill="#71B645"/>
<path d="M19.1204 13.545L19.3979 13.8101L19.6639 13.5336L19.3864 13.2695L19.1204 13.545Z" fill="#59B25A"/>
<path d="M22.2671 11.2882L21.407 11.4453L21.5645 12.3014L22.4246 12.1442L22.2671 11.2882Z" fill="#2885C7"/>
<path d="M20.9724 11.6787L20.2822 11.8047L20.4085 12.4914L21.0986 12.3654L20.9724 11.6787Z" fill="#1D3A6D"/>
<path d="M22.3051 12.6395L21.6149 12.7656L21.7413 13.4523L22.4314 13.3262L22.3051 12.6395Z" fill="#26B4BB"/>
<path d="M21.2015 12.7651L20.6638 12.8633L20.7621 13.3981L21.2998 13.2999L21.2015 12.7651Z" fill="#CCD533"/>
<path d="M22.2494 13.7847L21.7117 13.8828L21.81 14.4176L22.3477 14.3195L22.2494 13.7847Z" fill="#AAAAAD"/>
<path d="M20.3985 12.9839L19.8608 13.082L19.9591 13.6168L20.4968 13.5187L20.3985 12.9839Z" fill="#26B4BB"/>
<path d="M21.3695 13.687L20.8318 13.7852L20.9301 14.32L21.4678 14.2218L21.3695 13.687Z" fill="#71B645"/>
<path d="M20.5265 13.7747L20.1484 13.8438L20.2176 14.2194L20.5956 14.1504L20.5265 13.7747Z" fill="#AAAAAD"/>
<path d="M21.2554 14.5561L20.8774 14.625L20.9463 15.0007L21.3244 14.9319L21.2554 14.5561Z" fill="#59B25A"/>
<path d="M23.9643 14.25L23.5883 15.0358L24.379 15.4094L24.7539 14.6236L23.9643 14.25Z" fill="#273877"/>
<path d="M22.8409 13.8867L22.5403 14.517L23.1739 14.8166L23.4755 14.1862L22.8409 13.8867Z" fill="#26B4BB"/>
<path d="M23.3602 15.4414L23.0586 16.0717L23.6922 16.3712L23.9938 15.7409L23.3602 15.4414Z" fill="#71B645"/>
<path d="M22.5301 14.9688L22.2955 15.4592L22.7887 15.693L23.0233 15.2015L22.5301 14.9688Z" fill="#CCD533"/>
<path d="M22.7807 16.4023L22.5461 16.8928L23.0394 17.1266L23.274 16.6361L22.7807 16.4023Z" fill="#CCD533"/>
<path d="M21.7469 14.6758L21.5123 15.1663L22.0056 15.4L22.2402 14.9085L21.7469 14.6758Z" fill="#2885C7"/>
<path d="M22.1286 15.8125L21.894 16.303L22.3872 16.5368L22.6218 16.0452L22.1286 15.8125Z" fill="#AAAAAD"/>
<path d="M21.5373 15.4648L21.3729 15.8103L21.7195 15.9741L21.885 15.6297L21.5373 15.4648Z" fill="#71B645"/>
<path d="M21.6686 16.5223L21.5039 16.8672L21.8509 17.0318L22.0157 16.6869L21.6686 16.5223Z" fill="#26B4BB"/>
<path d="M24.39 18.0117L23.6224 18.4302L24.0434 19.1931L24.8099 18.7746L24.39 18.0117Z" fill="#2885C7"/>
<path d="M23.6961 17.0703L23.0814 17.4053L23.4186 18.0179L24.0343 17.6819L23.6961 17.0703Z" fill="#26B4BB"/>
<path d="M23.2017 18.6289L22.5859 18.9649L22.9242 19.5765L23.5389 19.2415L23.2017 18.6289Z" fill="#26B4BB"/>
<path d="M22.8054 17.7617L22.3268 18.0226L22.5897 18.4995L23.0683 18.2376L22.8054 17.7617Z" fill="#273877"/>
<path d="M22.1657 19.0703L21.6861 19.3323L21.949 19.8081L22.4286 19.5472L22.1657 19.0703Z" fill="#59B25A"/>
<path d="M22.3452 17.0703L21.8656 17.3323L22.1285 17.8081L22.6081 17.5472L22.3452 17.0703Z" fill="#1D3A6D"/>
<path d="M21.9825 18.2109L21.5039 18.4729L21.7668 18.9488L22.2453 18.6879L21.9825 18.2109Z" fill="#CCD533"/>
<path d="M21.7044 17.5859L21.3672 17.7707L21.5525 18.1056L21.8898 17.922L21.7044 17.5859Z" fill="#AAAAAD"/>
<path d="M21.1918 18.5156L20.8546 18.6993L21.0389 19.0343L21.3761 18.8506L21.1918 18.5156Z" fill="#26B4BB"/>
<path d="M21.6567 21.2065L21.5495 22.0703L22.4173 22.1773L22.5245 21.3135L21.6567 21.2065Z" fill="#71B645"/>
<path d="M21.8149 20.0532L21.7288 20.7461L22.4251 20.832L22.5113 20.1392L21.8149 20.0532Z" fill="#1D3A6D"/>
<path d="M20.4994 21.0337L20.4133 21.7266L21.1097 21.8125L21.1958 21.1196L20.4994 21.0337Z" fill="#26B4BB"/>
<path d="M20.8418 20.1245L20.7748 20.6641L21.3174 20.7309L21.3843 20.1913L20.8418 20.1245Z" fill="#71B645"/>
<path d="M19.5576 20.8081L19.4907 21.3477L20.0332 21.4145L20.1001 20.8749L19.5576 20.8081Z" fill="#AAAAAD"/>
<path d="M20.8733 19.2885L20.8062 19.8281L21.3487 19.8951L21.4158 19.3555L20.8733 19.2885Z" fill="#AAAAAD"/>
<path d="M19.9108 20.0034L19.8438 20.543L20.3863 20.6099L20.4533 20.0703L19.9108 20.0034Z" fill="#71B645"/>
<path d="M20.2125 19.3553L20.1655 19.7344L20.5469 19.7814L20.5939 19.4023L20.2125 19.3553Z" fill="#AAAAAD"/>
<path d="M19.25 19.8123L19.203 20.1914L19.5844 20.2384L19.6315 19.8593L19.25 19.8123Z" fill="#AAAAAD"/>
<path d="M19.0662 22.9014L18.4253 22.3086L17.8305 22.9473L18.4714 23.539L19.0662 22.9014Z" fill="#CCD533"/>
<path d="M18.9467 10.7139L18.3058 10.1211L17.7109 10.7587L18.3518 11.3515L18.9467 10.7139Z" fill="#71B645"/>
<path d="M19.7505 21.9475L19.2363 21.4727L18.7588 21.9851L19.274 22.4588L19.7505 21.9475Z" fill="#26B4BB"/>
<path d="M18.1075 21.9709L17.5933 21.4961L17.1158 22.0085L17.63 22.4823L18.1075 21.9709Z" fill="#71B645"/>
<path d="M18.8045 21.3265L18.4044 20.957L18.0327 21.3546L18.4327 21.7241L18.8045 21.3265Z" fill="#2885C7"/>
<path d="M17.358 21.1351L16.9579 20.7656L16.5862 21.1643L16.9862 21.5337L17.358 21.1351Z" fill="#CCD533"/>
<path d="M19.3228 20.6713L18.9228 20.3008L18.551 20.6994L18.9511 21.0689L19.3228 20.6713Z" fill="#CCD533"/>
<path d="M18.1165 20.6947L17.7154 20.3242L17.3436 20.7229L17.7447 21.0923L18.1165 20.6947Z" fill="#AAAAAD"/>
<path d="M18.6293 20.2364L18.3476 19.9766L18.0868 20.2562L18.3685 20.5171L18.6293 20.2364Z" fill="#1D3A6D"/>
<path d="M17.5785 20.0411L17.2968 19.7812L17.036 20.062L17.3177 20.3218L17.5785 20.0411Z" fill="#AAAAAD"/>
<path d="M15.1542 21.3249L14.2968 21.4961L14.4683 22.3495L15.3257 22.1783L15.1542 21.3249Z" fill="#2885C7"/>
<path d="M16.3117 21.1126L15.6237 21.25L15.7614 21.9346L16.4493 21.7972L16.3117 21.1126Z" fill="#26B4BB"/>
<path d="M14.959 20.1828L14.2711 20.3203L14.4088 21.0048L15.0968 20.8674L14.959 20.1828Z" fill="#71B645"/>
<path d="M15.9432 20.2172L15.4072 20.3242L15.5144 20.8573L16.0504 20.7503L15.9432 20.2172Z" fill="#CCD533"/>
<path d="M16.7405 19.9867L16.2045 20.0938L16.3117 20.6269L16.8477 20.5198L16.7405 19.9867Z" fill="#273877"/>
<path d="M15.7525 19.3031L15.2165 19.4102L15.3237 19.9433L15.8597 19.8362L15.7525 19.3031Z" fill="#2885C7"/>
<path d="M16.4676 19.3858L16.0907 19.4609L16.1659 19.8355L16.5428 19.7603L16.4676 19.3858Z" fill="#71B645"/>
<path d="M15.73 18.6239L15.3532 18.6992L15.4286 19.0737L15.8054 18.9984L15.73 18.6239Z" fill="#AAAAAD"/>
<path d="M12.7244 19.4177L13.0868 18.6267L12.2909 18.2656L11.9275 19.0577L12.7244 19.4177Z" fill="#26B4BB"/>
<path d="M13.8506 19.7606L14.1417 19.125L13.5029 18.8359L13.2118 19.4704L13.8506 19.7606Z" fill="#CCD533"/>
<path d="M13.3068 18.2176L13.5979 17.5831L12.9591 17.293L12.668 17.9285L13.3068 18.2176Z" fill="#2885C7"/>
<path d="M13.8739 17.9584L13.6475 18.4531L14.1448 18.6792L14.3713 18.1845L13.8739 17.9584Z" fill="#26B4BB"/>
<path d="M14.8113 19.9154L15.0375 19.4207L14.54 19.1953L14.3138 19.69L14.8113 19.9154Z" fill="#AAAAAD"/>
<path d="M13.6006 16.5288L13.3741 17.0234L13.8715 17.2495L14.0979 16.7548L13.6006 16.5288Z" fill="#273877"/>
<path d="M14.6598 18.2319L14.4333 18.7266L14.9307 18.9526L15.1571 18.458L14.6598 18.2319Z" fill="#59B25A"/>
<path d="M14.2643 17.107L14.0377 17.6016L14.5349 17.8278L14.7615 17.3332L14.2643 17.107Z" fill="#CCD533"/>
<path d="M15.1334 18.1634L15.2926 17.8149L14.9428 17.6562L14.7836 18.0048L15.1334 18.1634Z" fill="#1D3A6D"/>
<path d="M14.9835 17.1116L15.1427 16.7631L14.7929 16.6055L14.6327 16.953L14.9835 17.1116Z" fill="#71B645"/>
<path d="M12.2359 15.6631L12.9962 15.2332L12.5626 14.4766L11.8023 14.9076L12.2359 15.6631Z" fill="#26B4BB"/>
<path d="M12.9501 16.5973L13.5596 16.2509L13.2119 15.6445L12.6024 15.991L12.9501 16.5973Z" fill="#71B645"/>
<path d="M13.4143 15.026L14.0249 14.6805L13.6761 14.0742L13.0667 14.4196L13.4143 15.026Z" fill="#1D3A6D"/>
<path d="M13.8219 15.8865L14.2963 15.6162L14.0251 15.1445L13.5507 15.4138L13.8219 15.8865Z" fill="#2885C7"/>
<path d="M14.4399 14.573L14.9143 14.3037L14.643 13.832L14.1686 14.1013L14.4399 14.573Z" fill="#71B645"/>
<path d="M14.2993 16.574L14.7747 16.3048L14.5035 15.832L14.0291 16.1013L14.2993 16.574Z" fill="#26B4BB"/>
<path d="M14.6382 15.4245L15.1126 15.1553L14.8424 14.6836L14.368 14.9528L14.6382 15.4245Z" fill="#CCD533"/>
<path d="M14.9258 16.0452L15.2599 15.8553L15.0693 15.5234L14.7352 15.7123L14.9258 16.0452Z" fill="#AAAAAD"/>
<path d="M15.4242 15.1077L15.7583 14.9188L15.5677 14.5859L15.2336 14.7759L15.4242 15.1077Z" fill="#71B645"/>
<path d="M14.1419 11.4666L14.0491 12.332L14.9186 12.4246L15.0114 11.5592L14.1419 11.4666Z" fill="#71B645"/>
<path d="M14.152 12.8136L14.0775 13.5078L14.7751 13.5822L14.8497 12.888L14.152 12.8136Z" fill="#AAAAAD"/>
<path d="M15.4534 11.8097L15.3788 12.5039L16.0764 12.5783L16.151 11.8841L15.4534 11.8097Z" fill="#26B4BB"/>
<path d="M15.2603 12.9008L15.2023 13.4414L15.7458 13.4994L15.8039 12.9588L15.2603 12.9008Z" fill="#CCD533"/>
<path d="M16.5359 12.1898L16.478 12.7305L17.0215 12.7883L17.0794 12.2476L16.5359 12.1898Z" fill="#2885C7"/>
<path d="M15.2432 13.7289L15.1851 14.2695L15.7287 14.3275L15.7867 13.7869L15.2432 13.7289Z" fill="#26B4BB"/>
<path d="M16.1914 12.9984L16.1334 13.5391L16.6769 13.597L16.735 13.0564L16.1914 12.9984Z" fill="#71B645"/>
<path d="M16.046 13.8351L16.0052 14.2148L16.3873 14.2556L16.4281 13.8758L16.046 13.8351Z" fill="#1D3A6D"/>
<path d="M16.9998 13.3585L16.9592 13.7383L17.3414 13.7788L17.3819 13.399L16.9998 13.3585Z" fill="#AAAAAD"/>
<path d="M21.0891 17.3647C21.0242 17.3282 20.9058 17.2666 20.7424 17.2155C20.5068 17.1403 20.178 17.084 19.7884 17.1455C19.6575 17.1664 19.5193 17.2008 19.3758 17.252C19.3622 17.2572 19.3486 17.2614 19.335 17.2666C19.2617 17.2937 19.1894 17.3271 19.1161 17.3636C19.0543 17.395 18.9915 17.4294 18.9297 17.467C18.7883 17.5515 18.649 17.6475 18.5139 17.7519C18.36 16.8241 18.4354 15.9631 18.471 15.5405C18.471 15.5384 18.4741 15.5374 18.4762 15.5384C18.8061 15.745 18.714 16.3221 18.6438 16.4881C18.6427 16.4912 18.6469 16.4933 18.6501 16.4912C19.0606 16.008 18.8606 15.4737 18.7757 15.3391C18.7737 15.3359 18.7778 15.3328 18.781 15.3349C18.8407 15.3829 18.8888 15.434 18.9297 15.4862C19.0564 15.648 19.1035 15.8223 19.1161 15.9767C19.1224 16.0581 19.1203 16.1333 19.1161 16.198C19.115 16.2157 19.114 16.2313 19.1119 16.247C19.1119 16.2491 19.114 16.2501 19.1161 16.2491H19.1182C19.2292 16.032 19.2826 15.7043 19.1161 15.386C19.0711 15.2994 19.0103 15.2138 18.9297 15.1314C18.9067 15.1074 18.8815 15.0844 18.8553 15.0604C18.8532 15.0584 18.8553 15.0542 18.8585 15.0552C18.8836 15.0615 18.9067 15.0688 18.9297 15.0761C18.9999 15.1001 19.0616 15.1335 19.1161 15.1742C19.2407 15.266 19.3255 15.3913 19.3758 15.5228C19.4177 15.6313 19.4366 15.7429 19.4366 15.8421C19.4366 15.8463 19.4418 15.8463 19.4428 15.8421C19.5203 15.5593 19.4732 15.3453 19.3758 15.1898C19.3067 15.0782 19.2114 14.9968 19.1161 14.9394C19.0512 14.9008 18.9862 14.8736 18.9297 14.8569C18.8962 14.8465 18.8669 14.8402 18.8407 14.8371C18.8365 14.8371 18.8375 14.8309 18.8407 14.8309C18.871 14.8277 18.9004 14.8267 18.9286 14.8256C18.9978 14.8246 19.0595 14.8309 19.1151 14.8402C19.225 14.8611 19.3109 14.8987 19.3748 14.9425C19.4795 15.0124 19.5318 15.0949 19.5497 15.1283C19.5517 15.1314 19.5559 15.1293 19.5559 15.1262C19.5413 14.977 19.4722 14.8601 19.3758 14.7766C19.3015 14.7119 19.2103 14.667 19.1161 14.6399C19.0543 14.6232 18.9915 14.6138 18.9297 14.6127C18.8459 14.6127 18.7653 14.6253 18.6972 14.6545C18.6941 14.6555 18.692 14.6524 18.693 14.6493C18.7538 14.5626 18.8396 14.5105 18.9297 14.4823C18.9925 14.4635 19.0564 14.4562 19.1161 14.4604C19.1737 14.4635 19.2261 14.476 19.269 14.4959C19.2721 14.4969 19.2742 14.4938 19.2721 14.4906C19.225 14.4374 19.1716 14.3957 19.1161 14.3644C19.0564 14.331 18.9936 14.3111 18.9297 14.3038C18.7632 14.2851 18.5935 14.356 18.4804 14.5261C18.4794 14.5282 18.4762 14.5282 18.4752 14.5261C18.4532 14.4875 18.4323 14.4447 18.4134 14.3998C18.3684 14.2955 18.3317 14.1786 18.3118 14.0617C18.3118 14.0576 18.3066 14.0576 18.3066 14.0617C18.2867 14.1786 18.249 14.2965 18.204 14.4009C18.1841 14.4458 18.1642 14.4875 18.1422 14.5251C18.1411 14.5272 18.138 14.5272 18.1369 14.5251C17.9401 14.2277 17.5704 14.2339 17.3452 14.4906C17.3431 14.4927 17.3452 14.4969 17.3484 14.4959C17.4981 14.4249 17.7819 14.4458 17.9243 14.6493C17.9264 14.6524 17.9243 14.6555 17.9202 14.6545C17.7013 14.5626 17.362 14.6221 17.1808 14.8371C17.1159 14.9133 17.0719 15.0103 17.0604 15.1262C17.0604 15.1293 17.0646 15.1314 17.0667 15.1283C17.0803 15.1022 17.1159 15.0458 17.1808 14.9884C17.2866 14.8956 17.4709 14.8016 17.7756 14.8298C17.7798 14.8298 17.7798 14.8361 17.7756 14.8361C17.6196 14.8549 17.2981 14.9937 17.1798 15.3109C17.1274 15.4507 17.1138 15.6261 17.1724 15.841C17.1724 15.8442 17.1787 15.8442 17.1787 15.841C17.1787 15.8358 17.1787 15.8317 17.1787 15.8264C17.1819 15.5384 17.3473 15.1523 17.7568 15.0542C17.7599 15.0542 17.762 15.0573 17.7599 15.0594C17.3023 15.4601 17.3473 15.9548 17.4971 16.247C17.4992 16.2501 17.5034 16.2491 17.5034 16.2449C17.4835 16.0237 17.4678 15.6302 17.8343 15.3328C17.8374 15.3307 17.8416 15.3328 17.8395 15.337C17.7547 15.4727 17.5547 16.0059 17.9652 16.4891C17.9673 16.4922 17.9725 16.4891 17.9715 16.486C17.9024 16.3211 17.8102 15.7429 18.139 15.5363C18.1411 15.5353 18.1443 15.5363 18.1443 15.5384C18.1799 15.9611 18.2553 16.822 18.1013 17.7498C17.8364 17.5473 17.5568 17.3699 17.2803 17.2655C17.2457 17.253 17.2122 17.2415 17.1798 17.2301C16.8939 17.1361 16.6321 17.1101 16.4038 17.1205C16.0372 17.1361 15.7566 17.2457 15.6026 17.3219C15.5712 17.3376 15.545 17.3522 15.5251 17.3636C15.5168 17.3689 15.523 17.3803 15.5314 17.3772C15.5555 17.3699 15.5785 17.3626 15.6026 17.3563C15.8843 17.277 16.1514 17.2562 16.4038 17.2781C16.6792 17.3021 16.9379 17.3772 17.1798 17.4857C17.5191 17.6381 17.8259 17.8552 18.1034 18.0848C17.7118 18.425 17.3808 18.7558 17.1798 18.8716C17.1693 18.8768 17.1599 18.8831 17.1504 18.8883C17.1023 18.8226 17.0185 18.785 16.9274 18.8048C16.8478 18.8226 16.7829 18.8862 16.7651 18.9645C16.7494 19.0344 16.7672 19.1106 16.8069 19.1503C16.9138 19.2567 17.0373 19.264 17.1798 19.2045C17.451 19.0908 17.7882 18.7339 18.2019 18.3561C18.2364 18.3248 18.271 18.2924 18.3066 18.2611C18.3422 18.2924 18.3768 18.3237 18.4113 18.3551C18.5988 18.5262 18.7705 18.6932 18.9276 18.8351C18.9925 18.8935 19.0543 18.9478 19.114 18.9958C19.2062 19.071 19.2931 19.1325 19.3737 19.1753C19.5318 19.2588 19.669 19.2692 19.7863 19.1659C19.7926 19.1607 19.7989 19.1555 19.8052 19.1492C19.8324 19.1221 19.8638 19.0334 19.8471 18.9635C19.8376 18.9228 19.8156 18.8862 19.7853 18.8581C19.7581 18.832 19.7224 18.8121 19.6847 18.8038C19.5936 18.784 19.5099 18.8215 19.4617 18.8873C19.4345 18.8737 19.4051 18.8549 19.3727 18.833C19.2983 18.7819 19.2114 18.7099 19.113 18.6243C19.0543 18.5732 18.9925 18.5168 18.9265 18.4573C18.7988 18.3415 18.6585 18.2142 18.5097 18.0837C18.6417 17.9741 18.781 17.8677 18.9265 17.7696C18.9873 17.7289 19.0491 17.6892 19.113 17.6517C19.1978 17.6016 19.2837 17.5557 19.3727 17.5129C19.5057 17.4492 19.6429 17.396 19.7853 17.3553C20.0806 17.2708 20.3979 17.2426 20.7393 17.2969C20.8503 17.3146 20.9634 17.3407 21.0797 17.3762C21.0891 17.3793 21.0943 17.3668 21.087 17.3626" fill="#70777F"/>
<path d="M6.28789 26.8438H6.03027V27.1005H6.28789V26.8438Z" fill="#A6A6A8"/>
<path d="M23.3782 26.5464V24.8516H23.1269V26.2959H22.1791V24.8516H21.9278V26.2959H20.9298V24.8516H20.535C20.3779 24.8516 20.2355 24.8724 20.1077 24.9152C19.9799 24.958 19.871 25.0175 19.781 25.0926C19.6909 25.1688 19.6218 25.2586 19.5726 25.3629C19.5234 25.4673 19.4993 25.5789 19.4993 25.7C19.4993 25.8482 19.5275 25.9745 19.5841 26.0809C19.6406 26.1874 19.716 26.274 19.8103 26.3429C19.9045 26.4117 20.0145 26.4629 20.1402 26.4952C20.2658 26.5286 20.3978 26.5453 20.536 26.5453H23.3782V26.5464ZM20.1674 26.2562C20.0847 26.2291 20.0124 26.1905 19.9506 26.1394C19.8888 26.0882 19.8407 26.0256 19.8051 25.9526C19.7695 25.8785 19.7517 25.795 19.7517 25.701C19.7517 25.6071 19.7715 25.5299 19.8103 25.4558C19.849 25.3817 19.9004 25.3191 19.9642 25.2659C20.0281 25.2126 20.1004 25.1719 20.1821 25.1438C20.2637 25.1156 20.3475 25.102 20.4334 25.102H20.6816V26.2969H20.4334C20.3391 26.2969 20.2512 26.2834 20.1684 26.2562H20.1674Z" fill="#A6A6A8"/>
<path d="M18.2584 24.3047H18.0071V26.5442H18.2584V24.3047Z" fill="#A6A6A8"/>
<path d="M20.9271 24.3047H20.6695V24.5614H20.9271V24.3047Z" fill="#A6A6A8"/>
<path d="M23.3818 26.8398H23.1241V27.0966H23.3818V26.8398Z" fill="#A6A6A8"/>
<path d="M6.7293 26.8438H6.47168V27.1005H6.7293V26.8438Z" fill="#A6A6A8"/>
<path d="M17.0238 26.2959H16.6133C16.4667 26.2959 16.3515 26.275 16.2677 26.2332C16.1839 26.1915 16.1179 26.1289 16.0698 26.0464C16.0844 25.9817 16.0918 25.9035 16.0918 25.8127V25.007H15.8404V25.8523C15.8404 25.9963 15.8017 26.1111 15.7242 26.1978C15.6467 26.2844 15.5294 26.3272 15.3723 26.3272C15.299 26.3272 15.232 26.3157 15.1712 26.2927C15.1105 26.2698 15.0581 26.2385 15.0142 26.1988C14.9702 26.1591 14.9356 26.1132 14.9105 26.06C14.8853 26.0068 14.8717 25.9504 14.8696 25.8899V25.007H14.6183V25.8711C14.6183 25.9483 14.6068 26.013 14.5837 26.0663C14.5607 26.1195 14.5293 26.1633 14.4895 26.1978C14.4497 26.2322 14.4047 26.2572 14.3544 26.2729C14.3041 26.2886 14.2507 26.2959 14.1942 26.2959H13.7083V25.007H13.4569V26.2959H12.1395L12.5783 25.2502C12.5113 25.1917 12.4401 25.1375 12.3647 25.0863C12.2893 25.0352 12.2118 24.9903 12.1322 24.9517C12.0526 24.9131 11.9719 24.8828 11.8903 24.8609C11.8086 24.839 11.7279 24.8286 11.6483 24.8286C11.5688 24.8286 11.485 24.84 11.4033 24.8609C11.3216 24.8828 11.241 24.9121 11.1603 24.9496C11.0797 24.9872 11.0022 25.0321 10.9279 25.0842C10.8535 25.1364 10.7844 25.1907 10.7195 25.2491L11.1614 26.2948H10.2922V24.8505H9.89109C9.7361 24.8505 9.59472 24.8724 9.46696 24.9162C9.3392 24.9601 9.23029 25.0195 9.13918 25.0957C9.04807 25.1719 8.9779 25.2627 8.92763 25.3671C8.87737 25.4725 8.85223 25.5862 8.85223 25.7094C8.85223 25.8575 8.87946 25.9838 8.93497 26.0882C8.99047 26.1936 9.06587 26.2802 9.16117 26.347C9.25647 26.4148 9.36643 26.4649 9.49209 26.4962C9.61776 26.5286 9.75076 26.5442 9.89109 26.5442H10.0419V26.6162C10.0419 26.7477 10.0042 26.8406 9.92879 26.897C9.85339 26.9533 9.74762 26.9815 9.61148 26.9815C9.53398 26.9815 9.46486 26.9742 9.40308 26.9596C9.34129 26.945 9.27113 26.9199 9.19154 26.8844L9.113 27.1245C9.20934 27.1599 9.29417 27.186 9.36852 27.2038C9.44287 27.2215 9.51723 27.2309 9.59263 27.2309C9.83768 27.2309 10.0147 27.1735 10.1257 27.0577C10.2367 26.9418 10.2922 26.7863 10.2922 26.5912V26.5442H14.1921C14.3136 26.5442 14.4214 26.5181 14.5167 26.466C14.612 26.4138 14.6885 26.3439 14.7471 26.2572C14.8078 26.3574 14.8906 26.4357 14.9953 26.491C15.1 26.5474 15.2246 26.5755 15.3692 26.5755C15.5137 26.5755 15.6477 26.5495 15.7535 26.4973C15.8593 26.4451 15.9399 26.3658 15.9965 26.2572C16.0174 26.2927 16.0425 26.3272 16.0729 26.3616C16.1033 26.396 16.142 26.4263 16.1902 26.4534C16.2384 26.4806 16.297 26.5025 16.364 26.5192C16.4153 26.5317 16.4771 26.538 16.5442 26.5411V26.5442H17.2688V24.3047H17.0175V26.2948L17.0238 26.2959ZM10.0461 26.2959H9.7916C9.69735 26.2959 9.60938 26.2833 9.52665 26.2572C9.44392 26.2312 9.37166 26.1936 9.30883 26.1435C9.24599 26.0934 9.19677 26.0318 9.16117 25.9598C9.12556 25.8868 9.10776 25.8033 9.10776 25.7104C9.10776 25.6175 9.12661 25.5393 9.16536 25.4641C9.2041 25.389 9.25542 25.3253 9.3193 25.2721C9.38318 25.2189 9.45544 25.1782 9.53712 25.149C9.61881 25.1197 9.70363 25.1051 9.7916 25.1051H10.0461V26.2969V26.2959ZM11.4295 26.2959L11.0378 25.3378C11.1342 25.2564 11.2326 25.197 11.3342 25.1604C11.4358 25.1229 11.5415 25.1041 11.6525 25.1041C11.7635 25.1041 11.8777 25.126 11.9887 25.1709C12.0997 25.2157 12.194 25.2711 12.2714 25.3378L11.8798 26.2959H11.4316H11.4295Z" fill="#A6A6A8"/>
<path d="M5.43084 24.3047H5.17322V24.5614H5.43084V24.3047Z" fill="#A6A6A8"/>
<path d="M30.8195 24.3047H30.5619V24.5614H30.8195V24.3047Z" fill="#A6A6A8"/>
<path d="M28.5922 24.3047H28.3408V26.5442H28.5922V24.3047Z" fill="#A6A6A8"/>
<path d="M20.4886 24.3047H20.231V24.5614H20.4886V24.3047Z" fill="#A6A6A8"/>
<path d="M8.46003 25.5622C8.46003 25.4641 8.44747 25.3734 8.42024 25.2878C8.39406 25.2022 8.35426 25.1302 8.29981 25.0697C8.23278 24.9966 8.15843 24.9424 8.0757 24.9058C7.99297 24.8693 7.89243 24.8516 7.77305 24.8516H7.58769V25.101H7.80761C7.86835 25.101 7.92594 25.1145 7.9804 25.1396C8.03486 25.1657 8.07989 25.1991 8.11549 25.2408C8.1511 25.2847 8.17518 25.3327 8.1888 25.3848C8.20241 25.437 8.20974 25.4996 8.20974 25.5716V26.2959H7.03265V26.5453H8.46003V25.5622Z" fill="#A6A6A8"/>
<path d="M41.8703 24.3047H41.619V26.5442H41.8703V24.3047Z" fill="#A6A6A8"/>
<path d="M31.2609 24.3047H31.0033V24.5614H31.2609V24.3047Z" fill="#A6A6A8"/>
<path d="M40.8896 24.3047H40.6383V26.2948H39.7754C39.8277 26.18 39.8539 26.0579 39.8539 25.9264C39.8539 25.7949 39.8298 25.677 39.7838 25.5664C39.7366 25.4547 39.6727 25.3587 39.5911 25.2784C39.5094 25.197 39.413 25.1333 39.301 25.0863C39.1889 25.0394 39.0685 25.0164 38.9386 25.0164C38.8088 25.0164 38.6957 25.0404 38.5868 25.0884C38.4779 25.1364 38.3836 25.2011 38.303 25.2836C38.2223 25.366 38.1595 25.462 38.1134 25.5726C38.0673 25.6833 38.0443 25.8012 38.0443 25.9285C38.0443 25.9953 38.0516 26.059 38.0652 26.1205C38.0789 26.1821 38.0967 26.2405 38.1197 26.2969H37.3416C37.394 26.1821 37.4201 26.06 37.4201 25.9285C37.4201 25.797 37.3961 25.6791 37.35 25.5685C37.3029 25.4568 37.239 25.3608 37.1573 25.2804C37.0756 25.199 36.9793 25.1354 36.8672 25.0884C36.7552 25.0415 36.6347 25.0185 36.5049 25.0185C36.375 25.0185 36.263 25.0425 36.154 25.0905C36.0451 25.1385 35.9509 25.2032 35.8702 25.2857C35.7896 25.3681 35.7268 25.4641 35.6807 25.5747C35.6346 25.6854 35.6116 25.8033 35.6116 25.9306C35.6116 25.9974 35.6189 26.061 35.6325 26.1226C35.6461 26.1842 35.6639 26.2426 35.687 26.299H34.89V24.3089H34.6387V26.299H33.8386V25.917C33.8386 25.821 33.826 25.7302 33.8009 25.6436C33.7758 25.557 33.736 25.4839 33.6815 25.4234C33.6166 25.3504 33.5433 25.2961 33.4616 25.2606C33.3799 25.2251 33.2762 25.2074 33.1506 25.2074H32.0395L32.5118 24.3078H32.2384L31.7567 25.2043C31.7651 25.2585 31.7777 25.3055 31.7965 25.3451C31.8154 25.3848 31.8384 25.4224 31.8698 25.4579H33.1495C33.2291 25.4579 33.2972 25.4693 33.3548 25.4944C33.4124 25.5184 33.4585 25.5507 33.4941 25.5925C33.5297 25.6342 33.5538 25.6822 33.5663 25.7365C33.5789 25.7908 33.5852 25.8513 33.5852 25.917V26.299H31.2635V24.8547H30.8676C30.7105 24.8547 30.5681 24.8755 30.4414 24.9183C30.3136 24.9611 30.2047 25.0206 30.1147 25.0957C30.0246 25.1719 29.9555 25.2617 29.9063 25.366C29.857 25.4704 29.8329 25.582 29.8329 25.7031C29.8329 25.8513 29.8612 25.9776 29.9178 26.084C29.9743 26.1905 30.0497 26.2771 30.144 26.3459C30.2382 26.4148 30.3482 26.466 30.4739 26.4983C30.5995 26.5317 30.7315 26.5484 30.8687 26.5484H35.8483C35.9299 26.6361 36.0263 26.7049 36.1383 26.7561C36.2504 26.8072 36.3719 26.8323 36.5038 26.8323C36.6358 26.8323 36.7625 26.8072 36.8787 26.7571C36.995 26.707 37.0945 26.6371 37.1782 26.5484H38.2831C38.3648 26.6361 38.4611 26.7049 38.5732 26.7561C38.6852 26.8072 38.8067 26.8323 38.9386 26.8323C39.0706 26.8323 39.1973 26.8072 39.3135 26.7571C39.4298 26.707 39.5293 26.6371 39.6131 26.5484H40.8896V24.3089V24.3047ZM31.0121 26.2948H30.7639C30.6697 26.2948 30.5817 26.2812 30.499 26.2541C30.4163 26.227 30.344 26.1884 30.2822 26.1372C30.2204 26.0861 30.1722 26.0235 30.1366 25.9504C30.101 25.8763 30.0832 25.7928 30.0832 25.6989C30.0832 25.605 30.1021 25.5278 30.1408 25.4537C30.1796 25.3796 30.2309 25.317 30.2948 25.2637C30.3587 25.2105 30.4309 25.1698 30.5126 25.1416C30.5943 25.1135 30.6781 25.0999 30.7639 25.0999H31.0121V26.2948ZM37.1165 26.1842C37.0819 26.2645 37.0348 26.3334 36.9751 26.3919C36.9154 26.4503 36.8452 26.4952 36.7646 26.5275C36.6839 26.5599 36.597 26.5755 36.5028 26.5755C36.4085 26.5755 36.3258 26.5578 36.2472 26.5244C36.1687 26.49 36.1006 26.443 36.043 26.3835C35.9854 26.324 35.9404 26.2552 35.9079 26.1758C35.8755 26.0965 35.8598 26.012 35.8598 25.9233C35.8598 25.8346 35.8765 25.749 35.9079 25.6687C35.9404 25.5883 35.9854 25.5194 36.042 25.4599C36.0985 25.4005 36.1656 25.3535 36.2441 25.318C36.3226 25.2825 36.4085 25.2648 36.5028 25.2648C36.597 25.2648 36.6871 25.2815 36.7677 25.3149C36.8484 25.3483 36.9185 25.3942 36.9782 25.4526C37.0379 25.5111 37.084 25.58 37.1175 25.6603C37.151 25.7407 37.1678 25.8283 37.1678 25.9243C37.1678 26.0203 37.151 26.1049 37.1165 26.1852V26.1842ZM39.5513 26.1842C39.5167 26.2645 39.4696 26.3334 39.4099 26.3919C39.3502 26.4503 39.28 26.4952 39.1994 26.5275C39.1188 26.5599 39.0318 26.5755 38.9376 26.5755C38.8433 26.5755 38.7606 26.5578 38.6821 26.5244C38.6035 26.49 38.5355 26.443 38.4779 26.3835C38.4203 26.324 38.3752 26.2552 38.3428 26.1758C38.3103 26.0965 38.2935 26.012 38.2935 25.9233C38.2935 25.8346 38.3103 25.749 38.3428 25.6687C38.3752 25.5883 38.4192 25.5194 38.4758 25.4599C38.5323 25.4005 38.5993 25.3535 38.6779 25.318C38.7564 25.2825 38.8423 25.2648 38.9365 25.2648C39.0308 25.2648 39.1209 25.2815 39.2015 25.3149C39.2821 25.3483 39.3523 25.3942 39.412 25.4526C39.4717 25.5111 39.5178 25.58 39.5513 25.6603C39.5848 25.7407 39.6015 25.8283 39.6015 25.9243C39.6015 26.0203 39.5837 26.1049 39.5492 26.1852L39.5513 26.1842Z" fill="#A6A6A8"/>
<path d="M4.64091 26.4963C4.76657 26.5297 4.89853 26.5464 5.03571 26.5464H6.67987V24.8516H6.42853V26.2959H5.43052V24.8516H5.03467C4.87758 24.8516 4.7362 24.8724 4.60844 24.9152C4.48068 24.958 4.37177 25.0175 4.28171 25.0926C4.19164 25.1688 4.12253 25.2586 4.07331 25.3629C4.02409 25.4673 4 25.5789 4 25.7C4 25.8482 4.02828 25.9745 4.08483 26.0809C4.14138 26.1874 4.21678 26.274 4.31103 26.3429C4.40528 26.4117 4.51524 26.4629 4.64091 26.4952V26.4963ZM4.25238 25.7C4.25238 25.6103 4.27228 25.5289 4.31103 25.4548C4.34978 25.3807 4.40109 25.318 4.46497 25.2648C4.52885 25.2116 4.60111 25.1709 4.6828 25.1427C4.76448 25.1145 4.84826 25.101 4.93413 25.101H5.18233V26.2959H4.93413C4.83988 26.2959 4.75191 26.2823 4.66918 26.2552C4.58645 26.2281 4.51419 26.1894 4.4524 26.1383C4.39062 26.0872 4.34245 26.0246 4.30684 25.9515C4.27123 25.8774 4.25343 25.7939 4.25343 25.7H4.25238Z" fill="#A6A6A8"/>
<path d="M22.4649 26.8438H22.2073V27.1005H22.4649V26.8438Z" fill="#A6A6A8"/>
<path d="M22.0235 26.8438H21.7659V27.1005H22.0235V26.8438Z" fill="#A6A6A8"/>
<path d="M24.3565 26.8615C24.3722 26.7832 24.3806 26.6956 24.3806 26.5975V26.5442H27.6092V24.3047H27.3579V26.2948H26.2907L26.7295 25.2491C26.6625 25.1907 26.5913 25.1364 26.5159 25.0853C26.4405 25.0342 26.363 24.9893 26.2834 24.9507C26.2038 24.9121 26.1232 24.8818 26.0415 24.8599C25.9598 24.838 25.8792 24.8275 25.7996 24.8275C25.72 24.8275 25.6362 24.839 25.5545 24.8599C25.4729 24.8818 25.3922 24.911 25.3116 24.9486C25.2309 24.9862 25.1534 25.031 25.0791 25.0832C25.0047 25.1354 24.9356 25.1897 24.8707 25.2481L25.3126 26.2938H24.3774V24.8494H24.1261V26.5975C24.1261 26.6684 24.123 26.7279 24.1156 26.777C24.1083 26.826 24.0957 26.8657 24.0779 26.8959C24.0601 26.9262 24.036 26.9481 24.0057 26.9617C23.9753 26.9752 23.9366 26.9825 23.8884 26.9825C23.8653 26.9825 23.8455 26.9815 23.8287 26.9794C23.8119 26.9773 23.7889 26.9721 23.7596 26.9638L23.6936 27.2038C23.7627 27.2226 23.8308 27.232 23.8978 27.232C23.9879 27.232 24.0633 27.2173 24.1251 27.1881C24.1868 27.1589 24.2361 27.1172 24.2738 27.0619C24.3115 27.0065 24.3377 26.9398 24.3534 26.8625L24.3565 26.8615ZM25.1859 25.3368C25.2823 25.2554 25.3807 25.1959 25.4823 25.1594C25.5839 25.1218 25.6896 25.103 25.8006 25.103C25.9116 25.103 26.0258 25.1249 26.1368 25.1698C26.2478 25.2147 26.3421 25.27 26.4196 25.3368L26.0279 26.2948H25.5797L25.187 25.3368H25.1859Z" fill="#A6A6A8"/>
<path d="M4.98943 24.3047H4.73181V24.5614H4.98943V24.3047Z" fill="#A6A6A8"/>
<path d="M5.80184 28.1875H5.41541L4.56296 29.0839V28.1875H4.24774V29.97H4.56296V29.4534L4.84152 29.1685L5.45415 29.97H5.83535L5.05725 28.9545L5.80184 28.1875Z" fill="#A6A6A8"/>
<path d="M6.43381 28.1875H6.11859V29.971H6.43381V28.1875Z" fill="#A6A6A8"/>
<path d="M8.17594 29.42L7.21563 28.1875H6.9245V29.97H7.23448V28.702L8.22307 29.97H8.48592V28.1875H8.17594V29.42Z" fill="#A6A6A8"/>
<path d="M9.78923 29.2468H10.2479V29.5807C10.138 29.6621 9.98402 29.7154 9.81542 29.7154C9.44888 29.7154 9.20593 29.4451 9.20593 29.0788V29.0736C9.20593 28.7323 9.45621 28.4443 9.78714 28.4443C10.0154 28.4443 10.1505 28.5184 10.2888 28.6353L10.4888 28.3984C10.3045 28.2429 10.1118 28.1562 9.79971 28.1562C9.25933 28.1562 8.875 28.5789 8.875 29.0788V29.084C8.875 29.6037 9.24363 30.0013 9.80494 30.0013C10.1223 30.0013 10.3767 29.874 10.5527 29.7237V28.9744H9.78923V29.2468Z" fill="#A6A6A8"/>
<path d="M11.6589 28.1875H10.9908V29.971H11.6589C12.2223 29.971 12.6119 29.5817 12.6119 29.0787V29.0735C12.6119 28.5715 12.2223 28.1875 11.6589 28.1875ZM12.281 29.0839C12.281 29.4325 12.0349 29.6851 11.6589 29.6851H11.306V28.4724H11.6589C12.0359 28.4724 12.281 28.7302 12.281 29.0787V29.0839Z" fill="#A6A6A8"/>
<path d="M13.8465 28.1562C13.2956 28.1562 12.9071 28.5768 12.9071 29.0788V29.084C12.9071 29.586 13.2914 30.0013 13.8423 30.0013C14.3931 30.0013 14.7827 29.5807 14.7827 29.0788V29.0736C14.7827 28.5716 14.3984 28.1562 13.8475 28.1562H13.8465ZM14.4507 29.084C14.4507 29.4305 14.2025 29.7133 13.8465 29.7133C13.4904 29.7133 13.237 29.4253 13.237 29.0788V29.0736C13.237 28.7271 13.4852 28.4443 13.8412 28.4443C14.1973 28.4443 14.4507 28.7323 14.4507 29.0788V29.084Z" fill="#A6A6A8"/>
<path d="M16.0527 29.0307L15.5071 28.1875H15.1709V29.97H15.4809V28.6968L16.0422 29.5327H16.0527L16.6182 28.6916V29.97H16.9334V28.1875H16.5983L16.0527 29.0307Z" fill="#A6A6A8"/>
<path d="M19.0262 28.1562C18.4753 28.1562 18.0868 28.5768 18.0868 29.0788V29.084C18.0868 29.586 18.4711 30.0013 19.022 30.0013C19.5728 30.0013 19.9624 29.5807 19.9624 29.0788V29.0736C19.9624 28.5716 19.5781 28.1562 19.0272 28.1562H19.0262ZM19.6304 29.084C19.6304 29.4305 19.3822 29.7133 19.0262 29.7133C18.6701 29.7133 18.4167 29.4253 18.4167 29.0788V29.0736C18.4167 28.7271 18.6649 28.4443 19.0209 28.4443C19.377 28.4443 19.6304 28.7323 19.6304 29.0788V29.084Z" fill="#A6A6A8"/>
<path d="M20.3506 29.97H20.6658V29.2447H21.5696V28.9587H20.6658V28.4724H21.6848V28.1875H20.3506V29.97Z" fill="#A6A6A8"/>
<path d="M23.4926 28.9345C23.1491 28.8531 23.0674 28.7915 23.0674 28.6548V28.6496C23.0674 28.5327 23.1753 28.4378 23.3596 28.4378C23.524 28.4378 23.6853 28.5014 23.8465 28.6214L24.0152 28.3845C23.8329 28.2395 23.6256 28.1602 23.3648 28.1602C23.0088 28.1602 22.7522 28.372 22.7522 28.6767V28.682C22.7522 29.0107 22.9679 29.1223 23.3491 29.2142C23.6821 29.2904 23.7533 29.3592 23.7533 29.4866V29.4918C23.7533 29.6274 23.6308 29.7161 23.436 29.7161C23.213 29.7161 23.0412 29.6316 22.8695 29.4845L22.6799 29.7088C22.8957 29.8998 23.1533 29.9937 23.4277 29.9937C23.8047 29.9937 24.0675 29.7944 24.0675 29.4615V29.4563C24.0675 29.161 23.8706 29.0263 23.4915 28.9345H23.4926Z" fill="#A6A6A8"/>
<path d="M25.0317 28.1758L24.2432 29.9718H24.5657L24.75 29.5408H25.5983L25.7805 29.9718H26.1135L25.325 28.1758H25.0328H25.0317ZM24.8652 29.2632L25.1731 28.5494L25.4831 29.2632H24.8652Z" fill="#A6A6A8"/>
<path d="M27.5192 29.2144C27.5192 29.5431 27.3474 29.7111 27.0678 29.7111C26.7882 29.7111 26.6143 29.5327 26.6143 29.2019V28.1875H26.2991V29.2144C26.2991 29.731 26.5965 29.9992 27.0626 29.9992C27.5286 29.9992 27.8333 29.732 27.8333 29.1998V28.1885H27.5181V29.2154L27.5192 29.2144Z" fill="#A6A6A8"/>
<path d="M28.9634 28.1875H28.2952V29.971H28.9634C29.5268 29.971 29.9163 29.5817 29.9163 29.0787V29.0735C29.9163 28.5715 29.5268 28.1875 28.9634 28.1875ZM29.5854 29.0839C29.5854 29.4325 29.3393 29.6851 28.9634 29.6851H28.6104V28.4724H28.9634C29.3404 28.4724 29.5854 28.7302 29.5854 29.0787V29.0839Z" fill="#A6A6A8"/>
<path d="M30.6293 28.1875H30.3141V29.971H30.6293V28.1875Z" fill="#A6A6A8"/>
<path d="M32.5095 28.1758L31.7209 29.9718H32.0435L32.2278 29.5408H33.0761L33.2583 29.9718H33.5913L32.8027 28.1758H32.5106H32.5095ZM32.343 29.2632L32.6509 28.5494L32.9609 29.2632H32.343Z" fill="#A6A6A8"/>
<path d="M35.3558 28.7563V28.751C35.3558 28.5955 35.3024 28.463 35.2071 28.366C35.0919 28.2543 34.9149 28.1875 34.6898 28.1875H33.8907V29.971H34.206V29.349H34.5997L35.0406 29.971H35.4124L34.9286 29.2958C35.1799 29.2238 35.3569 29.0485 35.3569 28.7552L35.3558 28.7563ZM34.206 29.0725V28.4734H34.6647C34.8982 28.4734 35.0364 28.5778 35.0364 28.7688V28.774C35.0364 28.9545 34.8929 29.0725 34.6678 29.0725H34.207H34.206Z" fill="#A6A6A8"/>
<path d="M36.4305 28.1758L35.6419 29.9718H35.9645L36.1488 29.5408H36.997L37.1792 29.9718H37.5123L36.7237 28.1758H36.4315H36.4305ZM36.265 29.2632L36.5729 28.5494L36.8829 29.2632H36.265Z" fill="#A6A6A8"/>
<path d="M38.949 29.0432C39.082 28.9744 39.2056 28.8596 39.2056 28.6456V28.6404C39.2056 28.5204 39.1647 28.4244 39.0851 28.3451C38.9825 28.2428 38.8212 28.1875 38.616 28.1875H37.8117V29.971H38.6411C39.0412 29.971 39.304 29.8009 39.304 29.4816V29.4763C39.304 29.2342 39.1584 29.1142 38.948 29.0432H38.949ZM38.1217 28.4651H38.5751C38.7773 28.4651 38.8904 28.5517 38.8904 28.6916V28.6968C38.8904 28.8596 38.7542 28.9389 38.5521 28.9389H38.1217V28.4651ZM38.9898 29.4482C38.9898 29.6089 38.8589 29.6924 38.6443 29.6924H38.1217V29.2029H38.6212C38.8694 29.2029 38.9898 29.2927 38.9898 29.4429V29.4482Z" fill="#A6A6A8"/>
<path d="M40.0092 28.1875H39.694V29.971H40.0092V28.1875Z" fill="#A6A6A8"/>
<path d="M41.3927 28.1758H41.1005L40.312 29.9718H40.6345L40.8188 29.5408H41.6671L41.8493 29.9718H42.1823L41.3937 28.1758H41.3927ZM40.9351 29.2632L41.2429 28.5494L41.5529 29.2632H40.9351Z" fill="#A6A6A8"/>
</g>
<defs>
<clipPath id="clip0_1057_6471">
<rect width="39" height="26" fill="white" transform="translate(4 4)"/>
</clipPath>
</defs>
</svg>
