<svg width="41" height="40" viewBox="0 0 41 40" fill="none" xmlns="http://www.w3.org/2000/svg">
<path fill-rule="evenodd" clip-rule="evenodd" d="M22.0698 9.99974C22.0698 6.17056 25.174 3.06641 29.0032 3.06641C32.8323 3.06641 35.9365 6.17056 35.9365 9.99974C35.9365 11.5173 35.4489 12.9211 34.6218 14.0628L36.4476 15.8886C36.8772 16.3182 36.8772 17.0146 36.4476 17.4442C36.0181 17.8738 35.3216 17.8738 34.892 17.4442L33.0662 15.6184C31.9245 16.4455 30.5208 16.9331 29.0032 16.9331C25.174 16.9331 22.0698 13.8289 22.0698 9.99974ZM6.76982 13.333C6.76982 9.33813 10.0083 6.09966 14.0032 6.09966H19.0032C19.6107 6.09966 20.1032 5.60717 20.1032 4.99966C20.1032 4.39214 19.6107 3.89966 19.0032 3.89966H14.0032C8.79327 3.89966 4.56982 8.12311 4.56982 13.333V26.6663C4.56982 31.8762 8.79327 36.0997 14.0032 36.0997H27.3365C32.5464 36.0997 36.7698 31.8762 36.7698 26.6663V23.333C36.7698 22.7255 36.2773 22.233 35.6698 22.233C35.0623 22.233 34.5698 22.7255 34.5698 23.333V26.6663C34.5698 30.6612 31.3314 33.8997 27.3365 33.8997H14.0032C10.0083 33.8997 6.76982 30.6612 6.76982 26.6663V13.333ZM28.4368 23.3332C28.4368 22.7256 27.9443 22.2332 27.3368 22.2332C26.7293 22.2332 26.2368 22.7256 26.2368 23.3332V26.6665C26.2368 27.274 26.7293 27.7665 27.3368 27.7665C27.9443 27.7665 28.4368 27.274 28.4368 26.6665V23.3332ZM20.6698 18.0664C21.2773 18.0664 21.7698 18.5589 21.7698 19.1664V26.6664C21.7698 27.2739 21.2773 27.7664 20.6698 27.7664C20.0623 27.7664 19.5698 27.2739 19.5698 26.6664V19.1664C19.5698 18.5589 20.0623 18.0664 20.6698 18.0664ZM15.1033 21.6664C15.1033 21.0589 14.6108 20.5664 14.0033 20.5664C13.3958 20.5664 12.9033 21.0589 12.9033 21.6664V26.6664C12.9033 27.2739 13.3958 27.7664 14.0033 27.7664C14.6108 27.7664 15.1033 27.2739 15.1033 26.6664V21.6664Z" fill="url(#paint0_linear_3001_2842)"/>
<defs>
<linearGradient id="paint0_linear_3001_2842" x1="6.83008" y1="6.99976" x2="40.8265" y2="16.0439" gradientUnits="userSpaceOnUse">
<stop stop-color="#DB8016"/>
<stop offset="1" stop-color="#DBAC16"/>
</linearGradient>
</defs>
</svg>
