<svg width="140" height="40" viewBox="0 0 140 40" fill="none" xmlns="http://www.w3.org/2000/svg">
<path fill-rule="evenodd" clip-rule="evenodd" d="M45.8359 25.753V13.7188H49.0626L53.1511 22.7118L57.1789 13.7188H60.2701V25.753H57.6093V18.7521L54.5394 25.753H51.7032L48.5938 18.7903V25.753H45.8359Z" fill="#1A1A1A"/>
<path fill-rule="evenodd" clip-rule="evenodd" d="M70.9779 21.0936L68.7515 15.9925L66.5763 21.0936H70.9779ZM64.5862 25.753H61.4571L66.8358 13.7188H70.6881L76.1052 25.753H73.0166L71.9504 23.3558H65.6194L64.5862 25.753Z" fill="#1A1A1A"/>
<path fill-rule="evenodd" clip-rule="evenodd" d="M77.3535 25.753V13.7188H88.9312V16.125H80.1498V18.5152H87.6789V20.8637H80.1498V23.3458H88.9524V25.753H77.3535Z" fill="#1A1A1A"/>
<path fill-rule="evenodd" clip-rule="evenodd" d="M94.0389 19.2445H100.122V16.125H94.0389V19.2445ZM91.2031 25.753V13.7188H100.891C102.186 13.7188 102.937 14.4621 102.937 15.737V19.7801C102.937 20.7101 102.107 21.5509 100.498 21.5509C100.407 21.5554 100.314 21.5509 100.219 21.5509L103.039 25.753H99.9263L97.2524 21.6382H94.0389V25.753H91.2031Z" fill="#1A1A1A"/>
<path fill-rule="evenodd" clip-rule="evenodd" d="M108.039 25.7604H107.079C105.826 25.7604 105.223 25.0416 105.223 23.9951V22.423H108.039V23.3541H114.024V20.8906C114.024 20.8906 108.255 20.8906 107.159 20.8906C106.063 20.8906 105.274 20.1593 105.274 19.1444V15.5717C105.274 14.4905 106.133 13.7266 107.178 13.7266C108.223 13.7266 115.026 13.7266 115.026 13.7266C116.086 13.7266 116.82 14.5121 116.82 15.648C116.82 16.7823 116.82 17.084 116.82 17.084H114.024V16.1328H108.039V18.5029H114.884C115.894 18.5029 116.82 19.1665 116.82 20.4439V23.8786C116.82 25.0486 116.166 25.7604 114.943 25.7604C113.72 25.7604 108.039 25.7604 108.039 25.7604Z" fill="#1A1A1A"/>
<path fill-rule="evenodd" clip-rule="evenodd" d="M119.523 25.7619V13.7266H122.398V18.5401L127.874 13.7266H131.766L125.234 19.3171L132.001 25.7619H127.972L122.398 20.2878V25.7619H119.523Z" fill="#1A1A1A"/>
<path d="M11.1339 6H30.9278C32.6614 6 34.0667 7.39757 34.0667 9.12157V30.2336C34.0667 31.9576 32.6614 33.3552 30.9278 33.3552H11.1339C9.40311 33.3552 8.00002 31.9599 8.00002 30.2387V9.1266C7.99735 8.2983 8.32633 7.50301 8.91434 6.91637C9.50234 6.32972 10.301 6 11.1339 6Z" fill="#1A1A1A"/>
<path d="M25.1865 18.9068L30.3321 12.5167L30.317 12.4967L22.8816 16.0395L21.0468 8.07812H21.0165L19.1817 16.0395L11.7463 12.4967L11.7311 12.5167L16.8767 18.9068L9.44141 22.4496L9.45152 22.4746H17.7007L15.8658 30.441L15.886 30.451L21.0316 24.0609L26.1772 30.451L26.2025 30.436L24.3626 22.4746H32.6168L32.6219 22.4496L25.1865 18.9068Z" fill="white"/>
</svg>
