<svg width="140" height="40" viewBox="0 0 140 40" fill="none" xmlns="http://www.w3.org/2000/svg">
<g clip-path="url(#clip0_1057_3025)">
<path d="M0.681641 29.5475L3.23943 27.0618C4.60359 28.4333 6.30879 29.2904 8.44028 29.2904C10.2307 29.2904 11.3391 28.4333 11.5096 27.4047C11.7654 26.2047 10.8276 25.8618 8.35502 25.2618C4.94463 24.4047 2.55736 23.4618 3.15418 20.119C3.66573 16.9475 6.64983 14.8047 10.316 14.8047C13.0443 14.8047 15.0905 15.6618 16.54 17.119L14.1527 19.8618C12.8738 18.6618 11.2539 17.9761 9.63392 17.9761C8.09924 17.9761 6.99087 18.8333 6.82035 19.7761C6.56457 20.9761 7.50243 21.4047 10.0602 22.0047C13.5559 22.8618 15.7726 23.8904 15.2611 27.0618C14.6642 30.319 11.8507 32.4618 7.7582 32.4618C4.77411 32.4618 2.38684 31.4333 0.681641 29.5475Z" fill="#1A1A1A"/>
<path d="M29.1572 23.9761L27.7078 32.119H24.2121L25.491 24.7475C25.7468 23.2047 24.9795 22.0904 23.53 22.0904C21.9954 22.0904 20.7165 23.2047 20.4607 24.5761L19.0965 32.119H15.5156L18.585 14.8047H22.1659L21.1428 20.8904C22.1659 19.7761 23.7006 19.0047 25.3205 19.0047C28.0488 19.0047 29.6688 21.1475 29.1572 23.9761Z" fill="#1A1A1A"/>
<path d="M31.802 19.4301H35.3829L33.1662 32.2016H29.5L31.802 19.4301ZM32.2283 15.573C32.3988 14.5444 33.422 13.6016 34.5303 13.6016C35.5534 13.6016 36.3208 14.5444 36.1503 15.573C35.9797 16.6873 34.9566 17.5444 33.8483 17.5444C32.8251 17.5444 32.0578 16.6873 32.2283 15.573Z" fill="#1A1A1A"/>
<path d="M49.876 25.6878C49.1939 29.6307 46.2098 32.3735 42.7994 32.3735C41.009 32.3735 39.6448 31.6021 38.8775 30.2307L37.8544 36.3164H34.2734L37.2575 19.2593H40.8384L40.4974 21.0593C41.7763 19.8593 43.311 19.0878 45.1014 19.0878C48.5971 19.0021 50.5581 21.8307 49.876 25.6878ZM46.3803 25.6878C46.7214 23.545 45.613 22.0878 43.652 22.0878C41.8616 22.0878 40.4121 23.3735 39.9006 25.2593L39.7301 26.2878C39.5595 28.1735 40.6679 29.4593 42.3731 29.4593C44.3341 29.4593 45.954 27.8307 46.3803 25.6878Z" fill="#1A1A1A"/>
<path d="M60.8758 23.5482L65.5651 32.1196H61.2169L58.1475 26.5482L53.1172 32.1196H48.9395L56.6128 23.6339L51.9235 15.0625H56.1865L59.2559 20.7196L64.2862 15.1482H68.5492L60.8758 23.5482Z" fill="#1A1A1A"/>
<path d="M81.167 25.6857C80.4849 29.6286 77.5008 32.3714 74.0904 32.3714C72.3 32.3714 70.9358 31.6 70.1685 30.2286L69.1454 36.3143H65.5645L68.5485 19.2571H72.1295L71.7884 21.0571C73.0673 19.7714 74.602 19 76.3924 19C79.8881 19 81.8491 21.8286 81.167 25.6857ZM77.6713 25.6857C78.0124 23.5429 76.904 22.0857 74.943 22.0857C73.1526 22.0857 71.7032 23.3714 71.1916 25.2571L71.0211 26.2857C70.8506 28.1714 71.9589 29.4571 73.6641 29.4571C75.6251 29.4571 77.3303 27.8286 77.6713 25.6857Z" fill="#1A1A1A"/>
<path d="M84.4072 14.8906H87.9882L84.9188 32.2049H81.3379L84.4072 14.8906Z" fill="#1A1A1A"/>
<path d="M87.2209 25.6857C87.8177 22.0857 91.5692 19 95.4059 19C99.1573 19 101.8 22.0857 101.118 25.6857C100.521 29.2857 96.77 32.3714 93.0186 32.3714C89.2672 32.4571 86.6241 29.4571 87.2209 25.6857ZM97.7079 25.6857C98.0489 23.7143 96.77 22.0857 94.809 22.0857C92.8481 22.0857 90.9724 23.7143 90.6313 25.6857C90.2903 27.6571 91.5692 29.3714 93.5301 29.3714C95.4911 29.4571 97.3668 27.7429 97.7079 25.6857Z" fill="#1A1A1A"/>
<path d="M111.52 19L111.009 22.0857C108.366 22.0857 106.405 23.6286 105.978 26.0286L104.87 32.1143H101.289L103.506 19.3429H107.087L106.66 21.7429C107.769 20.1143 109.559 19 111.52 19Z" fill="#1A1A1A"/>
<path d="M119.704 28.1714L121.58 30.4857C120.216 31.6857 117.914 32.4571 116.038 32.4571C112.286 32.4571 109.814 29.6286 110.496 25.6857C111.178 21.8286 114.503 19 118.255 19C122.262 19 124.052 22.0857 123.2 26.8857H113.906C114.077 28.2571 115.015 29.2 116.549 29.2C117.572 29.2857 118.851 28.8571 119.704 28.1714ZM114.418 24.4H120.13C120.045 23.1143 119.192 22.3429 117.743 22.3429C116.379 22.2571 115.1 23.1143 114.418 24.4Z" fill="#1A1A1A"/>
<path d="M133.688 19L133.177 22.0857C130.534 22.0857 128.573 23.6286 128.146 26.0286L127.038 32.1143H123.457L125.674 19.3429H129.255L128.828 21.7429C129.937 20.1143 131.727 19 133.688 19Z" fill="#1A1A1A"/>
<path d="M134.794 19.0007V16.6864H133.941V16.2578H136.158V16.6864H135.306V19.0007H134.794ZM136.414 19.0007V16.2578H137.096L137.778 18.4007L138.46 16.2578H139.142V19.0007H138.716V16.6864L138.034 19.0007H137.608L136.84 16.6864V19.0007H136.414Z" fill="#1A1A1A"/>
</g>
<defs>
<clipPath id="clip0_1057_3025">
<rect width="139.826" height="24" fill="white" transform="translate(0 13)"/>
</clipPath>
</defs>
</svg>
