<svg width="140" height="40" viewBox="0 0 140 40" fill="none" xmlns="http://www.w3.org/2000/svg">
<path d="M41.9141 32.3906H40.005L38.6888 35.5613C38.4196 34.8422 37.4903 32.3906 37.4903 32.3906H35.291V33.0004H35.968V37.0457H35.291V37.6554H37.095V37.0457H36.582V34.203L37.9823 37.7774H38.4911C38.4911 37.7774 39.4961 35.3174 39.9713 34.1652V37.0457H39.4835V37.6554H42.1201V37.0457H41.4389V33.0004H42.1201V32.3906H41.9141Z" fill="#1A1A1A"/>
<path d="M80.3897 32.3906H78.5731V33.0004H79.0693C78.7623 33.3704 77.5975 34.5352 77.5176 34.632H77.3536V33.0004H77.8161V32.3906H75.1543V33.0004H75.8734V37.0457H75.1627V37.668H77.8414V37.0373H77.362V35.145H77.5176C77.5975 35.2753 78.4932 36.6756 78.7244 37.0373H78.346V37.6596H81.176V37.0373H80.499C80.4065 36.9069 78.7707 34.4722 78.653 34.2997C78.7791 34.1568 79.7925 33.1013 79.8766 33.0004H80.806V32.3906H80.3897Z" fill="#1A1A1A"/>
<path d="M86.9962 32.3906H84.2461V33.0298H84.961V37.0457H84.2461V37.6638H89.4604V35.6159H88.9096V35.7547C88.7792 36.9027 87.8793 37.0163 87.1518 37.0163H86.4496V33.0004H87.135V32.3906H86.9962Z" fill="#1A1A1A"/>
<path d="M68.2539 33.8725C68.2539 35.0121 69.4439 35.3948 70.4027 35.7017C71.29 35.9877 71.8324 36.1937 71.8324 36.6521C71.8324 37.2997 70.9914 37.3712 70.634 37.3712C70.2096 37.3897 69.7937 37.2491 69.4677 36.9768C69.1418 36.7045 68.9293 36.3202 68.872 35.8994V35.7396H68.1445L68.237 37.5646L68.3548 37.6067C69.0606 37.8515 69.8028 37.9752 70.5499 37.9725C72.009 37.9725 73.1066 37.1988 73.1066 36.1727C73.1066 34.8649 71.845 34.4654 70.8526 34.1416C70.0789 33.8935 69.5911 33.7211 69.5911 33.3511C69.5911 32.981 69.9233 32.6951 70.4321 32.6951C70.7898 32.6889 71.1388 32.8059 71.4205 33.0264C71.7022 33.2468 71.8996 33.5575 71.9796 33.9062L72.0132 34.0407H72.6987L72.6104 32.4722L72.4842 32.4344C71.8721 32.2176 71.2286 32.1025 70.5793 32.0938C69.4565 32.0938 68.2539 32.6446 68.2539 33.8725Z" fill="#1A1A1A"/>
<path d="M44.4115 33.9062C44.0625 33.9357 43.705 33.9483 43.356 33.9483H42.7715V34.4655H43.2719V37.14H42.7715V37.6572H45.0759V37.1484H44.5797V33.9062H44.4115Z" fill="#1A1A1A"/>
<path d="M43.2266 33.0064C43.2257 33.145 43.2662 33.2807 43.3428 33.3962C43.4193 33.5117 43.5286 33.6019 43.6565 33.6551C43.7845 33.7083 43.9254 33.7222 44.0613 33.6951C44.1972 33.6679 44.322 33.6009 44.4197 33.5026C44.5174 33.4043 44.5836 33.2792 44.61 33.1431C44.6363 33.007 44.6215 32.8662 44.5675 32.7386C44.5135 32.6109 44.4227 32.5022 44.3067 32.4264C44.1907 32.3505 44.0548 32.3109 43.9162 32.3126C43.7333 32.3148 43.5585 32.3887 43.4295 32.5185C43.3005 32.6482 43.2277 32.8234 43.2266 33.0064Z" fill="#1A1A1A"/>
<path d="M47.0901 33H45.9337V33.9588H45.4375V34.476H45.9337V36.6879C45.9337 37.6256 46.4593 37.7518 46.9766 37.7518C47.1921 37.7697 47.409 37.7414 47.6127 37.6689C47.8165 37.5964 48.0024 37.4813 48.1582 37.3313L48.2591 37.2304L47.9269 36.8519L47.8134 36.957C47.7666 37.011 47.7092 37.0549 47.6449 37.086C47.5805 37.1171 47.5105 37.1347 47.4391 37.1378C47.2835 37.1378 47.2415 37.0579 47.2415 36.7173V34.4466H47.9437V33.9588H47.2415V33H47.0901Z" fill="#1A1A1A"/>
<path d="M48.6074 36.203V37.4645L48.7168 37.5024C49.1436 37.6688 49.596 37.7599 50.054 37.7715C50.8614 37.7715 51.6772 37.2837 51.6772 36.3586C51.6913 36.1114 51.6302 35.8657 51.5018 35.654C51.3734 35.4422 51.1838 35.2744 50.9581 35.1727C50.9248 35.1512 50.8896 35.1329 50.853 35.1181C50.6763 35.0382 50.4955 34.9751 50.3315 34.9162C49.932 34.7775 49.6839 34.6849 49.6839 34.4957C49.6839 34.2308 49.9657 34.2098 50.054 34.2098C50.2528 34.2119 50.4438 34.2873 50.5905 34.4215C50.7371 34.5558 50.8291 34.7394 50.8488 34.9373H51.3954V33.9617L51.2566 33.9112C50.8932 33.7536 50.5005 33.6748 50.1044 33.6799C49.2256 33.6799 48.6621 34.1845 48.6621 34.9415C48.6621 35.854 49.4106 36.1231 49.9615 36.3207C50.382 36.4763 50.6553 36.5815 50.6553 36.8211C50.6553 37.1576 50.2348 37.1828 50.0834 37.1828C49.956 37.1801 49.8305 37.1519 49.7142 37.0998C49.598 37.0477 49.4934 36.9727 49.4067 36.8793C49.32 36.7859 49.2529 36.6761 49.2095 36.5563C49.1662 36.4365 49.1473 36.3092 49.1541 36.182L48.6074 36.203Z" fill="#1A1A1A"/>
<path d="M101.898 36.2655V37.527L102.008 37.5649C102.435 37.73 102.887 37.8196 103.345 37.8298C104.152 37.8298 104.972 37.342 104.972 36.4211C104.979 36.1786 104.913 35.9397 104.785 35.7341C104.656 35.5285 104.47 35.3652 104.249 35.2647C104.214 35.2441 104.178 35.2272 104.14 35.2142C103.972 35.1356 103.799 35.0682 103.623 35.0124C103.202 34.8694 102.975 34.7769 102.975 34.5919C102.975 34.3227 103.257 34.3017 103.345 34.3017C103.544 34.3038 103.735 34.3792 103.881 34.5135C104.028 34.6477 104.12 34.8314 104.14 35.0292H104.686V34.0284L104.548 33.9737C104.184 33.8161 103.792 33.7373 103.395 33.7424C102.517 33.7424 101.953 34.247 101.953 35.025C101.953 35.9375 102.702 36.2108 103.248 36.4043C103.669 36.5599 103.946 36.6692 103.946 36.9047C103.946 37.2411 103.526 37.2663 103.374 37.2663C103.247 37.2631 103.122 37.2345 103.005 37.1822C102.889 37.1299 102.785 37.055 102.698 36.9618C102.611 36.8686 102.543 36.7591 102.499 36.6395C102.455 36.5199 102.435 36.3928 102.441 36.2655H101.898Z" fill="#1A1A1A"/>
<path d="M56.5301 37.6909V37.1484H56.0423V33.9062H55.8741C55.5251 33.9357 55.1719 33.9483 54.8187 33.9483H54.2341V34.4655H54.7346V36.1476C54.7346 36.7489 54.5033 37.1063 54.1164 37.1063C53.8851 37.1063 53.7295 37.0769 53.7295 36.6564V33.9062H53.5866C53.2375 33.9357 52.8843 33.9483 52.5311 33.9483H51.9255V34.4655H52.4217V36.4419C52.4217 37.3124 52.8633 37.7413 53.7716 37.7413C54.1222 37.7461 54.4632 37.627 54.7346 37.4049V37.6909H56.5301Z" fill="#1A1A1A"/>
<path d="M58.6538 33.9062C58.3048 33.9357 57.9515 33.9483 57.5983 33.9483H57.0138V34.4655H57.5142V37.14H57.0138V37.6572H59.3182V37.1484H58.822V33.9062H58.6538Z" fill="#1A1A1A"/>
<path d="M57.4727 33.0064C57.4718 33.1448 57.5122 33.2803 57.5886 33.3957C57.6649 33.5112 57.7739 33.6013 57.9016 33.6547C58.0294 33.708 58.1701 33.7222 58.3059 33.6954C58.4417 33.6686 58.5664 33.602 58.6643 33.5041C58.7622 33.4063 58.8287 33.2815 58.8555 33.1457C58.8823 33.0099 58.8682 32.8692 58.8148 32.7415C58.7615 32.6138 58.6713 32.5048 58.5559 32.4284C58.4405 32.352 58.3049 32.3117 58.1665 32.3125C57.9825 32.3125 57.806 32.3856 57.6759 32.5157C57.5458 32.6459 57.4727 32.8223 57.4727 33.0064Z" fill="#1A1A1A"/>
<path d="M66.4242 37.1428C66.4267 37.0369 66.4604 36.9341 66.521 36.8473C66.5817 36.7605 66.6666 36.6934 66.7651 36.6546C66.8637 36.6158 66.9715 36.6069 67.075 36.6291C67.1786 36.6513 67.2733 36.7035 67.3473 36.7793C67.4214 36.855 67.4714 36.9509 67.4912 37.055C67.5109 37.159 67.4995 37.2666 67.4585 37.3642C67.4174 37.4619 67.3484 37.5452 67.2602 37.6038C67.172 37.6624 67.0684 37.6937 66.9625 37.6937C66.8904 37.6949 66.8188 37.6814 66.7522 37.654C66.6855 37.6265 66.6251 37.5858 66.5747 37.5342C66.5243 37.4826 66.485 37.4213 66.4591 37.354C66.4332 37.2867 66.4214 37.2149 66.4242 37.1428Z" fill="#1A1A1A"/>
<path d="M73.3791 37.1681C73.3765 37.0611 73.406 36.9558 73.4636 36.8657C73.5212 36.7755 73.6043 36.7046 73.7024 36.6619C73.8005 36.6192 73.9091 36.6067 74.0144 36.626C74.1196 36.6454 74.2167 36.6956 74.2932 36.7704C74.3698 36.8451 74.4223 36.941 74.4441 37.0457C74.4659 37.1504 74.456 37.2593 74.4157 37.3584C74.3753 37.4575 74.3064 37.5423 74.2176 37.602C74.1288 37.6618 74.0243 37.6937 73.9173 37.6937C73.8474 37.6948 73.7779 37.6821 73.7129 37.6562C73.648 37.6303 73.5887 37.5919 73.5387 37.543C73.4887 37.4941 73.4488 37.4358 73.4214 37.3715C73.394 37.3071 73.3796 37.238 73.3791 37.1681Z" fill="#1A1A1A"/>
<path d="M81.7071 37.1825C81.7079 37.0762 81.7402 36.9726 81.7998 36.8846C81.8595 36.7966 81.9438 36.7283 82.0423 36.6882C82.1407 36.6481 82.2488 36.6381 82.3529 36.6593C82.457 36.6805 82.5526 36.7321 82.6274 36.8076C82.7023 36.883 82.7531 36.9789 82.7736 37.0832C82.794 37.1875 82.7831 37.2955 82.7422 37.3936C82.7014 37.4917 82.6324 37.5756 82.5439 37.6345C82.4555 37.6935 82.3516 37.7249 82.2454 37.7249C82.1742 37.7255 82.1036 37.7118 82.0377 37.6847C81.9719 37.6576 81.9121 37.6176 81.862 37.5671C81.8118 37.5165 81.7723 37.4565 81.7457 37.3904C81.7191 37.3244 81.706 37.2537 81.7071 37.1825Z" fill="#1A1A1A"/>
<path d="M91.6989 33.9062C91.3499 33.9357 90.9924 33.9483 90.6434 33.9483H90.0547V34.4655H90.5551V37.14H90.0547V37.6909H92.3633V37.1526H91.8545V33.9062H91.6989Z" fill="#1A1A1A"/>
<path d="M90.5117 33.0184C90.5117 33.1566 90.5528 33.2917 90.6297 33.4066C90.7066 33.5215 90.8158 33.611 90.9436 33.6637C91.0714 33.7164 91.212 33.73 91.3475 33.7027C91.483 33.6754 91.6074 33.6085 91.7049 33.5105C91.8023 33.4124 91.8685 33.2876 91.8949 33.152C91.9214 33.0163 91.907 32.8758 91.8535 32.7483C91.8 32.6208 91.7099 32.5121 91.5945 32.4359C91.4792 32.3597 91.3438 32.3195 91.2056 32.3203C91.1141 32.3203 91.0235 32.3384 90.9391 32.3735C90.8546 32.4087 90.7779 32.4602 90.7135 32.525C90.649 32.5899 90.598 32.6669 90.5633 32.7516C90.5287 32.8362 90.5112 32.9269 90.5117 33.0184Z" fill="#1A1A1A"/>
<path d="M94.5813 34.1988V33.9087H94.4173C94.0683 33.9381 93.7109 33.9507 93.3577 33.9507H92.7773V34.4679H93.2736V37.1424H92.7773V37.6933H94.8799V37.155H94.5982V35.3258C94.5982 34.8212 94.9135 34.5226 95.2163 34.5226C95.4182 34.5226 95.6032 34.5857 95.6032 35.0398V37.1424H95.3845V37.6933H97.4072V37.155H96.8984V35.1702C96.9113 34.992 96.8847 34.8132 96.8206 34.6465C96.7566 34.4798 96.6565 34.3292 96.5276 34.2056C96.3988 34.0819 96.2442 33.9882 96.075 33.931C95.9057 33.8739 95.726 33.8548 95.5485 33.875C95.1979 33.865 94.8552 33.9797 94.5813 34.1988Z" fill="#1A1A1A"/>
<path d="M63.3893 32.1094C61.6106 32.1094 60.4121 33.2868 60.4121 35.053C60.4121 36.8191 61.6106 37.9965 63.3893 37.9965C65.1681 37.9965 66.3666 36.8191 66.3666 35.053C66.3666 33.2868 65.1681 32.1094 63.3893 32.1094ZM63.3893 37.4246C62.2161 37.4246 62.0647 36.1631 62.0647 35.0445C62.0647 33.926 62.2161 32.6687 63.3893 32.6687C64.5626 32.6687 64.7139 33.9302 64.7139 35.0445C64.7139 36.1589 64.5626 37.4246 63.3893 37.4246Z" fill="#1A1A1A"/>
<path d="M101.289 35.7983V35.6427C101.3 35.4083 101.261 35.1742 101.176 34.9555C101.091 34.7367 100.961 34.5382 100.795 34.3726C100.629 34.2071 100.43 34.0782 100.21 33.9942C99.9912 33.9102 99.757 33.873 99.5226 33.885C99.2648 33.8745 99.0076 33.9172 98.767 34.0104C98.5264 34.1036 98.3075 34.2454 98.1241 34.4268C97.9407 34.6083 97.7966 34.8256 97.7008 35.0651C97.6049 35.3047 97.5595 35.5615 97.5672 35.8194C97.553 36.0791 97.594 36.3389 97.6875 36.5817C97.781 36.8244 97.9248 37.0446 98.1096 37.2277C98.2943 37.4109 98.5157 37.5528 98.7593 37.6442C99.0028 37.7356 99.263 37.7743 99.5226 37.7579C99.8876 37.7712 100.247 37.6679 100.55 37.463C100.852 37.2582 101.082 36.9623 101.205 36.6183L101.263 36.4796L100.797 36.2777L100.738 36.4165C100.663 36.633 100.522 36.8207 100.335 36.9533C100.148 37.086 99.9242 37.157 99.695 37.1566C99.1777 37.1566 98.9465 36.7823 98.9465 35.9455V35.7983H101.289ZM99.4847 34.398C99.7581 34.398 99.9052 34.6419 99.9052 35.1171V35.2853H98.9717C99.0011 34.7891 99.0726 34.398 99.4847 34.398Z" fill="#1A1A1A"/>
<path d="M81.0842 2.83594H58.877V27.6041H81.0842V2.83594Z" fill="white"/>
<path d="M69.9866 7.46094C65.361 7.46094 62.1231 10.6484 62.1231 15.2068C62.1147 19.8492 65.2769 22.9778 69.9866 22.9778C74.6964 22.9778 77.846 19.8576 77.846 15.2152C77.8376 10.6484 74.6123 7.46094 69.9866 7.46094ZM69.9866 21.2243C67.7159 21.2243 66.7066 19.3656 66.7066 15.2068C66.7066 11.0479 67.7159 9.21027 69.9866 9.21027C72.2574 9.21027 73.2666 11.0605 73.2666 15.2068C73.2666 19.353 72.2448 21.2243 69.9866 21.2243Z" fill="#1A1A1A"/>
<path d="M104.544 2H35V28.4418H104.956V2H104.544ZM81.0881 27.6007H58.8724V2.82841H81.0881V27.6007Z" fill="#1A1A1A"/>
<path d="M55.0795 8.51562H50.2225L46.9005 16.56L43.8518 8.51562H38.2716V10.0673H39.9957V20.3278H38.2716V21.8795H42.851V20.3278H41.5474V13.1244C42.7248 16.1143 45.1091 22.1907 45.1091 22.1907H46.3959L50.1511 13.0235V20.3278H48.9148V21.8795H55.6009V20.3278H53.8768V10.0673H55.6009V8.51562H55.0795Z" fill="white"/>
<path d="M93.2615 8.51562H86.0413V10.0505H87.7654V20.3236H86.0371V21.8879H99.914V16.703H98.581L98.5389 17.052C98.2025 19.962 95.9275 20.3068 94.0773 20.3068H91.5752V10.0505C91.6089 10.0505 91.8318 10.0505 93.2573 10.0505V8.51562H93.2615Z" fill="white"/>
</svg>
