<svg width="140" height="40" viewBox="0 0 140 40" fill="none" xmlns="http://www.w3.org/2000/svg">
<path d="M11.0171 29.8279L13.833 33.9131H14.0455L16.869 29.8279L17.8786 29.8203L14.5465 34.6767H13.3472L10 29.8203L11.0171 29.8279Z" fill="#1A1A1A"/>
<path d="M26.3782 32.3094H23.0386C22.4996 32.3094 22.1353 32.3628 21.9456 32.4774C21.7558 32.5919 21.6647 32.7676 21.6647 33.0195V33.3708C21.6647 33.5999 21.771 33.7755 21.9759 33.8977C22.1809 34.0198 22.5376 34.0809 23.0462 34.0809H26.3858C26.8792 34.0809 27.2283 34.0122 27.4409 33.8748C27.6534 33.7373 27.7596 33.5083 27.7596 33.1951C27.7596 32.6072 27.3042 32.3094 26.3858 32.3094H26.3782ZM22.7122 31.7062H26.5983C26.9247 31.7062 27.1903 31.7444 27.3877 31.8207C27.585 31.8971 27.7065 31.9963 27.7521 32.1109V31.4236C27.7521 31.1259 27.6382 30.8892 27.4029 30.7135C27.1372 30.515 26.7425 30.4158 26.2113 30.4158H23.5623C23.0462 30.4158 22.6591 30.4768 22.401 30.599C22.143 30.7212 22.0139 30.8892 22.0139 31.103V31.2175H21.0727V31.103C21.0727 30.7059 21.27 30.3928 21.6647 30.1561C22.0594 29.927 22.6135 29.8125 23.3346 29.8125H26.3327C27.1524 29.8125 27.7596 29.9652 28.1543 30.2707C28.5186 30.5532 28.7008 30.9655 28.7008 31.5153V34.6612H27.7824V34.2795C27.6534 34.394 27.5015 34.4932 27.327 34.562C27.1524 34.6307 26.9247 34.6689 26.6514 34.6689H22.6742C21.3991 34.6689 20.7539 34.2566 20.7539 33.4319V32.8439C20.7539 32.5003 20.9057 32.2254 21.2094 32.0269C21.5433 31.8131 22.0442 31.6985 22.7122 31.6985" fill="#1A1A1A"/>
<path d="M33.8168 27.8438H32.8984V34.6701H33.8168V27.8438Z" fill="#1A1A1A"/>
<path d="M43.1314 30.4158H40.2623C39.7994 30.4158 39.4122 30.5303 39.1162 30.7517C38.8202 30.9732 38.6684 31.2633 38.6684 31.6299H44.8164C44.8164 31.2786 44.6646 30.9884 44.361 30.7593C44.0574 30.5303 43.6475 30.4234 43.1238 30.4234L43.1314 30.4158ZM40.4293 34.6841C38.6381 34.6841 37.75 34.0809 37.75 32.8668V31.7062C37.75 31.1793 37.9777 30.7441 38.4255 30.3928C38.9189 30.0034 39.5792 29.8125 40.4066 29.8125H43.0403C43.9056 29.8125 44.5735 29.9805 45.0593 30.3241C45.5071 30.6372 45.7348 31.0342 45.7348 31.5229V32.2331H38.6684V32.7828C38.6684 33.2486 38.8354 33.5846 39.1618 33.806C39.4502 33.9969 39.8677 34.0886 40.4066 34.0886H43.3894C43.8677 34.0886 44.2244 34.0046 44.4597 33.8442C44.695 33.6838 44.8164 33.4777 44.8164 33.2334V33.1341H45.7348V33.2334C45.7348 33.6075 45.583 33.9206 45.2794 34.1878C44.8847 34.5238 44.2927 34.6918 43.5033 34.6918H40.4369L40.4293 34.6841Z" fill="#1A1A1A"/>
<path d="M54.569 29.8203C55.5254 29.8203 56.2389 30.0265 56.7019 30.4312C57.1041 30.7748 57.3015 31.2559 57.3015 31.8591V34.6767H56.3831V31.7522C56.3831 31.3322 56.2161 31.0039 55.8821 30.7748C55.5481 30.5457 55.1079 30.4236 54.5614 30.4236H52.163C51.6165 30.4236 51.1762 30.5457 50.8271 30.7901C50.4856 31.0344 50.311 31.3551 50.311 31.7522V34.6767H49.3926V29.8203H50.311V30.6068C50.4628 30.3472 50.6905 30.1487 50.9789 30.0188C51.2749 29.8891 51.662 29.8203 52.1553 29.8203H54.5539H54.569Z" fill="#1A1A1A"/>
<path d="M67.9505 32.9581H68.8689C68.8689 33.4697 68.6867 33.8668 68.3224 34.1569C67.8822 34.5005 67.1763 34.6761 66.2048 34.6761H63.3888C62.5463 34.6761 61.9088 34.5158 61.4913 34.2027C61.0738 33.8897 60.8613 33.4468 60.8613 32.8741V31.6676C60.8613 31.1102 61.0738 30.6673 61.4913 30.339C61.9467 29.9801 62.6071 29.7969 63.4647 29.7969H66.2048C67.0776 29.7969 67.7379 29.9496 68.1858 30.2474C68.6336 30.5452 68.8613 30.9652 68.8613 31.5226H67.9429C67.9429 31.1713 67.8139 30.8964 67.5558 30.7208C67.275 30.5147 66.8195 30.4154 66.2048 30.4154H63.4647C62.9258 30.4154 62.5083 30.5147 62.2199 30.7208C61.9315 30.927 61.7873 31.2401 61.7873 31.6676V32.8741C61.7873 33.2483 61.9467 33.546 62.2731 33.7675C62.5691 33.9737 62.9486 34.0729 63.3964 34.0729H66.2123C67.3736 34.0729 67.9505 33.6988 67.9505 32.9505" fill="#1A1A1A"/>
<path d="M73.6063 28.5538H72.6875V27.8438H73.6063V28.5538ZM73.6063 34.6701H72.6875V29.8138H73.6063V34.6701Z" fill="#1A1A1A"/>
<path d="M83.0246 32.3094H79.6849C79.1464 32.3094 78.7821 32.3628 78.592 32.4774C78.4024 32.5919 78.3113 32.7676 78.3113 33.0195V33.3708C78.3113 33.5999 78.4178 33.7755 78.6227 33.8977C78.8277 34.0198 79.184 34.0809 79.6929 34.0809H83.0326C83.5255 34.0809 83.875 34.0122 84.0873 33.8748C84.2996 33.7373 84.4061 33.5083 84.4061 33.1951C84.4061 32.6072 83.9507 32.3094 83.0326 32.3094H83.0246ZM79.3587 31.7062H83.2449C83.571 31.7062 83.8369 31.7444 84.0344 31.8207C84.2313 31.8971 84.3532 31.9963 84.3987 32.1109V31.4236C84.3987 31.1259 84.2849 30.8892 84.0492 30.7135C83.784 30.515 83.3889 30.4158 82.8578 30.4158H80.2086C79.6929 30.4158 79.3058 30.4768 79.0473 30.599C78.7895 30.7212 78.6529 30.8892 78.6529 31.103V31.2175H77.7113V31.103C77.7113 30.7059 77.9089 30.3928 78.304 30.1561C78.6984 29.927 79.2523 29.8125 79.9735 29.8125H82.9717C83.7913 29.8125 84.3987 29.9652 84.7932 30.2707C85.1575 30.5532 85.3397 30.9655 85.3397 31.5153V34.6612H84.4215V34.2795C84.2923 34.394 84.1403 34.4932 83.9661 34.562C83.7913 34.6307 83.5637 34.6689 83.2904 34.6689H79.3132C78.0381 34.6689 77.3926 34.2566 77.3926 33.4319V32.8439C77.3926 32.5003 77.5446 32.2254 77.848 32.0269C78.1821 31.8131 78.683 31.6985 79.3513 31.6985" fill="#1A1A1A"/>
<path d="M89.939 32.775C89.939 33.6455 90.5692 34.0807 91.8369 34.0807H94.1439C94.7513 34.0807 95.2067 33.9815 95.5255 33.7906C95.8744 33.5768 96.0418 33.2408 96.0418 32.7827V31.7137C96.0418 31.2937 95.8744 30.973 95.5556 30.7515C95.2295 30.5301 94.7587 30.4156 94.1439 30.4156H91.8369C91.1993 30.4156 90.7286 30.5148 90.4098 30.721C90.0984 30.9271 89.939 31.2555 89.939 31.7213V32.7827V32.775ZM91.7606 29.8047H94.235C95.1993 29.8047 95.9126 29.9956 96.3679 30.385C96.7624 30.7134 96.9599 31.1563 96.9599 31.7213V32.7827C96.9599 33.3477 96.755 33.7906 96.3606 34.1189C95.8898 34.5007 95.1839 34.6839 94.235 34.6839H91.7606C91.0018 34.6839 90.4098 34.5389 89.9846 34.2487V36.654H89.0664V29.8047H89.9846V30.2552C90.1895 30.1101 90.4326 30.0032 90.7359 29.9192C91.0319 29.8429 91.3735 29.8047 91.7606 29.8047Z" fill="#1A1A1A"/>
<path d="M101.333 32.775C101.333 33.6455 101.97 34.0807 103.23 34.0807H105.591C106.198 34.0807 106.653 33.9815 106.972 33.7906C107.321 33.5768 107.496 33.2408 107.496 32.7827V31.7137C107.496 31.2937 107.337 30.973 107.002 30.7515C106.676 30.5301 106.205 30.4156 105.591 30.4156H103.23C102.585 30.4156 102.107 30.5148 101.796 30.721C101.484 30.9271 101.333 31.2555 101.333 31.7213V32.7827V32.775ZM103.154 29.8047H105.682C106.645 29.8047 107.359 29.9956 107.822 30.385C108.217 30.7134 108.414 31.1563 108.414 31.7213V32.7827C108.414 33.3477 108.209 33.7906 107.807 34.1189C107.337 34.5007 106.631 34.6839 105.682 34.6839H103.154C101.325 34.6839 100.414 34.0502 100.414 32.7827V31.7213C100.414 31.1333 100.627 30.6752 101.044 30.3468C101.5 29.9879 102.205 29.8047 103.162 29.8047" fill="#1A1A1A"/>
<path d="M114.782 29.8047H117.203C118.167 29.8047 118.88 29.9956 119.336 30.385C119.73 30.7134 119.928 31.1563 119.928 31.7213H119.009C119.009 31.2937 118.85 30.973 118.523 30.7515C118.205 30.5301 117.734 30.4156 117.112 30.4156H114.857C114.213 30.4156 113.742 30.5148 113.43 30.721C113.119 30.9271 112.968 31.2555 112.968 31.7213V34.6763H112.049V29.8047H112.968V30.4232C113.104 30.2171 113.317 30.0643 113.605 29.9651C113.894 29.8582 114.281 29.8047 114.782 29.8047Z" fill="#1A1A1A"/>
<path d="M125.961 34.0753H127.685C128.155 34.0753 128.512 33.9913 128.747 33.8233C128.922 33.6935 129.013 33.5484 129.013 33.3805H130C130 33.7088 129.833 33.9913 129.506 34.2357C129.104 34.5335 128.527 34.6785 127.768 34.6785H125.954C125.233 34.6785 124.686 34.5335 124.315 34.2433C123.912 33.9378 123.707 33.4797 123.707 32.8688V30.5323H122.926V29.8222H123.707V28.8906H124.626V29.8222H129.339V30.5323H124.626V32.9605C124.626 33.3423 124.747 33.6248 124.99 33.808C125.233 33.9913 125.56 34.0829 125.961 34.0829" fill="#1A1A1A"/>
<path d="M10.5919 16.2256H10.387C10.387 16.2256 69.59 -6.04033 84.2996 11.6747C99.0018 29.3897 80.019 29.4661 111.928 10.2086C143.837 -9.04119 123.578 16.3554 123.578 16.3554V16.4852" fill="#1A1A1A"/>
</svg>
