<svg width="140" height="40" viewBox="0 0 140 40" fill="none" xmlns="http://www.w3.org/2000/svg">
<path d="M8 35V4H131.135V34.9213L8 35Z" fill="#1A1A1A"/>
<path d="M8.39453 34.6038H38.2143V4.39062H8.39453V34.6038Z" fill="#414449"/>
<path d="M38.2129 34.6046H130.741V25.3203H38.2129V34.6046Z" fill="#222833"/>
<path d="M68.9765 29.3331H69.4486C69.9994 29.3331 70.3141 29.097 70.3141 28.7036C70.3141 28.3102 69.9994 28.0742 69.5273 28.0742H68.9765V29.3331ZM68.4258 27.5234H69.4486C70.2354 27.5234 71.0222 27.6808 71.0222 28.625C71.0222 29.097 70.6288 29.4904 70.1567 29.5691C70.3141 29.6478 70.3928 29.7265 70.5501 29.9625L71.3369 31.6148H70.7075L70.0781 30.1986C69.9207 29.8052 69.6847 29.8052 69.3699 29.8052H68.9765V31.6148H68.4258V27.5234Z" fill="white"/>
<path d="M75.1934 27.5234H75.9802L77.7898 30.9067V27.5234H78.4192V31.6935H77.6324L75.8228 28.3102H75.7441V31.6935H75.1934V27.5234Z" fill="white"/>
<path d="M84.1618 28.1529L83.375 30.1986H85.0272L84.1618 28.1529ZM83.9257 27.5234H84.5552L86.2861 31.6935H85.6567L85.2633 30.6706H83.2963L82.9029 31.6935H82.2734L83.9257 27.5234Z" fill="white"/>
<path d="M90.3781 28.0742H89.1193V27.5234H92.2665V28.0742H91.0076V31.6935H90.3781V28.0742Z" fill="white"/>
<path d="M95.9648 31.6935H96.5943V27.5234H95.9648V31.6935Z" fill="white"/>
<path d="M102.574 31.2214C103.519 31.2214 103.912 30.4346 103.912 29.5691C103.912 28.7036 103.44 27.9168 102.574 27.9168C101.709 27.9168 101.237 28.7036 101.237 29.5691C101.237 30.4346 101.63 31.2214 102.574 31.2214ZM102.574 27.5234C103.833 27.5234 104.541 28.4676 104.541 29.6478C104.541 30.9067 103.833 31.7722 102.574 31.7722C101.316 31.7722 100.607 30.9067 100.607 29.6478C100.607 28.3889 101.316 27.5234 102.574 27.5234Z" fill="white"/>
<path d="M108.555 27.5234H109.341L111.151 30.9067V27.5234H111.702V31.6935H110.994L109.105 28.3102V31.6935H108.555V27.5234Z" fill="white"/>
<path d="M117.524 28.1529L116.737 30.1986H118.389L117.524 28.1529ZM117.209 27.5234H117.838L119.569 31.6935H118.94L118.546 30.6706H116.579L116.186 31.6935H115.557L117.209 27.5234Z" fill="white"/>
<path d="M123.344 27.5234H123.895V31.1427H125.625V31.6935H123.344V27.5234Z" fill="white"/>
<path d="M23.3439 8.25C24.4455 9.27284 25.6257 10.3744 26.6485 11.4759L25.4683 13.0495V13.1282L28.6942 14.5444L30.8972 13.0495L29.5597 11.5546V11.4759C30.8972 10.5317 32.0775 9.58756 33.3363 8.72208L32.7069 15.3312H13.981L13.3516 8.72208C14.6891 9.58756 15.7906 10.5317 17.1282 11.4759V11.5546L15.7906 13.0495L17.9937 14.5444L21.2196 13.1282V13.0495L20.0394 11.4759C20.9835 10.3744 22.2424 9.27284 23.3439 8.25Z" fill="#FEFEFE"/>
<path d="M32.5479 16.5078L32.3905 18.7109H25.4667V26.2642H28.8499C29.6367 26.2642 30.4235 25.4774 30.2662 24.9266C30.1088 24.1398 29.4007 23.6677 28.7712 23.2743C28.9286 23.2743 31.2103 21.5433 32.3118 20.8352C32.2332 21.3073 31.525 27.523 31.4464 27.6017L23.3423 30.6702H23.1849L15.2382 27.6017C15.2382 27.523 14.4514 21.3073 14.3728 20.8352C15.4743 21.5433 17.756 23.2743 17.9134 23.2743C17.2839 23.6677 16.5758 24.1398 16.4184 24.9266C16.2611 25.4774 17.0479 26.2642 17.8347 26.2642H21.2179V18.7109H14.2941L14.1367 16.5078H32.5479Z" fill="#FEFEFE"/>
<path d="M44.5861 14.3875C45.9237 14.3875 47.4973 13.758 47.4973 12.1844C47.4973 10.5321 46.081 9.9027 44.5861 9.9027V14.3875ZM43.3272 12.5778C43.3272 10.4535 43.2485 10.0601 41.6749 9.98138V9.74534L45.0582 9.66666C48.5988 9.58798 48.8348 11.3189 48.8348 11.9484C48.8348 13.1286 48.1267 13.8367 47.1039 14.2301L47.1826 14.3088C48.2841 16.1971 49.6216 18.6362 51.9034 19.1083L51.8247 19.3443C50.3298 19.2656 49.2282 19.3443 48.4414 18.4788C47.4973 17.5347 46.7892 16.2758 46.4744 15.6464C45.9237 14.4662 45.4516 14.7809 44.4287 14.6235V16.9052C44.4287 18.4788 44.4287 18.7149 46.3958 19.0296V19.2656H41.5176V19.0296C43.1699 18.7936 43.1699 18.4002 43.2485 16.9052L43.3272 12.5778Z" fill="#FEFEFE"/>
<path d="M53.9502 13.2059C52.4553 13.2059 51.8258 14.7795 51.8258 16.1171C51.8258 17.4546 52.534 19.1069 54.0289 19.1069C55.4451 19.1069 56.0746 17.4546 56.0746 16.2744C56.1533 14.9369 55.5238 13.2059 53.9502 13.2059ZM53.9502 19.343C52.0619 19.343 50.4883 18.0841 50.4883 16.1171C50.4883 14.1501 52.0619 12.8125 53.9502 12.8125C55.8385 12.8125 57.3335 14.0714 57.3335 16.0384C57.4121 18.0054 55.8385 19.343 53.9502 19.343Z" fill="#FEFEFE"/>
<path d="M57.8822 14.3046C57.6462 13.6752 57.5675 13.5178 56.8594 13.4392V13.2031H59.7705V13.4392C58.7477 13.5178 58.9837 14.1473 59.2985 14.8554L60.636 18.4747L61.5015 15.9569C62.1309 14.1473 62.2096 13.5965 61.1868 13.5178V13.2818H63.6259V13.5178C62.9964 13.5965 62.8391 13.8326 62.5244 14.3833L61.9736 15.6422L59.8492 21.0711C59.2985 22.4087 58.9837 22.8021 58.433 22.8021C58.0396 22.8021 57.7249 22.4874 57.7249 22.094C57.7249 21.7793 57.8822 21.5432 58.1969 21.4645C58.3543 21.5432 58.7477 21.8579 58.9051 21.8579C59.2198 21.8579 59.4558 21.0711 59.5345 20.9138L60.0066 19.8123L57.8822 14.3046Z" fill="#FEFEFE"/>
<path d="M64.4919 16.982C64.4132 17.1394 64.4132 17.3754 64.4132 17.5328C64.4132 18.1622 64.7279 18.6343 65.3573 18.6343C65.7507 18.6343 66.1441 18.3982 66.3802 18.0835V15.9592L64.4919 16.982ZM66.3802 15.7231C66.4589 14.1495 66.0655 13.5201 64.9639 13.5201C64.0198 13.5201 64.0985 13.9921 64.0985 14.7789L63.469 14.8576C63.3903 14.8576 63.1543 14.8576 63.1543 14.7003C63.1543 14.3069 64.7279 12.8906 65.8294 12.8906C67.0883 12.8906 67.4817 13.9135 67.4817 15.015V16.982C67.4817 18.2409 67.403 19.0277 68.6619 18.7916V19.1064C68.1111 19.2637 67.6391 19.3424 67.2457 19.3424C66.6949 19.3424 66.4589 19.0277 66.3802 18.4769C65.9081 18.949 65.3573 19.4211 64.5705 19.4211C63.7051 19.4211 63.1543 18.6343 63.1543 17.8475C63.1543 17.6114 63.1543 17.4541 63.233 17.218L66.3802 15.7231Z" fill="#FEFEFE"/>
<path d="M68.0332 19.2636V18.9489C68.9774 18.8702 69.1347 18.6342 69.1347 17.69V11.7103C69.1347 11.0809 69.1347 10.9235 68.4266 10.4514V10.2154L70.0002 9.58594L70.1576 9.66462V17.6113C70.1576 18.7915 70.2362 18.8702 71.2591 19.0276V19.2636H68.0332Z" fill="#FEFEFE"/>
<path d="M82.5876 16.982C82.5089 17.1394 82.5089 17.3754 82.5089 17.5328C82.5089 18.1622 82.8236 18.6343 83.453 18.6343C83.8464 18.6343 84.2398 18.3982 84.4759 18.0835V15.9592L82.5876 16.982ZM84.4759 15.7231C84.5546 14.1495 84.1612 13.5201 83.0596 13.5201C82.1155 13.5201 82.1942 13.9921 82.1942 14.7789L81.5647 14.8576C81.486 14.8576 81.25 14.8576 81.25 14.7003C81.25 14.3069 82.7449 12.8906 83.9251 12.8906C85.184 12.8906 85.5774 13.9135 85.5774 15.015V16.982C85.5774 18.2409 85.4201 19.1064 86.7576 18.7916V19.1064C86.2069 19.2637 85.7348 19.3424 85.3414 19.3424C84.7906 19.3424 84.5546 19.0277 84.4759 18.4769C84.0038 18.949 83.453 19.4211 82.6662 19.4211C81.8008 19.4211 81.25 18.6343 81.25 17.8475C81.25 17.6114 81.25 17.4541 81.3287 17.218L84.4759 15.7231Z" fill="#FEFEFE"/>
<path d="M80.3864 12.5763H80.1504C79.9143 11.0027 78.9702 9.82253 77.3179 9.82253C74.8001 9.82253 73.3052 11.9469 73.3052 14.386C73.3052 17.1398 75.4295 19.1068 77.3965 19.1068C79.2062 19.1068 79.9143 17.7692 80.5438 16.1956L80.7011 16.2743C80.5438 17.1398 80.3077 18.0053 79.9143 18.7921C79.0488 19.2642 78.026 19.4215 77.0818 19.4215C74.1707 19.4215 71.5742 17.6906 71.5742 14.5433C71.5742 12.0256 73.5412 9.50781 77.1605 9.50781C78.1834 9.50781 79.2849 9.74385 80.229 10.2946V12.5763H80.3864Z" fill="#FEFEFE"/>
<path d="M115.791 16.982C115.713 17.1394 115.713 17.3754 115.713 17.5328C115.713 18.1622 116.027 18.6343 116.657 18.6343C117.05 18.6343 117.444 18.3982 117.68 18.0835V15.9592L115.791 16.982ZM117.68 15.7231C117.758 14.1495 117.365 13.5201 116.263 13.5201C115.319 13.5201 115.398 13.9921 115.398 14.7789L114.69 14.8576C114.611 14.8576 114.375 14.8576 114.375 14.7003C114.375 14.3069 115.949 12.8906 117.05 12.8906C118.309 12.8906 118.702 13.9135 118.702 15.015V16.982C118.702 18.2409 118.466 19.0277 119.804 18.949V19.185C119.253 19.3424 118.938 19.3424 118.545 19.3424C117.994 19.3424 117.758 19.0277 117.68 18.4769C117.207 18.949 116.657 19.4211 115.87 19.4211C115.004 19.4211 114.454 18.6343 114.454 17.8475C114.454 17.6114 114.454 17.4541 114.532 17.218L117.68 15.7231Z" fill="#FEFEFE"/>
<path d="M88.3328 17.6114C88.3328 18.7916 88.4115 18.8703 89.749 19.0277V19.2637H86.2871V18.949C87.2313 18.8703 87.31 18.6343 87.31 17.5328V14.9363C87.31 14.3069 87.31 14.1495 86.6018 13.6774V13.5201L88.2541 12.8906L88.4115 12.9693L88.3328 14.6216C88.6475 13.9135 89.4343 12.8906 90.2998 12.8906C90.6932 12.8906 91.0079 13.1267 91.0079 13.5201C91.0079 13.9135 90.6145 14.2282 90.2998 14.3855C90.0638 14.2282 89.749 13.9135 89.4343 13.9135C88.2541 13.9921 88.3328 15.9592 88.3328 16.1165V17.6114Z" fill="#FEFEFE"/>
<path d="M93.6841 10.5284C93.6841 10.9218 93.3693 11.2366 92.9759 11.2366C92.5825 11.2366 92.2678 10.9218 92.2678 10.5284C92.2678 10.135 92.5825 9.82031 92.9759 9.82031C93.3693 9.82031 93.6841 10.135 93.6841 10.5284ZM91.4023 19.2619V19.0259C92.4252 18.8685 92.5039 18.7112 92.5039 17.6097V14.9345C92.5039 14.3051 92.5039 14.1477 91.6384 13.6756V13.5183L93.448 12.8888L93.6054 12.9675V17.6097C93.6054 18.7899 93.6841 18.8685 94.7069 19.0259V19.2619H91.4023Z" fill="#FEFEFE"/>
<path d="M96.2784 16.3524C96.2784 17.69 96.4358 18.9489 98.0094 18.9489C98.7962 18.9489 100.055 18.3194 100.055 16.3524C100.055 14.6215 98.9535 13.5986 97.616 13.5986C97.1439 13.5986 96.7505 13.756 96.3571 13.9133L96.2784 16.3524ZM95.1769 11.6316C95.1769 11.0022 95.1769 10.8448 94.4688 10.3727V10.2154L96.0424 9.58594L96.1997 9.66462V13.6773C96.9078 13.2839 97.7733 12.8905 98.5601 12.8905C100.134 12.8905 101.157 14.3068 101.157 15.8017C101.157 18.3194 98.8748 19.421 97.3799 19.421C96.5144 19.421 95.885 19.1849 95.1769 18.8702V11.6316Z" fill="#FEFEFE"/>
<path d="M102.966 16.3524C102.966 17.69 103.123 18.9489 104.697 18.9489C105.484 18.9489 106.743 18.3194 106.743 16.3524C106.743 14.6215 105.641 13.5986 104.303 13.5986C103.831 13.5986 103.438 13.756 103.045 13.9133L102.966 16.3524ZM101.864 11.6316C101.864 11.0022 101.864 10.8448 101.156 10.3727V10.2154L102.73 9.58594L102.887 9.66462V13.6773C103.595 13.2839 104.461 12.8905 105.248 12.8905C106.821 12.8905 107.844 14.3068 107.844 15.8017C107.844 18.3194 105.562 19.421 104.067 19.421C103.202 19.421 102.572 19.1849 101.864 18.8702V11.6316Z" fill="#FEFEFE"/>
<path d="M112.487 14.5429C112.329 13.9135 111.936 13.1267 111.228 13.1267C110.441 13.1267 109.969 13.9135 109.812 14.6216L112.487 14.5429ZM109.733 15.6444C109.654 17.1394 110.598 18.4769 112.172 18.4769C112.88 18.4769 113.431 18.1622 113.824 17.6114L114.06 17.7688C113.51 18.713 112.565 19.4211 111.464 19.4211C109.733 19.4211 108.553 18.0048 108.553 16.2739C108.553 14.4642 109.812 12.8906 111.7 12.8906C112.959 12.8906 113.824 13.6774 113.824 14.9363H109.812L109.733 15.6444Z" fill="#FEFEFE"/>
<path d="M120.434 14.9363C120.434 14.3069 120.434 14.1495 119.725 13.6774V13.5201L121.378 12.8906L121.535 12.9693L121.456 13.9921C122.243 13.3627 123.03 12.8906 123.895 12.8906C125.548 12.8906 125.626 14.3069 125.626 15.0937V17.6114C125.626 18.7916 125.705 18.8703 126.728 19.0277V19.2637H123.502V19.0277C124.525 18.8703 124.604 18.713 124.604 17.6114V15.9592C124.604 14.9363 124.682 13.5987 122.951 13.5987C122.401 13.5987 122.007 13.7561 121.535 14.2282V17.6114C121.535 18.7916 121.614 18.8703 122.637 19.0277V19.2637H119.332V19.0277C120.355 18.949 120.434 18.713 120.434 17.6114V14.9363Z" fill="#FEFEFE"/>
<path d="M43.4061 31.6935H43.9569V27.5234H43.4061V31.6935Z" fill="white"/>
<path d="M48.2051 27.5234H48.9919L50.8015 30.9067V27.5234H51.431V31.6935H50.6442L48.7558 28.3102V31.6935H48.2051V27.5234Z" fill="white"/>
<path d="M56.3878 28.0742H55.1289V27.5234H58.2761V28.0742H57.0172V31.6935H56.3878V28.0742Z" fill="white"/>
<path d="M62.0547 27.5234H64.3364V28.0742H62.6055V29.2544H64.1791V29.8052H62.6055V31.1427H64.3364V31.6935H62.0547V27.5234Z" fill="white"/>
</svg>
