<svg width="112" height="82" viewBox="0 0 112 82" fill="none" xmlns="http://www.w3.org/2000/svg">
<path fill-rule="evenodd" clip-rule="evenodd" d="M61.3539 59.4111C63.6987 58.596 81.4 52.1595 81.4 36.3C81.4 34.6871 81.4108 33.2151 81.4254 31.8732L87 39.1998H91.8697C91.8797 39.2001 91.8898 39.2002 91.9 39.2002C91.9068 39.2002 91.9137 39.2001 91.9205 39.1998H97.9L102.3 43.8998C102.5 44.1998 102.8 44.1998 103 44.1998H103.2C103.4 44.1998 103.6 44.1998 103.8 43.9998C104.1 43.5998 104.1 43.0998 103.8 42.6998L98.8 37.3998H94.3465L97 35.1002C97.4 34.7002 97.4 34.2002 97.1 33.8002C96.7 33.4002 96.2 33.4002 95.8 33.7002L91.5312 37.3998H88L82.1757 29.7834L90.9 25.0998H92.5989L92.6 25.1003H93V25.2003C93.1274 25.2003 93.2548 25.1643 93.3745 25.0998H99.9C100.4 25.0998 100.8 24.6998 100.8 24.1998C100.8 23.6998 100.4 23.2998 99.9 23.2998H94.5003L95.8 20.7003C96 20.3003 95.8 19.7003 95.4 19.5003C95 19.3003 94.4 19.5003 94.2 19.9003L92.5003 23.2998H90.4L81.475 28.0779C81.4893 27.0049 81.5 26.0491 81.5 25.2C81.7 18.9 81.7 17.8 80.3 16.4C78.5 14.6 63.6 9.5 60.9 9.5C58.2 9.5 43.4 14.5 41.5 16.4C40.2 17.8 40.2 18.9 40.3 25.2C40.3728 27.0937 40.3926 29.5179 40.398 32.5884C40.3353 32.7114 40.3 32.8511 40.3 32.9996V39.7002H16.3478C15.9389 38.4073 14.7491 37.5 13.3 37.5C11.5 37.5 10.1 38.9 10.1 40.7C10.1 42.5 11.5 43.9 13.3 43.9C14.8225 43.9 16.0589 42.8983 16.4039 41.5002H26.7555L24.5632 43.6925C24.1521 43.5045 23.6909 43.4004 23.2 43.4004C21.4 43.4004 20 44.9004 20 46.6004C20 48.3004 21.4 49.8004 23.2 49.8004C25 49.8004 26.4 48.4004 26.4 46.6004C26.4 45.9631 26.2245 45.376 25.9179 44.8834L29.3011 41.5002H40.3V45.1996L35.9 51.5996H19.1C18.9 51.5996 18.7 51.6996 18.5 51.7996L13.2483 56.4678C12.9214 56.3587 12.5691 56.2998 12.2 56.2998C10.4 56.2998 9 57.7998 9 59.4998C9 61.1998 10.4 62.6998 12.2 62.6998C14 62.6998 15.4 61.2998 15.4 59.4998C15.4 58.7936 15.1845 58.149 14.8139 57.6263L19.5 53.3996H28.5735L26.2726 56.1128C25.9114 55.9753 25.5164 55.9004 25.1 55.9004C23.3 55.9004 21.9 57.4004 21.9 59.1004C21.9 60.8004 23.3 62.3004 25.1 62.3004C26.9 62.3004 28.3 60.9004 28.3 59.1004C28.3 58.3867 28.0799 57.7358 27.702 57.2102L30.9336 53.3996H36.4C36.7 53.3996 36.9 53.1996 37.1 52.9996L41.9 45.9996C42.1 45.8996 42.1 45.6996 42.1 45.4996V38.6557C42.164 38.4397 42.2 37.7708 42.2 36.3C42.2 33.4657 42.1665 31.0664 42.1383 29.0439V29.0435V29.0432V29.043V29.0427V29.0425C42.1178 27.5691 42.1 26.2957 42.1 25.2C42 19.2 42 18.5 42.8 17.7C44.1 16.4 58.5 11.3 60.9 11.3C63.3 11.3 77.7 16.4 79 17.7C79.7 18.5 79.8 19.2 79.7 25.2C79.6 27.7998 79.6 29.7997 79.6 36.2985V36.3C79.6 42.8 76.4 48.4 70.2 52.9C65.5309 56.2777 60.6644 57.7802 60.6006 57.7998H43.9C43.7 57.7998 43.5 57.7998 43.3 57.9998L39.3714 61.5629C38.9337 61.3324 38.4345 61.2002 37.9 61.2002C36.1 61.2002 34.7 62.6002 34.7 64.4002C34.7 66.2002 36.1 67.6002 37.9 67.6002C39.7 67.6002 41.1 66.1002 41.1 64.4002C41.1 63.8706 40.9641 63.3604 40.7226 62.9089L44.3 59.5998H51.9939L47.9128 65.4282C47.5408 65.2808 47.1319 65.2002 46.7 65.2002C44.9 65.2002 43.5 66.7002 43.5 68.4002C43.5 70.1002 44.9 71.6002 46.7 71.6002C48.5 71.6002 49.9 70.2002 49.9 68.4002C49.9 67.7027 49.6898 67.0652 49.3275 66.546L54.1913 59.5998H60.8C61.0096 59.5998 61.2015 59.5295 61.3539 59.4111ZM11.9 40.6C11.9 39.8 12.5 39.2 13.3 39.2C14.1 39.2 14.7 39.8 14.7 40.6C14.7 41.4 14.1 42 13.3 42C12.5 42 11.9 41.4 11.9 40.6ZM21.8 46.5004C21.8 45.7004 22.4 45.1004 23.2 45.1004C24 45.1004 24.6 45.7004 24.6 46.5004C24.6 47.3004 24 47.9004 23.2 47.9004C22.4 47.9004 21.8 47.3004 21.8 46.5004ZM46.7 67.0002C45.9 67.0002 45.3 67.6002 45.3 68.4002C45.3 69.2002 45.9 69.8002 46.7 69.8002C47.5 69.8002 48.1 69.2002 48.1 68.4002C48.1 67.6002 47.5 67.0002 46.7 67.0002ZM10.8 59.3998C10.8 58.5998 11.4 57.9998 12.2 57.9998C13 57.9998 13.6 58.5998 13.6 59.3998C13.6 60.1998 13 60.7998 12.2 60.7998C11.4 60.7998 10.8 60.1998 10.8 59.3998ZM37.9 62.9002C37.1 62.9002 36.5 63.5002 36.5 64.3002C36.5 65.1002 37.1 65.7002 37.9 65.7002C38.7 65.7002 39.3 65.1002 39.3 64.3002C39.3 63.5002 38.7 62.9002 37.9 62.9002ZM23.7 59.0004C23.7 58.2004 24.3 57.6004 25.1 57.6004C25.9 57.6004 26.5 58.2004 26.5 59.0004C26.5 59.8004 25.9 60.4004 25.1 60.4004C24.3 60.4004 23.7 59.8004 23.7 59.0004ZM69.1 33.6002C69.1 38.2394 65.3392 42.0002 60.7 42.0002C56.0608 42.0002 52.3 38.2394 52.3 33.6002C52.3 28.961 56.0608 25.2002 60.7 25.2002C65.3392 25.2002 69.1 28.961 69.1 33.6002Z" fill="url(#paint0_linear_3002_7059)"/>
<path d="M59.6 37.0008C59.3 37.0008 59 36.9008 58.8 36.7008L56.8 34.7008C56.4 34.3008 56.4 33.6008 56.8 33.2008C57.2 32.8008 57.9 32.8008 58.3 33.2008L59.6 34.5008L63 31.1008C63.4 30.7008 64.1 30.7008 64.5 31.1008C64.9 31.5008 64.9 32.2008 64.5 32.6008L60.3 36.8008C60.1 37.0008 59.8 37.1008 59.5 37.1008L59.6 37.0008Z" fill="white"/>
<defs>
<linearGradient id="paint0_linear_3002_7059" x1="41" y1="16" x2="99.5194" y2="43.3265" gradientUnits="userSpaceOnUse">
<stop stop-color="#DB8016"/>
<stop offset="1" stop-color="#DBAC16"/>
</linearGradient>
</defs>
</svg>
