<svg width="575" height="450" viewBox="0 0 575 450" fill="none" xmlns="http://www.w3.org/2000/svg">
<g clip-path="url(#clip0_2079_52803)">
<rect width="579" height="450" rx="21" fill="white"/>
<path d="M27.282 30.995C27.282 31.373 27.3112 31.7242 27.3695 32.0485C27.4302 32.3728 27.5177 32.668 27.632 32.934C27.7487 33.2 27.891 33.4357 28.059 33.641C28.227 33.844 28.4195 34.0155 28.6365 34.1555C28.8558 34.2955 29.0985 34.4017 29.3645 34.474C29.6305 34.544 29.9175 34.579 30.2255 34.579C30.5988 34.579 30.936 34.5253 31.237 34.418C31.5403 34.3107 31.8063 34.1508 32.035 33.9385C32.2637 33.7262 32.455 33.4625 32.609 33.1475C32.7653 32.8302 32.8808 32.4627 32.9555 32.045H34.793C34.6927 32.6937 34.513 33.2758 34.254 33.7915C33.995 34.3048 33.6683 34.7412 33.274 35.1005C32.882 35.4598 32.4282 35.7352 31.9125 35.9265C31.3992 36.1155 30.8357 36.21 30.222 36.21C29.753 36.21 29.3073 36.1528 28.885 36.0385C28.465 35.9265 28.0777 35.7643 27.723 35.552C27.3707 35.3397 27.0522 35.0807 26.7675 34.775C26.4852 34.467 26.2448 34.1205 26.0465 33.7355C25.8482 33.3482 25.6965 32.9247 25.5915 32.465C25.4865 32.0053 25.434 31.5153 25.434 30.995C25.434 30.4747 25.4865 29.9847 25.5915 29.525C25.6965 29.0653 25.8482 28.643 26.0465 28.258C26.2448 27.8707 26.4852 27.5242 26.7675 27.2185C27.0522 26.9105 27.3707 26.6503 27.723 26.438C28.0777 26.2257 28.465 26.0635 28.885 25.9515C29.3073 25.8372 29.753 25.78 30.222 25.78C30.8357 25.78 31.3992 25.8757 31.9125 26.067C32.4282 26.256 32.882 26.5302 33.274 26.8895C33.6683 27.2488 33.995 27.6863 34.254 28.202C34.513 28.7153 34.6927 29.2963 34.793 29.945H32.9555C32.8808 29.5273 32.7653 29.161 32.609 28.846C32.455 28.5287 32.2637 28.2638 32.035 28.0515C31.8063 27.8392 31.5403 27.6793 31.237 27.572C30.936 27.4647 30.5988 27.411 30.2255 27.411C29.9175 27.411 29.6305 27.4472 29.3645 27.5195C29.0985 27.5895 28.8558 27.6945 28.6365 27.8345C28.4195 27.9745 28.227 28.1472 28.059 28.3525C27.891 28.5555 27.7487 28.79 27.632 29.056C27.5177 29.322 27.4302 29.6172 27.3695 29.9415C27.3112 30.2658 27.282 30.617 27.282 30.995ZM37.8222 32.325V36H36.0652V28.2825H37.8222V30.8935L37.8117 30.9005C37.8887 30.4968 38.0031 30.1328 38.1547 29.8085C38.3087 29.4842 38.5012 29.2088 38.7322 28.9825C38.9632 28.7562 39.2339 28.5835 39.5442 28.4645C39.8569 28.3432 40.2116 28.2825 40.6082 28.2825H41.0107V29.945H40.4333C39.9362 29.945 39.5197 29.9928 39.1838 30.0885C38.8501 30.1842 38.5829 30.33 38.3822 30.526C38.1816 30.722 38.0381 30.9693 37.9517 31.268C37.8654 31.5667 37.8222 31.919 37.8222 32.325ZM43.8718 28.2825V36H42.1148V28.2825H43.8718ZM43.8998 25.64V27.432H42.0868V25.64H43.8998ZM48.3975 28.0725C48.9435 28.0725 49.43 28.1332 49.857 28.2545C50.284 28.3758 50.6445 28.5497 50.9385 28.776C51.2325 29.0023 51.4553 29.2777 51.607 29.602C51.761 29.924 51.838 30.2857 51.838 30.687H50.1125C50.1125 30.498 50.0763 30.3277 50.004 30.176C49.9317 30.0243 49.8232 29.8948 49.6785 29.7875C49.5362 29.6802 49.3588 29.5973 49.1465 29.539C48.9365 29.4807 48.6938 29.4515 48.4185 29.4515C48.1758 29.4515 47.953 29.4748 47.75 29.5215C47.547 29.5658 47.3732 29.63 47.2285 29.714C47.0838 29.798 46.9718 29.8983 46.8925 30.015C46.8132 30.1317 46.7735 30.2612 46.7735 30.4035C46.7735 30.5155 46.7957 30.6135 46.84 30.6975C46.8867 30.7792 46.9497 30.8515 47.029 30.9145C47.1107 30.9775 47.2063 31.0312 47.316 31.0755C47.4257 31.1198 47.5435 31.1595 47.6695 31.1945C47.7978 31.2272 47.932 31.2552 48.072 31.2785C48.2143 31.3018 48.3567 31.3263 48.499 31.352L49.0135 31.436C49.2258 31.471 49.4487 31.5107 49.682 31.555C49.9177 31.5993 50.1487 31.6577 50.375 31.73C50.6037 31.8 50.8218 31.8898 51.0295 31.9995C51.2395 32.1068 51.4227 32.2422 51.579 32.4055C51.7377 32.5688 51.8637 32.7648 51.957 32.9935C52.0527 33.2222 52.1005 33.4905 52.1005 33.7985C52.1005 34.1835 52.0223 34.5253 51.866 34.824C51.712 35.1227 51.4845 35.3747 51.1835 35.58C50.8848 35.7853 50.515 35.9417 50.074 36.049C49.633 36.1563 49.1255 36.21 48.5515 36.21C47.9518 36.21 47.4245 36.1505 46.9695 36.0315C46.5145 35.9148 46.1342 35.7433 45.8285 35.517C45.5252 35.2883 45.2953 35.0083 45.139 34.677C44.985 34.3457 44.908 33.9642 44.908 33.5325H46.6335C46.6335 33.7402 46.672 33.9245 46.749 34.0855C46.826 34.2465 46.9438 34.3818 47.1025 34.4915C47.2612 34.6012 47.4595 34.684 47.6975 34.74C47.9378 34.796 48.219 34.824 48.541 34.824C48.8303 34.824 49.0882 34.8018 49.3145 34.7575C49.5408 34.7132 49.7322 34.649 49.8885 34.565C50.0472 34.4787 50.1673 34.3748 50.249 34.2535C50.333 34.1298 50.375 33.9898 50.375 33.8335C50.375 33.7052 50.3505 33.5943 50.3015 33.501C50.2548 33.4077 50.1895 33.326 50.1055 33.256C50.0215 33.186 49.9212 33.1253 49.8045 33.074C49.6878 33.0227 49.5595 32.9783 49.4195 32.941C49.2795 32.9013 49.1302 32.8675 48.9715 32.8395C48.8152 32.8092 48.6542 32.7788 48.4885 32.7485L47.9705 32.6575C47.7792 32.6248 47.5738 32.5875 47.3545 32.5455C47.1352 32.5035 46.917 32.4487 46.7 32.381C46.483 32.311 46.2753 32.2247 46.077 32.122C45.8787 32.017 45.7025 31.8887 45.5485 31.737C45.3968 31.583 45.2755 31.401 45.1845 31.191C45.0935 30.9787 45.048 30.7278 45.048 30.4385C45.048 30.0768 45.125 29.7502 45.279 29.4585C45.433 29.1668 45.6535 28.9183 45.9405 28.713C46.2298 28.5077 46.581 28.3502 46.994 28.2405C47.4093 28.1285 47.8772 28.0725 48.3975 28.0725ZM54.9181 28.2825V36H53.1611V28.2825H54.9181ZM54.9461 25.64V27.432H53.1331V25.64H54.9461ZM59.4438 28.0725C59.9898 28.0725 60.4763 28.1332 60.9033 28.2545C61.3303 28.3758 61.6908 28.5497 61.9848 28.776C62.2788 29.0023 62.5017 29.2777 62.6533 29.602C62.8073 29.924 62.8843 30.2857 62.8843 30.687H61.1588C61.1588 30.498 61.1227 30.3277 61.0503 30.176C60.978 30.0243 60.8695 29.8948 60.7248 29.7875C60.5825 29.6802 60.4052 29.5973 60.1928 29.539C59.9828 29.4807 59.7402 29.4515 59.4648 29.4515C59.2222 29.4515 58.9993 29.4748 58.7963 29.5215C58.5933 29.5658 58.4195 29.63 58.2748 29.714C58.1302 29.798 58.0182 29.8983 57.9388 30.015C57.8595 30.1317 57.8198 30.2612 57.8198 30.4035C57.8198 30.5155 57.842 30.6135 57.8863 30.6975C57.933 30.7792 57.996 30.8515 58.0753 30.9145C58.157 30.9775 58.2527 31.0312 58.3623 31.0755C58.472 31.1198 58.5898 31.1595 58.7158 31.1945C58.8442 31.2272 58.9783 31.2552 59.1183 31.2785C59.2607 31.3018 59.403 31.3263 59.5453 31.352L60.0598 31.436C60.2722 31.471 60.495 31.5107 60.7283 31.555C60.964 31.5993 61.195 31.6577 61.4213 31.73C61.65 31.8 61.8682 31.8898 62.0758 31.9995C62.2858 32.1068 62.469 32.2422 62.6253 32.4055C62.784 32.5688 62.91 32.7648 63.0033 32.9935C63.099 33.2222 63.1468 33.4905 63.1468 33.7985C63.1468 34.1835 63.0687 34.5253 62.9123 34.824C62.7583 35.1227 62.5308 35.3747 62.2298 35.58C61.9312 35.7853 61.5613 35.9417 61.1203 36.049C60.6793 36.1563 60.1718 36.21 59.5978 36.21C58.9982 36.21 58.4708 36.1505 58.0158 36.0315C57.5608 35.9148 57.1805 35.7433 56.8748 35.517C56.5715 35.2883 56.3417 35.0083 56.1853 34.677C56.0313 34.3457 55.9543 33.9642 55.9543 33.5325H57.6798C57.6798 33.7402 57.7183 33.9245 57.7953 34.0855C57.8723 34.2465 57.9902 34.3818 58.1488 34.4915C58.3075 34.6012 58.5058 34.684 58.7438 34.74C58.9842 34.796 59.2653 34.824 59.5873 34.824C59.8767 34.824 60.1345 34.8018 60.3608 34.7575C60.5872 34.7132 60.7785 34.649 60.9348 34.565C61.0935 34.4787 61.2137 34.3748 61.2953 34.2535C61.3793 34.1298 61.4213 33.9898 61.4213 33.8335C61.4213 33.7052 61.3968 33.5943 61.3478 33.501C61.3012 33.4077 61.2358 33.326 61.1518 33.256C61.0678 33.186 60.9675 33.1253 60.8508 33.074C60.7342 33.0227 60.6058 32.9783 60.4658 32.941C60.3258 32.9013 60.1765 32.8675 60.0178 32.8395C59.8615 32.8092 59.7005 32.7788 59.5348 32.7485L59.0168 32.6575C58.8255 32.6248 58.6202 32.5875 58.4008 32.5455C58.1815 32.5035 57.9633 32.4487 57.7463 32.381C57.5293 32.311 57.3217 32.2247 57.1233 32.122C56.925 32.017 56.7488 31.8887 56.5948 31.737C56.4432 31.583 56.3218 31.401 56.2308 31.191C56.1398 30.9787 56.0943 30.7278 56.0943 30.4385C56.0943 30.0768 56.1713 29.7502 56.3253 29.4585C56.4793 29.1668 56.6998 28.9183 56.9868 28.713C57.2762 28.5077 57.6273 28.3502 58.0403 28.2405C58.4557 28.1285 58.9235 28.0725 59.4438 28.0725ZM76.5207 25.99H79.4887V36H77.6477V27.047H77.8192L74.6762 36H72.4362L69.3282 27.047H69.4997V36H67.7217V25.99H70.7422L73.8047 34.8205H73.4232L76.5207 25.99ZM80.7947 31.0405C80.7947 30.5855 80.8787 30.1748 81.0467 29.8085C81.2147 29.4422 81.4539 29.1307 81.7642 28.874C82.0769 28.615 82.456 28.4167 82.9017 28.279C83.3497 28.1413 83.8514 28.0725 84.4067 28.0725C84.9877 28.0725 85.5069 28.1483 85.9642 28.3C86.4239 28.4517 86.8124 28.671 87.1297 28.958C87.447 29.245 87.6897 29.5962 87.8577 30.0115C88.028 30.4245 88.1132 30.8947 88.1132 31.422V36H86.3562V33.935H86.3667C86.3084 34.1707 86.2279 34.39 86.1252 34.593C86.0249 34.796 85.9047 34.9827 85.7647 35.153C85.6247 35.321 85.466 35.4703 85.2887 35.601C85.1114 35.7317 84.9177 35.8425 84.7077 35.9335C84.5 36.0245 84.2772 36.0933 84.0392 36.14C83.8012 36.1867 83.5504 36.21 83.2867 36.21C82.8784 36.21 82.5062 36.1552 82.1702 36.0455C81.8365 35.9358 81.5507 35.7807 81.3127 35.58C81.0747 35.377 80.8904 35.1343 80.7597 34.852C80.6314 34.5673 80.5672 34.2523 80.5672 33.907C80.5672 33.5477 80.6384 33.2257 80.7807 32.941C80.923 32.6563 81.1272 32.4148 81.3932 32.2165C81.6615 32.0158 81.987 31.863 82.3697 31.758C82.7547 31.653 83.1899 31.6005 83.6752 31.6005H86.4087V32.8325H83.7767C83.5364 32.8325 83.3252 32.8535 83.1432 32.8955C82.9635 32.9352 82.8119 32.9958 82.6882 33.0775C82.5669 33.1568 82.4747 33.256 82.4117 33.375C82.3487 33.494 82.3172 33.6317 82.3172 33.788C82.3172 33.9513 82.351 34.0972 82.4187 34.2255C82.4887 34.3538 82.5902 34.4612 82.7232 34.5475C82.8562 34.6338 83.0207 34.7003 83.2167 34.747C83.4127 34.7913 83.6379 34.8135 83.8922 34.8135C84.1302 34.8135 84.3565 34.7937 84.5712 34.754C84.7859 34.712 84.9842 34.6548 85.1662 34.5825C85.3482 34.5078 85.5127 34.4192 85.6597 34.3165C85.8067 34.2115 85.9315 34.0937 86.0342 33.963C86.1392 33.8323 86.2185 33.6912 86.2722 33.5395C86.3282 33.3855 86.3562 33.2233 86.3562 33.053V31.422C86.3562 31.1303 86.3107 30.869 86.2197 30.638C86.1287 30.4047 85.9969 30.2063 85.8242 30.043C85.6539 29.8797 85.4462 29.7548 85.2012 29.6685C84.9562 29.5822 84.6797 29.539 84.3717 29.539C84.0567 29.539 83.7849 29.5752 83.5562 29.6475C83.3275 29.7175 83.1385 29.8178 82.9892 29.9485C82.8399 30.0768 82.729 30.2343 82.6567 30.421C82.5844 30.6053 82.5482 30.8118 82.5482 31.0405H80.7947ZM91.1267 31.8875V36H89.3697V28.2825H91.1267V30.596L91.1162 30.603C91.2025 30.2017 91.3285 29.8447 91.4942 29.532C91.6599 29.217 91.8617 28.9522 92.0997 28.7375C92.3377 28.5205 92.6095 28.356 92.9152 28.244C93.2209 28.1297 93.5534 28.0725 93.9127 28.0725C94.342 28.0725 94.7235 28.1518 95.0572 28.3105C95.3909 28.4668 95.6709 28.6955 95.8972 28.9965C96.1259 29.2975 96.2997 29.6673 96.4187 30.106C96.54 30.5447 96.6007 31.0428 96.6007 31.6005V36H94.8437V31.7755C94.8437 31.4162 94.8075 31.1035 94.7352 30.8375C94.6652 30.5692 94.5567 30.3452 94.4097 30.1655C94.265 29.9858 94.0842 29.8517 93.8672 29.763C93.6502 29.672 93.3959 29.6265 93.1042 29.6265C92.8942 29.6265 92.7005 29.6498 92.5232 29.6965C92.3459 29.7408 92.1837 29.8062 92.0367 29.8925C91.8897 29.9788 91.759 30.0862 91.6447 30.2145C91.5327 30.3428 91.4382 30.491 91.3612 30.659C91.2842 30.827 91.2259 31.0137 91.1862 31.219C91.1465 31.4243 91.1267 31.6472 91.1267 31.8875ZM97.8703 31.0405C97.8703 30.5855 97.9543 30.1748 98.1223 29.8085C98.2903 29.4422 98.5295 29.1307 98.8398 28.874C99.1525 28.615 99.5317 28.4167 99.9773 28.279C100.425 28.1413 100.927 28.0725 101.482 28.0725C102.063 28.0725 102.582 28.1483 103.04 28.3C103.499 28.4517 103.888 28.671 104.205 28.958C104.523 29.245 104.765 29.5962 104.933 30.0115C105.104 30.4245 105.189 30.8947 105.189 31.422V36H103.432V33.935H103.442C103.384 34.1707 103.303 34.39 103.201 34.593C103.1 34.796 102.98 34.9827 102.84 35.153C102.7 35.321 102.542 35.4703 102.364 35.601C102.187 35.7317 101.993 35.8425 101.783 35.9335C101.576 36.0245 101.353 36.0933 101.115 36.14C100.877 36.1867 100.626 36.21 100.362 36.21C99.954 36.21 99.5818 36.1552 99.2458 36.0455C98.9122 35.9358 98.6263 35.7807 98.3883 35.58C98.1503 35.377 97.966 35.1343 97.8353 34.852C97.707 34.5673 97.6428 34.2523 97.6428 33.907C97.6428 33.5477 97.714 33.2257 97.8563 32.941C97.9987 32.6563 98.2028 32.4148 98.4688 32.2165C98.7372 32.0158 99.0627 31.863 99.4453 31.758C99.8303 31.653 100.265 31.6005 100.751 31.6005H103.484V32.8325H100.852C100.612 32.8325 100.401 32.8535 100.219 32.8955C100.039 32.9352 99.8875 32.9958 99.7638 33.0775C99.6425 33.1568 99.5503 33.256 99.4873 33.375C99.4243 33.494 99.3928 33.6317 99.3928 33.788C99.3928 33.9513 99.4267 34.0972 99.4943 34.2255C99.5643 34.3538 99.6658 34.4612 99.7988 34.5475C99.9318 34.6338 100.096 34.7003 100.292 34.747C100.488 34.7913 100.713 34.8135 100.968 34.8135C101.206 34.8135 101.432 34.7937 101.647 34.754C101.861 34.712 102.06 34.6548 102.242 34.5825C102.424 34.5078 102.588 34.4192 102.735 34.3165C102.882 34.2115 103.007 34.0937 103.11 33.963C103.215 33.8323 103.294 33.6912 103.348 33.5395C103.404 33.3855 103.432 33.2233 103.432 33.053V31.422C103.432 31.1303 103.386 30.869 103.295 30.638C103.204 30.4047 103.072 30.2063 102.9 30.043C102.729 29.8797 102.522 29.7548 102.277 29.6685C102.032 29.5822 101.755 29.539 101.447 29.539C101.132 29.539 100.86 29.5752 100.632 29.6475C100.403 29.7175 100.214 29.8178 100.065 29.9485C99.9155 30.0768 99.8047 30.2343 99.7323 30.421C99.66 30.6053 99.6238 30.8118 99.6238 31.0405H97.8703ZM112.255 28.2825H114.012V34.782C114.012 35.398 113.918 35.9568 113.729 36.4585C113.542 36.9625 113.277 37.3918 112.934 37.7465C112.591 38.1035 112.177 38.3788 111.692 38.5725C111.209 38.7662 110.67 38.863 110.075 38.863C109.715 38.863 109.374 38.828 109.049 38.758C108.727 38.688 108.429 38.5877 108.153 38.457C107.878 38.3263 107.628 38.1688 107.404 37.9845C107.183 37.8002 106.994 37.5925 106.837 37.3615C106.681 37.1328 106.561 36.8843 106.477 36.616C106.393 36.3477 106.351 36.063 106.351 35.762H108.104C108.104 36.0023 108.153 36.224 108.251 36.427C108.352 36.6323 108.489 36.8097 108.664 36.959C108.839 37.1083 109.046 37.225 109.284 37.309C109.524 37.393 109.784 37.435 110.064 37.435C110.396 37.435 110.697 37.3732 110.967 37.2495C111.238 37.1258 111.468 36.9485 111.657 36.7175C111.848 36.4888 111.995 36.2112 112.098 35.8845C112.203 35.5578 112.255 35.1927 112.255 34.789V33.277L112.266 33.27C112.175 33.6573 112.045 34.005 111.877 34.313C111.709 34.6187 111.506 34.8788 111.268 35.0935C111.033 35.3082 110.765 35.4727 110.467 35.587C110.17 35.699 109.845 35.755 109.49 35.755C109.185 35.755 108.894 35.7118 108.619 35.6255C108.343 35.5392 108.089 35.4167 107.856 35.258C107.622 35.097 107.411 34.9022 107.222 34.6735C107.036 34.4448 106.876 34.1882 106.743 33.9035C106.612 33.6165 106.511 33.305 106.438 32.969C106.368 32.6307 106.333 32.2737 106.333 31.898C106.333 31.5223 106.368 31.1665 106.438 30.8305C106.511 30.4945 106.612 30.1853 106.743 29.903C106.876 29.6207 107.036 29.3663 107.222 29.14C107.411 28.9137 107.622 28.7223 107.856 28.566C108.089 28.4073 108.343 28.286 108.619 28.202C108.894 28.1157 109.186 28.0725 109.494 28.0725C109.846 28.0725 110.17 28.1285 110.467 28.2405C110.765 28.3525 111.033 28.5147 111.268 28.727C111.506 28.937 111.709 29.1937 111.877 29.497C112.045 29.8003 112.175 30.1445 112.266 30.5295L112.255 30.5225V28.2825ZM112.255 31.898C112.255 31.653 112.233 31.4267 112.189 31.219C112.147 31.009 112.085 30.8188 112.003 30.6485C111.922 30.4782 111.82 30.3277 111.699 30.197C111.577 30.0663 111.437 29.9567 111.279 29.868C111.12 29.7793 110.944 29.7128 110.75 29.6685C110.559 29.6218 110.351 29.5985 110.127 29.5985C109.798 29.5985 109.508 29.6475 109.256 29.7455C109.004 29.8412 108.791 29.9858 108.619 30.1795C108.446 30.3732 108.315 30.6135 108.227 30.9005C108.14 31.1852 108.097 31.5177 108.097 31.898C108.097 32.2783 108.142 32.6132 108.23 32.9025C108.319 33.1918 108.448 33.4357 108.619 33.634C108.791 33.83 109.004 33.9782 109.256 34.0785C109.508 34.1788 109.798 34.229 110.127 34.229C110.351 34.229 110.559 34.2057 110.75 34.159C110.944 34.11 111.119 34.0412 111.275 33.9525C111.434 33.8615 111.574 33.7495 111.695 33.6165C111.819 33.4812 111.922 33.3272 112.003 33.1545C112.085 32.9818 112.147 32.7905 112.189 32.5805C112.233 32.3705 112.255 32.143 112.255 31.898ZM116.838 32.2235C116.838 32.6108 116.888 32.9597 116.988 33.27C117.091 33.578 117.237 33.8405 117.426 34.0575C117.615 34.2745 117.843 34.4413 118.112 34.558C118.382 34.6723 118.686 34.7295 119.022 34.7295C119.25 34.7295 119.461 34.7027 119.655 34.649C119.849 34.593 120.024 34.5102 120.18 34.4005C120.336 34.2885 120.475 34.1508 120.597 33.9875C120.718 33.8218 120.821 33.6305 120.905 33.4135H122.599C122.496 33.8498 122.335 34.2407 122.116 34.586C121.899 34.9313 121.634 35.2253 121.321 35.468C121.011 35.7083 120.657 35.8915 120.261 36.0175C119.864 36.1458 119.436 36.21 118.976 36.21C118.4 36.21 117.876 36.112 117.405 35.916C116.933 35.72 116.528 35.4435 116.19 35.0865C115.852 34.7295 115.59 34.3002 115.406 33.7985C115.222 33.2968 115.13 32.7415 115.13 32.1325C115.13 31.5258 115.221 30.974 115.403 30.477C115.587 29.9777 115.846 29.5495 116.18 29.1925C116.513 28.8355 116.913 28.5602 117.38 28.3665C117.847 28.1705 118.364 28.0725 118.931 28.0725C119.493 28.0725 120.002 28.1682 120.457 28.3595C120.912 28.5508 121.3 28.8227 121.622 29.175C121.946 29.525 122.196 29.9497 122.371 30.449C122.546 30.946 122.634 31.5013 122.634 32.115C122.634 32.206 122.631 32.297 122.627 32.388C122.624 32.479 122.617 32.5747 122.606 32.675H116.337V31.415H121.72L120.922 32.6575C120.929 32.5735 120.934 32.4883 120.936 32.402C120.941 32.3133 120.943 32.227 120.943 32.143C120.943 31.7207 120.899 31.3485 120.81 31.0265C120.724 30.7022 120.595 30.4303 120.425 30.211C120.257 29.9893 120.048 29.8225 119.799 29.7105C119.551 29.5962 119.265 29.539 118.941 29.539C118.612 29.539 118.318 29.5962 118.059 29.7105C117.8 29.8248 117.58 29.9917 117.398 30.211C117.218 30.428 117.079 30.6928 116.981 31.0055C116.885 31.3182 116.838 31.6705 116.838 32.0625V32.2235ZM125.51 31.8875V36H123.753V28.2825H125.51V30.533L125.5 30.5435C125.582 30.1492 125.701 29.7992 125.857 29.4935C126.013 29.1878 126.202 28.93 126.424 28.72C126.646 28.51 126.898 28.3502 127.18 28.2405C127.462 28.1285 127.771 28.0725 128.107 28.0725C128.457 28.0725 128.774 28.1332 129.056 28.2545C129.338 28.3735 129.583 28.5497 129.791 28.783C129.999 29.014 130.168 29.2998 130.298 29.6405C130.431 29.9788 130.524 30.3673 130.575 30.806L130.557 30.8025C130.627 30.3708 130.738 29.9858 130.89 29.6475C131.044 29.3092 131.234 29.0233 131.46 28.79C131.687 28.5567 131.947 28.3793 132.241 28.258C132.537 28.1343 132.863 28.0725 133.217 28.0725C133.619 28.0725 133.975 28.1518 134.285 28.3105C134.598 28.4668 134.86 28.6955 135.072 28.9965C135.287 29.2975 135.45 29.6673 135.562 30.106C135.674 30.5447 135.73 31.0428 135.73 31.6005V36H133.973V31.7755C133.973 31.4162 133.941 31.1035 133.875 30.8375C133.81 30.5692 133.712 30.3452 133.581 30.1655C133.451 29.9858 133.287 29.8517 133.091 29.763C132.895 29.672 132.666 29.6265 132.402 29.6265C132.12 29.6265 131.869 29.6767 131.649 29.777C131.43 29.8773 131.243 30.0243 131.089 30.218C130.938 30.4093 130.821 30.6462 130.739 30.9285C130.66 31.2085 130.62 31.5282 130.62 31.8875V36H128.863V31.7755C128.863 31.4162 128.831 31.1035 128.765 30.8375C128.7 30.5692 128.602 30.3452 128.471 30.1655C128.341 29.9858 128.177 29.8517 127.981 29.763C127.785 29.672 127.556 29.6265 127.292 29.6265C127.01 29.6265 126.759 29.6767 126.539 29.777C126.32 29.8773 126.133 30.0243 125.979 30.218C125.828 30.4093 125.711 30.6462 125.629 30.9285C125.55 31.2085 125.51 31.5282 125.51 31.8875ZM138.521 32.2235C138.521 32.6108 138.571 32.9597 138.671 33.27C138.774 33.578 138.92 33.8405 139.109 34.0575C139.298 34.2745 139.526 34.4413 139.795 34.558C140.065 34.6723 140.369 34.7295 140.705 34.7295C140.933 34.7295 141.144 34.7027 141.338 34.649C141.532 34.593 141.707 34.5102 141.863 34.4005C142.019 34.2885 142.158 34.1508 142.28 33.9875C142.401 33.8218 142.504 33.6305 142.588 33.4135H144.282C144.179 33.8498 144.018 34.2407 143.799 34.586C143.582 34.9313 143.317 35.2253 143.004 35.468C142.694 35.7083 142.34 35.8915 141.944 36.0175C141.547 36.1458 141.119 36.21 140.659 36.21C140.083 36.21 139.559 36.112 139.088 35.916C138.616 35.72 138.211 35.4435 137.873 35.0865C137.535 34.7295 137.273 34.3002 137.089 33.7985C136.905 33.2968 136.813 32.7415 136.813 32.1325C136.813 31.5258 136.904 30.974 137.086 30.477C137.27 29.9777 137.529 29.5495 137.863 29.1925C138.196 28.8355 138.596 28.5602 139.063 28.3665C139.53 28.1705 140.047 28.0725 140.614 28.0725C141.176 28.0725 141.685 28.1682 142.14 28.3595C142.595 28.5508 142.983 28.8227 143.305 29.175C143.629 29.525 143.879 29.9497 144.054 30.449C144.229 30.946 144.317 31.5013 144.317 32.115C144.317 32.206 144.314 32.297 144.31 32.388C144.307 32.479 144.3 32.5747 144.289 32.675H138.02V31.415H143.403L142.605 32.6575C142.612 32.5735 142.617 32.4883 142.619 32.402C142.624 32.3133 142.626 32.227 142.626 32.143C142.626 31.7207 142.582 31.3485 142.493 31.0265C142.407 30.7022 142.278 30.4303 142.108 30.211C141.94 29.9893 141.731 29.8225 141.482 29.7105C141.234 29.5962 140.948 29.539 140.624 29.539C140.295 29.539 140.001 29.5962 139.742 29.7105C139.483 29.8248 139.263 29.9917 139.081 30.211C138.901 30.428 138.762 30.6928 138.664 31.0055C138.568 31.3182 138.521 31.6705 138.521 32.0625V32.2235ZM147.193 31.8875V36H145.436V28.2825H147.193V30.596L147.183 30.603C147.269 30.2017 147.395 29.8447 147.561 29.532C147.727 29.217 147.928 28.9522 148.166 28.7375C148.404 28.5205 148.676 28.356 148.982 28.244C149.288 28.1297 149.62 28.0725 149.979 28.0725C150.409 28.0725 150.79 28.1518 151.124 28.3105C151.458 28.4668 151.738 28.6955 151.964 28.9965C152.193 29.2975 152.366 29.6673 152.485 30.106C152.607 30.5447 152.667 31.0428 152.667 31.6005V36H150.91V31.7755C150.91 31.4162 150.874 31.1035 150.802 30.8375C150.732 30.5692 150.623 30.3452 150.476 30.1655C150.332 29.9858 150.151 29.8517 149.934 29.763C149.717 29.672 149.463 29.6265 149.171 29.6265C148.961 29.6265 148.767 29.6498 148.59 29.6965C148.413 29.7408 148.25 29.8062 148.103 29.8925C147.956 29.9788 147.826 30.0862 147.711 30.2145C147.599 30.3428 147.505 30.491 147.428 30.659C147.351 30.827 147.293 31.0137 147.253 31.219C147.213 31.4243 147.193 31.6472 147.193 31.8875ZM158.71 35.9405C158.397 36.0315 158.102 36.098 157.824 36.14C157.549 36.1843 157.29 36.2065 157.047 36.2065C156.641 36.2065 156.284 36.1458 155.976 36.0245C155.668 35.9032 155.409 35.7223 155.199 35.482C154.991 35.2417 154.834 34.943 154.727 34.586C154.619 34.229 154.566 33.8137 154.566 33.34V26.5045H156.323V33.3435C156.323 33.5838 156.345 33.7915 156.389 33.9665C156.433 34.1392 156.5 34.2827 156.589 34.397C156.68 34.509 156.795 34.593 156.935 34.649C157.075 34.705 157.242 34.733 157.436 34.733C157.587 34.733 157.767 34.7155 157.975 34.6805C158.182 34.6455 158.427 34.5918 158.71 34.5195V35.9405ZM158.71 29.7105H153.558V28.2825H158.71V29.7105ZM167.413 25.78C168.033 25.78 168.593 25.8558 169.093 26.0075C169.592 26.1592 170.018 26.3773 170.37 26.662C170.722 26.9443 170.993 27.2897 171.182 27.698C171.373 28.1063 171.469 28.566 171.469 29.077H169.691C169.691 28.811 169.635 28.5718 169.523 28.3595C169.413 28.1448 169.257 27.9628 169.054 27.8135C168.853 27.6618 168.612 27.5463 168.33 27.467C168.047 27.3853 167.735 27.3445 167.392 27.3445C167.2 27.3445 167.011 27.3585 166.825 27.3865C166.638 27.4122 166.459 27.4518 166.289 27.5055C166.119 27.5568 165.961 27.6233 165.817 27.705C165.672 27.7843 165.547 27.8788 165.442 27.9885C165.337 28.0958 165.254 28.2183 165.194 28.356C165.133 28.4937 165.103 28.6453 165.103 28.811C165.103 28.9603 165.127 29.091 165.176 29.203C165.225 29.315 165.296 29.4118 165.39 29.4935C165.485 29.5752 165.602 29.6463 165.74 29.707C165.88 29.7653 166.039 29.8167 166.219 29.861C166.399 29.903 166.597 29.9427 166.814 29.98C167.031 30.0173 167.268 30.0547 167.525 30.092L167.987 30.162C168.269 30.2017 168.559 30.2483 168.858 30.302C169.157 30.3533 169.447 30.4222 169.73 30.5085C170.014 30.5948 170.283 30.7045 170.535 30.8375C170.789 30.9682 171.011 31.1338 171.2 31.3345C171.391 31.5352 171.541 31.7767 171.651 32.059C171.763 32.3413 171.819 32.6762 171.819 33.0635C171.819 33.5862 171.715 34.0447 171.508 34.439C171.3 34.831 171.007 35.1588 170.629 35.4225C170.253 35.6838 169.801 35.8798 169.271 36.0105C168.744 36.1435 168.159 36.21 167.518 36.21C166.822 36.21 166.202 36.1342 165.656 35.9825C165.112 35.8308 164.652 35.6103 164.277 35.321C163.901 35.0293 163.614 34.6735 163.416 34.2535C163.22 33.8335 163.122 33.3563 163.122 32.822H164.9C164.9 33.1067 164.96 33.3622 165.082 33.5885C165.203 33.8148 165.376 34.0062 165.6 34.1625C165.824 34.3188 166.097 34.439 166.419 34.523C166.741 34.6047 167.101 34.6455 167.5 34.6455C167.845 34.6455 168.17 34.614 168.473 34.551C168.776 34.488 169.041 34.3923 169.268 34.264C169.494 34.1333 169.674 33.97 169.807 33.774C169.94 33.5757 170.006 33.3412 170.006 33.0705C170.006 32.9048 169.98 32.7625 169.929 32.6435C169.88 32.5222 169.808 32.4172 169.712 32.3285C169.619 32.2398 169.504 32.1652 169.369 32.1045C169.236 32.0438 169.083 31.9925 168.911 31.9505C168.74 31.9062 168.552 31.8677 168.347 31.835C168.142 31.8 167.924 31.765 167.693 31.73L167.101 31.6425C166.819 31.6028 166.529 31.5585 166.233 31.5095C165.937 31.4582 165.647 31.3928 165.365 31.3135C165.083 31.2318 164.816 31.1292 164.564 31.0055C164.314 30.8795 164.095 30.722 163.906 30.533C163.717 30.3417 163.566 30.113 163.454 29.847C163.344 29.5787 163.29 29.2602 163.29 28.8915C163.29 28.5508 163.339 28.237 163.437 27.95C163.535 27.663 163.672 27.4052 163.85 27.1765C164.027 26.9455 164.24 26.7437 164.49 26.571C164.74 26.396 165.017 26.2502 165.323 26.1335C165.629 26.0168 165.958 25.9293 166.31 25.871C166.662 25.8103 167.03 25.78 167.413 25.78ZM172.775 32.1395C172.775 31.7312 172.817 31.3473 172.901 30.988C172.985 30.6287 173.105 30.2985 173.262 29.9975C173.42 29.6942 173.613 29.4235 173.839 29.1855C174.065 28.9475 174.321 28.7468 174.606 28.5835C174.89 28.4178 175.202 28.2918 175.54 28.2055C175.878 28.1168 176.238 28.0725 176.618 28.0725C176.998 28.0725 177.358 28.1168 177.696 28.2055C178.034 28.2918 178.346 28.4178 178.631 28.5835C178.915 28.7468 179.171 28.9475 179.397 29.1855C179.623 29.4235 179.815 29.6942 179.971 29.9975C180.13 30.2985 180.251 30.6287 180.335 30.988C180.419 31.3473 180.461 31.7312 180.461 32.1395C180.461 32.5478 180.419 32.9328 180.335 33.2945C180.251 33.6538 180.13 33.984 179.971 34.285C179.815 34.586 179.622 34.8555 179.394 35.0935C179.167 35.3315 178.912 35.5333 178.627 35.699C178.345 35.8647 178.034 35.9907 177.696 36.077C177.36 36.1657 177.001 36.21 176.618 36.21C176.238 36.21 175.878 36.1657 175.54 36.077C175.202 35.9907 174.89 35.8647 174.606 35.699C174.323 35.5333 174.068 35.3315 173.839 35.0935C173.613 34.8555 173.42 34.586 173.262 34.285C173.105 33.984 172.985 33.6538 172.901 33.2945C172.817 32.9328 172.775 32.5478 172.775 32.1395ZM174.539 32.1395C174.539 32.5338 174.586 32.8873 174.679 33.2C174.775 33.5103 174.912 33.774 175.092 33.991C175.272 34.2057 175.49 34.3702 175.747 34.4845C176.006 34.5988 176.297 34.656 176.622 34.656C176.946 34.656 177.236 34.6 177.493 34.488C177.75 34.3737 177.967 34.208 178.144 33.991C178.324 33.774 178.46 33.5103 178.554 33.2C178.649 32.8873 178.697 32.5338 178.697 32.1395C178.697 31.7452 178.649 31.3928 178.554 31.0825C178.46 30.7698 178.324 30.5062 178.144 30.2915C177.967 30.0745 177.75 29.91 177.493 29.798C177.236 29.6837 176.946 29.6265 176.622 29.6265C176.297 29.6265 176.006 29.6837 175.747 29.798C175.49 29.91 175.272 30.0745 175.092 30.2915C174.912 30.5062 174.775 30.7698 174.679 31.0825C174.586 31.3928 174.539 31.7452 174.539 32.1395ZM183.334 25.64V36H181.577V25.64H183.334ZM190.057 32.395V28.2825H191.814V36H190.057V33.6865L190.068 33.6795C189.982 34.0808 189.856 34.439 189.69 34.754C189.524 35.0667 189.322 35.3315 189.084 35.5485C188.846 35.7632 188.575 35.9265 188.269 36.0385C187.963 36.1528 187.631 36.21 187.271 36.21C186.842 36.21 186.461 36.1318 186.127 35.9755C185.793 35.8168 185.512 35.587 185.283 35.286C185.057 34.985 184.883 34.6152 184.762 34.1765C184.643 33.7378 184.583 33.2397 184.583 32.682V28.2825H186.34V32.507C186.34 32.8663 186.375 33.1802 186.445 33.4485C186.518 33.7145 186.626 33.9373 186.771 34.117C186.918 34.2967 187.1 34.432 187.317 34.523C187.534 34.6117 187.788 34.656 188.08 34.656C188.29 34.656 188.484 34.6338 188.661 34.5895C188.838 34.5428 189 34.4763 189.147 34.39C189.294 34.3037 189.424 34.1963 189.536 34.068C189.65 33.9397 189.746 33.7915 189.823 33.6235C189.9 33.4555 189.958 33.2688 189.998 33.0635C190.038 32.8582 190.057 32.6353 190.057 32.395ZM197.974 35.9405C197.661 36.0315 197.366 36.098 197.088 36.14C196.813 36.1843 196.554 36.2065 196.311 36.2065C195.905 36.2065 195.548 36.1458 195.24 36.0245C194.932 35.9032 194.673 35.7223 194.463 35.482C194.255 35.2417 194.098 34.943 193.991 34.586C193.883 34.229 193.83 33.8137 193.83 33.34V26.5045H195.587V33.3435C195.587 33.5838 195.609 33.7915 195.653 33.9665C195.697 34.1392 195.764 34.2827 195.853 34.397C195.944 34.509 196.059 34.593 196.199 34.649C196.339 34.705 196.506 34.733 196.7 34.733C196.851 34.733 197.031 34.7155 197.239 34.6805C197.446 34.6455 197.691 34.5918 197.974 34.5195V35.9405ZM197.974 29.7105H192.822V28.2825H197.974V29.7105ZM200.894 28.2825V36H199.137V28.2825H200.894ZM200.922 25.64V27.432H199.109V25.64H200.922ZM202.011 32.1395C202.011 31.7312 202.053 31.3473 202.137 30.988C202.221 30.6287 202.341 30.2985 202.498 29.9975C202.656 29.6942 202.849 29.4235 203.075 29.1855C203.301 28.9475 203.557 28.7468 203.842 28.5835C204.126 28.4178 204.438 28.2918 204.776 28.2055C205.114 28.1168 205.474 28.0725 205.854 28.0725C206.234 28.0725 206.594 28.1168 206.932 28.2055C207.27 28.2918 207.582 28.4178 207.867 28.5835C208.151 28.7468 208.407 28.9475 208.633 29.1855C208.859 29.4235 209.051 29.6942 209.207 29.9975C209.366 30.2985 209.487 30.6287 209.571 30.988C209.655 31.3473 209.697 31.7312 209.697 32.1395C209.697 32.5478 209.655 32.9328 209.571 33.2945C209.487 33.6538 209.366 33.984 209.207 34.285C209.051 34.586 208.858 34.8555 208.63 35.0935C208.403 35.3315 208.148 35.5333 207.863 35.699C207.581 35.8647 207.27 35.9907 206.932 36.077C206.596 36.1657 206.237 36.21 205.854 36.21C205.474 36.21 205.114 36.1657 204.776 36.077C204.438 35.9907 204.126 35.8647 203.842 35.699C203.559 35.5333 203.304 35.3315 203.075 35.0935C202.849 34.8555 202.656 34.586 202.498 34.285C202.341 33.984 202.221 33.6538 202.137 33.2945C202.053 32.9328 202.011 32.5478 202.011 32.1395ZM203.775 32.1395C203.775 32.5338 203.822 32.8873 203.915 33.2C204.011 33.5103 204.148 33.774 204.328 33.991C204.508 34.2057 204.726 34.3702 204.983 34.4845C205.242 34.5988 205.533 34.656 205.858 34.656C206.182 34.656 206.472 34.6 206.729 34.488C206.986 34.3737 207.203 34.208 207.38 33.991C207.56 33.774 207.696 33.5103 207.79 33.2C207.885 32.8873 207.933 32.5338 207.933 32.1395C207.933 31.7452 207.885 31.3928 207.79 31.0825C207.696 30.7698 207.56 30.5062 207.38 30.2915C207.203 30.0745 206.986 29.91 206.729 29.798C206.472 29.6837 206.182 29.6265 205.858 29.6265C205.533 29.6265 205.242 29.6837 204.983 29.798C204.726 29.91 204.508 30.0745 204.328 30.2915C204.148 30.5062 204.011 30.7698 203.915 31.0825C203.822 31.3928 203.775 31.7452 203.775 32.1395ZM212.57 31.8875V36H210.813V28.2825H212.57V30.596L212.559 30.603C212.645 30.2017 212.771 29.8447 212.937 29.532C213.103 29.217 213.305 28.9522 213.543 28.7375C213.781 28.5205 214.052 28.356 214.358 28.244C214.664 28.1297 214.996 28.0725 215.356 28.0725C215.785 28.0725 216.166 28.1518 216.5 28.3105C216.834 28.4668 217.114 28.6955 217.34 28.9965C217.569 29.2975 217.743 29.6673 217.862 30.106C217.983 30.5447 218.044 31.0428 218.044 31.6005V36H216.287V31.7755C216.287 31.4162 216.25 31.1035 216.178 30.8375C216.108 30.5692 216 30.3452 215.853 30.1655C215.708 29.9858 215.527 29.8517 215.31 29.763C215.093 29.672 214.839 29.6265 214.547 29.6265C214.337 29.6265 214.143 29.6498 213.966 29.6965C213.789 29.7408 213.627 29.8062 213.48 29.8925C213.333 29.9788 213.202 30.0862 213.088 30.2145C212.976 30.3428 212.881 30.491 212.804 30.659C212.727 30.827 212.669 31.0137 212.629 31.219C212.589 31.4243 212.57 31.6472 212.57 31.8875Z" fill="#1A1A1A"/>
<line x1="-4" y1="51.5" x2="575" y2="51.5" stroke="#ECECEC"/>
<path opacity="0.3" d="M14.3321 124.934C16.7939 124.934 18.7988 122.929 18.7988 120.467C18.7988 118.005 16.7939 116 14.3321 116C11.8703 116 9.86533 118.003 9.86533 120.467C9.86533 122.931 11.8703 124.934 14.3321 124.934ZM14.3321 118.853C15.2215 118.853 15.9457 119.577 15.9457 120.467C15.9457 121.356 15.2215 122.08 14.3321 122.08C13.4426 122.08 12.7184 121.356 12.7184 120.467C12.7184 119.577 13.4426 118.853 14.3321 118.853Z" fill="#22533D"/>
<path opacity="0.3" d="M15.0274 101.09C17.4892 101.09 19.4941 99.0848 19.4941 96.623C19.4941 94.1612 17.4916 92.1562 15.0274 92.1562C12.5631 92.1562 10.5606 94.1612 10.5606 96.623C10.5606 99.0848 12.5656 101.09 15.0274 101.09ZM15.0274 95.0093C15.9169 95.0093 16.6411 95.7335 16.6411 96.623C16.6411 97.5125 15.9169 98.2367 15.0274 98.2367C14.1379 98.2367 13.4137 97.5125 13.4137 96.623C13.4137 95.7335 14.1379 95.0093 15.0274 95.0093Z" fill="#22533D"/>
<path opacity="0.3" d="M-45.5823 113.582C-45.8545 113.31 -46.0052 112.94 -46.0003 112.556L-45.9055 104.145V52H-11.7706L-3.47626 72.9801H-24.9181L-24.8574 95.1972H-13.4013L-7.08271 88.8786C-7.41079 88.2589 -7.59791 87.5517 -7.59791 86.8032C-7.59791 84.3414 -5.59542 82.3365 -3.13117 82.3365C-0.666924 82.3365 1.33558 84.3414 1.33558 86.8032C1.33558 89.265 -0.669353 91.27 -3.13117 91.27C-3.80434 91.27 -4.44349 91.1144 -5.01702 90.8471L-9.36712 95.1972H11.7418V98.0503H-3.68769L-0.261069 101.659C0.339196 101.36 1.01237 101.185 1.72685 101.185C4.18867 101.185 6.1936 103.188 6.1936 105.652C6.1936 108.116 4.1911 110.119 1.72685 110.119C-0.737395 110.119 -2.7399 108.114 -2.7399 105.652C-2.7399 104.945 -2.56978 104.277 -2.27573 103.681L-7.62222 98.0479H-24.8525L-24.8379 103.455L-16.6602 111.557L6.42933 111.382L13.6738 118.07L11.7394 120.168L5.32358 114.245L-5.84087 114.33L-4.75941 115.324C-4.16401 115.03 -3.50056 114.863 -2.79337 114.863C-0.331549 114.863 1.67339 116.868 1.67339 119.329C1.67339 121.791 -0.329119 123.796 -2.79337 123.796C-5.25761 123.796 -7.26012 121.794 -7.26012 119.329C-7.26012 118.612 -7.08757 117.939 -6.78622 117.337L-10.0233 114.36L-17.8267 114.418L-27.6886 104.646L-27.7858 70.1222H-7.67811L-13.7172 54.8482H-43.0597V104.155C-43.0597 104.155 -43.0597 104.165 -43.0597 104.17L-43.1472 111.98L-34.1214 121.006C-34.1019 121.026 -34.0898 121.048 -34.0728 121.067L-23.1538 132.141L-5.03646 132.304L-1.83342 135.252C-1.11894 134.769 -0.258645 134.484 0.667271 134.484C3.12909 134.484 5.13402 136.489 5.13402 138.951C5.13402 141.413 3.12909 143.418 0.667271 143.418C-1.79455 143.418 -3.79948 141.415 -3.79948 138.951C-3.79948 138.455 -3.71442 137.981 -3.56617 137.534L-6.16165 135.145L-13.0854 135.084L-12.1692 136.071C-11.8119 135.979 -11.4377 135.923 -11.0513 135.923C-8.58945 135.923 -6.58451 137.928 -6.58451 140.39C-6.58451 142.851 -8.58702 144.856 -11.0513 144.856C-13.5155 144.856 -15.518 142.854 -15.518 140.39C-15.518 139.364 -15.1656 138.421 -14.5824 137.665L-17.015 135.048L-24.3592 134.982L-33.7204 125.485L-33.7107 132.491L-24.5293 141.67C-23.9485 141.393 -23.2996 141.233 -22.6143 141.233C-20.1524 141.233 -18.1475 143.238 -18.1475 145.7C-18.1475 148.161 -20.15 150.166 -22.6143 150.166C-25.0785 150.166 -27.081 148.161 -27.081 145.7C-27.081 144.963 -26.8987 144.268 -26.5804 143.653L-33.7034 136.533L-33.6864 147.989C-31.956 148.604 -30.7093 150.254 -30.7093 152.193C-30.7093 154.655 -32.7143 156.66 -35.1761 156.66C-37.6379 156.66 -39.6428 154.657 -39.6428 152.193C-39.6428 150.205 -38.3378 148.519 -36.5394 147.94L-36.5783 122.579L-45.5896 113.567L-45.5823 113.582ZM-1.51507 86.8081C-1.51507 85.9186 -2.23927 85.1944 -3.12874 85.1944C-4.0182 85.1944 -4.7424 85.9186 -4.7424 86.8081C-4.7424 87.6975 -4.0182 88.4217 -3.12874 88.4217C-2.23927 88.4217 -1.51507 87.6975 -1.51507 86.8081ZM1.73171 107.271C2.62117 107.271 3.34538 106.546 3.34538 105.657C3.34538 104.767 2.62117 104.043 1.73171 104.043C0.842247 104.043 0.118045 104.767 0.118045 105.657C0.118045 106.546 0.842247 107.271 1.73171 107.271ZM-2.78851 120.948C-1.89904 120.948 -1.17484 120.224 -1.17484 119.334C-1.17484 118.445 -1.89904 117.721 -2.78851 117.721C-3.67797 117.721 -4.40217 118.445 -4.40217 119.334C-4.40217 120.224 -3.67797 120.948 -2.78851 120.948ZM0.674561 140.572C1.56402 140.572 2.28823 139.848 2.28823 138.958C2.28823 138.069 1.56402 137.345 0.674561 137.345C-0.214901 137.345 -0.939103 138.069 -0.939103 138.958C-0.939103 139.848 -0.214901 140.572 0.674561 140.572ZM-11.0415 142.013C-10.1521 142.013 -9.42787 141.289 -9.42787 140.399C-9.42787 139.51 -10.1521 138.786 -11.0415 138.786C-11.931 138.786 -12.6552 139.51 -12.6552 140.399C-12.6552 141.289 -11.931 142.013 -11.0415 142.013ZM-22.607 147.325C-21.7175 147.325 -20.9933 146.601 -20.9933 145.712C-20.9933 144.822 -21.7175 144.098 -22.607 144.098C-23.4964 144.098 -24.2206 144.822 -24.2206 145.712C-24.2206 146.601 -23.4964 147.325 -22.607 147.325ZM-35.1688 153.819C-34.2793 153.819 -33.5551 153.095 -33.5551 152.205C-33.5551 151.316 -34.2793 150.592 -35.1688 150.592C-36.0583 150.592 -36.7825 151.316 -36.7825 152.205C-36.7825 153.095 -36.0583 153.819 -35.1688 153.819Z" fill="#22533D"/>
<path d="M361.681 248.621C370.889 303.929 333.517 356.229 278.209 365.436C222.901 374.644 170.601 337.272 161.394 281.964C152.186 226.656 189.558 174.356 244.866 165.149C300.174 155.941 352.474 193.313 361.681 248.621ZM182.245 278.493C189.536 322.284 230.946 351.875 274.738 344.584C318.53 337.294 348.12 295.884 340.829 252.092C333.539 208.3 292.129 178.71 248.337 186C204.545 193.291 174.955 234.701 182.245 278.493Z" fill="#FFC879"/>
<circle cx="261.565" cy="265.311" r="80.9591" fill="#165D31"/>
<path d="M329.973 83.1342C332.203 96.5271 323.153 109.192 309.76 111.421C296.367 113.651 283.703 104.601 281.473 91.2083C279.244 77.8154 288.293 65.1509 301.686 62.9213C315.079 60.6917 327.744 69.7413 329.973 83.1342Z" stroke="#F0BB00" stroke-width="2.21717"/>
<path d="M429.136 150.22C431.365 163.613 422.316 176.278 408.923 178.507C395.53 180.737 382.865 171.687 380.636 158.294C378.406 144.901 387.456 132.237 400.849 130.007C414.242 127.778 426.906 136.827 429.136 150.22Z" stroke="#F0BB00" stroke-width="2.21717"/>
<path d="M463.212 230.697C465.441 244.09 456.391 256.754 442.999 258.984C429.606 261.213 416.941 252.164 414.712 238.771C412.482 225.378 421.532 212.713 434.924 210.484C448.317 208.254 460.982 217.304 463.212 230.697Z" stroke="#F0BB00" stroke-width="2.21717"/>
<path d="M456.207 318.087C458.436 331.48 449.387 344.145 435.994 346.374C422.601 348.604 409.936 339.554 407.707 326.161C405.477 312.769 414.527 300.104 427.92 297.874C441.312 295.645 453.977 304.694 456.207 318.087Z" stroke="#F0BB00" stroke-width="2.21717"/>
<path d="M385.695 412.462C387.925 425.855 378.875 438.52 365.482 440.749C352.09 442.979 339.425 433.929 337.195 420.536C334.966 407.144 344.015 394.479 357.408 392.249C370.801 390.02 383.466 399.069 385.695 412.462Z" stroke="#F0BB00" stroke-width="2.21717"/>
<g clip-path="url(#clip1_2079_52803)">
<path d="M276.494 257.167H316.361C317.198 257.167 317.877 256.487 317.877 255.651C317.877 254.814 317.198 254.134 316.361 254.134H294.342L299.169 248.984C299.743 248.372 299.712 247.414 299.1 246.84C298.487 246.267 297.529 246.298 296.956 246.91L290.183 254.134H276.491C275.654 254.134 274.975 254.814 274.975 255.651C274.975 256.487 275.654 257.167 276.491 257.167H276.494Z" fill="#F0BB00"/>
<path d="M320.31 282.539H290.986L294.042 279.429L301.863 278.657C302.697 278.575 303.307 277.833 303.224 276.999C303.142 276.165 302.405 275.558 301.566 275.64L293.197 276.467C292.843 276.503 292.515 276.661 292.265 276.914L286.732 282.542H275.435C275.003 282.542 274.593 282.725 274.306 283.046L266.836 291.388C266.423 291.383 266.01 291.543 265.707 291.869C265.139 292.484 265.178 293.442 265.793 294.013L276.631 304.029C276.912 304.287 277.279 304.432 277.659 304.432H289.336L291.942 307.232C292.242 307.552 292.645 307.715 293.053 307.715C293.422 307.715 293.794 307.581 294.086 307.309C294.698 306.739 294.734 305.78 294.163 305.166L291.108 301.883C290.821 301.575 290.418 301.4 289.997 301.4H286.583L290.317 297.383C290.888 296.769 290.852 295.81 290.24 295.24C289.625 294.669 288.667 294.705 288.096 295.317L282.442 301.397H278.255L269.331 293.147L276.117 285.569H302.036L308.788 293.062C309.087 293.395 309.501 293.563 309.914 293.563C310.276 293.563 310.64 293.434 310.929 293.173C311.552 292.613 311.601 291.654 311.04 291.032L306.12 285.572H320.315C321.152 285.572 321.832 284.892 321.832 284.055C321.832 283.219 321.152 282.539 320.315 282.539H320.31Z" fill="#F0BB00"/>
<path d="M277.331 265.484C276.494 265.484 275.815 266.164 275.815 267.001C275.815 267.837 276.494 268.517 277.331 268.517H298.325C299.162 268.517 299.841 267.837 299.841 267.001C299.841 266.164 299.162 265.484 298.325 265.484H277.331Z" fill="#F0BB00"/>
<path d="M213.946 286.839C211.33 286.839 209.199 284.708 209.199 282.091C209.199 279.475 211.33 277.344 213.946 277.344C216.563 277.344 218.694 279.472 218.694 282.091C218.694 284.71 216.563 286.839 213.946 286.839ZM213.946 280.376C213.001 280.376 212.231 281.146 212.231 282.091C212.231 283.036 213.001 283.806 213.946 283.806C214.891 283.806 215.661 283.036 215.661 282.091C215.661 281.146 214.891 280.376 213.946 280.376Z" fill="white"/>
<path d="M213.205 260.581C210.589 260.581 208.458 258.45 208.458 255.833C208.458 253.217 210.586 251.086 213.205 251.086C215.824 251.086 217.953 253.217 217.953 255.833C217.953 258.45 215.822 260.581 213.205 260.581ZM213.205 254.118C212.26 254.118 211.49 254.888 211.49 255.833C211.49 256.779 212.26 257.548 213.205 257.548C214.151 257.548 214.92 256.779 214.92 255.833C214.92 254.888 214.151 254.118 213.205 254.118Z" fill="white"/>
<path d="M194.07 160.838C191.932 160.838 190.19 159.097 190.19 156.958C190.19 154.82 191.93 153.078 194.07 153.078C196.211 153.078 197.951 154.82 197.951 156.958C197.951 159.097 196.209 160.838 194.07 160.838ZM194.07 155.556C193.298 155.556 192.669 156.186 192.669 156.958C192.669 157.731 193.298 158.36 194.07 158.36C194.843 158.36 195.472 157.731 195.472 156.958C195.472 156.186 194.843 155.556 194.07 155.556Z" fill="#0B4E45"/>
<path d="M241.739 394.744C239.601 394.744 237.859 393.003 237.859 390.864C237.859 388.726 239.599 386.984 241.739 386.984C243.88 386.984 245.619 388.726 245.619 390.864C245.619 393.003 243.878 394.744 241.739 394.744ZM241.739 389.463C240.967 389.463 240.338 390.092 240.338 390.864C240.338 391.637 240.967 392.266 241.739 392.266C242.512 392.266 243.141 391.637 243.141 390.864C243.141 390.092 242.512 389.463 241.739 389.463Z" fill="#0B4E45"/>
<path d="M251.716 382.549C249.578 382.549 247.836 380.808 247.836 378.669C247.836 376.531 249.576 374.789 251.716 374.789C253.857 374.789 255.597 376.531 255.597 378.669C255.597 380.808 253.855 382.549 251.716 382.549ZM251.716 377.267C250.944 377.267 250.315 377.896 250.315 378.669C250.315 379.442 250.944 380.071 251.716 380.071C252.489 380.071 253.118 379.442 253.118 378.669C253.118 377.896 252.489 377.267 251.716 377.267Z" fill="#0B4E45"/>
<path d="M200.722 165.269C199.194 165.269 197.95 164.025 197.95 162.498C197.95 160.971 199.193 159.727 200.722 159.727C202.251 159.727 203.493 160.971 203.493 162.498C203.493 164.025 202.249 165.269 200.722 165.269ZM200.722 161.497C200.17 161.497 199.72 161.946 199.72 162.498C199.72 163.05 200.17 163.499 200.722 163.499C201.274 163.499 201.723 163.05 201.723 162.498C201.723 161.946 201.274 161.497 200.722 161.497Z" fill="#0B4E45"/>
<path d="M205.156 148.644C203.629 148.644 202.385 147.4 202.385 145.873C202.385 144.346 203.627 143.102 205.156 143.102C206.685 143.102 207.928 144.346 207.928 145.873C207.928 147.4 206.684 148.644 205.156 148.644ZM205.156 144.872C204.604 144.872 204.155 145.321 204.155 145.873C204.155 146.425 204.604 146.874 205.156 146.874C205.708 146.874 206.157 146.425 206.157 145.873C206.157 145.321 205.708 144.872 205.156 144.872Z" fill="#0B4E45"/>
<path d="M277.626 273.959C277.915 273.67 278.075 273.277 278.07 272.869L277.969 263.929V208.508H241.69L232.874 230.806H255.663L255.599 254.419H243.423L236.707 247.704C237.056 247.045 237.255 246.293 237.255 245.498C237.255 242.881 235.126 240.75 232.507 240.75C229.888 240.75 227.76 242.881 227.76 245.498C227.76 248.114 229.891 250.245 232.507 250.245C233.223 250.245 233.902 250.08 234.512 249.796L239.135 254.419H216.7V257.451H233.099L229.457 261.287C228.819 260.969 228.103 260.783 227.344 260.783C224.728 260.783 222.597 262.912 222.597 265.531C222.597 268.15 224.725 270.278 227.344 270.278C229.963 270.278 232.091 268.147 232.091 265.531C232.091 264.779 231.911 264.069 231.598 263.436L237.281 257.449H255.593L255.578 263.196L246.886 271.807L222.346 271.621L214.646 278.73L216.702 280.959L223.521 274.664L235.387 274.754L234.238 275.811C233.605 275.498 232.9 275.32 232.148 275.32C229.532 275.32 227.401 277.451 227.401 280.067C227.401 282.684 229.529 284.815 232.148 284.815C234.767 284.815 236.896 282.687 236.896 280.067C236.896 279.306 236.712 278.59 236.392 277.949L239.832 274.785L248.126 274.847L258.608 264.462L258.711 227.769H237.34L243.759 211.535H274.945V263.94C274.945 263.94 274.945 263.95 274.945 263.955L275.038 272.257L265.445 281.85C265.424 281.87 265.411 281.894 265.393 281.914L253.788 293.685L234.532 293.858L231.128 296.991C230.369 296.477 229.454 296.175 228.47 296.175C225.854 296.175 223.723 298.305 223.723 300.922C223.723 303.538 225.854 305.669 228.47 305.669C231.087 305.669 233.218 303.541 233.218 300.922C233.218 300.395 233.127 299.891 232.97 299.416L235.728 296.877L243.087 296.813L242.113 297.861C241.734 297.763 241.336 297.704 240.925 297.704C238.309 297.704 236.178 299.835 236.178 302.451C236.178 305.068 238.306 307.198 240.925 307.198C243.544 307.198 245.672 305.07 245.672 302.451C245.672 301.361 245.298 300.359 244.678 299.556L247.264 296.774L255.069 296.704L265.019 286.61L265.008 294.057L255.25 303.812C254.633 303.518 253.943 303.347 253.215 303.347C250.598 303.347 248.467 305.478 248.467 308.095C248.467 310.711 250.596 312.842 253.215 312.842C255.834 312.842 257.962 310.711 257.962 308.095C257.962 307.312 257.768 306.573 257.43 305.92L265 298.352L264.982 310.528C263.143 311.181 261.818 312.935 261.818 314.996C261.818 317.613 263.949 319.744 266.566 319.744C269.182 319.744 271.313 317.615 271.313 314.996C271.313 312.883 269.926 311.091 268.015 310.476L268.056 283.521L277.633 273.943L277.626 273.959ZM230.79 245.503C230.79 244.558 231.559 243.788 232.505 243.788C233.45 243.788 234.22 244.558 234.22 245.503C234.22 246.448 233.45 247.218 232.505 247.218C231.559 247.218 230.79 246.448 230.79 245.503ZM227.339 267.251C226.394 267.251 225.624 266.481 225.624 265.536C225.624 264.591 226.394 263.821 227.339 263.821C228.284 263.821 229.054 264.591 229.054 265.536C229.054 266.481 228.284 267.251 227.339 267.251ZM232.143 281.788C231.198 281.788 230.428 281.018 230.428 280.073C230.428 279.127 231.198 278.358 232.143 278.358C233.089 278.358 233.858 279.127 233.858 280.073C233.858 281.018 233.089 281.788 232.143 281.788ZM228.463 302.645C227.517 302.645 226.747 301.875 226.747 300.93C226.747 299.984 227.517 299.215 228.463 299.215C229.408 299.215 230.178 299.984 230.178 300.93C230.178 301.875 229.408 302.645 228.463 302.645ZM240.915 304.176C239.969 304.176 239.2 303.407 239.2 302.461C239.2 301.516 239.969 300.746 240.915 300.746C241.86 300.746 242.63 301.516 242.63 302.461C242.63 303.407 241.86 304.176 240.915 304.176ZM253.207 309.823C252.261 309.823 251.492 309.053 251.492 308.108C251.492 307.162 252.261 306.393 253.207 306.393C254.152 306.393 254.922 307.162 254.922 308.108C254.922 309.053 254.152 309.823 253.207 309.823ZM266.558 316.724C265.613 316.724 264.843 315.954 264.843 315.009C264.843 314.064 265.613 313.294 266.558 313.294C267.503 313.294 268.273 314.064 268.273 315.009C268.273 315.954 267.503 316.724 266.558 316.724Z" fill="white"/>
<path d="M245.087 390.87L253.567 390.87L257.43 387.007L261.133 387.007M267.862 387.007L276.91 387.007C277.831 387.007 278.751 386.935 279.659 386.776C294.712 384.149 309.128 378.669 322.131 370.627C335.526 362.341 347.158 351.499 356.362 338.718C365.567 325.937 372.164 311.469 375.778 296.139C379.391 280.808 379.949 264.916 377.42 249.37C374.892 233.824 369.326 218.928 361.041 205.533C352.755 192.138 341.913 180.506 329.132 171.302C316.351 162.097 301.883 155.5 286.552 151.886C271.671 148.379 256.261 147.75 241.151 150.029C240.24 150.167 239.321 150.244 238.4 150.244L220.507 150.244C220.235 150.244 219.969 150.172 219.735 150.035V150.035M267.862 387.007L262.984 391.487L257.43 391.487M267.862 387.007L261.133 387.007M261.133 387.007L253.567 380.687M207.131 145.55L212.069 145.55L215.902 147.792L219.735 150.035M219.735 150.035L214.229 156.659L205.28 156.659M196.331 156.659L205.28 156.659M205.28 156.659L201.269 161.596" stroke="#0B4E45" stroke-width="1.7132"/>
<line x1="326.314" y1="368.593" x2="343.772" y2="395.212" stroke="#0B4E45" stroke-width="1.7132"/>
<path d="M373.377 303.915L386.724 309.236M403.388 315.879L391.354 311.082M386.724 309.236L393.513 306.622L399.377 308.782M386.724 309.236L391.354 311.082M391.354 311.082L394.44 317.731L400.611 319.891" stroke="#0B4E45" stroke-width="1.7132"/>
<path d="M403.387 244.904L392.278 246.776M377.722 249.228L384.692 248.054M392.278 246.776L399.992 251.693M392.278 246.776L391.662 246.88M399.992 251.693L406.473 250.15M399.992 251.693L391.662 246.88M391.662 246.88L384.692 248.054M384.692 248.054L391.662 242.436" stroke="#0B4E45" stroke-width="1.7132"/>
<path d="M380.087 177.527L367.763 186.96M355.439 196.393L363.272 190.397M367.763 186.96L367.763 177.527L372.446 173.934M367.763 186.96L363.272 190.397M380.087 168.071L372.446 173.934M372.446 173.934L372.53 167.454M363.272 190.397L376.233 190.397" stroke="#0B4E45" stroke-width="1.71319"/>
<path d="M299.985 121.879L294.22 140.605M290.404 152.999L292.034 147.702M294.22 140.605L294.03 141.222L293.175 143.999L292.034 147.702M294.22 140.605L299.985 136.902M294.22 140.605L292.034 147.702M292.034 147.702L289.831 143.382" stroke="#0B4E45" stroke-width="1.7132" stroke-linecap="round"/>
</g>
<path d="M373.081 413.501L371.499 413.392C371.308 413.379 371.144 413.253 371.09 413.079C370.881 412.395 370.606 411.73 370.273 411.102C370.187 410.94 370.214 410.735 370.339 410.591L371.381 409.395C371.863 408.841 371.834 408.001 371.315 407.482L370.752 406.919C370.57 406.736 370.274 406.736 370.091 406.919C369.908 407.102 369.908 407.398 370.091 407.58L370.654 408.143C370.827 408.316 370.836 408.596 370.675 408.781L369.634 409.976C369.256 410.411 369.181 411.039 369.446 411.54C369.752 412.116 370.004 412.725 370.196 413.353C370.362 413.895 370.859 414.286 371.435 414.325L373.018 414.435C373.261 414.451 373.453 414.656 373.453 414.901V417.832C373.453 418.077 373.261 418.281 373.018 418.298L371.434 418.408C370.859 418.447 370.362 418.838 370.196 419.381C370.004 420.008 369.752 420.617 369.446 421.193C369.181 421.694 369.256 422.322 369.634 422.756L370.675 423.952C370.836 424.137 370.827 424.417 370.654 424.59L368.581 426.662C368.409 426.835 368.127 426.845 367.943 426.684L366.748 425.643C366.313 425.265 365.685 425.19 365.184 425.455C364.608 425.761 363.998 426.014 363.372 426.204C362.829 426.37 362.438 426.868 362.399 427.443L362.29 429.026C362.273 429.27 362.068 429.462 361.823 429.462H358.892C358.648 429.462 358.443 429.27 358.426 429.026L358.317 427.443C358.277 426.868 357.886 426.37 357.344 426.204C356.718 426.014 356.107 425.761 355.531 425.455C355.03 425.189 354.402 425.264 353.968 425.643L352.772 426.684C352.588 426.845 352.307 426.836 352.134 426.662L350.062 424.59C349.889 424.417 349.879 424.137 350.04 423.952L351.081 422.756C351.459 422.322 351.535 421.694 351.269 421.193C350.963 420.617 350.711 420.008 350.519 419.38C350.354 418.838 349.856 418.447 349.281 418.408L347.698 418.298C347.454 418.281 347.263 418.077 347.263 417.832V414.901C347.263 414.656 347.454 414.451 347.698 414.435L349.281 414.325C349.856 414.286 350.354 413.895 350.519 413.352C350.711 412.725 350.963 412.116 351.269 411.54C351.535 411.039 351.459 410.411 351.081 409.976L350.04 408.781C349.879 408.596 349.889 408.316 350.062 408.143L352.134 406.071C352.307 405.897 352.588 405.888 352.772 406.049L353.968 407.09C354.402 407.468 355.03 407.544 355.531 407.278C356.107 406.971 356.718 406.719 357.344 406.528C357.886 406.363 358.277 405.865 358.317 405.29L358.426 403.707C358.443 403.463 358.648 403.271 358.892 403.271H361.823C362.068 403.271 362.273 403.463 362.29 403.707L362.399 405.29C362.438 405.865 362.829 406.363 363.372 406.528C363.998 406.719 364.608 406.971 365.184 407.278C365.685 407.543 366.313 407.468 366.748 407.09L367.943 406.049C368.128 405.888 368.409 405.898 368.581 406.071C368.764 406.253 369.061 406.253 369.243 406.07C369.425 405.888 369.425 405.591 369.243 405.409C368.723 404.89 367.883 404.861 367.329 405.343L366.133 406.385C365.99 406.511 365.784 406.538 365.623 406.451C364.994 406.117 364.328 405.842 363.645 405.634C363.471 405.581 363.345 405.417 363.332 405.225L363.223 403.642C363.172 402.91 362.557 402.336 361.823 402.336H358.892C358.159 402.336 357.544 402.91 357.492 403.642L357.383 405.226C357.37 405.417 357.245 405.581 357.071 405.634C356.387 405.842 355.721 406.117 355.093 406.451C354.93 406.538 354.726 406.51 354.582 406.385L353.386 405.343C352.833 404.861 351.993 404.89 351.473 405.409L349.4 407.482C348.881 408.001 348.852 408.841 349.335 409.395L350.376 410.591C350.502 410.735 350.529 410.94 350.443 411.101C350.109 411.73 349.834 412.395 349.625 413.079C349.572 413.253 349.408 413.379 349.217 413.392L347.634 413.501C346.901 413.552 346.327 414.167 346.327 414.901V417.832C346.327 418.566 346.901 419.181 347.634 419.231L349.216 419.341C349.408 419.354 349.572 419.48 349.625 419.654C349.834 420.338 350.109 421.003 350.443 421.631C350.529 421.793 350.502 421.998 350.376 422.142L349.335 423.338C348.852 423.891 348.881 424.732 349.4 425.251L351.473 427.324C351.993 427.843 352.832 427.871 353.387 427.389L354.582 426.348C354.726 426.223 354.93 426.195 355.093 426.281C355.721 426.616 356.387 426.891 357.071 427.099C357.245 427.152 357.37 427.316 357.383 427.508L357.492 429.091C357.544 429.823 358.159 430.397 358.892 430.397H361.823C362.557 430.397 363.172 429.823 363.223 429.091L363.332 427.507C363.345 427.316 363.471 427.152 363.645 427.099C364.328 426.891 364.994 426.616 365.623 426.281C365.784 426.195 365.99 426.223 366.133 426.348L367.329 427.39C367.882 427.871 368.723 427.843 369.243 427.324L371.315 425.251C371.834 424.732 371.863 423.891 371.381 423.338L370.339 422.142C370.214 421.998 370.187 421.793 370.272 421.632C370.606 421.003 370.881 420.338 371.09 419.654C371.144 419.48 371.308 419.354 371.498 419.341L373.081 419.231C373.814 419.181 374.388 418.566 374.388 417.832V414.901C374.388 414.167 373.814 413.552 373.081 413.501Z" fill="black"/>
<path d="M355.502 422.677C355.356 422.89 355.411 423.181 355.625 423.327C357.023 424.279 358.66 424.782 360.358 424.782C364.999 424.782 368.776 421.006 368.776 416.364C368.776 411.722 364.999 407.945 360.358 407.945C355.716 407.945 351.939 411.722 351.939 416.364C351.939 418.453 352.71 420.457 354.109 422.005C354.282 422.197 354.579 422.212 354.77 422.039C354.962 421.866 354.977 421.57 354.804 421.378C353.56 420.002 352.875 418.221 352.875 416.364C352.875 412.238 356.232 408.881 360.358 408.881C364.484 408.881 367.841 412.238 367.841 416.364C367.841 420.49 364.484 423.847 360.358 423.847C358.848 423.847 357.394 423.399 356.151 422.553C355.938 422.408 355.647 422.464 355.502 422.677Z" fill="black"/>
<path d="M360.358 418.214C361.131 418.214 361.761 417.584 361.761 416.811V412.755C361.761 411.981 361.131 411.352 360.358 411.352C359.584 411.352 358.955 411.981 358.955 412.755V416.811C358.955 417.584 359.584 418.214 360.358 418.214ZM359.89 412.755C359.89 412.497 360.1 412.287 360.358 412.287C360.616 412.287 360.825 412.497 360.825 412.755V416.811C360.825 417.069 360.616 417.278 360.358 417.278C360.1 417.278 359.89 417.069 359.89 416.811V412.755Z" fill="black"/>
<path d="M360.358 421.376C361.131 421.376 361.761 420.747 361.761 419.973C361.761 419.2 361.131 418.57 360.358 418.57C359.584 418.57 358.955 419.2 358.955 419.973C358.955 420.747 359.584 421.376 360.358 421.376ZM360.358 419.506C360.616 419.506 360.825 419.716 360.825 419.973C360.825 420.231 360.616 420.441 360.358 420.441C360.1 420.441 359.89 420.231 359.89 419.973C359.89 419.716 360.1 419.506 360.358 419.506Z" fill="black"/>
<g clip-path="url(#clip2_2079_52803)">
<path d="M445.791 311.977H434.262C433.997 311.977 433.782 312.192 433.782 312.457V316.78C433.782 317.046 433.997 317.261 434.262 317.26C434.314 317.26 434.365 317.252 434.414 317.236L435.018 317.035C435.673 316.82 436.379 317.177 436.593 317.833C436.808 318.489 436.45 319.194 435.795 319.409C435.542 319.491 435.27 319.491 435.018 319.409L434.414 319.207C434.162 319.124 433.89 319.26 433.806 319.511C433.79 319.56 433.782 319.611 433.782 319.663V323.506H429.939C429.673 323.506 429.458 323.721 429.459 323.987C429.459 324.038 429.467 324.089 429.483 324.138L429.684 324.742C429.899 325.397 429.542 326.103 428.886 326.317C428.23 326.532 427.525 326.174 427.31 325.519C427.228 325.266 427.228 324.994 427.31 324.742L427.512 324.138C427.595 323.886 427.459 323.614 427.208 323.53C427.159 323.514 427.108 323.506 427.056 323.506H422.733C422.468 323.506 422.252 323.721 422.252 323.986V335.515C422.252 335.781 422.468 335.996 422.733 335.996H445.791C446.057 335.996 446.272 335.781 446.272 335.515V312.457C446.272 312.192 446.057 311.977 445.791 311.977ZM433.806 331.041C433.79 331.089 433.782 331.141 433.782 331.192V335.035H423.213V324.467H426.39C426.023 325.631 426.669 326.872 427.833 327.239C428.997 327.606 430.238 326.96 430.605 325.796C430.741 325.363 430.741 324.899 430.605 324.467H433.782V328.31C433.782 328.575 433.997 328.79 434.262 328.79C434.314 328.79 434.365 328.781 434.414 328.765L435.018 328.564C435.673 328.349 436.379 328.707 436.593 329.362C436.808 330.018 436.45 330.723 435.795 330.938C435.542 331.02 435.27 331.02 435.018 330.938L434.414 330.737C434.162 330.653 433.89 330.789 433.806 331.041ZM445.311 335.035H434.742V331.858C435.906 332.225 437.148 331.579 437.515 330.415C437.882 329.252 437.236 328.01 436.072 327.643C435.639 327.507 435.175 327.507 434.742 327.643V324.467H438.586C438.851 324.466 439.066 324.251 439.066 323.986C439.065 323.934 439.057 323.883 439.041 323.834L438.84 323.231C438.625 322.575 438.983 321.87 439.638 321.655C440.294 321.44 440.999 321.798 441.214 322.454C441.296 322.706 441.296 322.978 441.214 323.231L441.012 323.834C440.929 324.086 441.065 324.358 441.316 324.442C441.365 324.458 441.416 324.467 441.468 324.467H445.311V335.035H445.311ZM445.311 323.506H442.134C442.501 322.342 441.855 321.101 440.691 320.734C439.527 320.367 438.286 321.013 437.919 322.177C437.783 322.609 437.783 323.073 437.919 323.506H434.742V320.329C435.41 320.545 436.14 320.429 436.707 320.015C437.7 319.307 437.931 317.927 437.223 316.933C436.663 316.149 435.659 315.817 434.742 316.114V312.937H445.311V323.506Z" fill="black"/>
<path d="M431.268 311.302C430.835 311.165 430.371 311.165 429.939 311.302V307.644C429.939 307.379 429.724 307.164 429.458 307.164H417.929C417.664 307.164 417.449 307.379 417.449 307.644V319.174C417.449 319.439 417.664 319.654 417.929 319.654H421.586C421.219 320.818 421.865 322.059 423.029 322.426C424.193 322.793 425.434 322.147 425.801 320.983C425.938 320.551 425.938 320.087 425.801 319.654H429.458C429.724 319.654 429.939 319.439 429.939 319.174V315.516C431.103 315.884 432.344 315.238 432.711 314.074C433.078 312.91 432.432 311.669 431.268 311.302ZM430.991 314.596C430.739 314.679 430.466 314.679 430.214 314.596L429.61 314.395C429.358 314.311 429.086 314.447 429.003 314.699C428.986 314.748 428.978 314.799 428.978 314.85V318.693H425.135C424.87 318.694 424.655 318.909 424.655 319.174C424.655 319.226 424.663 319.277 424.68 319.326L424.881 319.929C425.095 320.585 424.738 321.29 424.082 321.505C423.427 321.719 422.721 321.362 422.507 320.706C422.424 320.454 422.424 320.182 422.507 319.929L422.708 319.325C422.792 319.074 422.656 318.802 422.404 318.718C422.355 318.702 422.304 318.693 422.253 318.693H418.41V308.125H428.978V311.968C428.978 312.233 429.193 312.448 429.459 312.448C429.51 312.448 429.561 312.44 429.61 312.423L430.214 312.222C430.87 312.007 431.575 312.365 431.79 313.021C432.004 313.676 431.647 314.382 430.991 314.596Z" fill="black"/>
</g>
<g clip-path="url(#clip3_2079_52803)">
<path d="M436.704 230.104C436.459 230.105 436.215 230.155 435.989 230.252C435.763 230.349 435.559 230.49 435.389 230.667C435.228 230.832 435.103 231.028 435.02 231.243C434.938 231.458 434.9 231.688 434.91 231.918L435.113 236.561C435.151 237.442 435.85 238.132 436.704 238.132C437.554 238.132 438.252 237.443 438.295 236.561L438.499 231.918C438.508 231.688 438.471 231.458 438.388 231.243C438.306 231.028 438.181 230.832 438.02 230.667C437.849 230.49 437.645 230.348 437.419 230.252C437.193 230.155 436.95 230.105 436.704 230.104ZM437.361 236.518C437.342 236.899 437.054 237.197 436.704 237.197C436.353 237.197 436.064 236.9 436.048 236.521L435.844 231.878C435.841 231.774 435.858 231.67 435.896 231.573C435.934 231.476 435.991 231.388 436.064 231.314C436.147 231.227 436.246 231.158 436.356 231.111C436.466 231.064 436.585 231.04 436.704 231.04C436.824 231.04 436.942 231.064 437.052 231.111C437.162 231.158 437.262 231.227 437.344 231.314C437.417 231.388 437.475 231.476 437.513 231.573C437.55 231.67 437.568 231.773 437.565 231.877L437.361 236.518ZM436.704 238.455C436.389 238.454 436.081 238.548 435.819 238.723C435.556 238.898 435.352 239.147 435.231 239.438C435.111 239.729 435.079 240.05 435.14 240.359C435.202 240.668 435.354 240.952 435.577 241.175C435.8 241.398 436.084 241.55 436.393 241.611C436.702 241.673 437.023 241.641 437.314 241.521C437.605 241.4 437.854 241.195 438.029 240.933C438.204 240.671 438.297 240.363 438.297 240.048C438.297 239.625 438.129 239.22 437.83 238.922C437.531 238.623 437.127 238.455 436.704 238.455ZM436.704 240.707C436.574 240.707 436.447 240.668 436.338 240.596C436.23 240.524 436.146 240.421 436.096 240.301C436.046 240.181 436.032 240.048 436.058 239.921C436.083 239.793 436.145 239.676 436.237 239.583C436.329 239.491 436.447 239.428 436.574 239.403C436.702 239.377 436.834 239.39 436.955 239.44C437.075 239.49 437.178 239.574 437.25 239.682C437.323 239.79 437.362 239.917 437.362 240.048C437.362 240.222 437.293 240.389 437.169 240.513C437.046 240.637 436.879 240.706 436.704 240.707ZM450.906 242.861H450.507V238.365C450.505 237.06 450 235.805 449.097 234.862C448.194 233.919 446.962 233.36 445.657 233.303L440.939 225.134C440.51 224.39 439.893 223.772 439.15 223.343C438.406 222.914 437.563 222.688 436.704 222.688C435.846 222.688 435.003 222.914 434.259 223.343C433.516 223.772 432.899 224.39 432.47 225.134L424.416 239.081C423.987 239.825 423.761 240.668 423.761 241.526C423.761 242.385 423.987 243.228 424.416 243.971C424.845 244.715 425.462 245.332 426.206 245.761C426.949 246.19 427.792 246.416 428.651 246.416H451.695C451.819 246.416 451.938 246.367 452.025 246.279C452.113 246.192 452.162 246.073 452.162 245.949V244.116C452.162 243.783 452.029 243.464 451.794 243.228C451.558 242.993 451.239 242.861 450.906 242.861ZM449.572 238.365V242.861H447.01V239.486C447.01 239.069 446.845 238.67 446.55 238.375C446.256 238.081 445.856 237.915 445.44 237.915C445.023 237.915 444.624 238.081 444.329 238.375C444.035 238.67 443.869 239.069 443.869 239.486V242.861H441.307V238.365C441.307 237.269 441.742 236.218 442.517 235.443C443.292 234.668 444.343 234.233 445.439 234.233C446.535 234.233 447.586 234.668 448.361 235.443C449.136 236.218 449.572 237.269 449.572 238.365ZM446.075 242.861H444.805V239.486C444.805 239.317 444.872 239.156 444.991 239.037C445.11 238.918 445.271 238.851 445.44 238.851C445.608 238.851 445.77 238.918 445.889 239.037C446.008 239.156 446.075 239.317 446.075 239.486V242.861ZM438.751 243.83H428.651C428.247 243.83 427.849 243.723 427.499 243.521C427.149 243.319 426.859 243.028 426.657 242.678C426.455 242.328 426.348 241.93 426.348 241.526C426.348 241.122 426.454 240.725 426.656 240.374L430.683 233.4L434.71 226.426C434.912 226.076 435.203 225.786 435.553 225.583C435.903 225.381 436.3 225.275 436.704 225.275C437.109 225.275 437.506 225.381 437.856 225.583C438.206 225.786 438.497 226.076 438.699 226.426L442.726 233.4L443.022 233.912C442.221 234.347 441.551 234.991 441.085 235.775C440.618 236.558 440.372 237.454 440.371 238.366V242.861H439.972C439.689 242.862 439.415 242.958 439.193 243.134C438.972 243.309 438.816 243.555 438.751 243.83ZM425.226 243.504C424.875 242.904 424.69 242.222 424.69 241.527C424.69 240.831 424.875 240.149 425.226 239.549L433.28 225.601C434.005 224.343 435.253 223.622 436.704 223.622C438.156 223.622 439.404 224.343 440.129 225.601L444.613 233.365C444.367 233.406 444.125 233.464 443.888 233.541L443.536 232.932L439.509 225.959C439.225 225.466 438.816 225.057 438.324 224.773C437.831 224.489 437.273 224.339 436.704 224.339C436.136 224.339 435.577 224.489 435.085 224.773C434.593 225.057 434.184 225.466 433.9 225.959L429.873 232.932L425.846 239.907C425.562 240.399 425.413 240.958 425.413 241.526C425.413 242.095 425.562 242.653 425.847 243.145C426.131 243.638 426.539 244.047 427.032 244.331C427.524 244.616 428.082 244.765 428.651 244.766H438.718V245.481H428.651C427.2 245.481 425.951 244.76 425.226 243.504ZM451.227 245.481H439.653V244.116C439.654 244.031 439.688 243.951 439.748 243.891C439.807 243.831 439.888 243.797 439.972 243.796H450.906C450.99 243.797 451.071 243.831 451.131 243.891C451.191 243.95 451.226 244.031 451.227 244.116V245.481ZM445.013 235.337C445.031 235.396 445.037 235.458 445.031 235.519C445.025 235.58 445.007 235.639 444.979 235.694C444.95 235.748 444.91 235.796 444.863 235.835C444.816 235.874 444.761 235.903 444.702 235.921C444.223 236.071 443.798 236.356 443.478 236.742C443.158 237.129 442.957 237.6 442.9 238.098C442.888 238.213 442.833 238.319 442.748 238.397C442.662 238.474 442.551 238.517 442.435 238.517C442.419 238.517 442.402 238.516 442.385 238.514C442.262 238.501 442.149 238.439 442.071 238.343C441.993 238.246 441.957 238.123 441.97 238C442.042 237.317 442.314 236.671 442.751 236.143C443.189 235.614 443.773 235.226 444.429 235.027C444.548 234.99 444.676 235.003 444.786 235.061C444.895 235.119 444.977 235.219 445.013 235.337ZM440.479 233.738L439.305 232.567C439.261 232.523 439.227 232.472 439.203 232.415C439.179 232.358 439.166 232.297 439.166 232.236C439.166 232.174 439.178 232.113 439.201 232.056C439.225 231.999 439.259 231.947 439.303 231.903C439.346 231.86 439.398 231.825 439.455 231.802C439.512 231.778 439.573 231.766 439.635 231.766C439.697 231.766 439.758 231.779 439.814 231.802C439.871 231.826 439.923 231.861 439.966 231.905L441.139 233.076C441.183 233.12 441.218 233.171 441.242 233.228C441.266 233.285 441.278 233.346 441.279 233.408C441.279 233.469 441.267 233.53 441.244 233.587C441.22 233.644 441.186 233.696 441.142 233.74C441.098 233.783 441.047 233.818 440.99 233.842C440.933 233.865 440.872 233.877 440.81 233.877C440.748 233.877 440.687 233.865 440.63 233.841C440.574 233.817 440.522 233.782 440.479 233.738ZM445.439 229.364C445.563 229.364 445.682 229.413 445.77 229.501C445.857 229.588 445.907 229.707 445.907 229.831V231.706C445.907 231.83 445.857 231.949 445.77 232.036C445.682 232.124 445.563 232.173 445.439 232.173C445.315 232.173 445.196 232.124 445.108 232.036C445.021 231.949 444.971 231.83 444.971 231.706V229.831C444.971 229.707 445.021 229.588 445.108 229.501C445.196 229.413 445.315 229.364 445.439 229.364ZM451.573 231.905C451.661 231.993 451.71 232.112 451.71 232.236C451.71 232.36 451.661 232.479 451.573 232.567L450.402 233.738C450.314 233.825 450.195 233.873 450.071 233.873C449.948 233.873 449.83 233.823 449.742 233.736C449.655 233.649 449.606 233.53 449.605 233.407C449.605 233.283 449.653 233.165 449.74 233.077L450.912 231.905C450.955 231.862 451.007 231.827 451.063 231.804C451.12 231.78 451.181 231.768 451.242 231.768C451.304 231.768 451.365 231.78 451.421 231.804C451.478 231.827 451.53 231.862 451.573 231.905Z" fill="black"/>
</g>
<g clip-path="url(#clip4_2079_52803)">
<path fill-rule="evenodd" clip-rule="evenodd" d="M299.66 98.6888L299.941 99.1862C299.941 99.1866 299.942 99.187 299.942 99.1874C300.227 99.6939 300.046 100.34 299.542 100.625L298.426 101.257C298.425 101.258 298.425 101.258 298.425 101.258C297.918 101.543 297.272 101.362 296.987 100.858L293.704 95.0577C293.417 94.5507 293.598 93.9037 294.102 93.6189L295.219 92.9862L295.22 92.9859C295.724 92.7012 296.371 92.8801 296.658 93.3841L296.658 93.3852L296.879 93.7761L299.738 92.1208C300.636 91.6017 301.554 91.2679 302.54 91.588C303.478 91.8921 305.009 92.548 306.571 92.8303C306.592 92.834 306.612 92.8392 306.632 92.8456C307.46 93.1137 307.962 93.9517 307.736 94.7925C307.717 94.863 307.695 94.9309 307.669 94.9958C307.78 94.9543 307.889 94.9024 307.998 94.8394L311.978 92.521C313.454 91.6614 314.439 91.7665 314.996 92.1402C315.485 92.4679 315.712 93.0269 315.698 93.5764C315.683 94.1321 315.416 94.6619 314.98 94.9304L307.757 99.3775C306.979 99.8575 306.127 99.9704 305.245 99.735L305.244 99.7348L300.193 98.381L299.66 98.6888ZM299.123 99.6477L295.841 93.8486L295.841 93.848C295.809 93.7925 295.738 93.772 295.682 93.8035L294.564 94.4361L294.564 94.4363C294.509 94.4676 294.49 94.539 294.521 94.5947L294.521 94.5949L297.804 100.396L297.805 100.396C297.836 100.452 297.908 100.471 297.964 100.44L299.079 99.8077L299.08 99.8074C299.136 99.7758 299.155 99.7039 299.123 99.6477ZM299.197 97.8715L299.892 97.4705C299.999 97.4082 300.128 97.3914 300.248 97.4236L305.487 98.8277C306.111 98.9942 306.714 98.9178 307.264 98.5784L307.264 98.5781L314.488 94.1308C314.67 94.0187 314.753 93.7835 314.759 93.5514C314.777 92.8598 314.081 92.3828 312.451 93.3324L308.47 95.6507C307.817 96.0316 307.132 96.1374 306.385 96.0185C306.385 96.0185 306.384 96.0184 306.384 96.0183L305.89 95.938C305.89 95.938 304.136 95.4779 303.21 95.2291C302.959 95.1618 302.811 94.904 302.878 94.6538C302.945 94.4035 303.203 94.2549 303.453 94.3222C304.354 94.5642 305.165 94.8296 306.039 95.0104C306.44 95.0537 306.737 94.8926 306.829 94.5488L306.829 94.5487C306.922 94.2029 306.704 93.8694 306.369 93.748C304.772 93.4539 303.209 92.7921 302.251 92.4812L302.25 92.4811C301.527 92.2464 300.867 92.553 300.208 92.9338L297.342 94.5934L299.197 97.8715ZM295.487 94.4222C295.74 94.3845 295.975 94.5594 296.013 94.8128C296.049 95.0661 295.874 95.3029 295.621 95.3392C295.368 95.3768 295.132 95.2004 295.095 94.947C295.058 94.6936 295.233 94.4583 295.487 94.4222ZM314.322 83.0831C314.248 83.3239 313.995 83.4641 313.75 83.3973C313.5 83.329 313.352 83.0706 313.421 82.8206C313.438 82.7551 313.455 82.6894 313.471 82.6232C313.507 82.4726 313.615 82.3493 313.759 82.2936L314.759 81.9086V80.4283L313.759 80.0433C313.614 79.9876 313.507 79.8642 313.471 79.7134C313.318 79.0667 313.063 78.4519 312.715 77.8868C312.634 77.7551 312.623 77.5919 312.685 77.4504L313.12 76.4693L312.073 75.4228L311.092 75.8588C310.951 75.9218 310.787 75.9108 310.655 75.8295C310.09 75.4813 309.475 75.2266 308.831 75.0734C308.68 75.0376 308.557 74.9296 308.501 74.785L308.116 73.7828H306.635L306.248 74.7856C306.193 74.93 306.07 75.0376 305.919 75.0734C305.274 75.2266 304.659 75.4813 304.094 75.8295C303.962 75.9108 303.799 75.9218 303.657 75.8588L302.676 75.4228L301.63 76.469L302.066 77.4498C302.129 77.5913 302.118 77.7549 302.037 77.8868C301.689 78.4523 301.434 79.0676 301.278 79.7147C301.242 79.8649 301.135 79.9878 300.991 80.0433L299.99 80.4283V81.9086L300.991 82.2936C301.135 82.3491 301.242 82.4718 301.278 82.6219C301.434 83.2668 301.688 83.884 302.037 84.4473C302.118 84.5793 302.129 84.7431 302.066 84.885C302.066 84.885 301.63 85.8658 301.63 85.8658L302.677 86.9124L303.658 86.4778C303.799 86.4153 303.962 86.4261 304.093 86.5067C304.374 86.6789 304.668 86.829 304.971 86.9553C305.21 87.0549 305.323 87.33 305.224 87.5692C305.124 87.8084 304.849 87.9218 304.61 87.8222C304.338 87.7091 304.074 87.5794 303.817 87.4341L302.763 87.9014C302.585 87.9799 302.378 87.9413 302.24 87.804L300.738 86.3017C300.601 86.1643 300.562 85.9565 300.641 85.779L301.11 84.7252C300.815 84.2089 300.587 83.6569 300.428 83.0833L299.352 82.6692C299.171 82.5994 299.051 82.4253 299.051 82.231V80.1059C299.051 79.9117 299.171 79.7375 299.352 79.6677C299.352 79.6677 300.428 79.2537 300.428 79.2538C300.587 78.6787 300.815 78.1275 301.11 77.6099L300.641 76.5558C300.562 76.3782 300.601 76.1704 300.738 76.033L302.24 74.5307C302.378 74.3933 302.586 74.3547 302.763 74.4337L303.817 74.9023C304.335 74.6078 304.886 74.3795 305.459 74.2219L305.875 73.1442C305.945 72.9632 306.119 72.8438 306.313 72.8438H308.438C308.633 72.8438 308.807 72.9635 308.877 73.1449C308.877 73.1449 309.291 74.222 309.291 74.222C309.864 74.3796 310.415 74.6078 310.932 74.9023L311.986 74.4337C312.164 74.3547 312.372 74.3933 312.509 74.5307L314.012 76.033C314.149 76.1703 314.187 76.3778 314.109 76.5552L313.642 77.6095C313.937 78.1273 314.165 78.6788 314.323 79.254L315.398 79.6677C315.579 79.7375 315.698 79.9117 315.698 80.1059V82.231C315.698 82.4253 315.579 82.5994 315.398 82.6692L314.322 83.0831ZM311.216 79.5205C311.318 79.7585 311.208 80.0349 310.97 80.1372C310.732 80.2395 310.455 80.1292 310.353 79.8911C309.857 78.7375 308.71 77.9303 307.375 77.9303C305.586 77.9303 304.138 79.3787 304.138 81.1674C304.138 82.6384 305.117 83.8809 306.46 84.2757C306.709 84.3488 306.851 84.61 306.778 84.8586C306.705 85.1072 306.444 85.2497 306.195 85.1766C304.463 84.6673 303.199 83.065 303.199 81.1674C303.199 78.8599 305.067 76.9912 307.375 76.9912C309.097 76.9912 310.576 78.0326 311.216 79.5205ZM311.829 81.3992L311.829 81.3998L316.098 88.7912L316.098 88.7914C316.352 89.2328 316.352 89.7519 316.097 90.194L316.097 90.1948C315.842 90.6348 315.392 90.8952 314.882 90.8952H306.347C305.839 90.8952 305.387 90.6343 305.133 90.1935L305.133 90.1933C304.878 89.7519 304.878 89.2328 305.133 88.7912L309.4 81.3998C309.655 80.9578 310.106 80.6978 310.615 80.6978C311.125 80.6978 311.575 80.9576 311.829 81.3992ZM311.016 81.8683C310.932 81.7225 310.783 81.6369 310.615 81.6369C310.447 81.6369 310.298 81.7225 310.214 81.8685L305.946 89.26C305.862 89.4063 305.862 89.5782 305.946 89.7245C306.03 89.8699 306.179 89.9561 306.347 89.9561H314.882C315.051 89.9561 315.2 89.8695 315.285 89.724C315.368 89.5779 315.368 89.4062 315.284 89.2601L311.016 81.8686L311.016 81.8683ZM310.615 87.4429C310.349 87.4429 310.132 87.2331 310.123 86.9675L309.997 83.5174C309.993 83.3782 310.039 83.2571 310.135 83.1569C310.232 83.0568 310.351 83.0062 310.49 83.0062H310.739C310.878 83.0062 310.998 83.0568 311.094 83.1569C311.191 83.2571 311.238 83.3782 311.232 83.5174L311.108 86.9675C311.099 87.2331 310.88 87.4429 310.615 87.4429ZM310.615 89.3661C310.267 89.3661 309.984 89.0826 309.984 88.7349C309.984 88.3871 310.267 88.1036 310.615 88.1036C310.963 88.1036 311.246 88.3871 311.246 88.7349C311.246 89.0826 310.963 89.3661 310.615 89.3661Z" fill="black"/>
</g>
<path d="M404.7 166.722C406.956 166.722 409.173 166.139 411.138 165.03C413.102 163.921 414.746 162.324 415.912 160.393C417.077 158.462 417.724 156.262 417.79 154.007C417.855 151.753 417.338 149.519 416.286 147.524C416.228 147.415 416.128 147.334 416.01 147.298C415.892 147.263 415.765 147.275 415.656 147.333C415.547 147.391 415.465 147.489 415.428 147.607C415.392 147.725 415.403 147.853 415.46 147.962C416.381 149.708 416.861 151.653 416.86 153.626C416.194 169.755 393.207 169.756 392.54 153.626C392.428 144.609 402.455 138.564 410.365 142.867C410.474 142.925 410.602 142.937 410.721 142.901C410.84 142.864 410.939 142.782 410.997 142.673C411.055 142.563 411.067 142.435 411.031 142.316C410.995 142.198 410.913 142.098 410.803 142.04C408.922 141.048 406.827 140.53 404.7 140.531C387.33 141.249 387.33 166.004 404.7 166.722Z" fill="black"/>
<path d="M404.7 149.889C405.105 149.888 405.508 149.956 405.89 150.087C406.008 150.128 406.136 150.12 406.248 150.066C406.359 150.011 406.444 149.915 406.485 149.798C406.69 148.97 405.234 149.003 404.701 148.953C398.497 149.21 398.497 158.051 404.701 158.307C405.94 158.305 407.129 157.812 408.006 156.936C408.883 156.059 409.376 154.87 409.377 153.63C409.33 153.087 409.361 151.646 408.537 151.85C408.479 151.87 408.426 151.902 408.38 151.942C408.334 151.983 408.296 152.032 408.269 152.088C408.242 152.143 408.227 152.203 408.223 152.264C408.219 152.325 408.228 152.387 408.248 152.445C408.378 152.826 408.443 153.227 408.442 153.63C408.254 158.586 401.147 158.586 400.959 153.63C400.96 152.638 401.355 151.687 402.056 150.986C402.758 150.284 403.709 149.89 404.7 149.889Z" fill="black"/>
<path d="M409.178 146.489C409.208 146.435 409.227 146.376 409.234 146.315C409.241 146.254 409.236 146.192 409.219 146.133C409.202 146.074 409.174 146.019 409.135 145.971C409.097 145.923 409.05 145.883 408.996 145.853C407.681 145.125 406.203 144.743 404.7 144.742C392.914 145.229 392.914 162.027 404.7 162.514C406.246 162.515 407.765 162.112 409.108 161.346C410.45 160.58 411.57 159.477 412.355 158.145C413.14 156.814 413.564 155.3 413.586 153.755C413.607 152.209 413.224 150.685 412.475 149.332C412.446 149.278 412.406 149.231 412.358 149.192C412.31 149.154 412.254 149.125 412.195 149.108C412.136 149.091 412.074 149.086 412.013 149.093C411.952 149.1 411.893 149.119 411.839 149.149C411.785 149.178 411.737 149.219 411.699 149.267C411.661 149.315 411.633 149.37 411.616 149.43C411.599 149.489 411.594 149.551 411.601 149.612C411.608 149.673 411.627 149.732 411.657 149.786C414.622 154.927 410.64 161.682 404.7 161.579C402.592 161.576 400.571 160.738 399.081 159.247C397.59 157.757 396.752 155.736 396.75 153.628C396.648 147.689 403.401 143.706 408.543 146.671C408.596 146.701 408.655 146.72 408.716 146.727C408.777 146.734 408.839 146.729 408.898 146.712C408.957 146.695 409.013 146.667 409.061 146.628C409.109 146.59 409.149 146.543 409.178 146.489Z" fill="black"/>
<path d="M410.09 145.169L410.261 147.412L404.369 153.304C404.285 153.392 404.238 153.51 404.239 153.633C404.241 153.755 404.29 153.872 404.376 153.959C404.463 154.045 404.58 154.094 404.702 154.096C404.825 154.097 404.943 154.05 405.031 153.965L410.923 148.073L413.166 148.245C413.233 148.25 413.301 148.241 413.364 148.217C413.427 148.194 413.485 148.157 413.532 148.109L416.936 144.706C416.998 144.642 417.041 144.562 417.059 144.475C417.077 144.388 417.071 144.298 417.04 144.214C417.009 144.131 416.955 144.058 416.885 144.004C416.814 143.95 416.73 143.917 416.641 143.909L414.584 143.751L414.426 141.694C414.418 141.605 414.385 141.521 414.331 141.45C414.277 141.38 414.204 141.326 414.121 141.295C414.037 141.264 413.947 141.257 413.86 141.276C413.773 141.294 413.693 141.337 413.629 141.399L410.225 144.803C410.178 144.85 410.141 144.908 410.117 144.971C410.094 145.034 410.085 145.102 410.09 145.169ZM413.571 142.779C413.758 144.957 413.39 144.574 415.556 144.764L413.023 147.296L411.18 147.155L411.039 145.312L413.571 142.779Z" fill="black"/>
<g opacity="0.2">
<path d="M104.12 304.209H48.6125L54.3965 298.335L69.2012 296.877C70.7804 296.72 71.9343 295.32 71.7778 293.744C71.6214 292.169 70.2279 291.022 68.6389 291.178L52.7977 292.739C52.1279 292.808 51.507 293.105 51.0327 293.583L40.5599 304.214H19.1743C18.3578 304.214 17.5804 304.56 17.0377 305.165L2.89796 320.923C2.11568 320.913 1.3334 321.216 0.761358 321.831C-0.314278 322.992 -0.240931 324.802 0.922712 325.88L21.438 344.799C21.9709 345.287 22.6652 345.56 23.384 345.56H45.4883L50.4215 350.849C50.9887 351.454 51.7514 351.761 52.5239 351.761C53.2231 351.761 53.9271 351.507 54.4796 350.995C55.6384 349.917 55.7068 348.107 54.6263 346.946L48.8423 340.745C48.2996 340.164 47.5369 339.833 46.7399 339.833H40.2763L47.3462 332.246C48.4267 331.085 48.3583 329.275 47.1995 328.197C46.0359 327.119 44.222 327.187 43.1414 328.344L32.4388 339.828H24.5134L7.62097 324.246L20.4651 309.932H69.5288L82.3092 324.085C82.8764 324.714 83.6587 325.031 84.441 325.031C85.1255 325.031 85.8149 324.787 86.3625 324.294C87.5408 323.236 87.6337 321.426 86.5727 320.25L77.2587 309.937H104.13C105.714 309.937 107 308.653 107 307.073C107 305.492 105.714 304.209 104.13 304.209H104.12Z" fill="#F0BB00"/>
<path d="M22.7626 272C21.1785 272 19.8926 273.283 19.8926 274.864C19.8926 276.444 21.1785 277.727 22.7626 277.727H62.5024C64.0866 277.727 65.3725 276.444 65.3725 274.864C65.3725 273.283 64.0866 272 62.5024 272H22.7626Z" fill="#F0BB00"/>
</g>
<g opacity="0.2">
<path d="M480.996 99.4781H531.798L526.504 94.1022L512.955 92.7672C511.509 92.6243 510.453 91.3429 510.596 89.9007C510.74 88.4585 512.015 87.4092 513.469 87.5521L527.967 88.9809C528.58 89.0434 529.149 89.3157 529.583 89.7533L539.168 99.4825H558.74C559.487 99.4825 560.199 99.7995 560.695 100.353L573.636 114.775C574.352 114.766 575.068 115.043 575.592 115.606C576.576 116.668 576.509 118.325 575.444 119.312L556.668 136.627C556.18 137.073 555.545 137.323 554.887 137.323H534.657L530.142 142.163C529.623 142.717 528.925 142.998 528.218 142.998C527.578 142.998 526.934 142.766 526.428 142.297C525.367 141.31 525.305 139.654 526.294 138.591L531.587 132.916C532.084 132.385 532.782 132.081 533.511 132.081H539.427L532.957 125.138C531.968 124.076 532.03 122.419 533.091 121.432C534.156 120.446 535.816 120.508 536.805 121.566L546.6 132.077H553.854L569.314 117.816L557.559 104.715H512.655L500.958 117.668C500.439 118.244 499.723 118.535 499.007 118.535C498.38 118.535 497.749 118.311 497.248 117.86C496.17 116.891 496.085 115.235 497.056 114.159L505.58 104.72H480.987C479.537 104.72 478.361 103.546 478.361 102.099C478.361 100.652 479.537 99.4781 480.987 99.4781H480.996Z" fill="#F0BB00"/>
<path d="M571.674 70C573.123 70 574.3 71.1743 574.3 72.6209C574.3 74.0676 573.123 75.2419 571.674 75.2419H535.303C533.853 75.2419 532.676 74.0676 532.676 72.6209C532.676 71.1743 533.853 70 535.303 70H571.674Z" fill="#F0BB00"/>
</g>
</g>
<defs>
<clipPath id="clip0_2079_52803">
<rect width="575" height="450" fill="white"/>
</clipPath>
<clipPath id="clip1_2079_52803">
<rect width="278.955" height="278.955" fill="white" transform="translate(125.667 124.555)"/>
</clipPath>
<clipPath id="clip2_2079_52803">
<rect width="28.8232" height="28.8232" fill="white" transform="translate(417.45 307.172)"/>
</clipPath>
<clipPath id="clip3_2079_52803">
<rect width="29.9317" height="29.9317" fill="white" transform="translate(422.993 219.594)"/>
</clipPath>
<clipPath id="clip4_2079_52803">
<rect width="29.9317" height="29.9317" fill="white" transform="translate(289.962 72.1484)"/>
</clipPath>
</defs>
</svg>
