<svg width="112" height="72" viewBox="0 0 112 72" fill="none" xmlns="http://www.w3.org/2000/svg">
<path fill-rule="evenodd" clip-rule="evenodd" d="M73.8166 9.10156C77.2875 9.10156 80.1012 11.9153 80.1012 15.3862V19.8936H91.514L95.558 15.8495C95.9095 15.4981 96.4793 15.4981 96.8308 15.8495C97.1823 16.201 97.1823 16.7709 96.8308 17.1223L94.0596 19.8936H106.665C107.162 19.8936 107.565 20.2965 107.565 20.7936C107.565 21.2906 107.162 21.6936 106.665 21.6936H91.8985C91.8906 21.6937 91.8828 21.6937 91.875 21.6936H80.1012V26.3408H90.6284C91.1255 26.3408 91.5284 26.7438 91.5284 27.2408C91.5284 27.7379 91.1255 28.1408 90.6284 28.1408H80.1012V43.3862C80.1012 46.8571 77.2875 49.6708 73.8166 49.6708H67.4506C66.9301 50.757 65.8204 51.507 64.5355 51.507C62.7512 51.507 61.3047 50.0606 61.3047 48.2763C61.3047 46.492 62.7512 45.0455 64.5355 45.0455C66.1824 45.0455 67.5416 46.2779 67.741 47.8708H73.8166C76.2933 47.8708 78.3012 45.863 78.3012 43.3862V15.3862C78.3012 12.9094 76.2934 10.9016 73.8166 10.9016H45.8166C43.3398 10.9016 41.3319 12.9094 41.3319 15.3862V20.277H41.3357V44.5077V44.8805L41.0721 45.1441L34.0721 52.1441L33.8085 52.4077H33.4357H27.924L24.737 56.1719C25.1263 56.7055 25.3561 57.363 25.3561 58.0741C25.3561 59.8584 23.9096 61.3049 22.1253 61.3049C20.341 61.3049 18.8945 59.8584 18.8945 58.0741C18.8945 56.2898 20.341 54.8434 22.1253 54.8434C22.5445 54.8434 22.9451 54.9232 23.3127 55.0685L25.5655 52.4077H16.5503L11.8418 56.6454C12.2137 57.1717 12.4322 57.8142 12.4322 58.5077C12.4322 60.292 10.9858 61.7385 9.20147 61.7385C7.41717 61.7385 5.9707 60.292 5.9707 58.5077C5.9707 56.7234 7.41717 55.277 9.20147 55.277C9.62928 55.277 10.0377 55.3601 10.4113 55.5111L15.6029 50.8388L15.8596 50.6077H16.2049H33.0629L39.5357 44.1349V40.5607H26.2664L22.9313 43.8958C23.2329 44.3871 23.4069 44.9652 23.4069 45.5839C23.4069 47.3682 21.9604 48.8147 20.1761 48.8147C18.3918 48.8147 16.9453 47.3682 16.9453 45.5839C16.9453 43.7996 18.3918 42.3531 20.1761 42.3531C20.6867 42.3531 21.1697 42.4716 21.599 42.6826L23.7208 40.5607H13.3857C12.9964 41.9078 11.754 42.8928 10.2816 42.8928C8.49725 42.8928 7.05078 41.4463 7.05078 39.662C7.05078 37.8777 8.49725 36.4312 10.2816 36.4312C11.7531 36.4312 12.9948 37.415 13.3849 38.7607H39.5357V29.469C39.5332 29.4417 39.5319 29.4141 39.5319 29.3862V15.3862C39.5319 11.9153 42.3457 9.10156 45.8166 9.10156H73.8166ZM11.7123 39.662C11.7123 40.4522 11.0717 41.0928 10.2816 41.0928C9.49136 41.0928 8.85078 40.4522 8.85078 39.662C8.85078 38.8718 9.49136 38.2312 10.2816 38.2312C11.0717 38.2312 11.7123 38.8718 11.7123 39.662ZM20.1761 47.0147C20.9663 47.0147 21.6069 46.3741 21.6069 45.5839C21.6069 44.7937 20.9663 44.1531 20.1761 44.1531C19.3859 44.1531 18.7453 44.7937 18.7453 45.5839C18.7453 46.3741 19.3859 47.0147 20.1761 47.0147ZM10.6322 58.5077C10.6322 59.2979 9.99166 59.9385 9.20147 59.9385C8.41128 59.9385 7.7707 59.2979 7.7707 58.5077C7.7707 57.7175 8.41128 57.077 9.20147 57.077C9.99166 57.077 10.6322 57.7175 10.6322 58.5077ZM23.5561 58.0741C23.5561 58.8643 22.9155 59.5049 22.1253 59.5049C21.3351 59.5049 20.6945 58.8643 20.6945 58.0741C20.6945 57.2839 21.3351 56.6434 22.1253 56.6434C22.9155 56.6434 23.5561 57.2839 23.5561 58.0741ZM64.5355 49.707C65.3256 49.707 65.9662 49.0665 65.9662 48.2763C65.9662 47.4861 65.3256 46.8455 64.5355 46.8455C63.7453 46.8455 63.1047 47.4861 63.1047 48.2763C63.1047 49.0665 63.7453 49.707 64.5355 49.707ZM62.4179 20.8398L60.7972 17.602C60.3964 16.8014 59.2393 16.8014 58.8385 17.602L57.2187 20.8398C57.0599 21.1576 56.7524 21.378 56.3968 21.429L52.7713 21.9509C51.8755 22.0802 51.5191 23.1658 52.1673 23.7879L54.7891 26.3071C55.0467 26.5548 55.164 26.9109 55.1031 27.2606L54.4853 30.8172C54.332 31.697 55.2684 32.3682 56.069 31.952L59.3095 30.2716C59.6281 30.1068 60.0085 30.1068 60.3262 30.2716L63.5667 31.952C64.3673 32.3682 65.3037 31.697 65.1513 30.8172L64.5326 27.2606C64.4717 26.9109 64.589 26.5548 64.8466 26.3071L67.4683 23.7879C68.1166 23.1658 67.7601 22.0802 66.8644 21.9509L63.2388 21.429C62.8833 21.378 62.5767 21.1576 62.4179 20.8398ZM51.4057 32.4316L52.3608 34.3395C52.4544 34.5268 52.6351 34.6567 52.8446 34.6868L54.981 34.9943C55.5089 35.0705 55.719 35.7103 55.3369 36.0768L53.792 37.5613C53.6402 37.7073 53.5711 37.9172 53.607 38.1233L53.9716 40.2191C54.0614 40.7375 53.5096 41.1331 53.0378 40.8878L51.1282 39.8976C50.941 39.8005 50.7168 39.8005 50.529 39.8976L48.6195 40.8878C48.1477 41.1331 47.5959 40.7375 47.6862 40.2191L48.0503 38.1233C48.0862 37.9172 48.0171 37.7073 47.8652 37.5613L46.3203 36.0768C45.9383 35.7103 46.1483 35.0705 46.6762 34.9943L48.8127 34.6868C49.0222 34.6567 49.2034 34.5268 49.297 34.3395L50.2515 32.4316C50.4877 31.9598 51.1696 31.9598 51.4057 32.4316ZM70.7709 34.3395L69.8159 32.4316C69.5797 31.9598 68.8978 31.9598 68.6617 32.4316L67.7072 34.3395C67.6136 34.5268 67.4323 34.6567 67.2228 34.6868L65.0863 34.9943C64.5585 35.0705 64.3484 35.7103 64.7304 36.0768L66.2754 37.5613C66.4272 37.7073 66.4963 37.9172 66.4604 38.1233L66.0964 40.2191C66.006 40.7375 66.5578 41.1331 67.0296 40.8878L68.9392 39.8976C69.1269 39.8005 69.3512 39.8005 69.5384 39.8976L71.4479 40.8878C71.9197 41.1331 72.4715 40.7375 72.3817 40.2191L72.0171 38.1233C71.9812 37.9172 72.0503 37.7073 72.2022 37.5613L73.7471 36.0768C74.1291 35.7103 73.9191 35.0705 73.3912 34.9943L71.2547 34.6868C71.0452 34.6567 70.8645 34.5268 70.7709 34.3395Z" fill="url(#paint0_linear_3002_7039)"/>
<defs>
<linearGradient id="paint0_linear_3002_7039" x1="14.5" y1="15.502" x2="87.3367" y2="33.3069" gradientUnits="userSpaceOnUse">
<stop stop-color="#DB8016"/>
<stop offset="1" stop-color="#DBAC16"/>
</linearGradient>
</defs>
</svg>
