<svg width="112" height="92" viewBox="0 0 112 92" fill="none" xmlns="http://www.w3.org/2000/svg">
<path fill-rule="evenodd" clip-rule="evenodd" d="M56.843 18.8802C59.2951 18.8802 61.2826 16.8918 61.2826 14.4397C61.2826 11.9875 59.2951 10 56.843 10C54.3908 10 52.4024 11.9875 52.4024 14.4397C52.3941 16.8835 54.3687 18.872 56.8117 18.8802H56.843ZM23.6677 15.3168C23.1016 15.6437 22.3776 15.4497 22.0507 14.8836C21.7238 14.3174 21.9178 13.5934 22.484 13.2665C23.0502 12.9397 23.7741 13.1336 24.101 13.6998C24.4279 14.266 24.2339 14.99 23.6677 15.3168ZM24.5677 16.8757C23.1406 17.6996 21.3158 17.2107 20.4919 15.7836C19.6679 14.3565 20.1569 12.5316 21.584 11.7077C23.0111 10.8838 24.8359 11.3727 25.6599 12.7998C25.8433 13.1176 25.9617 13.4551 26.0191 13.7969L32.1866 15.8023L32.547 15.9195L32.715 16.2591L36.7305 24.3742C38.7517 21.9174 41.2465 19.8653 44.0753 18.3572C44.5139 18.1233 45.0591 18.2893 45.2929 18.728C45.5267 19.1666 45.3607 19.7117 44.9221 19.9455C40.0192 22.5595 36.1999 26.9388 34.3126 32.2326C34.1457 32.7008 33.6308 32.945 33.1626 32.7781C32.6944 32.6112 32.4502 32.0963 32.6171 31.6281C33.0607 30.384 33.6028 29.1869 34.2342 28.046L30.9857 27.4584C30.7353 27.9883 30.3266 28.4501 29.7806 28.7653C28.3535 29.5893 26.5287 29.1003 25.7047 27.6732C24.8808 26.2461 25.3698 24.4213 26.7969 23.5973C28.224 22.7734 30.0488 23.2624 30.8727 24.6895C31.0539 25.0032 31.1715 25.3361 31.2298 25.6734L35.2341 26.3977C35.3269 26.2575 35.4212 26.1183 35.5169 25.9802L31.2697 17.397L25.7558 15.604C25.5042 16.1192 25.1016 16.5675 24.5677 16.8757ZM27.2636 26.7732C27.5905 27.3394 28.3144 27.5334 28.8806 27.2065C29.4468 26.8796 29.6408 26.1556 29.3139 25.5895C28.987 25.0233 28.263 24.8293 27.6969 25.1562C27.1307 25.4831 26.9367 26.207 27.2636 26.7732ZM90.3787 20.1752C89.8125 20.5021 89.0885 20.3081 88.7616 19.742C88.4348 19.1758 88.6287 18.4518 89.1949 18.1249C89.7611 17.7981 90.4851 17.992 90.8119 18.5582C91.1388 19.1244 90.9448 19.8484 90.3787 20.1752ZM91.2787 21.7341C89.8516 22.558 88.0267 22.0691 87.2028 20.642C87.1338 20.5225 87.0741 20.4003 87.0233 20.2761L77.977 20.9443L74.0687 24.2012C75.8699 26.3498 77.3057 28.8154 78.2806 31.5026C78.4501 31.9699 78.2087 32.4861 77.7414 32.6556C77.2742 32.8251 76.758 32.5837 76.5885 32.1165C74.7602 27.0768 71.1776 22.8756 66.5782 20.253C66.1464 20.0068 65.9959 19.4572 66.2421 19.0254C66.4883 18.5936 67.038 18.4431 67.4698 18.6894C69.4603 19.8243 71.2745 21.2331 72.8612 22.8644L83.6426 13.8799C84.0245 13.5617 84.592 13.6133 84.9102 13.9951C85.2284 14.377 85.1768 14.9445 84.7949 15.2627L80.3536 18.9638L86.8788 18.4819C87.058 17.7028 87.548 16.9973 88.2949 16.5661C89.722 15.7422 91.5468 16.2311 92.3708 17.6582C93.1947 19.0853 92.7058 20.9101 91.2787 21.7341ZM55.6684 64.0314V74.0883C55.668 74.0981 55.6679 74.108 55.6678 74.1179C55.6678 74.1287 55.668 74.1395 55.6684 74.1503V79.5998L52.7621 83.2325C52.4516 83.6207 52.5145 84.187 52.9026 84.4976C53.2907 84.8081 53.8571 84.7451 54.1676 84.357L55.6684 82.4811V87.7667C55.6684 88.2638 56.0713 88.6667 56.5684 88.6667C57.0654 88.6667 57.4684 88.2638 57.4684 87.7667V75.7498L60.0727 77.388V81.9211C60.0727 82.4182 60.4756 82.8211 60.9727 82.8211C61.4697 82.8211 61.8727 82.4182 61.8727 81.9211L61.8727 76.8909L61.8727 76.3938L61.4519 76.1291L57.4684 73.6233V63.9511C59.1272 63.8159 60.7393 63.5136 62.2875 63.0612L62.2875 73.1464C62.2875 73.6435 62.6905 74.0464 63.1875 74.0464C63.6846 74.0464 64.0875 73.6435 64.0875 73.1464V62.5947C64.0875 62.5492 64.0841 62.5045 64.0776 62.4609C64.7049 62.2228 65.3197 61.9594 65.9209 61.672C66.3693 61.4577 66.5591 60.9203 66.3447 60.4719C66.1303 60.0234 65.593 59.8337 65.1445 60.0481C62.2162 61.4479 58.9367 62.2322 55.4714 62.2322C52.0061 62.2322 48.7266 61.4479 45.7983 60.0481C45.3498 59.8337 44.8125 60.0234 44.5981 60.4719C44.3837 60.9203 44.5735 61.4577 45.0219 61.672C46.5085 62.3827 48.0786 62.9464 49.7133 63.3444V67.5563L46.9144 71.0548C46.6039 71.4429 46.6668 72.0093 47.055 72.3198C47.4431 72.6303 48.0095 72.5674 48.32 72.1793L49.7133 70.4377V73.0839L47.0078 75.1405C46.6121 75.4413 46.5352 76.006 46.836 76.4017C47.1368 76.7974 47.7014 76.8743 48.0971 76.5735L51.158 74.2467L51.5133 73.9766V73.5302V67.9096C51.5144 67.8843 51.5144 67.859 51.5133 67.8338V63.7107C52.8016 63.9222 54.1238 64.0322 55.4714 64.0322C55.5371 64.0322 55.6028 64.0319 55.6684 64.0314ZM49.9141 24.935C49.9141 22.6724 53.1051 22.1074 56.8418 22.1074C60.5987 22.1074 63.7686 22.6935 63.7686 24.9552C63.7686 27.2169 60.5785 27.7828 56.8418 27.7828C53.0849 27.7828 49.9141 27.1976 49.9141 24.935ZM26.3516 54.5043C26.3516 52.2417 29.5426 51.6768 33.2793 51.6768C37.0362 51.6768 40.2061 52.2629 40.2061 54.5246C40.2061 56.7863 37.016 57.3522 33.2793 57.3522C29.5224 57.3522 26.3516 56.767 26.3516 54.5043ZM33.2785 48.4496C35.7307 48.4496 37.7182 46.4612 37.7182 44.009C37.7182 41.5568 35.7307 39.5693 33.2785 39.5693C30.8263 39.5693 28.8379 41.5568 28.8379 44.009C28.8296 46.4529 30.8043 48.4413 33.2472 48.4496H33.2785ZM70.7422 54.5034C70.7422 52.2407 73.9332 51.6758 77.6699 51.6758C81.4268 51.6758 84.5967 52.2619 84.5967 54.5236C84.5967 56.7853 81.4066 57.3512 77.6699 57.3512C73.913 57.3512 70.7422 56.766 70.7422 54.5034ZM77.6711 48.4486C80.1232 48.4486 82.1107 46.4602 82.1107 44.008C82.1107 41.5559 80.1232 39.5684 77.6711 39.5684C75.2189 39.5684 73.2305 41.5559 73.2305 44.008C73.2222 46.4519 75.1968 48.4403 77.6398 48.4486H77.6711Z" fill="url(#paint0_linear_3002_7049)"/>
<defs>
<linearGradient id="paint0_linear_3002_7049" x1="23.5" y1="16.5" x2="92.6881" y2="30.2008" gradientUnits="userSpaceOnUse">
<stop stop-color="#DB8016"/>
<stop offset="1" stop-color="#DBAC16"/>
</linearGradient>
</defs>
</svg>
