<svg width="112" height="75" viewBox="0 0 112 75" fill="none" xmlns="http://www.w3.org/2000/svg">
<path fill-rule="evenodd" clip-rule="evenodd" d="M79.3336 15.9565C79.3336 12.4856 76.5199 9.67188 73.049 9.67188H45.049C41.5781 9.67188 38.7644 12.4856 38.7644 15.9565V29.9565C38.7644 29.9844 38.7656 30.012 38.7681 30.0393V39.3311H12.6174C12.2272 37.9853 10.9855 37.0016 9.51397 37.0016C7.72967 37.0016 6.2832 38.448 6.2832 40.2323C6.2832 42.0166 7.72967 43.4631 9.51397 43.4631C10.9864 43.4631 12.2288 42.4781 12.6181 41.1311H22.9533L20.8314 43.2529C20.4021 43.0419 19.9192 42.9234 19.4085 42.9234C17.6242 42.9234 16.1777 44.3699 16.1777 46.1542C16.1777 47.9385 17.6242 49.385 19.4085 49.385C21.1928 49.385 22.6393 47.9385 22.6393 46.1542C22.6393 45.5355 22.4654 44.9574 22.1637 44.4662L25.4988 41.1311H38.7681V44.7052L32.2953 51.178H15.4373H15.092L14.8353 51.4091L9.64377 56.0814C9.27008 55.9304 8.8617 55.8473 8.43389 55.8473C6.64959 55.8473 5.20312 57.2937 5.20312 59.078C5.20312 60.8623 6.64959 62.3088 8.43389 62.3088C10.2182 62.3088 11.6647 60.8623 11.6647 59.078C11.6647 58.3845 11.4461 57.742 11.0742 57.2157L15.7827 52.978H24.7979L22.5451 55.6389C22.1775 55.4935 21.777 55.4137 21.3577 55.4137C19.5734 55.4137 18.127 56.8601 18.127 58.6444C18.127 60.4287 19.5734 61.8752 21.3577 61.8752C23.142 61.8752 24.5885 60.4287 24.5885 58.6444C24.5885 57.9333 24.3587 57.2759 23.9694 56.7422L27.1564 52.978H32.6681H33.0409L33.3045 52.7144L40.3045 45.7144L40.5681 45.4508V45.078V20.8473H40.5644V15.9565C40.5644 13.4797 42.5722 11.4719 45.049 11.4719H73.049C75.5258 11.4719 77.5336 13.4797 77.5336 15.9565V43.9565C77.5336 46.4333 75.5258 48.4411 73.049 48.4411H66.9734C66.774 46.8482 65.4149 45.6158 63.7679 45.6158C61.9836 45.6158 60.5371 47.0623 60.5371 48.8466C60.5371 50.6309 61.9836 52.0774 63.7679 52.0774C65.0528 52.0774 66.1625 51.3273 66.683 50.2411H73.049C76.5199 50.2411 79.3336 47.4274 79.3336 43.9565V28.7111H89.8608C90.3579 28.7111 90.7608 28.3082 90.7608 27.8111C90.7608 27.3141 90.3579 26.9111 89.8608 26.9111H79.3336V22.2639H91.1074C91.1152 22.264 91.123 22.264 91.1309 22.2639H105.897C106.394 22.2639 106.797 21.8609 106.797 21.3639C106.797 20.8668 106.394 20.4639 105.897 20.4639H93.292L96.0632 17.6926C96.4147 17.3412 96.4147 16.7713 96.0632 16.4199C95.7118 16.0684 95.1419 16.0684 94.7904 16.4199L90.7464 20.4639H79.3336V15.9565ZM9.51397 41.6631C10.3042 41.6631 10.9447 41.0225 10.9447 40.2323C10.9447 39.4421 10.3042 38.8016 9.51397 38.8016C8.72378 38.8016 8.0832 39.4421 8.0832 40.2323C8.0832 41.0225 8.72378 41.6631 9.51397 41.6631ZM20.8393 46.1542C20.8393 46.9444 20.1987 47.585 19.4085 47.585C18.6183 47.585 17.9777 46.9444 17.9777 46.1542C17.9777 45.364 18.6183 44.7234 19.4085 44.7234C20.1987 44.7234 20.8393 45.364 20.8393 46.1542ZM8.43389 60.5088C9.22409 60.5088 9.86466 59.8682 9.86466 59.078C9.86466 58.2878 9.22409 57.6473 8.43389 57.6473C7.6437 57.6473 7.00312 58.2878 7.00312 59.078C7.00312 59.8682 7.6437 60.5088 8.43389 60.5088ZM21.3577 60.0752C22.1479 60.0752 22.7885 59.4346 22.7885 58.6444C22.7885 57.8543 22.1479 57.2137 21.3577 57.2137C20.5675 57.2137 19.927 57.8543 19.927 58.6444C19.927 59.4346 20.5675 60.0752 21.3577 60.0752ZM65.1986 48.8466C65.1986 49.6368 64.5581 50.2774 63.7679 50.2774C62.9777 50.2774 62.3371 49.6368 62.3371 48.8466C62.3371 48.0564 62.9777 47.4158 63.7679 47.4158C64.5581 47.4158 65.1986 48.0564 65.1986 48.8466ZM63.8293 33.6465H53.758V26.3788H49.5564L58.8461 16.9883L67.789 26.3788H63.8293V33.6465ZM53.7573 40.376H55.5111V41.7355H53.7573V40.376ZM55.5113 34.7314H53.7576V39.0117H55.5113V34.7314ZM62.0193 40.376H63.8292V41.7355H62.0193V40.376ZM63.8292 34.7314H62.0193V39.0117H63.8292V34.7314ZM57.8599 36.9834H59.6697V43.2928H57.8599V36.9834Z" fill="url(#paint0_linear_1346_27194)"/>
<defs>
<linearGradient id="paint0_linear_1346_27194" x1="38.849" y1="11.578" x2="88.676" y2="42.4565" gradientUnits="userSpaceOnUse">
<stop stop-color="#DB8016"/>
<stop offset="1" stop-color="#DBAC16"/>
</linearGradient>
</defs>
</svg>
