<svg width="41" height="40" viewBox="0 0 41 40" fill="none" xmlns="http://www.w3.org/2000/svg">
<path fill-rule="evenodd" clip-rule="evenodd" d="M10.3397 3.90039C6.97081 3.90039 4.23975 6.63145 4.23975 10.0004V14.9997V30.0004C4.23975 33.3693 6.97081 36.1004 10.3397 36.1004H17.0064C17.6139 36.1004 18.1064 35.6079 18.1064 35.0004C18.1064 34.3929 17.6139 33.9004 17.0064 33.9004H10.3397C8.18584 33.9004 6.43975 32.1543 6.43975 30.0004V16.0997H34.2397V18.3337C34.2397 18.9412 34.7322 19.4337 35.3397 19.4337C35.9473 19.4337 36.4397 18.9412 36.4397 18.3337V14.9997V10.0004C36.4397 6.63145 33.7087 3.90039 30.3397 3.90039H10.3397ZM23.1058 26.2504C23.1058 24.7868 24.2922 23.6004 25.7558 23.6004H31.5891C33.0526 23.6004 34.2391 24.7868 34.2391 26.2504V28.581C34.2391 31.5419 32.1509 34.0917 29.2489 34.6758L29.2411 34.6773C28.8657 34.7525 28.4791 34.7525 28.1036 34.6774C25.1976 34.0962 23.1058 31.5446 23.1058 28.581V26.2504ZM20.9058 28.581C20.9058 32.5933 23.7378 36.0478 27.6722 36.8347C28.3294 36.9661 29.0061 36.9667 29.6635 36.8364L29.6728 36.8346C33.6071 36.0477 36.4391 32.5932 36.4391 28.581V26.2504C36.4391 23.5718 34.2677 21.4004 31.5891 21.4004H25.7558C23.0772 21.4004 20.9058 23.5718 20.9058 26.2504V28.581ZM31.5342 28.2782C31.9638 27.8486 31.9638 27.1521 31.5342 26.7226C31.1047 26.293 30.4082 26.293 29.9786 26.7226L28.2564 28.4448L27.3676 27.5559C26.938 27.1263 26.2415 27.1263 25.8119 27.5559C25.3824 27.9855 25.3824 28.682 25.8119 29.1115L27.4786 30.7782C27.9082 31.2078 28.6047 31.2078 29.0342 30.7782L31.5342 28.2782ZM9.56147 9.21281C9.99105 8.78323 10.6875 8.78323 11.1171 9.21281L11.1254 9.22114C11.555 9.65072 11.555 10.3472 11.1254 10.7768L11.1171 10.7851C10.6875 11.2147 9.99105 11.2147 9.56147 10.7851L9.55314 10.7768C9.12356 10.3472 9.12356 9.65072 9.55314 9.22114L9.56147 9.21281ZM15.2851 9.21281C14.8555 8.78323 14.159 8.78323 13.7294 9.21281L13.7211 9.22114C13.2915 9.65072 13.2915 10.3472 13.7211 10.7768L13.7294 10.7851C14.159 11.2147 14.8555 11.2147 15.2851 10.7851L15.2934 10.7768C15.723 10.3472 15.723 9.65072 15.2934 9.22114L15.2851 9.21281ZM19.4511 9.21281C19.0215 8.78323 18.325 8.78323 17.8955 9.21281L17.8871 9.22114C17.4575 9.65072 17.4575 10.3472 17.8871 10.7768L17.8955 10.7851C18.325 11.2147 19.0215 11.2147 19.4511 10.7851L19.4594 10.7768C19.889 10.3472 19.889 9.65072 19.4594 9.22114L19.4511 9.21281Z" fill="url(#paint0_linear_3001_5983)"/>
<defs>
<linearGradient id="paint0_linear_3001_5983" x1="5.66992" y1="6.50049" x2="40.8631" y2="16.2856" gradientUnits="userSpaceOnUse">
<stop stop-color="#DB8016"/>
<stop offset="1" stop-color="#DBAC16"/>
</linearGradient>
</defs>
</svg>
