<svg width="112" height="94" viewBox="0 0 112 94" fill="none" xmlns="http://www.w3.org/2000/svg">
<path fill-rule="evenodd" clip-rule="evenodd" d="M17.7167 6.09533C17.1506 6.42221 16.4266 6.22822 16.0997 5.66205C15.7728 5.09587 15.9668 4.37191 16.533 4.04503C17.0992 3.71815 17.8231 3.91213 18.15 4.47831C18.4769 5.04448 18.2829 5.76845 17.7167 6.09533ZM18.6167 7.65417C17.1896 8.47811 15.3648 7.98915 14.5409 6.56205C13.7169 5.13495 14.2059 3.31012 15.633 2.48618C17.0601 1.66224 18.8849 2.1512 19.7089 3.57831C19.8923 3.89608 20.0107 4.23358 20.0681 4.57535L26.2357 6.58082L26.596 6.69799L26.764 7.03757L30.7152 15.0227C36.6767 7.85898 45.66 3.29883 55.7083 3.29883C64.4203 3.29883 72.3316 6.72673 78.1672 12.3073L88.727 3.50745C89.1089 3.18924 89.6764 3.24083 89.9946 3.62268C90.3128 4.00453 90.2612 4.57204 89.8793 4.89025L85.438 8.59141L91.9632 8.10944C92.1424 7.33034 92.6324 6.62491 93.3793 6.19366C94.8064 5.36972 96.6312 5.85868 97.4552 7.28579C98.2791 8.71289 97.7902 10.5377 96.3631 11.3617C94.936 12.1856 93.1111 11.6966 92.2872 10.2695C92.2182 10.1501 92.1585 10.0279 92.1077 9.90367L83.0614 10.5719L79.4378 13.5915C84.8777 19.4019 88.2083 27.2115 88.2083 35.7989C88.2083 50.6494 78.248 63.1735 64.6434 67.0553V77.4455C64.6434 77.9425 64.2404 78.3455 63.7434 78.3455C63.2463 78.3455 62.8434 77.9425 62.8434 77.4455L62.8434 67.5133C61.7975 67.7476 60.7326 67.9314 59.6513 68.0622C59.1144 68.1426 58.5719 68.2055 58.0242 68.2502V77.9223L62.0077 80.4281L62.4285 80.6928V81.19V86.2202C62.4285 86.7173 62.0256 87.1202 61.5285 87.1202C61.0315 87.1202 60.6285 86.7173 60.6285 86.2202V81.6871L58.0242 80.0488V92.0658C58.0242 92.5629 57.6213 92.9658 57.1242 92.9658C56.6272 92.9658 56.2242 92.5629 56.2242 92.0658V86.7802L54.7235 88.6561C54.413 89.0442 53.8466 89.1072 53.4585 88.7966C53.0703 88.4861 53.0074 87.9198 53.3179 87.5316L56.2242 83.8989V78.4493C56.2239 78.4385 56.2237 78.4277 56.2237 78.4169L56.2239 78.4004L56.2242 78.3873V68.3304L56.1061 68.3311L56.0273 68.3312C55.4269 68.3312 54.8315 68.3094 54.242 68.2665C53.5112 68.234 52.7866 68.1775 52.0691 68.0975V72.1328C52.0696 72.1434 52.0699 72.154 52.0699 72.1646C52.07 72.1793 52.0698 72.194 52.0691 72.2086V77.8293V78.2756L51.7138 78.5458L48.653 80.8726C48.2573 81.1734 47.6926 81.0965 47.3918 80.7007C47.091 80.305 47.1679 79.7404 47.5637 79.4396L50.2691 77.3829V74.7367L48.8758 76.4783C48.5653 76.8665 47.9989 76.9294 47.6108 76.6189C47.2227 76.3084 47.1598 75.742 47.4703 75.3539L50.2691 71.8554V67.8458C34.9092 65.2578 23.2083 51.8948 23.2083 35.7989C23.2083 30.9335 24.2774 26.3177 26.1936 22.1738C26.2071 22.1199 26.223 22.0672 26.241 22.0167C26.384 21.6155 26.5815 21.2598 26.8046 20.9237C27.1823 20.1913 27.587 19.4751 28.0174 18.7764L25.0347 18.2369C24.7843 18.7668 24.3756 19.2286 23.8296 19.5438C22.4025 20.3678 20.5777 19.8788 19.7538 18.4517C18.9298 17.0246 19.4188 15.1998 20.8459 14.3758C22.273 13.5519 24.0978 14.0409 24.9218 15.468C25.1029 15.7817 25.2205 16.1146 25.2788 16.4518L29.0935 17.1419C29.2223 16.9585 29.3529 16.7765 29.4853 16.596L25.3187 8.17544L19.8049 6.38251C19.5532 6.89766 19.1506 7.34595 18.6167 7.65417ZM21.3126 17.5517C21.6395 18.1179 22.3635 18.3119 22.9296 17.985C23.4958 17.6581 23.6898 16.9341 23.3629 16.368C23.036 15.8018 22.3121 15.6078 21.7459 15.9347C21.1797 16.2616 20.9857 16.9855 21.3126 17.5517ZM86.4083 35.7989C86.4083 52.7541 72.6634 66.499 55.7083 66.499C38.7531 66.499 25.0083 52.7541 25.0083 35.7989C25.0083 18.8437 38.7531 5.09883 55.7083 5.09883C72.6634 5.09883 86.4083 18.8437 86.4083 35.7989ZM93.846 9.36953C94.1729 9.93571 94.8969 10.1297 95.4631 9.80281C96.0292 9.47593 96.2232 8.75196 95.8963 8.18579C95.5695 7.61961 94.8455 7.42562 94.2793 7.75251C93.7131 8.07939 93.5191 8.80336 93.846 9.36953ZM55.7083 58.499C68.2451 58.499 78.4083 48.3358 78.4083 35.7989C78.4083 23.262 68.2451 13.0989 55.7083 13.0989C43.1714 13.0989 33.0083 23.262 33.0083 35.7989C33.0083 48.3358 43.1714 58.499 55.7083 58.499ZM55.7083 60.299C69.2392 60.299 80.2083 49.3299 80.2083 35.7989C80.2083 22.2679 69.2392 11.2988 55.7083 11.2988C42.1773 11.2988 31.2083 22.2679 31.2083 35.7989C31.2083 49.3299 42.1773 60.299 55.7083 60.299ZM56.4767 23.3036L58.1081 26.5626C58.268 26.8825 58.5766 27.1044 58.9344 27.1557L62.5838 27.681C63.4854 27.8112 63.8442 28.904 63.1917 29.5301L60.5527 32.0658C60.2934 32.3152 60.1754 32.6736 60.2367 33.0256L60.8595 36.6055C61.0129 37.4911 60.0703 38.1667 59.2644 37.7478L56.0027 36.0564C55.6829 35.8905 55.3 35.8905 54.9793 36.0564L51.7175 37.7478C50.9116 38.1667 49.9691 37.4911 50.1234 36.6055L50.7452 33.0256C50.8066 32.6736 50.6885 32.3152 50.4292 32.0658L47.7903 29.5301C47.1377 28.904 47.4965 27.8112 48.3982 27.681L52.0475 27.1557C52.4054 27.1044 52.7149 26.8825 52.8748 26.5626L54.5052 23.3036C54.9086 22.4978 56.0733 22.4978 56.4767 23.3036ZM47.985 40.151L47.0237 38.2305C46.7859 37.7556 46.0996 37.7556 45.8619 38.2305L44.9011 40.151C44.8069 40.3395 44.6245 40.4703 44.4136 40.5005L42.2631 40.8101C41.7317 40.8868 41.5203 41.5307 41.9048 41.8997L43.4599 43.394C43.6128 43.5409 43.6823 43.7521 43.6462 43.9596L43.2797 46.0691C43.1888 46.591 43.7442 46.9892 44.2191 46.7423L46.1412 45.7456C46.3302 45.6478 46.5559 45.6478 46.7443 45.7456L48.6664 46.7423C49.1413 46.9892 49.6967 46.591 49.6063 46.0691L49.2393 43.9596C49.2032 43.7521 49.2728 43.5409 49.4256 43.394L50.9807 41.8997C51.3652 41.5307 51.1538 40.8868 50.6224 40.8101L48.4719 40.5005C48.261 40.4703 48.0792 40.3395 47.985 40.151ZM65.5547 38.2305L66.516 40.151C66.6102 40.3395 66.7921 40.4703 67.0029 40.5005L69.1535 40.8101C69.6848 40.8868 69.8962 41.5307 69.5117 41.8997L67.9566 43.394C67.8038 43.5409 67.7342 43.7521 67.7704 43.9596L68.1374 46.0691C68.2277 46.591 67.6723 46.9892 67.1974 46.7423L65.2753 45.7456C65.0869 45.6478 64.8612 45.6478 64.6722 45.7456L62.7501 46.7423C62.2752 46.9892 61.7198 46.591 61.8107 46.0691L62.1772 43.9596C62.2133 43.7521 62.1438 43.5409 61.9909 43.394L60.4358 41.8997C60.0513 41.5307 60.2627 40.8868 60.7941 40.8101L62.9446 40.5005C63.1555 40.4703 63.3379 40.3395 63.4321 40.151L64.3929 38.2305C64.6306 37.7556 65.3169 37.7556 65.5547 38.2305Z" fill="url(#paint0_linear_1346_27178)"/>
<defs>
<linearGradient id="paint0_linear_1346_27178" x1="17.549" y1="7.27734" x2="86.7371" y2="20.9781" gradientUnits="userSpaceOnUse">
<stop stop-color="#DB8016"/>
<stop offset="1" stop-color="#DBAC16"/>
</linearGradient>
</defs>
</svg>
