<svg width="406" height="393" viewBox="0 0 406 393" fill="none" xmlns="http://www.w3.org/2000/svg">
<rect width="405.33" height="393" rx="12" fill="#DBAC16"/>
<circle opacity="0.23" cx="90" cy="265" r="60" fill="white"/>
<circle opacity="0.23" cx="90" cy="265" r="59.5" stroke="white"/>
<circle cx="90" cy="265" r="36" fill="white"/>
<path d="M101.922 256V274.35H98.5469V256H101.922Z" fill="black"/>
<path d="M82.516 274.35H79L85.5829 256H90.4463L96.9394 274.35H93.3464L91.9027 270.032H83.9853L82.516 274.35ZM84.9605 267.158H90.9403L87.9697 258.291L84.9605 267.158Z" fill="black"/>
<circle opacity="0.23" cx="316" cy="265" r="60" fill="white"/>
<circle cx="316" cy="265" r="36" fill="white"/>
<path d="M322.296 269.309L316.297 272.155V251.253L322.296 248.406V269.309Z" fill="black"/>
<path d="M316.366 277.344L310.367 280.19V274.944L316.366 272.098V277.344Z" fill="#22533D"/>
<path d="M312.145 265.129L308.281 267.976V262.019L312.145 259.172V265.129Z" fill="black"/>
<path d="M316.307 265.509L316.3 272.149L308.266 268.679L308.272 262.039L316.307 265.509Z" fill="#212121"/>
<path d="M137.5 194.03L143.179 192.988L139.436 188.591L137.5 194.03ZM260.5 194.03L258.564 188.591L254.821 192.988L260.5 194.03ZM139.891 338.983L142.004 344.356L145.601 339.84L139.891 338.983ZM258.109 338.983L252.399 339.84L255.996 344.356L258.109 338.983ZM142.681 190.459C143.788 189.618 144.914 188.801 146.058 188.01L145.489 187.187C144.333 187.987 143.195 188.813 142.076 189.662L142.681 190.459ZM149.541 185.713C150.717 184.975 151.911 184.261 153.122 183.575L152.629 182.705C151.405 183.399 150.198 184.12 149.009 184.866L149.541 185.713ZM156.795 181.598C158.032 180.968 159.285 180.365 160.553 179.789L160.14 178.878C158.858 179.46 157.592 180.07 156.341 180.707L156.795 181.598ZM164.389 178.15C165.677 177.634 166.979 177.146 168.295 176.686L167.965 175.742C166.635 176.207 165.319 176.7 164.017 177.222L164.389 178.15ZM172.262 175.399C173.591 175.002 174.932 174.633 176.284 174.293L176.041 173.323C174.674 173.666 173.318 174.039 171.975 174.442L172.262 175.399ZM180.352 173.37C181.709 173.093 183.078 172.847 184.457 172.63L184.302 171.642C182.908 171.861 181.525 172.111 180.152 172.39L180.352 173.37ZM188.591 172.076C189.967 171.923 191.352 171.799 192.746 171.707L192.68 170.709C191.271 170.803 189.871 170.927 188.48 171.082L188.591 172.076ZM196.914 171.523C197.607 171.508 198.303 171.5 199 171.5V170.5C198.295 170.5 197.593 170.508 196.892 170.523L196.914 171.523ZM199 171.5C199.697 171.5 200.393 171.508 201.086 171.523L201.108 170.523C200.407 170.508 199.705 170.5 199 170.5V171.5ZM205.254 171.707C206.648 171.799 208.033 171.923 209.409 172.076L209.52 171.082C208.129 170.927 206.729 170.803 205.32 170.709L205.254 171.707ZM213.543 172.63C214.922 172.847 216.291 173.093 217.648 173.37L217.848 172.39C216.475 172.111 215.092 171.861 213.698 171.642L213.543 172.63ZM221.716 174.293C223.068 174.633 224.409 175.002 225.738 175.399L226.025 174.442C224.682 174.039 223.326 173.666 221.959 173.323L221.716 174.293ZM229.705 176.686C231.021 177.146 232.323 177.634 233.611 178.15L233.983 177.222C232.681 176.7 231.365 176.207 230.035 175.742L229.705 176.686ZM237.447 179.789C238.715 180.365 239.968 180.968 241.205 181.598L241.659 180.707C240.408 180.07 239.142 179.46 237.86 178.878L237.447 179.789ZM244.878 183.575C246.089 184.261 247.283 184.975 248.459 185.713L248.991 184.866C247.802 184.12 246.595 183.399 245.371 182.705L244.878 183.575ZM251.942 188.01C253.086 188.801 254.212 189.618 255.319 190.459L255.924 189.662C254.805 188.813 253.667 187.987 252.511 187.187L251.942 188.01ZM144.37 343.026C145.46 343.804 146.567 344.559 147.691 345.291L148.236 344.453C147.125 343.729 146.029 342.982 144.95 342.212L144.37 343.026ZM151.105 347.412C152.257 348.094 153.424 348.752 154.606 349.386L155.079 348.505C153.909 347.878 152.754 347.226 151.614 346.552L151.105 347.412ZM158.189 351.209C159.394 351.79 160.614 352.346 161.847 352.876L162.242 351.958C161.022 351.433 159.816 350.883 158.623 350.308L158.189 351.209ZM165.572 354.385C166.822 354.861 168.085 355.31 169.359 355.733L169.674 354.784C168.413 354.365 167.164 353.921 165.928 353.451L165.572 354.385ZM173.201 356.916C174.487 357.282 175.783 357.622 177.09 357.933L177.322 356.961C176.029 356.652 174.747 356.317 173.475 355.955L173.201 356.916ZM181.019 358.782C182.33 359.036 183.651 359.263 184.981 359.462L185.129 358.473C183.813 358.276 182.507 358.052 181.209 357.801L181.019 358.782ZM188.969 359.971C190.296 360.112 191.631 360.225 192.974 360.31L193.037 359.312C191.708 359.228 190.387 359.116 189.074 358.977L188.969 359.971ZM196.99 360.479C197.658 360.493 198.328 360.5 199 360.5V359.5C198.335 359.5 197.672 359.493 197.011 359.479L196.99 360.479ZM199 360.5C199.672 360.5 200.342 360.493 201.01 360.479L200.989 359.479C200.328 359.493 199.665 359.5 199 359.5V360.5ZM205.026 360.31C206.369 360.225 207.704 360.112 209.031 359.971L208.926 358.977C207.613 359.116 206.292 359.228 204.963 359.312L205.026 360.31ZM213.019 359.462C214.349 359.263 215.67 359.036 216.981 358.782L216.791 357.801C215.493 358.052 214.187 358.276 212.871 358.473L213.019 359.462ZM220.91 357.933C222.217 357.622 223.513 357.282 224.799 356.916L224.525 355.955C223.253 356.317 221.971 356.652 220.678 356.961L220.91 357.933ZM228.641 355.733C229.915 355.31 231.178 354.861 232.428 354.385L232.072 353.451C230.836 353.921 229.587 354.365 228.326 354.784L228.641 355.733ZM236.153 352.876C237.386 352.346 238.606 351.79 239.811 351.209L239.377 350.308C238.184 350.883 236.978 351.433 235.758 351.958L236.153 352.876ZM243.394 349.386C244.576 348.752 245.743 348.094 246.895 347.412L246.386 346.552C245.246 347.226 244.091 347.878 242.921 348.505L243.394 349.386ZM250.309 345.291C251.433 344.559 252.54 343.804 253.63 343.026L253.05 342.212C251.971 342.982 250.875 343.729 249.764 344.453L250.309 345.291ZM137.5 194.03L143.179 192.988L139.436 188.591L137.5 194.03ZM260.5 194.03L258.564 188.591L254.821 192.988L260.5 194.03ZM139.891 338.983L142.004 344.356L145.601 339.84L139.891 338.983ZM258.109 338.983L252.399 339.84L255.996 344.356L258.109 338.983ZM142.681 190.459C143.788 189.618 144.914 188.801 146.058 188.01L145.489 187.187C144.333 187.987 143.195 188.813 142.076 189.662L142.681 190.459ZM149.541 185.713C150.717 184.975 151.911 184.261 153.122 183.575L152.629 182.705C151.405 183.399 150.198 184.12 149.009 184.866L149.541 185.713ZM156.795 181.598C158.032 180.968 159.285 180.365 160.553 179.789L160.14 178.878C158.858 179.46 157.592 180.07 156.341 180.707L156.795 181.598ZM164.389 178.15C165.677 177.634 166.979 177.146 168.295 176.686L167.965 175.742C166.635 176.207 165.319 176.7 164.017 177.222L164.389 178.15ZM172.262 175.399C173.591 175.002 174.932 174.633 176.284 174.293L176.041 173.323C174.674 173.666 173.318 174.039 171.975 174.442L172.262 175.399ZM180.352 173.37C181.709 173.093 183.078 172.847 184.457 172.63L184.302 171.642C182.908 171.861 181.525 172.111 180.152 172.39L180.352 173.37ZM188.591 172.076C189.967 171.923 191.352 171.799 192.746 171.707L192.68 170.709C191.271 170.803 189.871 170.927 188.48 171.082L188.591 172.076ZM196.914 171.523C197.607 171.508 198.303 171.5 199 171.5V170.5C198.295 170.5 197.593 170.508 196.892 170.523L196.914 171.523ZM199 171.5C199.697 171.5 200.393 171.508 201.086 171.523L201.108 170.523C200.407 170.508 199.705 170.5 199 170.5V171.5ZM205.254 171.707C206.648 171.799 208.033 171.923 209.409 172.076L209.52 171.082C208.129 170.927 206.729 170.803 205.32 170.709L205.254 171.707ZM213.543 172.63C214.922 172.847 216.291 173.093 217.648 173.37L217.848 172.39C216.475 172.111 215.092 171.861 213.698 171.642L213.543 172.63ZM221.716 174.293C223.068 174.633 224.409 175.002 225.738 175.399L226.025 174.442C224.682 174.039 223.326 173.666 221.959 173.323L221.716 174.293ZM229.705 176.686C231.021 177.146 232.323 177.634 233.611 178.15L233.983 177.222C232.681 176.7 231.365 176.207 230.035 175.742L229.705 176.686ZM237.447 179.789C238.715 180.365 239.968 180.968 241.205 181.598L241.659 180.707C240.408 180.07 239.142 179.46 237.86 178.878L237.447 179.789ZM244.878 183.575C246.089 184.261 247.283 184.975 248.459 185.713L248.991 184.866C247.802 184.12 246.595 183.399 245.371 182.705L244.878 183.575ZM251.942 188.01C253.086 188.801 254.212 189.618 255.319 190.459L255.924 189.662C254.805 188.813 253.667 187.987 252.511 187.187L251.942 188.01ZM144.37 343.026C145.46 343.804 146.567 344.559 147.691 345.291L148.236 344.453C147.125 343.729 146.029 342.982 144.95 342.212L144.37 343.026ZM151.105 347.412C152.257 348.094 153.424 348.752 154.606 349.386L155.079 348.505C153.909 347.878 152.754 347.226 151.614 346.552L151.105 347.412ZM158.189 351.209C159.394 351.79 160.614 352.346 161.847 352.876L162.242 351.958C161.022 351.433 159.816 350.883 158.623 350.308L158.189 351.209ZM165.572 354.385C166.822 354.861 168.085 355.31 169.359 355.733L169.674 354.784C168.413 354.365 167.164 353.921 165.928 353.451L165.572 354.385ZM173.201 356.916C174.487 357.282 175.783 357.622 177.09 357.933L177.322 356.961C176.029 356.652 174.747 356.317 173.475 355.955L173.201 356.916ZM181.019 358.782C182.33 359.036 183.651 359.263 184.981 359.462L185.129 358.473C183.813 358.276 182.507 358.052 181.209 357.801L181.019 358.782ZM188.969 359.971C190.296 360.112 191.631 360.225 192.974 360.31L193.037 359.312C191.708 359.228 190.387 359.116 189.074 358.977L188.969 359.971ZM196.99 360.479C197.658 360.493 198.328 360.5 199 360.5V359.5C198.335 359.5 197.672 359.493 197.011 359.479L196.99 360.479ZM199 360.5C199.672 360.5 200.342 360.493 201.01 360.479L200.989 359.479C200.328 359.493 199.665 359.5 199 359.5V360.5ZM205.026 360.31C206.369 360.225 207.704 360.112 209.031 359.971L208.926 358.977C207.613 359.116 206.292 359.228 204.963 359.312L205.026 360.31ZM213.019 359.462C214.349 359.263 215.67 359.036 216.981 358.782L216.791 357.801C215.493 358.052 214.187 358.276 212.871 358.473L213.019 359.462ZM220.91 357.933C222.217 357.622 223.513 357.282 224.799 356.916L224.525 355.955C223.253 356.317 221.971 356.652 220.678 356.961L220.91 357.933ZM228.641 355.733C229.915 355.31 231.178 354.861 232.428 354.385L232.072 353.451C230.836 353.921 229.587 354.365 228.326 354.784L228.641 355.733ZM236.153 352.876C237.386 352.346 238.606 351.79 239.811 351.209L239.377 350.308C238.184 350.883 236.978 351.433 235.758 351.958L236.153 352.876ZM243.394 349.386C244.576 348.752 245.743 348.094 246.895 347.412L246.386 346.552C245.246 347.226 244.091 347.878 242.921 348.505L243.394 349.386ZM250.309 345.291C251.433 344.559 252.54 343.804 253.63 343.026L253.05 342.212C251.971 342.982 250.875 343.729 249.764 344.453L250.309 345.291Z" fill="#F8EBC0"/>
</svg>
