<svg width="406" height="393" viewBox="0 0 406 393" fill="none" xmlns="http://www.w3.org/2000/svg">
<rect width="405.33" height="393" rx="12" fill="url(#paint0_linear_0_69)"/>
<path opacity="0.1" d="M40 159.5V266.5H26V369" stroke="#BDD4D0"/>
<path opacity="0.1" d="M363 111V218H377V320.5" stroke="#BDD4D0"/>
<rect x="49" y="133" width="206" height="210" rx="6" fill="url(#paint1_linear_0_69)"/>
<circle cx="240" cy="140" r="25" fill="white"/>
<path d="M231.758 138.501V131.949H235.23M248.234 137.001V131.949H241.783" stroke="#130F26" stroke-width="1.5" stroke-linecap="round" stroke-linejoin="round"/>
<path d="M229.375 145.383L231.758 143L234.141 145.383" stroke="#130F26" stroke-width="1.5" stroke-linecap="round" stroke-linejoin="round"/>
<path d="M250.618 136L248.235 138.383L245.852 136" stroke="#130F26" stroke-width="1.5" stroke-linecap="round" stroke-linejoin="round"/>
<path d="M231.758 143.501V148.891H238.209M248.234 141.501V148.891H244.762" stroke="#130F26" stroke-width="1.5" stroke-linecap="round" stroke-linejoin="round"/>
<rect x="235.484" y="128.086" width="5.95745" height="5.95745" stroke="#130F26" stroke-width="1.5" stroke-linecap="round" stroke-linejoin="round"/>
<rect x="238.461" y="145.957" width="5.95745" height="5.95745" stroke="#130F26" stroke-width="1.5" stroke-linecap="round" stroke-linejoin="round"/>
<rect x="271" y="138" width="56" height="53" rx="6" fill="url(#paint2_linear_0_69)"/>
<path d="M285.667 173.138C283 174.352 280.111 173.644 279 173.138V183H319V161C317.889 161 315 161.91 312.333 165.552C309 170.103 308.167 170.104 299.833 167.828C291.5 165.552 289 171.621 285.667 173.138Z" fill="url(#paint3_linear_0_69)"/>
<path d="M352 143V170L356.706 166.4H382V143H352Z" fill="#DBAC16"/>
<path d="M57.5 223V245.5L53.5 242.5H32V223H57.5Z" fill="#DBAC16"/>
<rect x="271" y="208" width="87" height="61" rx="6" fill="url(#paint4_linear_0_69)"/>
<rect x="281" y="218" width="50" height="4" rx="2" fill="white" fill-opacity="0.6"/>
<rect x="281" y="230" width="34" height="3" rx="1.5" fill="white" fill-opacity="0.6"/>
<rect x="69" y="153" width="105" height="5" rx="2.5" fill="white" fill-opacity="0.6"/>
<rect x="185" y="241" width="53" height="3" rx="1.5" fill="white" fill-opacity="0.6"/>
<rect x="185" y="248" width="40" height="3" rx="1.5" fill="white" fill-opacity="0.6"/>
<rect x="185" y="255" width="40" height="3" rx="1.5" fill="white" fill-opacity="0.6"/>
<rect x="69" y="165" width="71" height="4" rx="2" fill="white" fill-opacity="0.6"/>
<circle cx="121.5" cy="249.5" r="47" stroke="#BDD4D0" stroke-width="11"/>
<path d="M174 249.5C174 256.394 172.642 263.221 170.004 269.591C167.365 275.96 163.498 281.748 158.623 286.623C153.748 291.498 147.96 295.365 141.591 298.004C135.221 300.642 128.394 302 121.5 302L121.5 291.107C126.964 291.107 132.374 290.031 137.422 287.94C142.47 285.849 147.057 282.784 150.921 278.921C154.784 275.057 157.849 270.47 159.94 265.422C162.031 260.374 163.107 254.964 163.107 249.5H174Z" fill="#185047"/>
<defs>
<linearGradient id="paint0_linear_0_69" x1="202.665" y1="0" x2="202.665" y2="393" gradientUnits="userSpaceOnUse">
<stop stop-color="#35635B"/>
<stop offset="1" stop-color="#35635B"/>
</linearGradient>
<linearGradient id="paint1_linear_0_69" x1="152" y1="133" x2="152" y2="343" gradientUnits="userSpaceOnUse">
<stop stop-color="#5F988F"/>
<stop offset="1" stop-color="#3A6F66"/>
</linearGradient>
<linearGradient id="paint2_linear_0_69" x1="299" y1="138" x2="299" y2="191" gradientUnits="userSpaceOnUse">
<stop stop-color="#5F988F"/>
<stop offset="1" stop-color="#3A6F66"/>
</linearGradient>
<linearGradient id="paint3_linear_0_69" x1="287.235" y1="138.56" x2="287.235" y2="183" gradientUnits="userSpaceOnUse">
<stop stop-color="#BDD4D0"/>
<stop offset="1" stop-color="#BDD4D0" stop-opacity="0"/>
</linearGradient>
<linearGradient id="paint4_linear_0_69" x1="314.5" y1="208" x2="314.5" y2="269" gradientUnits="userSpaceOnUse">
<stop stop-color="#5F988F"/>
<stop offset="1" stop-color="#3A6F66"/>
</linearGradient>
</defs>
</svg>
