<svg width="406" height="393" viewBox="0 0 406 393" fill="none" xmlns="http://www.w3.org/2000/svg">
<rect width="405.33" height="393" rx="12" fill="url(#paint0_linear_0_107)"/>
<g clip-path="url(#clip0_0_107)">
<circle cx="313.344" cy="195" r="16" fill="white"/>
<path fill-rule="evenodd" clip-rule="evenodd" d="M319.217 192.083L318.802 191.363C318.451 190.754 317.673 190.544 317.063 190.893V190.893C316.772 191.064 316.426 191.113 316.099 191.028C315.773 190.943 315.494 190.732 315.323 190.442C315.214 190.257 315.155 190.046 315.153 189.832V189.832C315.162 189.487 315.032 189.153 314.792 188.906C314.552 188.659 314.222 188.519 313.877 188.52H313.041C312.704 188.52 312.38 188.654 312.142 188.893C311.903 189.133 311.77 189.457 311.772 189.795V189.795C311.762 190.492 311.194 191.052 310.497 191.052C310.282 191.05 310.071 190.991 309.886 190.881V190.881C309.276 190.531 308.498 190.742 308.147 191.351L307.702 192.083C307.351 192.692 307.558 193.469 308.166 193.822V193.822C308.56 194.05 308.803 194.471 308.803 194.927C308.803 195.382 308.56 195.804 308.166 196.031V196.031C307.559 196.382 307.352 197.158 307.702 197.764V197.764L308.123 198.491C308.287 198.787 308.563 199.006 308.89 199.099C309.216 199.192 309.566 199.151 309.862 198.985V198.985C310.153 198.815 310.5 198.769 310.825 198.856C311.151 198.943 311.428 199.156 311.595 199.449C311.705 199.633 311.764 199.844 311.766 200.059V200.059C311.766 200.763 312.337 201.334 313.041 201.334H313.877C314.579 201.334 315.149 200.767 315.153 200.065V200.065C315.151 199.726 315.285 199.401 315.524 199.161C315.764 198.922 316.089 198.788 316.428 198.79C316.642 198.795 316.852 198.854 317.038 198.96V198.96C317.647 199.311 318.424 199.104 318.777 198.497V198.497L319.217 197.764C319.387 197.472 319.433 197.125 319.346 196.798C319.259 196.472 319.046 196.194 318.753 196.025V196.025C318.46 195.857 318.246 195.579 318.159 195.252C318.072 194.926 318.119 194.578 318.289 194.286C318.4 194.093 318.56 193.933 318.753 193.822V193.822C319.356 193.469 319.563 192.696 319.217 192.089V192.089V192.083Z" stroke="#130F26" stroke-width="1.5" stroke-linecap="round" stroke-linejoin="round"/>
<circle cx="313.461" cy="194.925" r="1.75744" stroke="#130F26" stroke-width="1.5" stroke-linecap="round" stroke-linejoin="round"/>
<circle opacity="0.13" cx="257.344" cy="322" r="60" fill="#DBAC16"/>
<circle cx="257.344" cy="322" r="32" fill="#DBAC16"/>
<path d="M263.149 326.475L257.961 328.937V310.86L263.149 308.398V326.475Z" fill="white"/>
<path d="M258.024 333.427L252.836 335.889V331.353L258.024 328.891V333.427Z" fill="white"/>
<path d="M254.372 322.859L251.031 325.321V320.169L254.372 317.707V322.859Z" fill="white"/>
<path d="M257.97 323.188L257.964 328.931L251.016 325.93L251.021 320.188L257.97 323.188Z" fill="white"/>
<g opacity="0.4">
<circle cx="257.344" cy="322" r="96.5" stroke="#DBAC16"/>
<circle cx="257.344" cy="322" r="137.5" stroke="#DBAC16" stroke-opacity="0.6"/>
<circle cx="257.344" cy="322" r="170.5" stroke="#DBAC16" stroke-opacity="0.3"/>
<circle cx="221.344" cy="233" r="4" fill="#DBAC16"/>
<circle cx="369.344" cy="241" r="4" fill="#DBAC16"/>
<circle cx="120.344" cy="306" r="4" fill="#DBAC16"/>
</g>
</g>
<circle cx="176.344" cy="173" r="16" fill="white"/>
<path d="M170.28 172.999C170.28 169.654 173.002 166.932 176.346 166.932C179.691 166.932 182.413 169.654 182.413 172.999C182.413 176.343 179.691 179.065 176.346 179.065H170.28V172.999Z" stroke="#130F26" stroke-width="1.2" stroke-linecap="round" stroke-linejoin="round"/>
<path d="M176.766 174.665H173.432C173.202 174.665 173.016 174.479 173.016 174.249C173.016 174.019 173.202 173.832 173.432 173.832H176.766C176.996 173.832 177.182 174.019 177.182 174.249C177.182 174.479 176.996 174.665 176.766 174.665ZM179.266 172.165H173.432C173.202 172.165 173.016 171.979 173.016 171.749C173.016 171.519 173.202 171.332 173.432 171.332H179.266C179.496 171.332 179.682 171.519 179.682 171.749C179.682 171.979 179.496 172.165 179.266 172.165Z" fill="#130F26"/>
<circle cx="123.344" cy="349" r="18" fill="white"/>
<circle cx="123.344" cy="349" r="7.25" stroke="#130F26" stroke-width="1.5" stroke-linecap="round" stroke-linejoin="round"/>
<path d="M120.344 349L122.344 351L126.344 347" stroke="#130F26" stroke-width="1.5" stroke-linecap="round" stroke-linejoin="round"/>
<circle cx="102.344" cy="247" r="22" fill="white"/>
<path d="M107.258 244.375L103.555 247.386C102.855 247.941 101.871 247.941 101.171 247.386L97.4375 244.375" stroke="#1A1A1A" stroke-width="1.5" stroke-linecap="round" stroke-linejoin="round"/>
<path fill-rule="evenodd" clip-rule="evenodd" d="M106.432 254.5C108.966 254.507 110.674 252.425 110.674 249.865V244.142C110.674 241.582 108.966 239.5 106.432 239.5H98.2504C95.716 239.5 94.0078 241.582 94.0078 244.142V249.865C94.0078 252.425 95.716 254.507 98.2504 254.5H106.432Z" stroke="#1A1A1A" stroke-width="1.5" stroke-linecap="round" stroke-linejoin="round"/>
<circle cx="172.344" cy="279" r="20" fill="white"/>
<g clip-path="url(#clip1_0_107)">
<path d="M173.818 285.989C173.677 286.027 173.533 286.061 173.389 286.09C173.015 286.167 172.774 286.532 172.85 286.906C172.854 286.928 172.86 286.948 172.866 286.968C172.968 287.307 173.313 287.518 173.666 287.446C173.837 287.411 174.009 287.37 174.178 287.325C174.547 287.225 174.765 286.846 174.666 286.477C174.566 286.107 174.187 285.89 173.818 285.989Z" fill="black"/>
<path d="M169.002 285.606C168.868 285.546 168.735 285.482 168.606 285.414C168.267 285.238 167.849 285.369 167.672 285.708C167.585 285.875 167.573 286.06 167.623 286.227C167.675 286.399 167.794 286.551 167.966 286.641C168.12 286.721 168.278 286.798 168.438 286.869C168.786 287.025 169.195 286.869 169.351 286.52C169.507 286.171 169.351 285.762 169.002 285.606Z" fill="black"/>
<path d="M171.375 286.212C171.23 286.2 171.082 286.184 170.937 286.163C170.559 286.109 170.209 286.373 170.155 286.751C170.141 286.854 170.15 286.954 170.178 287.047C170.253 287.297 170.468 287.494 170.743 287.533C170.916 287.557 171.091 287.577 171.264 287.591C171.645 287.621 171.979 287.338 172.009 286.957C172.04 286.576 171.756 286.242 171.375 286.212Z" fill="black"/>
<path d="M176.049 284.958C175.929 285.041 175.804 285.121 175.678 285.197C175.402 285.363 175.284 285.693 175.373 285.988C175.389 286.042 175.413 286.095 175.443 286.146C175.64 286.473 176.065 286.578 176.393 286.381C176.542 286.291 176.69 286.196 176.833 286.098C177.148 285.881 177.227 285.45 177.011 285.136C176.794 284.821 176.363 284.741 176.049 284.958Z" fill="black"/>
<path d="M178.765 283.088C178.455 282.864 178.023 282.934 177.8 283.244C177.714 283.362 177.624 283.48 177.532 283.593C177.38 283.778 177.34 284.018 177.405 284.231C177.443 284.358 177.518 284.476 177.628 284.566C177.924 284.808 178.36 284.765 178.602 284.469C178.712 284.335 178.82 284.195 178.922 284.053C179.145 283.744 179.075 283.311 178.765 283.088Z" fill="black"/>
<path d="M179.738 280.567C179.371 280.46 178.987 280.67 178.88 281.037C178.839 281.178 178.793 281.319 178.744 281.456C178.692 281.601 178.691 281.752 178.733 281.889C178.794 282.092 178.947 282.264 179.161 282.341C179.521 282.47 179.917 282.283 180.046 281.923C180.105 281.759 180.159 281.592 180.208 281.424C180.315 281.058 180.104 280.674 179.738 280.567Z" fill="black"/>
<path d="M181.034 276.06L180.125 276.343C179.435 274.228 177.982 272.491 176.016 271.436C175.818 271.33 175.618 271.232 175.414 271.142C175.413 271.142 175.412 271.141 175.41 271.14C175.402 271.137 175.393 271.133 175.385 271.13C173.592 270.345 171.609 270.197 169.707 270.711C169.692 270.714 169.677 270.717 169.663 270.721C169.599 270.739 169.535 270.757 169.472 270.776C169.368 270.808 169.264 270.841 169.161 270.877C169.149 270.881 169.138 270.886 169.126 270.891C167.428 271.479 165.983 272.563 164.952 274.011C164.948 274.016 164.944 274.02 164.941 274.025C164.84 274.167 164.742 274.314 164.65 274.462C164.644 274.471 164.639 274.481 164.634 274.491C164.542 274.64 164.454 274.793 164.37 274.948C163.515 276.541 163.189 278.321 163.412 280.078C163.412 280.082 163.413 280.086 163.413 280.09C163.413 280.093 163.414 280.096 163.415 280.099C163.475 280.568 163.574 281.037 163.714 281.499C164.08 282.713 164.691 283.804 165.53 284.744C165.784 285.028 166.221 285.053 166.506 284.798C166.791 284.544 166.816 284.107 166.561 283.822C166.143 283.353 165.792 282.839 165.512 282.284C165.509 282.277 165.506 282.27 165.503 282.264C165.437 282.133 165.374 281.999 165.316 281.865C165.316 281.864 165.315 281.863 165.315 281.862C165.209 281.615 165.117 281.361 165.038 281.1C164.132 278.094 165.288 274.948 167.687 273.19C167.723 273.164 167.758 273.138 167.794 273.113C168.41 272.678 169.105 272.334 169.865 272.105C170.63 271.874 171.404 271.777 172.162 271.8C172.174 271.8 172.186 271.801 172.198 271.801C172.244 271.802 172.29 271.805 172.336 271.808C172.355 271.808 172.374 271.81 172.392 271.811C174.755 271.958 176.934 273.271 178.158 275.333C178.158 275.334 178.159 275.335 178.16 275.337C178.178 275.367 178.195 275.398 178.213 275.429C178.215 275.432 178.218 275.435 178.22 275.439C178.454 275.849 178.651 276.288 178.804 276.753L177.895 277.036C177.642 277.114 177.617 277.296 177.839 277.44L179.817 278.721C180.039 278.865 180.304 278.782 180.405 278.539L181.308 276.361C181.409 276.117 181.286 275.982 181.034 276.06Z" fill="black"/>
<path d="M169.4 279.021C168.734 279.515 168.279 279.943 168.037 280.306C167.795 280.669 167.649 281.056 167.602 281.468H171.772V280.335H169.602C169.729 280.21 169.84 280.109 169.934 280.031C170.029 279.954 170.216 279.818 170.496 279.625C170.967 279.293 171.292 278.988 171.47 278.71C171.649 278.433 171.738 278.141 171.738 277.836C171.738 277.55 171.66 277.291 171.504 277.06C171.349 276.829 171.135 276.658 170.863 276.546C170.591 276.435 170.21 276.379 169.721 276.379C169.252 276.379 168.885 276.438 168.62 276.555C168.355 276.672 168.15 276.84 168.004 277.06C167.859 277.28 167.759 277.585 167.704 277.976L169.096 278.089C169.135 277.807 169.211 277.61 169.323 277.499C169.436 277.387 169.581 277.331 169.759 277.331C169.929 277.331 170.071 277.385 170.184 277.494C170.296 277.601 170.353 277.732 170.353 277.884C170.353 278.025 170.296 278.174 170.182 278.332C170.068 278.488 169.807 278.718 169.4 279.021Z" fill="black"/>
<path d="M175.971 281.468V280.533H176.599V279.454H175.971V276.379H174.759L172.227 279.389V280.533H174.759V281.468H175.971ZM173.421 279.454L174.759 277.88V279.454H173.421Z" fill="black"/>
</g>
<defs>
<linearGradient id="paint0_linear_0_107" x1="202.665" y1="0" x2="202.665" y2="393" gradientUnits="userSpaceOnUse">
<stop stop-color="#35635B"/>
<stop offset="1" stop-color="#35635B"/>
</linearGradient>
<clipPath id="clip0_0_107">
<path d="M86.3438 151H405.344V381C405.344 387.627 399.971 393 393.344 393H86.3438V151Z" fill="white"/>
</clipPath>
<clipPath id="clip1_0_107">
<rect width="18" height="18" fill="white" transform="translate(163.344 270)"/>
</clipPath>
</defs>
</svg>
