<svg width="406" height="393" viewBox="0 0 406 393" fill="none" xmlns="http://www.w3.org/2000/svg">
<rect width="405.33" height="393" rx="12" fill="url(#paint0_linear_0_169)"/>
<g clip-path="url(#clip0_0_169)">
<path opacity="0.1" d="M373.645 72V179H387.656V281.5" stroke="#BDD4D0"/>
<path opacity="0.7" d="M310.969 271.467H335.536V289.376L212 393H482L358.464 289.376V271.467H383.031L346.898 237L310.969 271.467Z" fill="#2B564F"/>
<path opacity="0.7" d="M22.9688 271.467H47.5355V289.376L-76 393H194L70.4645 289.376V271.467H95.0312L58.8976 237L22.9688 271.467Z" fill="#2B564F"/>
<path opacity="0.4" d="M146.818 198.615H185V231.808L-7 393H412.636L220.636 231.808V198.615H258.818L202.659 145L146.818 198.615Z" fill="url(#paint1_linear_0_169)"/>
<path d="M91 228C91 224.686 93.6863 222 97 222H309C312.314 222 315 224.686 315 228V393H91V228Z" fill="url(#paint2_linear_0_169)"/>
<path d="M188.492 275.5C188.492 292.342 174.827 306 157.965 306C141.103 306 127.438 292.342 127.438 275.5C127.438 258.658 141.103 245 157.965 245C174.827 245 188.492 258.658 188.492 275.5Z" stroke="#BDD4D0" stroke-width="6"/>
<mask id="mask0_0_169" style="mask-type:luminance" maskUnits="userSpaceOnUse" x="215" y="265" width="6" height="28">
<path d="M220.463 265.475H215.508V293H220.463V265.475Z" fill="white"/>
</mask>
<g mask="url(#mask0_0_169)">
<path d="M219.511 267.477C219.511 266.372 218.615 265.475 217.509 265.475C216.404 265.475 215.508 266.372 215.508 267.477V290.998C215.508 292.104 216.404 293 217.509 293C218.615 293 219.511 292.104 219.511 290.998V267.477Z" fill="white" fill-opacity="0.6"/>
</g>
<mask id="mask1_0_169" style="mask-type:luminance" maskUnits="userSpaceOnUse" x="224" y="258" width="6" height="35">
<path d="M229.167 258.137H224.211V293H229.167V258.137Z" fill="white"/>
</mask>
<g mask="url(#mask1_0_169)">
<path d="M228.214 260.138C228.214 259.033 227.318 258.137 226.213 258.137C225.107 258.137 224.211 259.033 224.211 260.138V290.998C224.211 292.104 225.107 293 226.213 293C227.318 293 228.214 292.104 228.214 290.998V260.138Z" fill="white" fill-opacity="0.6"/>
</g>
<mask id="mask2_0_169" style="mask-type:luminance" maskUnits="userSpaceOnUse" x="233" y="261" width="6" height="32">
<path d="M238.292 261.976H233.336V293H238.292V261.976Z" fill="white"/>
</mask>
<g mask="url(#mask2_0_169)">
<path d="M237.339 263.977C237.339 262.872 236.443 261.976 235.338 261.976C234.232 261.976 233.336 262.872 233.336 263.977V290.998C233.336 292.104 234.232 293 235.338 293C236.443 293 237.339 292.104 237.339 290.998V263.977Z" fill="white" fill-opacity="0.6"/>
</g>
<mask id="mask3_0_169" style="mask-type:luminance" maskUnits="userSpaceOnUse" x="242" y="270" width="6" height="23">
<path d="M247.674 270.888H242.719V293H247.674V270.888Z" fill="white"/>
</mask>
<g mask="url(#mask3_0_169)">
<path d="M246.722 272.89C246.722 271.784 245.826 270.888 244.72 270.888C243.615 270.888 242.719 271.784 242.719 272.89V290.998C242.719 292.104 243.615 293 244.72 293C245.826 293 246.722 292.104 246.722 290.998V272.89Z" fill="white" fill-opacity="0.6"/>
</g>
<mask id="mask4_0_169" style="mask-type:luminance" maskUnits="userSpaceOnUse" x="252" y="274" width="6" height="19">
<path d="M257.221 274.534H252.266V293H257.221V274.534Z" fill="white"/>
</mask>
<g mask="url(#mask4_0_169)">
<path d="M256.269 276.535C256.269 275.43 255.373 274.534 254.267 274.534C253.162 274.534 252.266 275.43 252.266 276.535V290.998C252.266 292.104 253.162 293 254.267 293C255.373 293 256.269 292.104 256.269 290.998V276.535Z" fill="white" fill-opacity="0.6"/>
</g>
<mask id="mask5_0_169" style="mask-type:luminance" maskUnits="userSpaceOnUse" x="260" y="260" width="6" height="33">
<path d="M265.926 260.952H260.969V293H265.926V260.952Z" fill="white"/>
</mask>
<g mask="url(#mask5_0_169)">
<path d="M264.972 262.954C264.972 261.849 264.076 260.952 262.97 260.952C261.865 260.952 260.969 261.849 260.969 262.954V290.998C260.969 292.104 261.865 293 262.97 293C264.076 293 264.972 292.104 264.972 290.998V262.954Z" fill="white" fill-opacity="0.6"/>
</g>
<mask id="mask6_0_169" style="mask-type:luminance" maskUnits="userSpaceOnUse" x="270" y="266" width="6" height="27">
<path d="M275.056 266.83H270.102V293H275.056V266.83Z" fill="white"/>
</mask>
<g mask="url(#mask6_0_169)">
<path d="M274.105 268.832C274.105 267.727 273.209 266.83 272.103 266.83C270.998 266.83 270.102 267.727 270.102 268.832V290.998C270.102 292.104 270.998 293 272.103 293C273.209 293 274.105 292.104 274.105 290.998V268.832Z" fill="white" fill-opacity="0.6"/>
</g>
<path d="M223.093 335.879L246.104 337.177L264.447 311.897L263.206 310.999L245.354 335.603L222.433 334.31L196.152 364.256L168.639 358.3L141.453 383.929L142.504 385.043L169.103 359.965L196.71 365.943L223.093 335.879Z" fill="#BCD2CF"/>
<path d="M200.42 364.238C200.898 366.44 199.498 368.612 197.293 369.09C195.088 369.568 192.914 368.167 192.437 365.965C191.96 363.763 193.36 361.59 195.564 361.113C197.769 360.635 199.943 362.035 200.42 364.238Z" fill="#BCD2CF"/>
<path d="M226.749 334.488C227.226 336.693 225.826 338.862 223.621 339.34C221.417 339.818 219.242 338.417 218.765 336.215C218.288 334.013 219.688 331.84 221.892 331.363C224.097 330.888 226.271 332.285 226.749 334.488Z" fill="#BCD2CF"/>
<path d="M249.499 335.398C249.975 337.603 248.576 339.775 246.372 340.25C244.167 340.728 241.993 339.328 241.515 337.125C241.037 334.923 242.439 332.751 244.643 332.273C246.847 331.798 249.021 333.196 249.499 335.398Z" fill="#BCD2CF"/>
<path d="M172.843 358.649C173.32 360.851 171.92 363.023 169.715 363.501C167.511 363.976 165.336 362.578 164.859 360.376C164.382 358.171 165.782 355.999 167.986 355.524C170.191 355.046 172.365 356.444 172.843 358.649Z" fill="#BCD2CF"/>
<path opacity="0.2" d="M181.486 376.287C181.486 377.175 180.766 377.895 179.878 377.895H166.373C165.485 377.895 164.766 377.175 164.766 376.287C164.766 375.399 165.485 374.679 166.373 374.679H179.878C180.766 374.679 181.486 375.399 181.486 376.287Z" fill="#BCD2CF"/>
<path opacity="0.2" d="M193.111 343.274C193.111 344.162 192.39 344.883 191.502 344.883H178C177.111 344.883 176.391 344.162 176.391 343.274C176.391 342.385 177.111 341.665 178 341.665H191.502C192.39 341.665 193.111 342.385 193.111 343.274Z" fill="#BCD2CF"/>
<path opacity="0.2" d="M227.798 366.282C227.798 367.17 227.078 367.891 226.189 367.891H212.687C211.799 367.891 211.078 367.17 211.078 366.282C211.078 365.393 211.799 364.673 212.687 364.673H226.189C227.078 364.673 227.798 365.393 227.798 366.282Z" fill="#BCD2CF"/>
<path opacity="0.2" d="M242.791 321.098C242.791 321.987 242.071 322.707 241.182 322.707H227.679C226.791 322.707 226.07 321.987 226.07 321.098C226.07 320.209 226.791 319.489 227.679 319.489H241.182C242.071 319.489 242.791 320.209 242.791 321.098Z" fill="#BCD2CF"/>
</g>
<defs>
<linearGradient id="paint0_linear_0_169" x1="202.665" y1="0" x2="202.665" y2="393" gradientUnits="userSpaceOnUse">
<stop stop-color="#35635B"/>
<stop offset="1" stop-color="#35635B"/>
</linearGradient>
<linearGradient id="paint1_linear_0_169" x1="202.818" y1="393" x2="202.818" y2="121" gradientUnits="userSpaceOnUse">
<stop stop-color="white" stop-opacity="0"/>
<stop offset="1" stop-color="white"/>
</linearGradient>
<linearGradient id="paint2_linear_0_169" x1="203" y1="222" x2="203" y2="393" gradientUnits="userSpaceOnUse">
<stop stop-color="#5F988F"/>
<stop offset="1" stop-color="#3A6F66"/>
</linearGradient>
<clipPath id="clip0_0_169">
<rect y="72" width="405.33" height="321" rx="12" fill="white"/>
</clipPath>
</defs>
</svg>
