<svg width="406" height="393" viewBox="0 0 406 393" fill="none" xmlns="http://www.w3.org/2000/svg">
<rect x="0.34375" width="405.33" height="393" rx="12" fill="url(#paint0_linear_0_22)"/>
<path opacity="0.2" d="M178.655 156.995C178.655 157.567 178.718 158.076 178.844 158.524C178.973 158.972 179.159 159.35 179.404 159.658C179.649 159.966 179.949 160.202 180.304 160.365C180.661 160.526 181.067 160.607 181.522 160.607C181.942 160.607 182.331 160.544 182.691 160.418C183.05 160.292 183.363 160.116 183.629 159.889C183.895 159.663 184.106 159.395 184.262 159.084C184.421 158.772 184.51 158.43 184.528 158.059H181.403V156.645H186.282V162H184.546V159.343C184.42 159.78 184.242 160.174 184.014 160.526C183.787 160.879 183.519 161.18 183.209 161.429C182.901 161.679 182.555 161.872 182.173 162.007C181.79 162.142 181.379 162.21 180.941 162.21C180.539 162.21 180.158 162.152 179.796 162.035C179.437 161.921 179.104 161.756 178.799 161.541C178.493 161.324 178.217 161.062 177.969 160.754C177.724 160.444 177.515 160.096 177.343 159.711C177.17 159.324 177.037 158.902 176.944 158.447C176.853 157.99 176.807 157.506 176.807 156.995C176.807 156.475 176.86 155.985 176.965 155.525C177.07 155.065 177.221 154.643 177.42 154.258C177.618 153.871 177.858 153.524 178.141 153.218C178.423 152.91 178.742 152.65 179.096 152.438C179.451 152.226 179.838 152.063 180.258 151.951C180.678 151.837 181.124 151.78 181.595 151.78C182.179 151.78 182.725 151.867 183.233 152.042C183.742 152.215 184.196 152.464 184.595 152.788C184.994 153.112 185.329 153.505 185.599 153.967C185.87 154.429 186.059 154.949 186.166 155.525H184.332C184.253 155.182 184.13 154.88 183.965 154.618C183.801 154.355 183.602 154.134 183.366 153.957C183.133 153.777 182.867 153.642 182.568 153.551C182.272 153.458 181.949 153.411 181.599 153.411C181.137 153.411 180.723 153.491 180.356 153.652C179.992 153.811 179.684 154.044 179.432 154.352C179.18 154.658 178.988 155.034 178.855 155.479C178.722 155.923 178.655 156.428 178.655 156.995ZM194.904 159.413C194.801 159.85 194.641 160.241 194.424 160.586C194.207 160.931 193.942 161.224 193.63 161.464C193.317 161.705 192.962 161.889 192.566 162.018C192.169 162.146 191.741 162.21 191.281 162.21C190.898 162.21 190.537 162.166 190.196 162.077C189.858 161.988 189.546 161.861 189.262 161.695C188.977 161.527 188.721 161.324 188.495 161.086C188.269 160.846 188.077 160.575 187.921 160.274C187.765 159.971 187.645 159.64 187.561 159.28C187.477 158.921 187.435 158.538 187.435 158.132C187.435 157.526 187.526 156.973 187.708 156.473C187.892 155.974 188.151 155.547 188.485 155.192C188.818 154.835 189.218 154.56 189.685 154.367C190.152 154.17 190.67 154.072 191.239 154.072C191.799 154.072 192.307 154.168 192.762 154.359C193.219 154.551 193.609 154.823 193.931 155.175C194.253 155.525 194.501 155.95 194.676 156.449C194.851 156.946 194.939 157.501 194.939 158.115C194.939 158.206 194.936 158.297 194.932 158.388C194.929 158.479 194.922 158.575 194.911 158.675H189.171C189.208 158.997 189.284 159.285 189.398 159.539C189.515 159.791 189.665 160.006 189.85 160.183C190.034 160.361 190.25 160.496 190.497 160.589C190.747 160.683 191.023 160.729 191.327 160.729C191.789 160.729 192.175 160.62 192.485 160.4C192.795 160.181 193.037 159.852 193.21 159.413H194.904ZM193.199 157.415C193.106 156.801 192.893 156.336 192.562 156.018C192.233 155.699 191.794 155.539 191.246 155.539C190.966 155.539 190.711 155.581 190.48 155.665C190.249 155.749 190.046 155.871 189.871 156.032C189.698 156.193 189.554 156.391 189.44 156.624C189.326 156.855 189.244 157.119 189.195 157.415H193.199ZM197.815 162H196.058V154.282H197.815V156.855C197.895 156.456 198.01 156.098 198.162 155.78C198.316 155.463 198.507 155.194 198.736 154.972C198.967 154.748 199.238 154.578 199.548 154.461C199.858 154.342 200.209 154.282 200.601 154.282H201.007V155.945H200.426C199.929 155.945 199.514 155.994 199.18 156.092C198.847 156.188 198.578 156.333 198.375 156.529C198.172 156.725 198.028 156.973 197.941 157.271C197.857 157.57 197.815 157.921 197.815 158.325V162ZM203.865 162H202.108V154.282H203.865V156.491C203.949 156.106 204.069 155.764 204.225 155.465C204.382 155.164 204.57 154.911 204.789 154.706C205.011 154.498 205.261 154.341 205.541 154.233C205.824 154.126 206.131 154.072 206.462 154.072C206.81 154.072 207.122 154.132 207.4 154.251C207.68 154.368 207.924 154.54 208.131 154.769C208.339 154.995 208.509 155.275 208.642 155.609C208.775 155.94 208.869 156.321 208.922 156.75C208.995 156.328 209.107 155.951 209.258 155.619C209.412 155.288 209.603 155.008 209.829 154.779C210.055 154.548 210.314 154.373 210.606 154.254C210.9 154.133 211.222 154.072 211.572 154.072C211.973 154.072 212.329 154.152 212.639 154.31C212.952 154.467 213.215 154.695 213.427 154.996C213.642 155.297 213.805 155.667 213.917 156.106C214.029 156.542 214.085 157.04 214.085 157.6V162H212.328V157.775C212.328 156.343 211.804 155.626 210.756 155.626C210.476 155.626 210.226 155.677 210.004 155.777C209.782 155.877 209.596 156.024 209.444 156.218C209.292 156.409 209.176 156.645 209.094 156.925C209.015 157.205 208.975 157.526 208.975 157.887V162H207.218V157.775C207.218 156.343 206.694 155.626 205.646 155.626C205.366 155.626 205.116 155.677 204.894 155.777C204.672 155.877 204.486 156.024 204.334 156.218C204.182 156.409 204.066 156.645 203.984 156.925C203.905 157.205 203.865 157.526 203.865 157.887V162ZM215.353 157.04C215.353 156.585 215.437 156.175 215.605 155.808C215.773 155.442 216.012 155.131 216.322 154.874C216.635 154.615 217.014 154.417 217.46 154.279C217.908 154.141 218.409 154.072 218.965 154.072C219.546 154.072 220.065 154.148 220.522 154.3C220.982 154.452 221.37 154.671 221.688 154.958C222.007 155.245 222.251 155.596 222.419 156.011C222.587 156.427 222.671 156.897 222.671 157.422V162H220.914V159.977C220.823 160.322 220.685 160.634 220.501 160.911C220.319 161.187 220.096 161.421 219.833 161.615C219.569 161.806 219.269 161.953 218.933 162.056C218.599 162.159 218.237 162.21 217.845 162.21C217.436 162.21 217.064 162.154 216.728 162.042C216.394 161.932 216.109 161.777 215.871 161.576C215.633 161.376 215.448 161.134 215.318 160.852C215.189 160.567 215.125 160.252 215.125 159.907C215.125 159.548 215.196 159.226 215.339 158.941C215.481 158.656 215.685 158.415 215.951 158.216C216.219 158.018 216.546 157.866 216.931 157.761C217.316 157.654 217.75 157.6 218.233 157.6H220.914V157.422C220.914 157.13 220.869 156.869 220.778 156.638C220.687 156.405 220.555 156.206 220.382 156.043C220.212 155.88 220.004 155.755 219.759 155.668C219.514 155.582 219.238 155.539 218.93 155.539C218.617 155.539 218.345 155.575 218.114 155.647C217.885 155.717 217.696 155.818 217.547 155.948C217.398 156.079 217.287 156.237 217.215 156.421C217.142 156.605 217.106 156.812 217.106 157.04H215.353ZM218.335 158.832C217.854 158.832 217.49 158.913 217.243 159.074C216.998 159.235 216.875 159.473 216.875 159.788C216.875 160.119 217.009 160.374 217.278 160.551C217.548 160.726 217.938 160.813 218.447 160.813C218.806 160.813 219.136 160.77 219.437 160.684C219.74 160.595 220.001 160.473 220.218 160.316C220.437 160.16 220.607 159.975 220.729 159.76C220.852 159.543 220.914 159.307 220.914 159.053V158.832H218.335ZM225.685 162H223.928V154.282H225.685V156.557C225.773 156.163 225.9 155.812 226.066 155.504C226.232 155.196 226.432 154.936 226.668 154.724C226.906 154.511 227.177 154.35 227.48 154.24C227.783 154.128 228.115 154.072 228.474 154.072C228.901 154.072 229.28 154.152 229.612 154.31C229.945 154.467 230.226 154.695 230.455 154.996C230.686 155.297 230.861 155.667 230.98 156.106C231.099 156.542 231.159 157.04 231.159 157.6V162H229.402V157.775C229.402 156.343 228.822 155.626 227.662 155.626C227.352 155.626 227.074 155.677 226.829 155.777C226.584 155.877 226.376 156.024 226.206 156.218C226.036 156.409 225.906 156.645 225.818 156.925C225.729 157.205 225.685 157.526 225.685 157.887V162Z" fill="white"/>
<path opacity="0.2" d="M222.424 119.99L218.987 130H216.334L212.946 119.99H214.906L217.685 128.638L220.506 119.99H222.424ZM225.06 121.432H223.247V119.64H225.06V121.432ZM225.032 130H223.275V122.282H225.032V130ZM233.618 127.413C233.515 127.85 233.355 128.241 233.138 128.586C232.921 128.931 232.656 129.224 232.344 129.464C232.031 129.705 231.676 129.889 231.28 130.018C230.883 130.146 230.455 130.21 229.995 130.21C229.613 130.21 229.251 130.166 228.91 130.077C228.572 129.988 228.26 129.861 227.976 129.695C227.691 129.527 227.436 129.324 227.209 129.086C226.983 128.846 226.792 128.575 226.635 128.274C226.479 127.971 226.359 127.64 226.275 127.28C226.191 126.921 226.149 126.538 226.149 126.132C226.149 125.526 226.24 124.973 226.422 124.473C226.606 123.974 226.865 123.547 227.199 123.192C227.532 122.835 227.933 122.56 228.399 122.367C228.866 122.17 229.384 122.072 229.953 122.072C230.513 122.072 231.021 122.168 231.476 122.359C231.933 122.551 232.323 122.823 232.645 123.175C232.967 123.525 233.215 123.95 233.39 124.449C233.565 124.946 233.653 125.501 233.653 126.115C233.653 126.206 233.65 126.297 233.646 126.388C233.643 126.479 233.636 126.575 233.625 126.675H227.885C227.922 126.997 227.998 127.285 228.112 127.539C228.229 127.791 228.379 128.006 228.564 128.183C228.748 128.361 228.964 128.496 229.211 128.589C229.461 128.683 229.737 128.729 230.041 128.729C230.503 128.729 230.889 128.62 231.199 128.4C231.51 128.181 231.751 127.852 231.924 127.413H233.618ZM231.913 125.415C231.82 124.801 231.608 124.336 231.276 124.018C230.947 123.699 230.509 123.539 229.96 123.539C229.68 123.539 229.425 123.581 229.194 123.665C228.963 123.749 228.76 123.871 228.585 124.032C228.412 124.193 228.269 124.391 228.154 124.624C228.04 124.855 227.958 125.119 227.909 125.415H231.913ZM239.562 129.94C238.939 130.118 238.385 130.207 237.9 130.207C237.09 130.207 236.474 129.965 236.052 129.482C235.63 128.999 235.418 128.285 235.418 127.34V123.71H234.41V122.282H235.418V120.504H237.175V122.282H239.562V123.71H237.175V127.343C237.175 127.822 237.264 128.173 237.441 128.397C237.619 128.621 237.9 128.733 238.285 128.733C238.439 128.733 238.62 128.717 238.827 128.684C239.035 128.649 239.28 128.594 239.562 128.519V129.94ZM242.483 130H240.726V122.282H242.483V124.557C242.572 124.163 242.699 123.812 242.865 123.504C243.03 123.196 243.231 122.936 243.467 122.724C243.705 122.511 243.975 122.35 244.279 122.24C244.582 122.128 244.913 122.072 245.273 122.072C245.7 122.072 246.079 122.152 246.41 122.31C246.744 122.467 247.025 122.695 247.254 122.996C247.485 123.297 247.66 123.667 247.779 124.106C247.898 124.542 247.957 125.04 247.957 125.6V130H246.2V125.775C246.2 124.343 245.62 123.626 244.461 123.626C244.15 123.626 243.873 123.677 243.628 123.777C243.383 123.877 243.175 124.024 243.005 124.218C242.834 124.409 242.705 124.645 242.616 124.925C242.528 125.205 242.483 125.526 242.483 125.887V130ZM249.227 125.04C249.227 124.585 249.311 124.175 249.479 123.808C249.647 123.442 249.886 123.131 250.196 122.874C250.509 122.615 250.888 122.417 251.334 122.279C251.782 122.141 252.284 122.072 252.839 122.072C253.42 122.072 253.939 122.148 254.396 122.3C254.856 122.452 255.245 122.671 255.562 122.958C255.882 123.245 256.125 123.596 256.293 124.011C256.461 124.427 256.545 124.897 256.545 125.422V130H254.788V127.977C254.697 128.322 254.56 128.634 254.375 128.911C254.193 129.187 253.971 129.421 253.707 129.615C253.443 129.806 253.143 129.953 252.807 130.056C252.474 130.159 252.111 130.21 251.719 130.21C251.311 130.21 250.938 130.154 250.602 130.042C250.269 129.932 249.983 129.777 249.745 129.576C249.507 129.376 249.323 129.134 249.192 128.852C249.064 128.567 248.999 128.252 248.999 127.907C248.999 127.548 249.071 127.226 249.213 126.941C249.355 126.656 249.559 126.415 249.825 126.216C250.094 126.018 250.42 125.866 250.805 125.761C251.19 125.654 251.624 125.6 252.107 125.6H254.788V125.422C254.788 125.13 254.743 124.869 254.652 124.638C254.561 124.405 254.429 124.206 254.256 124.043C254.086 123.88 253.878 123.755 253.633 123.668C253.388 123.582 253.112 123.539 252.804 123.539C252.491 123.539 252.219 123.575 251.988 123.647C251.76 123.717 251.571 123.818 251.421 123.948C251.272 124.079 251.161 124.237 251.089 124.421C251.017 124.605 250.98 124.812 250.98 125.04H249.227ZM252.209 126.832C251.728 126.832 251.364 126.913 251.117 127.074C250.872 127.235 250.749 127.473 250.749 127.788C250.749 128.119 250.884 128.374 251.152 128.551C251.423 128.726 251.812 128.813 252.321 128.813C252.68 128.813 253.01 128.77 253.311 128.684C253.615 128.595 253.875 128.473 254.092 128.316C254.311 128.16 254.482 127.975 254.603 127.76C254.727 127.543 254.788 127.307 254.788 127.053V126.832H252.209ZM259.559 130H257.802V122.282H259.559V124.491C259.643 124.106 259.763 123.764 259.919 123.465C260.076 123.164 260.264 122.911 260.483 122.706C260.705 122.498 260.955 122.341 261.235 122.233C261.518 122.126 261.825 122.072 262.156 122.072C262.504 122.072 262.816 122.132 263.094 122.251C263.374 122.368 263.618 122.54 263.825 122.769C264.033 122.995 264.203 123.275 264.336 123.609C264.469 123.94 264.563 124.321 264.616 124.75C264.689 124.328 264.801 123.951 264.952 123.619C265.106 123.288 265.297 123.008 265.523 122.779C265.749 122.548 266.008 122.373 266.3 122.254C266.594 122.133 266.916 122.072 267.266 122.072C267.667 122.072 268.023 122.152 268.333 122.31C268.646 122.467 268.909 122.695 269.121 122.996C269.336 123.297 269.499 123.667 269.611 124.106C269.723 124.542 269.779 125.04 269.779 125.6V130H268.022V125.775C268.022 124.343 267.498 123.626 266.45 123.626C266.17 123.626 265.92 123.677 265.698 123.777C265.476 123.877 265.29 124.024 265.138 124.218C264.986 124.409 264.87 124.645 264.788 124.925C264.709 125.205 264.669 125.526 264.669 125.887V130H262.912V125.775C262.912 124.343 262.388 123.626 261.34 123.626C261.06 123.626 260.81 123.677 260.588 123.777C260.366 123.877 260.18 124.024 260.028 124.218C259.876 124.409 259.76 124.645 259.678 124.925C259.599 125.205 259.559 125.526 259.559 125.887V130ZM278.33 127.413C278.228 127.85 278.068 128.241 277.851 128.586C277.634 128.931 277.369 129.224 277.056 129.464C276.744 129.705 276.389 129.889 275.992 130.018C275.596 130.146 275.167 130.21 274.708 130.21C274.325 130.21 273.963 130.166 273.623 130.077C273.284 129.988 272.973 129.861 272.688 129.695C272.404 129.527 272.148 129.324 271.922 129.086C271.695 128.846 271.504 128.575 271.348 128.274C271.191 127.971 271.071 127.64 270.987 127.28C270.903 126.921 270.861 126.538 270.861 126.132C270.861 125.526 270.952 124.973 271.134 124.473C271.319 123.974 271.578 123.547 271.911 123.192C272.245 122.835 272.645 122.56 273.112 122.367C273.578 122.17 274.096 122.072 274.666 122.072C275.226 122.072 275.733 122.168 276.188 122.359C276.646 122.551 277.035 122.823 277.357 123.175C277.679 123.525 277.928 123.95 278.103 124.449C278.278 124.946 278.365 125.501 278.365 126.115C278.365 126.206 278.363 126.297 278.358 126.388C278.356 126.479 278.349 126.575 278.337 126.675H272.597C272.635 126.997 272.71 127.285 272.825 127.539C272.941 127.791 273.092 128.006 273.276 128.183C273.461 128.361 273.676 128.496 273.924 128.589C274.173 128.683 274.45 128.729 274.753 128.729C275.215 128.729 275.601 128.62 275.912 128.4C276.222 128.181 276.464 127.852 276.636 127.413H278.33ZM276.626 125.415C276.532 124.801 276.32 124.336 275.989 124.018C275.66 123.699 275.221 123.539 274.673 123.539C274.393 123.539 274.137 123.581 273.906 123.665C273.675 123.749 273.472 123.871 273.297 124.032C273.125 124.193 272.981 124.391 272.867 124.624C272.752 124.855 272.671 125.119 272.622 125.415H276.626ZM282.726 122.072C283.272 122.072 283.758 122.133 284.185 122.254C284.612 122.376 284.973 122.55 285.267 122.776C285.561 123.002 285.784 123.276 285.935 123.598C286.089 123.92 286.166 124.283 286.166 124.687H284.441C284.441 124.498 284.404 124.328 284.329 124.176C284.257 124.024 284.148 123.895 284.003 123.787C283.861 123.68 283.685 123.597 283.475 123.539C283.265 123.481 283.022 123.451 282.747 123.451C282.502 123.451 282.278 123.475 282.075 123.521C281.874 123.566 281.702 123.63 281.557 123.714C281.412 123.798 281.299 123.898 281.217 124.015C281.138 124.132 281.098 124.261 281.098 124.403C281.098 124.571 281.147 124.709 281.245 124.816C281.346 124.921 281.478 125.008 281.641 125.075C281.804 125.143 281.989 125.198 282.194 125.24C282.402 125.28 282.613 125.317 282.827 125.352L283.342 125.436C283.554 125.471 283.777 125.511 284.01 125.555C284.244 125.597 284.475 125.654 284.703 125.726C284.932 125.799 285.15 125.89 285.358 125.999C285.566 126.107 285.749 126.242 285.907 126.405C286.066 126.569 286.192 126.765 286.285 126.993C286.379 127.22 286.425 127.488 286.425 127.798C286.425 128.183 286.348 128.525 286.194 128.824C286.04 129.123 285.813 129.375 285.512 129.58C285.213 129.785 284.843 129.942 284.402 130.049C283.961 130.156 283.454 130.21 282.88 130.21C282.28 130.21 281.753 130.151 281.298 130.032C280.843 129.915 280.463 129.743 280.157 129.517C279.851 129.288 279.621 129.008 279.467 128.677C279.313 128.343 279.236 127.962 279.236 127.532H280.962C280.962 127.948 281.118 128.267 281.431 128.491C281.744 128.713 282.223 128.824 282.869 128.824C283.156 128.824 283.413 128.802 283.639 128.757C283.868 128.713 284.061 128.649 284.217 128.565C284.376 128.481 284.496 128.377 284.577 128.253C284.661 128.13 284.703 127.989 284.703 127.83C284.703 127.704 284.68 127.594 284.633 127.501C284.587 127.408 284.52 127.326 284.434 127.256C284.35 127.184 284.25 127.123 284.133 127.074C284.016 127.023 283.888 126.978 283.748 126.941C283.608 126.901 283.459 126.866 283.3 126.836C283.144 126.806 282.983 126.776 282.817 126.748L282.299 126.661C282.154 126.635 282.001 126.607 281.84 126.577C281.682 126.547 281.52 126.512 281.354 126.472C281.191 126.43 281.028 126.381 280.867 126.325C280.706 126.267 280.552 126.198 280.405 126.118C280.258 126.039 280.122 125.948 279.996 125.845C279.872 125.74 279.764 125.62 279.67 125.485C279.579 125.347 279.507 125.192 279.453 125.019C279.402 124.847 279.376 124.653 279.376 124.438C279.376 124.074 279.452 123.747 279.604 123.455C279.758 123.163 279.98 122.916 280.269 122.713C280.558 122.508 280.909 122.35 281.322 122.24C281.738 122.128 282.206 122.072 282.726 122.072ZM294.75 127.413C294.647 127.85 294.487 128.241 294.27 128.586C294.053 128.931 293.788 129.224 293.476 129.464C293.163 129.705 292.808 129.889 292.412 130.018C292.015 130.146 291.587 130.21 291.127 130.21C290.744 130.21 290.383 130.166 290.042 130.077C289.704 129.988 289.392 129.861 289.108 129.695C288.823 129.527 288.567 129.324 288.341 129.086C288.115 128.846 287.923 128.575 287.767 128.274C287.611 127.971 287.491 127.64 287.407 127.28C287.323 126.921 287.281 126.538 287.281 126.132C287.281 125.526 287.372 124.973 287.554 124.473C287.738 123.974 287.997 123.547 288.331 123.192C288.664 122.835 289.064 122.56 289.531 122.367C289.998 122.17 290.516 122.072 291.085 122.072C291.645 122.072 292.153 122.168 292.608 122.359C293.065 122.551 293.455 122.823 293.777 123.175C294.099 123.525 294.347 123.95 294.522 124.449C294.697 124.946 294.785 125.501 294.785 126.115C294.785 126.206 294.782 126.297 294.778 126.388C294.775 126.479 294.768 126.575 294.757 126.675H289.017C289.054 126.997 289.13 127.285 289.244 127.539C289.361 127.791 289.511 128.006 289.696 128.183C289.88 128.361 290.096 128.496 290.343 128.589C290.593 128.683 290.869 128.729 291.173 128.729C291.635 128.729 292.021 128.62 292.331 128.4C292.641 128.181 292.883 127.852 293.056 127.413H294.75ZM293.045 125.415C292.952 124.801 292.739 124.336 292.408 124.018C292.079 123.699 291.64 123.539 291.092 123.539C290.812 123.539 290.557 123.581 290.326 123.665C290.095 123.749 289.892 123.871 289.717 124.032C289.544 124.193 289.4 124.391 289.286 124.624C289.172 124.855 289.09 125.119 289.041 125.415H293.045Z" fill="white"/>
<path opacity="0.2" d="M295.73 153.614H290.732V156.358H295.317V157.954H290.732V162H288.891V151.99H295.73V153.614ZM298.535 162H296.778V154.282H298.535V156.855C298.615 156.456 298.73 156.098 298.882 155.78C299.036 155.463 299.227 155.194 299.456 154.972C299.687 154.748 299.958 154.578 300.268 154.461C300.578 154.342 300.929 154.282 301.321 154.282H301.727V155.945H301.146C300.649 155.945 300.234 155.994 299.9 156.092C299.567 156.188 299.298 156.333 299.095 156.529C298.892 156.725 298.748 156.973 298.661 157.271C298.577 157.57 298.535 157.921 298.535 158.325V162ZM309.883 159.413C309.78 159.85 309.62 160.241 309.403 160.586C309.186 160.931 308.921 161.224 308.609 161.464C308.296 161.705 307.941 161.889 307.545 162.018C307.148 162.146 306.72 162.21 306.26 162.21C305.878 162.21 305.516 162.166 305.175 162.077C304.837 161.988 304.525 161.861 304.241 161.695C303.956 161.527 303.701 161.324 303.474 161.086C303.248 160.846 303.057 160.575 302.9 160.274C302.744 159.971 302.624 159.64 302.54 159.28C302.456 158.921 302.414 158.538 302.414 158.132C302.414 157.526 302.505 156.973 302.687 156.473C302.871 155.974 303.13 155.547 303.464 155.192C303.797 154.835 304.198 154.56 304.664 154.367C305.131 154.17 305.649 154.072 306.218 154.072C306.778 154.072 307.286 154.168 307.741 154.359C308.198 154.551 308.588 154.823 308.91 155.175C309.232 155.525 309.48 155.95 309.655 156.449C309.83 156.946 309.918 157.501 309.918 158.115C309.918 158.206 309.915 158.297 309.911 158.388C309.908 158.479 309.901 158.575 309.89 158.675H304.15C304.187 158.997 304.263 159.285 304.377 159.539C304.494 159.791 304.644 160.006 304.829 160.183C305.013 160.361 305.229 160.496 305.476 160.589C305.726 160.683 306.002 160.729 306.306 160.729C306.768 160.729 307.154 160.62 307.464 160.4C307.775 160.181 308.016 159.852 308.189 159.413H309.883ZM308.178 157.415C308.085 156.801 307.873 156.336 307.541 156.018C307.212 155.699 306.774 155.539 306.225 155.539C305.945 155.539 305.69 155.581 305.459 155.665C305.228 155.749 305.025 155.871 304.85 156.032C304.677 156.193 304.534 156.391 304.419 156.624C304.305 156.855 304.223 157.119 304.174 157.415H308.178ZM312.795 162H311.038V154.282H312.795V156.557C312.883 156.163 313.01 155.812 313.176 155.504C313.342 155.196 313.542 154.936 313.778 154.724C314.016 154.511 314.287 154.35 314.59 154.24C314.893 154.128 315.225 154.072 315.584 154.072C316.011 154.072 316.39 154.152 316.722 154.31C317.055 154.467 317.336 154.695 317.565 154.996C317.796 155.297 317.971 155.667 318.09 156.106C318.209 156.542 318.269 157.04 318.269 157.6V162H316.512V157.775C316.512 156.343 315.932 155.626 314.772 155.626C314.462 155.626 314.184 155.677 313.939 155.777C313.694 155.877 313.486 156.024 313.316 156.218C313.146 156.409 313.016 156.645 312.928 156.925C312.839 157.205 312.795 157.526 312.795 157.887V162ZM321.117 158.139C321.117 158.534 321.165 158.887 321.26 159.2C321.356 159.51 321.492 159.774 321.67 159.991C321.849 160.206 322.068 160.37 322.324 160.484C322.583 160.599 322.875 160.656 323.199 160.656C323.479 160.656 323.725 160.615 323.938 160.533C324.152 160.449 324.337 160.334 324.491 160.187C324.645 160.04 324.77 159.867 324.865 159.669C324.963 159.468 325.034 159.252 325.079 159.021H326.832C326.793 159.327 326.723 159.618 326.622 159.893C326.524 160.168 326.398 160.425 326.244 160.663C326.09 160.899 325.909 161.112 325.702 161.303C325.494 161.492 325.262 161.655 325.005 161.79C324.749 161.925 324.469 162.029 324.165 162.102C323.864 162.174 323.541 162.21 323.196 162.21C322.815 162.21 322.456 162.166 322.118 162.077C321.782 161.991 321.471 161.865 321.187 161.699C320.902 161.533 320.645 161.331 320.417 161.093C320.19 160.855 319.998 160.586 319.839 160.285C319.683 159.982 319.563 159.65 319.479 159.291C319.395 158.932 319.353 158.548 319.353 158.139C319.353 157.526 319.445 156.969 319.629 156.47C319.816 155.971 320.078 155.544 320.417 155.189C320.755 154.832 321.16 154.557 321.631 154.363C322.103 154.169 322.624 154.072 323.196 154.072C323.714 154.072 324.183 154.153 324.603 154.314C325.025 154.473 325.391 154.694 325.702 154.979C326.012 155.264 326.263 155.601 326.454 155.99C326.648 156.378 326.774 156.801 326.832 157.261H325.079C325.037 157.03 324.967 156.815 324.869 156.617C324.773 156.416 324.648 156.242 324.494 156.095C324.34 155.948 324.156 155.834 323.941 155.752C323.727 155.668 323.479 155.626 323.199 155.626C322.875 155.626 322.583 155.684 322.324 155.798C322.068 155.912 321.849 156.078 321.67 156.295C321.492 156.51 321.356 156.772 321.26 157.082C321.165 157.393 321.117 157.745 321.117 158.139ZM329.706 162H327.949V151.64H329.706V156.557C329.795 156.163 329.922 155.812 330.088 155.504C330.253 155.196 330.454 154.936 330.69 154.724C330.928 154.511 331.198 154.35 331.502 154.24C331.805 154.128 332.136 154.072 332.496 154.072C332.923 154.072 333.302 154.152 333.633 154.31C333.967 154.467 334.248 154.695 334.477 154.996C334.708 155.297 334.883 155.667 335.002 156.106C335.121 156.542 335.18 157.04 335.18 157.6V162H333.423V157.775C333.423 156.343 332.843 155.626 331.684 155.626C331.373 155.626 331.096 155.677 330.851 155.777C330.606 155.877 330.398 156.024 330.228 156.218C330.057 156.409 329.928 156.645 329.839 156.925C329.75 157.205 329.706 157.526 329.706 157.887V162Z" fill="white"/>
<path opacity="0.2" d="M332.463 130V119.99H337.359C337.889 119.99 338.37 120.062 338.801 120.207C339.233 120.349 339.602 120.551 339.907 120.812C340.213 121.071 340.449 121.385 340.614 121.754C340.78 122.12 340.863 122.527 340.863 122.975C340.863 123.37 340.796 123.729 340.663 124.053C340.533 124.375 340.346 124.653 340.103 124.886C339.863 125.117 339.571 125.299 339.228 125.432C338.888 125.563 338.507 125.634 338.087 125.646C338.47 125.674 338.809 125.821 339.106 126.087C339.404 126.353 339.663 126.73 339.883 127.217L341.132 130H339.099L337.846 127.224C337.759 127.031 337.666 126.87 337.566 126.741C337.468 126.611 337.351 126.507 337.216 126.43C337.083 126.351 336.926 126.295 336.747 126.262C336.567 126.229 336.354 126.213 336.106 126.213H334.304V130H332.463ZM337.139 124.638C337.433 124.638 337.696 124.603 337.93 124.533C338.163 124.463 338.36 124.361 338.521 124.228C338.682 124.093 338.805 123.93 338.889 123.738C338.975 123.545 339.018 123.325 339.018 123.08C339.018 122.84 338.976 122.628 338.892 122.443C338.811 122.257 338.689 122.1 338.528 121.974C338.37 121.846 338.172 121.749 337.937 121.684C337.703 121.619 337.435 121.586 337.132 121.586H334.304V124.638H337.139ZM347.69 122.282H349.447V130H347.69V127.725C347.603 128.119 347.476 128.47 347.308 128.778C347.142 129.086 346.941 129.347 346.703 129.559C346.467 129.771 346.197 129.932 345.894 130.042C345.591 130.154 345.259 130.21 344.9 130.21C344.473 130.21 344.093 130.132 343.759 129.975C343.428 129.817 343.147 129.587 342.916 129.286C342.687 128.985 342.513 128.616 342.394 128.18C342.275 127.741 342.216 127.242 342.216 126.682V122.282H343.973V126.507C343.973 127.94 344.552 128.656 345.712 128.656C346.025 128.656 346.304 128.606 346.549 128.505C346.794 128.405 347 128.259 347.168 128.068C347.338 127.874 347.468 127.637 347.557 127.357C347.645 127.075 347.69 126.754 347.69 126.395V122.282ZM353.975 122.072C354.521 122.072 355.007 122.133 355.434 122.254C355.861 122.376 356.222 122.55 356.516 122.776C356.81 123.002 357.033 123.276 357.184 123.598C357.338 123.92 357.415 124.283 357.415 124.687H355.69C355.69 124.498 355.652 124.328 355.578 124.176C355.505 124.024 355.397 123.895 355.252 123.787C355.11 123.68 354.934 123.597 354.724 123.539C354.514 123.481 354.271 123.451 353.996 123.451C353.751 123.451 353.527 123.475 353.324 123.521C353.123 123.566 352.95 123.63 352.806 123.714C352.661 123.798 352.548 123.898 352.466 124.015C352.387 124.132 352.347 124.261 352.347 124.403C352.347 124.571 352.396 124.709 352.494 124.816C352.595 124.921 352.726 125.008 352.89 125.075C353.053 125.143 353.237 125.198 353.443 125.24C353.65 125.28 353.862 125.317 354.076 125.352L354.591 125.436C354.803 125.471 355.026 125.511 355.259 125.555C355.493 125.597 355.724 125.654 355.952 125.726C356.181 125.799 356.399 125.89 356.607 125.999C356.814 126.107 356.998 126.242 357.156 126.405C357.315 126.569 357.441 126.765 357.534 126.993C357.628 127.22 357.674 127.488 357.674 127.798C357.674 128.183 357.597 128.525 357.443 128.824C357.289 129.123 357.062 129.375 356.761 129.58C356.462 129.785 356.092 129.942 355.651 130.049C355.21 130.156 354.703 130.21 354.129 130.21C353.529 130.21 353.002 130.151 352.547 130.032C352.092 129.915 351.711 129.743 351.406 129.517C351.1 129.288 350.87 129.008 350.716 128.677C350.562 128.343 350.485 127.962 350.485 127.532H352.211C352.211 127.948 352.367 128.267 352.68 128.491C352.992 128.713 353.472 128.824 354.118 128.824C354.405 128.824 354.662 128.802 354.888 128.757C355.117 128.713 355.309 128.649 355.466 128.565C355.624 128.481 355.745 128.377 355.826 128.253C355.91 128.13 355.952 127.989 355.952 127.83C355.952 127.704 355.929 127.594 355.882 127.501C355.836 127.408 355.769 127.326 355.683 127.256C355.599 127.184 355.498 127.123 355.382 127.074C355.265 127.023 355.137 126.978 354.997 126.941C354.857 126.901 354.707 126.866 354.549 126.836C354.392 126.806 354.231 126.776 354.066 126.748L353.548 126.661C353.403 126.635 353.25 126.607 353.089 126.577C352.931 126.547 352.768 126.512 352.603 126.472C352.439 126.43 352.277 126.381 352.116 126.325C351.955 126.267 351.801 126.198 351.654 126.118C351.507 126.039 351.371 125.948 351.245 125.845C351.121 125.74 351.013 125.62 350.919 125.485C350.828 125.347 350.756 125.192 350.702 125.019C350.651 124.847 350.625 124.653 350.625 124.438C350.625 124.074 350.701 123.747 350.853 123.455C351.007 123.163 351.228 122.916 351.518 122.713C351.807 122.508 352.158 122.35 352.571 122.24C352.987 122.128 353.454 122.072 353.975 122.072ZM361.979 122.072C362.525 122.072 363.012 122.133 363.439 122.254C363.866 122.376 364.226 122.55 364.52 122.776C364.814 123.002 365.037 123.276 365.189 123.598C365.343 123.92 365.42 124.283 365.42 124.687H363.694C363.694 124.498 363.657 124.328 363.582 124.176C363.51 124.024 363.402 123.895 363.257 123.787C363.115 123.68 362.938 123.597 362.728 123.539C362.518 123.481 362.276 123.451 362 123.451C361.755 123.451 361.531 123.475 361.328 123.521C361.128 123.566 360.955 123.63 360.81 123.714C360.666 123.798 360.553 123.898 360.471 124.015C360.392 124.132 360.352 124.261 360.352 124.403C360.352 124.571 360.401 124.709 360.499 124.816C360.599 124.921 360.731 125.008 360.894 125.075C361.058 125.143 361.242 125.198 361.447 125.24C361.655 125.28 361.866 125.317 362.081 125.352L362.595 125.436C362.808 125.471 363.031 125.511 363.264 125.555C363.497 125.597 363.728 125.654 363.957 125.726C364.186 125.799 364.404 125.89 364.611 125.999C364.819 126.107 365.002 126.242 365.161 126.405C365.32 126.569 365.446 126.765 365.539 126.993C365.632 127.22 365.679 127.488 365.679 127.798C365.679 128.183 365.602 128.525 365.448 128.824C365.294 129.123 365.066 129.375 364.765 129.58C364.467 129.785 364.097 129.942 363.656 130.049C363.215 130.156 362.707 130.21 362.133 130.21C361.534 130.21 361.006 130.151 360.551 130.032C360.096 129.915 359.716 129.743 359.41 129.517C359.105 129.288 358.875 129.008 358.721 128.677C358.567 128.343 358.49 127.962 358.49 127.532H360.215C360.215 127.948 360.372 128.267 360.684 128.491C360.997 128.713 361.477 128.824 362.123 128.824C362.41 128.824 362.667 128.802 362.893 128.757C363.122 128.713 363.314 128.649 363.47 128.565C363.629 128.481 363.749 128.377 363.831 128.253C363.915 128.13 363.957 127.989 363.957 127.83C363.957 127.704 363.934 127.594 363.887 127.501C363.84 127.408 363.774 127.326 363.687 127.256C363.603 127.184 363.503 127.123 363.386 127.074C363.27 127.023 363.141 126.978 363.001 126.941C362.861 126.901 362.712 126.866 362.553 126.836C362.397 126.806 362.236 126.776 362.07 126.748L361.552 126.661C361.408 126.635 361.255 126.607 361.094 126.577C360.935 126.547 360.773 126.512 360.607 126.472C360.444 126.43 360.282 126.381 360.121 126.325C359.96 126.267 359.806 126.198 359.659 126.118C359.512 126.039 359.375 125.948 359.249 125.845C359.126 125.74 359.017 125.62 358.924 125.485C358.833 125.347 358.761 125.192 358.707 125.019C358.656 124.847 358.63 124.653 358.63 124.438C358.63 124.074 358.706 123.747 358.857 123.455C359.011 123.163 359.233 122.916 359.522 122.713C359.812 122.508 360.163 122.35 360.576 122.24C360.991 122.128 361.459 122.072 361.979 122.072ZM368.528 121.432H366.715V119.64H368.528V121.432ZM368.5 130H366.743V122.282H368.5V130ZM369.802 125.04C369.802 124.585 369.886 124.175 370.054 123.808C370.222 123.442 370.461 123.131 370.772 122.874C371.084 122.615 371.464 122.417 371.909 122.279C372.357 122.141 372.859 122.072 373.414 122.072C373.995 122.072 374.514 122.148 374.972 122.3C375.431 122.452 375.82 122.671 376.137 122.958C376.457 123.245 376.701 123.596 376.869 124.011C377.037 124.427 377.121 124.897 377.121 125.422V130H375.364V127.977C375.273 128.322 375.135 128.634 374.951 128.911C374.769 129.187 374.546 129.421 374.282 129.615C374.019 129.806 373.719 129.953 373.383 130.056C373.049 130.159 372.686 130.21 372.294 130.21C371.886 130.21 371.514 130.154 371.178 130.042C370.844 129.932 370.558 129.777 370.32 129.576C370.082 129.376 369.898 129.134 369.767 128.852C369.639 128.567 369.575 128.252 369.575 127.907C369.575 127.548 369.646 127.226 369.788 126.941C369.931 126.656 370.135 126.415 370.401 126.216C370.669 126.018 370.996 125.866 371.381 125.761C371.766 125.654 372.2 125.6 372.683 125.6H375.364V125.422C375.364 125.13 375.318 124.869 375.227 124.638C375.136 124.405 375.004 124.206 374.832 124.043C374.661 123.88 374.454 123.755 374.209 123.668C373.964 123.582 373.687 123.539 373.379 123.539C373.067 123.539 372.795 123.575 372.564 123.647C372.335 123.717 372.146 123.818 371.997 123.948C371.847 124.079 371.737 124.237 371.664 124.421C371.592 124.605 371.556 124.812 371.556 125.04H369.802ZM372.784 126.832C372.304 126.832 371.94 126.913 371.692 127.074C371.447 127.235 371.325 127.473 371.325 127.788C371.325 128.119 371.459 128.374 371.727 128.551C371.998 128.726 372.388 128.813 372.896 128.813C373.256 128.813 373.586 128.77 373.887 128.684C374.19 128.595 374.45 128.473 374.667 128.316C374.887 128.16 375.057 127.975 375.178 127.76C375.302 127.543 375.364 127.307 375.364 127.053V126.832H372.784ZM380.134 130H378.377V122.282H380.134V124.557C380.223 124.163 380.35 123.812 380.516 123.504C380.681 123.196 380.882 122.936 381.118 122.724C381.356 122.511 381.626 122.35 381.93 122.24C382.233 122.128 382.564 122.072 382.924 122.072C383.351 122.072 383.73 122.152 384.061 122.31C384.395 122.467 384.676 122.695 384.905 122.996C385.136 123.297 385.311 123.667 385.43 124.106C385.549 124.542 385.608 125.04 385.608 125.6V130H383.851V125.775C383.851 124.343 383.271 123.626 382.112 123.626C381.801 123.626 381.524 123.677 381.279 123.777C381.034 123.877 380.826 124.024 380.656 124.218C380.485 124.409 380.356 124.645 380.267 124.925C380.179 125.205 380.134 125.526 380.134 125.887V130Z" fill="white"/>
<path opacity="0.2" d="M25.2758 119.78C25.8964 119.78 26.4564 119.856 26.9558 120.007C27.4551 120.159 27.8809 120.377 28.2333 120.662C28.5856 120.944 28.8563 121.29 29.0453 121.698C29.2366 122.106 29.3323 122.566 29.3323 123.077H27.5543C27.5543 122.811 27.4983 122.572 27.3863 122.359C27.2766 122.145 27.1203 121.963 26.9173 121.813C26.7166 121.662 26.4751 121.546 26.1928 121.467C25.9104 121.385 25.5978 121.344 25.2548 121.344C25.0634 121.344 24.8744 121.357 24.6878 121.383C24.5011 121.409 24.3226 121.448 24.1523 121.502C23.9819 121.556 23.8244 121.623 23.6798 121.705C23.5351 121.784 23.4091 121.879 23.3018 121.988C23.1968 122.096 23.1139 122.218 23.0533 122.356C22.9949 122.494 22.9658 122.645 22.9658 122.811C22.9658 123.037 23.0206 123.22 23.1303 123.36C23.2399 123.5 23.3974 123.616 23.6028 123.707C23.8104 123.796 24.0648 123.868 24.3658 123.924C24.6668 123.98 25.0074 124.036 25.3878 124.092L25.8533 124.162C26.1333 124.204 26.4226 124.252 26.7213 124.305C27.0199 124.357 27.3104 124.426 27.5928 124.512C27.8774 124.596 28.1458 124.704 28.3978 124.837C28.6521 124.968 28.8738 125.134 29.0628 125.334C29.2541 125.535 29.4046 125.777 29.5143 126.059C29.6263 126.341 29.6823 126.676 29.6823 127.063C29.6823 127.586 29.5784 128.045 29.3708 128.439C29.1631 128.831 28.8703 129.159 28.4923 129.422C28.1166 129.684 27.6651 129.88 27.1378 130.011C26.6104 130.144 26.0259 130.21 25.3843 130.21C24.6866 130.21 24.0648 130.134 23.5188 129.982C22.9751 129.828 22.5154 129.607 22.1398 129.317C21.7641 129.028 21.4771 128.673 21.2788 128.253C21.0828 127.833 20.9848 127.356 20.9848 126.822H22.7628C22.7628 127.107 22.8234 127.362 22.9448 127.588C23.0661 127.815 23.2388 128.006 23.4628 128.162C23.6891 128.319 23.9621 128.439 24.2818 128.523C24.6038 128.605 24.9654 128.645 25.3668 128.645C25.7098 128.645 26.0329 128.614 26.3363 128.551C26.6396 128.488 26.9044 128.392 27.1308 128.264C27.3594 128.133 27.5391 127.969 27.6698 127.77C27.8028 127.572 27.8693 127.339 27.8693 127.07C27.8693 126.823 27.8144 126.624 27.7048 126.472C27.5951 126.32 27.4388 126.198 27.2358 126.104C27.0328 126.011 26.7889 125.939 26.5043 125.887C26.2196 125.834 25.9023 125.781 25.5523 125.73L24.9643 125.642C24.7543 125.612 24.5384 125.579 24.3168 125.544C24.0951 125.509 23.8746 125.467 23.6553 125.418C23.4383 125.369 23.2259 125.312 23.0183 125.247C22.8106 125.179 22.6134 125.098 22.4268 125.002C22.2424 124.906 22.0721 124.794 21.9158 124.666C21.7594 124.538 21.6241 124.388 21.5098 124.218C21.3978 124.045 21.3103 123.85 21.2473 123.633C21.1843 123.414 21.1528 123.167 21.1528 122.891C21.1528 122.551 21.2018 122.238 21.2998 121.953C21.3978 121.666 21.5354 121.407 21.7128 121.176C21.8901 120.945 22.1036 120.744 22.3533 120.571C22.6053 120.396 22.8829 120.25 23.1863 120.133C23.4919 120.017 23.8209 119.929 24.1733 119.871C24.5256 119.81 24.8931 119.78 25.2758 119.78ZM32.4949 124.641C32.5883 124.24 32.7189 123.881 32.8869 123.563C33.0549 123.246 33.2544 122.978 33.4854 122.758C33.7188 122.537 33.9813 122.368 34.2729 122.251C34.5669 122.132 34.8854 122.072 35.2284 122.072C35.5388 122.072 35.8328 122.118 36.1104 122.209C36.3904 122.3 36.6483 122.429 36.8839 122.597C37.1196 122.766 37.3319 122.971 37.5209 123.213C37.7099 123.454 37.8709 123.724 38.0039 124.025C38.1369 124.326 38.2384 124.655 38.3084 125.012C38.3808 125.367 38.4169 125.743 38.4169 126.139C38.4169 126.536 38.3808 126.913 38.3084 127.27C38.2384 127.625 38.1369 127.952 38.0039 128.253C37.8709 128.554 37.7099 128.826 37.5209 129.069C37.3319 129.309 37.1196 129.515 36.8839 129.685C36.6483 129.853 36.3904 129.982 36.1104 130.074C35.8328 130.165 35.5388 130.21 35.2284 130.21C34.8854 130.21 34.5669 130.151 34.2729 130.032C33.9813 129.915 33.7188 129.747 33.4854 129.527C33.2544 129.306 33.0549 129.036 32.8869 128.719C32.7189 128.402 32.5883 128.042 32.4949 127.641V132.646H30.7379V122.282H32.4949V124.641ZM32.4949 126.139C32.4949 126.541 32.5416 126.899 32.6349 127.214C32.7306 127.529 32.8683 127.796 33.0479 128.015C33.2299 128.232 33.4504 128.398 33.7094 128.512C33.9708 128.627 34.2659 128.684 34.5949 128.684C34.9309 128.684 35.2261 128.629 35.4804 128.519C35.7371 128.41 35.9518 128.248 36.1244 128.033C36.2994 127.818 36.4313 127.553 36.5199 127.238C36.6086 126.921 36.6529 126.555 36.6529 126.139C36.6529 125.724 36.6086 125.359 36.5199 125.044C36.4313 124.727 36.2994 124.462 36.1244 124.249C35.9518 124.035 35.7371 123.873 35.4804 123.763C35.2261 123.653 34.9309 123.598 34.5949 123.598C34.2636 123.598 33.9673 123.656 33.7059 123.77C33.4469 123.884 33.2276 124.05 33.0479 124.267C32.8683 124.484 32.7306 124.75 32.6349 125.065C32.5416 125.38 32.4949 125.738 32.4949 126.139ZM39.4847 125.04C39.4847 124.585 39.5687 124.175 39.7367 123.808C39.9047 123.442 40.1438 123.131 40.4542 122.874C40.7668 122.615 41.146 122.417 41.5917 122.279C42.0397 122.141 42.5413 122.072 43.0967 122.072C43.6777 122.072 44.1968 122.148 44.6542 122.3C45.1138 122.452 45.5023 122.671 45.8197 122.958C46.1393 123.245 46.3832 123.596 46.5512 124.011C46.7192 124.427 46.8032 124.897 46.8032 125.422V130H45.0462V127.977C44.9552 128.322 44.8175 128.634 44.6332 128.911C44.4512 129.187 44.2283 129.421 43.9647 129.615C43.701 129.806 43.4012 129.953 43.0652 130.056C42.7315 130.159 42.3687 130.21 41.9767 130.21C41.5683 130.21 41.1962 130.154 40.8602 130.042C40.5265 129.932 40.2407 129.777 40.0027 129.576C39.7647 129.376 39.5803 129.134 39.4497 128.852C39.3213 128.567 39.2572 128.252 39.2572 127.907C39.2572 127.548 39.3283 127.226 39.4707 126.941C39.613 126.656 39.8172 126.415 40.0832 126.216C40.3515 126.018 40.6782 125.866 41.0632 125.761C41.4482 125.654 41.8822 125.6 42.3652 125.6H45.0462V125.422C45.0462 125.13 45.0007 124.869 44.9097 124.638C44.8187 124.405 44.6868 124.206 44.5142 124.043C44.3438 123.88 44.1362 123.755 43.8912 123.668C43.6462 123.582 43.3697 123.539 43.0617 123.539C42.749 123.539 42.4772 123.575 42.2462 123.647C42.0175 123.717 41.8285 123.818 41.6792 123.948C41.5298 124.079 41.419 124.237 41.3467 124.421C41.2743 124.605 41.2382 124.812 41.2382 125.04H39.4847ZM42.4667 126.832C41.986 126.832 41.622 126.913 41.3747 127.074C41.1297 127.235 41.0072 127.473 41.0072 127.788C41.0072 128.119 41.1413 128.374 41.4097 128.551C41.6803 128.726 42.07 128.813 42.5787 128.813C42.938 128.813 43.2682 128.77 43.5692 128.684C43.8725 128.595 44.1327 128.473 44.3497 128.316C44.569 128.16 44.7393 127.975 44.8607 127.76C44.9843 127.543 45.0462 127.307 45.0462 127.053V126.832H42.4667ZM49.8167 130H48.0597V122.282H49.8167V124.557C49.9053 124.163 50.0325 123.812 50.1982 123.504C50.3638 123.196 50.5645 122.936 50.8002 122.724C51.0382 122.511 51.3088 122.35 51.6122 122.24C51.9155 122.128 52.2468 122.072 52.6062 122.072C53.0332 122.072 53.4123 122.152 53.7437 122.31C54.0773 122.467 54.3585 122.695 54.5872 122.996C54.8182 123.297 54.9932 123.667 55.1122 124.106C55.2312 124.542 55.2907 125.04 55.2907 125.6V130H53.5337V125.775C53.5337 124.343 52.9538 123.626 51.7942 123.626C51.4838 123.626 51.2062 123.677 50.9612 123.777C50.7162 123.877 50.5085 124.024 50.3382 124.218C50.1678 124.409 50.0383 124.645 49.9497 124.925C49.861 125.205 49.8167 125.526 49.8167 125.887V130ZM58.3278 121.432H56.5148V119.64H58.3278V121.432ZM58.2998 130H56.5428V122.282H58.2998V130ZM62.8255 122.072C63.3715 122.072 63.858 122.133 64.285 122.254C64.712 122.376 65.0725 122.55 65.3665 122.776C65.6605 123.002 65.8833 123.276 66.035 123.598C66.189 123.92 66.266 124.283 66.266 124.687H64.5405C64.5405 124.498 64.5032 124.328 64.4285 124.176C64.3562 124.024 64.2477 123.895 64.103 123.787C63.9607 123.68 63.7845 123.597 63.5745 123.539C63.3645 123.481 63.1218 123.451 62.8465 123.451C62.6015 123.451 62.3775 123.475 62.1745 123.521C61.9738 123.566 61.8012 123.63 61.6565 123.714C61.5118 123.798 61.3987 123.898 61.317 124.015C61.2377 124.132 61.198 124.261 61.198 124.403C61.198 124.571 61.247 124.709 61.345 124.816C61.4453 124.921 61.5772 125.008 61.7405 125.075C61.9038 125.143 62.0882 125.198 62.2935 125.24C62.5012 125.28 62.7123 125.317 62.927 125.352L63.4415 125.436C63.6538 125.471 63.8767 125.511 64.11 125.555C64.3433 125.597 64.5743 125.654 64.803 125.726C65.0317 125.799 65.2498 125.89 65.4575 125.999C65.6652 126.107 65.8483 126.242 66.007 126.405C66.1657 126.569 66.2917 126.765 66.385 126.993C66.4783 127.22 66.525 127.488 66.525 127.798C66.525 128.183 66.448 128.525 66.294 128.824C66.14 129.123 65.9125 129.375 65.6115 129.58C65.3128 129.785 64.943 129.942 64.502 130.049C64.061 130.156 63.5535 130.21 62.9795 130.21C62.3798 130.21 61.8525 130.151 61.3975 130.032C60.9425 129.915 60.5622 129.743 60.2565 129.517C59.9508 129.288 59.721 129.008 59.567 128.677C59.413 128.343 59.336 127.962 59.336 127.532H61.0615C61.0615 127.948 61.2178 128.267 61.5305 128.491C61.8432 128.713 62.3227 128.824 62.969 128.824C63.256 128.824 63.5127 128.802 63.739 128.757C63.9677 128.713 64.1602 128.649 64.3165 128.565C64.4752 128.481 64.5953 128.377 64.677 128.253C64.761 128.13 64.803 127.989 64.803 127.83C64.803 127.704 64.7797 127.594 64.733 127.501C64.6863 127.408 64.6198 127.326 64.5335 127.256C64.4495 127.184 64.3492 127.123 64.2325 127.074C64.1158 127.023 63.9875 126.978 63.8475 126.941C63.7075 126.901 63.5582 126.866 63.3995 126.836C63.2432 126.806 63.0822 126.776 62.9165 126.748L62.3985 126.661C62.2538 126.635 62.101 126.607 61.94 126.577C61.7813 126.547 61.6192 126.512 61.4535 126.472C61.2902 126.43 61.128 126.381 60.967 126.325C60.806 126.267 60.652 126.198 60.505 126.118C60.358 126.039 60.2215 125.948 60.0955 125.845C59.9718 125.74 59.8633 125.62 59.77 125.485C59.679 125.347 59.6067 125.192 59.553 125.019C59.5017 124.847 59.476 124.653 59.476 124.438C59.476 124.074 59.5518 123.747 59.7035 123.455C59.8575 123.163 60.0792 122.916 60.3685 122.713C60.6578 122.508 61.009 122.35 61.422 122.24C61.8373 122.128 62.3052 122.072 62.8255 122.072ZM69.3461 130H67.5891V119.64H69.3461V124.557C69.4348 124.163 69.5619 123.812 69.7276 123.504C69.8933 123.196 70.0939 122.936 70.3296 122.724C70.5676 122.511 70.8383 122.35 71.1416 122.24C71.4449 122.128 71.7763 122.072 72.1356 122.072C72.5626 122.072 72.9418 122.152 73.2731 122.31C73.6068 122.467 73.8879 122.695 74.1166 122.996C74.3476 123.297 74.5226 123.667 74.6416 124.106C74.7606 124.542 74.8201 125.04 74.8201 125.6V130H73.0631V125.775C73.0631 124.343 72.4833 123.626 71.3236 123.626C71.0133 123.626 70.7356 123.677 70.4906 123.777C70.2456 123.877 70.0379 124.024 69.8676 124.218C69.6973 124.409 69.5678 124.645 69.4791 124.925C69.3904 125.205 69.3461 125.526 69.3461 125.887V130Z" fill="white"/>
<path opacity="0.2" d="M117.7 124.995C117.7 125.562 117.766 126.068 117.899 126.514C118.032 126.957 118.225 127.333 118.477 127.641C118.729 127.947 119.037 128.18 119.401 128.341C119.767 128.5 120.182 128.579 120.647 128.579C121.396 128.579 121.999 128.367 122.456 127.942C122.914 127.517 123.219 126.885 123.373 126.045H125.207C125.107 126.694 124.927 127.276 124.668 127.791C124.412 128.305 124.087 128.741 123.695 129.101C123.303 129.46 122.849 129.735 122.334 129.926C121.82 130.116 121.257 130.21 120.643 130.21C120.172 130.21 119.726 130.153 119.306 130.039C118.886 129.926 118.498 129.764 118.141 129.552C117.786 129.34 117.468 129.081 117.185 128.775C116.903 128.467 116.663 128.12 116.464 127.735C116.266 127.348 116.114 126.925 116.009 126.465C115.904 126.005 115.852 125.515 115.852 124.995C115.852 124.475 115.904 123.985 116.009 123.525C116.114 123.065 116.266 122.643 116.464 122.258C116.663 121.871 116.903 121.524 117.185 121.218C117.468 120.91 117.786 120.65 118.141 120.438C118.498 120.226 118.886 120.063 119.306 119.951C119.726 119.837 120.172 119.78 120.643 119.78C121.257 119.78 121.82 119.876 122.334 120.067C122.849 120.256 123.303 120.53 123.695 120.889C124.087 121.249 124.412 121.686 124.668 122.202C124.927 122.715 125.107 123.296 125.207 123.945H123.373C123.219 123.105 122.914 122.473 122.456 122.048C121.999 121.623 121.396 121.411 120.647 121.411C120.182 121.411 119.767 121.491 119.401 121.652C119.037 121.811 118.729 122.044 118.477 122.352C118.225 122.658 118.032 123.034 117.899 123.479C117.766 123.923 117.7 124.428 117.7 124.995ZM128.24 130H126.483V119.64H128.24V124.557C128.329 124.163 128.456 123.812 128.622 123.504C128.787 123.196 128.988 122.936 129.224 122.724C129.462 122.511 129.732 122.35 130.036 122.24C130.339 122.128 130.67 122.072 131.03 122.072C131.457 122.072 131.836 122.152 132.167 122.31C132.501 122.467 132.782 122.695 133.011 122.996C133.242 123.297 133.417 123.667 133.536 124.106C133.655 124.542 133.714 125.04 133.714 125.6V130H131.957V125.775C131.957 124.343 131.377 123.626 130.218 123.626C129.907 123.626 129.63 123.677 129.385 123.777C129.14 123.877 128.932 124.024 128.762 124.218C128.591 124.409 128.462 124.645 128.373 124.925C128.284 125.205 128.24 125.526 128.24 125.887V130ZM136.751 121.432H134.938V119.64H136.751V121.432ZM136.723 130H134.966V122.282H136.723V130ZM139.765 130H138.008V122.282H139.765V124.557C139.854 124.163 139.981 123.812 140.146 123.504C140.312 123.196 140.513 122.936 140.748 122.724C140.986 122.511 141.257 122.35 141.56 122.24C141.864 122.128 142.195 122.072 142.554 122.072C142.981 122.072 143.361 122.152 143.692 122.31C144.026 122.467 144.307 122.695 144.535 122.996C144.766 123.297 144.941 123.667 145.06 124.106C145.179 124.542 145.239 125.04 145.239 125.6V130H143.482V125.775C143.482 124.343 142.902 123.626 141.742 123.626C141.432 123.626 141.154 123.677 140.909 123.777C140.664 123.877 140.457 124.024 140.286 124.218C140.116 124.409 139.987 124.645 139.898 124.925C139.809 125.205 139.765 125.526 139.765 125.887V130ZM153.792 127.413C153.689 127.85 153.53 128.241 153.313 128.586C153.096 128.931 152.831 129.224 152.518 129.464C152.205 129.705 151.851 129.889 151.454 130.018C151.057 130.146 150.629 130.21 150.17 130.21C149.787 130.21 149.425 130.166 149.085 130.077C148.746 129.988 148.435 129.861 148.15 129.695C147.865 129.527 147.61 129.324 147.384 129.086C147.157 128.846 146.966 128.575 146.81 128.274C146.653 127.971 146.533 127.64 146.449 127.28C146.365 126.921 146.323 126.538 146.323 126.132C146.323 125.526 146.414 124.973 146.596 124.473C146.78 123.974 147.039 123.547 147.373 123.192C147.707 122.835 148.107 122.56 148.574 122.367C149.04 122.17 149.558 122.072 150.128 122.072C150.688 122.072 151.195 122.168 151.65 122.359C152.107 122.551 152.497 122.823 152.819 123.175C153.141 123.525 153.39 123.95 153.565 124.449C153.74 124.946 153.827 125.501 153.827 126.115C153.827 126.206 153.825 126.297 153.82 126.388C153.818 126.479 153.811 126.575 153.799 126.675H148.059C148.096 126.997 148.172 127.285 148.287 127.539C148.403 127.791 148.554 128.006 148.738 128.183C148.922 128.361 149.138 128.496 149.386 128.589C149.635 128.683 149.912 128.729 150.215 128.729C150.677 128.729 151.063 128.62 151.374 128.4C151.684 128.181 151.925 127.852 152.098 127.413H153.792ZM152.088 125.415C151.994 124.801 151.782 124.336 151.451 124.018C151.122 123.699 150.683 123.539 150.135 123.539C149.855 123.539 149.599 123.581 149.368 123.665C149.137 123.749 148.934 123.871 148.759 124.032C148.586 124.193 148.443 124.391 148.329 124.624C148.214 124.855 148.133 125.119 148.084 125.415H152.088ZM158.188 122.072C158.734 122.072 159.22 122.133 159.647 122.254C160.074 122.376 160.435 122.55 160.729 122.776C161.023 123.002 161.246 123.276 161.397 123.598C161.551 123.92 161.628 124.283 161.628 124.687H159.903C159.903 124.498 159.865 124.328 159.791 124.176C159.718 124.024 159.61 123.895 159.465 123.787C159.323 123.68 159.147 123.597 158.937 123.539C158.727 123.481 158.484 123.451 158.209 123.451C157.964 123.451 157.74 123.475 157.537 123.521C157.336 123.566 157.163 123.63 157.019 123.714C156.874 123.798 156.761 123.898 156.679 124.015C156.6 124.132 156.56 124.261 156.56 124.403C156.56 124.571 156.609 124.709 156.707 124.816C156.808 124.921 156.939 125.008 157.103 125.075C157.266 125.143 157.45 125.198 157.656 125.24C157.863 125.28 158.075 125.317 158.289 125.352L158.804 125.436C159.016 125.471 159.239 125.511 159.472 125.555C159.706 125.597 159.937 125.654 160.165 125.726C160.394 125.799 160.612 125.89 160.82 125.999C161.027 126.107 161.211 126.242 161.369 126.405C161.528 126.569 161.654 126.765 161.747 126.993C161.841 127.22 161.887 127.488 161.887 127.798C161.887 128.183 161.81 128.525 161.656 128.824C161.502 129.123 161.275 129.375 160.974 129.58C160.675 129.785 160.305 129.942 159.864 130.049C159.423 130.156 158.916 130.21 158.342 130.21C157.742 130.21 157.215 130.151 156.76 130.032C156.305 129.915 155.924 129.743 155.619 129.517C155.313 129.288 155.083 129.008 154.929 128.677C154.775 128.343 154.698 127.962 154.698 127.532H156.424C156.424 127.948 156.58 128.267 156.893 128.491C157.205 128.713 157.685 128.824 158.331 128.824C158.618 128.824 158.875 128.802 159.101 128.757C159.33 128.713 159.522 128.649 159.679 128.565C159.837 128.481 159.958 128.377 160.039 128.253C160.123 128.13 160.165 127.989 160.165 127.83C160.165 127.704 160.142 127.594 160.095 127.501C160.049 127.408 159.982 127.326 159.896 127.256C159.812 127.184 159.711 127.123 159.595 127.074C159.478 127.023 159.35 126.978 159.21 126.941C159.07 126.901 158.92 126.866 158.762 126.836C158.605 126.806 158.444 126.776 158.279 126.748L157.761 126.661C157.616 126.635 157.463 126.607 157.302 126.577C157.144 126.547 156.981 126.512 156.816 126.472C156.652 126.43 156.49 126.381 156.329 126.325C156.168 126.267 156.014 126.198 155.867 126.118C155.72 126.039 155.584 125.948 155.458 125.845C155.334 125.74 155.226 125.62 155.132 125.485C155.041 125.347 154.969 125.192 154.915 125.019C154.864 124.847 154.838 124.653 154.838 124.438C154.838 124.074 154.914 123.747 155.066 123.455C155.22 123.163 155.441 122.916 155.731 122.713C156.02 122.508 156.371 122.35 156.784 122.24C157.2 122.128 157.667 122.072 158.188 122.072ZM170.211 127.413C170.109 127.85 169.949 128.241 169.732 128.586C169.515 128.931 169.25 129.224 168.937 129.464C168.625 129.705 168.27 129.889 167.873 130.018C167.477 130.146 167.049 130.21 166.589 130.21C166.206 130.21 165.845 130.166 165.504 130.077C165.166 129.988 164.854 129.861 164.569 129.695C164.285 129.527 164.029 129.324 163.803 129.086C163.577 128.846 163.385 128.575 163.229 128.274C163.073 127.971 162.952 127.64 162.868 127.28C162.784 126.921 162.742 126.538 162.742 126.132C162.742 125.526 162.833 124.973 163.015 124.473C163.2 123.974 163.459 123.547 163.792 123.192C164.126 122.835 164.526 122.56 164.993 122.367C165.46 122.17 165.978 122.072 166.547 122.072C167.107 122.072 167.614 122.168 168.069 122.359C168.527 122.551 168.916 122.823 169.238 123.175C169.56 123.525 169.809 123.95 169.984 124.449C170.159 124.946 170.246 125.501 170.246 126.115C170.246 126.206 170.244 126.297 170.239 126.388C170.237 126.479 170.23 126.575 170.218 126.675H164.478C164.516 126.997 164.592 127.285 164.706 127.539C164.823 127.791 164.973 128.006 165.157 128.183C165.342 128.361 165.558 128.496 165.805 128.589C166.055 128.683 166.331 128.729 166.634 128.729C167.096 128.729 167.483 128.62 167.793 128.4C168.103 128.181 168.345 127.852 168.517 127.413H170.211ZM168.507 125.415C168.414 124.801 168.201 124.336 167.87 124.018C167.541 123.699 167.102 123.539 166.554 123.539C166.274 123.539 166.018 123.581 165.787 123.665C165.556 123.749 165.353 123.871 165.178 124.032C165.006 124.193 164.862 124.391 164.748 124.624C164.634 124.855 164.552 125.119 164.503 125.415H168.507Z" fill="white"/>
<path opacity="0.2" d="M75.8864 157.068L81.3149 162H78.7354L74.3079 157.926V162H72.4669V151.99H74.3079V156.407L78.5674 151.99H80.9579L75.8864 157.068ZM80.7881 158.139C80.7881 157.526 80.8802 156.969 81.0646 156.47C81.2512 155.971 81.5137 155.544 81.8521 155.189C82.1904 154.832 82.5952 154.557 83.0666 154.363C83.5379 154.169 84.0594 154.072 84.6311 154.072C85.2027 154.072 85.7242 154.169 86.1956 154.363C86.6669 154.557 87.0717 154.832 87.4101 155.189C87.7484 155.544 88.0097 155.971 88.1941 156.47C88.3807 156.969 88.4741 157.526 88.4741 158.139C88.4741 158.548 88.4321 158.932 88.3481 159.291C88.2641 159.65 88.1427 159.982 87.9841 160.285C87.8277 160.586 87.6352 160.855 87.4066 161.093C87.1802 161.331 86.9247 161.533 86.6401 161.699C86.3554 161.865 86.0439 161.991 85.7056 162.077C85.3696 162.166 85.0114 162.21 84.6311 162.21C84.2507 162.21 83.8914 162.166 83.5531 162.077C83.2147 161.991 82.9032 161.865 82.6186 161.699C82.3339 161.533 82.0784 161.331 81.8521 161.093C81.6257 160.855 81.4332 160.586 81.2746 160.285C81.1182 159.982 80.9981 159.65 80.9141 159.291C80.8301 158.932 80.7881 158.548 80.7881 158.139ZM82.5521 158.139C82.5521 158.534 82.5999 158.887 82.6956 159.2C82.7912 159.51 82.9277 159.774 83.1051 159.991C83.2847 160.206 83.5029 160.37 83.7596 160.484C84.0186 160.599 84.3102 160.656 84.6346 160.656C84.9589 160.656 85.2494 160.599 85.5061 160.484C85.7627 160.37 85.9797 160.206 86.1571 159.991C86.3367 159.774 86.4732 159.51 86.5666 159.2C86.6622 158.887 86.7101 158.534 86.7101 158.139C86.7101 157.745 86.6622 157.393 86.5666 157.082C86.4732 156.77 86.3367 156.506 86.1571 156.291C85.9797 156.077 85.7627 155.912 85.5061 155.798C85.2494 155.684 84.9589 155.626 84.6346 155.626C84.3102 155.626 84.0186 155.684 83.7596 155.798C83.5029 155.912 83.2847 156.078 83.1051 156.295C82.9277 156.51 82.7912 156.772 82.6956 157.082C82.5999 157.393 82.5521 157.745 82.5521 158.139ZM91.3466 162H89.5896V154.282H91.3466V156.855C91.4259 156.456 91.5414 156.098 91.6931 155.78C91.8471 155.463 92.0384 155.194 92.2671 154.972C92.4981 154.748 92.7688 154.578 93.0791 154.461C93.3894 154.342 93.7406 154.282 94.1326 154.282H94.5386V155.945H93.9576C93.4606 155.945 93.0453 155.994 92.7116 156.092C92.3779 156.188 92.1096 156.333 91.9066 156.529C91.7036 156.725 91.5589 156.973 91.4726 157.271C91.3886 157.57 91.3466 157.921 91.3466 158.325V162ZM102.694 159.413C102.591 159.85 102.432 160.241 102.215 160.586C101.998 160.931 101.733 161.224 101.42 161.464C101.107 161.705 100.753 161.889 100.356 162.018C99.9594 162.146 99.5312 162.21 99.0715 162.21C98.6889 162.21 98.3272 162.166 97.9865 162.077C97.6482 161.988 97.3367 161.861 97.052 161.695C96.7674 161.527 96.5119 161.324 96.2855 161.086C96.0592 160.846 95.8679 160.575 95.7115 160.274C95.5552 159.971 95.435 159.64 95.351 159.28C95.267 158.921 95.225 158.538 95.225 158.132C95.225 157.526 95.316 156.973 95.498 156.473C95.6824 155.974 95.9414 155.547 96.275 155.192C96.6087 154.835 97.0089 154.56 97.4755 154.367C97.9422 154.17 98.4602 154.072 99.0295 154.072C99.5895 154.072 100.097 154.168 100.552 154.359C101.009 154.551 101.399 154.823 101.721 155.175C102.043 155.525 102.292 155.95 102.467 156.449C102.642 156.946 102.729 157.501 102.729 158.115C102.729 158.206 102.727 158.297 102.722 158.388C102.72 158.479 102.713 158.575 102.701 158.675H96.961C96.9984 158.997 97.0742 159.285 97.1885 159.539C97.3052 159.791 97.4557 160.006 97.64 160.183C97.8244 160.361 98.0402 160.496 98.2875 160.589C98.5372 160.683 98.8137 160.729 99.117 160.729C99.579 160.729 99.9652 160.62 100.276 160.4C100.586 160.181 100.827 159.852 101 159.413H102.694ZM100.99 157.415C100.896 156.801 100.684 156.336 100.353 156.018C100.024 155.699 99.5849 155.539 99.0365 155.539C98.7565 155.539 98.501 155.581 98.27 155.665C98.039 155.749 97.836 155.871 97.661 156.032C97.4884 156.193 97.3449 156.391 97.2305 156.624C97.1162 156.855 97.0345 157.119 96.9855 157.415H100.99ZM103.798 157.04C103.798 156.585 103.882 156.175 104.05 155.808C104.218 155.442 104.457 155.131 104.767 154.874C105.08 154.615 105.459 154.417 105.905 154.279C106.353 154.141 106.855 154.072 107.41 154.072C107.991 154.072 108.51 154.148 108.967 154.3C109.427 154.452 109.816 154.671 110.133 154.958C110.453 155.245 110.696 155.596 110.864 156.011C111.032 156.427 111.116 156.897 111.116 157.422V162H109.359V159.977C109.268 160.322 109.131 160.634 108.946 160.911C108.764 161.187 108.542 161.421 108.278 161.615C108.014 161.806 107.714 161.953 107.378 162.056C107.045 162.159 106.682 162.21 106.29 162.21C105.882 162.21 105.509 162.154 105.173 162.042C104.84 161.932 104.554 161.777 104.316 161.576C104.078 161.376 103.894 161.134 103.763 160.852C103.635 160.567 103.57 160.252 103.57 159.907C103.57 159.548 103.642 159.226 103.784 158.941C103.926 158.656 104.13 158.415 104.396 158.216C104.665 158.018 104.991 157.866 105.376 157.761C105.761 157.654 106.195 157.6 106.678 157.6H109.359V157.422C109.359 157.13 109.314 156.869 109.223 156.638C109.132 156.405 109 156.206 108.827 156.043C108.657 155.88 108.449 155.755 108.204 155.668C107.959 155.582 107.683 155.539 107.375 155.539C107.062 155.539 106.79 155.575 106.559 155.647C106.331 155.717 106.142 155.818 105.992 155.948C105.843 156.079 105.732 156.237 105.66 156.421C105.588 156.605 105.551 156.812 105.551 157.04H103.798ZM106.78 158.832C106.299 158.832 105.935 158.913 105.688 159.074C105.443 159.235 105.32 159.473 105.32 159.788C105.32 160.119 105.455 160.374 105.723 160.551C105.994 160.726 106.383 160.813 106.892 160.813C107.251 160.813 107.581 160.77 107.882 160.684C108.186 160.595 108.446 160.473 108.663 160.316C108.882 160.16 109.053 159.975 109.174 159.76C109.298 159.543 109.359 159.307 109.359 159.053V158.832H106.78ZM114.13 162H112.373V154.282H114.13V156.557C114.219 156.163 114.346 155.812 114.511 155.504C114.677 155.196 114.878 154.936 115.113 154.724C115.351 154.511 115.622 154.35 115.925 154.24C116.229 154.128 116.56 154.072 116.919 154.072C117.346 154.072 117.726 154.152 118.057 154.31C118.391 154.467 118.672 154.695 118.9 154.996C119.131 155.297 119.306 155.667 119.425 156.106C119.544 156.542 119.604 157.04 119.604 157.6V162H117.847V157.775C117.847 156.343 117.267 155.626 116.107 155.626C115.797 155.626 115.519 155.677 115.274 155.777C115.029 155.877 114.822 156.024 114.651 156.218C114.481 156.409 114.352 156.645 114.263 156.925C114.174 157.205 114.13 157.526 114.13 157.887V162Z" fill="white"/>
<rect x="32.3438" y="192" width="341" height="56" rx="12" fill="white"/>
<path d="M80.4293 225L85.0463 212.13H88.4573L93.0113 225H90.4913L89.4788 221.971H83.9258L82.8953 225H80.4293ZM88.8038 219.955L86.7203 213.736L84.6098 219.955H88.8038ZM96.3549 225H94.0959V215.077H96.3549V218.385C96.4569 217.872 96.6054 217.411 96.8004 217.003C96.9984 216.595 97.2444 216.249 97.5384 215.964C97.8354 215.676 98.1834 215.457 98.5824 215.307C98.9814 215.154 99.4329 215.077 99.9369 215.077H100.459V217.215H99.7119C99.0729 217.215 98.5389 217.278 98.1099 217.404C97.6809 217.527 97.3359 217.714 97.0749 217.966C96.8139 218.218 96.6279 218.536 96.5169 218.92C96.4089 219.304 96.3549 219.756 96.3549 220.275V225ZM101.58 218.623C101.58 218.038 101.688 217.51 101.904 217.039C102.12 216.568 102.427 216.168 102.826 215.838C103.228 215.505 103.716 215.25 104.289 215.073C104.865 214.896 105.51 214.807 106.224 214.807C106.971 214.807 107.638 214.905 108.226 215.1C108.817 215.295 109.317 215.577 109.725 215.946C110.136 216.315 110.449 216.766 110.665 217.3C110.881 217.834 110.989 218.439 110.989 219.114V225H108.73V222.399C108.613 222.843 108.436 223.243 108.199 223.6C107.965 223.954 107.679 224.256 107.34 224.505C107.001 224.751 106.615 224.94 106.183 225.072C105.754 225.204 105.288 225.27 104.784 225.27C104.259 225.27 103.78 225.198 103.348 225.054C102.919 224.913 102.552 224.713 102.246 224.455C101.94 224.197 101.703 223.887 101.535 223.524C101.37 223.158 101.287 222.753 101.287 222.309C101.287 221.847 101.379 221.433 101.562 221.067C101.745 220.701 102.007 220.39 102.349 220.135C102.694 219.88 103.114 219.685 103.609 219.55C104.104 219.412 104.662 219.343 105.283 219.343H108.73V219.114C108.73 218.739 108.672 218.403 108.555 218.106C108.438 217.806 108.268 217.551 108.046 217.341C107.827 217.131 107.56 216.97 107.245 216.859C106.93 216.748 106.575 216.693 106.179 216.693C105.777 216.693 105.427 216.739 105.13 216.832C104.836 216.922 104.593 217.051 104.401 217.219C104.209 217.387 104.067 217.59 103.974 217.827C103.881 218.064 103.834 218.329 103.834 218.623H101.58ZM105.414 220.927C104.796 220.927 104.328 221.031 104.01 221.238C103.695 221.445 103.537 221.751 103.537 222.156C103.537 222.582 103.71 222.909 104.055 223.137C104.403 223.362 104.904 223.474 105.558 223.474C106.02 223.474 106.444 223.419 106.831 223.308C107.221 223.194 107.556 223.036 107.835 222.835C108.117 222.634 108.336 222.396 108.492 222.12C108.651 221.841 108.73 221.538 108.73 221.211V220.927H105.414ZM114.864 218.11C114.984 217.594 115.152 217.132 115.368 216.724C115.584 216.316 115.84 215.971 116.137 215.689C116.437 215.404 116.775 215.187 117.15 215.037C117.528 214.884 117.937 214.807 118.378 214.807C118.777 214.807 119.155 214.866 119.512 214.983C119.872 215.1 120.204 215.266 120.507 215.482C120.81 215.699 121.083 215.962 121.326 216.274C121.569 216.583 121.776 216.931 121.947 217.318C122.118 217.705 122.248 218.128 122.338 218.587C122.431 219.043 122.478 219.526 122.478 220.036C122.478 220.546 122.431 221.031 122.338 221.49C122.248 221.946 122.118 222.367 121.947 222.754C121.776 223.141 121.569 223.491 121.326 223.803C121.083 224.112 120.81 224.376 120.507 224.595C120.204 224.811 119.872 224.977 119.512 225.095C119.155 225.212 118.777 225.27 118.378 225.27C117.937 225.27 117.528 225.194 117.15 225.041C116.775 224.89 116.437 224.674 116.137 224.392C115.84 224.107 115.584 223.761 115.368 223.353C115.152 222.945 114.984 222.483 114.864 221.967V225H112.605V211.68H114.864V218.11ZM114.864 220.036C114.864 220.552 114.924 221.013 115.044 221.418C115.167 221.823 115.344 222.166 115.575 222.448C115.809 222.727 116.092 222.94 116.425 223.087C116.761 223.234 117.141 223.308 117.564 223.308C117.996 223.308 118.375 223.237 118.702 223.096C119.032 222.955 119.308 222.747 119.53 222.471C119.755 222.195 119.925 221.854 120.039 221.449C120.153 221.041 120.21 220.57 120.21 220.036C120.21 219.502 120.153 219.033 120.039 218.628C119.925 218.22 119.755 217.879 119.53 217.606C119.308 217.33 119.032 217.122 118.702 216.981C118.375 216.84 117.996 216.769 117.564 216.769C117.138 216.769 116.757 216.843 116.421 216.99C116.088 217.137 115.806 217.35 115.575 217.629C115.344 217.908 115.167 218.25 115.044 218.655C114.924 219.06 114.864 219.52 114.864 220.036ZM126.211 213.984H123.88V211.68H126.211V213.984ZM126.175 225H123.916V215.077H126.175V225ZM129.879 220.036C129.879 220.543 129.94 220.998 130.063 221.4C130.186 221.799 130.362 222.138 130.59 222.417C130.821 222.693 131.101 222.904 131.431 223.051C131.764 223.198 132.139 223.272 132.556 223.272C132.916 223.272 133.233 223.219 133.506 223.114C133.782 223.006 134.019 222.858 134.217 222.669C134.415 222.48 134.575 222.258 134.698 222.003C134.824 221.745 134.916 221.467 134.973 221.17H137.227C137.176 221.563 137.086 221.937 136.957 222.291C136.831 222.645 136.669 222.975 136.471 223.281C136.273 223.584 136.041 223.858 135.774 224.104C135.507 224.347 135.208 224.556 134.878 224.73C134.548 224.904 134.188 225.038 133.798 225.131C133.411 225.224 132.996 225.27 132.552 225.27C132.063 225.27 131.601 225.213 131.166 225.099C130.734 224.988 130.335 224.826 129.969 224.613C129.603 224.4 129.273 224.14 128.979 223.834C128.688 223.528 128.44 223.182 128.236 222.795C128.035 222.405 127.881 221.979 127.773 221.517C127.665 221.055 127.611 220.561 127.611 220.036C127.611 219.247 127.729 218.532 127.966 217.89C128.206 217.248 128.544 216.699 128.979 216.243C129.414 215.784 129.934 215.43 130.54 215.181C131.146 214.932 131.817 214.807 132.552 214.807C133.218 214.807 133.821 214.911 134.361 215.118C134.904 215.322 135.375 215.607 135.774 215.973C136.173 216.339 136.495 216.772 136.741 217.273C136.99 217.771 137.152 218.316 137.227 218.907H134.973C134.919 218.61 134.829 218.334 134.703 218.079C134.58 217.821 134.419 217.597 134.221 217.408C134.023 217.219 133.786 217.072 133.51 216.967C133.234 216.859 132.916 216.805 132.556 216.805C132.139 216.805 131.764 216.879 131.431 217.026C131.101 217.173 130.821 217.386 130.59 217.665C130.362 217.941 130.186 218.278 130.063 218.677C129.94 219.076 129.879 219.529 129.879 220.036Z" fill="#1A1A1A"/>
<path d="M61.3436 214.48C60.8773 214.141 59.7849 213.648 59.1455 214.388C58.3461 215.312 59.1455 216.144 59.645 216.329C60.0447 216.477 61.2104 216.514 61.7433 216.514C60.844 216.489 58.4318 216.144 57.7466 217.623C57.0615 219.103 57.2471 220.212 58.3462 221.321C59.4452 222.431 61.8432 221.968 62.3428 221.414" stroke="#1A1A1A" stroke-width="1.5" stroke-linecap="round"/>
<path d="M61.3438 225H66.3438C67.1394 225 67.9025 224.684 68.4651 224.121C69.0277 223.559 69.3438 222.796 69.3438 222V214C69.3438 213.204 69.0277 212.441 68.4651 211.879C67.9025 211.316 67.1394 211 66.3438 211H54.3438C53.5481 211 52.785 211.316 52.2224 211.879C51.6598 212.441 51.3438 213.204 51.3438 214V222C51.3438 222.796 51.6598 223.559 52.2224 224.121C52.785 224.684 53.5481 225 54.3438 225H56.3438V229L61.3438 225" stroke="#1A1A1A" stroke-width="1.5" stroke-linecap="round" stroke-linejoin="round"/>
<rect x="32.3438" y="264" width="341" height="56" rx="12" fill="white"/>
<path d="M57.6158 293L60.1616 286H60.7978L63.3429 293" stroke="#1A1A1A" stroke-width="1.12931" stroke-miterlimit="10"/>
<path d="M62.5796 290.455H59.0165" stroke="#1A1A1A" stroke-width="1.12931" stroke-miterlimit="10"/>
<path d="M56.3439 293H58.8891" stroke="#1A1A1A" stroke-width="1.12931" stroke-miterlimit="10"/>
<path d="M62.071 293H64.6162" stroke="#1A1A1A" stroke-width="1.12931" stroke-miterlimit="10"/>
<path d="M61.3438 297H66.3438C67.1394 297 67.9025 296.684 68.4651 296.121C69.0277 295.559 69.3438 294.796 69.3438 294V286C69.3438 285.204 69.0277 284.441 68.4651 283.879C67.9025 283.316 67.1394 283 66.3438 283H54.3438C53.5481 283 52.785 283.316 52.2224 283.879C51.6598 284.441 51.3438 285.204 51.3438 286V294C51.3438 294.796 51.6598 295.559 52.2224 296.121C52.785 296.684 53.5481 297 54.3438 297H56.3438V301L61.3438 297" stroke="#1A1A1A" stroke-width="1.5" stroke-linecap="round" stroke-linejoin="round"/>
<path d="M89.8298 284.13V286.218H83.4038V289.566H89.2988V291.591H83.4038V294.912H90.0008V297H81.0368V284.13H89.8298ZM93.6127 297H91.3537V287.077H93.6127V290.002C93.7267 289.495 93.8902 289.044 94.1032 288.648C94.3162 288.252 94.5742 287.917 94.8772 287.645C95.1832 287.371 95.5312 287.164 95.9212 287.023C96.3112 286.879 96.7372 286.807 97.1992 286.807C97.7482 286.807 98.2357 286.909 98.6617 287.113C99.0907 287.314 99.4522 287.608 99.7462 287.995C100.043 288.382 100.268 288.858 100.421 289.422C100.574 289.983 100.651 290.623 100.651 291.343V297H98.3917V291.568C98.3917 289.726 97.6462 288.805 96.1552 288.805C95.7562 288.805 95.3992 288.87 95.0842 288.999C94.7692 289.128 94.5022 289.317 94.2832 289.566C94.0642 289.812 93.8977 290.115 93.7837 290.475C93.6697 290.835 93.6127 291.247 93.6127 291.712V297ZM111.918 287.077V295.434C111.918 296.226 111.802 296.944 111.571 297.59C111.343 298.235 111.016 298.787 110.59 299.246C110.167 299.705 109.656 300.059 109.056 300.308C108.459 300.557 107.791 300.681 107.053 300.681C106.618 300.681 106.203 300.638 105.807 300.551C105.414 300.467 105.048 300.344 104.709 300.182C104.373 300.023 104.068 299.829 103.795 299.601C103.525 299.376 103.294 299.123 103.102 298.841C102.913 298.559 102.766 298.253 102.661 297.923C102.559 297.593 102.508 297.243 102.508 296.874H104.763C104.763 297.159 104.821 297.422 104.938 297.661C105.055 297.902 105.216 298.11 105.42 298.287C105.624 298.464 105.864 298.602 106.14 298.701C106.419 298.8 106.719 298.85 107.04 298.85C107.442 298.85 107.803 298.769 108.124 298.607C108.448 298.448 108.724 298.22 108.952 297.923C109.18 297.629 109.354 297.272 109.474 296.852C109.597 296.431 109.659 295.962 109.659 295.443V293.553C109.539 294.042 109.369 294.48 109.15 294.867C108.934 295.254 108.675 295.582 108.372 295.852C108.072 296.122 107.731 296.329 107.35 296.473C106.969 296.614 106.555 296.685 106.108 296.685C105.715 296.685 105.342 296.629 104.988 296.518C104.634 296.407 104.305 296.25 104.002 296.046C103.702 295.839 103.431 295.588 103.188 295.294C102.948 295 102.742 294.67 102.571 294.304C102.403 293.935 102.273 293.535 102.18 293.103C102.09 292.668 102.045 292.209 102.045 291.726C102.045 291.243 102.09 290.785 102.18 290.353C102.273 289.921 102.403 289.524 102.571 289.161C102.742 288.798 102.948 288.471 103.188 288.18C103.431 287.889 103.702 287.641 104.002 287.438C104.305 287.233 104.634 287.077 104.988 286.969C105.342 286.861 105.715 286.807 106.108 286.807C106.555 286.807 106.969 286.878 107.35 287.019C107.731 287.16 108.072 287.364 108.372 287.631C108.675 287.895 108.934 288.219 109.15 288.603C109.369 288.984 109.539 289.417 109.659 289.903V287.077H111.918ZM109.659 291.726C109.659 291.255 109.597 290.836 109.474 290.47C109.354 290.101 109.177 289.791 108.943 289.539C108.709 289.287 108.423 289.096 108.084 288.967C107.745 288.835 107.358 288.769 106.923 288.769C106.08 288.769 105.433 289.018 104.983 289.516C104.536 290.014 104.313 290.751 104.313 291.726C104.313 292.215 104.37 292.647 104.484 293.022C104.598 293.394 104.764 293.706 104.983 293.958C105.205 294.21 105.478 294.4 105.802 294.529C106.126 294.658 106.5 294.723 106.923 294.723C107.355 294.723 107.74 294.655 108.079 294.521C108.418 294.385 108.705 294.19 108.939 293.935C109.173 293.677 109.351 293.362 109.474 292.99C109.597 292.618 109.659 292.197 109.659 291.726ZM115.831 297H113.572V283.68H115.831V297ZM119.778 285.984H117.447V283.68H119.778V285.984ZM119.742 297H117.483V287.077H119.742V297ZM125.56 286.807C126.262 286.807 126.888 286.885 127.437 287.041C127.986 287.197 128.449 287.421 128.827 287.712C129.205 288.003 129.492 288.355 129.687 288.769C129.885 289.183 129.984 289.65 129.984 290.169H127.765C127.765 289.926 127.717 289.707 127.621 289.512C127.528 289.317 127.389 289.15 127.203 289.012C127.02 288.874 126.793 288.768 126.523 288.693C126.253 288.618 125.941 288.58 125.587 288.58C125.272 288.58 124.984 288.61 124.723 288.67C124.465 288.727 124.243 288.81 124.057 288.918C123.871 289.026 123.726 289.155 123.621 289.305C123.519 289.455 123.468 289.621 123.468 289.804C123.468 290.02 123.531 290.197 123.657 290.335C123.786 290.47 123.955 290.581 124.165 290.668C124.375 290.755 124.612 290.826 124.876 290.88C125.143 290.931 125.415 290.979 125.691 291.024L126.352 291.132C126.625 291.177 126.912 291.228 127.212 291.285C127.512 291.339 127.809 291.412 128.103 291.505C128.397 291.598 128.677 291.715 128.944 291.856C129.211 291.994 129.447 292.168 129.651 292.378C129.855 292.588 130.017 292.84 130.137 293.134C130.257 293.425 130.317 293.77 130.317 294.169C130.317 294.664 130.218 295.104 130.02 295.488C129.822 295.872 129.529 296.196 129.142 296.46C128.758 296.724 128.283 296.925 127.716 297.063C127.149 297.201 126.496 297.27 125.758 297.27C124.987 297.27 124.309 297.194 123.724 297.041C123.139 296.89 122.65 296.67 122.257 296.379C121.864 296.085 121.569 295.725 121.371 295.299C121.173 294.87 121.074 294.379 121.074 293.827H123.292C123.292 294.361 123.493 294.772 123.895 295.06C124.297 295.345 124.914 295.488 125.745 295.488C126.114 295.488 126.444 295.459 126.735 295.402C127.029 295.345 127.276 295.263 127.477 295.155C127.681 295.047 127.836 294.913 127.941 294.754C128.049 294.595 128.103 294.414 128.103 294.21C128.103 294.048 128.073 293.907 128.013 293.787C127.953 293.667 127.867 293.562 127.756 293.472C127.648 293.379 127.519 293.301 127.369 293.238C127.219 293.172 127.054 293.115 126.874 293.067C126.694 293.016 126.502 292.971 126.298 292.932C126.097 292.893 125.89 292.855 125.677 292.819L125.011 292.707C124.825 292.674 124.629 292.638 124.422 292.599C124.218 292.56 124.009 292.515 123.796 292.464C123.586 292.41 123.378 292.347 123.171 292.275C122.964 292.2 122.766 292.111 122.577 292.009C122.388 291.907 122.212 291.79 122.05 291.658C121.891 291.523 121.752 291.369 121.632 291.195C121.515 291.018 121.422 290.818 121.353 290.596C121.287 290.374 121.254 290.125 121.254 289.849C121.254 289.381 121.351 288.96 121.546 288.585C121.744 288.21 122.029 287.892 122.401 287.631C122.773 287.367 123.225 287.164 123.756 287.023C124.29 286.879 124.891 286.807 125.56 286.807ZM133.944 297H131.685V283.68H133.944V290.002C134.058 289.495 134.221 289.044 134.434 288.648C134.647 288.252 134.905 287.917 135.208 287.645C135.514 287.371 135.862 287.164 136.252 287.023C136.642 286.879 137.068 286.807 137.53 286.807C138.079 286.807 138.567 286.909 138.993 287.113C139.422 287.314 139.783 287.608 140.077 287.995C140.374 288.382 140.599 288.858 140.752 289.422C140.905 289.983 140.982 290.623 140.982 291.343V297H138.723V291.568C138.723 289.726 137.977 288.805 136.486 288.805C136.087 288.805 135.73 288.87 135.415 288.999C135.1 289.128 134.833 289.317 134.614 289.566C134.395 289.812 134.229 290.115 134.115 290.475C134.001 290.835 133.944 291.247 133.944 291.712V297Z" fill="#1A1A1A"/>
<defs>
<linearGradient id="paint0_linear_0_22" x1="203.009" y1="0" x2="203.009" y2="393" gradientUnits="userSpaceOnUse">
<stop stop-color="#35635B"/>
<stop offset="1" stop-color="#35635B"/>
</linearGradient>
</defs>
</svg>
