<svg width="40" height="40" viewBox="0 0 40 40" fill="none" xmlns="http://www.w3.org/2000/svg">
<path fill-rule="evenodd" clip-rule="evenodd" d="M16.0847 7.42957C17.8275 4.38645 22.2153 4.3889 23.9557 7.4319L35.9323 28.3735C37.662 31.3974 35.4766 35.1597 31.9958 35.1597H8.02418C4.54068 35.1597 2.35836 31.3949 4.0877 28.3718L16.0847 7.42957ZM22.046 8.52415C21.1498 6.95719 18.891 6.95626 17.9937 8.523L5.99732 29.4642C5.10666 31.0212 6.23101 32.9597 8.02418 32.9597H31.9958C33.7883 32.9597 34.9129 31.022 34.0227 29.4659L22.046 8.52415ZM20.0053 16.0898C20.6128 16.0898 21.1053 16.5823 21.1053 17.1898V22.3565C21.1053 22.964 20.6128 23.4565 20.0053 23.4565C19.3978 23.4565 18.9053 22.964 18.9053 22.3565V17.1898C18.9053 16.5823 19.3978 16.0898 20.0053 16.0898ZM19.9931 26.3977C19.3856 26.3977 18.8931 26.8902 18.8931 27.4977C18.8931 28.1052 19.3856 28.5977 19.9931 28.5977H20.0097C20.6172 28.5977 21.1097 28.1052 21.1097 27.4977C21.1097 26.8902 20.6172 26.3977 20.0097 26.3977H19.9931Z" fill="url(#paint0_linear_1007_6582)"/>
<defs>
<linearGradient id="paint0_linear_1007_6582" x1="10" y1="9.49854" x2="40.2737" y2="19.1377" gradientUnits="userSpaceOnUse">
<stop stop-color="#DB8016"/>
<stop offset="1" stop-color="#DBAC16"/>
</linearGradient>
</defs>
</svg>
