<svg width="41" height="40" viewBox="0 0 41 40" fill="none" xmlns="http://www.w3.org/2000/svg">
<path fill-rule="evenodd" clip-rule="evenodd" d="M13.6954 5.89844C11.7072 5.89844 10.0954 7.51021 10.0954 9.49843V12.0938H8.87223C6.12619 12.0938 3.90009 14.3199 3.90009 17.0659V29.4568C3.90009 32.2028 6.12619 34.4289 8.87223 34.4289H25.9097C28.6557 34.4289 30.8818 32.2028 30.8818 29.4568V28.2336H33.4771C35.4654 28.2336 37.0771 26.6218 37.0771 24.6336V9.49844C37.0771 7.51021 35.4654 5.89844 33.4771 5.89844H13.6954ZM29.7985 26.0336H33.4771C34.2503 26.0336 34.8771 25.4068 34.8771 24.6336V9.49844C34.8771 8.72524 34.2503 8.09844 33.4771 8.09844H13.6954C12.9222 8.09844 12.2954 8.72524 12.2954 9.49843V24.6336C12.2954 25.4068 12.9222 26.0336 13.6954 26.0336H29.7651C29.7707 26.0335 29.7763 26.0335 29.7818 26.0335C29.7874 26.0335 29.793 26.0335 29.7985 26.0336Z" fill="url(#paint0_linear_1007_6622)"/>
<defs>
<linearGradient id="paint0_linear_1007_6622" x1="9.50018" y1="9.99854" x2="40.3447" y2="19.098" gradientUnits="userSpaceOnUse">
<stop stop-color="#DB8016"/>
<stop offset="1" stop-color="#DBAC16"/>
</linearGradient>
</defs>
</svg>
