<svg width="41" height="40" viewBox="0 0 41 40" fill="none" xmlns="http://www.w3.org/2000/svg">
<path fill-rule="evenodd" clip-rule="evenodd" d="M10.6699 3.89844C7.30101 3.89844 4.56995 6.6295 4.56995 9.99844V14.9977V29.9984C4.56995 33.3674 7.30101 36.0984 10.6699 36.0984H17.3366C17.9441 36.0984 18.4366 35.606 18.4366 34.9984C18.4366 34.3909 17.9441 33.8984 17.3366 33.8984H10.6699C8.51604 33.8984 6.76995 32.1523 6.76995 29.9984V16.0977H34.5699V18.3318C34.5699 18.9393 35.0624 19.4318 35.6699 19.4318C36.2775 19.4318 36.7699 18.9393 36.7699 18.3318V14.9977V9.99844C36.7699 6.6295 34.0389 3.89844 30.6699 3.89844H10.6699ZM23.436 26.2484C23.436 24.7849 24.6224 23.5984 26.086 23.5984H31.9193C33.3828 23.5984 34.5693 24.7849 34.5693 26.2484V28.579C34.5693 31.54 32.4811 34.0897 29.5791 34.6739L29.5713 34.6754C29.1959 34.7505 28.8093 34.7505 28.4338 34.6754C25.5278 34.0942 23.436 31.5426 23.436 28.579V26.2484ZM21.236 28.579C21.236 32.5913 24.068 36.0458 28.0024 36.8327C28.6596 36.9642 29.3363 36.9647 29.9937 36.8345L30.003 36.8326C33.9373 36.0457 36.7693 32.5912 36.7693 28.579V26.2484C36.7693 23.5699 34.5979 21.3984 31.9193 21.3984H26.086C23.4074 21.3984 21.236 23.5699 21.236 26.2484V28.579ZM31.8644 28.2763C32.294 27.8467 32.294 27.1502 31.8644 26.7206C31.4349 26.291 30.7384 26.291 30.3088 26.7206L28.5866 28.4428L27.6978 27.554C27.2682 27.1244 26.5717 27.1244 26.1421 27.554C25.7126 27.9835 25.7126 28.68 26.1421 29.1096L27.8088 30.7763C28.2384 31.2058 28.9349 31.2058 29.3644 30.7763L31.8644 28.2763ZM9.89167 9.21085C10.3212 8.78128 11.0177 8.78128 11.4473 9.21085L11.4556 9.21919C11.8852 9.64876 11.8852 10.3452 11.4556 10.7748L11.4473 10.7832C11.0177 11.2127 10.3212 11.2127 9.89167 10.7832L9.88334 10.7748C9.45376 10.3452 9.45376 9.64876 9.88334 9.21919L9.89167 9.21085ZM15.6153 9.21085C15.1857 8.78128 14.4892 8.78128 14.0596 9.21085L14.0513 9.21919C13.6217 9.64876 13.6217 10.3452 14.0513 10.7748L14.0596 10.7832C14.4892 11.2127 15.1857 11.2127 15.6153 10.7832L15.6236 10.7748C16.0532 10.3452 16.0532 9.64876 15.6236 9.21919L15.6153 9.21085ZM19.7813 9.21085C19.3517 8.78128 18.6552 8.78128 18.2257 9.21085L18.2173 9.21919C17.7877 9.64876 17.7877 10.3452 18.2173 10.7748L18.2257 10.7832C18.6552 11.2127 19.3517 11.2127 19.7813 10.7832L19.7896 10.7748C20.2192 10.3452 20.2192 9.64876 19.7896 9.21919L19.7813 9.21085Z" fill="url(#paint0_linear_1007_6587)"/>
<defs>
<linearGradient id="paint0_linear_1007_6587" x1="6.00012" y1="6.49853" x2="41.1933" y2="16.2837" gradientUnits="userSpaceOnUse">
<stop stop-color="#DB8016"/>
<stop offset="1" stop-color="#DBAC16"/>
</linearGradient>
</defs>
</svg>
