<svg width="41" height="40" viewBox="0 0 41 40" fill="none" xmlns="http://www.w3.org/2000/svg">
<path fill-rule="evenodd" clip-rule="evenodd" d="M10.3399 3.89844C6.97099 3.89844 4.23993 6.6295 4.23993 9.99844V29.9984C4.23993 33.3674 6.97099 36.0984 10.3399 36.0984H17.0066C17.6141 36.0984 18.1066 35.606 18.1066 34.9984C18.1066 34.3909 17.6141 33.8984 17.0066 33.8984H10.3399C8.18602 33.8984 6.43993 32.1523 6.43993 29.9984V9.99844C6.43993 7.84453 8.18602 6.09844 10.3399 6.09844H28.6733C30.8272 6.09844 32.5733 7.84453 32.5733 9.99844V14.9984C32.5733 15.606 33.0657 16.0984 33.6733 16.0984C34.2808 16.0984 34.7733 15.606 34.7733 14.9984V9.99844C34.7733 6.6295 32.0422 3.89844 28.6733 3.89844H10.3399ZM20.34 26.8392C20.34 30.7632 23.1097 34.1416 26.9575 34.9112C27.5401 35.0277 28.1402 35.0276 28.7228 34.9111C32.5704 34.1415 35.34 30.7631 35.34 26.8392V24.1652C35.34 21.864 33.4745 19.9985 31.1734 19.9985H24.5067C22.2055 19.9985 20.34 21.864 20.34 24.1652V26.8392ZM10.9069 13.3319C10.9069 12.7244 11.3994 12.2319 12.0069 12.2319H27.0069C27.6144 12.2319 28.1069 12.7244 28.1069 13.3319C28.1069 13.9394 27.6144 14.4319 27.0069 14.4319H12.0069C11.3994 14.4319 10.9069 13.9394 10.9069 13.3319ZM12.0069 18.8984C11.3994 18.8984 10.9069 19.3909 10.9069 19.9984C10.9069 20.606 11.3994 21.0984 12.0069 21.0984H15.3403C15.9478 21.0984 16.4403 20.606 16.4403 19.9984C16.4403 19.3909 15.9478 18.8984 15.3403 18.8984H12.0069ZM10.9069 26.6652C10.9069 26.0577 11.3994 25.5652 12.0069 25.5652H13.6736C14.2811 25.5652 14.7736 26.0577 14.7736 26.6652C14.7736 27.2727 14.2811 27.7652 13.6736 27.7652H12.0069C11.3994 27.7652 10.9069 27.2727 10.9069 26.6652ZM30.6614 26.6083C31.0909 26.1787 31.0909 25.4822 30.6614 25.0527C30.2318 24.6231 29.5353 24.6231 29.1057 25.0527L27.3835 26.7748L26.4947 25.886C26.0651 25.4564 25.3686 25.4564 24.9391 25.886C24.5095 26.3156 24.5095 27.012 24.9391 27.4416L26.6057 29.1083C26.812 29.3146 27.0918 29.4305 27.3835 29.4305C27.6753 29.4305 27.9551 29.3146 28.1614 29.1083L30.6614 26.6083Z" fill="url(#paint0_linear_1007_6577)"/>
<defs>
<linearGradient id="paint0_linear_1007_6577" x1="6.00018" y1="5.99853" x2="38.4005" y2="18.8019" gradientUnits="userSpaceOnUse">
<stop stop-color="#DB8016"/>
<stop offset="1" stop-color="#DBAC16"/>
</linearGradient>
</defs>
</svg>
