<svg width="41" height="40" viewBox="0 0 41 40" fill="none" xmlns="http://www.w3.org/2000/svg">
<path fill-rule="evenodd" clip-rule="evenodd" d="M6.43994 10.8318C6.43994 9.71754 6.44464 8.88141 6.52903 8.21206C6.61234 7.55128 6.75936 7.19249 6.94292 6.96488C7.11415 6.75256 7.41874 6.52937 8.08807 6.36161C8.77488 6.18947 9.75626 6.09844 11.1733 6.09844C12.5903 6.09844 13.5717 6.18947 14.2585 6.36161C14.9278 6.52937 15.2324 6.75256 15.4036 6.96488C15.5872 7.19249 15.7342 7.55128 15.8175 8.21205C15.9019 8.88141 15.9066 9.71754 15.9066 10.8318C15.9066 11.9499 15.906 12.7864 15.8258 13.4588C15.7466 14.1226 15.6034 14.4789 15.4244 14.7033C15.2585 14.9113 14.9593 15.1338 14.287 15.3017C13.597 15.474 12.6074 15.5651 11.1733 15.5651C9.73911 15.5651 8.74951 15.474 8.05958 15.3017C7.38721 15.1338 7.08801 14.9113 6.92218 14.7033C6.74318 14.4789 6.59994 14.1226 6.52074 13.4588C6.44053 12.7864 6.43994 11.9499 6.43994 10.8318ZM11.1733 3.89844C9.69704 3.89844 8.50264 3.98965 7.55321 4.22761C6.58631 4.46996 5.79422 4.88472 5.23042 5.58381C4.67896 6.26762 4.45261 7.0937 4.34631 7.93686C4.24109 8.77145 4.23994 9.75832 4.23994 10.8318L4.23993 10.9205C4.23986 11.9559 4.23978 12.9109 4.33623 13.7194C4.43645 14.5595 4.65433 15.3881 5.20218 16.0751C5.76322 16.7785 6.55661 17.194 7.5266 17.4362C8.47902 17.674 9.68154 17.7651 11.1733 17.7651C12.665 17.7651 13.8675 17.674 14.8199 17.4362C15.7899 17.194 16.5833 16.7785 17.1444 16.0751C17.6922 15.3881 17.9101 14.5595 18.0103 13.7194C18.1068 12.9109 18.1067 11.9559 18.1066 10.9205V10.9205V10.9205V10.9205L18.1066 10.8318C18.1066 9.75832 18.1055 8.77145 18.0002 7.93686C17.8939 7.0937 17.6676 6.26762 17.1161 5.58381C16.5523 4.88472 15.7602 4.46996 14.7933 4.22761C13.8439 3.98965 12.6495 3.89844 11.1733 3.89844ZM24.772 10.8318C24.772 9.71754 24.7767 8.88141 24.8611 8.21206C24.9444 7.55128 25.0914 7.19249 25.275 6.96488C25.4462 6.75256 25.7508 6.52937 26.4201 6.36161C27.1069 6.18947 28.0883 6.09844 29.5053 6.09844C30.9223 6.09844 31.9037 6.18947 32.5905 6.36161C33.2598 6.52937 33.5644 6.75256 33.7357 6.96488C33.9192 7.19249 34.0662 7.55128 34.1495 8.21205C34.2339 8.88141 34.2386 9.71754 34.2386 10.8318C34.2386 11.9499 34.238 12.7864 34.1578 13.4588C34.0786 14.1226 33.9354 14.4789 33.7564 14.7033C33.5906 14.9113 33.2914 15.1338 32.619 15.3017C31.9291 15.474 30.9395 15.5651 29.5053 15.5651C28.0711 15.5651 27.0815 15.474 26.3916 15.3017C25.7192 15.1338 25.42 14.9113 25.2542 14.7033C25.0752 14.4789 24.932 14.1226 24.8528 13.4588C24.7726 12.7864 24.772 11.9499 24.772 10.8318ZM29.5053 3.89844C28.0291 3.89844 26.8347 3.98965 25.8852 4.22761C24.9183 4.46996 24.1262 4.88472 23.5625 5.58381C23.011 6.26762 22.7846 7.0937 22.6783 7.93686C22.5731 8.77145 22.572 9.75832 22.572 10.8318L22.572 10.9205C22.5719 11.9559 22.5718 12.9109 22.6683 13.7194C22.7685 14.5595 22.9864 15.3881 23.5342 16.0751C24.0953 16.7785 24.8886 17.194 25.8586 17.4362C26.8111 17.674 28.0136 17.7651 29.5053 17.7651C30.997 17.7651 32.1996 17.674 33.152 17.4362C34.122 17.194 34.9154 16.7785 35.4764 16.0751C36.0242 15.3881 36.2421 14.5595 36.3423 13.7194C36.4388 12.9109 36.4387 11.9559 36.4386 10.9205V10.9205L36.4386 10.8318C36.4386 9.75832 36.4375 8.77145 36.3323 7.93686C36.226 7.0937 35.9996 6.26762 35.4482 5.58381C34.8844 4.88472 34.0923 4.46996 33.1254 4.22761C32.1759 3.98965 30.9815 3.89844 29.5053 3.89844ZM6.52903 26.546C6.44464 27.2154 6.43994 28.0515 6.43994 29.1658C6.43994 30.2839 6.44053 31.1204 6.52074 31.7928C6.59994 32.4566 6.74318 32.8129 6.92218 33.0373C7.08801 33.2453 7.38721 33.4678 8.05958 33.6357C8.74951 33.808 9.73911 33.8991 11.1733 33.8991C12.6074 33.8991 13.597 33.808 14.287 33.6357C14.9593 33.4678 15.2585 33.2453 15.4244 33.0373C15.6034 32.8129 15.7466 32.4566 15.8258 31.7928C15.906 31.1204 15.9066 30.2839 15.9066 29.1658C15.9066 28.0515 15.9019 27.2154 15.8175 26.546C15.7342 25.8853 15.5872 25.5265 15.4036 25.2989C15.2324 25.0865 14.9278 24.8634 14.2585 24.6956C13.5717 24.5235 12.5903 24.4324 11.1733 24.4324C9.75626 24.4324 8.77488 24.5235 8.08807 24.6956C7.41874 24.8634 7.11415 25.0865 6.94292 25.2989C6.75936 25.5265 6.61234 25.8853 6.52903 26.546ZM7.55321 22.5616C8.50264 22.3236 9.69704 22.2324 11.1733 22.2324C12.6495 22.2324 13.8439 22.3236 14.7933 22.5616C15.7602 22.8039 16.5523 23.2187 17.1161 23.9178C17.6676 24.6016 17.8939 25.4277 18.0002 26.2708C18.1055 27.1054 18.1066 28.0923 18.1066 29.1658L18.1066 29.2545C18.1067 30.2899 18.1068 31.2449 18.0103 32.0534C17.9101 32.8934 17.6922 33.7221 17.1444 34.409C16.5833 35.1125 15.7899 35.5279 14.8199 35.7701C13.8675 36.008 12.665 36.0991 11.1733 36.0991C9.68154 36.0991 8.47902 36.008 7.5266 35.7701C6.55661 35.5279 5.76322 35.1125 5.20218 34.409C4.65433 33.7221 4.43645 32.8934 4.33623 32.0534C4.23978 31.2449 4.23986 30.2899 4.23993 29.2545L4.23994 29.1658C4.23994 28.0923 4.24109 27.1054 4.34631 26.2708C4.45261 25.4277 4.67896 24.6016 5.23042 23.9178C5.79422 23.2187 6.58631 22.8039 7.55321 22.5616ZM25.8852 22.5616C26.8347 22.3236 28.0291 22.2324 29.5053 22.2324C30.9815 22.2324 32.1759 22.3236 33.1254 22.5616C34.0923 22.8039 34.8844 23.2187 35.4482 23.9178C35.9996 24.6016 36.226 25.4277 36.3323 26.2708C36.4375 27.1054 36.4386 28.0923 36.4386 29.1658L36.4386 29.2545V29.2545C36.4387 30.2899 36.4388 31.2449 36.3423 32.0534C36.2421 32.8934 36.0242 33.7221 35.4764 34.409C34.9154 35.1125 34.122 35.5279 33.152 35.7701C32.1996 36.008 30.997 36.0991 29.5053 36.0991C28.0136 36.0991 26.8111 36.008 25.8586 35.7701C24.8886 35.5279 24.0953 35.1125 23.5342 34.409C22.9864 33.7221 22.7685 32.8934 22.6683 32.0534C22.5718 31.2449 22.5719 30.2899 22.572 29.2545L22.572 29.1658C22.572 28.0923 22.5731 27.1054 22.6783 26.2708C22.7846 25.4277 23.011 24.6016 23.5625 23.9178C24.1262 23.2187 24.9183 22.8039 25.8852 22.5616Z" fill="url(#paint0_linear_1007_6607)"/>
<defs>
<linearGradient id="paint0_linear_1007_6607" x1="4.00018" y1="5.99853" x2="40.5293" y2="15.3698" gradientUnits="userSpaceOnUse">
<stop stop-color="#DB8016"/>
<stop offset="1" stop-color="#DBAC16"/>
</linearGradient>
</defs>
</svg>
