<svg width="40" height="40" viewBox="0 0 40 40" fill="none" xmlns="http://www.w3.org/2000/svg">
<path fill-rule="evenodd" clip-rule="evenodd" d="M23.0249 5.70395V9.43271C23.0249 12.4058 25.429 14.816 28.4018 14.8244L28.4049 14.8244H31.9035V28.674L31.9035 28.6818C31.9242 31.5747 29.6525 33.9638 26.7652 34.0923H13.4735C13.4617 34.0923 13.4498 34.0925 13.438 34.0929C13.4235 34.0933 13.4192 34.0932 13.4083 34.093C13.3969 34.0928 13.3783 34.0924 13.3333 34.0923C10.4244 34.0215 8.11985 31.6089 8.18322 28.6979L8.18348 28.674V10.8325C8.25748 7.97262 10.6053 5.69294 13.4692 5.70395H23.0249ZM24.1249 3.48438C24.1959 3.48438 24.2653 3.4911 24.3326 3.50395H24.5618C24.8613 3.50395 25.1479 3.6261 25.3553 3.84217L33.797 12.6355C33.9937 12.8404 34.1035 13.1133 34.1035 13.3973V28.6702C34.1305 32.7551 30.9142 36.1257 26.8331 36.2914C26.8182 36.292 26.8034 36.2923 26.7885 36.2923H13.4867C13.4202 36.2936 13.3341 36.2925 13.3217 36.2923H13.3214L13.3201 36.2923L13.2957 36.292C9.17078 36.2003 5.90043 32.7855 5.98348 28.6624V10.819C5.98348 10.8103 5.98358 10.8017 5.98379 10.793C6.07956 6.72945 9.41121 3.48949 13.4755 3.50395H23.9172C23.9845 3.4911 24.0539 3.48438 24.1249 3.48438ZM13.7124 25.5993C13.7124 24.9918 14.2049 24.4993 14.8124 24.4993H23.8124C24.4199 24.4993 24.9124 24.9918 24.9124 25.5993C24.9124 26.2068 24.4199 26.6993 23.8124 26.6993H14.8124C14.2049 26.6993 13.7124 26.2068 13.7124 25.5993ZM14.8085 18.2434C14.201 18.2434 13.7085 18.7359 13.7085 19.3434C13.7085 19.9509 14.201 20.4434 14.8085 20.4434H20.4018C21.0093 20.4434 21.5018 19.9509 21.5018 19.3434C21.5018 18.7359 21.0093 18.2434 20.4018 18.2434H14.8085Z" fill="url(#paint0_linear_1007_6612)"/>
<defs>
<linearGradient id="paint0_linear_1007_6612" x1="8.5" y1="6.50049" x2="38.9924" y2="15.7386" gradientUnits="userSpaceOnUse">
<stop stop-color="#DB8016"/>
<stop offset="1" stop-color="#DBAC16"/>
</linearGradient>
</defs>
</svg>
