<svg width="41" height="40" viewBox="0 0 41 40" fill="none" xmlns="http://www.w3.org/2000/svg">
<path fill-rule="evenodd" clip-rule="evenodd" d="M13.8199 27.6035C14.161 27.6035 14.5022 27.6467 14.8359 27.7361C15.843 28.0072 16.7175 28.6806 17.2359 29.5849C17.5726 30.1525 17.7588 30.8154 17.7648 31.4918C17.7648 32.4601 18.5424 33.2363 19.4988 33.2363H21.3655C22.3175 33.2363 23.0951 32.4646 23.0996 31.5126C23.0936 30.4608 23.5048 29.4612 24.2571 28.7089C24.999 27.967 26.0359 27.5215 27.0728 27.5513C27.7521 27.5677 28.4061 27.751 28.9827 28.0787C29.8125 28.5539 30.8717 28.2709 31.3514 27.4515L32.3406 25.8024C32.5611 25.4225 32.6251 24.9457 32.5074 24.5063C32.3912 24.0668 32.0992 23.6854 31.7059 23.4605C30.7853 22.9301 30.1283 22.075 29.8557 21.05C29.586 20.0444 29.7335 18.9465 30.2594 18.0422C30.602 17.4463 31.1041 16.9442 31.7059 16.5986C32.5134 16.1264 32.7965 15.0701 32.3272 14.2478C32.3078 14.215 32.2899 14.1807 32.275 14.145L31.402 12.6314C30.9268 11.8046 29.8691 11.52 29.0393 11.9923C28.1424 12.5226 27.0758 12.6746 26.0508 12.4049C25.0274 12.1398 24.1693 11.4917 23.6344 10.577C23.2918 10.0049 23.1056 9.339 23.0996 8.66116C23.113 8.15166 22.9342 7.69431 22.6095 7.35911C22.2862 7.0254 21.8318 6.8362 21.3655 6.8362H19.4988C19.037 6.8362 18.605 7.01647 18.2787 7.34123C17.954 7.66749 17.7767 8.10101 17.7797 8.56284C17.7484 10.7409 15.9681 12.4943 13.8124 12.4943C13.1212 12.4869 12.4553 12.3006 11.8772 11.955C11.0653 11.4932 10.0046 11.7777 9.52937 12.6046L8.5208 14.2627C8.05897 15.0642 8.34203 16.1234 9.16438 16.6016C10.3845 17.3077 11.1458 18.6247 11.1458 20.037C11.1458 21.4493 10.3845 22.7647 9.1614 23.4724C8.34352 23.9461 8.06046 24.9994 8.53421 25.8187L9.47425 27.4396C9.70665 27.8582 10.0865 28.1606 10.526 28.2843C10.964 28.4065 11.4467 28.3543 11.8489 28.1309C12.4404 27.7837 13.1286 27.6035 13.8199 27.6035ZM21.3658 35.4709H19.4991C17.3107 35.4709 15.5304 33.6921 15.5304 31.5037C15.5274 31.234 15.45 30.954 15.3055 30.7111C15.0716 30.3029 14.6932 30.0109 14.2567 29.8947C13.8231 29.7785 13.3479 29.8426 12.9576 30.069C12.022 30.5905 10.9211 30.7171 9.91401 30.434C8.90842 30.1495 8.03989 29.4582 7.53039 28.542L6.59929 26.9376C5.51027 25.0485 6.15832 22.6277 8.04436 21.5372C8.57918 21.2288 8.9114 20.6537 8.9114 20.037C8.9114 19.4202 8.57918 18.8437 8.04436 18.5353C6.15683 17.4388 5.51027 15.012 6.5978 13.123L7.60786 11.4649C8.68197 9.59673 11.1103 8.93826 13.0038 10.0258C13.2615 10.1792 13.5416 10.2567 13.8261 10.2597C14.7542 10.2597 15.5304 9.49394 15.5453 8.55241C15.5393 7.51405 15.949 6.5174 16.6954 5.76507C17.4447 5.01423 18.4399 4.60156 19.4991 4.60156H21.3658C22.4325 4.60156 23.4693 5.03955 24.2127 5.80082C24.9546 6.56656 25.3643 7.61684 25.333 8.68202C25.336 8.92187 25.415 9.19897 25.558 9.4418C25.7949 9.84403 26.1688 10.1271 26.6127 10.2433C27.0567 10.3535 27.5215 10.2939 27.9163 10.06C29.8232 8.97103 32.25 9.62355 33.339 11.5155L34.2671 13.123C34.291 13.1662 34.3118 13.2079 34.3297 13.2511C35.3159 15.1148 34.6574 17.4612 32.825 18.5323C32.5584 18.6858 32.3424 18.9003 32.1934 19.1595C31.9625 19.5603 31.8984 20.037 32.0146 20.475C32.1338 20.9219 32.4183 21.2929 32.8191 21.5223C33.7234 22.0422 34.3982 22.9182 34.6679 23.9297C34.9375 24.9398 34.79 26.0362 34.2642 26.9405L33.275 28.5882C32.1859 30.4594 29.7591 31.1074 27.8716 30.0169C27.6198 29.8724 27.3293 29.7934 27.0403 29.786H27.0314C26.6008 29.786 26.1584 29.9692 25.8366 30.2895C25.5103 30.6158 25.3315 31.0508 25.3345 31.5126C25.3241 33.7011 23.5438 35.4709 21.3658 35.4709ZM20.3489 13.0718C16.5603 13.1189 13.5035 16.2048 13.5035 20.0046C13.5035 23.8338 16.6077 26.938 20.4369 26.938C24.266 26.938 27.3702 23.8338 27.3702 20.0046C27.3702 16.2049 24.3137 13.1191 20.5252 13.0718C21.0915 13.1168 21.537 13.5905 21.537 14.1684V19.4362L25.8106 22.4909C26.3048 22.8441 26.4191 23.5312 26.0658 24.0254C25.7126 24.5197 25.0255 24.6339 24.5313 24.2807L20.4371 21.3542L16.3429 24.2807C15.8487 24.6339 15.1616 24.5197 14.8083 24.0254C14.4551 23.5312 14.5693 22.8441 15.0636 22.4909L19.337 19.4362V14.1684C19.337 13.5905 19.7826 13.1167 20.3489 13.0718Z" fill="url(#paint0_linear_1057_7632)"/>
<defs>
<linearGradient id="paint0_linear_1057_7632" x1="9.50012" y1="10.0015" x2="36.0414" y2="19.6872" gradientUnits="userSpaceOnUse">
<stop stop-color="#DB8016"/>
<stop offset="1" stop-color="#DBAC16"/>
</linearGradient>
</defs>
</svg>
