<svg width="41" height="40" viewBox="0 0 41 40" fill="none" xmlns="http://www.w3.org/2000/svg">
<path fill-rule="evenodd" clip-rule="evenodd" d="M9.00381 3.89844C9.61132 3.89844 10.1038 4.39092 10.1038 4.99844V8.37788C10.9302 8.57445 11.7141 8.99509 12.3588 9.63978C14.2137 11.4948 14.2137 14.5023 12.3588 16.3573C11.7141 17.002 10.9302 17.4226 10.1038 17.6192V34.9978C10.1038 35.6053 9.61132 36.0978 9.00381 36.0978C8.3963 36.0978 7.90381 35.6053 7.90381 34.9978V17.621C7.07466 17.4252 6.28792 17.004 5.64124 16.3573L6.17157 15.827L5.64124 16.3573C3.78625 14.5023 3.78625 11.4948 5.64124 9.63978C6.28791 8.9931 7.07466 8.57187 7.90381 8.37607V4.99844C7.90381 4.39092 8.3963 3.89844 9.00381 3.89844ZM21.7698 4.99844C21.7698 4.39092 21.2773 3.89844 20.6698 3.89844C20.0623 3.89844 19.5698 4.39092 19.5698 4.99844V22.4679C18.8643 22.69 18.2004 23.0806 17.6412 23.6398C15.7863 25.4948 15.7863 28.5023 17.6412 30.3573C18.2004 30.9165 18.8643 31.3071 19.5698 31.5291V34.9984C19.5698 35.606 20.0623 36.0984 20.6698 36.0984C21.2773 36.0984 21.7698 35.606 21.7698 34.9984V31.6861C22.7177 31.5312 23.6277 31.0883 24.3588 30.3573C26.2137 28.5023 26.2137 25.4948 24.3588 23.6398C23.6277 22.9088 22.7177 22.4658 21.7698 22.311V4.99844ZM33.4378 4.99844C33.4378 4.39092 32.9453 3.89844 32.3378 3.89844C31.7303 3.89844 31.2378 4.39092 31.2378 4.99844V8.30973C30.2871 8.46346 29.3742 8.90681 28.6412 9.63978C26.7863 11.4948 26.7863 14.5023 28.6412 16.3573C29.3742 17.0903 30.2871 17.5336 31.2378 17.6873V34.9978C31.2378 35.6053 31.7303 36.0978 32.3378 36.0978C32.9453 36.0978 33.4378 35.6053 33.4378 34.9978V17.5267C34.1404 17.3043 34.8016 16.9145 35.3588 16.3573C37.2137 14.5023 37.2137 11.4948 35.3588 9.63978C34.8016 9.08261 34.1404 8.6928 33.4378 8.47034V4.99844Z" fill="url(#paint0_linear_1007_6572)"/>
<defs>
<linearGradient id="paint0_linear_1007_6572" x1="5.5" y1="3.99854" x2="41.9876" y2="17.6188" gradientUnits="userSpaceOnUse">
<stop stop-color="#DB8016"/>
<stop offset="1" stop-color="#DBAC16"/>
</linearGradient>
</defs>
</svg>
