<svg width="40" height="40" viewBox="0 0 40 40" fill="none" xmlns="http://www.w3.org/2000/svg">
<path d="M31.6338 11.625L35.0005 14.9917" stroke="url(#paint0_linear_2224_3375)" stroke-width="2.5" stroke-linecap="round" stroke-linejoin="round"/>
<path fill-rule="evenodd" clip-rule="evenodd" d="M31.6324 4.75989C33.531 6.65849 33.531 9.73672 31.6324 11.6353C29.7338 13.5339 26.6556 13.5339 24.757 11.6353C22.8584 9.73672 22.8584 6.65849 24.757 4.75989C26.6556 2.86129 29.7338 2.86129 31.6324 4.75989" fill="url(#paint1_linear_2224_3375)"/>
<path d="M31.6324 4.75989C33.531 6.65849 33.531 9.73672 31.6324 11.6353C29.7338 13.5339 26.6556 13.5339 24.757 11.6353C22.8584 9.73672 22.8584 6.65849 24.757 4.75989C26.6556 2.86129 29.7338 2.86129 31.6324 4.75989" stroke="url(#paint2_linear_2224_3375)" stroke-width="2.5" stroke-linecap="round" stroke-linejoin="round"/>
<path d="M18.3333 12.5H6.66667C5.74667 12.5 5 11.7533 5 10.8333V6.66667C5 5.74667 5.74667 5 6.66667 5H18.3333" stroke="url(#paint3_linear_2224_3375)" stroke-width="2.5" stroke-linecap="round" stroke-linejoin="round"/>
<path fill-rule="evenodd" clip-rule="evenodd" d="M8.75 24.1641H6.25C5.56 24.1641 5 23.6041 5 22.9141V20.4141C5 19.7241 5.56 19.1641 6.25 19.1641H8.75C9.44 19.1641 10 19.7241 10 20.4141V22.9141C10 23.6041 9.44 24.1641 8.75 24.1641Z" stroke="url(#paint4_linear_2224_3375)" stroke-width="2.5" stroke-linecap="round" stroke-linejoin="round"/>
<path d="M15.3691 21.6693H34.9991" stroke="url(#paint5_linear_2224_3375)" stroke-width="2.5" stroke-linecap="round" stroke-linejoin="round"/>
<path fill-rule="evenodd" clip-rule="evenodd" d="M8.75 35H6.25C5.56 35 5 34.44 5 33.75V31.25C5 30.56 5.56 30 6.25 30H8.75C9.44 30 10 30.56 10 31.25V33.75C10 34.44 9.44 35 8.75 35Z" stroke="url(#paint6_linear_2224_3375)" stroke-width="2.5" stroke-linecap="round" stroke-linejoin="round"/>
<path d="M15.3691 32.4974H34.9991" stroke="url(#paint7_linear_2224_3375)" stroke-width="2.5" stroke-linecap="round" stroke-linejoin="round"/>
<defs>
<linearGradient id="paint0_linear_2224_3375" x1="31.6443" y1="11.8969" x2="35.4144" y2="12.8481" gradientUnits="userSpaceOnUse">
<stop stop-color="#DB8016"/>
<stop offset="1" stop-color="#DBAC16"/>
</linearGradient>
<linearGradient id="paint1_linear_2224_3375" x1="23.3632" y1="4.12108" x2="34.2518" y2="6.86843" gradientUnits="userSpaceOnUse">
<stop stop-color="#DB8016"/>
<stop offset="1" stop-color="#DBAC16"/>
</linearGradient>
<linearGradient id="paint2_linear_2224_3375" x1="23.3632" y1="4.12108" x2="34.2518" y2="6.86843" gradientUnits="userSpaceOnUse">
<stop stop-color="#DB8016"/>
<stop offset="1" stop-color="#DBAC16"/>
</linearGradient>
<linearGradient id="paint3_linear_2224_3375" x1="5.04145" y1="5.60561" x2="18.263" y2="11.5362" gradientUnits="userSpaceOnUse">
<stop stop-color="#DB8016"/>
<stop offset="1" stop-color="#DBAC16"/>
</linearGradient>
<linearGradient id="paint4_linear_2224_3375" x1="5.01554" y1="19.5678" x2="10.6147" y2="20.9806" gradientUnits="userSpaceOnUse">
<stop stop-color="#DB8016"/>
<stop offset="1" stop-color="#DBAC16"/>
</linearGradient>
<linearGradient id="paint5_linear_2224_3375" x1="15.4302" y1="20.9705" x2="17.8085" y2="28.0383" gradientUnits="userSpaceOnUse">
<stop stop-color="#DB8016"/>
<stop offset="1" stop-color="#DBAC16"/>
</linearGradient>
<linearGradient id="paint6_linear_2224_3375" x1="5.01554" y1="30.4037" x2="10.6147" y2="31.8165" gradientUnits="userSpaceOnUse">
<stop stop-color="#DB8016"/>
<stop offset="1" stop-color="#DBAC16"/>
</linearGradient>
<linearGradient id="paint7_linear_2224_3375" x1="15.4302" y1="31.7986" x2="17.8085" y2="38.8664" gradientUnits="userSpaceOnUse">
<stop stop-color="#DB8016"/>
<stop offset="1" stop-color="#DBAC16"/>
</linearGradient>
</defs>
</svg>
