<svg width="40" height="40" viewBox="0 0 40 40" fill="none" xmlns="http://www.w3.org/2000/svg">
<path fill-rule="evenodd" clip-rule="evenodd" d="M26.9801 7.95816C21.6583 4.88494 14.7381 5.61951 10.1876 10.1671C7.47041 12.8827 6.11162 16.4392 6.11162 19.999C6.11162 20.8432 6.16257 21.6597 6.3044 22.4518C6.41147 23.0498 6.01349 23.6214 5.41549 23.7285C4.81749 23.8356 4.24591 23.4376 4.13884 22.8396C3.96734 21.8817 3.91162 20.9282 3.91162 19.999C3.91162 15.8788 5.48617 11.7554 8.63236 8.611C13.9718 3.27497 22.1211 2.474 28.3128 6.18994C29.846 5.04921 32.0236 5.17391 33.4158 6.56404C34.9462 8.09209 34.9462 10.5711 33.4158 12.0992C31.8864 13.6263 29.4091 13.6263 27.8797 12.0992C26.7587 10.9799 26.4589 9.35042 26.9801 7.95816ZM35.8845 17.1585C35.7774 16.5605 35.2058 16.1625 34.6078 16.2696C34.0098 16.3767 33.6119 16.9483 33.7189 17.5463C34.5085 21.9562 33.0069 26.6617 29.8358 29.831C25.2836 34.3786 18.3649 35.1131 13.0435 32.0401C13.5647 30.6478 13.2648 29.0183 12.1439 27.899C10.6144 26.3719 8.13717 26.3719 6.60773 27.899C5.07757 29.4269 5.07737 31.9055 6.60714 33.4336C7.99827 34.8245 10.1775 34.9487 11.7107 33.8083C17.9023 37.5241 26.0499 36.723 31.3908 31.3872C35.0649 27.7152 36.8025 22.286 35.8845 17.1585ZM18.2713 13.784C19.3884 13.3826 20.6081 13.3826 21.7252 13.784L25.3722 15.0957C25.8088 15.2528 26.0999 15.6669 26.0999 16.1308V20.2542C26.0999 22.5629 24.5164 24.344 23.2071 25.443C22.5256 26.0149 21.8497 26.4601 21.3468 26.7617C21.0941 26.9131 20.882 27.0302 20.7307 27.1106C20.6549 27.1508 20.5941 27.182 20.5509 27.2038C20.5292 27.2147 20.5119 27.2233 20.4993 27.2295L20.4838 27.237L20.4788 27.2394L20.477 27.2403C20.4767 27.2405 20.4756 27.241 19.9999 26.2492L19.5235 27.2407L19.521 27.2394L19.516 27.237L19.5005 27.2295C19.4879 27.2233 19.4706 27.2147 19.449 27.2038C19.4057 27.182 19.3449 27.1508 19.2691 27.1106C19.1178 27.0302 18.9057 26.9131 18.653 26.7617C18.1501 26.4601 17.4742 26.0149 16.7927 25.443C15.4834 24.344 13.8999 22.5629 13.8999 20.2542V16.1308C13.8999 15.667 14.1909 15.253 14.6273 15.0959L18.2713 13.784ZM19.5235 27.2407C19.8243 27.3849 20.1749 27.3852 20.4756 27.241L19.9999 26.2492C19.5242 27.241 19.5239 27.2408 19.5235 27.2407ZM19.9999 25.0012C20.0664 24.9631 20.1386 24.9209 20.2155 24.8748C20.6501 24.6143 21.2242 24.235 21.7927 23.7579C22.9834 22.7585 23.8999 21.5421 23.8999 20.2542V16.9042L20.9813 15.8544C20.3454 15.626 19.6518 15.6258 19.0158 15.8541L16.0999 16.9039V20.2542C16.0999 21.5421 17.0164 22.7585 18.2071 23.7579C18.7756 24.235 19.3497 24.6143 19.7843 24.8748C19.8612 24.9209 19.9334 24.9631 19.9999 25.0012Z" fill="url(#paint0_linear_1057_7371)"/>
<defs>
<linearGradient id="paint0_linear_1057_7371" x1="8.19158" y1="9.53671" x2="36.7534" y2="15.2612" gradientUnits="userSpaceOnUse">
<stop stop-color="#DB8016"/>
<stop offset="1" stop-color="#DBAC16"/>
</linearGradient>
</defs>
</svg>
