<svg width="41" height="40" viewBox="0 0 41 40" fill="none" xmlns="http://www.w3.org/2000/svg">
<path fill-rule="evenodd" clip-rule="evenodd" d="M9.36012 11.945C13.1847 6.51946 20.315 4.56049 26.3747 7.27044C31.8082 9.7003 35.0176 15.2742 34.5459 21.0629L33.9536 20.4706C33.524 20.041 32.8276 20.041 32.398 20.4706C31.9684 20.9002 31.9684 21.5967 32.398 22.0263L34.899 24.5273C35.3286 24.9569 36.0251 24.9569 36.4547 24.5273L38.9557 22.0263C39.3853 21.5967 39.3853 20.9002 38.9557 20.4706C38.5261 20.041 37.8296 20.041 37.4001 20.4706L36.748 21.1227C37.2418 14.4589 33.5305 8.06058 27.2729 5.26211C20.2528 2.12273 11.9927 4.39213 7.56198 10.6775C7.21196 11.174 7.33073 11.8603 7.82728 12.2103C8.32382 12.5603 9.0101 12.4416 9.36012 11.945ZM4.88731 15.4745C5.31689 15.0449 6.01337 15.0449 6.44295 15.4745L8.94399 17.9756C9.37356 18.4051 9.37356 19.1016 8.94399 19.5312C8.51441 19.9608 7.81793 19.9608 7.38835 19.5312L6.78678 18.9296C6.3142 24.719 9.52375 30.2938 14.9578 32.7239C21.0175 35.4339 28.1478 33.4749 31.9724 28.0494C32.3224 27.5528 33.0087 27.434 33.5052 27.7841C34.0018 28.1341 34.1205 28.8204 33.7705 29.3169C29.3398 35.6022 21.0797 37.8716 14.0596 34.7322C7.80768 31.9363 4.09746 25.5472 4.58314 18.89L3.9419 19.5312C3.51233 19.9608 2.81585 19.9608 2.38627 19.5312C1.95669 19.1016 1.95669 18.4051 2.38627 17.9756L4.88731 15.4745ZM25.504 27.4985C26.0563 27.4985 26.504 27.0508 26.504 26.4985V13.4985C26.504 12.9463 26.0563 12.4985 25.504 12.4985H25.304C24.7517 12.4985 24.304 12.9463 24.304 13.4985V26.4985C24.304 27.0508 24.7517 27.4985 25.304 27.4985H25.504ZM21.504 26.4985C21.504 27.0508 21.0563 27.4985 20.504 27.4985H20.304C19.7517 27.4985 19.304 27.0508 19.304 26.4985V16.8319C19.304 16.2796 19.7517 15.8319 20.304 15.8319H20.504C21.0563 15.8319 21.504 16.2796 21.504 16.8319V26.4985ZM15.504 27.4985C16.0563 27.4985 16.504 27.0508 16.504 26.4985V23.4985C16.504 22.9463 16.0563 22.4985 15.504 22.4985H15.304C14.7517 22.4985 14.304 22.9463 14.304 23.4985V26.4985C14.304 27.0508 14.7517 27.4985 15.304 27.4985H15.504Z" fill="url(#paint0_linear_1007_6617)"/>
<defs>
<linearGradient id="paint0_linear_1007_6617" x1="7.50012" y1="8.99854" x2="39.2899" y2="19.4487" gradientUnits="userSpaceOnUse">
<stop stop-color="#DB8016"/>
<stop offset="1" stop-color="#DBAC16"/>
</linearGradient>
</defs>
</svg>
