<svg width="40" height="40" viewBox="0 0 40 40" fill="none" xmlns="http://www.w3.org/2000/svg">
<path fill-rule="evenodd" clip-rule="evenodd" d="M9.9999 3.89844C6.63097 3.89844 3.8999 6.6295 3.8999 9.99844C3.8999 13.3674 6.63097 16.0984 9.9999 16.0984C12.9933 16.0984 15.4831 13.9423 16.001 11.0984H32.2345V18.8984H6.66787C6.06036 18.8984 5.56787 19.3909 5.56787 19.9984V30.8318C5.56787 31.4393 6.06036 31.9318 6.66787 31.9318H24.2126C25.0212 34.3531 27.3067 36.0984 29.9999 36.0984C33.3688 36.0984 36.0999 33.3674 36.0999 29.9984C36.0999 26.6295 33.3688 23.8984 29.9999 23.8984C26.7203 23.8984 24.0452 26.4866 23.9056 29.7318H7.76787V21.0984H33.3345C33.9421 21.0984 34.4345 20.606 34.4345 19.9984V9.99844C34.4345 9.39092 33.9421 8.89844 33.3345 8.89844H16.001C15.4831 6.05454 12.9933 3.89844 9.9999 3.89844Z" fill="url(#paint0_linear_1007_6567)"/>
<defs>
<linearGradient id="paint0_linear_1007_6567" x1="4" y1="6.49854" x2="40.0588" y2="15.5967" gradientUnits="userSpaceOnUse">
<stop stop-color="#DB8016"/>
<stop offset="1" stop-color="#DBAC16"/>
</linearGradient>
</defs>
</svg>
