<svg width="152" height="40" viewBox="0 0 152 40" fill="none" xmlns="http://www.w3.org/2000/svg">
<g clip-path="url(#clip0_1007_7136)">
<path d="M50.8751 23.4466H53.5214C53.1338 24.9259 52.3932 26.0529 51.2996 26.8276C50.2061 27.6376 48.8295 28.0426 47.17 28.0426C45.1591 28.0426 43.5892 27.3909 42.4604 26.0875C41.3295 24.8193 40.7646 23.0075 40.7656 20.6523C40.7656 18.3983 41.3129 16.6398 42.4076 15.3769C43.5353 14.0746 45.1051 13.4229 47.1171 13.4219C49.2348 13.4219 50.8756 14.056 52.0397 15.3242C52.684 16.1149 53.153 17.033 53.4157 18.0178H49.7105C49.5768 17.7257 49.3984 17.4561 49.1819 17.2185C48.7216 16.7262 48.0686 16.48 47.2228 16.48C46.872 16.4665 46.5222 16.5246 46.1946 16.6508C45.8671 16.7769 45.5689 16.9685 45.3182 17.2137C44.6774 17.9182 44.3597 19.0803 44.3651 20.7003C44.3704 22.3202 44.6881 23.4647 45.3182 24.134C45.7763 24.6967 46.4646 24.9781 47.383 24.9781C47.9184 24.9937 48.4482 24.8662 48.9176 24.6088C49.0278 24.5712 49.1273 24.5075 49.2076 24.4234L49.4991 24.134C49.6217 23.9752 49.7644 23.8328 49.9236 23.7104C50.135 23.5345 50.4522 23.4466 50.8751 23.4466Z" fill="#1A1A1A"/>
<path d="M53.8125 27.7782V20.9634C53.8125 19.5907 54.0154 18.4376 54.4212 17.504C54.7826 16.6321 55.355 15.8631 56.0872 15.266C56.7871 14.7204 57.591 14.3228 58.45 14.0974C59.355 13.85 60.2893 13.7252 61.2276 13.7266H61.7579V17.4769H60.5324C59.5093 17.4769 58.7506 17.7236 58.2561 18.217C57.7617 18.7104 57.5155 19.4874 57.5177 20.5478V27.7846L53.8125 27.7782Z" fill="#1A1A1A"/>
<path d="M63.5837 26.5117C62.8149 25.8327 62.2629 24.9433 61.9962 23.954C61.6749 22.8639 61.5131 21.7332 61.5157 20.5969C61.5171 19.6328 61.6503 18.6733 61.9113 17.7451C62.1373 16.8676 62.5633 16.0541 63.156 15.368C64.0587 14.3187 65.3256 13.6489 66.7026 13.4928C68.1549 13.2946 69.4647 13.4086 70.632 13.8349C71.9394 14.333 73.0019 15.3182 73.5955 16.5829C74.1967 17.7456 74.4968 19.1012 74.4957 20.6497C74.5151 21.6307 74.3905 22.6093 74.1257 23.5543C73.9148 24.2856 73.5934 24.9804 73.1726 25.6149C72.3257 26.7766 71.2492 27.4986 69.9432 27.781C68.7931 28.0978 67.5821 28.1247 66.419 27.8593C65.2368 27.595 64.2917 27.1458 63.5837 26.5117ZM66.1243 17.2143C65.3842 18.0243 65.0494 19.2307 65.1199 20.8335C65.1904 22.4364 65.4899 23.5554 66.0186 24.1906C66.23 24.4719 66.6016 24.7101 67.1303 24.9035C67.6483 25.0966 68.2154 25.1151 68.745 24.9563C69.2907 24.7986 69.776 24.4021 70.2011 23.7669C70.6261 23.1318 70.8562 22.1124 70.8915 20.7088C70.8915 19.4406 70.6886 18.49 70.2828 17.857C69.877 17.2239 69.4097 16.8189 68.8811 16.642C68.3675 16.4662 67.8114 16.4566 67.2921 16.6149C66.8612 16.7184 66.4618 16.9241 66.1275 17.2143H66.1243Z" fill="#1A1A1A"/>
<path d="M74.4922 27.7781V24.9774L82.0611 16.6328H76.7156C76.4809 16.6368 76.2478 16.5945 76.0295 16.5084C75.8112 16.4222 75.6122 16.2939 75.4437 16.1308C75.2726 15.9729 75.137 15.7805 75.0459 15.5664C74.9548 15.3523 74.9102 15.1213 74.9151 14.8887V13.7266H86.4487V16.7383L78.9903 24.7137H86.7194V27.7781H74.4922Z" fill="#1A1A1A"/>
<path d="M96.329 9.55475H98.1296C98.3685 9.55271 98.6052 9.60108 98.8241 9.69667C99.043 9.79226 99.2392 9.93293 99.3999 10.1095C99.5654 10.2714 99.6973 10.4643 99.788 10.6772C99.8787 10.89 99.9265 11.1187 99.9285 11.35V21.6513C99.9285 24.1515 99.205 25.8417 97.7579 26.722C96.3425 27.5939 94.7101 28.0514 93.0468 28.0424C92.1284 28.042 91.2164 27.8902 90.3476 27.5932C89.5144 27.3288 88.7781 26.8243 88.2315 26.1433C87.2084 24.8421 86.6964 23.0639 86.6953 20.8088C86.6953 18.59 87.2074 16.8118 88.2315 15.4743C89.2888 14.1006 90.6472 13.4137 92.3067 13.4137C93.1148 13.3973 93.9145 13.579 94.6359 13.9429C95.3218 14.3461 95.9021 14.906 96.329 15.5766V9.55475ZM90.2947 20.6474C90.2947 22.0563 90.5617 23.13 91.0957 23.8685C91.6297 24.6071 92.3884 24.9769 93.372 24.9779C93.806 24.9953 94.2375 24.9026 94.626 24.7086C95.0145 24.5146 95.3474 24.2256 95.5938 23.8685C96.0882 23.13 96.3355 22.0563 96.3355 20.6474C96.3355 19.3791 96.0685 18.3752 95.5345 17.6356C95.2656 17.2932 94.9194 17.019 94.5241 16.8357C94.1287 16.6523 93.6955 16.5649 93.2598 16.5805C92.8336 16.5675 92.411 16.6624 92.0314 16.8564C91.6519 17.0504 91.3277 17.3372 91.0893 17.69C90.5585 18.3934 90.2937 19.3791 90.2947 20.6474Z" fill="#1A1A1A"/>
<path d="M110.359 23.4466H113.006C112.618 24.9259 111.878 26.0529 110.784 26.8276C109.689 27.6376 108.313 28.0426 106.654 28.0426C104.643 28.0426 103.074 27.3909 101.945 26.0875C100.814 24.8193 100.249 23.0075 100.25 20.6523C100.25 18.3983 100.797 16.6398 101.892 15.3769C103.02 14.0746 104.59 13.4229 106.601 13.4219C108.719 13.4219 110.36 14.056 111.524 15.3242C112.653 16.6276 113.218 18.4393 113.219 20.7594V21.3397C113.226 21.4656 113.208 21.5917 113.166 21.7106H104.006C104.042 22.8019 104.309 23.6118 104.807 24.1404C105.266 24.7031 105.954 24.9845 106.872 24.9845C107.408 25.0001 107.937 24.8726 108.407 24.6152C108.517 24.5776 108.616 24.5139 108.697 24.4298L108.988 24.1404C109.082 23.9678 109.219 23.8219 109.386 23.7168C109.672 23.5226 110.014 23.4277 110.359 23.4466ZM104.006 19.3271H109.406C109.335 18.3764 109.088 17.672 108.665 17.2137C108.205 16.7214 107.552 16.4752 106.706 16.4752C106.354 16.4623 106.004 16.5212 105.677 16.6482C105.349 16.7752 105.051 16.9676 104.801 17.2137C104.307 17.7082 104.042 18.4127 104.006 19.3271Z" fill="#1A1A1A"/>
<path d="M113.192 23.1333H116.792C116.826 23.8377 117.093 24.3658 117.593 24.7175C118.121 25.0703 118.827 25.2466 119.71 25.2466C120.28 25.2621 120.844 25.1346 121.351 24.8758C121.774 24.6296 121.991 24.2955 121.991 23.8718C121.991 23.2388 121.25 22.7635 119.768 22.4459C119.285 22.374 118.807 22.2672 118.339 22.1262C116.468 21.669 115.215 21.1233 114.581 20.4892C113.874 19.8498 113.521 19.0047 113.522 17.9539C113.51 17.3224 113.641 16.6964 113.904 16.1222C114.168 15.548 114.557 15.0403 115.044 14.6368C116.102 13.8279 117.478 13.4229 119.172 13.4219C121.008 13.4219 122.473 13.8269 123.566 14.6368C124.59 15.5182 125.137 16.6627 125.206 18.0706H122.93C122.616 18.079 122.305 17.9992 122.034 17.8404C121.763 17.6816 121.542 17.4501 121.396 17.1722L120.973 16.7501C120.545 16.4304 119.963 16.2706 119.225 16.2706C118.52 16.2706 117.99 16.3761 117.638 16.5903C117.481 16.6926 117.354 16.8342 117.27 17.0009C117.186 17.1675 117.147 17.3534 117.157 17.5398C117.157 18.1047 118.074 18.5805 119.909 18.9674C120.091 19.03 120.277 19.0834 120.465 19.1272C120.613 19.1611 120.763 19.1788 120.915 19.18C122.714 19.6372 123.967 20.1653 124.673 20.7642C125.343 21.3972 125.678 22.2424 125.679 23.2996C125.679 24.8502 125.114 26.0475 123.984 26.8916C122.925 27.6664 121.337 28.0538 119.22 28.0538C117.209 28.0538 115.71 27.6488 114.722 26.8388C113.698 26.0278 113.186 24.8481 113.188 23.2996L113.192 23.1333Z" fill="#1A1A1A"/>
<path d="M129.971 13.7291V18.9069L134.47 13.7291H138.916L133.887 19.1115L138.969 27.7743H134.523L131.928 23.0201C131.4 22.0694 130.941 21.6645 130.552 21.8051C130.164 21.9458 129.97 22.159 129.971 22.4446V27.7807H126.266V9.60951H128.17C128.407 9.60659 128.642 9.65187 128.861 9.74257C129.079 9.83327 129.277 9.96749 129.442 10.137C129.608 10.293 129.741 10.4812 129.832 10.6901C129.923 10.899 129.97 11.1242 129.971 11.352V13.7291Z" fill="#1A1A1A"/>
<path d="M139.767 13.6867V11.4375H138.953V11.2393C138.953 11.2016 138.961 11.1642 138.975 11.1294C138.99 11.0946 139.011 11.063 139.038 11.0364C139.064 11.0098 139.096 10.9887 139.131 10.9745C139.166 10.9602 139.204 10.9529 139.241 10.9531H141.136V11.4327H140.336V13.6867H139.767Z" fill="#1A1A1A"/>
<path d="M141.242 13.6869V11.2395C141.241 11.2017 141.248 11.1642 141.263 11.1293C141.277 11.0944 141.298 11.0628 141.326 11.0364C141.379 10.9813 141.452 10.9487 141.529 10.9453H142.075L142.62 13.0363L143.161 10.9453H143.997V13.6869H143.472V11.4776L142.915 13.6869H142.333L141.768 11.4776V13.6869H141.242Z" fill="#1A1A1A"/>
<path d="M19.1368 6.5946L10.3905 11.6366C9.71612 12.0258 9.15616 12.5852 8.76676 13.2586C8.37736 13.932 8.17221 14.6957 8.17188 15.4732V25.5235C8.17189 26.301 8.3769 27.0649 8.76633 27.7383C9.15577 28.4117 9.7159 28.9711 10.3905 29.3601L19.1368 34.4037C19.8122 34.7932 20.5785 34.9983 21.3586 34.9983C22.1387 34.9983 22.905 34.7932 23.5804 34.4037L32.3267 29.3601C33.0018 28.9715 33.5624 28.4123 33.9522 27.7388C34.3419 27.0653 34.5471 26.3013 34.5469 25.5235V15.4748C34.5466 14.6971 34.3413 13.9332 33.9516 13.2598C33.5618 12.5864 33.0015 12.0271 32.3267 11.6382L23.5804 6.5946C22.905 6.20508 22.1387 6 21.3586 6C20.5785 6 19.8122 6.20508 19.1368 6.5946Z" fill="#1A1A1A"/>
<path d="M20.5123 29.3924L14.0583 25.6709C13.8007 25.5221 13.5869 25.3084 13.4381 25.0511C13.2894 24.7938 13.2111 24.502 13.2109 24.205V16.786C13.2111 16.4889 13.2894 16.1972 13.4381 15.9399C13.5869 15.6826 13.8007 15.4688 14.0583 15.3201L20.389 11.6705C20.4871 11.6112 20.5993 11.5794 20.7139 11.5782C20.8286 11.577 20.9414 11.6065 21.0408 11.6636C21.1401 11.7208 21.2222 11.8035 21.2786 11.9031C21.335 12.0027 21.3636 12.1156 21.3613 12.23V16.3064C21.3612 16.49 21.3127 16.6704 21.2208 16.8294C21.1289 16.9885 20.9967 17.1207 20.8375 17.2128L18.7727 18.4021C18.6138 18.4943 18.482 18.6265 18.3906 18.7857C18.2992 18.9448 18.2514 19.1251 18.2521 19.3085V21.6808C18.2517 21.8646 18.3 22.0451 18.392 22.2043C18.4839 22.3634 18.6164 22.4955 18.7759 22.5872L20.8407 23.7782C21.0002 23.8701 21.1812 23.9185 21.3653 23.9185C21.5495 23.9185 21.7304 23.8701 21.89 23.7782L23.9548 22.5872C24.114 22.4953 24.2947 22.4469 24.4786 22.4469C24.6625 22.4469 24.8432 22.4953 25.0024 22.5872L28.5426 24.6222C28.6427 24.6775 28.7262 24.7586 28.7843 24.857C28.8425 24.9554 28.8731 25.0675 28.8731 25.1818C28.8731 25.296 28.8425 25.4081 28.7843 25.5065C28.7262 25.6049 28.6427 25.686 28.5426 25.7413L22.2103 29.3924C21.9521 29.5408 21.6593 29.619 21.3613 29.619C21.0633 29.619 20.7706 29.5408 20.5123 29.3924Z" fill="white"/>
<path opacity="0.21" d="M33.576 12.7188C33.9963 13.4127 34.2179 14.2083 34.2168 15.0191V25.0694C34.2168 25.847 34.0117 26.6108 33.6223 27.2842C33.2329 27.9577 32.6727 28.517 31.9982 28.9061L23.2519 33.9496C22.5765 34.3391 21.8102 34.5442 21.0301 34.5442C20.25 34.5442 19.4837 34.3391 18.8083 33.9496L10.062 28.9061C9.5814 28.6297 9.15748 28.2652 8.8125 27.8318C9.19854 28.4686 9.73966 28.9976 10.3855 29.3696L19.1318 34.4132C19.8072 34.8027 20.5736 35.0078 21.3536 35.0078C22.1337 35.0078 22.9 34.8027 23.5755 34.4132L32.3217 29.3696C32.9968 28.9811 33.5575 28.4219 33.9472 27.7484C34.337 27.0749 34.5421 26.3108 34.542 25.533V15.4795C34.5423 14.4767 34.2017 13.5034 33.576 12.7188Z" fill="black"/>
<g opacity="0.15">
<path d="M28.6082 24.6719C28.6904 24.8197 28.7106 24.994 28.6644 25.1567C28.6182 25.3194 28.5093 25.4572 28.3615 25.5399L22.0325 29.1895C21.7745 29.3379 21.482 29.416 21.1843 29.416C20.8865 29.416 20.594 29.3379 20.3361 29.1895L13.8821 25.468C13.754 25.3946 13.636 25.3049 13.5312 25.201C13.6706 25.3954 13.849 25.5587 14.0551 25.6806L20.5091 29.4021C20.7673 29.5505 21.0601 29.6286 21.3581 29.6286C21.6561 29.6286 21.9488 29.5505 22.2071 29.4021L28.5361 25.7525C28.6316 25.7012 28.7124 25.6265 28.7711 25.5355C28.8297 25.4445 28.8643 25.3401 28.8715 25.2321C28.8787 25.1241 28.8583 25.0161 28.8123 24.9181C28.7662 24.8201 28.696 24.7354 28.6082 24.6719Z" fill="#669DEA"/>
<path d="M21.1828 12.0257V16.1021C21.1831 16.2858 21.1349 16.4664 21.0429 16.6255C20.9509 16.7847 20.8185 16.9168 20.659 17.0085L18.5941 18.1994C18.4352 18.2914 18.3032 18.4233 18.2113 18.5821C18.1193 18.7408 18.0708 18.9209 18.0703 19.1042V21.4781C18.0697 21.6237 18.0994 21.7678 18.1576 21.9013C18.2157 22.0348 18.3011 22.1547 18.4083 22.2535C18.3008 22.0821 18.2451 21.8833 18.2481 21.6812V19.3089C18.2478 19.1251 18.2961 18.9446 18.388 18.7854C18.48 18.6263 18.6124 18.4942 18.7719 18.4025L20.8368 17.2131C20.9963 17.1214 21.1287 16.9893 21.2207 16.8301C21.3127 16.671 21.3609 16.4904 21.3606 16.3067V12.2303C21.3612 12.1314 21.3387 12.0338 21.2951 11.945C21.2515 11.8563 21.1878 11.7788 21.1091 11.7188C21.1594 11.8131 21.1848 11.9188 21.1828 12.0257Z" fill="#669DEA"/>
</g>
<path opacity="0.1" d="M20.7126 11.7346C20.845 11.735 20.9719 11.7877 21.0655 11.8812C21.1591 11.9746 21.2119 12.1012 21.2123 12.2334V16.3098C21.2123 16.4671 21.1709 16.6217 21.0921 16.7581C21.0134 16.8944 20.9002 17.0077 20.7638 17.0867L18.6974 18.2776C18.5159 18.3829 18.3653 18.5338 18.2605 18.7153C18.1556 18.8967 18.1003 19.1025 18.0999 19.3119V21.6842C18.1 21.894 18.1552 22.1 18.2601 22.2818C18.3649 22.4635 18.5157 22.6147 18.6974 22.7201L20.7622 23.9111C20.9444 24.0159 21.151 24.071 21.3613 24.071C21.5716 24.071 21.7782 24.0159 21.9604 23.9111L24.0269 22.7201C24.1634 22.642 24.318 22.6009 24.4754 22.6009C24.6328 22.6009 24.7874 22.642 24.9239 22.7201L28.4641 24.7567C28.5399 24.8003 28.6029 24.8631 28.6467 24.9387C28.6906 25.0144 28.7136 25.1002 28.7136 25.1875C28.7136 25.2749 28.6906 25.3607 28.6467 25.4363C28.6029 25.512 28.5399 25.5748 28.4641 25.6184L22.135 29.2663C21.8996 29.4014 21.6329 29.4725 21.3613 29.4725C21.0898 29.4725 20.823 29.4014 20.5876 29.2663L14.1336 25.5448C13.8991 25.4088 13.7045 25.2138 13.569 24.9794C13.4335 24.7449 13.362 24.4791 13.3615 24.2084V16.7893C13.3617 16.5186 13.4331 16.2527 13.5686 16.0182C13.7041 15.7836 13.8989 15.5887 14.1336 15.4529L20.4643 11.8017C20.5397 11.7579 20.6253 11.7348 20.7126 11.7346ZM20.7126 11.5859C20.5999 11.5866 20.4894 11.6169 20.3922 11.6739L14.0599 15.3234C13.8019 15.4719 13.5876 15.6855 13.4386 15.9429C13.2896 16.2002 13.2111 16.4921 13.2109 16.7893V24.2084C13.2111 24.5056 13.2896 24.7976 13.4386 25.0549C13.5876 25.3122 13.8019 25.5258 14.0599 25.6743L20.5139 29.3958C20.7718 29.5446 21.0643 29.6229 21.3621 29.6229C21.6599 29.6229 21.9525 29.5446 22.2103 29.3958L28.5394 25.7462C28.6395 25.6909 28.723 25.6099 28.7811 25.5115C28.8393 25.4131 28.8699 25.301 28.8699 25.1867C28.8699 25.0725 28.8393 24.9604 28.7811 24.862C28.723 24.7636 28.6395 24.6825 28.5394 24.6272L24.9992 22.5922C24.8402 22.4998 24.6594 22.4512 24.4754 22.4516C24.2915 22.452 24.1109 22.5005 23.9516 22.5922L21.8867 23.7832C21.7273 23.8754 21.5464 23.924 21.3621 23.924C21.1779 23.924 20.9969 23.8754 20.8375 23.7832L18.7727 22.5922C18.6139 22.4996 18.4822 22.367 18.3908 22.2076C18.2995 22.0483 18.2516 21.8678 18.2521 21.6842V19.3119C18.2522 19.1283 18.3007 18.9479 18.3926 18.7889C18.4845 18.6298 18.6167 18.4976 18.7759 18.4055L20.8407 17.2162C21.0002 17.1245 21.1327 16.9923 21.2246 16.8332C21.3166 16.674 21.3649 16.4935 21.3645 16.3098V12.2334C21.3645 12.0638 21.297 11.9011 21.1769 11.7812C21.0567 11.6613 20.8937 11.5939 20.7238 11.5939L20.7126 11.5859Z" fill="black"/>
<g opacity="0.5">
<path d="M20.8529 23.783L18.8281 22.616C18.8731 22.6521 18.9207 22.6847 18.9707 22.7135L21.0355 23.9045C21.195 23.9964 21.376 24.0447 21.5601 24.0447C21.7443 24.0447 21.9253 23.9964 22.0848 23.9045L24.1496 22.7135C24.3088 22.6216 24.4895 22.5732 24.6734 22.5732C24.8573 22.5732 25.038 22.6216 25.1972 22.7135L28.6685 24.7038C28.6339 24.6718 28.5958 24.6439 28.5548 24.6206L25.0146 22.5856C24.8554 22.4937 24.6747 22.4453 24.4908 22.4453C24.3069 22.4453 24.1262 22.4937 23.967 22.5856L21.9021 23.7766C21.7432 23.8695 21.5626 23.9189 21.3784 23.9201C21.1942 23.9212 21.013 23.8739 20.8529 23.783Z" fill="#1A1A1A"/>
<path d="M13.3936 24.331V16.912C13.3942 16.6143 13.4734 16.3221 13.6233 16.0647C13.7732 15.8073 13.9885 15.594 14.2474 15.4461L20.5716 11.7965C20.6602 11.7447 20.76 11.7148 20.8626 11.7096C20.9652 11.7043 21.0676 11.7237 21.1611 11.7661C21.0602 11.6686 20.93 11.6068 20.7905 11.5904C20.651 11.5739 20.5099 11.6036 20.389 11.675L14.0583 15.3246C13.8007 15.4734 13.5869 15.6871 13.4381 15.9444C13.2894 16.2017 13.2111 16.4935 13.2109 16.7905V24.2096C13.2113 24.5055 13.2892 24.7963 13.4371 25.0529C13.5849 25.3095 13.7974 25.523 14.0535 25.6723C13.848 25.514 13.6817 25.3108 13.5672 25.0783C13.4528 24.8457 13.3934 24.5901 13.3936 24.331Z" fill="#1A1A1A"/>
</g>
<path opacity="0.5" d="M8.33527 25.6306V15.5803C8.33581 14.8019 8.54173 14.0373 8.93232 13.3636C9.3229 12.6898 9.88438 12.1306 10.5603 11.7421L19.3018 6.70011C19.9772 6.31059 20.7435 6.10551 21.5236 6.10551C22.3037 6.10551 23.07 6.31059 23.7454 6.70011L32.4917 11.7421L32.591 11.8028C32.5045 11.7437 32.418 11.6893 32.3267 11.6429L23.5804 6.5946C22.905 6.20508 22.1387 6 21.3586 6C20.5785 6 19.8122 6.20508 19.1368 6.5946L10.3905 11.6365C9.71612 12.0258 9.15616 12.5852 8.76676 13.2586C8.37737 13.932 8.17221 14.6957 8.17188 15.4732V25.5235C8.1716 26.2815 8.36633 27.0269 8.7374 27.6883C9.10847 28.3497 9.64347 28.905 10.2912 29.3009C9.68914 28.8955 9.19599 28.3489 8.85498 27.709C8.51397 27.069 8.33551 26.3554 8.33527 25.6306Z" fill="#669DEA"/>
<path d="M51.814 15.0748C52.4578 15.866 52.9273 16.7838 53.1916 17.7684H49.5938C49.6338 17.8403 49.6754 17.9171 49.7155 17.9986H53.4207C53.1598 17.0143 52.693 16.0963 52.051 15.305C51.9597 15.2043 51.8636 15.1083 51.7659 15.0156C51.7771 15.0348 51.7963 15.054 51.814 15.0748Z" fill="black"/>
<path d="M45.3677 24.1747L45.3244 24.1251C44.6837 23.4569 44.366 22.3123 44.3713 20.6914C44.3766 19.0704 44.6943 17.9082 45.3244 17.2049C45.5747 16.9588 45.8728 16.7663 46.2003 16.6393C46.5278 16.5123 46.8779 16.4534 47.2291 16.4663C47.983 16.4663 48.5832 16.6619 49.0296 17.053C49.0055 17.0258 48.9815 16.9986 48.9575 16.9747C48.4972 16.4823 47.8442 16.2361 46.9984 16.2361C46.6472 16.2232 46.2972 16.2821 45.9696 16.4091C45.6421 16.5361 45.3441 16.7286 45.0937 16.9747C44.4594 17.6791 44.1417 18.8413 44.1406 20.4612C44.1396 22.0811 44.4573 23.2262 45.0937 23.8965C45.1764 23.9973 45.2681 24.0904 45.3677 24.1747Z" fill="black"/>
<path d="M53.2309 23.4375C52.8293 24.8091 52.1101 25.8594 51.0731 26.5883C49.9785 27.3983 48.6025 27.8032 46.9451 27.8032C45.1584 27.8032 43.721 27.2901 42.6328 26.2638C43.7477 27.4436 45.2615 28.0334 47.1742 28.0334C48.8316 28.0334 50.2081 27.6285 51.3038 26.8185C52.3963 26.0448 53.1369 24.9178 53.5256 23.4375H53.2309Z" fill="black"/>
<path d="M61.5286 13.7266V17.2435H60.3111C59.2881 17.2435 58.5293 17.4896 58.0349 17.982C57.5404 18.4744 57.2937 19.2491 57.2948 20.3063V27.5432H53.8203V27.7734H57.5255V20.5477C57.5255 19.4905 57.7722 18.7158 58.2655 18.2234C58.7589 17.731 59.5171 17.4822 60.5402 17.4768H61.7576V13.7266H61.5286Z" fill="black"/>
<path d="M65.7907 23.9614C65.8646 24.0569 65.9495 24.1433 66.0438 24.2188L66.0213 24.1916C65.4874 23.5522 65.1878 22.4332 65.1227 20.8346C65.0575 19.236 65.3923 18.0296 66.1271 17.2154C66.4605 16.9222 66.8601 16.7138 67.2916 16.6079C67.811 16.4497 68.3671 16.4592 68.8807 16.6351C69.1699 16.7351 69.4355 16.8935 69.6608 17.1003C69.3911 16.7837 69.0424 16.5439 68.65 16.4049C68.1364 16.229 67.5803 16.2195 67.061 16.3777C66.6294 16.4836 66.2299 16.692 65.8964 16.9852C65.1563 17.7951 64.8215 19.0015 64.892 20.6044C64.9625 22.2072 65.262 23.3262 65.7907 23.9614Z" fill="black"/>
<path d="M73.5881 16.5808C73.2938 15.9644 72.8882 15.4073 72.3915 14.9375C72.7816 15.3574 73.1057 15.8339 73.3527 16.3507C73.9539 17.5134 74.254 18.869 74.2529 20.4175C74.2723 21.3985 74.1477 22.3771 73.8829 23.3221C73.6727 24.0536 73.3513 24.7485 72.9298 25.3827C72.0829 26.5443 71.0064 27.2663 69.7004 27.5488C68.5503 27.8655 67.3393 27.8924 66.1762 27.6271C64.994 27.3639 64.05 26.9152 63.3441 26.2811L63.2031 26.1548C63.3227 26.2802 63.4489 26.3992 63.5812 26.5113C64.2881 27.1443 65.2322 27.593 66.4133 27.8573C67.5764 28.1226 68.7873 28.0957 69.9374 27.779C71.2424 27.4965 72.3189 26.7745 73.1668 25.6129C73.5877 24.9784 73.9091 24.2835 74.12 23.5523C74.3847 22.6073 74.5094 21.6287 74.49 20.6477C74.4889 19.0992 74.1883 17.7436 73.5881 16.5808Z" fill="black"/>
<path d="M76.4963 16.4018C76.0629 16.4092 75.6418 16.2579 75.3125 15.9766C75.3568 16.0326 75.4044 16.086 75.4551 16.1364C75.624 16.2984 75.8234 16.4255 76.0416 16.5105C76.2598 16.5956 76.4927 16.6368 76.727 16.632H81.6335L81.8418 16.4018H76.4963Z" fill="black"/>
<path d="M86.2304 16.5081L78.7656 24.4835H79.2125L86.4595 16.7383V13.7266H86.2304V16.5081Z" fill="black"/>
<path d="M86.4965 24.7109V27.5452H74.5V27.7754H86.7272V24.7109H86.4965Z" fill="black"/>
<path d="M91.2831 24.1018C91.2159 24.0259 91.1528 23.9464 91.0941 23.8636C90.5601 23.1251 90.2932 22.0514 90.2932 20.6425C90.2932 19.3743 90.5601 18.3885 91.0941 17.6851C91.3326 17.3323 91.6567 17.0455 92.0362 16.8515C92.4158 16.6575 92.8384 16.5626 93.2647 16.5757C93.9726 16.5532 94.6626 16.8001 95.1949 17.2663C94.9246 16.9638 94.5908 16.7245 94.2174 16.5654C93.8439 16.4062 93.4398 16.3312 93.034 16.3455C92.6078 16.3324 92.1851 16.4273 91.8056 16.6213C91.426 16.8153 91.1019 17.1021 90.8634 17.4549C90.3348 18.1593 90.0678 19.1451 90.0625 20.4123C90.0625 21.8201 90.3295 22.8944 90.8634 23.635C90.9855 23.8058 91.1262 23.9623 91.2831 24.1018Z" fill="black"/>
<path d="M99.4052 10.1064C99.3547 10.0549 99.3012 10.0063 99.245 9.96094C99.5352 10.2754 99.6984 10.686 99.7032 11.1135V21.418C99.7032 23.9182 98.9796 25.6085 97.5326 26.4887C96.1177 27.3604 94.4859 27.818 92.8231 27.8092C91.9042 27.8088 90.9917 27.657 90.1223 27.36C89.5034 27.1587 88.9345 26.8285 88.4531 26.3912C88.9746 26.9448 89.6283 27.3573 90.353 27.5902C91.2218 27.8872 92.1338 28.039 93.0521 28.0394C94.7155 28.0484 96.3479 27.5908 97.7633 26.7189C99.2092 25.8376 99.9328 24.1473 99.9338 21.6482V11.3469C99.9318 11.1156 99.8841 10.887 99.7934 10.6741C99.7027 10.4612 99.5707 10.2683 99.4052 10.1064Z" fill="black"/>
<path d="M96.1031 15.3433V15.241C95.932 15.0112 95.7407 14.7972 95.5312 14.6016C95.745 14.8302 95.9364 15.0786 96.1031 15.3433Z" fill="black"/>
<path d="M111.52 15.305C111.429 15.2043 111.333 15.1083 111.233 15.0156C111.253 15.0348 111.272 15.054 111.289 15.0748C112.419 16.3739 112.984 18.1872 112.984 20.5148V21.0967C112.992 21.222 112.974 21.3476 112.931 21.4659H103.773C103.809 22.5572 104.076 23.3672 104.574 23.8958C104.657 23.9971 104.749 24.0908 104.848 24.1755L104.805 24.126C104.311 23.5931 104.044 22.7832 104.004 21.6961H113.162C113.205 21.5773 113.222 21.4512 113.215 21.3253V20.745C113.215 18.4206 112.65 16.6073 111.52 15.305Z" fill="black"/>
<path d="M104.794 17.2049C105.044 16.9588 105.342 16.7663 105.67 16.6393C105.997 16.5123 106.348 16.4535 106.699 16.4663C107.44 16.4663 108.033 16.655 108.477 17.0322L108.43 16.9747C107.972 16.4823 107.32 16.2361 106.473 16.2361C106.121 16.2231 105.771 16.282 105.443 16.409C105.115 16.536 104.817 16.7285 104.567 16.9747C104.071 17.4692 103.804 18.1736 103.766 19.088H104.011C104.082 18.2845 104.343 17.6568 104.794 17.2049Z" fill="black"/>
<path d="M110.55 26.5883C109.455 27.3983 108.079 27.8032 106.42 27.8032C104.636 27.8032 103.199 27.2901 102.109 26.2638C103.224 27.4436 104.738 28.0334 106.651 28.0334C108.308 28.0334 109.685 27.6285 110.78 26.8185C111.873 26.0448 112.613 24.9178 113.002 23.4375H112.707C112.306 24.8091 111.587 25.8594 110.55 26.5883Z" fill="black"/>
<path d="M124.974 17.8253H122.699C122.3 17.8364 121.911 17.7048 121.602 17.4545C121.761 17.6497 121.964 17.8056 122.194 17.9098C122.424 18.0141 122.675 18.0639 122.928 18.0555H125.204C125.189 17.4364 125.051 16.8265 124.797 16.2616C124.542 15.6967 124.178 15.1881 123.724 14.7656C124.501 15.5992 124.945 16.6875 124.974 17.8253Z" fill="black"/>
<path d="M119.526 22.2085C119.043 22.1359 118.565 22.0291 118.097 21.8887C116.226 21.4315 114.974 20.8859 114.339 20.2518L114.328 20.2422C114.404 20.3265 114.485 20.4065 114.57 20.482C115.204 21.115 116.457 21.6607 118.328 22.1189C118.796 22.2599 119.273 22.3667 119.757 22.4386C120.611 22.6209 121.218 22.8553 121.577 23.142C121.279 22.7477 120.595 22.4365 119.526 22.2085Z" fill="black"/>
<path d="M124.678 20.7491L124.639 20.7188C125.181 21.3262 125.452 22.1047 125.453 23.0543C125.453 24.6049 124.888 25.8023 123.758 26.6463C122.701 27.4222 121.114 27.8096 118.996 27.8085C116.984 27.8085 115.484 27.4035 114.496 26.5936C114.416 26.5296 114.339 26.4641 114.266 26.3969C114.408 26.5509 114.562 26.6936 114.727 26.8238C115.714 27.6337 117.213 28.0387 119.225 28.0387C121.343 28.0387 122.931 27.6513 123.989 26.8765C125.118 26.0303 125.683 24.833 125.684 23.2845C125.684 22.2284 125.349 21.3832 124.678 20.7491Z" fill="black"/>
<path d="M120.739 16.503C120.312 16.1833 119.73 16.0234 118.993 16.0234C118.287 16.0234 117.756 16.1305 117.404 16.3432C117.248 16.4455 117.121 16.5871 117.036 16.7537C116.952 16.9204 116.913 17.1063 116.924 17.2927C116.933 17.4081 116.969 17.5196 117.03 17.6184C117.09 17.7172 117.173 17.8006 117.271 17.8618C117.198 17.7638 117.157 17.6453 117.154 17.5229C117.144 17.3365 117.183 17.1506 117.267 16.9839C117.351 16.8173 117.478 16.6757 117.635 16.5734C117.987 16.3607 118.517 16.2536 119.222 16.2536C119.964 16.2536 120.547 16.4135 120.97 16.7332L120.739 16.503Z" fill="black"/>
<path d="M117.233 24.3879C116.949 24.0275 116.793 23.5835 116.788 23.125H116.578C116.623 23.615 116.858 24.0681 117.233 24.3879Z" fill="black"/>
<path d="M129.745 11.1121V18.6702L129.975 18.4048V11.3455C129.975 11.1177 129.927 10.8925 129.837 10.6836C129.746 10.4747 129.613 10.2865 129.447 10.1305C129.408 10.0938 129.368 10.057 129.328 10.0234C129.596 10.3231 129.744 10.7105 129.745 11.1121Z" fill="black"/>
<path d="M133.887 19.1076L138.915 13.7188H138.47L133.656 18.8774L138.737 27.5401H134.396L134.523 27.7703H138.968L133.887 19.1076Z" fill="black"/>
<path d="M130.323 21.574C129.934 21.7147 129.74 21.9279 129.74 22.2135V27.548H126.266V27.7782H129.971V22.4373C129.971 22.1559 130.165 21.9428 130.552 21.7978C130.737 21.7307 130.937 21.784 131.151 21.9577C130.847 21.6172 130.57 21.4845 130.323 21.574Z" fill="black"/>
<path d="M139.535 11.2031H138.953C138.953 11.2143 138.953 11.2239 138.953 11.2351V11.4333H139.536L139.535 11.2031Z" fill="black"/>
<path d="M140.905 10.9531V11.2073H140.1V13.4565H139.766V13.6867H140.331V11.4375H141.135V10.9531H140.905Z" fill="black"/>
<path d="M141.539 11.2344V13.4436H141.242V13.6738H141.769V12.136L141.539 11.2344Z" fill="black"/>
<path d="M142.388 12.7983L142.473 12.4673L142.078 10.9375H141.906L142.388 12.7983Z" fill="black"/>
<path d="M143.241 11.2344L142.684 13.4436H142.273L142.333 13.6738H142.914L143.241 12.3774V11.2344Z" fill="black"/>
<path d="M143.771 10.9375V13.4489H143.477V13.6791H144.002V10.9375H143.771Z" fill="black"/>
<g opacity="0.15">
<path d="M50.8779 23.4609C50.4508 23.4609 50.1336 23.5489 49.9264 23.7247C49.767 23.8462 49.6243 23.9881 49.5019 24.1467L49.2104 24.4377C49.1297 24.5213 49.0303 24.5849 48.9204 24.6231C48.4511 24.8805 47.9212 25.008 47.3858 24.9924C46.6073 24.9924 45.9943 24.7894 45.5469 24.3833C46.0039 24.8906 46.6671 25.1443 47.5364 25.1443C48.072 25.1604 48.6021 25.0323 49.071 24.7734C49.1816 24.7364 49.2816 24.6734 49.3626 24.5895L49.6541 24.2986C49.7762 24.1403 49.9184 23.9984 50.077 23.8766C50.2885 23.7007 50.6056 23.6112 51.0301 23.6112H53.4906C53.5034 23.5616 53.5179 23.5121 53.5307 23.4609H50.8779Z" fill="#669DEA"/>
<path d="M42.611 26.2534C41.4822 24.9852 40.9178 23.1734 40.9178 20.8182C40.9178 18.5652 41.4646 16.8068 42.5581 15.5428C43.6869 14.2395 45.2573 13.5878 47.2693 13.5878C49.2407 13.5878 50.7998 14.1382 51.9468 15.2391C50.7881 14.038 49.1782 13.4375 47.1171 13.4375C45.1073 13.4375 43.5374 14.0887 42.4076 15.391C41.3119 16.6592 40.7646 18.4176 40.7656 20.6663C40.7656 23.028 41.3306 24.8397 42.4604 26.1015C42.5742 26.2326 42.6927 26.3573 42.8144 26.4756C42.7456 26.4053 42.6783 26.3301 42.611 26.2534Z" fill="#669DEA"/>
<path d="M49.7858 18.0186C49.6659 17.7854 49.5139 17.5702 49.3341 17.3791C49.2972 17.3392 49.2588 17.3024 49.2188 17.2656C49.4176 17.493 49.5837 17.7469 49.7121 18.0202L49.7858 18.0186Z" fill="#669DEA"/>
<path d="M53.9647 21.1309C53.9647 19.7571 54.1676 18.604 54.5734 17.6715C54.9358 16.7997 55.5086 16.0308 56.241 15.4335C56.9389 14.8909 57.74 14.4955 58.5957 14.2713C59.5014 14.0244 60.4362 13.9002 61.375 13.902H61.753V13.7422H61.2212C60.285 13.7414 59.3529 13.8662 58.45 14.1131C57.5919 14.3383 56.7882 14.7341 56.0872 15.2768C55.3557 15.8746 54.7834 16.6433 54.4212 17.5149C54.0143 18.4484 53.8114 19.6021 53.8125 20.9758V27.7938H53.9647V21.1309Z" fill="#669DEA"/>
<path d="M67.276 25.0612C67.7935 25.2542 68.3601 25.2728 68.8891 25.114C69.4369 24.9562 69.9223 24.5603 70.3452 23.9262C70.7681 23.2921 70.9977 22.2722 71.034 20.8665C71.034 19.5994 70.8311 18.6487 70.4253 18.0146C70.2602 17.7523 70.0632 17.5112 69.839 17.2969C69.9999 17.4726 70.1451 17.6619 70.2731 17.8628C70.6789 18.5022 70.8818 19.4534 70.8818 20.7163C70.8466 22.1251 70.6175 23.1461 70.1946 23.7792C69.7717 24.4122 69.2864 24.8086 68.7385 24.9685C68.2089 25.1276 67.6415 25.1085 67.1238 24.9141C66.7947 24.8054 66.4881 24.6381 66.2188 24.4202C66.512 24.7186 66.8755 24.939 67.276 25.0612Z" fill="#669DEA"/>
<path d="M62.1466 24.1096C61.8244 23.0197 61.6626 21.8889 61.666 20.7526C61.6682 19.7884 61.8018 18.8289 62.0633 17.9007C62.2888 17.0234 62.7142 16.2099 63.3064 15.5236C64.2094 14.4747 65.4761 13.805 66.8529 13.6484C68.301 13.4566 69.6076 13.5712 70.7727 13.9921C71.4452 14.2498 72.0598 14.6377 72.5813 15.1335C72.0314 14.5671 71.3645 14.1269 70.627 13.8435C69.4619 13.4172 68.1563 13.3026 66.7104 13.4998C65.3337 13.6566 64.067 14.3263 63.1638 15.3749C62.5714 16.0613 62.1455 16.8747 61.9191 17.752C61.6582 18.6809 61.5251 19.6408 61.5235 20.6055C61.521 21.7418 61.6829 22.8724 62.004 23.9625C62.2503 24.8719 62.7346 25.6995 63.4073 26.3604C62.8099 25.7236 62.3772 24.951 62.1466 24.1096Z" fill="#669DEA"/>
<path d="M79.1406 24.8768H86.7175V24.7266H79.2816L79.1406 24.8768Z" fill="#669DEA"/>
<path d="M75.4464 16.145L75.4896 16.185C75.2106 15.8753 75.0605 15.4711 75.0699 15.0548V13.8942H86.4561V13.7344H74.9226V14.8965C74.9158 15.1299 74.9591 15.3619 75.0494 15.5772C75.1397 15.7925 75.2751 15.9861 75.4464 16.145Z" fill="#669DEA"/>
<path d="M74.6428 25.1415L82.2117 16.7969H81.9233L74.4922 24.9912V27.7904H74.6428V25.1415Z" fill="#669DEA"/>
<path d="M88.3821 26.3028C87.359 25.0015 86.8475 23.2234 86.8475 20.9683C86.8475 18.7495 87.359 16.9713 88.3821 15.6338C89.4415 14.2612 90.7999 13.5743 92.4573 13.5732C93.2654 13.5564 94.0652 13.7381 94.7864 14.1024C95.1222 14.3018 95.4344 14.5383 95.7171 14.8073C95.3965 14.475 95.0328 14.1869 94.6359 13.9505C93.9144 13.5872 93.1146 13.4061 92.3067 13.423C90.6472 13.423 89.2888 14.1093 88.2315 15.4819C87.2084 16.8216 86.6964 18.6003 86.6953 20.818C86.6953 23.072 87.2074 24.8502 88.2315 26.1525C88.3574 26.3132 88.4956 26.464 88.6448 26.6033C88.5535 26.5074 88.4654 26.4083 88.3821 26.3028Z" fill="#669DEA"/>
<path d="M93.5142 25.1464C93.9484 25.1636 94.38 25.0708 94.7687 24.8769C95.1575 24.6829 95.4908 24.394 95.7376 24.037C96.231 23.2974 96.4782 22.2231 96.4792 20.8142C96.4792 19.546 96.2123 18.5426 95.6783 17.8041C95.5849 17.6902 95.4832 17.5833 95.3739 17.4844C95.4268 17.5403 95.4781 17.5995 95.5341 17.6602C96.0681 18.3998 96.3351 19.4032 96.3351 20.6704C96.3351 22.0803 96.0878 23.1546 95.5934 23.8931C95.347 24.2502 95.0141 24.5392 94.6256 24.7332C94.2371 24.9272 93.8057 25.0199 93.3716 25.0025C92.676 25.0302 91.9968 24.7878 91.4766 24.3263C91.9828 24.8731 92.662 25.1464 93.5142 25.1464Z" fill="#669DEA"/>
<path d="M96.4803 15.7411V9.71924H98.2792C98.7074 9.71255 99.1219 9.86987 99.4374 10.1589L99.3989 10.1173C99.2385 9.94052 99.0423 9.79969 98.8234 9.70408C98.6044 9.60847 98.3676 9.56024 98.1286 9.56258H96.3281V15.5093C96.381 15.5941 96.4306 15.6644 96.4803 15.7411Z" fill="#669DEA"/>
<path d="M109.376 23.728C109.209 23.8322 109.072 23.9776 108.978 24.15L108.687 24.4409C108.606 24.5246 108.507 24.5881 108.397 24.6264C107.928 24.8838 107.398 25.0113 106.862 24.9956C106.082 24.9956 105.469 24.7926 105.023 24.3866C105.479 24.8939 106.143 25.1475 107.013 25.1475C107.549 25.1636 108.079 25.0355 108.548 24.7766C108.658 24.7397 108.758 24.6766 108.839 24.5928L109.131 24.3018C109.224 24.1288 109.361 23.9833 109.528 23.8798C109.816 23.6861 110.16 23.5928 110.507 23.6145H112.961C112.974 23.5649 112.988 23.5153 113.001 23.4642H110.356C110.009 23.4419 109.664 23.5346 109.376 23.728Z" fill="#669DEA"/>
<path d="M102.088 26.2534C100.959 24.9852 100.394 23.1734 100.394 20.8182C100.394 18.5652 100.941 16.8068 102.035 15.5428C103.163 14.2395 104.734 13.5878 106.746 13.5878C108.717 13.5878 110.276 14.1382 111.423 15.2391C110.266 14.038 108.656 13.4375 106.594 13.4375C104.584 13.4375 103.014 14.0887 101.884 15.391C100.788 16.6592 100.241 18.4176 100.242 20.6663C100.242 23.028 100.807 24.8397 101.937 26.1015C102.051 26.2326 102.169 26.3573 102.291 26.4756C102.222 26.4053 102.155 26.3301 102.088 26.2534Z" fill="#669DEA"/>
<path d="M108.815 17.3779C108.771 17.3331 108.726 17.29 108.682 17.25C109.094 17.7072 109.335 18.4042 109.404 19.341H104.164C104.164 19.3905 104.164 19.4401 104.156 19.4912H109.556C109.485 18.5406 109.237 17.8361 108.815 17.3779Z" fill="#669DEA"/>
<path d="M124.67 20.7655C123.964 20.1666 122.711 19.638 120.912 19.1797C120.76 19.1785 120.609 19.1609 120.461 19.127C120.273 19.0846 120.088 19.0312 119.906 18.9671C118.675 18.7081 117.858 18.4092 117.453 18.0703C117.78 18.471 118.648 18.8206 120.058 19.119C120.24 19.1816 120.425 19.2349 120.612 19.2788C120.76 19.3126 120.911 19.3303 121.062 19.3316C122.854 19.7867 124.104 20.3121 124.812 20.9078C124.767 20.8678 124.719 20.8119 124.67 20.7655Z" fill="#669DEA"/>
<path d="M121.117 16.9062L121.39 17.178C121.495 17.3634 121.629 17.5312 121.787 17.6752C121.694 17.5704 121.611 17.4563 121.542 17.3347C121.406 17.1956 121.258 17.0469 121.117 16.9062Z" fill="#669DEA"/>
<path d="M117.422 24.597C117.514 24.7016 117.619 24.7949 117.733 24.8752C118.267 25.229 118.972 25.4054 119.849 25.4043C120.419 25.4198 120.983 25.2923 121.491 25.0335C121.914 24.7889 122.131 24.4532 122.131 24.0311C122.127 23.897 122.093 23.7655 122.031 23.6464C121.969 23.5274 121.88 23.4239 121.773 23.3438C121.905 23.4913 121.979 23.6815 121.981 23.8793C121.981 24.3013 121.768 24.637 121.34 24.8832C120.833 25.1407 120.269 25.2677 119.7 25.2525C118.818 25.2525 118.112 25.0766 117.582 24.7249C117.526 24.6854 117.473 24.6427 117.422 24.597Z" fill="#669DEA"/>
<path d="M114.515 20.4555C113.942 19.8459 113.657 19.0668 113.658 18.1183C113.646 17.4852 113.777 16.8576 114.042 16.2821C114.307 15.7067 114.698 15.1983 115.188 14.7949C116.245 13.986 117.621 13.581 119.316 13.58C121.149 13.58 122.613 13.9849 123.708 14.7949C123.778 14.8556 123.846 14.9164 123.911 14.9803C123.799 14.8624 123.681 14.7503 123.557 14.6446C122.463 13.8336 120.998 13.4286 119.163 13.4297C117.471 13.4297 116.095 13.8347 115.035 14.6446C114.545 15.0479 114.152 15.5565 113.886 16.1326C113.621 16.7087 113.489 17.3372 113.501 17.9713C113.501 18.9997 113.839 19.8278 114.515 20.4555Z" fill="#669DEA"/>
<path d="M113.338 23.4525V23.2927H116.798C116.798 23.2431 116.789 23.1936 116.787 23.1328H113.188V23.2927C113.188 24.7016 113.61 25.8041 114.455 26.6001C113.71 25.8232 113.338 24.774 113.338 23.4525Z" fill="#669DEA"/>
<path d="M130.125 19.0781L134.623 13.9003H138.777L138.918 13.75H134.473L130.125 18.752V19.0781Z" fill="#669DEA"/>
<path d="M126.418 9.77543H128.322C128.764 9.7696 129.191 9.93261 129.516 10.231C129.492 10.2054 129.468 10.1783 129.442 10.1527C129.277 9.98291 129.08 9.84854 128.861 9.75782C128.642 9.66711 128.407 9.62196 128.17 9.62516H126.266V27.7947H126.426L126.418 9.77543Z" fill="#669DEA"/>
<path d="M132.084 23.187C131.893 22.8111 131.644 22.4683 131.344 22.1719C131.571 22.4371 131.768 22.7266 131.932 23.0351L134.527 27.7893H134.596L132.084 23.187Z" fill="#669DEA"/>
<path d="M139.918 11.6016H139.766V13.7005H139.918V11.6016Z" fill="#669DEA"/>
<path d="M139.105 11.4053C139.105 11.3678 139.113 11.3307 139.127 11.2961C139.142 11.2615 139.163 11.23 139.189 11.2036C139.216 11.1771 139.248 11.1562 139.282 11.142C139.317 11.1278 139.354 11.1206 139.392 11.1208H141.136V10.9609H139.24C139.164 10.9618 139.092 10.9922 139.038 11.0457C138.984 11.0992 138.954 11.1715 138.953 11.2471V11.4469H139.113L139.105 11.4053Z" fill="#669DEA"/>
<path d="M142.766 13.1959L143.309 11.105H143.993V10.9531H143.157L142.672 12.8283L142.766 13.1959Z" fill="#669DEA"/>
<path d="M141.388 11.3975C141.387 11.3598 141.394 11.3223 141.409 11.2874C141.423 11.2524 141.444 11.2208 141.472 11.1945C141.525 11.1394 141.598 11.1068 141.675 11.1034H142.112L142.071 10.9531H141.521C141.444 10.9586 141.372 10.9916 141.318 11.0458C141.291 11.0719 141.269 11.1032 141.255 11.1379C141.241 11.1725 141.234 11.2098 141.234 11.2473V13.6947H141.385L141.388 11.3975Z" fill="#669DEA"/>
<path d="M143.619 11.6406L143.469 12.2417V13.6996H143.619V11.6406Z" fill="#669DEA"/>
<path d="M141.914 11.6406V12.0818L142.329 13.6996H142.441L141.914 11.6406Z" fill="#669DEA"/>
</g>
</g>
<defs>
<clipPath id="clip0_1007_7136">
<rect width="136" height="29" fill="white" transform="translate(8 6)"/>
</clipPath>
</defs>
</svg>
