<svg width="172" height="40" viewBox="0 0 172 40" fill="none" xmlns="http://www.w3.org/2000/svg">
<g clip-path="url(#clip0_1007_7246)">
<mask id="mask0_1007_7246" style="mask-type:luminance" maskUnits="userSpaceOnUse" x="8" y="7" width="156" height="26">
<path d="M164 7H8V33H164V7Z" fill="white"/>
</mask>
<g mask="url(#mask0_1007_7246)">
<path d="M20.5312 11.6875H25.3177C25.4949 11.8612 25.5962 12.1 25.5962 12.345V32.6868C25.5962 32.9628 25.2543 33.1024 25.0549 32.907L20.8099 28.745C20.6326 28.5713 20.5312 28.3356 20.5312 28.0875V11.6875Z" fill="#1A1A1A"/>
<path d="M33.1979 11.6875V21.8848V28.0875C33.1979 28.3356 33.0966 28.5713 32.9193 28.745L28.6742 32.9039C28.4747 33.0993 28.1392 32.9628 28.1328 32.6899V12.3388C28.136 12.0969 28.2341 11.8643 28.4082 11.6937L28.4114 11.6906H33.1979V11.6875Z" fill="#1A1A1A"/>
<path d="M41.1094 23.4333L36.9941 18.7812H36.4907C36.4084 18.7812 36.3293 18.8123 36.2691 18.8713C36.2691 18.8713 36.2691 18.8712 36.266 18.8743L33.1953 21.8826L43.0468 31.534C43.0468 31.534 43.05 31.5371 43.0531 31.5371C43.2304 31.7077 43.471 31.8039 43.7211 31.8039H48.8938C49.1755 31.8039 49.318 31.469 49.1186 31.2736L41.1094 23.4333Z" fill="#1A1A1A"/>
<path d="M40.7969 11.6562V19.0995L45.5834 19.0623C45.7607 18.8886 45.862 18.6498 45.862 18.4048V12.351C45.862 12.1028 45.7607 11.8671 45.5834 11.6935L40.7969 11.6562Z" fill="#1A1A1A"/>
<path d="M20.8127 7.27292C20.6354 7.09924 20.3917 7 20.1416 7H8.31784C8.03609 7 7.89364 7.33495 8.09307 7.53033L12.3382 11.6893C12.5155 11.8629 12.7593 11.9622 13.0093 11.9622H20.5341H24.966C25.3143 11.9622 25.5992 12.2413 25.5992 12.5825V12.3468C25.5992 12.0986 25.4979 11.8629 25.3206 11.6893L20.8127 7.27292Z" fill="#1A1A1A"/>
<path d="M32.9193 7.27292C33.0966 7.09924 33.3403 7 33.5904 7H40.3998C40.653 7 40.8936 7.09924 41.0709 7.27292L45.5788 11.6893C45.7561 11.8629 45.8574 12.1017 45.8574 12.3468V12.5825C45.8574 12.2413 45.5725 11.9622 45.2242 11.9622H40.7923H33.1979H28.766C28.4177 11.9622 28.1328 12.2413 28.1328 12.5825V12.3468C28.1328 12.0986 28.2341 11.8629 28.4114 11.6893L32.9193 7.27292Z" fill="#1A1A1A"/>
<path d="M45.8586 18.1641C45.8586 18.5053 45.5737 18.7844 45.2255 18.7844H41.4267H36.7447C36.6022 18.7844 36.5326 18.9519 36.6339 19.048L41.1101 23.4364L45.58 19.0573C45.7573 18.8836 45.8586 18.6448 45.8586 18.3998V18.1641Z" fill="#1A1A1A"/>
<path d="M164.001 24.9384C164.001 22.8419 162.77 22.0604 159.782 21.3191C157.983 20.888 157.505 20.5376 157.505 19.9204C157.505 19.3032 158.069 18.8939 159.24 18.8939C160.43 18.8939 161.789 19.2846 162.938 19.8801L163.314 17.6409C162.165 17.1478 160.766 16.8594 159.262 16.8594C156.568 16.8594 154.979 18.2147 154.979 20.1065C154.979 22.141 156.151 22.9225 158.971 23.6017C160.934 24.0545 161.478 24.3616 161.478 25.1834C161.478 25.9247 160.725 26.3744 159.411 26.3744C157.926 26.3744 156.359 25.8409 155.128 25.078L154.773 27.3389C155.881 27.894 157.616 28.4089 159.307 28.4089C162.352 28.412 164.001 27.1156 164.001 24.9384Z" fill="#1A1A1A"/>
<path d="M153.362 28.1805V17.0156H150.592V24.5984C149.693 25.4575 148.725 26.0313 147.743 26.0313C146.616 26.0313 146.161 25.3552 146.161 24.372V17.0156H143.391V25.0884C143.391 27.1571 144.562 28.4038 146.797 28.4038C148.364 28.4038 149.643 27.6099 150.751 26.6267L151.146 28.1774H153.362V28.1805Z" fill="#1A1A1A"/>
<path d="M141.754 28.1805V17.0156H139.016V28.1805H141.754Z" fill="#1A1A1A"/>
<path d="M140.392 12.1328C141.31 12.1328 142.028 12.7872 142.028 13.6897C142.028 14.5891 141.31 15.2466 140.392 15.2466C139.474 15.2466 138.727 14.5922 138.727 13.6897C138.727 12.7872 139.474 12.1328 140.392 12.1328Z" fill="#1A1A1A"/>
<path d="M134.637 24.4535C133.823 25.4149 132.943 26.029 131.816 26.029C130.436 26.029 129.413 24.9838 129.413 22.7943C129.413 20.338 130.604 19.1502 132.234 19.1502C133.279 19.1502 133.883 19.3145 134.637 19.6402V24.4535ZM137.375 28.1782V11.5859L134.637 12.0511V17.432C133.905 17.187 132.987 17.0009 131.857 17.0009C129.1 17.0009 126.656 18.8431 126.656 22.9586C126.656 26.6834 128.663 28.4046 131.148 28.4046C132.798 28.4046 133.947 27.5859 134.805 26.6431L135.042 28.1782H137.375Z" fill="#1A1A1A"/>
<path d="M122.792 25.1295C121.915 25.9079 120.912 26.3793 119.867 26.3793C118.905 26.3793 118.322 25.8676 118.322 25.0705C118.322 24.0068 119.18 23.0454 122.792 22.6546V25.1295ZM125.508 28.1781V20.5829C125.508 17.9622 124.046 16.8984 121.039 16.8984C119.18 16.8984 117.778 17.2675 116.401 17.7978L116.736 19.9254C118.012 19.4137 119.326 19.0446 120.706 19.0446C122.023 19.0446 122.795 19.4943 122.795 20.7038V21.0512C117.949 21.5009 115.609 22.6484 115.609 25.328C115.609 27.2508 116.968 28.3983 118.994 28.3983C120.747 28.3983 121.982 27.6602 122.963 26.7391L123.213 28.1719H125.508V28.1781Z" fill="#1A1A1A"/>
<path d="M115.155 27.7958L110.79 21.9404C112.774 21.3263 114.069 19.9648 114.069 17.7939C114.069 14.9282 111.958 13.2969 108.469 13.2969H103.664V28.1834H106.507V22.4459H107.887L112.148 28.3261L115.155 27.7958ZM111.226 17.9489C111.226 19.5058 110.036 20.3525 108.092 20.3525H106.485V15.6229H108.26C110.204 15.6229 111.226 16.4541 111.226 17.9489Z" fill="#1A1A1A"/>
<path d="M102.23 28.1822L101.894 25.9523C101.622 26.0144 101.267 26.033 100.913 26.033C99.786 26.033 99.346 25.5429 99.346 24.6405V19.1882H102.233L101.758 17.0173H99.346V13.1406L96.652 13.6089V17.0173H94.7969V19.1882H96.652V25.0901C96.652 27.5867 98.1557 28.3652 100.413 28.3652C101.248 28.3652 101.793 28.2846 102.23 28.1822Z" fill="#1A1A1A"/>
<path d="M94.2186 24.9384C94.2186 22.8419 92.9871 22.0604 89.9988 21.3191C88.2007 20.888 87.7226 20.5376 87.7226 19.9204C87.7226 19.3032 88.2861 18.8939 89.4574 18.8939C90.6477 18.8939 92.0058 19.2846 93.1549 19.8801L93.5316 17.6409C92.3825 17.1478 90.9833 16.8594 89.4796 16.8594C86.7856 16.8594 85.1965 18.2147 85.1965 20.1065C85.1965 22.141 86.3677 22.9225 89.1883 23.6017C91.1511 24.0545 91.6956 24.3616 91.6956 25.1834C91.6956 25.9247 90.9421 26.3744 89.6284 26.3744C88.1437 26.3744 86.6178 25.8347 85.3864 25.0749L84.9844 27.342C86.0923 27.8971 87.8334 28.412 89.5271 28.412C92.5788 28.412 94.2186 27.1156 94.2186 24.9384Z" fill="#1A1A1A"/>
<path d="M83.7218 28.1805V17.0156H80.9518V24.5984C80.0528 25.4575 79.0841 26.0313 78.1028 26.0313C76.9758 26.0313 76.5199 25.3552 76.5199 24.372V17.0156H73.75V25.0884C73.75 27.1571 74.9213 28.4038 77.1562 28.4038C78.7232 28.4038 80.0022 27.6099 81.1101 26.6267L81.5058 28.1774H83.7218V28.1805Z" fill="#1A1A1A"/>
<path d="M72.4781 19.4955L71.8449 16.8594C70.1038 17.1695 69.0528 18.0689 68.2614 19.3374L67.7296 17.0144H65.6719V28.1794H68.3627V21.8215C69.1985 20.6151 70.6198 19.5979 72.4781 19.4955Z" fill="#1A1A1A"/>
<path d="M67.4153 15.778L66.7822 13.2969H53.3281V15.778H58.3932V28.1834H61.2423V15.778H67.4153Z" fill="#1A1A1A"/>
</g>
</g>
<defs>
<clipPath id="clip0_1007_7246">
<rect width="156" height="26" fill="white" transform="translate(8 7)"/>
</clipPath>
</defs>
</svg>
