<svg width="133" height="40" viewBox="0 0 133 40" fill="none" xmlns="http://www.w3.org/2000/svg">
<path d="M8.69531 16.9639L19.2752 16.9661L25.7085 16.9672V10.5938L8.69531 16.9639Z" fill="#1A1A1A"/>
<path d="M25.7109 10.6033V33.1046L33.746 7.59375L25.7109 10.6033Z" fill="#1A1A1A"/>
<path d="M25.7145 16.9698L19.2812 16.9688L25.7145 33.0978V16.9698Z" fill="#1A1A1A"/>
<path d="M8.69531 16.9688L20.925 21.1093L19.2752 16.9709L8.69531 16.9688Z" fill="#1A1A1A"/>
<path d="M47.6675 27.1791C47.5742 27.2724 47.4188 27.3888 47.2014 27.5285C46.9837 27.6685 46.7004 27.8083 46.3509 27.9482C46.0013 28.0878 45.5739 28.208 45.0692 28.3094C44.5641 28.4101 43.9856 28.4608 43.3331 28.4608C42.0746 28.4608 40.9871 28.2587 40.0706 27.855C39.1537 27.4513 38.3964 26.8877 37.7985 26.1655C37.2003 25.443 36.7616 24.5888 36.4819 23.602C36.2023 22.6156 36.0625 21.5321 36.0625 20.3512C36.0625 19.1708 36.2139 18.0792 36.5169 17.0772C36.8198 16.0751 37.2742 15.2093 37.88 14.4788C38.486 13.7488 39.2433 13.1778 40.1522 12.7659C41.061 12.3546 42.129 12.1484 43.3564 12.1484C43.9623 12.1484 44.5099 12.203 44.9993 12.3115C45.4887 12.4203 45.9158 12.5486 46.2811 12.6961C46.6458 12.8439 46.9489 12.9989 47.1899 13.1621C47.4305 13.3252 47.613 13.4615 47.7376 13.5699C47.8773 13.6945 47.9976 13.8419 48.0988 14.0126C48.1996 14.1838 48.2502 14.3702 48.2502 14.572C48.2502 14.8829 48.1337 15.1935 47.9007 15.5041C47.6677 15.8151 47.4113 16.1024 47.1316 16.3664C46.9451 16.1799 46.7355 15.9899 46.5025 15.7955C46.2694 15.6013 46.0091 15.4306 45.7218 15.2828C45.4342 15.1353 45.1079 15.0111 44.743 14.9099C44.3778 14.809 43.9701 14.7584 43.5196 14.7584C42.7273 14.7584 42.0632 14.9179 41.5272 15.2361C40.9912 15.5548 40.5601 15.9702 40.2339 16.4829C39.9076 16.9956 39.6746 17.5821 39.5347 18.2423C39.3949 18.9028 39.325 19.5746 39.325 20.2581C39.325 20.9884 39.3949 21.6875 39.5347 22.3553C39.6745 23.0233 39.9152 23.6138 40.2572 24.1263C40.5986 24.6389 41.0455 25.0508 41.5971 25.3613C42.1483 25.6723 42.8358 25.8275 43.6594 25.8275C44.0941 25.8275 44.4943 25.7732 44.8595 25.6644C45.2243 25.5558 45.5469 25.4236 45.8266 25.268C46.1062 25.1131 46.3509 24.95 46.5606 24.779C46.7704 24.608 46.9451 24.4607 47.085 24.3361C47.1782 24.445 47.2867 24.5772 47.4112 24.7323C47.5364 24.8891 47.653 25.0524 47.7607 25.2217C47.8693 25.3928 47.9625 25.5636 48.0404 25.7342C48.1179 25.9054 48.1568 26.0605 48.1568 26.2002C48.1568 26.4024 48.1179 26.5732 48.0404 26.713C47.9624 26.8528 47.8382 27.0083 47.6675 27.1791ZM59.6767 25.3918C59.6767 26.6266 59.8561 27.5253 60.2159 28.088C59.9346 28.1972 59.6727 28.2754 59.4305 28.3223C59.188 28.3693 58.9342 28.3926 58.6686 28.3926C58.106 28.3926 57.6799 28.2832 57.391 28.0644C57.1016 27.8458 56.918 27.5332 56.8401 27.1267C56.496 27.4865 56.0429 27.7911 55.4803 28.0413C54.9176 28.2908 54.2297 28.4162 53.4172 28.4162C52.9952 28.4162 52.5733 28.3577 52.1513 28.2412C51.7292 28.1238 51.3462 27.9333 51.0025 27.6688C50.6585 27.4037 50.3773 27.0493 50.1585 26.6052C49.9395 26.1611 49.8303 25.6198 49.8303 24.9812C49.8303 24.1866 50.0216 23.5399 50.4047 23.0416C50.7875 22.5428 51.2681 22.1495 51.8465 21.8612C52.4246 21.5732 53.0499 21.3749 53.7221 21.2656C54.3939 21.1564 55.0115 21.0865 55.574 21.055C55.7617 21.0395 55.9452 21.0315 56.125 21.0315H56.6291V20.6048C56.6291 20.004 56.4686 19.5772 56.1484 19.3245C55.8279 19.0717 55.3081 18.945 54.5894 18.945C53.9173 18.945 53.3194 19.0545 52.796 19.2732C52.2721 19.4923 51.7604 19.7421 51.2604 20.0234C51.0414 19.7578 50.8654 19.4649 50.7329 19.1443C50.6 18.8242 50.5336 18.5857 50.5336 18.4293C50.5336 18.2106 50.6545 17.9996 50.897 17.7963C51.1392 17.5934 51.4714 17.4095 51.8934 17.2453C52.3155 17.0812 52.7997 16.9486 53.347 16.8468C53.8939 16.7453 54.4722 16.6944 55.0818 16.6944C55.9258 16.6944 56.6408 16.7805 57.2268 16.9523C57.813 17.1245 58.2896 17.3901 58.657 17.7494C59.024 18.1092 59.2859 18.5582 59.4423 19.0974C59.5983 19.6366 59.6768 20.266 59.6768 20.9846L59.6767 25.3918ZM56.6758 22.6725H56.3477C56.238 22.6725 56.1286 22.6806 56.0195 22.696C55.6285 22.7275 55.2417 22.7743 54.859 22.8365C54.4758 22.8992 54.1359 23.0086 53.8392 23.1648C53.5421 23.3212 53.3 23.5245 53.1125 23.7743C52.9249 24.0245 52.8311 24.3451 52.8311 24.7356C52.8311 25.1733 52.956 25.5442 53.2062 25.8491C53.456 26.1539 53.878 26.3063 54.4722 26.3063C54.7689 26.3063 55.0503 26.2675 55.3162 26.1889C55.5817 26.1111 55.8161 26.0094 56.0195 25.8844C56.2224 25.7593 56.3828 25.6226 56.5001 25.4739C56.6172 25.3256 56.6759 25.189 56.6759 25.0638L56.6758 22.6725ZM65.5138 18.0541C65.7629 17.7574 66.1527 17.4563 66.6823 17.1514C67.212 16.8467 67.882 16.6943 68.6922 16.6943C69.2689 16.6943 69.818 16.792 70.3401 16.9873C70.8617 17.1829 71.3254 17.4995 71.7305 17.9368C72.1357 18.3746 72.4589 18.9529 72.7006 19.6716C72.942 20.3907 73.0629 21.2739 73.0629 22.3207C73.0629 23.5398 72.9224 24.5442 72.6421 25.3333C72.3614 26.1228 71.9995 26.748 71.5556 27.2089C71.1116 27.67 70.6166 27.9943 70.0716 28.1817C69.5261 28.3693 68.9807 28.4632 68.4356 28.4632C67.9837 28.4632 67.5901 28.4123 67.2555 28.3108C66.9202 28.209 66.636 28.096 66.4023 27.9708C66.1686 27.8459 65.9895 27.7211 65.865 27.5957C65.7404 27.4708 65.6624 27.3846 65.6313 27.3377V33.1007H62.4429V17.0225C62.5213 17.0071 62.6158 16.9914 62.7264 16.9756C62.821 16.9603 62.9312 16.9485 63.0572 16.9404C63.1831 16.9328 63.3327 16.9288 63.5059 16.9288C64.0253 16.9288 64.4663 17.0149 64.8285 17.1867C65.1907 17.3588 65.4194 17.6478 65.5138 18.0541ZM69.7338 22.391C69.7338 21.9222 69.6949 21.4849 69.6172 21.0783C69.5396 20.6721 69.4114 20.3204 69.2327 20.0234C69.0539 19.7266 68.8128 19.4959 68.5099 19.3317C68.2065 19.1676 67.8377 19.0857 67.4028 19.0857C66.7502 19.0857 66.2956 19.2109 66.0391 19.4606C65.7827 19.7108 65.6545 19.9845 65.6545 20.2812V25.2514C65.7787 25.3766 65.9998 25.5248 66.3185 25.6968C66.6373 25.8689 67.0061 25.9545 67.4259 25.9545C68.2186 25.9545 68.8013 25.6422 69.1743 25.0169C69.5474 24.3919 69.7338 23.5164 69.7338 22.391ZM75.5237 26.4235C75.4141 26.1111 75.3438 25.7827 75.3126 25.4388C75.2812 25.0951 75.2658 24.7514 75.2658 24.4071V13.5293C75.3749 13.514 75.4922 13.4983 75.6174 13.4825C75.7264 13.4671 75.8438 13.4555 75.969 13.4473C76.094 13.4396 76.2189 13.4357 76.344 13.4357C76.5939 13.4357 76.8442 13.4591 77.0943 13.5059C77.3441 13.5529 77.5708 13.6467 77.7743 13.7872C77.9772 13.9279 78.1413 14.1195 78.2665 14.3616C78.3915 14.6041 78.454 14.9207 78.454 15.311V16.9755H81.7363V19.3435H78.454V24.3428C78.454 25.433 78.8994 25.978 79.7904 25.978C80.0092 25.978 80.216 25.943 80.4117 25.8725C80.6069 25.8022 80.7827 25.7242 80.9392 25.6381C81.0953 25.5522 81.2322 25.4624 81.3494 25.3685C81.4667 25.2747 81.5487 25.2045 81.5955 25.1576C81.83 25.5017 82.0094 25.7994 82.1348 26.0508C82.2597 26.3024 82.3223 26.5385 82.3223 26.7591C82.3223 26.9644 82.2404 27.1657 82.0761 27.3628C81.9118 27.5599 81.6812 27.7416 81.3844 27.9071C81.0875 28.0726 80.7282 28.2067 80.3061 28.3093C79.8842 28.4119 79.4229 28.4633 78.9229 28.4633C77.9536 28.4633 77.1997 28.2756 76.6605 27.9006C76.1214 27.5253 75.7422 27.033 75.5237 26.4235ZM89.8114 26.1187C90.2033 26.1187 90.5484 26.0759 90.8466 25.9897C91.1444 25.9041 91.411 25.7985 91.6463 25.6734C91.8814 25.5485 92.0856 25.4117 92.2581 25.2632C92.4306 25.1148 92.5873 24.9781 92.7288 24.8528C92.9167 25.0871 93.1127 25.3882 93.3167 25.7552C93.5205 26.1228 93.6226 26.4235 93.6226 26.6579C93.6226 27.0018 93.427 27.3144 93.0366 27.5957C92.7084 27.8459 92.243 28.0608 91.6417 28.2403C91.0398 28.4199 90.3324 28.5099 89.52 28.5099C88.7851 28.5099 88.0624 28.4162 87.3515 28.2286C86.6402 28.0412 86.007 27.7129 85.4525 27.2439C84.8975 26.7753 84.4481 26.1462 84.1044 25.3569C83.7605 24.5676 83.5887 23.5715 83.5887 22.3677C83.5887 21.383 83.7411 20.5354 84.0457 19.8241C84.3506 19.1131 84.7568 18.523 85.2651 18.0541C85.7726 17.5853 86.347 17.2417 86.988 17.0225C87.6287 16.8039 88.2853 16.6944 88.9574 16.6944C89.8326 16.6944 90.5749 16.8314 91.1844 17.1046C91.7941 17.3782 92.29 17.7456 92.6732 18.2065C93.0559 18.6676 93.3333 19.1951 93.5054 19.789C93.6771 20.3831 93.7632 21.008 93.7632 21.6644V21.9926C93.7632 22.118 93.7593 22.2505 93.7515 22.3911C93.7435 22.5319 93.7358 22.6689 93.7282 22.8014C93.72 22.9345 93.7083 23.0398 93.6931 23.1179H86.777C86.8397 23.9776 87.1063 24.6926 87.5767 25.2632C88.0469 25.8338 88.7919 26.1187 89.8114 26.1187ZM90.8797 21.3596C90.8797 20.6094 90.7341 19.9999 90.4433 19.531C90.1525 19.0622 89.6296 18.8276 88.8755 18.8276C88.2307 18.8276 87.716 19.0504 87.3311 19.4959C86.9457 19.9413 86.7535 20.5625 86.7535 21.3595L90.8797 21.3596ZM99.3117 18.1133C99.4053 17.9738 99.5303 17.8189 99.6868 17.6481C99.8428 17.4775 100.034 17.3224 100.261 17.183C100.488 17.0434 100.738 16.9269 101.011 16.8339C101.285 16.7409 101.578 16.6944 101.891 16.6944C102.078 16.6944 102.277 16.7101 102.488 16.7409C102.699 16.772 102.895 16.8302 103.074 16.9152C103.254 17.0006 103.399 17.1167 103.508 17.264C103.617 17.4113 103.672 17.5933 103.672 17.8102C103.672 18.1512 103.586 18.5428 103.414 18.9849C103.242 19.4274 103.071 19.8048 102.899 20.1172C102.633 19.8984 102.367 19.7304 102.101 19.6132C101.836 19.496 101.523 19.4373 101.164 19.4373C100.679 19.4373 100.273 19.5784 99.9448 19.8604C99.6163 20.1425 99.4523 20.4795 99.4523 20.8714V28.4606H96.2641V17.0225C96.3421 17.0071 96.4358 16.9914 96.5453 16.9756C96.6391 16.9603 96.7484 16.9485 96.8736 16.9404C96.9986 16.9328 97.1469 16.9288 97.319 16.9288C97.819 16.9288 98.2527 17.0257 98.6201 17.2193C98.9871 17.4126 99.218 17.7108 99.3117 18.1133ZM108.377 18.1133C108.47 17.9738 108.595 17.8189 108.752 17.6481C108.908 17.4775 109.099 17.3224 109.326 17.183C109.553 17.0434 109.803 16.9269 110.076 16.8339C110.35 16.7409 110.643 16.6944 110.955 16.6944C111.143 16.6944 111.342 16.7101 111.553 16.7409C111.764 16.772 111.959 16.8302 112.139 16.9152C112.319 17.0006 112.463 17.1167 112.573 17.264C112.682 17.4113 112.737 17.5933 112.737 17.8102C112.737 18.1512 112.651 18.5428 112.479 18.9849C112.307 19.4274 112.135 19.8048 111.963 20.1172C111.698 19.8984 111.432 19.7304 111.166 19.6132C110.901 19.496 110.588 19.4373 110.229 19.4373C109.744 19.4373 109.338 19.5784 109.01 19.8604C108.681 20.1425 108.517 20.4795 108.517 20.8714V28.4606H105.329V17.0225C105.407 17.0071 105.501 16.9914 105.61 16.9756C105.704 16.9603 105.813 16.9485 105.938 16.9404C106.063 16.9328 106.212 16.9288 106.384 16.9288C106.884 16.9288 107.318 17.0257 107.685 17.2193C108.052 17.4126 108.283 17.7108 108.377 18.1133ZM123.592 25.3918C123.592 26.6266 123.771 27.5253 124.131 28.088C123.85 28.1972 123.588 28.2754 123.346 28.3223C123.103 28.3693 122.849 28.3926 122.584 28.3926C122.021 28.3926 121.595 28.2832 121.306 28.0644C121.017 27.8458 120.833 27.5332 120.755 27.1267C120.411 27.4865 119.958 27.7911 119.395 28.0413C118.833 28.2908 118.145 28.4162 117.332 28.4162C116.91 28.4162 116.488 28.3577 116.066 28.2412C115.644 28.1238 115.261 27.9333 114.918 27.6688C114.574 27.4037 114.292 27.0493 114.074 26.6052C113.855 26.1611 113.745 25.6198 113.745 24.9812C113.745 24.1866 113.937 23.5399 114.32 23.0416C114.703 22.5428 115.183 22.1495 115.762 21.8612C116.34 21.5732 116.965 21.3749 117.637 21.2656C118.309 21.1564 118.927 21.0865 119.489 21.055C119.677 21.0395 119.86 21.0315 120.04 21.0315H120.544V20.6048C120.544 20.004 120.384 19.5772 120.063 19.3245C119.743 19.0717 119.223 18.945 118.504 18.945C117.832 18.945 117.235 19.0545 116.711 19.2732C116.187 19.4923 115.676 19.7421 115.175 20.0234C114.957 19.7578 114.78 19.4649 114.648 19.1443C114.515 18.8242 114.449 18.5857 114.449 18.4293C114.449 18.2106 114.57 17.9996 114.812 17.7963C115.054 17.5934 115.387 17.4095 115.808 17.2453C116.231 17.0812 116.715 16.9486 117.262 16.8468C117.809 16.7453 118.387 16.6944 118.997 16.6944C119.841 16.6944 120.556 16.7805 121.142 16.9523C121.728 17.1245 122.205 17.3901 122.572 17.7494C122.939 18.1092 123.201 18.5582 123.357 19.0974C123.513 19.6366 123.592 20.266 123.592 20.9846V25.3918ZM120.591 22.6725H120.263C120.153 22.6725 120.044 22.6806 119.935 22.696C119.544 22.7275 119.157 22.7743 118.774 22.8365C118.391 22.8992 118.051 23.0086 117.754 23.1648C117.457 23.3212 117.215 23.5245 117.028 23.7743C116.84 24.0245 116.746 24.3451 116.746 24.7356C116.746 25.1733 116.871 25.5442 117.121 25.8491C117.371 26.1539 117.793 26.3063 118.387 26.3063C118.684 26.3063 118.965 26.2675 119.231 26.1889C119.497 26.1111 119.731 26.0094 119.935 25.8844C120.137 25.7593 120.298 25.6226 120.415 25.4739C120.532 25.3256 120.591 25.189 120.591 25.0638L120.591 22.6725Z" fill="#1A1A1A"/>
</svg>
