<svg width="143" height="40" viewBox="0 0 143 40" fill="none" xmlns="http://www.w3.org/2000/svg">
<path d="M41.4337 14.9228H54.3172V17.2917H49.2522V30.6111H46.4651V17.2917H41.4219V14.9219H41.4328L41.4337 14.9228ZM53.7672 19.251H56.1489V21.4438H56.1934C56.2725 21.1337 56.4179 20.8345 56.6316 20.5463C57.0883 19.9285 57.7065 19.4496 58.4178 19.1625C58.779 19.0189 59.1637 18.9437 59.5522 18.9409C59.8431 18.9409 60.0577 18.9518 60.1704 18.9637C60.2822 18.9746 60.394 18.9965 60.5176 19.0075V21.421C60.3352 21.389 60.1518 21.3632 59.9677 21.3435C59.7848 21.3218 59.6009 21.3108 59.4168 21.3107C58.9896 21.3107 58.586 21.3991 58.2042 21.5661C57.8224 21.7312 57.496 21.9857 57.2161 22.3077C56.9173 22.6677 56.6885 23.0807 56.5416 23.5254C56.3734 24.0125 56.2943 24.5653 56.2943 25.1974V30.6001H53.7563V19.251H53.7672ZM72.1885 30.612H69.6951V29.0285H69.6496C69.3351 29.605 68.8751 30.0592 68.257 30.4022C67.6389 30.7452 67.0098 30.9221 66.3699 30.9221C64.8536 30.9221 63.7519 30.5573 63.0792 29.8148C62.4047 29.0732 62.0675 27.9549 62.0675 26.4598V19.2519H64.6064V26.2163C64.6064 27.2133 64.7973 27.922 65.1909 28.3316C65.5727 28.7411 66.1226 28.9519 66.8189 28.9519C67.358 28.9519 67.7961 28.8743 68.1552 28.7074C68.5152 28.5414 68.807 28.3316 69.0206 28.0543C69.2451 27.7888 69.4024 27.4568 69.5042 27.0801C69.6042 26.7034 69.6496 26.2938 69.6496 25.8514V19.2629H72.1885V30.612ZM76.5127 26.9697C76.5918 27.6995 76.8718 28.2103 77.3554 28.5085C77.849 28.7968 78.4334 28.9519 79.1188 28.9519C79.3552 28.9519 79.6243 28.9291 79.9279 28.8962C80.2306 28.8625 80.5224 28.7849 80.7814 28.6864C81.0505 28.5861 81.2632 28.431 81.4432 28.2322C81.6123 28.0315 81.6905 27.7779 81.6796 27.4568C81.6781 27.3078 81.6454 27.1608 81.5835 27.0253C81.5216 26.8898 81.432 26.7689 81.3205 26.6705C81.0951 26.4607 80.8151 26.3057 80.466 26.1725C80.0772 26.0373 79.6792 25.93 79.2752 25.8514C78.8261 25.7629 78.3771 25.6626 77.9171 25.5632C77.4537 25.4626 76.9961 25.3368 76.5463 25.1864C76.1245 25.0508 75.7266 24.8491 75.3673 24.589C75.0173 24.3439 74.7318 24.017 74.5356 23.6367C74.3229 23.249 74.2211 22.7729 74.2211 22.1973C74.2211 21.577 74.3783 21.068 74.6819 20.6466C74.9882 20.2287 75.3835 19.8847 75.8391 19.6396C76.3287 19.3799 76.8551 19.1968 77.3999 19.0968C77.9726 18.9974 78.5234 18.9418 79.0398 18.9418C79.6352 18.9418 80.2078 19.0084 80.7478 19.1306C81.2706 19.2429 81.7688 19.449 82.2186 19.739C82.6567 20.0163 83.0158 20.3812 83.3085 20.8245C83.6003 21.2669 83.7803 21.8096 83.8585 22.4408H81.2078C81.0841 21.8434 80.8142 21.4338 80.3769 21.234C79.9388 21.0242 79.4334 20.9239 78.8716 20.9239C78.6916 20.9239 78.478 20.9349 78.2316 20.9686C77.9943 21.0003 77.7607 21.0559 77.5344 21.1346C77.3276 21.211 77.1399 21.3318 76.9845 21.4885C76.909 21.5703 76.8503 21.6662 76.8118 21.7708C76.7733 21.8753 76.7556 21.9865 76.7599 22.0979C76.7599 22.408 76.8718 22.6515 77.0854 22.8395C77.299 23.0274 77.5799 23.1824 77.928 23.3156C78.2762 23.4378 78.6698 23.5482 79.1188 23.6367C79.5679 23.7252 80.0279 23.8246 80.5006 23.9249C80.9605 24.0244 81.4096 24.1575 81.8595 24.3007C82.3086 24.4449 82.7013 24.6446 83.0504 24.8991C83.3985 25.1536 83.6794 25.4637 83.8921 25.8405C84.1057 26.2163 84.2184 26.6924 84.2184 27.2461C84.2184 27.9211 84.0612 28.4867 83.7458 28.9628C83.4321 29.428 83.0276 29.8148 82.5331 30.103C82.0154 30.4022 81.4545 30.6189 80.8705 30.7452C80.2764 30.8763 79.6699 30.943 79.0616 30.944C78.3803 30.9517 77.7009 30.8698 77.0408 30.7005C76.4227 30.5345 75.8837 30.2909 75.4346 29.9707C74.9908 29.6471 74.6259 29.2267 74.3674 28.7411C74.1092 28.2541 73.9738 27.6666 73.952 26.9916H76.5127V26.9697ZM84.892 19.2528H86.8128V15.8413H89.3517V19.2528H91.6424V21.1228H89.3526V27.1914C89.3526 27.4559 89.3635 27.6785 89.3862 27.8773C89.408 28.0661 89.4644 28.2322 89.5435 28.3644C89.6294 28.5034 89.7598 28.6089 89.9134 28.6636C90.0825 28.7302 90.2952 28.764 90.5879 28.764C90.767 28.764 90.947 28.764 91.127 28.7521C91.307 28.7411 91.486 28.7193 91.666 28.6746V30.612C91.3851 30.6457 91.1042 30.6676 90.8461 30.7005C90.5739 30.7322 90.3001 30.7471 90.0262 30.7452C89.3526 30.7452 88.8135 30.6786 88.4081 30.5573C88.0045 30.435 87.6782 30.2471 87.4536 30.0036C87.2173 29.76 87.0718 29.4608 86.9819 29.0951C86.8943 28.6837 86.8456 28.265 86.8364 27.8445V21.1437H84.9157V19.2501H84.8929L84.892 19.2528ZM93.4395 19.2528H95.8439V20.7907H95.8893C96.2475 20.1267 96.742 19.6615 97.3819 19.3741C98.0361 19.0823 98.745 18.9349 99.4609 18.9418C100.37 18.9418 101.156 19.0968 101.831 19.4179C102.504 19.7281 103.066 20.1604 103.515 20.7132C103.964 21.2669 104.29 21.909 104.515 22.6406C104.744 23.4016 104.857 24.1927 104.852 24.9876C104.852 25.7511 104.751 26.4927 104.549 27.2023C104.362 27.8869 104.054 28.5318 103.639 29.106C103.23 29.6595 102.7 30.1107 102.089 30.4241C101.46 30.7561 100.73 30.9221 99.8763 30.9221C99.5032 30.9217 99.1308 30.8881 98.7636 30.8218C98.3974 30.7556 98.0397 30.6482 97.6974 30.5016C97.3573 30.3592 97.0392 30.1688 96.7529 29.9361C96.4702 29.7098 96.224 29.4413 96.0229 29.1398H95.9775V34.8089H93.4395V19.251V19.2528ZM102.313 24.9429C102.314 24.438 102.246 23.9353 102.112 23.4488C101.987 22.9878 101.781 22.5528 101.504 22.1645C101.241 21.795 100.9 21.4885 100.505 21.2669C100.081 21.0369 99.6057 20.9189 99.1236 20.9239C98.0564 20.9239 97.2474 21.2888 96.7083 22.0203C96.1693 22.751 95.8993 23.7261 95.8993 24.9429C95.8993 25.5185 95.9675 26.0503 96.1129 26.5374C96.2584 27.0245 96.4611 27.4459 96.7529 27.7998C97.0347 28.1546 97.371 28.431 97.7646 28.6299C98.1573 28.8406 98.6182 28.94 99.1345 28.94C99.719 28.94 100.202 28.8187 100.606 28.5861C100.998 28.3599 101.335 28.0501 101.594 27.6785C101.852 27.3018 102.044 26.8803 102.156 26.4051C102.259 25.9246 102.312 25.4345 102.313 24.9429ZM106.795 14.9228H109.334V17.2926H106.795V14.9228ZM106.795 19.2519H109.334V30.612H106.795V19.2519ZM111.603 14.9228H114.141V30.612H111.603V14.9228ZM121.925 30.9221C121.004 30.9221 120.184 30.7671 119.466 30.4688C118.777 30.1854 118.154 29.7632 117.635 29.2282C117.13 28.6825 116.744 28.0377 116.499 27.3346C116.232 26.5584 116.099 25.7421 116.107 24.921C116.107 24.0572 116.241 23.2609 116.499 22.5293C116.744 21.8265 117.13 21.1821 117.635 20.6366C118.128 20.1048 118.747 19.6952 119.466 19.396C120.184 19.0968 121.004 18.9418 121.925 18.9418C122.846 18.9418 123.666 19.0968 124.385 19.396C125.104 19.6952 125.711 20.1166 126.216 20.6366C126.721 21.1819 127.107 21.8264 127.35 22.5293C127.609 23.26 127.743 24.0572 127.743 24.921C127.743 25.7967 127.609 26.6039 127.35 27.3346C127.107 28.0378 126.721 28.6827 126.216 29.2282C125.721 29.76 125.104 30.1696 124.385 30.4688C123.666 30.7671 122.846 30.9221 121.925 30.9221ZM121.925 28.94C122.487 28.94 122.981 28.8187 123.396 28.5861C123.801 28.3599 124.151 28.0458 124.419 27.6666C124.688 27.2908 124.879 26.8584 125.014 26.3823C125.138 25.9061 125.205 25.419 125.205 24.921C125.205 24.4339 125.138 23.9578 125.014 23.4707C124.898 23.0086 124.696 22.5728 124.419 22.1863C124.15 21.8108 123.8 21.5006 123.396 21.2787C122.981 21.0461 122.487 20.9239 121.925 20.9239C121.364 20.9239 120.869 21.0461 120.454 21.2787C120.052 21.504 119.704 21.8136 119.432 22.1863C119.158 22.5751 118.957 23.0102 118.837 23.4707C118.712 23.9441 118.648 24.4314 118.645 24.921C118.645 25.419 118.713 25.9061 118.837 26.3823C118.96 26.8584 119.162 27.2908 119.432 27.6666C119.701 28.0433 120.038 28.3535 120.454 28.5861C120.869 28.8296 121.364 28.94 121.925 28.94ZM128.485 19.2528H130.406V15.8413H132.945V19.2528H135.235V21.1228H132.945V27.1914C132.945 27.4559 132.955 27.6785 132.977 27.8773C133 28.0661 133.056 28.2322 133.135 28.3644C133.221 28.5035 133.352 28.6091 133.505 28.6636C133.674 28.7302 133.887 28.764 134.18 28.764C134.359 28.764 134.539 28.764 134.719 28.7521C134.899 28.7411 135.078 28.7193 135.258 28.6746V30.612C134.977 30.6457 134.696 30.6676 134.438 30.7005C134.166 30.7322 133.892 30.7471 133.618 30.7452C132.945 30.7452 132.405 30.6786 132 30.5573C131.596 30.435 131.27 30.2471 131.046 30.0036C130.81 29.76 130.664 29.4608 130.574 29.0951C130.486 28.6837 130.438 28.265 130.428 27.8445V21.1437H128.508V19.2501H128.485V19.2528Z" fill="#1A1A1A"/>
<path d="M38.473 14.9177H26.8367L23.2424 4L19.6354 14.9186L8 14.9067L17.4238 21.6604L13.8186 32.5662L23.2424 25.8235L32.6553 32.5662L29.061 21.6604L38.473 14.9177Z" fill="#1A1A1A"/>
<path d="M29.8689 24.1255L29.0599 21.6562L23.2422 25.8194L29.8689 24.1255Z" fill="#F4F7F6"/>
</svg>
