<svg width="133" height="40" viewBox="0 0 133 40" fill="none" xmlns="http://www.w3.org/2000/svg">
<g clip-path="url(#clip0_1007_7278)">
<mask id="mask0_1007_7278" style="mask-type:luminance" maskUnits="userSpaceOnUse" x="8" y="7" width="121" height="25">
<path d="M8 7H129V32H8V7Z" fill="white"/>
</mask>
<g mask="url(#mask0_1007_7278)">
<path d="M38.3558 18.2087L30.1969 10.0977C30.0654 9.97472 29.8916 9.90625 29.711 9.90625C29.5304 9.90625 29.3566 9.97472 29.225 10.0977L27.6221 11.6915L34.1774 18.2094C34.2415 18.2727 34.2925 18.348 34.3272 18.4309C34.362 18.5138 34.3799 18.6028 34.3799 18.6926C34.3799 18.7825 34.362 18.8714 34.3272 18.9544C34.2925 19.0373 34.2415 19.1126 34.1774 19.1758L27.4375 25.8774L29.0404 27.4712C29.1719 27.5941 29.3457 27.6626 29.5263 27.6626C29.7069 27.6626 29.8807 27.5941 30.0123 27.4712L38.3566 19.1758C38.4803 19.045 38.5491 18.8722 38.5491 18.6926C38.5491 18.5131 38.4803 18.3403 38.3566 18.2094L38.3558 18.2087Z" fill="#1A1A1A"/>
<path d="M24.4589 10.6868L23.8657 10.0977C23.7341 9.97472 23.5603 9.90625 23.3797 9.90625C23.1991 9.90625 23.0253 9.97472 22.8937 10.0977L21.2909 11.6922L22.3547 12.7508L24.4439 14.8282L26.53 12.7501L24.4581 10.6876L24.4589 10.6868ZM24.2593 22.7391L22.174 24.8172L21.1094 25.8751L22.7122 27.4688C22.8439 27.592 23.0178 27.6606 23.1986 27.6606C23.3794 27.6606 23.5533 27.592 23.6849 27.4688L24.2742 26.8797L26.3627 24.8024L24.2593 22.7391Z" fill="#1A1A1A"/>
<path d="M27.8368 18.2109C27.9605 18.3418 28.0293 18.5146 28.0293 18.6941C28.0293 18.8737 27.9605 19.0465 27.8368 19.1773L24.25 22.7398L26.34 24.818L32.0152 19.1742C32.0794 19.111 32.1303 19.0357 32.1651 18.9528C32.1998 18.8698 32.2177 18.7809 32.2177 18.691C32.2177 18.6012 32.1998 18.5122 32.1651 18.4293C32.1303 18.3463 32.0794 18.2711 32.0152 18.2078L26.5388 12.7656L24.4488 14.843L27.8368 18.2109Z" fill="#1A1A1A"/>
<path d="M14.5349 18.4032L20.2101 12.7602L18.1209 10.6821L17.5253 10.0977C17.3938 9.97472 17.22 9.90625 17.0394 9.90625C16.8588 9.90625 16.685 9.97472 16.5534 10.0977L8.20283 18.4032C8.13857 18.4664 8.08756 18.5416 8.05274 18.6246C8.01793 18.7075 8 18.7965 8 18.8864C8 18.9763 8.01793 19.0652 8.05274 19.1482C8.08756 19.2311 8.13857 19.3064 8.20283 19.3696L16.3617 27.4813C16.4933 27.6043 16.6671 27.6728 16.8477 27.6728C17.0282 27.6728 17.202 27.6043 17.3336 27.4813L17.9331 26.8922L20.0231 24.8149L14.5349 19.3696C14.4708 19.3063 14.42 19.231 14.3853 19.1481C14.3506 19.0651 14.3327 18.9762 14.3327 18.8864C14.3327 18.7966 14.3506 18.7076 14.3853 18.6247C14.42 18.5418 14.4708 18.4665 14.5349 18.4032Z" fill="#1A1A1A"/>
<path d="M20.867 18.4063L23.375 15.9164L21.285 13.8391L20.2211 12.7812L14.5459 18.4242C14.4819 18.4875 14.431 18.5628 14.3963 18.6457C14.3616 18.7287 14.3438 18.8176 14.3438 18.9074C14.3438 18.9972 14.3616 19.0862 14.3963 19.1691C14.431 19.252 14.4819 19.3273 14.5459 19.3906L20.0121 24.8188L21.076 23.7609L23.166 21.6828L20.8529 19.3875C20.7292 19.2567 20.6603 19.0839 20.6603 18.9043C20.6603 18.7247 20.7292 18.5519 20.8529 18.4211" fill="#1A1A1A"/>
<path d="M20.8648 19.3711L23.1772 21.6664L25.682 19.1766C25.7461 19.1132 25.7969 19.038 25.8316 18.955C25.8663 18.8721 25.8842 18.7832 25.8842 18.6934C25.8842 18.6035 25.8663 18.5146 25.8316 18.4317C25.7969 18.3488 25.7461 18.2735 25.682 18.2102L23.372 15.9141L20.8648 18.4039C20.7409 18.5348 20.6719 18.7077 20.6719 18.8875C20.6719 19.0672 20.7409 19.2402 20.8648 19.3711Z" fill="#1A1A1A"/>
<path d="M44.8893 16.4887C44.9129 15.5707 45.0967 14.6637 45.4322 13.8082C45.7467 13.0197 46.231 12.3093 46.8512 11.7269C47.5147 11.1254 48.2961 10.6668 49.1463 10.3801C50.1756 10.0441 51.256 9.8824 52.3395 9.9035C53.5455 9.86443 54.7492 10.0519 55.887 10.4535C56.7026 10.7529 57.4547 11.2015 58.1042 11.7762C58.6013 12.2165 58.9957 12.7593 59.26 13.3668C59.4518 13.8097 59.5782 14.2777 59.6364 14.7574C59.6465 14.8456 59.635 14.935 59.6029 15.0179C59.5707 15.1007 59.5189 15.1746 59.4517 15.2332C59.3198 15.3524 59.1476 15.418 58.9693 15.4168H56.976C56.8203 15.4239 56.667 15.3763 56.543 15.2824C56.4469 15.2056 56.3682 15.1095 56.312 15.0004C56.2285 14.8552 56.1421 14.7116 56.0527 14.5699C55.8702 14.3068 55.645 14.0755 55.3865 13.8855C55.0227 13.6167 54.6211 13.4027 54.1945 13.2504C53.6009 13.0453 52.9746 12.95 52.3465 12.9691C51.271 12.9158 50.215 13.2698 49.3915 13.9597C49.0204 14.2971 48.7237 14.7074 48.5203 15.1646C48.3169 15.6218 48.2111 16.116 48.2097 16.616C48.1744 17.2808 48.1579 17.9464 48.1602 18.6121C48.1602 19.3207 48.1602 19.9871 48.2097 20.6082C48.2561 21.9629 48.6537 22.9465 49.3915 23.5566C50.2329 24.2018 51.2783 24.527 52.3395 24.4738C52.9035 24.4781 53.4657 24.4117 54.013 24.2762C54.4923 24.1597 54.941 23.9433 55.3299 23.6418C55.711 23.3316 56.0072 22.9308 56.1918 22.4777C56.4118 21.9152 56.5163 21.316 56.5006 20.7137V20.5058H53.496C53.4084 20.5072 53.3215 20.4903 53.2409 20.4563C53.1602 20.4222 53.0876 20.3718 53.0277 20.3082C52.9651 20.2486 52.9155 20.1769 52.8818 20.0975C52.8482 20.0181 52.8312 19.9326 52.8321 19.8465V18.1066C52.8339 17.9318 52.9044 17.7646 53.0284 17.6407C53.1524 17.5168 53.3202 17.446 53.496 17.4433H59.1713C59.3472 17.446 59.5151 17.5169 59.6392 17.641C59.7632 17.7651 59.8336 17.9325 59.8352 18.1074V20.798C59.8454 21.7206 59.6868 22.6374 59.3669 23.5035C59.0595 24.3056 58.5745 25.0287 57.9479 25.6191C57.2769 26.2493 56.4788 26.7302 55.6065 27.0301C53.4827 27.691 51.2065 27.691 49.0827 27.0301C48.2354 26.7514 47.4585 26.2944 46.8049 25.6902C46.1919 25.0935 45.7173 24.3709 45.4142 23.573C45.0847 22.7078 44.9048 21.7933 44.8822 20.8683C44.8822 20.5582 44.854 20.216 44.8469 19.8418C44.8398 19.4683 44.8469 19.0801 44.8469 18.6887V17.5387C44.8469 17.1613 44.8681 16.8332 44.8822 16.509M67.4197 17.2504C67.0028 17.2387 66.5877 17.3097 66.1987 17.459C65.8844 17.5824 65.5968 17.7637 65.3509 17.9949C65.1283 18.2048 64.9478 18.4548 64.819 18.7316C64.7052 18.9757 64.6276 19.2349 64.5887 19.5012H70.1508C70.1152 19.2392 70.0534 18.9814 69.9662 18.7316C69.874 18.4568 69.7225 18.2053 69.5222 17.9949C69.2944 17.7597 69.017 17.5769 68.7106 17.459C68.298 17.3058 67.8598 17.2349 67.4197 17.2504ZM61.3885 20.9222C61.3822 20.0441 61.5237 19.1722 61.8073 18.3402C62.0652 17.5626 62.4751 16.8434 63.0134 16.2238C63.5431 15.626 64.1934 15.1455 64.9219 14.8137C65.7026 14.4667 66.5497 14.2921 67.4047 14.3019C68.2588 14.2911 69.1053 14.4618 69.8876 14.8027C70.6208 15.1202 71.2802 15.5849 71.8244 16.1676C72.3579 16.7423 72.7725 17.4157 73.0446 18.1496C73.3338 18.9129 73.4807 19.7222 73.4775 20.5379V21.6387C73.4747 21.8136 73.4035 21.9806 73.279 22.1043C73.1545 22.2279 72.9864 22.2985 72.8105 22.3012H64.588C64.5801 22.6457 64.6587 22.9871 64.819 23.2926C64.9761 23.5699 65.1914 23.8105 65.4507 23.998C65.7233 24.1988 66.0313 24.348 66.3582 24.4387C66.7048 24.5346 67.063 24.5832 67.4228 24.5832C67.855 24.5957 68.2871 24.5418 68.7035 24.4246C68.9942 24.3371 69.2692 24.2012 69.5152 24.0222C69.6535 23.9168 69.802 23.8262 69.9591 23.7512C70.1084 23.6957 70.2679 23.6699 70.4274 23.6769H72.3956C72.5763 23.6793 72.7492 23.7504 72.878 23.8746C72.9435 23.9323 72.9944 24.0045 73.0264 24.0854C73.0585 24.1663 73.0709 24.2536 73.0627 24.3402C73.0075 24.6601 72.8763 24.9622 72.68 25.2215C72.3917 25.6355 72.031 25.9933 71.6154 26.2801C71.07 26.6574 70.4727 26.9544 69.842 27.1621C69.0593 27.4156 68.2387 27.5345 67.4157 27.5137C66.5644 27.5234 65.7198 27.3618 64.9329 27.0387C64.1992 26.7368 63.5422 26.2765 63.0095 25.691C62.472 25.0789 62.0623 24.3667 61.8042 23.5957C61.5153 22.7316 61.3738 21.8257 61.3854 20.9152M79.3743 22.6855C79.3507 23.1262 79.4961 23.5582 79.7821 23.8957C80.0516 24.1988 80.5552 24.3504 81.297 24.3504H82.7977C82.9732 24.3524 83.141 24.4224 83.2655 24.5455C83.3899 24.6687 83.4611 24.8352 83.464 25.0097V26.6254C83.4613 26.8005 83.3902 26.9677 83.2657 27.0915C83.1411 27.2153 82.973 27.286 82.7969 27.2887H80.974C79.4293 27.2887 78.2476 26.9168 77.4265 26.1738C76.6062 25.4316 76.1922 24.2926 76.1851 22.7597V17.4941H74.5461C74.4591 17.4952 74.3729 17.4782 74.2929 17.4441C74.2129 17.4101 74.141 17.3598 74.0818 17.2965C74.0174 17.2379 73.9664 17.1663 73.9321 17.0866C73.8978 17.0068 73.8811 16.9207 73.883 16.834V15.216C73.882 15.1295 73.8992 15.0438 73.9334 14.9643C73.9676 14.8848 74.0182 14.8133 74.0818 14.7543C74.1415 14.6916 74.2136 14.6418 74.2934 14.6078C74.3733 14.5738 74.4592 14.5564 74.5461 14.5566H76.1741V10.5644C76.1767 10.3902 76.2475 10.2238 76.3715 10.1005C76.4954 9.97729 76.6628 9.9069 76.838 9.90428H78.7104C78.8855 9.90689 79.0528 9.97718 79.1767 10.1003C79.3006 10.2233 79.3715 10.3895 79.3743 10.5637V14.5558H82.5667C82.7368 14.5657 82.8969 14.6393 83.0147 14.7618C83.1325 14.8842 83.1992 15.0465 83.2015 15.216V16.8347C83.1989 17.0089 83.1282 17.1752 83.0044 17.2984C82.8807 17.4216 82.7135 17.4921 82.5384 17.4949H79.3452L79.3743 22.6863V22.6855ZM95.5545 20.8972L92.8438 13.9176L90.137 20.8972H95.5545ZM94.1992 10.1472C94.307 10.1395 94.4153 10.154 94.5172 10.1897C94.6191 10.2255 94.7125 10.2818 94.7916 10.3551C94.9503 10.5379 95.0705 10.7504 95.146 10.9801L101.177 26.4566C101.194 26.5113 101.201 26.5683 101.201 26.6254C101.199 26.8004 101.128 26.9676 101.004 27.0914C100.879 27.2153 100.711 27.286 100.535 27.2887H98.761C98.6377 27.3015 98.513 27.2898 98.3942 27.2541C98.2755 27.2184 98.1651 27.1595 98.0696 27.0808C97.9535 26.9646 97.8619 26.8264 97.8001 26.6746L96.7355 23.959H88.9561L87.8915 26.6746C87.8296 26.8264 87.738 26.9646 87.622 27.0808C87.5265 27.1597 87.4162 27.2187 87.2974 27.2544C87.1787 27.2901 87.0539 27.3017 86.9305 27.2887H85.1564C84.981 27.2848 84.814 27.2136 84.6903 27.0899C84.5667 26.9663 84.4961 26.7997 84.4933 26.6254C84.4919 26.5681 84.5004 26.511 84.5184 26.4566L90.5488 10.9801C90.6242 10.7504 90.7452 10.5379 90.9039 10.3551C90.9827 10.2814 91.0761 10.2248 91.1781 10.189C91.2801 10.1533 91.3885 10.139 91.4963 10.1472H94.1992ZM111.734 21.6066C111.783 21.1517 111.783 20.6928 111.734 20.2379C111.638 19.1801 111.308 18.4113 110.751 17.9488C110.178 17.476 109.452 17.2254 108.708 17.2433C107.966 17.2199 107.242 17.4714 106.676 17.9488C106.391 18.2084 106.16 18.5216 105.997 18.8702C105.835 19.2188 105.743 19.596 105.728 19.9801C105.69 20.289 105.674 20.6001 105.678 20.9113C105.674 21.223 105.69 21.534 105.728 21.8426C105.771 22.6082 106.111 23.3277 106.676 23.8504C107.234 24.3426 107.961 24.6051 108.708 24.5832C109.452 24.6011 110.178 24.3505 110.751 23.8777C111.308 23.416 111.638 22.6512 111.734 21.5887V21.6066ZM109.453 27.5324C108.994 27.5371 108.535 27.4884 108.087 27.3871C107.721 27.3059 107.365 27.1879 107.023 27.0347C106.751 26.8986 106.495 26.733 106.26 26.541C106.076 26.3962 105.904 26.2368 105.746 26.0644V31.2777C105.743 31.4528 105.672 31.6198 105.548 31.7436C105.423 31.8674 105.255 31.9382 105.079 31.941H103.21C103.034 31.9388 102.865 31.8682 102.741 31.7443C102.616 31.6204 102.545 31.4529 102.543 31.2777V15.216C102.547 15.0418 102.619 14.8759 102.743 14.753C102.867 14.6302 103.035 14.5598 103.21 14.5566H105.079C105.254 14.5594 105.422 14.6297 105.546 14.7526C105.671 14.8756 105.742 15.0416 105.746 15.216V15.7808C106.109 15.3812 106.548 15.0565 107.037 14.8254C107.379 14.672 107.736 14.5537 108.102 14.4722C108.55 14.3712 109.008 14.3227 109.467 14.3277C110.236 14.3166 110.998 14.4792 111.695 14.8035C112.342 15.1082 112.92 15.5418 113.393 16.0769C113.869 16.6199 114.245 17.2419 114.504 17.9144C114.774 18.6066 114.928 19.3379 114.958 20.0801C114.976 20.323 114.983 20.609 114.983 20.9371C114.983 21.2652 114.983 21.5512 114.958 21.7941C114.927 22.5359 114.774 23.2676 114.504 23.9597C114.245 24.6323 113.869 25.2543 113.393 25.7972C112.92 26.3323 112.342 26.7656 111.695 27.0707C110.993 27.3922 110.226 27.5501 109.453 27.5324ZM125.654 21.6066C125.703 21.1517 125.703 20.6928 125.654 20.2379C125.555 19.1801 125.229 18.4113 124.668 17.9488C124.095 17.4749 123.369 17.2241 122.625 17.2433C121.883 17.22 121.158 17.4714 120.592 17.9488C120.307 18.2084 120.077 18.5216 119.914 18.8702C119.751 19.2188 119.66 19.596 119.645 19.9801C119.609 20.2892 119.592 20.6002 119.595 20.9113C119.592 21.223 119.608 21.534 119.645 21.8426C119.688 22.6082 120.027 23.3277 120.592 23.8504C121.151 24.3432 121.878 24.6053 122.625 24.5832C123.369 24.6023 124.095 24.3516 124.668 23.8777C125.229 23.416 125.555 22.6512 125.654 21.5887V21.6066ZM123.363 27.5144C122.903 27.5193 122.445 27.4708 121.997 27.3699C121.631 27.288 121.274 27.1697 120.932 27.0168C120.657 26.8862 120.398 26.7253 120.159 26.5371C119.974 26.3921 119.801 26.2327 119.641 26.0605V31.2777C119.642 31.3647 119.624 31.4508 119.59 31.5309C119.556 31.6109 119.506 31.6832 119.443 31.7433C119.383 31.8059 119.311 31.8558 119.231 31.8897C119.151 31.9237 119.065 31.9412 118.978 31.941H117.105C116.929 31.9382 116.762 31.8672 116.638 31.7434C116.514 31.6195 116.444 31.4524 116.442 31.2777V15.216C116.444 15.0417 116.515 14.8752 116.638 14.752C116.762 14.6288 116.93 14.5587 117.105 14.5566H118.978C119.153 14.5608 119.319 14.6316 119.443 14.7544C119.566 14.8771 119.637 15.0424 119.641 15.216V15.7808C119.801 15.609 119.975 15.4488 120.159 15.3043C120.398 15.1168 120.657 14.9551 120.932 14.8246C121.274 14.672 121.631 14.5539 121.997 14.4722C122.445 14.3714 122.903 14.3229 123.363 14.3277C124.133 14.3166 124.896 14.4793 125.594 14.8035C126.241 15.11 126.818 15.5431 127.293 16.0769C127.767 16.6201 128.142 17.2421 128.4 17.9144C128.67 18.6066 128.823 19.3379 128.854 20.0801C128.871 20.323 128.878 20.609 128.878 20.9371C128.878 21.2652 128.878 21.5512 128.854 21.7941C128.823 22.5359 128.67 23.2676 128.4 23.9597C128.142 24.6321 127.767 25.2541 127.293 25.7972C126.818 26.331 126.241 26.7642 125.594 27.0707C124.896 27.3952 124.133 27.5581 123.363 27.5472" fill="#1A1A1A"/>
</g>
</g>
<defs>
<clipPath id="clip0_1007_7278">
<rect width="121" height="25" fill="white" transform="translate(8 7)"/>
</clipPath>
</defs>
</svg>
