<svg width="112" height="93" viewBox="0 0 112 93" fill="none" xmlns="http://www.w3.org/2000/svg">
<path fill-rule="evenodd" clip-rule="evenodd" d="M63.5081 8.8699C62.4544 9.24985 61.2922 8.70365 60.9122 7.64994C60.5323 6.59623 61.0785 5.43403 62.1322 5.05409C63.1859 4.67415 64.3481 5.22035 64.7281 6.27405C65.108 7.32776 64.5618 8.48996 63.5081 8.8699ZM64.1187 10.5632C63.433 10.8104 62.723 10.8499 62.0575 10.714L58.7257 18.5651L62.0126 27.6805C71.0783 33.2993 77.1196 43.3412 77.1196 54.795C77.1196 61.1056 75.2859 66.9879 72.1222 71.9382L79.465 75.3816C79.5106 75.1614 79.6383 74.9578 79.8386 74.8209L86.1951 70.4777C86.6055 70.1973 87.1655 70.3026 87.446 70.713C87.7264 71.1234 87.621 71.6834 87.2106 71.9639L81.0919 76.1446L90.7463 80.6721C91.1963 80.8831 91.3901 81.4191 91.179 81.8691C90.968 82.3191 90.4321 82.5128 89.9821 82.3018L85.3522 80.1306L87.9143 85.1757C88.1394 85.6189 87.9626 86.1606 87.5194 86.3856C87.0762 86.6107 86.5345 86.4339 86.3094 85.9907L83.3077 80.08C83.1588 79.7868 83.1858 79.4505 83.3494 79.1913L71.3683 73.5727C70.6016 74.483 69.7892 75.3322 68.9373 76.1193C68.7715 76.3035 68.6035 76.4857 68.4335 76.6659L73.8341 80.991C74.2221 81.3017 74.2847 81.8681 73.974 82.2561C73.6633 82.644 73.0969 82.7067 72.7089 82.396L67.1542 77.9475C61.585 83.2201 54.1146 86.5049 45.8786 86.6662C45.471 88.4931 43.8402 89.8587 41.8905 89.8587C39.6338 89.8587 37.8044 88.0293 37.8044 85.7726C37.8044 83.516 39.6338 81.6866 41.8905 81.6866C43.8355 81.6866 45.4631 83.0456 45.8756 84.8659C62.1945 84.5288 75.3196 71.1947 75.3196 54.795C75.3196 43.8711 69.4966 34.3064 60.7809 29.037C60.5394 28.891 60.3911 28.6495 60.355 28.3902L59.3384 25.5709L54.2495 23.1793C53.8146 23.7758 53.203 24.2532 52.4563 24.5224C50.4674 25.2396 48.2737 24.2086 47.5565 22.2197C46.8394 20.2308 47.8703 18.0372 49.8592 17.32C51.8481 16.6029 54.0418 17.6338 54.7589 19.6227C54.9854 20.2507 55.0375 20.8992 54.9403 21.5151L58.475 23.1763L53.0033 8.00191C52.8347 7.53433 53.0771 7.01859 53.5447 6.84999C54.0123 6.68139 54.528 6.92377 54.6966 7.39136L57.8274 16.074L60.4263 9.95006C59.8932 9.5238 59.4675 8.94966 59.219 8.2605C58.5018 6.27161 59.5327 4.07795 61.5216 3.36081C63.5105 2.64367 65.7042 3.67462 66.4213 5.6635C67.1385 7.65238 66.1076 9.84605 64.1187 10.5632ZM51.8457 22.8291C50.792 23.2091 49.6298 22.6629 49.2498 21.6092C48.8699 20.5555 49.4161 19.3933 50.4698 19.0133C51.5235 18.6334 52.6857 19.1796 53.0656 20.2333C53.4456 21.287 52.8994 22.4492 51.8457 22.8291ZM67.9422 54.7951C67.9422 67.332 57.7791 77.4951 45.2422 77.4951C32.7053 77.4951 22.5422 67.332 22.5422 54.7951C22.5422 42.2583 32.7053 32.0951 45.2422 32.0951C57.7791 32.0951 67.9422 42.2583 67.9422 54.7951ZM69.7422 54.7951C69.7422 68.3261 58.7732 79.2951 45.2422 79.2951C31.7112 79.2951 20.7422 68.3261 20.7422 54.7951C20.7422 41.2641 31.7112 30.2951 45.2422 30.2951C58.7732 30.2951 69.7422 41.2641 69.7422 54.7951ZM44.5798 57.8359C45.5957 57.8359 46.5483 57.4411 47.2663 56.723C47.9844 56.0058 48.3784 55.0524 48.3784 54.0374C48.3784 53.0223 47.9844 52.0681 47.2663 51.3509C46.5483 50.6329 45.5957 50.238 44.5798 50.238C43.564 50.238 42.6114 50.6329 41.8933 51.3509C41.1762 52.0689 40.7813 53.0223 40.7813 54.0374C40.7813 55.0524 41.1753 56.0058 41.8933 56.723C42.6114 57.4411 43.564 57.8359 44.5798 57.8359ZM45.2422 68.295C52.6857 68.295 58.7422 62.2386 58.7422 54.7951C58.7422 47.3507 52.6857 41.2951 45.2422 41.2951C37.7986 41.2951 31.7422 47.3515 31.7422 54.7951C31.7422 62.2386 37.7986 68.295 45.2422 68.295ZM49.0163 57.2546L51.2488 59.4931C51.5771 59.823 51.5771 60.3579 51.2472 60.6853C51.0826 60.8498 50.8675 60.9316 50.6515 60.9316C50.4346 60.9316 50.2186 60.849 50.0541 60.6836L47.8274 58.451C46.8909 59.1429 45.7653 59.5226 44.5798 59.5226C43.1134 59.5226 41.7364 58.9514 40.7003 57.9152C39.665 56.88 39.0938 55.5021 39.0938 54.0365C39.0938 52.5709 39.6642 51.1931 40.7003 50.157C41.7364 49.1209 43.1134 48.5496 44.5798 48.5496C46.0463 48.5496 47.4233 49.1209 48.4594 50.157C49.4955 51.1931 50.0659 52.5709 50.0659 54.0365C50.0659 55.2102 49.6947 56.3239 49.0163 57.2546ZM41.8905 88.0587C43.1531 88.0587 44.1766 87.0352 44.1766 85.7726C44.1766 84.5101 43.1531 83.4866 41.8905 83.4866C40.6279 83.4866 39.6044 84.5101 39.6044 85.7726C39.6044 87.0352 40.6279 88.0587 41.8905 88.0587Z" fill="url(#paint0_linear_1346_27202)"/>
<defs>
<linearGradient id="paint0_linear_1346_27202" x1="25.5392" y1="28.1173" x2="94.8021" y2="44.8487" gradientUnits="userSpaceOnUse">
<stop stop-color="#DB8016"/>
<stop offset="1" stop-color="#DBAC16"/>
</linearGradient>
</defs>
</svg>
