<svg width="20" height="14" viewBox="0 0 20 14" fill="none" xmlns="http://www.w3.org/2000/svg">
<path d="M18.9808 2.31203C18.7648 1.50877 18.1315 0.875565 17.3283 0.659271C15.8611 0.257812 9.99196 0.257812 9.99196 0.257812C9.99196 0.257812 4.12309 0.257812 2.65584 0.644051C1.86814 0.860115 1.21938 1.50888 1.00331 2.31203C0.617188 3.77916 0.617188 6.8218 0.617188 6.8218C0.617188 6.8218 0.617188 9.87978 1.00331 11.3316C1.2196 12.1347 1.85269 12.7679 2.65595 12.9842C4.13853 13.3858 9.99219 13.3858 9.99219 13.3858C9.99219 13.3858 15.8611 13.3858 17.3283 12.9995C18.1316 12.7834 18.7648 12.1502 18.9811 11.347C19.3671 9.87978 19.3671 6.83725 19.3671 6.83725C19.3671 6.83725 19.3825 3.77916 18.9808 2.31203ZM8.12337 9.6327V4.0109L13.0038 6.8218L8.12337 9.6327Z" fill="#1A1A1A"/>
</svg>
