<svg width="107" height="71" viewBox="0 0 107 71" fill="none" xmlns="http://www.w3.org/2000/svg">
<g clip-path="url(#clip0_1055_10366)">
<path d="M64.2351 1.28125H63.0312V2.47247H64.2351V1.28125Z" fill="#A6A6A8"/>
<path d="M89.2585 16.0938H88.0547V17.285H89.2585V16.0938Z" fill="#A6A6A8"/>
<path d="M102.683 14.8153C102.979 14.6757 103.217 14.4762 103.398 14.2112C103.579 13.949 103.706 13.6298 103.781 13.2594C103.855 12.886 103.893 12.4671 103.893 12.0026V3.66406H102.689V12.0026C102.689 12.3389 102.672 12.6238 102.637 12.8575C102.603 13.0912 102.542 13.2793 102.456 13.4246C102.37 13.5671 102.255 13.6726 102.111 13.7381C101.965 13.8037 101.778 13.835 101.548 13.835C101.439 13.835 101.341 13.8293 101.264 13.8208C101.183 13.8122 101.074 13.7866 100.933 13.7467L100.617 14.8923C100.948 14.9835 101.275 15.0262 101.594 15.0262C102.025 15.0262 102.387 14.9578 102.683 14.8182V14.8153Z" fill="#A6A6A8"/>
<path d="M98.5459 1.55884H96.8938V1.28241C96.8938 1.13137 96.9254 1.01453 96.9915 0.931886C97.0461 0.86349 97.1754 0.829293 97.3621 0.829293H98.1896V0H97.342C96.8823 0 96.5232 0.119692 96.2818 0.356225C96.0376 0.592759 95.9141 0.980332 95.9141 1.50185V2.47363H98.5488V1.55599L98.5459 1.55884Z" fill="#A6A6A8"/>
<path d="M86.8601 16.0938H85.6562V17.285H86.8601V16.0938Z" fill="#A6A6A8"/>
<path d="M66.6492 1.28125H65.4453V2.47247H66.6492V1.28125Z" fill="#A6A6A8"/>
<path d="M93.1203 10.8028C93.5771 11.1248 94.1058 11.3642 94.7063 11.5181C95.3068 11.672 95.9446 11.749 96.617 11.749H96.9359L97.341 10.9083V12.0909C97.341 12.715 97.16 13.1625 96.8009 13.4303C96.4388 13.6982 95.9332 13.8322 95.2809 13.8322C94.9103 13.8322 94.577 13.798 94.2811 13.7267C93.9851 13.6583 93.6461 13.5386 93.2668 13.3705L92.8905 14.5161C93.3502 14.6843 93.761 14.8125 94.1173 14.8951C94.4736 14.9806 94.8327 15.0205 95.1919 15.0205C96.3641 15.0205 97.2175 14.7441 97.749 14.1941C98.2805 13.6412 98.5449 12.9003 98.5449 11.9684V3.66406H96.6198C95.8786 3.66406 95.2005 3.76951 94.5885 3.97754C93.9765 4.18558 93.4536 4.47056 93.0169 4.83248C92.5802 5.19441 92.2411 5.62758 92.0026 6.12914C91.7613 6.63071 91.6406 7.17502 91.6406 7.75923C91.6406 8.46313 91.7728 9.06729 92.04 9.56886C92.3043 10.0704 92.6664 10.4836 93.1232 10.8057L93.1203 10.8028ZM93.1203 6.58226C93.3042 6.22604 93.5513 5.92111 93.8559 5.66747C94.1604 5.41384 94.5109 5.22006 94.9017 5.08041C95.2809 4.94647 95.6746 4.87808 96.0826 4.87523H98.0277L97.341 5.21436V10.5634H96.1228C95.6717 10.5634 95.2493 10.5007 94.8528 10.3753C94.4563 10.2528 94.1087 10.0704 93.807 9.83104C93.5053 9.59165 93.2697 9.30097 93.1002 8.9533C92.9307 8.60562 92.8445 8.2095 92.8445 7.76208C92.8445 7.31466 92.9364 6.94419 93.1232 6.58511L93.1203 6.58226Z" fill="#A6A6A8"/>
<path d="M63.3672 14.8581H65.8668V13.9661C65.8898 14.0089 65.9157 14.0516 65.9415 14.0886C66.1225 14.3508 66.361 14.5532 66.6569 14.6928C66.9529 14.8324 67.3149 14.9008 67.7459 14.9008H89.6826V3.66406H88.4787V13.7125H67.789C67.5591 13.7125 67.3695 13.6811 67.2258 13.6156C67.0822 13.55 66.9644 13.4474 66.8811 13.3021C66.7977 13.1568 66.7374 12.9687 66.7 12.735C66.6656 12.5013 66.6483 12.2163 66.6483 11.88V3.66406H63.3959C60.0688 3.66406 57.8047 6.27733 57.8047 9.26108V9.29242C57.8047 12.2762 60.0371 14.8581 63.3643 14.8581H63.3672ZM59.0861 9.22973C59.0861 6.77035 60.8675 4.79258 63.3643 4.79258H66.18L65.4416 5.15736V11.88C65.4416 12.3474 65.4789 12.7663 65.5536 13.1368C65.5967 13.3534 65.66 13.55 65.7404 13.7296H63.393C60.8934 13.7296 59.0833 11.7176 59.0833 9.26108V9.22973H59.0861Z" fill="#A6A6A8"/>
<path d="M51.7808 11.9036L52.3038 13.2772L44.664 3.65625H43.4688V14.8389H44.71V6.40916L44.0032 4.77907L52.005 14.8389H53.0221V3.65625H51.7808V11.9036Z" fill="#A6A6A8"/>
<path d="M68.9111 32.7135L75.847 26.1561V21.6562H57.3092V26.7773H66.8137L70.3391 24.5317L61.5386 33.2948L62.481 37.0965H64.9892C68.3595 37.0965 70.3592 38.339 70.3592 40.5504V40.6274C70.3592 42.645 68.7531 43.9246 66.4804 43.9246C63.6992 43.9246 61.7397 42.7619 59.8577 40.6644L55.7031 44.5829C58.0534 47.3387 61.4638 49.2765 66.4028 49.2765C72.517 49.2765 76.278 45.5119 76.278 40.3909V40.3139C76.278 35.2698 72.6319 33.3319 68.9111 32.7106V32.7135Z" fill="#A6A6A8"/>
<path d="M35.6451 3.46094C32.2088 3.46094 29.8672 6.1597 29.8672 9.24604V9.27739C29.8672 12.3609 32.1743 15.0283 35.6135 15.0283C39.0527 15.0283 41.3915 12.3295 41.3915 9.24604V9.21469C41.3915 6.1312 39.0843 3.46379 35.6451 3.46379V3.46094ZM40.067 9.27739C40.067 11.8166 38.2281 13.8627 35.6451 13.8627C33.0622 13.8627 31.1917 11.7852 31.1917 9.24604V9.21469C31.1917 6.67552 33.0334 4.62936 35.6135 4.62936C38.1937 4.62936 40.067 6.70686 40.067 9.24604V9.27739Z" fill="#A6A6A8"/>
<path d="M92.4547 21.1875C83.9903 21.1875 77.8359 27.5112 77.8359 35.2313V35.3083C77.8359 43.0284 83.9098 49.2752 92.3742 49.2752C100.839 49.2752 106.993 42.9515 106.993 35.2313V35.1544C106.993 27.4343 100.919 21.1875 92.4547 21.1875ZM100.686 35.3111C100.686 39.9677 97.3161 43.7693 92.4547 43.7693C87.5932 43.7693 84.1454 39.8908 84.1454 35.2342V35.1572C84.1454 30.5007 87.5157 26.699 92.3742 26.699C97.2327 26.699 100.683 30.5776 100.683 35.2342V35.3111H100.686Z" fill="#A6A6A8"/>
<path d="M27.6585 3.65625H26.3828V14.8389H27.6585V3.65625Z" fill="#A6A6A8"/>
<path d="M5.91223 45.7084L7.07586 44.8193L13.0722 40.2368C17.9307 36.5121 20.2839 34.2636 20.2839 29.7238V29.6469C20.2839 24.5628 16.5229 21.2656 10.8397 21.2656C5.94096 21.2656 3.31487 23.2434 0.611213 26.8911L4.8434 30.2653C6.88049 27.7831 8.33144 26.6204 10.449 26.6204C12.5665 26.6204 14.1324 27.8629 14.1324 30.1513C14.1324 32.4397 12.7992 33.876 9.39164 36.6688L0.257812 44.0783V48.8118H20.5597V43.6508H10.0984L5.91223 45.7084Z" fill="#A6A6A8"/>
<path d="M5.9877 14.9187L10.8462 3.65625H9.47287L5.6343 12.8241L5.75785 14.0523L5.43892 13.2886L2.11466 5.32054L1.41935 3.65625H0L4.85854 14.9187H5.9877Z" fill="#A6A6A8"/>
<path d="M13.8538 3.65625H12.5781V14.8389H13.8538V3.65625Z" fill="#A6A6A8"/>
<path d="M20.605 8.64105C18.1197 8.11383 17.5393 7.52392 17.5393 6.4695V6.43815C17.5393 5.43217 18.4759 4.63422 19.9441 4.63422C21.1049 4.63422 22.1565 5.00185 23.2052 5.84824L23.9465 4.87361C22.8001 3.96167 21.6221 3.5 19.9757 3.5C17.8295 3.5 16.2636 4.79381 16.2636 6.55214V6.58349C16.2636 8.42161 17.4588 9.2509 20.0562 9.81231C22.4294 10.3082 22.9926 10.8981 22.9926 11.9383V11.9696C22.9926 13.0725 21.9927 13.8704 20.4757 13.8704C18.9586 13.8704 17.7806 13.3432 16.6026 12.2888L15.8125 13.215C17.1686 14.4147 18.6368 15.0047 20.4268 15.0047C22.6708 15.0047 24.2826 13.7593 24.2826 11.8414V11.81C24.2826 10.1001 23.1219 9.19106 20.6021 8.64675L20.605 8.64105Z" fill="#A6A6A8"/>
<path d="M36.9503 19.4062L38.3381 20.7257L37.0049 22.0993L35.6172 20.7799L36.9503 19.4062Z" fill="#273877"/>
<path d="M40.125 20.7799L41.5156 22.0993L42.8488 20.7257L41.4582 19.4062L40.125 20.7799Z" fill="#AAAAAD"/>
<path d="M38.1719 22.5062L39.2551 23.535L40.2923 22.4634L39.212 21.4375L38.1719 22.5062Z" fill="#CCD533"/>
<path d="M42.1328 23.095L43.2131 24.1209L44.2532 23.0522L43.17 22.0234L42.1328 23.095Z" fill="#71B645"/>
<path d="M36.4062 24.1497L37.4866 25.1784L38.5238 24.1069L37.4435 23.0781L36.4062 24.1497Z" fill="#CCD533"/>
<path d="M40.0312 24.2746L41.1116 25.3006L42.1517 24.2319L41.0685 23.2031L40.0312 24.2746Z" fill="#26B4BB"/>
<path d="M38.6094 25.5052L39.3708 26.229L40.1006 25.4739L39.3392 24.75L38.6094 25.5052Z" fill="#71B645"/>
<path d="M41.4844 26.0648L42.2458 26.7887L42.9756 26.0335L42.2142 25.3125L41.4844 26.0648Z" fill="#59B25A"/>
<path d="M50.1176 19.9068L47.7578 20.3359L48.19 22.6737L50.5497 22.2446L50.1176 19.9068Z" fill="#2885C7"/>
<path d="M46.5654 20.9685L44.6719 21.3125L45.0182 23.1878L46.9117 22.8438L46.5654 20.9685Z" fill="#1D3A6D"/>
<path d="M50.2216 23.5932L48.3281 23.9375L48.6748 25.8128L50.5682 25.4684L50.2216 23.5932Z" fill="#26B4BB"/>
<path d="M47.194 23.9351L45.7188 24.2031L45.9885 25.6636L47.4637 25.3955L47.194 23.9351Z" fill="#CCD533"/>
<path d="M50.069 26.7163L48.5938 26.9844L48.8635 28.4448L50.3387 28.1768L50.069 26.7163Z" fill="#AAAAAD"/>
<path d="M44.9909 24.5367L43.5156 24.8047L43.7853 26.2651L45.2606 25.9971L44.9909 24.5367Z" fill="#26B4BB"/>
<path d="M47.6549 26.4507L46.1797 26.7188L46.4494 28.1792L47.9247 27.9112L47.6549 26.4507Z" fill="#71B645"/>
<path d="M45.3419 26.6942L44.3047 26.8828L44.4943 27.9087L45.5315 27.7201L45.3419 26.6942Z" fill="#AAAAAD"/>
<path d="M47.342 28.8275L46.3047 29.0156L46.4938 30.0416L47.5311 29.8536L47.342 28.8275Z" fill="#59B25A"/>
<path d="M54.7737 27.9922L53.7422 30.1381L55.9114 31.1583L56.94 29.0124L54.7737 27.9922Z" fill="#273877"/>
<path d="M51.6918 27L50.8672 28.7213L52.6055 29.5392L53.4329 27.8179L51.6918 27Z" fill="#26B4BB"/>
<path d="M53.1165 31.2422L52.2891 32.9635L54.0273 33.7814L54.8548 32.0601L53.1165 31.2422Z" fill="#71B645"/>
<path d="M50.8389 29.9531L50.1953 31.2925L51.5486 31.9309L52.1922 30.5886L50.8389 29.9531Z" fill="#CCD533"/>
<path d="M51.5264 33.8672L50.8828 35.2066L52.2361 35.8449L52.8797 34.5055L51.5264 33.8672Z" fill="#CCD533"/>
<path d="M48.6905 29.1562L48.0469 30.4957L49.4001 31.134L50.0437 29.7918L48.6905 29.1562Z" fill="#2885C7"/>
<path d="M49.7373 32.2578L49.0938 33.5972L50.447 34.2356L51.0906 32.8933L49.7373 32.2578Z" fill="#AAAAAD"/>
<path d="M48.1152 31.3125L47.6641 32.2558L48.6151 32.7032L49.069 31.7628L48.1152 31.3125Z" fill="#71B645"/>
<path d="M48.4753 34.191L48.0234 35.1328L48.9756 35.5823L49.4275 34.6404L48.4753 34.191Z" fill="#26B4BB"/>
<path d="M55.942 38.2656L53.8359 39.4084L54.991 41.4916L57.0941 40.3488L55.942 38.2656Z" fill="#2885C7"/>
<path d="M54.0381 35.6875L52.3516 36.6023L53.2767 38.2751L54.9662 37.3575L54.0381 35.6875Z" fill="#26B4BB"/>
<path d="M52.6816 39.9453L50.9922 40.8629L51.9202 42.5329L53.6068 41.6181L52.6816 39.9453Z" fill="#26B4BB"/>
<path d="M51.5943 37.5781L50.2812 38.2906L51.0024 39.5929L52.3155 38.8776L51.5943 37.5781Z" fill="#273877"/>
<path d="M49.8394 41.1484L48.5234 41.8637L49.2446 43.1633L50.5605 42.4508L49.8394 41.1484Z" fill="#59B25A"/>
<path d="M50.3315 35.6875L49.0156 36.4028L49.7368 37.7023L51.0527 36.9899L50.3315 35.6875Z" fill="#1D3A6D"/>
<path d="M49.3365 38.8125L48.0234 39.5278L48.7446 40.8273L50.0576 40.1149L49.3365 38.8125Z" fill="#CCD533"/>
<path d="M48.5736 37.1016L47.6484 37.606L48.157 38.5208L49.0822 38.0192L48.5736 37.1016Z" fill="#AAAAAD"/>
<path d="M47.1673 39.6406L46.2422 40.1422L46.7479 41.057L47.673 40.5554L47.1673 39.6406Z" fill="#26B4BB"/>
<path d="M48.4425 46.985L48.1484 49.3438L50.5294 49.6358L50.8235 47.277L48.4425 46.985Z" fill="#71B645"/>
<path d="M48.8769 43.8345L48.6406 45.7266L50.5511 45.9612L50.7873 44.0692L48.8769 43.8345Z" fill="#1D3A6D"/>
<path d="M45.2675 46.5142L45.0312 48.4062L46.9417 48.6409L47.1779 46.7489L45.2675 46.5142Z" fill="#26B4BB"/>
<path d="M46.2072 44.0265L46.0234 45.5L47.5119 45.6826L47.6956 44.2091L46.2072 44.0265Z" fill="#71B645"/>
<path d="M42.6837 45.9015L42.5 47.375L43.9885 47.5576L44.1722 46.0841L42.6837 45.9015Z" fill="#AAAAAD"/>
<path d="M46.2934 41.7453L46.1094 43.2188L47.5978 43.4016L47.7818 41.9281L46.2934 41.7453Z" fill="#AAAAAD"/>
<path d="M43.6527 43.6984L43.4688 45.1719L44.9572 45.3547L45.1412 43.8812L43.6527 43.6984Z" fill="#71B645"/>
<path d="M44.4806 41.9336L44.3516 42.9688L45.398 43.0971L45.5271 42.062L44.4806 41.9336Z" fill="#AAAAAD"/>
<path d="M41.84 43.1836L41.7109 44.2188L42.7574 44.3471L42.8865 43.312L41.84 43.1836Z" fill="#AAAAAD"/>
<path d="M41.3357 51.6187L39.5773 50L37.9453 51.7441L39.7037 53.3599L41.3357 51.6187Z" fill="#CCD533"/>
<path d="M41.0075 18.3374L39.2492 16.7188L37.6172 18.46L39.3756 20.0787L41.0075 18.3374Z" fill="#71B645"/>
<path d="M43.2131 49.0076L41.8024 47.7109L40.4922 49.1102L41.9058 50.404L43.2131 49.0076Z" fill="#26B4BB"/>
<path d="M38.7053 49.0779L37.2945 47.7812L35.9844 49.1805L37.3951 50.4743L38.7053 49.0779Z" fill="#71B645"/>
<path d="M40.6175 47.3135L39.52 46.3047L38.5 47.3905L39.5976 48.3993L40.6175 47.3135Z" fill="#2885C7"/>
<path d="M36.6488 46.7901L35.5512 45.7812L34.5312 46.8699L35.6288 47.8787L36.6488 46.7901Z" fill="#CCD533"/>
<path d="M42.0394 45.5273L40.9419 44.5156L39.9219 45.6042L41.0194 46.6131L42.0394 45.5273Z" fill="#CCD533"/>
<path d="M38.7298 45.5898L37.6294 44.5781L36.6094 45.6667L37.7098 46.6756L38.7298 45.5898Z" fill="#AAAAAD"/>
<path d="M40.1367 44.3346L39.3639 43.625L38.6484 44.3887L39.4213 45.1012L40.1367 44.3346Z" fill="#1D3A6D"/>
<path d="M37.2539 43.8034L36.481 43.0938L35.7656 43.8603L36.5385 44.57L37.2539 43.8034Z" fill="#AAAAAD"/>
<path d="M30.6024 47.3138L28.25 47.7812L28.7208 50.1117L31.0731 49.6442L30.6024 47.3138Z" fill="#2885C7"/>
<path d="M33.7781 46.7343L31.8906 47.1094L32.2683 48.9787L34.1558 48.6036L33.7781 46.7343Z" fill="#26B4BB"/>
<path d="M30.0671 44.1871L28.1797 44.5625L28.5576 46.4318L30.4451 46.0564L30.0671 44.1871Z" fill="#71B645"/>
<path d="M32.7674 44.2859L31.2969 44.5781L31.591 46.0339L33.0615 45.7417L32.7674 44.2859Z" fill="#CCD533"/>
<path d="M34.9549 43.6531L33.4844 43.9453L33.7785 45.4011L35.249 45.1089L34.9549 43.6531Z" fill="#273877"/>
<path d="M32.244 41.7859L30.7734 42.0781L31.0675 43.5339L32.5381 43.2417L32.244 41.7859Z" fill="#2885C7"/>
<path d="M34.2058 42.0135L33.1719 42.2188L33.3783 43.2415L34.4122 43.0362L34.2058 42.0135Z" fill="#71B645"/>
<path d="M32.1823 39.935L31.1484 40.1406L31.3552 41.1633L32.3891 40.9576L32.1823 39.935Z" fill="#AAAAAD"/>
<path d="M23.9365 42.0993L24.9306 39.9392L22.747 38.9531L21.75 41.1161L23.9365 42.0993Z" fill="#26B4BB"/>
<path d="M27.0261 43.0406L27.8248 41.305L26.0722 40.5156L25.2734 42.2483L27.0261 43.0406Z" fill="#CCD533"/>
<path d="M25.5339 38.8218L26.3326 37.0891L24.58 36.2969L23.7812 38.0324L25.5339 38.8218Z" fill="#2885C7"/>
<path d="M27.09 38.1179L26.4688 39.4688L27.8333 40.0861L28.4545 38.7353L27.09 38.1179Z" fill="#26B4BB"/>
<path d="M29.6616 43.4586L30.2822 42.1077L28.9175 41.4922L28.2969 42.843L29.6616 43.4586Z" fill="#AAAAAD"/>
<path d="M26.34 34.2117L25.7188 35.5625L27.0833 36.1799L27.7045 34.829L26.34 34.2117Z" fill="#273877"/>
<path d="M29.2462 38.8679L28.625 40.2188L29.9895 40.8361L30.6108 39.4853L29.2462 38.8679Z" fill="#59B25A"/>
<path d="M28.1608 35.79L27.5391 37.1406L28.9034 37.7585L29.5251 36.4078L28.1608 35.79Z" fill="#CCD533"/>
<path d="M30.5456 38.6741L30.9823 37.7222L30.0227 37.2891L29.5859 38.2409L30.5456 38.6741Z" fill="#1D3A6D"/>
<path d="M30.1344 35.804L30.5711 34.8522L29.6115 34.4219L29.1719 35.3709L30.1344 35.804Z" fill="#71B645"/>
<path d="M22.5957 31.8496L24.6817 30.6755L23.4922 28.6094L21.4062 29.7863L22.5957 31.8496Z" fill="#26B4BB"/>
<path d="M24.5555 34.3987L26.2276 33.4526L25.2738 31.7969L23.6016 32.743L24.5555 34.3987Z" fill="#71B645"/>
<path d="M25.8289 30.1146L27.504 29.1714L26.5472 27.5156L24.875 28.4589L25.8289 30.1146Z" fill="#1D3A6D"/>
<path d="M26.9473 32.4637L28.2488 31.7256L27.5047 30.4375L26.2031 31.1727L26.9473 32.4637Z" fill="#2885C7"/>
<path d="M28.6426 28.8671L29.9441 28.1319L29.2 26.8438L27.8984 27.579L28.6426 28.8671Z" fill="#71B645"/>
<path d="M28.2569 34.3387L29.5613 33.6035L28.8172 32.3125L27.5156 33.0477L28.2569 34.3387Z" fill="#26B4BB"/>
<path d="M29.1866 31.1952L30.4881 30.46L29.7469 29.1719L28.4453 29.9071L29.1866 31.1952Z" fill="#CCD533"/>
<path d="M29.976 32.8937L30.8926 32.375L30.3697 31.4688L29.4531 31.9846L29.976 32.8937Z" fill="#AAAAAD"/>
<path d="M31.3432 30.3312L32.2598 29.8153L31.7369 28.9062L30.8203 29.4249L31.3432 30.3312Z" fill="#71B645"/>
<path d="M27.8249 20.3867L27.5703 22.75L29.9558 23.0029L30.2105 20.6396L27.8249 20.3867Z" fill="#71B645"/>
<path d="M27.853 24.0653L27.6484 25.9609L29.5625 26.1642L29.7671 24.2685L27.853 24.0653Z" fill="#AAAAAD"/>
<path d="M31.4233 21.3231L31.2188 23.2188L33.1328 23.422L33.3374 21.5263L31.4233 21.3231Z" fill="#26B4BB"/>
<path d="M30.8937 24.3049L30.7344 25.7812L32.2257 25.9396L32.385 24.4633L30.8937 24.3049Z" fill="#CCD533"/>
<path d="M34.3932 22.3674L34.2344 23.8438L35.7257 24.0016L35.8845 22.5252L34.3932 22.3674Z" fill="#2885C7"/>
<path d="M30.8468 26.5706L30.6875 28.0469L32.1788 28.2052L32.3381 26.7289L30.8468 26.5706Z" fill="#26B4BB"/>
<path d="M33.4484 24.5706L33.2891 26.0469L34.7803 26.2052L34.9397 24.7289L33.4484 24.5706Z" fill="#71B645"/>
<path d="M33.0494 26.8535L32.9375 27.8906L33.986 28.0019L34.0979 26.9648L33.0494 26.8535Z" fill="#1D3A6D"/>
<path d="M35.6659 25.5566L35.5547 26.5938L36.6032 26.7043L36.7144 25.6672L35.6659 25.5566Z" fill="#AAAAAD"/>
<path d="M46.8854 36.4969C46.7073 36.3972 46.3826 36.229 45.9344 36.0894C45.2879 35.8842 44.3858 35.7303 43.3169 35.8985C42.9578 35.9555 42.5785 36.0495 42.1849 36.1891C42.1476 36.2034 42.1102 36.2148 42.0728 36.229C41.8717 36.3031 41.6735 36.3943 41.4724 36.4941C41.3028 36.5796 41.1304 36.6736 40.9609 36.7762C40.5731 37.007 40.1909 37.2692 39.8203 37.5542C39.3979 35.0207 39.6048 32.6696 39.7025 31.5155C39.7025 31.5098 39.7111 31.5069 39.7168 31.5098C40.6219 32.074 40.3691 33.65 40.1766 34.1031C40.1737 34.1116 40.1852 34.1173 40.1938 34.1116C41.3201 32.7922 40.7713 31.3331 40.5386 30.9655C40.5328 30.9569 40.5443 30.9484 40.5529 30.9541C40.7167 31.0852 40.8489 31.2248 40.9609 31.3673C41.3086 31.809 41.4379 32.2849 41.4724 32.7067C41.4896 32.929 41.4838 33.1342 41.4724 33.3108C41.4695 33.3593 41.4666 33.402 41.4609 33.4448C41.4609 33.4505 41.4666 33.4533 41.4724 33.4505H41.4781C41.7827 32.8577 41.9292 31.9629 41.4724 31.0937C41.3488 30.8572 41.1822 30.6235 40.9609 30.3983C40.8977 30.3328 40.8288 30.2701 40.7569 30.2046C40.7512 30.1989 40.7569 30.1875 40.7656 30.1903C40.8345 30.2074 40.8977 30.2274 40.9609 30.2473C41.1534 30.3129 41.3229 30.404 41.4724 30.5152C41.8143 30.766 42.047 31.1079 42.1849 31.467C42.2998 31.7634 42.3515 32.0683 42.3515 32.3391C42.3515 32.3505 42.3659 32.3505 42.3688 32.3391C42.5814 31.5668 42.4521 30.9826 42.1849 30.5579C41.9953 30.253 41.7338 30.0307 41.4724 29.874C41.2942 29.7685 41.1161 29.6944 40.9609 29.6489C40.869 29.6204 40.7885 29.6033 40.7167 29.5947C40.7052 29.5947 40.7081 29.5776 40.7167 29.5776C40.8 29.5691 40.8805 29.5662 40.9581 29.5634C41.1477 29.5605 41.3172 29.5776 41.4695 29.6033C41.7712 29.6602 42.0068 29.7628 42.182 29.8825C42.4693 30.0735 42.613 30.2986 42.6618 30.3898C42.6676 30.3983 42.6791 30.3926 42.6791 30.3841C42.6389 29.9766 42.4492 29.6574 42.1849 29.4294C41.9809 29.2527 41.7309 29.1302 41.4724 29.0561C41.3028 29.0105 41.1304 28.9848 40.9609 28.982C40.7311 28.982 40.5098 29.0162 40.3231 29.096C40.3145 29.0988 40.3087 29.0903 40.3116 29.0817C40.4782 28.8452 40.7138 28.7027 40.9609 28.6258C41.1333 28.5745 41.3086 28.5545 41.4724 28.5659C41.6304 28.5745 41.774 28.6087 41.8918 28.6628C41.9005 28.6657 41.9062 28.6571 41.9005 28.6486C41.7712 28.5032 41.6246 28.3892 41.4724 28.3037C41.3086 28.2125 41.1362 28.1584 40.9609 28.1385C40.5041 28.0872 40.0386 28.2809 39.7283 28.7455C39.7255 28.7512 39.7168 28.7512 39.714 28.7455C39.6536 28.64 39.5962 28.5232 39.5445 28.4006C39.4209 28.1157 39.3203 27.7965 39.2658 27.4773C39.2658 27.4659 39.2514 27.4659 39.2514 27.4773C39.1968 27.7965 39.0934 28.1185 38.9698 28.4035C38.9152 28.526 38.8606 28.64 38.8003 28.7426C38.7974 28.7483 38.7888 28.7483 38.7859 28.7426C38.2458 27.9304 37.2315 27.9475 36.6138 28.6486C36.6081 28.6543 36.6138 28.6657 36.6224 28.6628C37.0333 28.469 37.8119 28.526 38.2027 29.0817C38.2084 29.0903 38.2027 29.0988 38.1912 29.096C37.5907 28.8452 36.6598 29.0076 36.1627 29.5947C35.9846 29.8027 35.8639 30.0678 35.8323 30.3841C35.8323 30.3926 35.8438 30.3983 35.8495 30.3898C35.8869 30.3186 35.9846 30.1647 36.1627 30.0079C36.4529 29.7543 36.9586 29.4978 37.7947 29.5748C37.8062 29.5748 37.8062 29.5919 37.7947 29.5919C37.3666 29.6431 36.4845 30.0222 36.1598 30.8885C36.0162 31.2704 35.9788 31.7492 36.1397 32.3362C36.1397 32.3448 36.157 32.3448 36.157 32.3362C36.157 32.322 36.157 32.3106 36.157 32.2963C36.1656 31.5098 36.6196 30.4553 37.743 30.1875C37.7516 30.1875 37.7573 30.196 37.7516 30.2017C36.496 31.296 36.6196 32.6468 37.0304 33.4448C37.0362 33.4533 37.0477 33.4505 37.0477 33.4391C36.9931 32.8349 36.95 31.7606 37.9556 30.9484C37.9642 30.9427 37.9757 30.9484 37.97 30.9598C37.7372 31.3302 37.1884 32.7865 38.3147 34.1059C38.3205 34.1145 38.3348 34.1059 38.332 34.0974C38.1423 33.6471 37.8895 32.0683 38.7917 31.5041C38.7974 31.5012 38.806 31.5041 38.806 31.5098C38.9037 32.6639 39.1106 35.015 38.6882 37.5485C37.9613 36.9956 37.1942 36.5112 36.4357 36.2262C36.3409 36.192 36.2489 36.1607 36.1598 36.1293C35.3755 35.8728 34.6572 35.8016 34.0308 35.8301C33.0252 35.8728 32.2552 36.1721 31.8328 36.3801C31.7466 36.4228 31.6748 36.4627 31.6202 36.4941C31.5972 36.5083 31.6145 36.5397 31.6375 36.5311C31.7036 36.5112 31.7668 36.4912 31.8328 36.4741C32.6057 36.2575 33.3384 36.2005 34.0308 36.2604C34.7865 36.3259 35.4961 36.5311 36.1598 36.8275C37.0908 37.2436 37.9326 37.8363 38.694 38.4633C37.6194 39.3923 36.7115 40.2957 36.1598 40.612C36.1311 40.6263 36.1053 40.6434 36.0794 40.6576C35.9472 40.4781 35.7174 40.3755 35.4674 40.4297C35.2491 40.4781 35.0709 40.6519 35.0221 40.8657C34.979 41.0566 35.0278 41.2646 35.137 41.3729C35.4301 41.6636 35.7691 41.6836 36.1598 41.5211C36.904 41.2105 37.8292 40.2359 38.9641 39.2042C39.0589 39.1187 39.1537 39.0304 39.2514 38.9449C39.3491 39.0304 39.4439 39.1159 39.5387 39.2014C40.053 39.6688 40.5242 40.1247 40.9552 40.5123C41.1333 40.6719 41.3028 40.8201 41.4666 40.9512C41.7194 41.1564 41.9579 41.3245 42.1792 41.4413C42.613 41.6693 42.9894 41.6978 43.3112 41.4157C43.3284 41.4014 43.3457 41.3872 43.3629 41.3701C43.4376 41.296 43.5238 41.0538 43.4778 40.8628C43.452 40.7517 43.3916 40.6519 43.3083 40.575C43.2336 40.5038 43.1359 40.4496 43.0325 40.4268C42.7825 40.3727 42.5527 40.4753 42.4205 40.6548C42.3458 40.6177 42.2654 40.5664 42.1763 40.5066C41.9723 40.367 41.7338 40.1703 41.4637 39.9366C41.3028 39.797 41.1333 39.6431 40.9523 39.4807C40.6018 39.1643 40.2168 38.8167 39.8088 38.4604C40.1708 38.1612 40.5529 37.8705 40.9523 37.6026C41.119 37.4915 41.2885 37.3832 41.4637 37.2806C41.6965 37.1438 41.9321 37.0184 42.1763 36.9016C42.5412 36.7278 42.9176 36.5824 43.3083 36.4713C44.1186 36.2404 44.9891 36.1635 45.9258 36.3117C46.2303 36.3601 46.5406 36.4314 46.8596 36.5283C46.8854 36.5368 46.8998 36.5026 46.8797 36.4912" fill="#70777F"/>
<path d="M6.27711 62.375H5.57031V63.076H6.27711V62.375Z" fill="#A6A6A8"/>
<path d="M53.1657 61.5656V56.9375H52.4761V60.8816H49.8759V56.9375H49.1863V60.8816H46.4482V56.9375H45.365C44.934 56.9375 44.5433 56.9945 44.1928 57.1113C43.8422 57.2282 43.5434 57.3906 43.2963 57.5958C43.0492 57.8038 42.8596 58.0489 42.7246 58.3339C42.5895 58.6189 42.5234 58.9238 42.5234 59.2544C42.5234 59.6591 42.601 60.0039 42.7562 60.2946C42.9113 60.5852 43.1182 60.8218 43.3768 61.0099C43.6354 61.198 43.937 61.3376 44.2818 61.4259C44.6266 61.5171 44.9886 61.5627 45.3679 61.5627H53.1657V61.5656ZM44.3565 60.7733C44.1295 60.6992 43.9313 60.5938 43.7618 60.4542C43.5923 60.3145 43.4601 60.1435 43.3624 59.944C43.2647 59.7417 43.2159 59.5137 43.2159 59.2572C43.2159 59.0008 43.2705 58.7899 43.3768 58.5875C43.4831 58.3852 43.6239 58.2142 43.7991 58.0689C43.9744 57.9235 44.1726 57.8124 44.3968 57.7354C44.6209 57.6585 44.8507 57.6215 45.0863 57.6215H45.7673V60.8845H45.0863C44.8277 60.8845 44.5864 60.8474 44.3594 60.7733H44.3565Z" fill="#A6A6A8"/>
<path d="M39.1192 55.4453H38.4297V61.561H39.1192V55.4453Z" fill="#A6A6A8"/>
<path d="M46.4412 55.4453H45.7344V56.1464H46.4412V55.4453Z" fill="#A6A6A8"/>
<path d="M53.1756 62.3672H52.4688V63.0682H53.1756V62.3672Z" fill="#A6A6A8"/>
<path d="M7.48805 62.375H6.78125V63.076H7.48805V62.375Z" fill="#A6A6A8"/>
<path d="M35.7319 60.8827H34.6056C34.2034 60.8827 33.8873 60.8257 33.6575 60.7117C33.4276 60.5978 33.2466 60.4268 33.1144 60.2016C33.1547 60.0249 33.1748 59.8112 33.1748 59.5633V57.3632H32.4852V59.6716C32.4852 60.0648 32.3789 60.3783 32.1663 60.6149C31.9537 60.8514 31.6319 60.9682 31.2009 60.9682C30.9998 60.9682 30.8159 60.9369 30.6493 60.8742C30.4826 60.8115 30.3389 60.726 30.2183 60.6177C30.0976 60.5094 30.0028 60.384 29.9338 60.2387C29.8649 60.0933 29.8275 59.9395 29.8218 59.7742V57.3632H29.1322V59.7229C29.1322 59.9338 29.1006 60.1104 29.0374 60.2558C28.9742 60.4011 28.888 60.5208 28.7788 60.6149C28.6696 60.7089 28.5461 60.7773 28.4082 60.82C28.2703 60.8628 28.1237 60.8827 27.9686 60.8827H26.6354V57.3632H25.9459V60.8827H22.3314L23.5353 58.0272C23.3514 57.8676 23.156 57.7195 22.9491 57.5798C22.7423 57.4402 22.5297 57.3176 22.3113 57.2122C22.0929 57.1067 21.8717 57.0241 21.6476 56.9643C21.4235 56.9044 21.2022 56.8759 20.9839 56.8759C20.7655 56.8759 20.5357 56.9073 20.3116 56.9643C20.0875 57.0241 19.8662 57.1039 19.645 57.2065C19.4237 57.3091 19.2111 57.4316 19.0071 57.5741C18.8031 57.7166 18.6135 57.8648 18.4354 58.0244L19.6479 60.8799H17.2631V56.9358H16.1627C15.7375 56.9358 15.3496 56.9956 14.9991 57.1153C14.6485 57.235 14.3497 57.3974 14.0998 57.6055C13.8498 57.8135 13.6573 58.0614 13.5194 58.3464C13.3815 58.6342 13.3125 58.9449 13.3125 59.2811C13.3125 59.6858 13.3872 60.0306 13.5395 60.3156C13.6918 60.6035 13.8986 60.84 14.1601 61.0224C14.4215 61.2076 14.7232 61.3444 15.068 61.4299C15.4128 61.5182 15.7777 61.561 16.1627 61.561H16.5764V61.7576C16.5764 62.1167 16.473 62.3703 16.2661 62.5242C16.0593 62.6781 15.7691 62.7551 15.3956 62.7551C15.1829 62.7551 14.9933 62.7351 14.8238 62.6952C14.6543 62.6553 14.4618 62.5869 14.2434 62.49L14.0279 63.1455C14.2923 63.2424 14.525 63.3136 14.729 63.3621C14.933 63.4105 15.137 63.4362 15.3438 63.4362C16.0162 63.4362 16.5017 63.2794 16.8063 62.9631C17.1108 62.6468 17.2631 62.2221 17.2631 61.6892V61.561H27.9628C28.2961 61.561 28.5921 61.4897 28.8535 61.3473C29.115 61.2048 29.3247 61.0138 29.4856 60.7773C29.6523 61.0509 29.8792 61.2646 30.1666 61.4156C30.4539 61.5695 30.7958 61.6465 31.1923 61.6465C31.5888 61.6465 31.9565 61.5752 32.2467 61.4328C32.5369 61.2903 32.7582 61.0737 32.9133 60.7773C32.9708 60.8742 33.0397 60.9682 33.1231 61.0623C33.2064 61.1563 33.3127 61.239 33.4449 61.3131C33.577 61.3872 33.7379 61.447 33.9218 61.4926C34.0626 61.5268 34.2321 61.5439 34.416 61.5524V61.561H36.4042V55.4453H35.7147V60.8799L35.7319 60.8827ZM16.5879 60.8827H15.8897C15.6312 60.8827 15.3898 60.8485 15.1628 60.7773C14.9358 60.7061 14.7376 60.6035 14.5652 60.4667C14.3928 60.3299 14.2578 60.1617 14.1601 59.9651C14.0624 59.7656 14.0136 59.5376 14.0136 59.284C14.0136 59.0304 14.0653 58.8166 14.1716 58.6114C14.2779 58.4063 14.4187 58.2324 14.5939 58.0871C14.7692 57.9417 14.9675 57.8306 15.1916 57.7508C15.4157 57.671 15.6484 57.6311 15.8897 57.6311H16.5879V60.8856V60.8827ZM20.3834 60.8827L19.3088 58.2666C19.5732 58.0443 19.8432 57.8819 20.1219 57.7822C20.4006 57.6796 20.6908 57.6283 20.9954 57.6283C21.2999 57.6283 21.6131 57.6881 21.9177 57.8106C22.2222 57.9332 22.4808 58.0842 22.6934 58.2666L21.6189 60.8827H20.3891H20.3834Z" fill="#A6A6A8"/>
<path d="M3.92555 55.4453H3.21875V56.1464H3.92555V55.4453Z" fill="#A6A6A8"/>
<path d="M73.5818 55.4453H72.875V56.1464H73.5818V55.4453Z" fill="#A6A6A8"/>
<path d="M67.4708 55.4453H66.7812V61.561H67.4708V55.4453Z" fill="#A6A6A8"/>
<path d="M45.2381 55.4453H44.5312V56.1464H45.2381V55.4453Z" fill="#A6A6A8"/>
<path d="M12.2365 58.8782C12.2365 58.6103 12.202 58.3624 12.1273 58.1287C12.0554 57.895 11.9463 57.6984 11.7969 57.5331C11.613 57.3336 11.409 57.1854 11.182 57.0857C10.955 56.9859 10.6792 56.9375 10.3516 56.9375H9.8431V57.6186H10.4465C10.6131 57.6186 10.7711 57.6557 10.9205 57.724C11.0699 57.7953 11.1935 57.8865 11.2912 58.0005C11.3889 58.1202 11.4549 58.2513 11.4923 58.3937C11.5297 58.5362 11.5498 58.7072 11.5498 58.9039V60.8816H8.32031V61.5627H12.2365V58.8782Z" fill="#A6A6A8"/>
<path d="M103.9 55.4453H103.211V61.561H103.9V55.4453Z" fill="#A6A6A8"/>
<path d="M74.7927 55.4453H74.0859V56.1464H74.7927V55.4453Z" fill="#A6A6A8"/>
<path d="M101.21 55.4453H100.52V60.8799H98.1529C98.2966 60.5664 98.3684 60.233 98.3684 59.8739C98.3684 59.5148 98.3024 59.1928 98.1759 58.8907C98.0466 58.5858 97.8714 58.3236 97.6473 58.1042C97.4232 57.8819 97.1588 57.7081 96.8514 57.5798C96.544 57.4516 96.2135 57.3889 95.8573 57.3889C95.501 57.3889 95.1907 57.4544 94.8919 57.5855C94.5931 57.7166 94.3345 57.8933 94.1133 58.1184C93.892 58.3436 93.7196 58.6057 93.5932 58.9078C93.4668 59.2099 93.4036 59.5319 93.4036 59.8796C93.4036 60.062 93.4237 60.2358 93.461 60.404C93.4984 60.5721 93.5472 60.7317 93.6104 60.8856H91.4757C91.6193 60.5721 91.6912 60.2387 91.6912 59.8796C91.6912 59.5205 91.6251 59.1985 91.4987 58.8964C91.3694 58.5915 91.1941 58.3293 90.97 58.1099C90.7459 57.8876 90.4816 57.7138 90.1741 57.5855C89.8667 57.4573 89.5363 57.3946 89.18 57.3946C88.8237 57.3946 88.5163 57.4601 88.2175 57.5912C87.9187 57.7223 87.6601 57.899 87.4389 58.1241C87.2176 58.3493 87.0452 58.6114 86.9188 58.9135C86.7924 59.2156 86.7292 59.5376 86.7292 59.8853C86.7292 60.0677 86.7493 60.2415 86.7867 60.4097C86.824 60.5778 86.8729 60.7374 86.9361 60.8913H84.7496V55.4567H84.06V60.8913H81.8649V59.8483C81.8649 59.5861 81.8304 59.3381 81.7615 59.1016C81.6925 58.8651 81.5833 58.6656 81.4339 58.5003C81.2558 58.3008 81.0547 58.1526 80.8306 58.0557C80.6065 57.9588 80.322 57.9104 79.9772 57.9104H76.9288L78.2246 55.4539H77.4747L76.153 57.9018C76.176 58.05 76.2105 58.1783 76.2622 58.2866C76.3139 58.3949 76.3771 58.4974 76.4633 58.5943H79.9744C80.1927 58.5943 80.3795 58.6257 80.5375 58.6941C80.6955 58.7596 80.8219 58.848 80.9196 58.962C81.0173 59.076 81.0834 59.207 81.1179 59.3552C81.1524 59.5034 81.1696 59.6687 81.1696 59.8483V60.8913H74.7998V56.9472H73.7137C73.2827 56.9472 72.892 57.0042 72.5443 57.121C72.1938 57.2378 71.895 57.4003 71.6479 57.6055C71.4008 57.8135 71.2112 58.0586 71.0761 58.3436C70.9411 58.6285 70.875 58.9335 70.875 59.264C70.875 59.6687 70.9526 60.0135 71.1077 60.3042C71.2629 60.5949 71.4697 60.8314 71.7283 61.0195C71.9869 61.2076 72.2886 61.3473 72.6334 61.4356C72.9782 61.5268 73.3402 61.5724 73.7166 61.5724H87.3785C87.6026 61.8118 87.867 61.9999 88.1744 62.1395C88.4818 62.2791 88.8151 62.3475 89.1771 62.3475C89.5392 62.3475 89.8868 62.2791 90.2057 62.1424C90.5247 62.0056 90.7976 61.8146 91.0275 61.5724H94.0587C94.2828 61.8118 94.5471 61.9999 94.8545 62.1395C95.162 62.2791 95.4953 62.3475 95.8573 62.3475C96.2193 62.3475 96.567 62.2791 96.8859 62.1424C97.2048 62.0056 97.4777 61.8146 97.7076 61.5724H101.21V55.4567V55.4453ZM74.1102 60.8799H73.4293C73.1707 60.8799 72.9293 60.8428 72.7023 60.7687C72.4754 60.6946 72.2771 60.5892 72.1076 60.4496C71.9381 60.3099 71.8059 60.1389 71.7082 59.9394C71.6105 59.7371 71.5617 59.5091 71.5617 59.2526C71.5617 58.9962 71.6134 58.7853 71.7197 58.5829C71.826 58.3806 71.9668 58.2096 72.1421 58.0643C72.3173 57.9189 72.5156 57.8078 72.7397 57.7309C72.9638 57.6539 73.1937 57.6169 73.4293 57.6169H74.1102V60.8799ZM90.8579 60.5778C90.7631 60.7972 90.6338 60.9853 90.4701 61.1449C90.3063 61.3045 90.1138 61.427 89.8926 61.5154C89.6713 61.6037 89.4328 61.6465 89.1743 61.6465C88.9157 61.6465 88.6887 61.598 88.4732 61.5068C88.2577 61.4128 88.071 61.2846 87.9129 61.1221C87.7549 60.9597 87.6314 60.7716 87.5423 60.555C87.4532 60.3384 87.4101 60.1076 87.4101 59.8654C87.4101 59.6231 87.4561 59.3894 87.5423 59.17C87.6314 58.9506 87.7549 58.7625 87.9101 58.6C88.0652 58.4376 88.2491 58.3094 88.4646 58.2125C88.6801 58.1156 88.9157 58.0671 89.1743 58.0671C89.4328 58.0671 89.6799 58.1127 89.9012 58.2039C90.1224 58.2951 90.3149 58.4205 90.4787 58.5801C90.6425 58.7397 90.7689 58.9278 90.8608 59.1472C90.9528 59.3666 90.9987 59.606 90.9987 59.8682C90.9987 60.1304 90.9528 60.3612 90.8579 60.5807V60.5778ZM97.5381 60.5778C97.4433 60.7972 97.314 60.9853 97.1502 61.1449C96.9864 61.3045 96.7939 61.427 96.5727 61.5154C96.3515 61.6037 96.113 61.6465 95.8544 61.6465C95.5958 61.6465 95.3688 61.598 95.1534 61.5068C94.9379 61.4128 94.7511 61.2846 94.5931 61.1221C94.4351 60.9597 94.3115 60.7716 94.2224 60.555C94.1334 60.3384 94.0874 60.1076 94.0874 59.8654C94.0874 59.6231 94.1334 59.3894 94.2224 59.17C94.3115 58.9506 94.4322 58.7625 94.5873 58.6C94.7425 58.4376 94.9264 58.3094 95.1419 58.2125C95.3573 58.1156 95.5929 58.0671 95.8515 58.0671C96.1101 58.0671 96.3572 58.1127 96.5784 58.2039C96.7997 58.2951 96.9922 58.4205 97.1559 58.5801C97.3197 58.7397 97.4461 58.9278 97.5381 59.1472C97.63 59.3666 97.676 59.606 97.676 59.8682C97.676 60.1304 97.6272 60.3612 97.5323 60.5807L97.5381 60.5778Z" fill="#A6A6A8"/>
<path d="M1.75838 61.4288C2.10317 61.52 2.46519 61.5656 2.84157 61.5656H7.35246V56.9375H6.6629V60.8816H3.92476V56.9375H2.8387C2.40772 56.9375 2.01984 56.9945 1.66932 57.1113C1.31879 57.2282 1.01998 57.3906 0.772885 57.5958C0.525791 57.8038 0.336162 58.0489 0.201122 58.3339C0.0660831 58.6189 0 58.9238 0 59.2544C0 59.6591 0.0775758 60.0039 0.232727 60.2946C0.387879 60.5852 0.594748 60.8218 0.853334 61.0099C1.11192 61.198 1.4136 61.3376 1.75838 61.4259V61.4288ZM0.692436 59.2544C0.692436 59.0093 0.747026 58.787 0.853334 58.5847C0.959641 58.3824 1.10043 58.2114 1.27569 58.066C1.45095 57.9207 1.6492 57.8095 1.87331 57.7326C2.09742 57.6556 2.32727 57.6186 2.56287 57.6186H3.24382V60.8816H2.56287C2.30429 60.8816 2.06294 60.8446 1.83596 60.7705C1.60898 60.6964 1.41073 60.5909 1.24121 60.4513C1.0717 60.3117 0.939529 60.1407 0.841841 59.9412C0.744153 59.7389 0.695309 59.5109 0.695309 59.2544H0.692436Z" fill="#A6A6A8"/>
<path d="M50.6599 62.375H49.9531V63.076H50.6599V62.375Z" fill="#A6A6A8"/>
<path d="M49.449 62.375H48.7422V63.076H49.449V62.375Z" fill="#A6A6A8"/>
<path d="M55.85 62.4273C55.8931 62.2136 55.9161 61.9742 55.9161 61.7063V61.561H64.7741V55.4453H64.0845V60.8799H61.1567L62.3606 58.0244C62.1767 57.8648 61.9813 57.7166 61.7745 57.577C61.5676 57.4373 61.355 57.3148 61.1366 57.2093C60.9183 57.1039 60.697 57.0213 60.4729 56.9614C60.2488 56.9016 60.0276 56.8731 59.8092 56.8731C59.5908 56.8731 59.361 56.9044 59.1369 56.9614C58.9128 57.0213 58.6915 57.101 58.4703 57.2036C58.2491 57.3062 58.0365 57.4288 57.8325 57.5713C57.6285 57.7138 57.4388 57.8619 57.2607 58.0215L58.4732 60.877H55.9074V56.9329H55.2179V61.7063C55.2179 61.9001 55.2093 62.0626 55.1891 62.1965C55.169 62.3304 55.1345 62.4387 55.0857 62.5214C55.0369 62.604 54.9708 62.6639 54.8875 62.7009C54.8041 62.738 54.6978 62.7579 54.5657 62.7579C54.5025 62.7579 54.4479 62.7551 54.4019 62.7494C54.3559 62.7437 54.2927 62.7294 54.2123 62.7066L54.0312 63.3621C54.2209 63.4134 54.4076 63.439 54.5915 63.439C54.8386 63.439 55.0455 63.3991 55.215 63.3193C55.3845 63.2395 55.5196 63.1255 55.623 62.9745C55.7264 62.8235 55.7983 62.6411 55.8414 62.4302L55.85 62.4273ZM58.1255 58.2638C58.3899 58.0415 58.6599 57.879 58.9386 57.7793C59.2173 57.6767 59.5075 57.6254 59.8121 57.6254C60.1166 57.6254 60.4298 57.6853 60.7344 57.8078C61.0389 57.9303 61.2975 58.0814 61.5101 58.2638L60.4356 60.8799H59.2058L58.1284 58.2638H58.1255Z" fill="#A6A6A8"/>
<path d="M2.71461 55.4453H2.00781V56.1464H2.71461V55.4453Z" fill="#A6A6A8"/>
<path d="M4.94348 66.0469H3.88328L1.54451 68.4949V66.0469H0.679688V70.9143H1.54451V69.5037L2.30878 68.7257L3.98959 70.9143H5.03542L2.90065 68.1415L4.94348 66.0469Z" fill="#A6A6A8"/>
<path d="M6.67733 66.0469H5.8125V70.9172H6.67733V66.0469Z" fill="#A6A6A8"/>
<path d="M11.4569 69.4125L8.82218 66.0469H8.02344V70.9143H8.8739V67.4518L11.5862 70.9143H12.3073V66.0469H11.4569V69.4125Z" fill="#A6A6A8"/>
<path d="M15.8833 68.939H17.1417V69.8509C16.8401 70.0732 16.4177 70.2185 15.9551 70.2185C14.9495 70.2185 14.2829 69.4804 14.2829 68.4802V68.4659C14.2829 67.534 14.9696 66.7475 15.8775 66.7475C16.5039 66.7475 16.8745 66.9498 17.2538 67.269L17.8026 66.6221C17.2969 66.1975 16.7682 65.9609 15.912 65.9609C14.4295 65.9609 13.375 67.1151 13.375 68.4802V68.4944C13.375 69.9136 14.3864 70.9994 15.9264 70.9994C16.797 70.9994 17.4951 70.6517 17.9778 70.2413V68.1952H15.8833V68.939Z" fill="#A6A6A8"/>
<path d="M21.0128 66.0469H19.1797V70.9172H21.0128C22.5585 70.9172 23.6274 69.8542 23.6274 68.4806V68.4664C23.6274 67.0956 22.5585 66.0469 21.0128 66.0469ZM22.7194 68.4949C22.7194 69.4467 22.0442 70.1363 21.0128 70.1363H20.0445V66.8249H21.0128C22.0471 66.8249 22.7194 67.5288 22.7194 68.4806V68.4949Z" fill="#A6A6A8"/>
<path d="M27.0147 65.9609C25.5034 65.9609 24.4375 67.1094 24.4375 68.4802V68.4944C24.4375 69.8652 25.492 70.9994 27.0032 70.9994C28.5145 70.9994 29.5834 69.8509 29.5834 68.4802V68.4659C29.5834 67.0952 28.5289 65.9609 27.0176 65.9609H27.0147ZM28.6726 68.4944C28.6726 69.4405 27.9916 70.2128 27.0147 70.2128C26.0379 70.2128 25.3426 69.4263 25.3426 68.4802V68.4659C25.3426 67.5198 26.0235 66.7475 27.0004 66.7475C27.9773 66.7475 28.6726 67.534 28.6726 68.4802V68.4944Z" fill="#A6A6A8"/>
<path d="M33.0677 68.3495L31.5707 66.0469H30.6484V70.9143H31.4989V67.4376L33.0389 69.7203H33.0677L34.6192 67.4233V70.9143H35.484V66.0469H34.5646L33.0677 68.3495Z" fill="#A6A6A8"/>
<path d="M41.2257 65.9609C39.7144 65.9609 38.6484 67.1094 38.6484 68.4802V68.4944C38.6484 69.8652 39.7029 70.9994 41.2142 70.9994C42.7255 70.9994 43.7943 69.8509 43.7943 68.4802V68.4659C43.7943 67.0952 42.7398 65.9609 41.2286 65.9609H41.2257ZM42.8835 68.4944C42.8835 69.4405 42.2026 70.2128 41.2257 70.2128C40.2488 70.2128 39.5535 69.4263 39.5535 68.4802V68.4659C39.5535 67.5198 40.2344 66.7475 41.2113 66.7475C42.1882 66.7475 42.8835 67.534 42.8835 68.4802V68.4944Z" fill="#A6A6A8"/>
<path d="M44.8594 70.9143H45.7242V68.9337H48.2038V68.1529H45.7242V66.8249H48.5198V66.0469H44.8594V70.9143Z" fill="#A6A6A8"/>
<path d="M53.4796 68.0911C52.5372 67.8688 52.3131 67.7007 52.3131 67.3274V67.3131C52.3131 66.9939 52.609 66.7346 53.1147 66.7346C53.5658 66.7346 54.0082 66.9084 54.4507 67.2362L54.9133 66.5893C54.4134 66.1932 53.8445 65.9766 53.1291 65.9766C52.1522 65.9766 51.4482 66.5551 51.4482 67.3872V67.4015C51.4482 68.2992 52.0401 68.6041 53.086 68.8549C53.9996 69.0629 54.195 69.251 54.195 69.5987V69.6129C54.195 69.9834 53.8588 70.2256 53.3244 70.2256C52.7124 70.2256 52.2412 69.9948 51.77 69.593L51.25 70.2057C51.8419 70.7272 52.5487 70.9837 53.3014 70.9837C54.3358 70.9837 55.057 70.4394 55.057 69.5303V69.516C55.057 68.7095 54.5168 68.3419 53.4767 68.0911H53.4796Z" fill="#A6A6A8"/>
<path d="M57.7026 66.0156L55.5391 70.9201H56.424L56.9297 69.7432H59.257L59.7569 70.9201H60.6706L58.5071 66.0156H57.7054H57.7026ZM57.2457 68.9851L58.0904 67.0359L58.9409 68.9851H57.2457Z" fill="#A6A6A8"/>
<path d="M64.5269 68.8511C64.5269 69.7488 64.0557 70.2076 63.2886 70.2076C62.5215 70.2076 62.0445 69.7203 62.0445 68.8169V66.0469H61.1797V68.8511C61.1797 70.2617 61.9957 70.9941 63.2742 70.9941C64.5528 70.9941 65.3889 70.2646 65.3889 68.8112V66.0497H64.5241V68.8539L64.5269 68.8511Z" fill="#A6A6A8"/>
<path d="M68.4893 66.0469H66.6562V70.9172H68.4893C70.0351 70.9172 71.1039 69.8542 71.1039 68.4806V68.4664C71.1039 67.0956 70.0351 66.0469 68.4893 66.0469ZM70.196 68.4949C70.196 69.4467 69.5208 70.1363 68.4893 70.1363H67.5211V66.8249H68.4893C69.5237 66.8249 70.196 67.5288 70.196 68.4806V68.4949Z" fill="#A6A6A8"/>
<path d="M73.0601 66.0469H72.1953V70.9172H73.0601V66.0469Z" fill="#A6A6A8"/>
<path d="M78.2182 66.0156L76.0547 70.9201H76.9396L77.4453 69.7432H79.7726L80.2725 70.9201H81.1862L79.0227 66.0156H78.2211H78.2182ZM77.7614 68.9851L78.6061 67.0359L79.4565 68.9851H77.7614Z" fill="#A6A6A8"/>
<path d="M86.0274 67.6V67.5858C86.0274 67.1611 85.8809 66.7992 85.6194 66.5342C85.3033 66.2293 84.8178 66.0469 84.2 66.0469H82.0078V70.9172H82.8726V69.2187H83.953L85.1626 70.9172H86.1825L84.8551 69.0734C85.5447 68.8767 86.0303 68.398 86.0303 67.5972L86.0274 67.6ZM82.8726 68.4635V66.8277H84.1311C84.7718 66.8277 85.1511 67.1127 85.1511 67.6342V67.6485C85.1511 68.1415 84.7574 68.4635 84.1397 68.4635H82.8755H82.8726Z" fill="#A6A6A8"/>
<path d="M88.976 66.0156L86.8125 70.9201H87.6974L88.2031 69.7432H90.5304L91.0303 70.9201H91.944L89.7805 66.0156H88.9789H88.976ZM88.522 68.9851L89.3668 67.0359L90.2172 68.9851H88.522Z" fill="#A6A6A8"/>
<path d="M95.8859 68.3837C96.2508 68.1956 96.5898 67.8821 96.5898 67.2979V67.2837C96.5898 66.956 96.4778 66.6938 96.2594 66.4772C95.9778 66.1979 95.5354 66.0469 94.9722 66.0469H92.7656V70.9172H95.0412C96.1387 70.9172 96.8599 70.4527 96.8599 69.5806V69.5664C96.8599 68.9052 96.4605 68.5775 95.883 68.3837H95.8859ZM93.6161 66.8049H94.8602C95.4147 66.8049 95.725 67.0415 95.725 67.4233V67.4376C95.725 67.8821 95.3515 68.0987 94.797 68.0987H93.6161V66.8049ZM95.9979 69.4894C95.9979 69.9283 95.6388 70.1563 95.0498 70.1563H93.6161V68.8197H94.9866C95.6675 68.8197 95.9979 69.0648 95.9979 69.4752V69.4894Z" fill="#A6A6A8"/>
<path d="M98.7945 66.0469H97.9297V70.9172H98.7945V66.0469Z" fill="#A6A6A8"/>
<path d="M102.59 66.0156H101.789L99.625 70.9201H100.51L101.016 69.7432H103.343L103.843 70.9201H104.756L102.593 66.0156H102.59ZM101.335 68.9851L102.179 67.0359L103.03 68.9851H101.335Z" fill="#A6A6A8"/>
</g>
<defs>
<clipPath id="clip0_1055_10366">
<rect width="107" height="71" fill="white"/>
</clipPath>
</defs>
</svg>
