<svg width="71" height="70" viewBox="0 0 71 70" fill="none" xmlns="http://www.w3.org/2000/svg">
<path d="M42.8104 30.583H67.5701C68.0899 30.583 68.5118 30.164 68.5118 29.6479C68.5118 29.1317 68.0899 28.7128 67.5701 28.7128H53.8949L56.8931 25.5363C57.2492 25.1588 57.2299 24.5678 56.8497 24.2141C56.4696 23.8605 55.8744 23.8796 55.5183 24.2571L51.3123 28.7128H42.8088C42.2891 28.7128 41.8672 29.1317 41.8672 29.6479C41.8672 30.164 42.2891 30.583 42.8088 30.583H42.8104Z" fill="#DBAC16"/>
<path d="M70.0283 46.2361H51.8166L53.7143 44.3181L58.5716 43.8418C59.0897 43.7909 59.4683 43.3337 59.417 42.8191C59.3656 42.3046 58.9084 41.9302 58.3871 41.9812L53.1897 42.491C52.97 42.5133 52.7662 42.6104 52.6106 42.7666L49.1746 46.2377H42.1581C41.8902 46.2377 41.6352 46.3508 41.4571 46.5484L36.818 51.6938C36.5613 51.6906 36.3047 51.7894 36.117 51.9901C35.7641 52.3692 35.7881 52.9602 36.1699 53.3123L42.9008 59.4899C43.0757 59.6492 43.3035 59.7385 43.5393 59.7385H50.7915L52.4101 61.4653C52.5962 61.6628 52.8464 61.7632 53.0999 61.7632C53.3293 61.7632 53.5603 61.6803 53.7415 61.5131C54.1217 61.161 54.1442 60.57 53.7897 60.1909L51.892 58.1662C51.7139 57.9766 51.4637 57.8683 51.2022 57.8683H49.0816L51.4011 55.3911C51.7556 55.012 51.7332 54.421 51.353 54.0689C50.9712 53.7169 50.3761 53.7392 50.0216 54.1167L46.5101 57.8667H43.9098L38.3676 52.7786L42.5816 48.1047H58.6791L62.8722 52.726C63.0583 52.9315 63.315 53.0351 63.5716 53.0351C63.7962 53.0351 64.0224 52.9554 64.2021 52.7945C64.5887 52.4489 64.6191 51.8579 64.271 51.4739L61.2152 48.1063H70.0315C70.5512 48.1063 70.9731 47.6874 70.9731 47.1712C70.9731 46.6551 70.5512 46.2361 70.0315 46.2361H70.0283Z" fill="#DBAC16"/>
<path d="M43.3401 35.7188C42.8203 35.7188 42.3984 36.1377 42.3984 36.6538C42.3984 37.17 42.8203 37.5889 43.3401 37.5889H56.3784C56.8982 37.5889 57.32 37.17 57.32 36.6538C57.32 36.1377 56.8982 35.7188 56.3784 35.7188H43.3401Z" fill="#DBAC16"/>
<path d="M3.97183 48.8871C2.34684 48.8871 1.02344 47.5729 1.02344 45.9592C1.02344 44.3455 2.34684 43.0312 3.97183 43.0312C5.59681 43.0312 6.92022 44.3439 6.92022 45.9592C6.92022 47.5745 5.59681 48.8871 3.97183 48.8871ZM3.97183 44.9014C3.38472 44.9014 2.90669 45.3762 2.90669 45.9592C2.90669 46.5422 3.38472 47.0169 3.97183 47.0169C4.55894 47.0169 5.03697 46.5422 5.03697 45.9592C5.03697 45.3762 4.55894 44.9014 3.97183 44.9014Z" fill="#22533D"/>
<path d="M3.5187 32.6996C1.89372 32.6996 0.570312 31.3854 0.570312 29.7717C0.570312 28.158 1.89212 26.8438 3.5187 26.8438C5.14529 26.8438 6.46709 28.158 6.46709 29.7717C6.46709 31.3854 5.14368 32.6996 3.5187 32.6996ZM3.5187 28.7139C2.93159 28.7139 2.45356 29.1887 2.45356 29.7717C2.45356 30.3547 2.93159 30.8294 3.5187 30.8294C4.10581 30.8294 4.58384 30.3547 4.58384 29.7717C4.58384 29.1887 4.10581 28.7139 3.5187 28.7139Z" fill="#22533D"/>
<path d="M43.5197 40.8824C43.6994 40.704 43.7988 40.4619 43.7956 40.2102L43.7331 34.6968V0.515625H21.2015L15.7266 14.268H29.8798L29.8397 28.8313H22.2778L18.1071 24.6895C18.3237 24.2833 18.4472 23.8197 18.4472 23.3291C18.4472 21.7154 17.1254 20.4011 15.4988 20.4011C13.8722 20.4011 12.5504 21.7154 12.5504 23.3291C12.5504 24.9428 13.8738 26.257 15.4988 26.257C15.9431 26.257 16.365 26.1551 16.7436 25.9798L19.615 28.8313H5.68153V30.7015H15.8661L13.6043 33.0671C13.2081 32.8712 12.7638 32.7565 12.2921 32.7565C10.6672 32.7565 9.34376 34.0691 9.34376 35.6844C9.34376 37.2997 10.6656 38.6124 12.2921 38.6124C13.9187 38.6124 15.2405 37.2981 15.2405 35.6844C15.2405 35.2209 15.1282 34.7828 14.9341 34.3925L18.4632 30.6999H29.8365L29.8269 34.2444L24.429 39.5554L9.18816 39.4407L4.40625 43.8247L5.68314 45.1995L9.91804 41.3173L17.2874 41.3731L16.5736 42.0246C16.1806 41.8318 15.7426 41.7219 15.2758 41.7219C13.6508 41.7219 12.3274 43.0362 12.3274 44.6499C12.3274 46.2636 13.6492 47.5778 15.2758 47.5778C16.9024 47.5778 18.2242 46.2652 18.2242 44.6499C18.2242 44.1799 18.1103 43.7387 17.9114 43.3436L20.0481 41.3922L25.199 41.4304L31.7085 35.0249L31.7727 12.3947H18.5001L22.4864 2.38262H41.8546V34.7031C41.8546 34.7031 41.8546 34.7095 41.8546 34.7127L41.9124 39.8326L35.9546 45.749C35.9418 45.7618 35.9338 45.7761 35.9226 45.7889L28.7152 53.0482L16.7564 53.1549L14.6422 55.0872C14.1706 54.7702 13.6027 54.5839 12.9915 54.5839C11.3666 54.5839 10.0432 55.8981 10.0432 57.5118C10.0432 59.1255 11.3666 60.4398 12.9915 60.4398C14.6165 60.4398 15.9399 59.1271 15.9399 57.5118C15.9399 57.1868 15.8838 56.8762 15.7859 56.5831L17.4991 55.0172L22.0693 54.9773L21.4646 55.6241C21.2287 55.5636 20.9817 55.5269 20.7267 55.5269C19.1017 55.5269 17.7783 56.8411 17.7783 58.4549C17.7783 60.0686 19.1001 61.3828 20.7267 61.3828C22.3532 61.3828 23.675 60.0702 23.675 58.4549C23.675 57.7826 23.4424 57.1645 23.0575 56.6691L24.6632 54.9534L29.5109 54.9104L35.69 48.685L35.6835 53.2776L29.6231 59.2944C29.2398 59.1128 28.8115 59.0076 28.3591 59.0076C26.7341 59.0076 25.4107 60.3219 25.4107 61.9356C25.4107 63.5493 26.7325 64.8635 28.3591 64.8635C29.9857 64.8635 31.3075 63.5493 31.3075 61.9356C31.3075 61.4529 31.1872 60.9973 30.977 60.5943L35.6787 55.9268L35.6675 63.4362C34.5254 63.8392 33.7024 64.9209 33.7024 66.1921C33.7024 67.8058 35.0259 69.12 36.6508 69.12C38.2758 69.12 39.5992 67.8074 39.5992 66.1921C39.5992 64.889 38.7378 63.7835 37.5507 63.4043L37.5764 46.7797L43.5245 40.8728L43.5197 40.8824ZM14.4321 23.3323C14.4321 22.7492 14.9101 22.2745 15.4972 22.2745C16.0843 22.2745 16.5623 22.7492 16.5623 23.3323C16.5623 23.9153 16.0843 24.39 15.4972 24.39C14.9101 24.39 14.4321 23.9153 14.4321 23.3323ZM12.2889 36.7454C11.7018 36.7454 11.2238 36.2707 11.2238 35.6876C11.2238 35.1046 11.7018 34.6299 12.2889 34.6299C12.876 34.6299 13.3541 35.1046 13.3541 35.6876C13.3541 36.2707 12.876 36.7454 12.2889 36.7454ZM15.2726 45.7108C14.6855 45.7108 14.2075 45.2361 14.2075 44.6531C14.2075 44.07 14.6855 43.5953 15.2726 43.5953C15.8597 43.5953 16.3378 44.07 16.3378 44.6531C16.3378 45.2361 15.8597 45.7108 15.2726 45.7108ZM12.9867 58.5743C12.3996 58.5743 11.9216 58.0996 11.9216 57.5166C11.9216 56.9335 12.3996 56.4588 12.9867 56.4588C13.5738 56.4588 14.0519 56.9335 14.0519 57.5166C14.0519 58.0996 13.5738 58.5743 12.9867 58.5743ZM20.7202 59.519C20.1331 59.519 19.6551 59.0443 19.6551 58.4612C19.6551 57.8782 20.1331 57.4035 20.7202 57.4035C21.3073 57.4035 21.7854 57.8782 21.7854 58.4612C21.7854 59.0443 21.3073 59.519 20.7202 59.519ZM28.3543 63.0013C27.7672 63.0013 27.2891 62.5266 27.2891 61.9436C27.2891 61.3605 27.7672 60.8858 28.3543 60.8858C28.9414 60.8858 29.4194 61.3605 29.4194 61.9436C29.4194 62.5266 28.9414 63.0013 28.3543 63.0013ZM36.646 67.2578C36.0589 67.2578 35.5809 66.7831 35.5809 66.2001C35.5809 65.617 36.0589 65.1423 36.646 65.1423C37.2331 65.1423 37.7112 65.617 37.7112 66.2001C37.7112 66.7831 37.2331 67.2578 36.646 67.2578Z" fill="#22533D"/>
</svg>
