<svg width="112" height="75" viewBox="0 0 112 75" fill="none" xmlns="http://www.w3.org/2000/svg">
<path fill-rule="evenodd" clip-rule="evenodd" d="M52.0552 17.2805C48.1488 21.3583 45.6772 26.8225 45.4392 32.8744L30.5775 37.435L22.28 35.759C21.8383 34.5008 20.6399 33.5986 19.2308 33.5986C17.4465 33.5986 16 35.0451 16 36.8294C16 38.6137 17.4465 40.0602 19.2308 40.0602C20.745 40.0602 22.0159 39.0185 22.3659 37.6127L29.0278 38.9583L24.9336 44.8066C24.5768 44.671 24.1898 44.5967 23.7855 44.5967C22.0012 44.5967 20.5547 46.0431 20.5547 47.8274C20.5547 49.6118 22.0012 51.0582 23.7855 51.0582C25.5698 51.0582 27.0162 49.6118 27.0162 47.8274C27.0162 47.101 26.7765 46.4306 26.3718 45.8909L31.0817 39.1631L45.438 34.7576C45.564 38.0343 46.3591 41.1313 47.6671 43.9354C46.9924 44.5275 46.5664 45.3963 46.5664 46.3646C46.5664 48.1489 48.0129 49.5953 49.7972 49.5953C51.5815 49.5953 53.0279 48.1489 53.0279 46.3646C53.0279 44.5803 51.5815 43.1338 49.7972 43.1338C49.6272 43.1338 49.4602 43.1469 49.2973 43.1722C47.9741 40.3349 47.2203 37.179 47.2203 33.8372C47.2203 33.7218 47.2212 33.6067 47.2229 33.4918C48.8133 33.5989 51.9816 33.6882 55.855 33.4383C61.5021 33.074 64.9632 28.2771 64.1131 24.3909C63.467 21.4372 59.3717 17.3362 57.1071 15.3892C60.6074 13.0682 64.8113 11.718 69.3395 11.718C78.635 11.718 86.564 17.4076 89.8447 25.5053C85.9567 25.2383 79.0009 24.9338 77.5822 25.5545C75.6985 26.3786 71.4606 30.0282 71.8138 35.9146C72.0877 40.4801 75.2652 41.2922 77.9409 41.976C78.7151 42.1739 79.4473 42.361 80.055 42.6252C81.9171 43.4347 83.6224 47.3176 84.5132 49.9375C81.8264 52.4645 78.5041 54.3251 74.8073 55.2609C74.2272 54.7061 73.4407 54.3652 72.5745 54.3652C70.7902 54.3652 69.3438 55.8117 69.3438 57.596C69.3438 59.3803 70.7902 60.8268 72.5745 60.8268C74.3588 60.8268 75.8053 59.3803 75.8053 57.596C75.8053 57.3499 75.7778 57.1103 75.7257 56.88C78.3597 56.155 80.8103 54.9934 82.9945 53.4772V62.7369C82.9945 63.2339 83.3975 63.6369 83.8945 63.6369C84.3916 63.6369 84.7945 63.2339 84.7945 62.7369V52.1852C84.7945 52.1565 84.7932 52.1282 84.7906 52.1003C87.2379 50.0335 89.2621 47.4832 90.7172 44.594V51.5012C90.7167 51.5144 90.7166 51.5277 90.7167 51.5409L90.7172 51.563V57.0103L87.8091 60.6453C87.4986 61.0334 87.5615 61.5998 87.9497 61.9103C88.3378 62.2208 88.9042 62.1579 89.2147 61.7697L90.7172 59.8916V65.1793C90.7172 65.6764 91.1201 66.0793 91.6172 66.0793C92.1143 66.0793 92.5172 65.6764 92.5172 65.1793V53.1626L95.1215 54.8008V59.334C95.1215 59.831 95.5244 60.234 96.0215 60.234C96.5185 60.234 96.9215 59.831 96.9215 59.334V53.8066L92.5172 51.0361V40.1666C92.5172 40.0804 92.5051 39.9971 92.4825 39.9182C92.9891 37.9781 93.2588 35.9403 93.2588 33.8372C93.2588 20.5977 82.579 9.91797 69.3395 9.91797C63.4853 9.91797 58.1315 12.0062 53.9802 15.4805H37.8237L33.6736 19.2333C33.1994 18.96 32.6494 18.8037 32.0628 18.8037C30.2785 18.8037 28.832 20.2502 28.832 22.0345C28.832 23.8188 30.2785 25.2652 32.0628 25.2652C33.8471 25.2652 35.2936 23.8188 35.2936 22.0345C35.2936 21.4914 35.1596 20.9796 34.9229 20.5304L38.5169 17.2805H46.2537L42.1574 23.1318C41.7612 22.9585 41.3236 22.8623 40.8636 22.8623C39.0793 22.8623 37.6328 24.3088 37.6328 26.0931C37.6328 27.8774 39.0793 29.3238 40.8636 29.3238C42.6479 29.3238 44.0944 27.8774 44.0944 26.0931C44.0944 25.4251 43.8916 24.8044 43.5443 24.2893L48.4509 17.2805H52.0552ZM40.8636 27.5238C41.6538 27.5238 42.2944 26.8833 42.2944 26.0931C42.2944 25.3029 41.6538 24.6623 40.8636 24.6623C40.0734 24.6623 39.4328 25.3029 39.4328 26.0931C39.4328 26.8833 40.0734 27.5238 40.8636 27.5238ZM32.0628 23.4653C32.853 23.4653 33.4936 22.8247 33.4936 22.0345C33.4936 21.2443 32.853 20.6037 32.0628 20.6037C31.2726 20.6037 30.632 21.2443 30.632 22.0345C30.632 22.8247 31.2726 23.4653 32.0628 23.4653ZM20.6615 36.8294C20.6615 37.6196 20.021 38.2602 19.2308 38.2602C18.4406 38.2602 17.8 37.6196 17.8 36.8294C17.8 36.0392 18.4406 35.3986 19.2308 35.3986C20.021 35.3986 20.6615 36.0392 20.6615 36.8294ZM49.7972 47.7953C50.5874 47.7953 51.2279 47.1548 51.2279 46.3646C51.2279 45.5744 50.5874 44.9338 49.7972 44.9338C49.007 44.9338 48.3664 45.5744 48.3664 46.3646C48.3664 47.1548 49.007 47.7953 49.7972 47.7953ZM74.0053 57.596C74.0053 58.3862 73.3647 59.0268 72.5745 59.0268C71.7843 59.0268 71.1437 58.3862 71.1437 57.596C71.1437 56.8058 71.7843 56.1652 72.5745 56.1652C73.3647 56.1652 74.0053 56.8058 74.0053 57.596ZM23.7855 49.2582C24.5756 49.2582 25.2162 48.6176 25.2162 47.8274C25.2162 47.0373 24.5756 46.3967 23.7855 46.3967C22.9953 46.3967 22.3547 47.0373 22.3547 47.8274C22.3547 48.6176 22.9953 49.2582 23.7855 49.2582Z" fill="url(#paint0_linear_3002_7068)"/>
<defs>
<linearGradient id="paint0_linear_3002_7068" x1="36" y1="17.499" x2="102.812" y2="39.468" gradientUnits="userSpaceOnUse">
<stop stop-color="#DB8016"/>
<stop offset="1" stop-color="#DBAC16"/>
</linearGradient>
</defs>
</svg>
