<svg width="446" height="464" viewBox="0 0 446 464" fill="none" xmlns="http://www.w3.org/2000/svg">
<g opacity="0.3">
<path d="M296.336 46.7582H215.935L168.606 0H3.81186" stroke="url(#paint0_linear_1007_7013)" stroke-width="2.41313"/>
<path d="M343.102 67.2891H233.047L217.081 92.3789H2.10775" stroke="url(#paint1_linear_1007_7013)" stroke-width="2.41313"/>
<path d="M185.719 116.9H97.9036L67.1114 80.4062H0.965633" stroke="url(#paint2_linear_1007_7013)" stroke-width="2.41313"/>
<path d="M31.1719 116.531H3.05564" stroke="url(#paint3_linear_1007_7013)" stroke-width="2.41313"/>
<path d="M349.367 152.82H4.3843" stroke="url(#paint4_linear_1007_7013)" stroke-width="2.41313"/>
<path d="M384.156 221.251H302.044L257.566 176.773H4.95741" stroke="url(#paint5_linear_1007_7013)" stroke-width="2.41313"/>
<path d="M253.141 221.219H6.57278" stroke="url(#paint6_linear_1007_7013)" stroke-width="2.41313"/>
<path d="M432.617 242.914H323.136L306.598 268.574H4.38057" stroke="url(#paint7_linear_1007_7013)" stroke-width="2.41313"/>
<path d="M273.531 291.947H186.857L155.495 254.883H4.95689" stroke="url(#paint8_linear_1007_7013)" stroke-width="2.41313"/>
<path d="M120.711 291.953H3.81566" stroke="url(#paint9_linear_1007_7013)" stroke-width="2.41313"/>
<path d="M119.57 318.75H33.466L3.81487 354.104" stroke="url(#paint10_linear_1007_7013)" stroke-width="2.41313"/>
<path d="M276.945 367.785H168.032L151.496 342.695H2.09809" stroke="url(#paint11_linear_1007_7013)" stroke-width="2.41313"/>
<path d="M97.9062 389.461H3.24992" stroke="url(#paint12_linear_1007_7013)" stroke-width="2.41313"/>
<path d="M230.188 388.898H148.645L102.458 434.516H2.66952" stroke="url(#paint13_linear_1007_7013)" stroke-width="2.41313"/>
<path d="M195.406 457.312H3.81245" stroke="url(#paint14_linear_1007_7013)" stroke-width="2.41313"/>
<path d="M303.013 53.4341C306.696 53.4341 309.695 50.4349 309.695 46.7522C309.695 43.0695 306.7 40.0703 303.013 40.0703C299.327 40.0703 296.332 43.0695 296.332 46.7522C296.332 50.4349 299.331 53.4341 303.013 53.4341ZM303.013 44.3383C304.344 44.3383 305.427 45.4216 305.427 46.7522C305.427 48.0828 304.344 49.1661 303.013 49.1661C301.683 49.1661 300.599 48.0828 300.599 46.7522C300.599 45.4216 301.683 44.3383 303.013 44.3383Z" fill="#C29152"/>
<path d="M349.365 73.9654C353.048 73.9654 356.047 70.9661 356.047 67.2835C356.047 63.6008 353.051 60.6016 349.365 60.6016C345.679 60.6016 342.683 63.6008 342.683 67.2835C342.683 70.9661 345.682 73.9654 349.365 73.9654ZM349.365 64.8695C350.696 64.8695 351.779 65.9529 351.779 67.2835C351.779 68.614 350.696 69.6974 349.365 69.6974C348.034 69.6974 346.951 68.614 346.951 67.2835C346.951 65.9529 348.034 64.8695 349.365 64.8695Z" fill="#C29152"/>
<path d="M192.396 123.567C196.079 123.567 199.078 120.568 199.078 116.885C199.078 113.202 196.083 110.203 192.396 110.203C188.71 110.203 185.714 113.202 185.714 116.885C185.714 120.568 188.714 123.567 192.396 123.567ZM192.396 114.471C193.727 114.471 194.81 115.554 194.81 116.885C194.81 118.216 193.727 119.299 192.396 119.299C191.066 119.299 189.982 118.216 189.982 116.885C189.982 115.554 191.066 114.471 192.396 114.471Z" fill="#C29152"/>
<path d="M37.8493 123.567C41.532 123.567 44.5312 120.568 44.5312 116.885C44.5312 113.202 41.5357 110.203 37.8493 110.203C34.163 110.203 31.1675 113.202 31.1675 116.885C31.1675 120.568 34.1667 123.567 37.8493 123.567ZM37.8493 114.471C39.1799 114.471 40.2633 115.554 40.2633 116.885C40.2633 118.216 39.1799 119.299 37.8493 119.299C36.5188 119.299 35.4354 118.216 35.4354 116.885C35.4354 115.554 36.5188 114.471 37.8493 114.471Z" fill="#C29152"/>
<path d="M356.052 159.497C359.735 159.497 362.734 156.497 362.734 152.815C362.734 149.132 359.739 146.133 356.052 146.133C352.366 146.133 349.371 149.132 349.371 152.815C349.371 156.497 352.37 159.497 356.052 159.497ZM356.052 150.401C357.383 150.401 358.466 151.484 358.466 152.815C358.466 154.145 357.383 155.229 356.052 155.229C354.722 155.229 353.639 154.145 353.639 152.815C353.639 151.484 354.722 150.401 356.052 150.401Z" fill="#C29152"/>
<path d="M259.834 227.426C263.516 227.426 266.516 224.427 266.516 220.744C266.516 217.062 263.52 214.062 259.834 214.062C256.147 214.062 253.152 217.062 253.152 220.744C253.152 224.427 256.151 227.426 259.834 227.426ZM259.834 218.33C261.164 218.33 262.248 219.414 262.248 220.744C262.248 222.075 261.164 223.158 259.834 223.158C258.503 223.158 257.42 222.075 257.42 220.744C257.42 219.414 258.503 218.33 259.834 218.33Z" fill="#C29152"/>
<path d="M390.842 227.934C394.524 227.934 397.523 224.935 397.523 221.252C397.523 217.57 394.528 214.57 390.842 214.57C387.155 214.57 384.16 217.57 384.16 221.252C384.16 224.935 387.159 227.934 390.842 227.934ZM390.842 218.838C392.172 218.838 393.255 219.922 393.255 221.252C393.255 222.583 392.172 223.666 390.842 223.666C389.511 223.666 388.428 222.583 388.428 221.252C388.428 219.922 389.511 218.838 390.842 218.838Z" fill="#C29152"/>
<path d="M439.302 249.598C442.985 249.598 445.984 246.599 445.984 242.916C445.984 239.234 442.989 236.234 439.302 236.234C435.616 236.234 432.621 239.234 432.621 242.916C432.621 246.599 435.62 249.598 439.302 249.598ZM439.302 240.502C440.633 240.502 441.716 241.586 441.716 242.916C441.716 244.247 440.633 245.33 439.302 245.33C437.972 245.33 436.889 244.247 436.889 242.916C436.889 241.586 437.972 240.502 439.302 240.502Z" fill="#C29152"/>
<path d="M280.217 298.637C283.899 298.637 286.898 295.638 286.898 291.955C286.898 288.273 283.903 285.273 280.217 285.273C276.53 285.273 273.535 288.273 273.535 291.955C273.535 295.638 276.534 298.637 280.217 298.637ZM280.217 289.541C281.547 289.541 282.63 290.625 282.63 291.955C282.63 293.286 281.547 294.369 280.217 294.369C278.886 294.369 277.803 293.286 277.803 291.955C277.803 290.625 278.886 289.541 280.217 289.541Z" fill="#C29152"/>
<path d="M127.388 298.637C131.071 298.637 134.07 295.638 134.07 291.955C134.07 288.273 131.075 285.273 127.388 285.273C123.702 285.273 120.707 288.273 120.707 291.955C120.707 295.638 123.706 298.637 127.388 298.637ZM127.388 289.541C128.719 289.541 129.802 290.625 129.802 291.955C129.802 293.286 128.719 294.369 127.388 294.369C126.058 294.369 124.974 293.286 124.974 291.955C124.974 290.625 126.058 289.541 127.388 289.541Z" fill="#C29152"/>
<path d="M127.388 325.434C131.071 325.434 134.07 322.435 134.07 318.752C134.07 315.07 131.075 312.07 127.388 312.07C123.702 312.07 120.707 315.07 120.707 318.752C120.707 322.435 123.706 325.434 127.388 325.434ZM127.388 316.338C128.719 316.338 129.802 317.422 129.802 318.752C129.802 320.083 128.719 321.166 127.388 321.166C126.058 321.166 124.974 320.083 124.974 318.752C124.974 317.422 126.058 316.338 127.388 316.338Z" fill="#C29152"/>
<path d="M283.631 374.473C287.313 374.473 290.312 371.474 290.312 367.791C290.312 364.109 287.317 361.109 283.631 361.109C279.944 361.109 276.949 364.109 276.949 367.791C276.949 371.474 279.948 374.473 283.631 374.473ZM283.631 365.377C284.961 365.377 286.045 366.461 286.045 367.791C286.045 369.122 284.961 370.205 283.631 370.205C282.3 370.205 281.217 369.122 281.217 367.791C281.217 366.461 282.3 365.377 283.631 365.377Z" fill="#C29152"/>
<path d="M236.873 396.153C240.555 396.153 243.555 393.154 243.555 389.471C243.555 385.788 240.559 382.789 236.873 382.789C233.186 382.789 230.191 385.788 230.191 389.471C230.191 393.154 233.19 396.153 236.873 396.153ZM236.873 387.057C238.203 387.057 239.287 388.14 239.287 389.471C239.287 390.802 238.203 391.885 236.873 391.885C235.542 391.885 234.459 390.802 234.459 389.471C234.459 388.14 235.542 387.057 236.873 387.057Z" fill="#C29152"/>
<path d="M104.592 396.153C108.274 396.153 111.273 393.154 111.273 389.471C111.273 385.788 108.278 382.789 104.592 382.789C100.905 382.789 97.9096 385.788 97.9096 389.471C97.9096 393.154 100.909 396.153 104.592 396.153ZM104.592 387.057C105.922 387.057 107.005 388.14 107.005 389.471C107.005 390.802 105.922 391.885 104.592 391.885C103.261 391.885 102.178 390.802 102.178 389.471C102.178 388.14 103.261 387.057 104.592 387.057Z" fill="#C29152"/>
<path d="M202.092 464.004C205.774 464.004 208.773 461.005 208.773 457.323C208.773 453.64 205.778 450.641 202.092 450.641C198.405 450.641 195.41 453.64 195.41 457.323C195.41 461.005 198.409 464.004 202.092 464.004ZM202.092 454.909C203.422 454.909 204.505 455.992 204.505 457.323C204.505 458.653 203.422 459.736 202.092 459.736C200.761 459.736 199.678 458.653 199.678 457.323C199.678 455.992 200.761 454.909 202.092 454.909Z" fill="#C29152"/>
</g>
<defs>
<linearGradient id="paint0_linear_1007_7013" x1="150.074" y1="0" x2="150.074" y2="46.7582" gradientUnits="userSpaceOnUse">
<stop stop-color="#2F4225"/>
<stop offset="1" stop-color="#B1864C"/>
</linearGradient>
<linearGradient id="paint1_linear_1007_7013" x1="172.605" y1="67.2891" x2="172.605" y2="92.3789" gradientUnits="userSpaceOnUse">
<stop stop-color="#B1864C"/>
<stop offset="1" stop-color="#2F4225"/>
</linearGradient>
<linearGradient id="paint2_linear_1007_7013" x1="93.3422" y1="80.4062" x2="93.3422" y2="116.9" gradientUnits="userSpaceOnUse">
<stop stop-color="#2F4225"/>
<stop offset="1" stop-color="#B1864C"/>
</linearGradient>
<linearGradient id="paint3_linear_1007_7013" x1="17.1138" y1="116.531" x2="17.1138" y2="117.531" gradientUnits="userSpaceOnUse">
<stop stop-color="#B1864C"/>
<stop offset="1" stop-color="#2F4225"/>
</linearGradient>
<linearGradient id="paint4_linear_1007_7013" x1="176.876" y1="152.82" x2="176.876" y2="153.82" gradientUnits="userSpaceOnUse">
<stop stop-color="#B1864C"/>
<stop offset="1" stop-color="#2F4225"/>
</linearGradient>
<linearGradient id="paint5_linear_1007_7013" x1="194.557" y1="176.773" x2="194.557" y2="221.251" gradientUnits="userSpaceOnUse">
<stop stop-color="#2F4225"/>
<stop offset="1" stop-color="#B1864C"/>
</linearGradient>
<linearGradient id="paint6_linear_1007_7013" x1="129.857" y1="221.219" x2="129.857" y2="222.219" gradientUnits="userSpaceOnUse">
<stop stop-color="#B1864C"/>
<stop offset="1" stop-color="#2F4225"/>
</linearGradient>
<linearGradient id="paint7_linear_1007_7013" x1="218.499" y1="242.914" x2="218.499" y2="268.574" gradientUnits="userSpaceOnUse">
<stop stop-color="#B1864C"/>
<stop offset="1" stop-color="#2F4225"/>
</linearGradient>
<linearGradient id="paint8_linear_1007_7013" x1="139.244" y1="254.883" x2="139.244" y2="291.947" gradientUnits="userSpaceOnUse">
<stop stop-color="#2F4225"/>
<stop offset="1" stop-color="#B1864C"/>
</linearGradient>
<linearGradient id="paint9_linear_1007_7013" x1="62.2633" y1="291.953" x2="62.2633" y2="292.953" gradientUnits="userSpaceOnUse">
<stop stop-color="#B1864C"/>
<stop offset="1" stop-color="#2F4225"/>
</linearGradient>
<linearGradient id="paint10_linear_1007_7013" x1="61.6926" y1="318.75" x2="61.6926" y2="354.104" gradientUnits="userSpaceOnUse">
<stop stop-color="#B1864C"/>
<stop offset="1" stop-color="#2F4225"/>
</linearGradient>
<linearGradient id="paint11_linear_1007_7013" x1="139.522" y1="342.695" x2="139.522" y2="367.785" gradientUnits="userSpaceOnUse">
<stop stop-color="#2F4225"/>
<stop offset="1" stop-color="#B1864C"/>
</linearGradient>
<linearGradient id="paint12_linear_1007_7013" x1="50.5781" y1="389.461" x2="50.5781" y2="390.461" gradientUnits="userSpaceOnUse">
<stop stop-color="#B1864C"/>
<stop offset="1" stop-color="#2F4225"/>
</linearGradient>
<linearGradient id="paint13_linear_1007_7013" x1="116.429" y1="388.898" x2="116.429" y2="434.516" gradientUnits="userSpaceOnUse">
<stop stop-color="#B1864C"/>
<stop offset="1" stop-color="#2F4225"/>
</linearGradient>
<linearGradient id="paint14_linear_1007_7013" x1="99.6094" y1="457.312" x2="99.6094" y2="458.312" gradientUnits="userSpaceOnUse">
<stop stop-color="#B1864C"/>
<stop offset="1" stop-color="#2F4225"/>
</linearGradient>
</defs>
</svg>
