<svg width="28" height="28" viewBox="0 0 28 28" fill="none" xmlns="http://www.w3.org/2000/svg">
<path d="M22.1443 2.79688H5.85337C5.04326 2.79688 4.26632 3.11869 3.69348 3.69153C3.12065 4.26437 2.79883 5.0413 2.79883 5.85142L2.79883 22.1423C2.79883 22.9524 3.12065 23.7294 3.69348 24.3022C4.26632 24.8751 5.04326 25.1969 5.85337 25.1969H22.1443C22.9544 25.1969 23.7313 24.8751 24.3042 24.3022C24.877 23.7294 25.1988 22.9524 25.1988 22.1423V5.85142C25.1988 5.0413 24.877 4.26437 24.3042 3.69153C23.7313 3.11869 22.9544 2.79688 22.1443 2.79688ZM10.4352 20.5234C10.4354 20.5855 10.4233 20.6471 10.3996 20.7045C10.376 20.7619 10.3412 20.8141 10.2973 20.8581C10.2535 20.9021 10.2014 20.937 10.144 20.9608C10.0866 20.9846 10.0251 20.9969 9.96301 20.9969H7.95083C7.88861 20.997 7.82696 20.9849 7.76945 20.9612C7.71193 20.9374 7.65967 20.9026 7.61567 20.8586C7.57167 20.8146 7.53681 20.7623 7.51307 20.7048C7.48934 20.6473 7.47721 20.5856 7.47737 20.5234V12.0878C7.47737 11.9622 7.52726 11.8418 7.61605 11.753C7.70484 11.6642 7.82526 11.6143 7.95083 11.6143H9.96301C10.0884 11.6147 10.2085 11.6647 10.297 11.7535C10.3855 11.8422 10.4352 11.9624 10.4352 12.0878V20.5234ZM8.95628 10.8151C8.5787 10.8151 8.2096 10.7031 7.89565 10.4933C7.5817 10.2835 7.33701 9.98538 7.19251 9.63654C7.04802 9.2877 7.01021 8.90385 7.08387 8.53352C7.15754 8.16319 7.33936 7.82303 7.60635 7.55604C7.87334 7.28904 8.21351 7.10722 8.58384 7.03356C8.95417 6.9599 9.33802 6.9977 9.68686 7.1422C10.0357 7.28669 10.3339 7.53138 10.5436 7.84533C10.7534 8.15928 10.8654 8.52838 10.8654 8.90597C10.8654 9.41229 10.6642 9.89787 10.3062 10.2559C9.94819 10.6139 9.46261 10.8151 8.95628 10.8151ZM20.953 20.5565C20.9532 20.6137 20.942 20.6704 20.9202 20.7233C20.8984 20.7762 20.8664 20.8242 20.8259 20.8647C20.7854 20.9051 20.7374 20.9372 20.6845 20.959C20.6316 20.9808 20.5749 20.992 20.5177 20.9918H18.3541C18.2969 20.992 18.2402 20.9808 18.1873 20.959C18.1344 20.9372 18.0864 20.9051 18.0459 20.8647C18.0055 20.8242 17.9734 20.7762 17.9516 20.7233C17.9298 20.6704 17.9187 20.6137 17.9188 20.5565V16.6047C17.9188 16.0141 18.0919 14.0185 16.375 14.0185C15.045 14.0185 14.7739 15.3841 14.7205 15.9976V20.5616C14.7205 20.676 14.6755 20.7857 14.5952 20.8672C14.515 20.9486 14.4059 20.9952 14.2916 20.9969H12.2017C12.1446 20.9969 12.0881 20.9856 12.0354 20.9637C11.9826 20.9418 11.9347 20.9097 11.8944 20.8693C11.8541 20.8289 11.8221 20.7809 11.8004 20.7281C11.7787 20.6753 11.7676 20.6187 11.7677 20.5616V12.0509C11.7676 11.9938 11.7787 11.9372 11.8004 11.8844C11.8221 11.8316 11.8541 11.7836 11.8944 11.7432C11.9347 11.7027 11.9826 11.6707 12.0354 11.6488C12.0881 11.6269 12.1446 11.6156 12.2017 11.6156H14.2916C14.407 11.6156 14.5177 11.6615 14.5993 11.7431C14.681 11.8247 14.7268 11.9354 14.7268 12.0509V12.7865C15.2206 12.0445 15.9525 11.4743 17.5141 11.4743C20.9734 11.4743 20.9505 14.7045 20.9505 16.4787L20.953 20.5565Z" fill="#A6A6A8"/>
</svg>
