<svg width="28" height="28" viewBox="0 0 28 28" fill="none" xmlns="http://www.w3.org/2000/svg">
<path d="M26.5734 7.4384C26.2709 6.31384 25.3842 5.42735 24.2598 5.12454C22.2057 4.5625 13.9889 4.5625 13.9889 4.5625C13.9889 4.5625 5.77251 4.5625 3.71837 5.10323C2.61559 5.40572 1.70732 6.314 1.40483 7.4384C0.864258 9.49239 0.864258 13.7521 0.864258 13.7521C0.864258 13.7521 0.864258 18.0332 1.40483 20.0658C1.70764 21.1902 2.59396 22.0767 3.71853 22.3795C5.79414 22.9417 13.9893 22.9417 13.9893 22.9417C13.9893 22.9417 22.2057 22.9417 24.2598 22.4009C25.3844 22.0983 26.2709 21.2118 26.5737 20.0874C27.1141 18.0332 27.1141 13.7737 27.1141 13.7737C27.1141 13.7737 27.1357 9.49239 26.5734 7.4384ZM11.3729 17.6873V9.81683L18.2055 13.7521L11.3729 17.6873Z" fill="#A6A6A8"/>
</svg>
