<svg width="579" height="450" viewBox="0 0 579 450" fill="none" xmlns="http://www.w3.org/2000/svg">
<g clip-path="url(#clip0_2079_52899)">
<rect width="579" height="450" rx="21" fill="white"/>
<path d="M31.38 38H29.539V27.99H31.38V38ZM34.4668 38H32.7098V30.2825H34.4668V32.554C34.5554 32.1597 34.6826 31.8085 34.8483 31.5005C35.0139 31.1925 35.2146 30.9335 35.4503 30.7235C35.6883 30.5112 35.9589 30.3502 36.2623 30.2405C36.5656 30.1285 36.8969 30.0725 37.2563 30.0725C37.6833 30.0725 38.0624 30.1518 38.3938 30.3105C38.7274 30.4668 39.0086 30.6955 39.2373 30.9965C39.4683 31.2975 39.6433 31.6673 39.7623 32.106C39.8813 32.5423 39.9408 33.0405 39.9408 33.6005V38H38.1838V33.7755C38.1838 32.3405 37.6039 31.623 36.4443 31.623C36.1339 31.623 35.8563 31.6732 35.6113 31.7735C35.3663 31.8738 35.1586 32.0208 34.9883 32.2145C34.8179 32.4058 34.6884 32.6427 34.5998 32.925C34.5111 33.205 34.4668 33.5258 34.4668 33.8875V38ZM42.7889 34.1395C42.7889 34.5338 42.8367 34.8873 42.9324 35.2C43.0281 35.5103 43.1646 35.774 43.3419 35.991C43.5216 36.2057 43.7397 36.3702 43.9964 36.4845C44.2554 36.5988 44.5471 36.656 44.8714 36.656C45.1514 36.656 45.3976 36.6152 45.6099 36.5335C45.8246 36.4495 46.0089 36.334 46.1629 36.187C46.3169 36.04 46.4417 35.8673 46.5374 35.669C46.6354 35.4683 46.7066 35.2525 46.7509 35.0215H48.5044C48.4647 35.3272 48.3947 35.6177 48.2944 35.893C48.1964 36.1683 48.0704 36.425 47.9164 36.663C47.7624 36.8987 47.5816 37.1122 47.3739 37.3035C47.1662 37.4925 46.9341 37.6547 46.6774 37.79C46.4207 37.9253 46.1407 38.0292 45.8374 38.1015C45.5364 38.1738 45.2132 38.21 44.8679 38.21C44.4876 38.21 44.1282 38.1657 43.7899 38.077C43.4539 37.9907 43.1436 37.8647 42.8589 37.699C42.5742 37.5333 42.3176 37.3315 42.0889 37.0935C41.8626 36.8555 41.6701 36.586 41.5114 36.285C41.3551 35.9817 41.2349 35.6503 41.1509 35.291C41.0669 34.9317 41.0249 34.5478 41.0249 34.1395C41.0249 33.5258 41.1171 32.9693 41.3014 32.47C41.4881 31.9707 41.7506 31.5437 42.0889 31.189C42.4272 30.832 42.8321 30.5567 43.3034 30.363C43.7747 30.1693 44.2962 30.0725 44.8679 30.0725C45.3859 30.0725 45.8549 30.153 46.2749 30.314C46.6972 30.475 47.0636 30.6978 47.3739 30.9825C47.6842 31.2648 47.9351 31.6008 48.1264 31.9905C48.3201 32.3802 48.4461 32.8037 48.5044 33.261H46.7509C46.7089 33.03 46.6389 32.8153 46.5409 32.617C46.4452 32.4163 46.3204 32.2425 46.1664 32.0955C46.0124 31.9485 45.8281 31.8342 45.6134 31.7525C45.3987 31.6685 45.1514 31.6265 44.8714 31.6265C44.5471 31.6265 44.2554 31.6837 43.9964 31.798C43.7397 31.9123 43.5216 32.078 43.3419 32.295C43.1646 32.5097 43.0281 32.7722 42.9324 33.0825C42.8367 33.3928 42.7889 33.7452 42.7889 34.1395ZM51.4063 29.432H49.5933V27.64H51.4063V29.432ZM51.3783 38H49.6213V30.2825H51.3783V38ZM60.1741 27.64V38H58.4171V35.641C58.3237 36.04 58.1931 36.3993 58.0251 36.719C57.8571 37.0363 57.6564 37.3058 57.4231 37.5275C57.1921 37.7468 56.9296 37.9148 56.6356 38.0315C56.3439 38.1505 56.0277 38.21 55.6871 38.21C55.3767 38.21 55.0816 38.1645 54.8016 38.0735C54.5239 37.9825 54.2661 37.853 54.0281 37.685C53.7924 37.5147 53.5801 37.3093 53.3911 37.069C53.2021 36.8263 53.0411 36.5545 52.9081 36.2535C52.7751 35.9525 52.6724 35.6247 52.6001 35.27C52.5301 34.913 52.4951 34.5362 52.4951 34.1395C52.4951 33.7428 52.5301 33.3672 52.6001 33.0125C52.6724 32.6555 52.7751 32.3265 52.9081 32.0255C53.0411 31.7245 53.2021 31.4538 53.3911 31.2135C53.5801 30.9708 53.7924 30.7655 54.0281 30.5975C54.2661 30.4295 54.5239 30.3 54.8016 30.209C55.0816 30.118 55.3767 30.0725 55.6871 30.0725C56.0301 30.0725 56.3474 30.132 56.6391 30.251C56.9307 30.3677 57.1932 30.5368 57.4266 30.7585C57.6599 30.9778 57.8594 31.2462 58.0251 31.5635C58.1931 31.8808 58.3237 32.2402 58.4171 32.6415V27.64H60.1741ZM58.4171 34.1395C58.4171 33.7382 58.3692 33.38 58.2736 33.065C58.1802 32.75 58.0437 32.484 57.8641 32.267C57.6844 32.05 57.4639 31.8843 57.2026 31.77C56.9436 31.6557 56.6496 31.5985 56.3206 31.5985C55.6486 31.5985 55.1364 31.8143 54.7841 32.246C54.4341 32.6777 54.2591 33.3088 54.2591 34.1395C54.2591 34.5548 54.3034 34.9212 54.3921 35.2385C54.4807 35.5535 54.6114 35.8183 54.7841 36.033C54.9591 36.2477 55.1749 36.4098 55.4316 36.5195C55.6882 36.6292 55.9846 36.684 56.3206 36.684C56.6496 36.684 56.9436 36.6268 57.2026 36.5125C57.4639 36.3982 57.6844 36.2325 57.8641 36.0155C58.0437 35.7962 58.1802 35.529 58.2736 35.214C58.3692 34.899 58.4171 34.5408 58.4171 34.1395ZM68.7616 35.4135C68.659 35.8498 68.4991 36.2407 68.2821 36.586C68.0651 36.9313 67.8003 37.2242 67.4876 37.4645C67.175 37.7048 66.8203 37.8892 66.4236 38.0175C66.027 38.1458 65.5976 38.21 65.1356 38.21C64.5616 38.21 64.0378 38.112 63.5641 37.916C63.0928 37.72 62.6891 37.4435 62.3531 37.0865C62.0171 36.7272 61.7558 36.2978 61.5691 35.7985C61.3848 35.2968 61.2926 34.7415 61.2926 34.1325C61.2926 33.7265 61.3335 33.345 61.4151 32.988C61.4991 32.631 61.6181 32.302 61.7721 32.001C61.9285 31.7 62.1175 31.4305 62.3391 31.1925C62.5631 30.9545 62.8163 30.7527 63.0986 30.587C63.381 30.419 63.689 30.2918 64.0226 30.2055C64.3586 30.1168 64.7156 30.0725 65.0936 30.0725C65.4693 30.0725 65.8205 30.1157 66.1471 30.202C66.4761 30.2883 66.7771 30.4132 67.0501 30.5765C67.3255 30.7398 67.5705 30.9393 67.7851 31.175C68.0021 31.4107 68.1853 31.6778 68.3346 31.9765C68.484 32.2752 68.5983 32.6042 68.6776 32.9635C68.757 33.3228 68.7966 33.7067 68.7966 34.115C68.7966 34.206 68.7943 34.297 68.7896 34.388C68.7873 34.479 68.7815 34.5747 68.7721 34.675H63.0286C63.066 34.997 63.1418 35.2852 63.2561 35.5395C63.3728 35.7915 63.5233 36.0062 63.7076 36.1835C63.892 36.3608 64.1078 36.4962 64.3551 36.5895C64.6048 36.6828 64.8813 36.7295 65.1846 36.7295C65.6466 36.7295 66.0328 36.6198 66.3431 36.4005C66.6535 36.1812 66.895 35.8522 67.0676 35.4135H68.7616ZM67.0571 33.415C66.9638 32.8013 66.7515 32.3358 66.4201 32.0185C66.0911 31.6988 65.6525 31.539 65.1041 31.539C64.8241 31.539 64.5686 31.581 64.3376 31.665C64.1066 31.749 63.9036 31.8715 63.7286 32.0325C63.556 32.1935 63.4125 32.3907 63.2981 32.624C63.1838 32.855 63.1021 33.1187 63.0531 33.415H67.0571ZM71.6734 38H69.9164V30.2825H71.6734V32.554C71.7621 32.1597 71.8893 31.8085 72.0549 31.5005C72.2206 31.1925 72.4213 30.9335 72.6569 30.7235C72.8949 30.5112 73.1656 30.3502 73.4689 30.2405C73.7723 30.1285 74.1036 30.0725 74.4629 30.0725C74.8899 30.0725 75.2691 30.1518 75.6004 30.3105C75.9341 30.4668 76.2153 30.6955 76.4439 30.9965C76.6749 31.2975 76.8499 31.6673 76.9689 32.106C77.0879 32.5423 77.1474 33.0405 77.1474 33.6005V38H75.3904V33.7755C75.3904 32.3405 74.8106 31.623 73.6509 31.623C73.3406 31.623 73.0629 31.6732 72.8179 31.7735C72.5729 31.8738 72.3653 32.0208 72.1949 32.2145C72.0246 32.4058 71.8951 32.6427 71.8064 32.925C71.7178 33.205 71.6734 33.5258 71.6734 33.8875V38ZM83.1895 37.9405C82.5665 38.1178 82.0112 38.2065 81.5235 38.2065C81.1198 38.2065 80.7628 38.1458 80.4525 38.0245C80.1445 37.9032 79.8855 37.7223 79.6755 37.482C79.4678 37.2417 79.3103 36.943 79.203 36.586C79.098 36.2267 79.0455 35.8113 79.0455 35.34V31.7105H78.0375V30.2825H79.0455V28.5045H80.8025V30.2825H83.1895V31.7105H80.8025V35.3435C80.8025 35.8218 80.8912 36.173 81.0685 36.397C81.2458 36.621 81.527 36.733 81.912 36.733C82.066 36.733 82.2468 36.7155 82.4545 36.6805C82.6622 36.6455 82.9072 36.5918 83.1895 36.5195V37.9405ZM99.6346 27.99V38H97.7936V29.537L94.8221 38H92.5821L89.6456 29.5405V38H87.8676V27.99H90.8881L93.7616 36.2745L96.6666 27.99H99.6346ZM100.941 33.0405C100.941 32.5855 101.025 32.1748 101.193 31.8085C101.361 31.4422 101.6 31.1307 101.91 30.874C102.223 30.615 102.602 30.4167 103.048 30.279C103.496 30.1413 103.997 30.0725 104.553 30.0725C105.134 30.0725 105.653 30.1483 106.11 30.3C106.57 30.4517 106.958 30.671 107.276 30.958C107.595 31.245 107.839 31.5962 108.007 32.0115C108.175 32.4268 108.259 32.897 108.259 33.422V38H106.502V35.977C106.411 36.3223 106.273 36.6338 106.089 36.9115C105.907 37.1868 105.684 37.4213 105.421 37.615C105.157 37.8063 104.857 37.9533 104.521 38.056C104.187 38.1587 103.825 38.21 103.433 38.21C103.024 38.21 102.653 38.154 102.32 38.042C101.986 37.9323 101.7 37.7772 101.462 37.5765C101.224 37.3758 101.04 37.1343 100.909 36.852C100.778 36.5673 100.713 36.2523 100.713 35.907C100.713 35.5477 100.784 35.2257 100.927 34.941C101.069 34.6563 101.273 34.4148 101.539 34.2165C101.807 34.0182 102.134 33.8665 102.519 33.7615C102.904 33.6542 103.338 33.6005 103.821 33.6005H106.502V33.422C106.502 33.1303 106.457 32.869 106.366 32.638C106.275 32.4047 106.143 32.2063 105.97 32.043C105.8 31.8797 105.592 31.7548 105.347 31.6685C105.102 31.5822 104.826 31.539 104.518 31.539C104.205 31.539 103.933 31.574 103.702 31.644C103.473 31.714 103.284 31.8143 103.135 31.945C102.986 32.0757 102.875 32.2343 102.803 32.421C102.73 32.6053 102.694 32.8118 102.694 33.0405H100.941ZM103.919 34.8325C103.441 34.8325 103.078 34.913 102.831 35.074C102.586 35.235 102.463 35.473 102.463 35.788C102.463 36.1193 102.598 36.3737 102.869 36.551C103.14 36.726 103.528 36.8135 104.035 36.8135C104.394 36.8135 104.724 36.7703 105.025 36.684C105.328 36.5953 105.589 36.4728 105.806 36.3165C106.025 36.1602 106.195 35.9747 106.317 35.76C106.44 35.543 106.502 35.3073 106.502 35.053V34.8325H103.919ZM111.273 38H109.516V30.2825H111.273V32.554C111.361 32.1597 111.488 31.8085 111.654 31.5005C111.82 31.1925 112.02 30.9335 112.256 30.7235C112.494 30.5112 112.765 30.3502 113.068 30.2405C113.371 30.1285 113.703 30.0725 114.062 30.0725C114.489 30.0725 114.868 30.1518 115.2 30.3105C115.533 30.4668 115.814 30.6955 116.043 30.9965C116.274 31.2975 116.449 31.6673 116.568 32.106C116.687 32.5423 116.747 33.0405 116.747 33.6005V38H114.99V33.7755C114.99 32.3405 114.41 31.623 113.25 31.623C112.94 31.623 112.662 31.6732 112.417 31.7735C112.172 31.8738 111.964 32.0208 111.794 32.2145C111.624 32.4058 111.494 32.6427 111.406 32.925C111.317 33.205 111.273 33.5258 111.273 33.8875V38ZM118.016 33.0405C118.016 32.5855 118.1 32.1748 118.268 31.8085C118.436 31.4422 118.675 31.1307 118.986 30.874C119.298 30.615 119.678 30.4167 120.123 30.279C120.571 30.1413 121.073 30.0725 121.628 30.0725C122.209 30.0725 122.728 30.1483 123.186 30.3C123.645 30.4517 124.034 30.671 124.351 30.958C124.671 31.245 124.915 31.5962 125.083 32.0115C125.251 32.4268 125.335 32.897 125.335 33.422V38H123.578V35.977C123.487 36.3223 123.349 36.6338 123.165 36.9115C122.983 37.1868 122.76 37.4213 122.496 37.615C122.233 37.8063 121.933 37.9533 121.597 38.056C121.263 38.1587 120.9 38.21 120.508 38.21C120.1 38.21 119.729 38.154 119.395 38.042C119.062 37.9323 118.776 37.7772 118.538 37.5765C118.3 37.3758 118.115 37.1343 117.985 36.852C117.854 36.5673 117.789 36.2523 117.789 35.907C117.789 35.5477 117.86 35.2257 118.002 34.941C118.145 34.6563 118.349 34.4148 118.615 34.2165C118.883 34.0182 119.21 33.8665 119.595 33.7615C119.98 33.6542 120.414 33.6005 120.897 33.6005H123.578V33.422C123.578 33.1303 123.532 32.869 123.441 32.638C123.35 32.4047 123.218 32.2063 123.046 32.043C122.875 31.8797 122.668 31.7548 122.423 31.6685C122.178 31.5822 121.901 31.539 121.593 31.539C121.281 31.539 121.009 31.574 120.778 31.644C120.549 31.714 120.36 31.8143 120.211 31.945C120.061 32.0757 119.951 32.2343 119.878 32.421C119.806 32.6053 119.77 32.8118 119.77 33.0405H118.016ZM120.995 34.8325C120.516 34.8325 120.154 34.913 119.906 35.074C119.661 35.235 119.539 35.473 119.539 35.788C119.539 36.1193 119.674 36.3737 119.945 36.551C120.215 36.726 120.604 36.8135 121.11 36.8135C121.47 36.8135 121.8 36.7703 122.101 36.684C122.404 36.5953 122.664 36.4728 122.881 36.3165C123.101 36.1602 123.271 35.9747 123.392 35.76C123.516 35.543 123.578 35.3073 123.578 35.053V34.8325H120.995ZM134.158 30.2825V36.782C134.158 37.398 134.065 37.9568 133.878 38.4585C133.692 38.9602 133.426 39.3883 133.08 39.743C132.737 40.1 132.323 40.3753 131.838 40.569C131.355 40.765 130.816 40.863 130.221 40.863C129.861 40.863 129.52 40.828 129.195 40.758C128.873 40.688 128.573 40.5877 128.296 40.457C128.02 40.3263 127.772 40.1688 127.55 39.9845C127.329 39.8002 127.14 39.5925 126.983 39.3615C126.827 39.1328 126.707 38.8832 126.623 38.6125C126.539 38.3442 126.497 38.0607 126.497 37.762H128.25C128.25 38.0023 128.299 38.224 128.397 38.427C128.498 38.6323 128.635 38.8097 128.81 38.959C128.985 39.1083 129.192 39.225 129.43 39.309C129.67 39.393 129.93 39.435 130.21 39.435C130.544 39.435 130.845 39.372 131.113 39.246C131.384 39.1223 131.615 38.945 131.806 38.714C131.998 38.4853 132.145 38.2088 132.247 37.8845C132.35 37.5578 132.401 37.1927 132.401 36.789V35.319C132.308 35.6993 132.176 36.04 132.006 36.341C131.838 36.642 131.636 36.8975 131.4 37.1075C131.167 37.3175 130.902 37.4785 130.606 37.5905C130.309 37.7002 129.987 37.755 129.64 37.755C129.334 37.755 129.044 37.7118 128.768 37.6255C128.493 37.5392 128.237 37.4167 128.002 37.258C127.768 37.097 127.557 36.9022 127.368 36.6735C127.182 36.4448 127.022 36.1882 126.889 35.9035C126.758 35.6165 126.657 35.305 126.584 34.969C126.514 34.6307 126.479 34.2737 126.479 33.898C126.479 33.5223 126.514 33.1665 126.584 32.8305C126.657 32.4945 126.758 32.1853 126.889 31.903C127.022 31.6207 127.182 31.3663 127.368 31.14C127.557 30.9137 127.768 30.7212 128.002 30.5625C128.237 30.4038 128.493 30.2825 128.768 30.1985C129.044 30.1145 129.334 30.0725 129.64 30.0725C129.987 30.0725 130.309 30.1273 130.606 30.237C130.902 30.3467 131.167 30.5053 131.4 30.713C131.636 30.9183 131.838 31.1703 132.006 31.469C132.176 31.7653 132.308 32.1025 132.401 32.4805V30.2825H134.158ZM132.401 33.898C132.401 33.5317 132.353 33.2062 132.258 32.9215C132.164 32.6345 132.027 32.393 131.845 32.197C131.663 32.001 131.44 31.8528 131.176 31.7525C130.913 31.6498 130.612 31.5985 130.273 31.5985C129.618 31.5985 129.115 31.7922 128.765 32.1795C128.417 32.5645 128.243 33.1373 128.243 33.898C128.243 34.2783 128.288 34.6143 128.376 34.906C128.465 35.1953 128.594 35.438 128.765 35.634C128.937 35.83 129.15 35.9782 129.402 36.0785C129.654 36.1788 129.944 36.229 130.273 36.229C130.612 36.229 130.913 36.1765 131.176 36.0715C131.44 35.9665 131.663 35.8148 131.845 35.6165C132.027 35.4158 132.164 35.1708 132.258 34.8815C132.353 34.5922 132.401 34.2643 132.401 33.898ZM142.745 35.4135C142.642 35.8498 142.482 36.2407 142.265 36.586C142.048 36.9313 141.783 37.2242 141.471 37.4645C141.158 37.7048 140.803 37.8892 140.407 38.0175C140.01 38.1458 139.581 38.21 139.119 38.21C138.545 38.21 138.021 38.112 137.547 37.916C137.076 37.72 136.672 37.4435 136.336 37.0865C136 36.7272 135.739 36.2978 135.552 35.7985C135.368 35.2968 135.276 34.7415 135.276 34.1325C135.276 33.7265 135.316 33.345 135.398 32.988C135.482 32.631 135.601 32.302 135.755 32.001C135.911 31.7 136.1 31.4305 136.322 31.1925C136.546 30.9545 136.799 30.7527 137.082 30.587C137.364 30.419 137.672 30.2918 138.006 30.2055C138.342 30.1168 138.699 30.0725 139.077 30.0725C139.452 30.0725 139.803 30.1157 140.13 30.202C140.459 30.2883 140.76 30.4132 141.033 30.5765C141.308 30.7398 141.553 30.9393 141.768 31.175C141.985 31.4107 142.168 31.6778 142.318 31.9765C142.467 32.2752 142.581 32.6042 142.661 32.9635C142.74 33.3228 142.78 33.7067 142.78 34.115C142.78 34.206 142.777 34.297 142.773 34.388C142.77 34.479 142.764 34.5747 142.755 34.675H137.012C137.049 34.997 137.125 35.2852 137.239 35.5395C137.356 35.7915 137.506 36.0062 137.691 36.1835C137.875 36.3608 138.091 36.4962 138.338 36.5895C138.588 36.6828 138.864 36.7295 139.168 36.7295C139.63 36.7295 140.016 36.6198 140.326 36.4005C140.636 36.1812 140.878 35.8522 141.051 35.4135H142.745ZM141.04 33.415C140.947 32.8013 140.734 32.3358 140.403 32.0185C140.074 31.6988 139.635 31.539 139.087 31.539C138.807 31.539 138.552 31.581 138.321 31.665C138.09 31.749 137.887 31.8715 137.712 32.0325C137.539 32.1935 137.395 32.3907 137.281 32.624C137.167 32.855 137.085 33.1187 137.036 33.415H141.04ZM145.656 38H143.899V30.2825H145.656V32.4945C145.74 32.1095 145.86 31.7677 146.017 31.469C146.173 31.168 146.361 30.9148 146.58 30.7095C146.802 30.5018 147.053 30.3443 147.333 30.237C147.615 30.1273 147.922 30.0725 148.253 30.0725C148.601 30.0725 148.914 30.132 149.191 30.251C149.471 30.3677 149.715 30.5403 149.923 30.769C150.13 30.9977 150.301 31.2788 150.434 31.6125C150.567 31.9438 150.659 32.3253 150.71 32.757C150.783 32.3323 150.896 31.9543 151.05 31.623C151.204 31.2893 151.393 31.0082 151.617 30.7795C151.843 30.5485 152.103 30.3735 152.397 30.2545C152.691 30.1332 153.013 30.0725 153.363 30.0725C153.765 30.0725 154.12 30.1518 154.431 30.3105C154.743 30.4668 155.006 30.6955 155.218 30.9965C155.433 31.2975 155.596 31.6673 155.708 32.106C155.82 32.5423 155.876 33.0405 155.876 33.6005V38H154.119V33.7755C154.119 32.3405 153.595 31.623 152.548 31.623C152.268 31.623 152.017 31.6732 151.795 31.7735C151.574 31.8738 151.387 32.0208 151.235 32.2145C151.084 32.4058 150.967 32.6427 150.885 32.925C150.806 33.205 150.766 33.5258 150.766 33.8875V38H149.009V33.7755C149.009 32.3405 148.485 31.623 147.438 31.623C147.158 31.623 146.907 31.6732 146.685 31.7735C146.464 31.8738 146.277 32.0208 146.125 32.2145C145.974 32.4058 145.857 32.6427 145.775 32.925C145.696 33.205 145.656 33.5258 145.656 33.8875V38ZM164.428 35.4135C164.325 35.8498 164.165 36.2407 163.948 36.586C163.731 36.9313 163.466 37.2242 163.154 37.4645C162.841 37.7048 162.486 37.8892 162.09 38.0175C161.693 38.1458 161.264 38.21 160.802 38.21C160.228 38.21 159.704 38.112 159.23 37.916C158.759 37.72 158.355 37.4435 158.019 37.0865C157.683 36.7272 157.422 36.2978 157.235 35.7985C157.051 35.2968 156.959 34.7415 156.959 34.1325C156.959 33.7265 156.999 33.345 157.081 32.988C157.165 32.631 157.284 32.302 157.438 32.001C157.594 31.7 157.783 31.4305 158.005 31.1925C158.229 30.9545 158.482 30.7527 158.765 30.587C159.047 30.419 159.355 30.2918 159.689 30.2055C160.025 30.1168 160.382 30.0725 160.76 30.0725C161.135 30.0725 161.486 30.1157 161.813 30.202C162.142 30.2883 162.443 30.4132 162.716 30.5765C162.991 30.7398 163.236 30.9393 163.451 31.175C163.668 31.4107 163.851 31.6778 164.001 31.9765C164.15 32.2752 164.264 32.6042 164.344 32.9635C164.423 33.3228 164.463 33.7067 164.463 34.115C164.463 34.206 164.46 34.297 164.456 34.388C164.453 34.479 164.447 34.5747 164.438 34.675H158.695C158.732 34.997 158.808 35.2852 158.922 35.5395C159.039 35.7915 159.189 36.0062 159.374 36.1835C159.558 36.3608 159.774 36.4962 160.021 36.5895C160.271 36.6828 160.547 36.7295 160.851 36.7295C161.313 36.7295 161.699 36.6198 162.009 36.4005C162.319 36.1812 162.561 35.8522 162.734 35.4135H164.428ZM162.723 33.415C162.63 32.8013 162.417 32.3358 162.086 32.0185C161.757 31.6988 161.318 31.539 160.77 31.539C160.49 31.539 160.235 31.581 160.004 31.665C159.773 31.749 159.57 31.8715 159.395 32.0325C159.222 32.1935 159.078 32.3907 158.964 32.624C158.85 32.855 158.768 33.1187 158.719 33.415H162.723ZM167.339 38H165.582V30.2825H167.339V32.554C167.428 32.1597 167.555 31.8085 167.721 31.5005C167.887 31.1925 168.087 30.9335 168.323 30.7235C168.561 30.5112 168.832 30.3502 169.135 30.2405C169.438 30.1285 169.77 30.0725 170.129 30.0725C170.556 30.0725 170.935 30.1518 171.266 30.3105C171.6 30.4668 171.881 30.6955 172.11 30.9965C172.341 31.2975 172.516 31.6673 172.635 32.106C172.754 32.5423 172.813 33.0405 172.813 33.6005V38H171.056V33.7755C171.056 32.3405 170.477 31.623 169.317 31.623C169.007 31.623 168.729 31.6732 168.484 31.7735C168.239 31.8738 168.031 32.0208 167.861 32.2145C167.691 32.4058 167.561 32.6427 167.472 32.925C167.384 33.205 167.339 33.5258 167.339 33.8875V38ZM178.855 37.9405C178.232 38.1178 177.677 38.2065 177.189 38.2065C176.786 38.2065 176.429 38.1458 176.118 38.0245C175.81 37.9032 175.551 37.7223 175.341 37.482C175.134 37.2417 174.976 36.943 174.869 36.586C174.764 36.2267 174.711 35.8113 174.711 35.34V31.7105H173.703V30.2825H174.711V28.5045H176.468V30.2825H178.855V31.7105H176.468V35.3435C176.468 35.8218 176.557 36.173 176.734 36.397C176.912 36.621 177.193 36.733 177.578 36.733C177.732 36.733 177.913 36.7155 178.12 36.6805C178.328 36.6455 178.573 36.5918 178.855 36.5195V37.9405ZM187.559 27.78C188.179 27.78 188.739 27.8558 189.239 28.0075C189.738 28.1592 190.164 28.3773 190.516 28.662C190.868 28.9443 191.139 29.2897 191.328 29.698C191.519 30.1063 191.615 30.566 191.615 31.077H189.837C189.837 30.811 189.781 30.5718 189.669 30.3595C189.559 30.1448 189.403 29.9628 189.2 29.8135C188.999 29.6618 188.758 29.5463 188.476 29.467C188.193 29.3853 187.881 29.3445 187.538 29.3445C187.251 29.3445 186.969 29.3748 186.694 29.4355C186.421 29.4938 186.177 29.5837 185.963 29.705C185.748 29.824 185.575 29.9757 185.445 30.16C185.314 30.3443 185.249 30.5613 185.249 30.811C185.249 31.0373 185.302 31.2205 185.41 31.3605C185.519 31.5005 185.678 31.616 185.886 31.707C186.093 31.7957 186.346 31.868 186.645 31.924C186.946 31.98 187.288 32.036 187.671 32.092L188.136 32.1585C188.416 32.2005 188.705 32.2483 189.004 32.302C189.303 32.3533 189.593 32.4222 189.876 32.5085C190.16 32.5925 190.429 32.701 190.681 32.834C190.935 32.9647 191.157 33.1303 191.346 33.331C191.537 33.5317 191.687 33.7743 191.797 34.059C191.909 34.3413 191.965 34.6762 191.965 35.0635C191.965 35.5862 191.861 36.0447 191.654 36.439C191.446 36.831 191.153 37.1588 190.775 37.4225C190.399 37.6838 189.948 37.8798 189.421 38.0105C188.893 38.1435 188.309 38.21 187.667 38.21C186.969 38.21 186.348 38.1342 185.802 37.9825C185.258 37.8285 184.798 37.6068 184.423 37.3175C184.047 37.0282 183.76 36.6735 183.562 36.2535C183.366 35.8335 183.268 35.3563 183.268 34.822H185.046C185.046 35.1067 185.105 35.3622 185.224 35.5885C185.345 35.8148 185.518 36.0062 185.742 36.1625C185.968 36.3188 186.243 36.439 186.565 36.523C186.887 36.6047 187.248 36.6455 187.65 36.6455C187.993 36.6455 188.316 36.614 188.619 36.551C188.922 36.488 189.187 36.3923 189.414 36.264C189.642 36.1333 189.822 35.9688 189.953 35.7705C190.086 35.5722 190.152 35.3388 190.152 35.0705C190.152 34.8232 190.097 34.6237 189.988 34.472C189.878 34.3203 189.722 34.1978 189.519 34.1045C189.316 34.0112 189.072 33.9388 188.787 33.8875C188.502 33.8338 188.185 33.7813 187.835 33.73L187.247 33.6425C187.037 33.6122 186.821 33.5795 186.6 33.5445C186.378 33.5095 186.157 33.4675 185.938 33.4185C185.721 33.3695 185.509 33.3123 185.301 33.247C185.093 33.1793 184.896 33.0977 184.71 33.002C184.525 32.9063 184.355 32.7943 184.199 32.666C184.042 32.5377 183.907 32.3883 183.793 32.218C183.681 32.0453 183.593 31.8505 183.53 31.6335C183.467 31.4142 183.436 31.1668 183.436 30.8915C183.436 30.5508 183.485 30.237 183.583 29.95C183.681 29.663 183.818 29.4052 183.996 29.1765C184.173 28.9455 184.386 28.7437 184.636 28.571C184.888 28.396 185.166 28.2502 185.469 28.1335C185.775 28.0145 186.104 27.9258 186.456 27.8675C186.808 27.8092 187.176 27.78 187.559 27.78ZM192.921 34.1395C192.921 33.5258 193.013 32.9693 193.198 32.47C193.384 31.9707 193.647 31.5437 193.985 31.189C194.323 30.832 194.728 30.5567 195.2 30.363C195.671 30.1693 196.192 30.0725 196.764 30.0725C197.336 30.0725 197.857 30.1693 198.329 30.363C198.8 30.5567 199.205 30.832 199.543 31.189C199.881 31.5437 200.143 31.9707 200.327 32.47C200.514 32.9693 200.607 33.5258 200.607 34.1395C200.607 34.5478 200.565 34.9317 200.481 35.291C200.397 35.6503 200.276 35.9817 200.117 36.285C199.961 36.586 199.768 36.8555 199.54 37.0935C199.313 37.3315 199.058 37.5333 198.773 37.699C198.488 37.8647 198.177 37.9907 197.839 38.077C197.503 38.1657 197.144 38.21 196.764 38.21C196.384 38.21 196.024 38.1657 195.686 38.077C195.348 37.9907 195.036 37.8647 194.752 37.699C194.467 37.5333 194.211 37.3315 193.985 37.0935C193.759 36.8555 193.566 36.586 193.408 36.285C193.251 35.9817 193.131 35.6503 193.047 35.291C192.963 34.9317 192.921 34.5478 192.921 34.1395ZM194.685 34.1395C194.685 34.5338 194.733 34.8873 194.829 35.2C194.924 35.5103 195.061 35.774 195.238 35.991C195.418 36.2057 195.636 36.3702 195.893 36.4845C196.152 36.5988 196.443 36.656 196.768 36.656C197.092 36.656 197.382 36.5988 197.639 36.4845C197.896 36.3702 198.113 36.2057 198.29 35.991C198.47 35.774 198.606 35.5103 198.7 35.2C198.795 34.8873 198.843 34.5338 198.843 34.1395C198.843 33.7452 198.795 33.3928 198.7 33.0825C198.606 32.7698 198.47 32.5062 198.29 32.2915C198.113 32.0768 197.896 31.9123 197.639 31.798C197.382 31.6837 197.092 31.6265 196.768 31.6265C196.443 31.6265 196.152 31.6837 195.893 31.798C195.636 31.9123 195.418 32.078 195.238 32.295C195.061 32.5097 194.924 32.7722 194.829 33.0825C194.733 33.3928 194.685 33.7452 194.685 34.1395ZM203.48 38H201.723V27.64H203.48V38ZM210.203 30.2825H211.96V38H210.203V35.7285C210.117 36.1205 209.99 36.4705 209.822 36.7785C209.656 37.0865 209.454 37.3467 209.216 37.559C208.981 37.7713 208.711 37.9323 208.408 38.042C208.104 38.154 207.773 38.21 207.414 38.21C206.987 38.21 206.606 38.1318 206.273 37.9755C205.941 37.8168 205.66 37.587 205.429 37.286C205.201 36.985 205.027 36.6163 204.908 36.18C204.789 35.7413 204.729 35.242 204.729 34.682V30.2825H206.486V34.507C206.486 35.9397 207.066 36.656 208.226 36.656C208.538 36.656 208.817 36.6058 209.062 36.5055C209.307 36.4052 209.514 36.2593 209.682 36.068C209.852 35.8743 209.982 35.6375 210.07 35.3575C210.159 35.0752 210.203 34.7543 210.203 34.395V30.2825ZM218.119 37.9405C217.496 38.1178 216.941 38.2065 216.453 38.2065C216.05 38.2065 215.693 38.1458 215.382 38.0245C215.074 37.9032 214.815 37.7223 214.605 37.482C214.398 37.2417 214.24 36.943 214.133 36.586C214.028 36.2267 213.975 35.8113 213.975 35.34V31.7105H212.967V30.2825H213.975V28.5045H215.732V30.2825H218.119V31.7105H215.732V35.3435C215.732 35.8218 215.821 36.173 215.998 36.397C216.176 36.621 216.457 36.733 216.842 36.733C216.996 36.733 217.177 36.7155 217.384 36.6805C217.592 36.6455 217.837 36.5918 218.119 36.5195V37.9405ZM221.068 29.432H219.255V27.64H221.068V29.432ZM221.04 38H219.283V30.2825H221.04V38ZM222.157 34.1395C222.157 33.5258 222.249 32.9693 222.434 32.47C222.62 31.9707 222.883 31.5437 223.221 31.189C223.559 30.832 223.964 30.5567 224.436 30.363C224.907 30.1693 225.428 30.0725 226 30.0725C226.572 30.0725 227.093 30.1693 227.565 30.363C228.036 30.5567 228.441 30.832 228.779 31.189C229.117 31.5437 229.379 31.9707 229.563 32.47C229.75 32.9693 229.843 33.5258 229.843 34.1395C229.843 34.5478 229.801 34.9317 229.717 35.291C229.633 35.6503 229.512 35.9817 229.353 36.285C229.197 36.586 229.004 36.8555 228.776 37.0935C228.549 37.3315 228.294 37.5333 228.009 37.699C227.724 37.8647 227.413 37.9907 227.075 38.077C226.739 38.1657 226.38 38.21 226 38.21C225.62 38.21 225.26 38.1657 224.922 38.077C224.584 37.9907 224.272 37.8647 223.988 37.699C223.703 37.5333 223.447 37.3315 223.221 37.0935C222.995 36.8555 222.802 36.586 222.644 36.285C222.487 35.9817 222.367 35.6503 222.283 35.291C222.199 34.9317 222.157 34.5478 222.157 34.1395ZM223.921 34.1395C223.921 34.5338 223.969 34.8873 224.065 35.2C224.16 35.5103 224.297 35.774 224.474 35.991C224.654 36.2057 224.872 36.3702 225.129 36.4845C225.388 36.5988 225.679 36.656 226.004 36.656C226.328 36.656 226.618 36.5988 226.875 36.4845C227.132 36.3702 227.349 36.2057 227.526 35.991C227.706 35.774 227.842 35.5103 227.936 35.2C228.031 34.8873 228.079 34.5338 228.079 34.1395C228.079 33.7452 228.031 33.3928 227.936 33.0825C227.842 32.7698 227.706 32.5062 227.526 32.2915C227.349 32.0768 227.132 31.9123 226.875 31.798C226.618 31.6837 226.328 31.6265 226.004 31.6265C225.679 31.6265 225.388 31.6837 225.129 31.798C224.872 31.9123 224.654 32.078 224.474 32.295C224.297 32.5097 224.16 32.7722 224.065 33.0825C223.969 33.3928 223.921 33.7452 223.921 34.1395ZM232.716 38H230.959V30.2825H232.716V32.554C232.804 32.1597 232.931 31.8085 233.097 31.5005C233.263 31.1925 233.463 30.9335 233.699 30.7235C233.937 30.5112 234.208 30.3502 234.511 30.2405C234.814 30.1285 235.146 30.0725 235.505 30.0725C235.932 30.0725 236.311 30.1518 236.643 30.3105C236.976 30.4668 237.257 30.6955 237.486 30.9965C237.717 31.2975 237.892 31.6673 238.011 32.106C238.13 32.5423 238.19 33.0405 238.19 33.6005V38H236.433V33.7755C236.433 32.3405 235.853 31.623 234.693 31.623C234.383 31.623 234.105 31.6732 233.86 31.7735C233.615 31.8738 233.407 32.0208 233.237 32.2145C233.067 32.4058 232.937 32.6427 232.849 32.925C232.76 33.205 232.716 33.5258 232.716 33.8875V38Z" fill="#1A1A1A"/>
<line y1="53.5" x2="579" y2="53.5" stroke="#ECECEC"/>
<g opacity="0.2">
<path d="M57.4519 408.632H15.0952L19.5088 404.14L30.8059 403.025C32.011 402.905 32.8915 401.835 32.7721 400.63C32.6527 399.425 31.5894 398.548 30.3769 398.667L18.2888 399.861C17.7777 399.913 17.3039 400.141 16.942 400.506L8.95041 408.636H-7.36851C-7.99157 408.636 -8.58478 408.901 -8.99891 409.364L-19.7886 421.414C-20.3856 421.407 -20.9825 421.638 -21.419 422.108C-22.2398 422.996 -22.1838 424.38 -21.2959 425.205L-5.64111 439.673C-5.23444 440.046 -4.70464 440.255 -4.1562 440.255H12.7111L16.4756 444.3C16.9084 444.762 17.4904 444.997 18.0799 444.997C18.6134 444.997 19.1506 444.803 19.5722 444.412C20.4565 443.587 20.5087 442.203 19.6842 441.315L15.2705 436.573C14.8564 436.129 14.2744 435.875 13.6662 435.875H8.73401L14.1289 430.074C14.9534 429.186 14.9012 427.802 14.0169 426.977C13.129 426.153 11.7448 426.205 10.9203 427.089L2.75339 435.872H-3.29437L-16.1846 423.955L-6.38355 413.009H31.0559L40.8084 423.832C41.2412 424.313 41.8382 424.556 42.4351 424.556C42.9574 424.556 43.4835 424.369 43.9014 423.992C44.8005 423.183 44.8714 421.799 44.0618 420.899L36.9544 413.012H57.4594C58.6682 413.012 59.6494 412.031 59.6494 410.822C59.6494 409.614 58.6682 408.632 57.4594 408.632H57.4519Z" fill="#F0BB00"/>
<path d="M-4.6298 384C-5.8386 384 -6.81982 384.981 -6.81982 386.19C-6.81982 387.399 -5.8386 388.38 -4.6298 388.38H25.6948C26.9037 388.38 27.8849 387.399 27.8849 386.19C27.8849 384.981 26.9037 384 25.6948 384H-4.6298Z" fill="#F0BB00"/>
</g>
<g opacity="0.2">
<path d="M512.196 90.6323H554.553L550.14 86.1403L538.843 85.0248C537.637 84.9054 536.757 83.8347 536.876 82.6296C536.996 81.4245 538.059 80.5477 539.272 80.6671L551.36 81.861C551.871 81.9133 552.345 82.1408 552.706 82.5065L560.698 90.6361H577.017C577.64 90.6361 578.233 90.9009 578.647 91.3636L589.437 103.414C590.034 103.407 590.631 103.638 591.067 104.108C591.888 104.996 591.832 106.38 590.944 107.205L575.29 121.673C574.883 122.046 574.353 122.255 573.805 122.255H556.937L553.173 126.3C552.74 126.762 552.158 126.997 551.569 126.997C551.035 126.997 550.498 126.803 550.076 126.412C549.192 125.587 549.14 124.203 549.964 123.315L554.378 118.573C554.792 118.129 555.374 117.875 555.982 117.875H560.914L555.52 112.074C554.695 111.186 554.747 109.802 555.632 108.977C556.519 108.153 557.904 108.205 558.728 109.089L566.895 117.872H572.943L585.833 105.955L576.032 95.0087H538.593L528.84 105.832C528.407 106.313 527.81 106.556 527.213 106.556C526.691 106.556 526.165 106.369 525.747 105.992C524.848 105.183 524.777 103.799 525.587 102.899L532.694 95.0124H512.189C510.98 95.0124 509.999 94.0312 509.999 92.8224C509.999 91.6136 510.98 90.6323 512.189 90.6323H512.196Z" fill="#F0BB00"/>
<path d="M574.278 66C575.487 66 576.468 66.9812 576.468 68.19C576.468 69.3988 575.487 70.3801 574.278 70.3801H543.954C542.745 70.3801 541.764 69.3988 541.764 68.19C541.764 66.9812 542.745 66 543.954 66H574.278Z" fill="#F0BB00"/>
</g>
<path opacity="0.3" d="M18.3321 126.934C20.7939 126.934 22.7988 124.929 22.7988 122.467C22.7988 120.005 20.7939 118 18.3321 118C15.8703 118 13.8653 120.003 13.8653 122.467C13.8653 124.931 15.8703 126.934 18.3321 126.934ZM18.3321 120.853C19.2215 120.853 19.9457 121.577 19.9457 122.467C19.9457 123.356 19.2215 124.08 18.3321 124.08C17.4426 124.08 16.7184 123.356 16.7184 122.467C16.7184 121.577 17.4426 120.853 18.3321 120.853Z" fill="#22533D"/>
<path opacity="0.3" d="M19.0274 103.09C21.4892 103.09 23.4941 101.085 23.4941 98.623C23.4941 96.1612 21.4916 94.1562 19.0274 94.1562C16.5631 94.1562 14.5606 96.1612 14.5606 98.623C14.5606 101.085 16.5656 103.09 19.0274 103.09ZM19.0274 97.0093C19.9169 97.0093 20.6411 97.7335 20.6411 98.623C20.6411 99.5125 19.9169 100.237 19.0274 100.237C18.1379 100.237 17.4137 99.5125 17.4137 98.623C17.4137 97.7335 18.1379 97.0093 19.0274 97.0093Z" fill="#22533D"/>
<path opacity="0.3" d="M-41.5823 115.582C-41.8545 115.31 -42.0052 114.94 -42.0003 114.556L-41.9055 106.145V54H-7.77061L0.523743 74.9801H-20.9181L-20.8574 97.1972H-9.40129L-3.08271 90.8786C-3.41079 90.2589 -3.59791 89.5517 -3.59791 88.8032C-3.59791 86.3414 -1.59542 84.3365 0.86883 84.3365C3.33308 84.3365 5.33558 86.3414 5.33558 88.8032C5.33558 91.265 3.33065 93.27 0.86883 93.27C0.19566 93.27 -0.443485 93.1144 -1.01702 92.8471L-5.36712 97.1972H15.7418V100.05H0.312315L3.73893 103.659C4.3392 103.36 5.01237 103.185 5.72685 103.185C8.18867 103.185 10.1936 105.188 10.1936 107.652C10.1936 110.116 8.1911 112.119 5.72685 112.119C3.2626 112.119 1.2601 110.114 1.2601 107.652C1.2601 106.945 1.43022 106.277 1.72427 105.681L-3.62222 100.048H-20.8525L-20.8379 105.455L-12.6602 113.557L10.4293 113.382L17.6738 120.07L15.7394 122.168L9.32358 116.245L-1.84087 116.33L-0.759415 117.324C-0.164009 117.03 0.499441 116.863 1.20663 116.863C3.66845 116.863 5.67339 118.868 5.67339 121.329C5.67339 123.791 3.67088 125.796 1.20663 125.796C-1.25761 125.796 -3.26012 123.794 -3.26012 121.329C-3.26012 120.612 -3.08757 119.939 -2.78622 119.337L-6.02328 116.36L-13.8267 116.418L-23.6886 106.646L-23.7858 72.1222H-3.67811L-9.71722 56.8482H-39.0597V106.155C-39.0597 106.155 -39.0597 106.165 -39.0597 106.17L-39.1472 113.98L-30.1214 123.006C-30.1019 123.026 -30.0898 123.048 -30.0728 123.067L-19.1538 134.141L-1.03646 134.304L2.16658 137.252C2.88106 136.769 3.74135 136.484 4.66727 136.484C7.12909 136.484 9.13402 138.489 9.13402 140.951C9.13402 143.413 7.12909 145.418 4.66727 145.418C2.20545 145.418 0.20052 143.415 0.20052 140.951C0.20052 140.455 0.285582 139.981 0.433826 139.534L-2.16165 137.145L-9.08536 137.084L-8.16916 138.071C-7.81192 137.979 -7.43767 137.923 -7.05127 137.923C-4.58945 137.923 -2.58451 139.928 -2.58451 142.39C-2.58451 144.851 -4.58702 146.856 -7.05127 146.856C-9.51551 146.856 -11.518 144.854 -11.518 142.39C-11.518 141.364 -11.1656 140.421 -10.5824 139.665L-13.015 137.048L-20.3592 136.982L-29.7204 127.485L-29.7107 134.491L-20.5293 143.67C-19.9485 143.393 -19.2996 143.233 -18.6143 143.233C-16.1524 143.233 -14.1475 145.238 -14.1475 147.7C-14.1475 150.161 -16.15 152.166 -18.6143 152.166C-21.0785 152.166 -23.081 150.161 -23.081 147.7C-23.081 146.963 -22.8987 146.268 -22.5804 145.653L-29.7034 138.533L-29.6864 149.989C-27.956 150.604 -26.7093 152.254 -26.7093 154.193C-26.7093 156.655 -28.7143 158.66 -31.1761 158.66C-33.6379 158.66 -35.6428 156.657 -35.6428 154.193C-35.6428 152.205 -34.3378 150.519 -32.5394 149.94L-32.5783 124.579L-41.5896 115.567L-41.5823 115.582ZM2.48493 88.8081C2.48493 87.9186 1.76073 87.1944 0.871264 87.1944C-0.018198 87.1944 -0.742401 87.9186 -0.742401 88.8081C-0.742401 89.6975 -0.018198 90.4217 0.871264 90.4217C1.76073 90.4217 2.48493 89.6975 2.48493 88.8081ZM5.73171 109.271C6.62117 109.271 7.34538 108.546 7.34538 107.657C7.34538 106.767 6.62117 106.043 5.73171 106.043C4.84225 106.043 4.11804 106.767 4.11804 107.657C4.11804 108.546 4.84225 109.271 5.73171 109.271ZM1.21149 122.948C2.10096 122.948 2.82516 122.224 2.82516 121.334C2.82516 120.445 2.10096 119.721 1.21149 119.721C0.322031 119.721 -0.402172 120.445 -0.402172 121.334C-0.402172 122.224 0.322031 122.948 1.21149 122.948ZM4.67456 142.572C5.56402 142.572 6.28823 141.848 6.28823 140.958C6.28823 140.069 5.56402 139.345 4.67456 139.345C3.7851 139.345 3.0609 140.069 3.0609 140.958C3.0609 141.848 3.7851 142.572 4.67456 142.572ZM-7.04154 144.013C-6.15208 144.013 -5.42787 143.289 -5.42787 142.399C-5.42787 141.51 -6.15208 140.786 -7.04154 140.786C-7.931 140.786 -8.65521 141.51 -8.65521 142.399C-8.65521 143.289 -7.931 144.013 -7.04154 144.013ZM-18.607 149.325C-17.7175 149.325 -16.9933 148.601 -16.9933 147.712C-16.9933 146.822 -17.7175 146.098 -18.607 146.098C-19.4964 146.098 -20.2206 146.822 -20.2206 147.712C-20.2206 148.601 -19.4964 149.325 -18.607 149.325ZM-31.1688 155.819C-30.2793 155.819 -29.5551 155.095 -29.5551 154.205C-29.5551 153.316 -30.2793 152.592 -31.1688 152.592C-32.0583 152.592 -32.7825 153.316 -32.7825 154.205C-32.7825 155.095 -32.0583 155.819 -31.1688 155.819Z" fill="#22533D"/>
<g clip-path="url(#clip1_2079_52899)">
<path d="M469.837 105.452V357.23C469.837 363.556 464.71 368.685 458.385 368.685H89.3375C83.0108 368.685 77.8818 363.558 77.8818 357.23V105.452C77.8818 99.1257 83.0092 94 89.3375 94H458.387C464.71 94 469.839 99.1241 469.839 105.452H469.837Z" fill="#2F353C"/>
<path d="M519.054 363.612V363.615C519.052 363.655 519.051 363.696 519.049 363.735C519.044 363.865 519.038 363.993 519.029 364.121C519.023 364.243 519.015 364.364 519.003 364.486C518.997 364.575 518.99 364.662 518.98 364.749C518.972 364.837 518.964 364.928 518.954 365.017C518.949 365.056 518.946 365.095 518.941 365.135C518.924 365.274 518.908 365.412 518.888 365.55C518.366 369.365 516.706 372.817 514.263 375.555C514.024 375.825 513.776 376.088 513.519 376.344C513.133 376.73 512.729 377.101 512.31 377.451C509.018 380.223 504.768 381.89 500.128 381.89H41.6488C37.0094 381.89 32.761 380.223 29.4687 377.451C28.7721 376.868 28.1199 376.234 27.5137 375.555C25.0708 372.817 23.4115 369.365 22.8891 365.55C22.8694 365.412 22.8529 365.273 22.8365 365.135C22.8316 365.095 22.8266 365.056 22.8234 365.018C22.8135 364.923 22.8036 364.829 22.7954 364.734C22.7905 364.686 22.7856 364.637 22.7823 364.588C22.7774 364.538 22.7724 364.489 22.7708 364.44C22.7626 364.358 22.756 364.276 22.7511 364.193C22.7478 364.141 22.7445 364.088 22.7429 364.036C22.7363 363.945 22.7314 363.853 22.7297 363.763C22.7264 363.712 22.7248 363.663 22.7231 363.612C22.7231 363.249 23.0189 362.953 23.3819 362.953H518.392C518.755 362.953 519.052 363.249 519.054 363.612Z" fill="#E0E6ED"/>
<path d="M453.841 119.199V343.483C453.841 348.566 449.721 352.689 444.634 352.689H103.08C97.9971 352.689 93.8735 348.566 93.8735 343.483V119.199C93.8735 114.112 97.9971 109.992 103.08 109.992H444.634C449.721 109.992 453.841 114.112 453.841 119.199Z" fill="white"/>
<path d="M453.844 119.199V126.592H93.8779V119.199C93.8779 114.112 98.0015 109.992 103.084 109.992H444.639C449.725 109.992 453.845 114.112 453.845 119.199H453.844Z" fill="#DBAC16" fill-opacity="0.5"/>
<path d="M112.098 121.676C113.868 121.676 115.303 120.241 115.303 118.471C115.303 116.701 113.868 115.266 112.098 115.266C110.328 115.266 108.893 116.701 108.893 118.471C108.893 120.241 110.328 121.676 112.098 121.676Z" fill="#E32046"/>
<path d="M122.539 121.676C124.309 121.676 125.744 120.241 125.744 118.471C125.744 116.701 124.309 115.266 122.539 115.266C120.769 115.266 119.333 116.701 119.333 118.471C119.333 120.241 120.769 121.676 122.539 121.676Z" fill="#A8C740"/>
<path d="M132.98 121.676C134.75 121.676 136.185 120.241 136.185 118.471C136.185 116.701 134.75 115.266 132.98 115.266C131.209 115.266 129.774 116.701 129.774 118.471C129.774 120.241 131.209 121.676 132.98 121.676Z" fill="#F7B212"/>
<path d="M435.754 114.539H324.529C322.452 114.539 320.769 116.222 320.769 118.299C320.769 120.375 322.452 122.058 324.529 122.058H435.754C437.83 122.058 439.514 120.375 439.514 118.299C439.514 116.222 437.83 114.539 435.754 114.539Z" fill="white"/>
<path d="M326.763 115.648C325.567 115.648 324.595 116.621 324.595 117.817C324.595 118.405 324.83 118.937 325.211 119.328L324.056 120.483C323.931 120.608 323.931 120.81 324.056 120.935C324.118 120.998 324.201 121.029 324.283 121.029C324.365 121.029 324.447 120.998 324.509 120.935L325.725 119.719C326.034 119.889 326.387 119.986 326.765 119.986C327.961 119.986 328.934 119.013 328.934 117.817C328.934 116.621 327.961 115.648 326.765 115.648H326.763ZM326.763 119.347C326.451 119.347 326.162 119.251 325.919 119.09C325.916 119.087 325.916 119.082 325.912 119.08C325.899 119.067 325.881 119.061 325.866 119.049C325.485 118.772 325.236 118.325 325.236 117.819C325.236 116.976 325.921 116.289 326.763 116.289C327.606 116.289 328.293 116.974 328.293 117.819C328.293 118.663 327.608 119.348 326.763 119.348V119.347Z" fill="#2F353C"/>
<path d="M144.02 281.922H134.139V304.201H144.02V281.922Z" fill="#FFC879"/>
<path d="M153.901 273.547H144.02V304.212H153.901V273.547Z" fill="#90DD75"/>
<path d="M174.026 258.789H164.144V304.202H174.026V258.789Z" fill="#FFC879"/>
<path d="M183.909 267.5H174.027V304.201H183.909V267.5Z" fill="#90DD75"/>
<path d="M204.031 270.602H194.149V304.203H204.031V270.602Z" fill="#FFC879"/>
<path d="M213.912 251.734H204.03V304.207H213.912V251.734Z" fill="#90DD75"/>
<path d="M234.034 294.773H224.152V304.207H234.034V294.773Z" fill="#FFC879"/>
<path d="M243.914 257.688H234.033V304.207H243.914V257.688Z" fill="#90DD75"/>
<path d="M264.039 281.922H254.157V304.201H264.039V281.922Z" fill="#FFC879"/>
<path d="M273.919 264.102H264.038V304.204H273.919V264.102Z" fill="#90DD75"/>
<path d="M326.16 260.039V275.051H341.173V260.039H326.16ZM339.411 273.29H327.921V261.8H339.411V273.29Z" fill="#FFC879" fill-opacity="0.69"/>
<path d="M410.742 260.898H348.346V262.688H410.742V260.898Z" fill="#90DD75"/>
<path d="M410.742 266.625H348.346V268.414H410.742V266.625Z" fill="#90DD75"/>
<path d="M410.742 272.344H348.346V274.133H410.742V272.344Z" fill="#90DD75"/>
<path d="M326.16 288.812V303.825H341.173V288.812H326.16ZM339.411 302.064H327.921V290.574H339.411V302.064Z" fill="#FFC879" fill-opacity="0.69"/>
<path d="M410.742 289.672H348.346V291.461H410.742V289.672Z" fill="#90DD75"/>
<path d="M410.742 295.398H348.346V297.188H410.742V295.398Z" fill="#90DD75"/>
<path d="M410.742 301.117H348.346V302.906H410.742V301.117Z" fill="#90DD75"/>
<path d="M331.959 271.548C331.703 271.548 331.448 271.451 331.253 271.256L328.225 268.228C327.836 267.839 327.836 267.206 328.225 266.817C328.614 266.427 329.247 266.427 329.636 266.817L331.959 269.14L338.143 262.956C338.532 262.567 339.165 262.567 339.554 262.956C339.944 263.345 339.944 263.978 339.554 264.367L332.666 271.256C332.47 271.451 332.216 271.548 331.959 271.548Z" fill="#E32046"/>
<path d="M190.77 204.066H163.704V177C178.652 177 190.77 189.118 190.77 204.066Z" fill="#E0554D"/>
<path d="M163.705 204.069L140.12 190.781C137.905 194.708 136.639 199.239 136.639 204.069C136.639 219.017 148.756 231.135 163.705 231.135C178.653 231.135 190.771 219.017 190.771 204.069H163.705Z" fill="#349B65"/>
<path d="M163.704 204.066V177C153.586 177 144.762 182.554 140.119 190.779L163.704 204.066Z" fill="#FFC879"/>
<path d="M208.301 182.117H199.643V190.775H208.301V182.117Z" fill="#E0554D"/>
<path d="M208.301 199.734H199.643V208.392H208.301V199.734Z" fill="#FFC879"/>
<path d="M208.301 217.359H199.643V226.017H208.301V217.359Z" fill="#349B65"/>
<path d="M274.015 182.898H215.079V184.589H274.015V182.898Z" fill="#90DD75"/>
<path d="M274.015 188.305H215.079V189.995H274.015V188.305Z" fill="#90DD75"/>
<path d="M274.015 200.516H215.079V202.206H274.015V200.516Z" fill="#90DD75"/>
<path d="M274.015 205.93H215.079V207.62H274.015V205.93Z" fill="#90DD75"/>
<path d="M274.015 218.133H215.079V219.823H274.015V218.133Z" fill="#90DD75"/>
<path d="M274.015 223.539H215.079V225.23H274.015V223.539Z" fill="#90DD75"/>
<path d="M397.582 163.047H391.064C390.708 163.047 390.42 163.336 390.42 163.691C390.42 164.046 390.71 164.335 391.064 164.335H396.938V169.746C396.938 170.103 397.227 170.39 397.582 170.39C397.936 170.39 398.226 170.101 398.226 169.746V163.691C398.226 163.334 397.936 163.047 397.582 163.047Z" fill="#E32046"/>
<path d="M336.045 206.758H326.164V225.238H336.045V206.758Z" fill="#90DD75"/>
<path d="M363.336 202.516H353.455V225.241H363.336V202.516Z" fill="#90DD75"/>
<path d="M349.691 194.109H339.809V225.237H349.691V194.109Z" fill="#90DD75"/>
<path d="M376.982 199.391H367.101V225.239H376.982V199.391Z" fill="#90DD75"/>
<path d="M404.273 178.609H394.392V225.237H404.273V178.609Z" fill="#90DD75"/>
<path d="M390.628 186.648H380.746V225.236H390.628V186.648Z" fill="#90DD75"/>
<path d="M320.767 205.99L347.048 179.709L364.316 196.977L396.744 164.547" stroke="#E0554D" stroke-width="1.34714" stroke-linecap="round" stroke-linejoin="round"/>
<path d="M519.054 363.612V363.638C519.052 363.671 519.051 363.702 519.049 363.735C519.044 363.865 519.038 363.993 519.029 364.121C519.023 364.243 519.015 364.364 519.003 364.486C518.997 364.575 518.99 364.662 518.98 364.749C518.972 364.837 518.964 364.928 518.954 365.017C518.949 365.056 518.946 365.095 518.941 365.135C518.924 365.274 518.908 365.412 518.888 365.55H22.8891C22.8694 365.412 22.8529 365.273 22.8365 365.135C22.8316 365.095 22.8266 365.056 22.8234 365.018C22.8135 364.923 22.8036 364.829 22.7954 364.734C22.7905 364.686 22.7856 364.637 22.7823 364.588C22.7774 364.538 22.7724 364.489 22.7708 364.44C22.7626 364.358 22.756 364.276 22.7511 364.193C22.7478 364.141 22.7445 364.088 22.7429 364.036C22.7363 363.945 22.7314 363.853 22.7297 363.763C22.7264 363.72 22.7248 363.678 22.7231 363.635V363.612C22.7231 363.249 23.0189 362.953 23.3819 362.953H518.392C518.755 362.953 519.052 363.249 519.054 363.612Z" fill="white"/>
<path d="M224.38 362.953H323.337C323.337 368.179 319.095 372.421 313.869 372.421H233.849C228.623 372.421 224.382 368.179 224.382 362.953H224.38Z" fill="#AAB0B5"/>
<path d="M512.31 377.453C509.018 380.225 504.768 381.892 500.128 381.892H41.6489C37.0094 381.892 32.761 380.225 29.4688 377.453H512.31Z" fill="#AAB0B5"/>
<path d="M534.835 364.082L538.959 359.022L537.239 354.065L535.775 349.852L529.323 350.545L532.551 358.472L534.835 364.082Z" fill="#F08462"/>
<path d="M534.834 364.079L538.956 359.019L537.237 354.062C535.614 356.055 534.928 357.821 532.55 358.469L534.835 364.079H534.834Z" fill="#E63841"/>
<path d="M538.392 358.055L533.042 360.358L536.49 369.003L542.307 366.21L542.715 365.594L538.392 358.055Z" fill="#1C1D1E"/>
<path d="M539.669 356.931C539.548 356.791 538.945 356.072 539.074 355.617C539.104 355.511 539.184 355.373 539.396 355.308C539.612 355.242 539.764 355.311 539.853 355.38C540.233 355.674 540.214 356.54 540.206 356.711L540.201 356.811L539.753 357.026L539.669 356.929V356.931ZM539.646 355.648C539.618 355.625 539.577 355.607 539.495 355.631C539.413 355.656 539.403 355.692 539.398 355.71C539.345 355.894 539.608 356.321 539.84 356.612L539.871 356.597C539.871 356.247 539.809 355.774 539.646 355.648Z" fill="#2A2A2A"/>
<path d="M524.373 378.858C525.349 379.355 527.249 379.36 528.642 378.721C530.036 378.081 535.193 375.289 535.193 375.289C535.193 375.289 540.276 371.414 540.371 371.312C540.464 371.208 542.373 369.748 542.373 369.748L544.902 367.961C544.902 367.961 545.319 367.875 545.431 367.39C545.543 366.906 546.257 365.077 546.257 365.077C546.257 365.077 545.937 363.944 544.491 362.541C543.073 361.166 542.699 361.412 540.323 356.715C540.253 356.576 540.072 356.535 539.949 356.63L538.35 357.857C538.168 357.997 538.071 358.222 538.099 358.45C538.256 359.695 539.346 361.982 540.581 363.807C541.959 365.843 540.169 366.474 538.712 367.144C537.254 367.814 536.592 367.272 535.912 365.675C535.232 364.079 534.056 360.196 533.22 359.766C532.82 359.561 532.365 359.589 531.999 359.674C531.876 359.702 531.764 359.736 531.665 359.771C531.463 359.843 531.358 360.063 531.43 360.265C532.007 361.854 532.278 369.53 526.809 373.517C521.994 377.09 523.395 378.36 524.371 378.858H524.373Z" fill="#353E4F"/>
<path d="M546.26 365.064C545.388 366.073 545.535 366.551 541.709 369.02C537.883 371.489 536.735 374.233 535.499 374.865C534.349 375.454 527.878 379.015 524.421 378.839C524.083 378.823 523.868 379.222 523.996 379.488L524.469 380.476C524.653 380.86 525.317 381.445 525.798 381.366C527.457 381.093 533.874 378.971 537.039 376.843C538.509 375.854 539.83 372.983 542.039 371.268L543.262 373.814C543.318 373.931 543.457 373.98 543.574 373.924L544.219 373.614L544.116 373.227L544.392 373.094L544.581 373.439L545.22 373.132L545.092 372.749L545.394 372.605L545.613 372.943L546.25 372.638L546.127 372.293L546.403 372.16L546.595 372.472L547.203 372.179L547.106 371.861L547.392 371.723L547.579 371.999L548.422 371.594L548.274 371.192L548.433 371.116L548.672 371.475C548.672 371.475 549.013 371.266 548.905 370.875C548.796 370.484 546.948 366.799 546.948 366.799C546.948 366.799 546.838 365.955 546.662 365.591C546.488 365.227 546.258 365.062 546.258 365.062L546.26 365.064Z" fill="#2A2A2A"/>
<path d="M498.532 369.183L504.324 366.177L504.715 360.946L505.046 356.496L498.849 354.57L498.663 363.128L498.532 369.183Z" fill="#F08462"/>
<path d="M498.531 369.184L504.324 366.176L504.713 360.945C502.433 362.13 501.1 363.477 498.661 363.127L498.529 369.183L498.531 369.184Z" fill="#E63841"/>
<path d="M504.357 365.242L498.533 365.109L498.07 374.405L504.521 374.288L505.147 373.897L504.357 365.242Z" fill="#1C1D1E"/>
<path d="M505.806 364.546C505.75 364.37 505.483 363.47 505.782 363.104C505.851 363.02 505.979 362.925 506.201 362.949C506.424 362.974 506.537 363.097 506.592 363.197C506.823 363.616 506.462 364.405 506.388 364.559L506.343 364.65L505.846 364.669L505.806 364.548V364.546ZM506.296 363.36C506.278 363.329 506.248 363.294 506.163 363.284C506.077 363.275 506.054 363.304 506.043 363.317C505.921 363.465 505.994 363.963 506.09 364.321H506.125C506.265 363.999 506.394 363.541 506.296 363.36Z" fill="#2A2A2A"/>
<path d="M482.952 378.324C483.632 379.181 485.359 379.978 486.891 379.978C488.424 379.976 494.276 379.585 494.276 379.585C494.276 379.585 500.512 378.179 500.641 378.125C500.769 378.071 503.113 377.537 503.113 377.537L506.156 376.965C506.156 376.965 506.571 377.06 506.874 376.668C507.177 376.273 508.589 374.908 508.589 374.908C508.589 374.908 508.769 373.743 508.04 371.867C507.324 370.026 506.882 370.096 506.676 364.836C506.67 364.68 506.524 364.568 506.371 364.603L504.408 365.053C504.184 365.104 504.002 365.268 503.933 365.486C503.558 366.684 503.596 369.217 503.959 371.391C504.365 373.816 502.474 373.643 500.869 373.646C499.265 373.65 498.889 372.879 498.935 371.146C498.981 369.411 499.53 365.391 498.947 364.652C498.669 364.299 498.244 364.134 497.876 364.059C497.752 364.034 497.636 364.018 497.532 364.009C497.319 363.99 497.13 364.147 497.113 364.361C496.975 366.045 494.025 373.137 487.393 374.484C481.526 375.728 482.272 377.466 482.952 378.325V378.324Z" fill="#353E4F"/>
<path d="M508.587 374.906C507.373 375.46 507.309 375.956 502.803 376.607C498.297 377.257 496.108 379.275 494.722 379.334C493.432 379.39 486.066 379.932 482.995 378.335C482.694 378.179 482.333 378.452 482.338 378.749L482.358 379.843C482.366 380.269 482.726 381.077 483.196 381.207C484.817 381.65 491.535 382.393 495.297 381.775C497.045 381.489 499.443 379.427 502.164 378.788L502.215 381.614C502.216 381.744 502.323 381.846 502.453 381.844L503.169 381.831L503.237 381.438L503.544 381.433L503.572 381.824L504.28 381.811L504.323 381.41L504.658 381.404L504.715 381.803L505.423 381.79L505.455 381.425L505.76 381.42L505.806 381.783L506.48 381.772L506.524 381.442L506.841 381.437L506.897 381.765L507.832 381.749L507.865 381.322L508.04 381.318L508.106 381.744C508.106 381.744 508.504 381.696 508.568 381.295C508.632 380.896 508.486 376.774 508.486 376.774C508.486 376.774 508.737 375.961 508.729 375.557C508.722 375.153 508.581 374.908 508.581 374.908L508.587 374.906Z" fill="#2A2A2A"/>
<path d="M487.014 262.58L497.905 359.017L498.01 359.957C498.059 360.394 498.431 360.726 498.871 360.726H505.345C505.8 360.726 506.177 360.372 506.21 359.917L506.275 358.936L509.472 311.801V241.185V231.996L508.138 231.794L505.802 231.441C502.203 231.15 495.142 231.09 489.837 234.229L488.086 242.534C487.374 245.91 486.931 249.347 486.761 252.8C486.602 256.056 486.684 259.327 487.009 262.578L487.014 262.58Z" fill="#3B314A"/>
<path d="M499.936 255.979C504.361 265.294 508.784 293.709 510.203 303.403C510.525 305.615 511.099 307.76 511.909 309.789L529.517 353.97L529.903 354.938C530.065 355.346 530.507 355.567 530.931 355.454L537.039 353.816C537.45 353.706 537.72 353.315 537.675 352.893C537.646 352.605 537.608 352.239 537.562 351.8C536.773 344.138 533.719 314.769 532.872 310.744C532.119 307.172 530.065 300.85 529.16 298.135C528.871 297.264 528.707 296.356 528.676 295.439C528.421 288.02 528.357 255.11 527.015 249.027C525.953 244.211 522.623 235.698 516.527 229.188L496.525 231.326C496.525 231.326 494.57 244.681 499.937 255.981L499.936 255.979Z" fill="#3B314A"/>
<path d="M483.617 148.832C483.149 151.013 482.83 153.239 482.823 155.511C482.823 156.647 482.905 157.795 483.157 158.943L483.206 159.159L483.257 159.356L483.359 159.75L483.566 160.539L483.991 162.112C484.279 163.159 484.578 164.204 484.88 165.244C485.181 166.284 485.491 167.32 485.774 168.355C486.051 169.392 486.316 170.43 486.405 171.487C486.444 172.014 486.436 172.546 486.36 173.075C486.285 173.604 486.148 174.128 485.976 174.639C486.204 174.15 486.4 173.64 486.538 173.11C486.676 172.579 486.746 172.029 486.768 171.477C486.799 170.371 486.648 169.277 486.485 168.202C486.318 167.126 486.125 166.06 485.943 164.996C485.759 163.931 485.582 162.868 485.412 161.804L485.168 160.207L484.941 158.625C484.816 157.644 484.831 156.62 484.923 155.599C485.11 153.552 485.588 151.505 486.206 149.508C486.75 147.767 487.41 146.058 488.169 144.404C481.386 162.909 493.788 193.65 501.642 193.509C506.825 193.415 512.462 196.138 516.985 199.052C517.039 199.269 517.093 199.486 517.144 199.704L517.338 200.559C517.412 200.849 517.473 201.142 517.561 201.429C517.719 202.008 517.923 202.574 518.159 203.128C518.398 203.68 518.68 204.216 519.025 204.71C519.37 205.205 519.779 205.658 520.252 206.033C520.722 206.409 521.266 206.691 521.839 206.857C522.413 207.017 523.019 207.067 523.597 206.954C523.014 207.023 522.423 206.925 521.88 206.729C521.338 206.527 520.844 206.218 520.427 205.827C519.582 205.048 519.028 204.01 518.66 202.931C518.476 202.389 518.324 201.835 518.215 201.27C518.151 200.991 518.115 200.703 518.066 200.421L517.946 199.685C522.552 202.783 525.784 205.886 525.784 205.886C528.48 202.027 526.623 196.345 526.623 196.345C530.338 200.133 527.147 204.878 527.147 204.878C548.253 192.597 536.737 179.476 536.737 179.476C545.93 184.758 537.78 196.561 537.78 196.561C537.78 196.561 547.264 197.55 551.621 187.575C551.938 186.851 552.171 186.146 552.339 185.459C552.362 186.218 552.318 186.984 552.212 187.743C552.112 188.502 551.938 189.252 551.725 189.993C551.623 190.366 551.493 190.729 551.368 191.096C551.302 191.278 551.23 191.457 551.161 191.638L551.056 191.909L550.941 192.177L550.709 192.712L550.456 193.238L550.33 193.501L550.193 193.76L549.921 194.278C549.728 194.618 549.538 194.96 549.336 195.295C549.127 195.627 548.932 195.965 548.71 196.289C546.99 198.914 544.908 201.304 542.686 203.544C545.017 201.418 547.223 199.128 549.098 196.555C549.339 196.238 549.554 195.903 549.783 195.577C550.004 195.247 550.216 194.909 550.43 194.572L550.734 194.056L550.887 193.798L551.03 193.535L551.315 193.008L551.582 192.469L551.715 192.2L551.838 191.925C551.918 191.741 552.004 191.559 552.081 191.373C552.229 190.999 552.383 190.626 552.51 190.243C552.773 189.481 552.994 188.699 553.142 187.897C553.446 186.299 553.499 184.631 553.224 183C553.009 181.7 552.589 180.435 552.009 179.251C550.188 174.205 545.151 171.252 545.151 171.252C550.322 173.908 551.458 176.547 551.458 176.547C552.937 170.302 553.22 165.096 549.714 161.327C550.374 161.675 551.021 162.043 551.641 162.453C551.994 162.684 552.332 162.934 552.663 163.192C552.986 163.458 553.305 163.732 553.597 164.033C553.888 164.334 554.169 164.646 554.414 164.986C554.478 165.068 554.539 165.153 554.596 165.242L554.77 165.503C554.876 165.684 554.989 165.861 555.081 166.05C555.474 166.793 555.738 167.601 555.901 168.429C556.065 169.259 556.126 170.108 556.114 170.958C556.095 172.66 555.797 174.35 555.406 176.011C555.842 174.363 556.188 172.678 556.256 170.962C556.292 170.107 556.256 169.242 556.109 168.391C555.966 167.542 555.718 166.703 555.334 165.924C555.244 165.725 555.132 165.539 555.028 165.349L554.856 165.073C554.8 164.979 554.739 164.891 554.675 164.802C554.43 164.442 554.149 164.109 553.855 163.788C553.561 163.468 553.239 163.175 552.912 162.891C552.579 162.614 552.237 162.347 551.882 162.101C550.711 161.283 549.459 160.609 548.199 159.969C546.282 158.501 543.328 156.745 539.861 154.956C539.418 154.728 538.979 154.493 538.544 154.253C537.305 153.22 536.178 152.063 535.201 150.788C534.696 150.131 534.215 149.423 533.73 148.725C533.351 148.174 532.975 147.621 532.6 147.067C534.458 147.624 536.326 148.107 538.176 148.607C540.246 149.168 542.303 149.75 544.269 150.542C546.231 151.33 548.107 152.354 549.666 153.777C550.06 154.125 550.418 154.514 550.785 154.904C551.14 155.3 551.493 155.7 551.82 156.119C552.482 156.952 553.078 157.839 553.56 158.787C554.044 159.734 554.401 160.747 554.598 161.799C554.696 162.324 554.756 162.858 554.802 163.394C554.826 163.662 554.848 163.931 554.882 164.197C554.918 164.463 554.968 164.733 555.066 164.983C554.979 164.728 554.943 164.46 554.92 164.192C554.897 163.925 554.889 163.657 554.877 163.387C554.856 162.85 554.821 162.31 554.747 161.772C554.598 160.7 554.282 159.647 553.834 158.654C553.387 157.66 552.819 156.726 552.185 155.842C551.869 155.398 551.531 154.973 551.186 154.552C550.834 154.141 550.481 153.719 550.087 153.335C549.31 152.556 548.439 151.874 547.517 151.275C547.056 150.977 546.582 150.698 546.101 150.437C545.618 150.179 545.127 149.936 544.631 149.706C542.641 148.795 540.574 148.107 538.523 147.443C536.467 146.783 534.419 146.152 532.416 145.428C532.002 145.278 531.59 145.122 531.181 144.963C529.638 142.681 528.079 140.399 526.362 138.206C525.296 136.847 524.169 135.521 522.932 134.282C521.695 133.045 520.343 131.89 518.83 130.928C517.322 129.967 515.639 129.209 513.853 128.8C512.069 128.385 510.201 128.329 508.399 128.582C506.595 128.832 504.854 129.361 503.213 130.06C502.189 130.489 501.205 130.985 500.247 131.522C499.805 131.118 499.281 130.739 498.652 130.448C498.228 130.253 497.763 130.103 497.284 130.023C496.804 129.94 496.318 129.934 495.859 129.982C494.936 130.08 494.149 130.395 493.494 130.759C492.835 131.127 492.286 131.549 491.796 131.989C491.307 132.429 490.876 132.889 490.479 133.359C489.687 134.299 489.027 135.273 488.43 136.265C487.244 138.252 486.309 140.308 485.518 142.406C484.731 144.504 484.093 146.647 483.618 148.828L483.617 148.832ZM535.102 152.203C531.545 149.913 528.253 147.246 525.263 144.26C525.439 144.347 525.615 144.435 525.792 144.521C526.789 144.994 527.805 145.421 528.831 145.809C529.48 146.054 530.133 146.28 530.788 146.497C530.975 146.757 531.161 147.015 531.348 147.274C531.848 147.967 532.35 148.659 532.858 149.349C533.369 150.037 533.868 150.726 534.422 151.409C534.642 151.68 534.871 151.943 535.102 152.203ZM508.159 130.77C508.343 130.732 508.527 130.696 508.713 130.665C510.284 130.395 511.885 130.394 513.439 130.704C514.994 131.01 516.494 131.624 517.888 132.452C519.286 133.28 520.581 134.314 521.792 135.452C523.003 136.592 524.133 137.838 525.214 139.131C526.541 140.722 527.795 142.387 529.03 144.076C528.207 143.709 527.399 143.318 526.609 142.898C524.762 141.907 523.021 140.75 521.447 139.403C520.688 138.756 519.968 138.068 519.286 137.343C519.211 137.241 519.135 137.141 519.06 137.039C518.531 136.32 517.928 135.607 517.248 134.908C517.241 134.899 517.233 134.889 517.226 134.879L517.223 134.882C517.11 134.767 516.996 134.652 516.88 134.537C513.702 131.432 510.525 130.717 508.159 130.768V130.77Z" fill="#2F353C"/>
<path d="M487.128 154.705C487.128 154.705 487.09 160.732 488.158 162.303C488.869 163.349 493.702 162.372 493.848 162.344H493.852C493.852 162.344 494.225 163.021 494.538 164.057C495.043 165.713 495.406 168.293 493.885 170.504C493.351 171.279 492.081 172.226 492.059 172.636L490.706 181.225L489.745 189.702C492.355 181.887 507.146 167.892 507.151 167.884C506.908 167.647 501.161 155.623 503.796 154.509C507.425 152.976 507.512 149.563 505.39 147.93C504.12 146.954 503.103 147.632 502.444 148.304C502.036 148.715 501.767 149.126 501.655 149.145C501.645 149.149 501.636 149.145 501.627 149.142C491.176 142.127 491.563 140.087 491.621 139.914C490.839 141.503 490.426 142.686 490.147 143.748C489.768 145.188 489.636 146.402 489.178 148.094C488.401 150.966 486.84 152.291 485.665 153.53C485.593 153.607 485.559 153.714 485.58 153.818C485.633 154.071 485.909 154.499 487.128 154.708V154.705Z" fill="#F08462"/>
<path d="M429.398 202.036C429.094 202.281 428.989 202.66 429.125 203.009L429.421 203.759C429.653 204.346 430.173 204.819 430.837 205.057C430.906 205.082 430.977 205.105 431.051 205.125L433.553 205.797L437.448 206.845L441.29 207.339L443.866 203.626L441.23 202.442L441.131 202.398L439.229 198.966C438.981 198.517 438.534 198.167 437.988 197.993L435.693 197.262C434.719 196.952 433.664 196.906 432.69 197.142C432.649 197.152 431.961 197.658 432.163 198.014C432.312 198.277 432.519 198.527 432.795 198.589L431.667 198.346C431.645 198.341 431.614 198.338 431.578 198.335C430.954 198.295 430.451 198.76 430.569 199.286C430.589 199.37 430.622 199.442 430.674 199.488L430.916 199.695L430.231 199.705C429.855 199.708 429.526 199.902 429.395 200.198L429.319 200.37C429.188 200.664 429.275 201.001 429.539 201.234L429.948 201.593L429.396 202.036H429.398Z" fill="#F08462"/>
<path d="M438.703 207.009L441.262 207.928L443.864 203.63L441.228 202.445C438.177 203.42 439.907 205.585 438.703 207.009Z" fill="#E63841"/>
<path d="M433.964 202.261C436.179 202.767 434.782 201.129 434.782 201.129C435.791 201.311 435.819 200.855 435.671 200.449C435.088 199.659 434.189 198.939 432.798 198.586L435.55 199.03C436.614 199.2 437.35 200.138 437.212 201.144C437.153 201.571 437.721 202.435 437.649 202.851C437.562 203.347 436.833 203.381 436.739 203.669C436.443 204.748 433.673 205.391 433.673 205.391C434.273 205.115 433.558 203.713 433.558 203.713C435.867 203.894 433.964 202.263 433.964 202.263V202.261Z" fill="#E63841"/>
<path d="M430.837 205.062C430.906 205.087 430.977 205.11 431.05 205.13L433.553 205.802L433.674 205.398C433.674 205.398 431.964 205.273 430.837 205.062Z" fill="#E63841"/>
<path d="M440.479 207.087C440.193 207.599 440.369 208.243 440.875 208.541C445.694 211.37 468.192 224.514 471.615 225.459C474.122 226.15 477.69 222.914 481.764 217.297C482.204 216.689 482.651 216.053 483.105 215.39C484.867 212.809 486.711 209.833 488.59 206.581C491.567 201.429 487.913 199.96 486.586 196.245C485.901 194.327 485.485 192.158 485.232 190.247C484.853 187.381 484.838 185.094 484.838 185.094C484.838 185.094 483.683 187.479 482.037 190.84C482.019 190.875 482.002 190.911 481.986 190.946C480.379 194.223 478.316 198.407 476.402 202.206C475.74 203.52 475.094 204.788 474.494 205.956C472.617 209.607 471.156 212.288 470.875 212.382C469.996 212.671 453.238 206.517 443.67 202.768C443.302 202.623 442.884 202.774 442.691 203.119L440.481 207.087H440.479Z" fill="#FFC879"/>
<path d="M516.143 240.6C516.82 240.6 517.468 240.55 518.062 240.471L517.964 239.723C514.397 240.193 511.611 239.377 509.687 237.298C508.619 236.145 508.123 234.898 507.936 234.321C507.877 234.137 507.684 234.029 507.495 234.072C507.279 234.119 507.149 234.343 507.218 234.555C507.425 235.2 507.957 236.528 509.109 237.783C511.136 239.993 513.812 240.6 516.143 240.6Z" fill="#DBAC16"/>
<path d="M480.359 200.466C480.369 200.565 480.382 200.662 480.393 200.759C480.405 200.854 480.42 200.949 480.434 201.041C480.446 201.124 480.462 201.203 480.475 201.283C480.48 201.313 480.485 201.345 480.494 201.375C480.503 201.439 480.516 201.505 480.53 201.567C480.533 201.577 480.535 201.59 480.538 201.6C480.548 201.654 480.561 201.708 480.572 201.761C480.582 201.812 480.597 201.863 480.609 201.914C480.645 202.063 480.684 202.211 480.727 202.354C480.75 202.435 480.773 202.513 480.799 202.592C480.876 202.835 480.96 203.069 481.052 203.296C481.075 203.356 481.098 203.414 481.124 203.471C481.159 203.557 481.197 203.645 481.236 203.729C481.267 203.801 481.302 203.874 481.336 203.943C481.404 204.086 481.474 204.225 481.547 204.365C481.665 204.593 481.788 204.815 481.915 205.034C482.299 205.696 482.721 206.336 483.15 207.017C483.262 207.194 483.373 207.373 483.485 207.557C483.559 207.677 483.635 207.803 483.709 207.928C483.783 208.053 483.856 208.181 483.93 208.311C483.963 208.37 483.994 208.429 484.029 208.487C484.265 208.916 484.497 209.369 484.719 209.859C484.752 209.931 484.785 210.005 484.819 210.079C484.891 210.245 484.962 210.416 485.031 210.59C485.061 210.664 485.09 210.739 485.12 210.815C485.156 210.913 485.194 211.01 485.228 211.109C485.259 211.194 485.291 211.28 485.319 211.365C485.384 211.552 485.448 211.743 485.509 211.94C485.539 212.037 485.568 212.132 485.598 212.233C485.618 212.3 485.637 212.371 485.657 212.443C485.672 212.497 485.688 212.553 485.703 212.609C485.729 212.707 485.756 212.806 485.782 212.908C485.802 212.99 485.823 213.072 485.843 213.156C485.862 213.236 485.882 213.317 485.9 213.399C485.943 213.586 485.984 213.777 486.022 213.974C486.081 214.263 486.137 214.562 486.186 214.873C487.446 222.693 487.653 225.702 487.088 228.569C486.523 231.436 486.201 233.105 488.677 233.122L488.757 234.929C492.348 232.589 499.398 229.407 509.367 230.087C510.334 230.153 512.649 231.214 513.679 231.357L514.253 229.87C514.303 229.543 514.326 229.164 514.292 228.733C514.292 228.733 514.583 228.415 514.992 227.95L514.998 227.942C515.782 227.05 516.988 225.624 517.362 224.892C517.931 223.79 516.331 220.189 515.917 217.056C515.912 217.028 515.907 216.995 515.905 216.967C515.889 216.829 515.869 216.665 515.846 216.473C515.84 216.397 515.83 216.318 515.821 216.233C515.812 216.134 515.8 216.033 515.79 215.924C515.749 215.52 515.708 215.048 515.664 214.518C515.644 214.268 515.621 214.004 515.603 213.726C515.593 213.614 515.587 213.501 515.577 213.388C515.567 213.233 515.555 213.074 515.545 212.913C515.541 212.832 515.534 212.752 515.529 212.668V212.661C515.499 212.183 515.47 211.679 515.444 211.152C515.437 211.017 515.432 210.882 515.424 210.744C515.417 210.616 515.412 210.485 515.406 210.352C515.391 210.007 515.378 209.653 515.365 209.294C515.347 208.774 515.332 208.242 515.319 207.697C515.319 207.596 515.315 207.495 515.312 207.394C515.309 207.189 515.307 206.982 515.302 206.772C515.302 206.695 515.302 206.617 515.299 206.538C515.296 206.07 515.294 205.595 515.296 205.116C515.296 204.956 515.296 204.795 515.299 204.633C515.307 204.022 515.317 203.404 515.337 202.786C515.34 202.666 515.343 202.543 515.347 202.423C515.368 201.815 515.396 201.209 515.43 200.603C515.445 200.363 515.46 200.122 515.476 199.882C515.483 199.804 515.488 199.727 515.493 199.653C515.499 199.551 515.508 199.448 515.516 199.346C515.541 199.045 515.565 198.743 515.593 198.444C515.605 198.326 515.616 198.208 515.628 198.088C515.665 197.715 515.705 197.347 515.749 196.98C515.761 196.88 515.774 196.782 515.787 196.683C515.798 196.588 515.812 196.494 515.823 196.402C515.84 196.279 515.856 196.156 515.874 196.036C515.884 195.972 515.892 195.909 515.902 195.847C515.918 195.732 515.935 195.618 515.955 195.503C516.007 195.16 516.065 194.82 516.127 194.488C516.148 194.372 516.171 194.257 516.193 194.142C516.216 194.027 516.239 193.913 516.26 193.801C516.29 193.654 516.323 193.506 516.355 193.361C516.37 193.292 516.385 193.225 516.401 193.154C516.416 193.09 516.431 193.028 516.447 192.965C516.464 192.893 516.48 192.822 516.5 192.752C516.553 192.532 516.61 192.315 516.668 192.104C516.686 192.04 516.702 191.981 516.72 191.919C516.732 191.873 516.746 191.827 516.76 191.782C516.779 191.713 516.801 191.644 516.822 191.574C517.063 190.777 517.339 190.038 517.655 189.374L519.961 172.696C517.816 171.626 515.812 170.921 514.348 170.486C514.257 170.458 514.165 170.432 514.08 170.406C514.037 170.396 513.998 170.383 513.958 170.371C513.865 170.343 513.773 170.32 513.686 170.295C513.508 170.248 513.344 170.202 513.191 170.162C513.157 170.153 513.119 170.144 513.086 170.134C512.938 170.098 512.804 170.064 512.684 170.036C512.639 170.026 512.6 170.015 512.56 170.008C512.463 169.985 512.38 169.967 512.307 169.95C512.276 169.944 512.243 169.937 512.219 169.932C512.183 169.924 512.151 169.918 512.125 169.911C512.099 169.906 512.076 169.901 512.058 169.898C512.026 169.893 512.008 169.888 512.002 169.888C512.002 169.888 511.877 169.556 511.663 169.078C502.693 176.653 489.7 189.883 487.495 194.56L488.887 178.784C488.323 179.284 487.842 179.689 487.533 179.965C487.51 179.985 487.49 180.005 487.469 180.023C487.412 180.075 487.362 180.123 487.32 180.164C487.306 180.177 487.292 180.19 487.28 180.204C487.259 180.225 487.241 180.245 487.226 180.263C487.218 180.271 487.213 180.279 487.205 180.291C487.196 180.3 487.19 180.309 487.182 180.32C487.136 180.384 487.073 180.488 486.993 180.627C486.978 180.654 486.961 180.682 486.945 180.711C486.93 180.739 486.912 180.772 486.896 180.802C486.86 180.866 486.822 180.935 486.782 181.01C486.782 181.01 486.779 181.013 486.779 181.017C486.759 181.051 486.741 181.086 486.722 181.124C486.676 181.207 486.63 181.298 486.58 181.391C486.519 181.51 486.455 181.634 486.388 181.766C486.324 181.896 486.255 182.03 486.184 182.173C486.152 182.242 486.115 182.313 486.081 182.384C486.041 182.462 486.002 182.541 485.963 182.623C485.94 182.671 485.917 182.722 485.892 182.773C485.885 182.783 485.88 182.796 485.875 182.806C485.815 182.931 485.754 183.056 485.692 183.187C485.688 183.192 485.687 183.197 485.683 183.202C485.637 183.299 485.593 183.397 485.545 183.497C485.521 183.547 485.499 183.598 485.475 183.649C485.427 183.749 485.378 183.854 485.33 183.959C485.282 184.064 485.233 184.169 485.182 184.278C485.108 184.44 485.031 184.606 484.956 184.777C484.929 184.833 484.905 184.889 484.878 184.946C484.827 185.06 484.778 185.175 484.724 185.293C484.591 185.594 484.454 185.904 484.316 186.221C484.279 186.307 484.241 186.395 484.203 186.483C484.059 186.821 483.914 187.166 483.768 187.514C483.715 187.646 483.661 187.775 483.607 187.907C483.525 188.102 483.446 188.3 483.365 188.5C483.29 188.691 483.214 188.879 483.139 189.072C483.076 189.226 483.017 189.382 482.956 189.538C482.922 189.63 482.886 189.722 482.851 189.814C482.798 189.951 482.746 190.09 482.695 190.228C482.642 190.363 482.593 190.498 482.542 190.634C482.542 190.639 482.539 190.642 482.539 190.646C482.503 190.738 482.47 190.833 482.437 190.925C482.426 190.953 482.416 190.982 482.406 191.009C482.361 191.127 482.32 191.245 482.278 191.365C482.265 191.405 482.25 191.444 482.235 191.483C482.176 191.649 482.118 191.817 482.062 191.984C482.054 192.003 482.049 192.022 482.041 192.042C481.946 192.321 481.852 192.599 481.762 192.875C480.802 195.807 480.163 198.612 480.36 200.465L480.359 200.466Z" fill="#FFC879"/>
<g style="mix-blend-mode:multiply">
<path d="M488.67 233.114C488.67 233.114 494.448 226.748 501.826 226.275C509.198 225.801 516.412 226.222 516.425 226.224C516.829 225.711 517.18 225.225 517.353 224.888C517.921 223.786 516.321 220.184 515.907 217.052C515.902 217.024 515.899 216.991 515.896 216.963C515.879 216.825 515.86 216.661 515.837 216.468C515.83 216.393 515.82 216.314 515.812 216.228C515.802 216.13 515.791 216.028 515.781 215.92C515.74 215.515 515.699 215.044 515.654 214.513C515.635 214.264 515.612 213.999 515.593 213.721C515.584 213.61 515.577 213.496 515.567 213.383C515.557 213.227 515.546 213.069 515.536 212.908C515.531 212.828 515.524 212.747 515.519 212.663V212.657C515.49 212.179 515.46 211.674 515.434 211.147C515.428 211.012 515.423 210.878 515.414 210.74C515.408 210.612 515.403 210.48 515.396 210.347C515.381 210.002 515.368 209.649 515.355 209.289C510.772 210.165 497.208 212.682 486.012 213.968C486.071 214.257 486.127 214.556 486.176 214.867C487.437 222.687 487.644 225.696 487.078 228.563C486.513 231.43 486.191 233.099 488.667 233.115L488.748 234.923L488.667 233.114H488.67Z" fill="#E8E7E7"/>
</g>
<path d="M488.672 233.11L488.915 238.605C488.915 238.605 494.118 230.946 508.127 231.703C513.675 232.002 518.423 231.345 518.423 231.345C518.423 231.345 516.492 227.057 516.426 226.22C516.426 226.22 509.204 225.799 501.826 226.271C494.447 226.744 488.67 233.11 488.67 233.11H488.672Z" fill="#2F353C"/>
<path d="M514.389 231.695C515.594 233.468 518.985 239.236 519.923 249.16C520.857 259.057 521.828 289.333 522.103 298.377C522.14 299.637 522.308 300.897 522.599 302.123C526.064 309.94 528.797 318.128 530.724 326.458L536.64 352.043L535.913 352.24L529.992 326.629C528.074 318.335 525.351 310.181 521.897 302.399L521.876 302.333C521.567 301.047 521.391 299.723 521.35 298.402C521.076 289.364 520.105 259.106 519.173 249.233C518.171 238.627 514.22 232.74 513.494 231.736C513.803 231.725 514.102 231.71 514.389 231.695Z" fill="#DBAC16"/>
<g style="mix-blend-mode:multiply">
<path d="M515.524 212.663V212.658C515.117 206.246 514.95 195.052 517.652 189.374C517.652 189.374 514.572 187.475 513.617 185.906C513.617 185.906 509.055 195.499 515.524 212.665V212.663Z" fill="#E8E7E7"/>
</g>
<g style="mix-blend-mode:multiply">
<path d="M491.345 195.083C497.563 185.811 508.153 174.311 511.997 169.888C511.997 169.888 511.872 169.556 511.659 169.078C502.69 176.653 489.695 189.883 487.491 194.56L488.88 178.784C488.061 179.51 487.417 180.038 487.221 180.263C487.042 180.468 487.177 187.843 487.318 193.912C487.367 196.059 490.147 196.865 491.345 195.081V195.083Z" fill="#E8E7E7"/>
</g>
<g style="mix-blend-mode:multiply">
<path d="M497.229 206.438C497.229 206.438 509.883 206.653 511.646 193.562C511.646 193.562 514.493 208.953 497.229 206.438Z" fill="#E8E7E7"/>
</g>
<g style="mix-blend-mode:multiply">
<path d="M481.543 204.367C482.013 205.272 482.573 206.11 483.147 207.019C483.741 206.753 484.788 206.219 485.304 205.573C485.304 205.573 482.88 205.772 481.542 204.367H481.543Z" fill="#E8E7E7"/>
</g>
<path d="M505.29 226.96L502.746 232.556C502.384 233.35 501.449 233.699 500.656 233.34L419.975 196.642C419.182 196.28 418.832 195.345 419.192 194.552L421.737 188.956C422.098 188.163 423.033 187.813 423.826 188.173L504.507 224.871C505.3 225.232 505.65 226.167 505.29 226.96Z" fill="#262F3A"/>
<path d="M415.227 186.012L412.695 191.578L419.215 194.544L421.747 188.978L415.227 186.012Z" fill="#3C4349"/>
<path d="M416.429 158.107C415.726 156.271 414.891 154.483 413.928 152.765C412.571 150.337 410.965 148.042 409.121 145.922C405.916 142.231 401.996 139.073 397.454 136.678C396.752 136.308 396.038 135.957 395.307 135.625C374.891 126.339 350.728 135.393 341.444 155.807C336.032 167.702 336.849 180.867 342.51 191.623C344.815 196 347.922 199.977 351.737 203.307C353.81 205.118 356.093 206.736 358.572 208.122C359.561 208.678 360.58 209.194 361.63 209.67C362.387 210.013 363.148 210.334 363.913 210.626C383.815 218.269 406.55 209.146 415.494 189.487C420.179 179.182 420.194 167.925 416.434 158.107H416.429ZM412.433 188.098C404.443 205.668 384.438 214.066 366.529 208.006C365.346 207.608 364.173 207.143 363.013 206.616C362.343 206.312 361.686 205.988 361.043 205.648C358.517 204.318 356.2 202.729 354.114 200.928C350.263 197.613 347.189 193.58 345.001 189.131C340.24 179.44 339.686 167.771 344.496 157.197C353.016 138.467 375.187 130.159 393.917 138.679C394.268 138.838 394.615 139.003 394.958 139.173C399.596 141.454 403.559 144.588 406.743 148.299C408.578 150.438 410.156 152.766 411.456 155.236C412.384 157 413.173 158.838 413.808 160.726C416.736 169.389 416.511 179.138 412.433 188.098Z" fill="#262F3A"/>
<path d="M490.145 143.739C493.163 145.487 498.929 148.671 501.625 149.135C490.957 141.975 491.581 139.997 491.622 139.898C490.838 141.49 490.424 142.677 490.145 143.741V143.739Z" fill="#E63841"/>
<g style="mix-blend-mode:multiply">
<path d="M480.359 200.464C480.525 202.04 480.967 203.251 481.543 204.361C482.013 205.268 482.573 206.104 483.147 207.014C484.333 208.899 485.571 211.095 486.179 214.866C486.373 216.065 486.541 217.149 486.685 218.138C486.465 218.623 486.245 219.098 486.025 219.561C484.453 217.052 481.295 212.258 477.351 207.581L480.587 197.266C480.359 198.488 480.262 199.584 480.355 200.464H480.359Z" fill="#E8E7E7"/>
</g>
<path d="M485.657 218.77L483.851 217.323C483.349 216.919 482.787 216.595 482.187 216.36L481.799 216.209C480.889 215.853 479.915 215.685 478.937 215.724C478.047 215.761 477.137 215.905 477.122 216.349C477.094 217.221 478.727 217.334 479.263 217.362C479.798 217.39 480.501 217.84 480.501 217.84C480.501 217.84 479.572 218.348 476.644 218.432C473.715 218.516 472.532 217.982 472.532 217.982C472.532 217.982 471.63 217.729 471.63 218.376C471.63 219.023 471.855 219.643 474.193 219.897C475.862 220.078 476.628 220.058 476.927 220.032C477.022 220.024 477.107 220.088 477.125 220.181V220.188C477.148 220.301 477.065 220.407 476.95 220.408C476.207 220.423 473.807 220.467 473.348 220.403C472.805 220.328 471.748 219.723 471.28 219.859C470.812 219.996 470.57 220.508 471.024 220.947C471.265 221.182 471.819 221.41 472.425 221.589H472.417C472.417 221.589 472.18 222.761 473.316 223.224C474.451 223.687 474.618 223.707 474.618 223.707C474.633 224.164 474.876 224.583 475.267 224.818C475.803 225.138 476.708 225.49 478.083 225.47C480.584 225.432 484.863 223.804 484.863 223.804L490.769 223.725V218.774H485.653L485.657 218.77ZM475.445 223.945L477.143 224.037C477.26 224.044 477.352 224.141 477.352 224.257C477.352 224.257 476.518 224.33 475.445 223.945ZM477.201 222.353H475.414C474.894 222.353 474.387 222.201 473.953 221.911C474.73 221.998 476.593 221.994 477.199 221.989C477.304 221.989 477.388 222.077 477.382 222.182C477.375 222.278 477.296 222.353 477.199 222.353H477.201Z" fill="#F08462"/>
<path d="M519.957 172.693C526.548 173.523 532.489 192.667 528.986 219.06C528.646 221.617 526.515 223.561 523.938 223.684L490.616 225.288C490.376 225.299 490.179 225.099 490.195 224.859L490.682 217.706C490.695 217.52 490.833 217.367 491.015 217.336L518.423 212.661C518.423 212.661 507.518 171.126 519.957 172.692V172.693Z" fill="#FFC879"/>
<path d="M529.513 353.967L529.899 354.935C530.062 355.342 530.504 355.564 530.928 355.451L537.036 353.813C537.447 353.703 537.716 353.312 537.672 352.889C537.642 352.602 537.604 352.236 537.558 351.797L529.513 353.969V353.967Z" fill="#2F353C"/>
<path d="M497.903 359.01L498.008 359.95C498.058 360.387 498.429 360.719 498.869 360.719H505.344C505.799 360.719 506.175 360.366 506.208 359.91L506.274 358.93L497.903 359.012V359.01Z" fill="#2F353C"/>
<path d="M493.849 162.34C493.849 162.34 494.222 163.017 494.536 164.054C498.719 162.165 499.535 158.823 499.563 158.703C497.642 161.069 493.849 162.34 493.849 162.34Z" fill="#E63841"/>
<path d="M490.624 170.799C491.986 168.17 494.085 168.047 494.675 168.86C494.502 169.412 494.248 169.962 493.885 170.49C493.351 171.265 492.081 172.212 492.06 172.622L490.167 187.28C494.125 180.051 506.444 166.473 506.444 166.473C506.635 166.742 507.892 165.206 509.254 165.712C510.205 166.066 511.168 167.96 511.659 169.07C511.872 169.548 511.997 169.88 511.997 169.88C504.346 173.414 487.491 194.553 487.491 194.553C487.491 194.553 489.002 177.707 489.04 177.474C489.209 176.407 489.74 172.504 490.625 170.799H490.624Z" fill="#F0F8FC"/>
<path d="M431.559 199.933C431.135 199.776 430.685 199.698 430.231 199.703C429.855 199.707 429.527 199.9 429.395 200.196L429.32 200.369C429.188 200.663 429.275 201 429.54 201.233L429.949 201.591L429.397 202.035C429.093 202.279 428.988 202.659 429.124 203.007L429.42 203.758C429.675 204.405 430.286 204.916 431.05 205.123H433.887C434.483 204.845 433.558 203.714 433.558 203.714C435.866 203.894 433.964 202.263 433.964 202.263C435.229 202.552 435.316 202.141 435.157 201.736C435.017 201.377 434.716 201.106 434.357 200.972L431.559 199.932V199.933Z" fill="#F08462"/>
</g>
</g>
<defs>
<clipPath id="clip0_2079_52899">
<rect width="579" height="450" fill="white"/>
</clipPath>
<clipPath id="clip1_2079_52899">
<rect width="533.545" height="288.004" fill="white" transform="translate(22.7275 94)"/>
</clipPath>
</defs>
</svg>
