<svg width="41" height="40" viewBox="0 0 41 40" fill="none" xmlns="http://www.w3.org/2000/svg">
<path fill-rule="evenodd" clip-rule="evenodd" d="M9.11118 26.7467L8.80411 26.2172C8.33036 25.3978 8.61342 24.3445 9.4313 23.8708C10.6544 23.1632 11.4157 21.8477 11.4157 20.4354C11.4157 19.0231 10.6544 17.7062 9.43427 17C8.61193 16.5218 8.32887 15.4626 8.7907 14.6611L9.79927 13.003C10.2745 12.1762 11.3352 11.8916 12.1471 12.3535C12.7252 12.6991 13.3911 12.8853 14.0823 12.8928C16.238 12.8928 18.0183 11.1393 18.0496 8.96128C18.0466 8.49945 18.2239 8.06593 18.5486 7.73967C18.8749 7.4149 19.3069 7.23464 19.7687 7.23464H21.6354C22.1017 7.23464 22.5561 7.42384 22.8794 7.75755C23.2041 8.09274 23.3829 8.5501 23.3695 9.0596C23.3755 9.73744 23.5617 10.4034 23.9043 10.9754C24.4391 11.8901 25.2972 12.5382 26.3207 12.8034C27.3457 13.073 28.4123 12.9211 29.3092 12.3907C30.139 11.9185 31.1967 12.203 31.6719 13.0298L32.5449 14.5434C32.5598 14.5792 32.5777 14.6134 32.5971 14.6462C33.0664 15.4686 32.7833 16.5248 31.9758 16.997C31.374 17.3427 30.8719 17.8447 30.5293 18.4406C30.0034 19.3449 29.8559 20.4429 30.1256 21.4485C30.3982 22.4734 31.0552 23.3285 31.9758 23.8589C32.3691 24.0838 32.6611 24.4652 32.7773 24.9047C32.895 25.3442 32.831 25.8209 32.6105 26.2008L32.481 26.4166L33.9469 28.3169L34.534 27.339C35.0599 26.4347 35.2074 25.3382 34.9378 24.3282C34.6681 23.3166 33.9933 22.4406 33.089 21.9207C32.6882 21.6913 32.4037 21.3203 32.2845 20.8734C32.1683 20.4354 32.2324 19.9587 32.4633 19.5579C32.6123 19.2987 32.8283 19.0842 33.0949 18.9308C34.9273 17.8596 35.5858 15.5132 34.5996 13.6496C34.5817 13.6064 34.5609 13.5646 34.537 13.5214L33.6089 11.914C32.5199 10.022 30.0931 9.36947 28.1862 10.4585C27.7914 10.6924 27.3266 10.752 26.8826 10.6417C26.4387 10.5255 26.0648 10.2425 25.8279 9.84023C25.6849 9.5974 25.6059 9.32031 25.6029 9.08046C25.6342 8.01528 25.2245 6.965 24.4826 6.19926C23.7392 5.43799 22.7024 5 21.6357 5H19.769C18.7098 5 17.7146 5.41266 16.9653 6.1635C16.2189 6.91583 15.8092 7.91248 15.8152 8.95085C15.8003 9.89238 15.0241 10.6581 14.096 10.6581C13.8115 10.6551 13.5314 10.5777 13.2737 10.4242C11.3802 9.3367 8.95187 9.99517 7.87775 11.8633L6.8677 13.5214C5.78017 15.4105 6.42673 17.8373 8.31425 18.9337C8.84908 19.2421 9.18129 19.8187 9.18129 20.4354C9.18129 21.0522 8.84908 21.6272 8.31425 21.9356C6.42822 23.0261 5.78017 25.447 6.86919 27.336L7.59943 28.5943L9.11118 26.7467Z" fill="url(#paint0_linear_3001_7695)"/>
<path fill-rule="evenodd" clip-rule="evenodd" d="M23.9092 17.8469C22.8067 15.9192 20.0271 15.9177 18.9231 17.8454L11.3234 31.1117C10.2279 33.0267 11.6103 35.4116 13.817 35.4116H29.0024C31.2073 35.4116 32.5917 33.0283 31.496 31.1128L23.9092 17.8469ZM22.1035 24.0288C22.1035 23.644 21.7915 23.332 21.4067 23.332C21.0219 23.332 20.7099 23.644 20.7099 24.0288V27.3018C20.7099 27.6866 21.0219 27.9986 21.4067 27.9986C21.7915 27.9986 22.1035 27.6866 22.1035 27.3018V24.0288ZM20.7021 30.5586C20.7021 30.1737 21.0141 29.8618 21.399 29.8618H21.4095C21.7944 29.8618 22.1063 30.1737 22.1063 30.5586C22.1063 30.9434 21.7944 31.2554 21.4095 31.2554H21.399C21.0141 31.2554 20.7021 30.9434 20.7021 30.5586Z" fill="url(#paint1_linear_3001_7695)"/>
<defs>
<linearGradient id="paint0_linear_3001_7695" x1="9.77002" y1="10.3999" x2="36.3113" y2="20.0856" gradientUnits="userSpaceOnUse">
<stop stop-color="#DB8016"/>
<stop offset="1" stop-color="#DBAC16"/>
</linearGradient>
<linearGradient id="paint1_linear_3001_7695" x1="15.0686" y1="19.1561" x2="34.2462" y2="25.2622" gradientUnits="userSpaceOnUse">
<stop stop-color="#DB8016"/>
<stop offset="1" stop-color="#DBAC16"/>
</linearGradient>
</defs>
</svg>
