<svg width="112" height="72" viewBox="0 0 112 72" fill="none" xmlns="http://www.w3.org/2000/svg">
<path fill-rule="evenodd" clip-rule="evenodd" d="M16.8282 7.84849C17.9483 7.84849 18.8563 6.94045 18.8563 5.82034C18.8563 4.70022 17.9483 3.79219 16.8282 3.79219C15.708 3.79219 14.8 4.70022 14.8 5.82034C14.8 6.94045 15.708 7.84849 16.8282 7.84849ZM20.099 7.81042C20.4526 7.23052 20.6563 6.54922 20.6563 5.82034C20.6563 3.70611 18.9424 1.99219 16.8282 1.99219C14.7139 1.99219 13 3.70611 13 5.82034C13 7.93457 14.7139 9.64849 16.8282 9.64849C17.5607 9.64849 18.2453 9.4427 18.8271 9.08578L23.7065 13.6079H14.4766C13.9795 13.6079 13.5766 14.0109 13.5766 14.5079C13.5766 15.005 13.9795 15.4079 14.4766 15.4079H30.6073L27.8456 18.1695C27.2992 17.8691 26.6715 17.6982 26.0039 17.6982C23.8897 17.6982 22.1758 19.4122 22.1758 21.5264C22.1758 23.6406 23.8897 25.3545 26.0039 25.3545C28.1182 25.3545 29.8321 23.6406 29.8321 21.5264C29.8321 20.7326 29.5905 19.9953 29.1768 19.3839L33.1528 15.4079H36.7314C32.123 20.169 29.2392 26.6093 29.0868 33.7222L22.3313 39.3384C21.7189 38.9226 20.9796 38.6797 20.1836 38.6797C18.0694 38.6797 16.3555 40.3936 16.3555 42.5078C16.3555 44.6221 18.0694 46.336 20.1836 46.336C22.2978 46.336 24.0118 44.6221 24.0118 42.5078C24.0118 41.8424 23.842 41.2167 23.5434 40.6715L30.1183 35.2054C30.5499 35.1391 30.8805 34.7661 30.8805 34.3159C30.8805 20.2937 42.2477 8.92646 56.2699 8.92646C56.3059 8.92646 56.3415 8.92435 56.3764 8.92023C56.779 10.6033 58.2932 11.8545 60.0996 11.8545C62.2139 11.8545 63.9278 10.1406 63.9278 8.02639C63.9278 5.91216 62.2139 4.19824 60.0996 4.19824C58.2931 4.19824 56.7789 5.44954 56.3764 7.13269C56.3415 7.12858 56.3059 7.12646 56.2699 7.12646C49.5477 7.12646 43.3953 9.56594 38.6497 13.6079H26.3545L20.099 7.81042ZM20.1836 40.4797C20.4605 40.4797 20.7244 40.5352 20.9648 40.6356L22.0363 41.9244L22.1078 41.865C22.1752 42.067 22.2118 42.2832 22.2118 42.5078C22.2118 43.628 21.3037 44.536 20.1836 44.536C19.0635 44.536 18.1555 43.628 18.1555 42.5078C18.1555 41.3877 19.0635 40.4797 20.1836 40.4797ZM94.2123 22.7425C94.6877 22.8876 94.9556 23.3906 94.8105 23.866L92.648 30.9541L103.014 28.453C103.497 28.3365 103.983 28.6337 104.1 29.1168C104.216 29.6 103.919 30.0863 103.436 30.2028L98.465 31.4022L103.619 33.7386C104.071 33.9438 104.272 34.4772 104.067 34.9299C103.861 35.3826 103.328 35.5832 102.875 35.378L96.8376 32.6408C96.5381 32.505 96.3489 32.2257 96.3146 31.9211L83.4506 35.0249C83.4148 36.4724 83.2697 37.8916 83.023 39.2739H90.0125C90.5095 39.2739 90.9125 39.6769 90.9125 40.1739C90.9125 40.671 90.5095 41.0739 90.0125 41.0739H82.6396C79.7873 52.5709 69.7937 61.1193 57.4382 61.4479C57.0216 63.1111 55.517 64.3428 53.7246 64.3428C51.6104 64.3428 49.8965 62.6289 49.8965 60.5147C49.8965 58.4004 51.6104 56.6865 53.7246 56.6865C55.5403 56.6865 57.0608 57.9506 57.454 59.6467C71.0959 59.2491 81.6594 48.1022 81.6594 34.3159C81.6594 34.138 81.711 33.9722 81.8 33.8326C81.9207 33.6419 82.1128 33.496 82.3494 33.4389L90.9012 31.3756C90.7991 31.1752 90.7715 30.9365 90.8423 30.7043L93.0889 23.3407C93.2339 22.8653 93.7369 22.5975 94.2123 22.7425ZM26.0039 23.5545C27.124 23.5545 28.0321 22.6465 28.0321 21.5264C28.0321 20.4063 27.124 19.4982 26.0039 19.4982C24.8838 19.4982 23.9758 20.4063 23.9758 21.5264C23.9758 22.6465 24.8838 23.5545 26.0039 23.5545ZM62.1278 8.02639C62.1278 9.14651 61.2197 10.0545 60.0996 10.0545C58.9795 10.0545 58.0715 9.14651 58.0715 8.02639C58.0715 6.90628 58.9795 5.99824 60.0996 5.99824C61.2197 5.99824 62.1278 6.90628 62.1278 8.02639ZM53.7246 62.5428C54.8447 62.5428 55.7528 61.6348 55.7528 60.5147C55.7528 59.3946 54.8447 58.4865 53.7246 58.4865C52.6045 58.4865 51.6965 59.3946 51.6965 60.5147C51.6965 61.6348 52.6045 62.5428 53.7246 62.5428Z" fill="url(#paint0_linear_1346_27169)"/>
<path fill-rule="evenodd" clip-rule="evenodd" d="M63.6441 21.9277C63.3912 22.3643 62.835 22.5095 62.4033 22.2602C61.9686 22.0093 61.8196 21.454 62.0708 21.0195L62.979 19.446C63.2299 19.0125 63.786 18.8635 64.2197 19.1134C64.6544 19.3644 64.8034 19.9197 64.5523 20.3542L63.6441 21.9277ZM49.356 21.9278C49.6088 22.3644 50.1651 22.5096 50.5967 22.2603C51.0314 22.0092 51.1804 21.4541 50.9292 21.0196L50.021 19.4461C49.7701 19.0126 49.2122 18.8633 48.7803 19.1135C48.3456 19.3645 48.1966 19.9198 48.4478 20.3543L49.356 21.9278ZM45.9429 25.5313L44.3694 24.6231C43.9349 24.3719 43.3796 24.5209 43.1286 24.9556C42.8777 25.3903 43.0267 25.9454 43.4612 26.1963L45.0347 27.1046C45.4663 27.3538 46.0224 27.2086 46.2754 26.772C46.5264 26.3373 46.3774 25.7822 45.9429 25.5313ZM43.7246 31.7676C44.2265 31.7676 44.6328 32.1739 44.6328 32.6758C44.6328 33.1779 44.2265 33.584 43.7246 33.584H41.9082C41.4063 33.584 41 33.1779 41 32.6758C41 32.1739 41.4063 31.7676 41.9082 31.7676H43.7246ZM69.2754 31.7676H71.0918C71.5937 31.7676 72 32.1739 72 32.6758C72 33.1779 71.5937 33.584 71.0918 33.584H69.2754C68.7735 33.584 68.3672 33.1779 68.3672 32.6758C68.3672 32.1739 68.7735 31.7676 69.2754 31.7676ZM67.9652 38.2466L69.5387 39.1548C69.9732 39.4058 70.1222 39.9609 69.8713 40.3956C69.6182 40.8322 69.0622 40.9774 68.6305 40.7281L67.057 39.8199C66.6226 39.569 66.4736 39.0139 66.7245 38.5792C66.9747 38.1444 67.5298 37.9964 67.9652 38.2466ZM43.4612 39.1548L45.0347 38.2466C45.4656 37.9964 46.0235 38.1444 46.2754 38.5792C46.5264 39.0139 46.3774 39.569 45.9429 39.8199L44.3694 40.7281C43.9377 40.9776 43.3817 40.8324 43.1286 40.3956C42.8777 39.9609 43.0267 39.4058 43.4612 39.1548ZM67.9652 27.1046L69.5387 26.1963C69.9732 25.9454 70.1222 25.3903 69.8713 24.9556C69.6194 24.5209 69.0615 24.3719 68.6305 24.6231L67.057 25.5313C66.6226 25.7822 66.4736 26.3373 66.7245 26.772C66.9776 27.2089 67.5336 27.3541 67.9652 27.1046ZM63.3472 39.9518C61.9641 41.2533 61.1895 42.8514 61.0835 44.4831H57.4084H55.592H51.8648C51.65 42.7577 50.8719 41.1189 49.5919 39.8943C47.1859 37.589 46.0904 34.2303 46.6625 30.908C47.3455 26.9415 50.4391 23.7266 54.36 22.9097C57.3783 22.2801 60.4523 23.0135 62.7982 24.9212C65.1449 26.8289 66.4904 29.6555 66.4904 32.6764C66.4904 35.4188 65.3445 38.0708 63.3472 39.9518ZM60.6833 34.3227C60.5953 34.1806 60.4703 34.0385 60.3082 33.9485C60.1785 33.8822 60.0951 33.7733 60.021 33.6454C59.7848 33.2381 59.9237 32.7029 60.3174 32.4614C60.7806 32.1914 60.9288 31.5899 60.6602 31.1211L60.3498 30.5622C60.0858 30.0933 59.5069 29.9276 59.0483 30.2023C58.6408 30.4296 58.1174 30.278 57.8812 29.8755C57.8071 29.7429 57.7654 29.6008 57.7746 29.4587C57.7885 29.274 57.7329 29.0987 57.6496 28.9567C57.4782 28.663 57.1679 28.4641 56.8251 28.4641H56.1721C55.834 28.4736 55.5236 28.663 55.3523 28.9567C55.2643 29.0987 55.2133 29.274 55.2226 29.4587C55.2318 29.6008 55.1902 29.7429 55.116 29.8755C54.8798 30.278 54.3564 30.4296 53.9535 30.2023C53.4903 29.9276 52.916 30.0933 52.6474 30.5622L52.337 31.1211C52.073 31.5899 52.2212 32.1914 52.6798 32.4614C53.0735 32.7029 53.2124 33.2381 52.9808 33.6454C52.9021 33.7733 52.8187 33.8822 52.689 33.9485C52.5316 34.0385 52.3926 34.1806 52.3185 34.3227C52.1471 34.6163 52.1564 34.9857 52.3278 35.2936L52.6474 35.8619C52.8187 36.165 53.1383 36.3545 53.4718 36.3545C53.6293 36.3545 53.8145 36.3071 53.9628 36.2124C54.0785 36.1319 54.2175 36.1034 54.3703 36.1034C54.8289 36.1034 55.2133 36.4965 55.2226 36.9654C55.2226 37.5101 55.6487 37.9363 56.186 37.9363H56.8159C57.3485 37.9363 57.7746 37.5101 57.7746 36.9654C57.7885 36.4965 58.173 36.1034 58.6315 36.1034C58.7797 36.1034 58.9187 36.1319 59.0391 36.2124C59.1873 36.3071 59.3679 36.3545 59.53 36.3545C59.8589 36.3545 60.1785 36.165 60.3498 35.8619L60.6741 35.2936C60.8408 34.9763 60.8547 34.6163 60.6833 34.3227ZM56.5053 34.5404C55.7781 34.5404 55.1899 33.9484 55.1899 33.2048C55.1899 32.4613 55.7781 31.8645 56.5053 31.8645C57.2325 31.8645 57.8068 32.4613 57.8068 33.2048C57.8068 33.9484 57.2325 34.5404 56.5053 34.5404ZM51.959 47.2676C51.959 48.7699 53.1813 49.9922 54.6836 49.9922H58.3164C59.8187 49.9922 61.041 48.7699 61.041 47.2676V46.2988H51.959V47.2676Z" fill="url(#paint1_linear_1346_27169)"/>
<defs>
<linearGradient id="paint0_linear_1346_27169" x1="13" y1="4.49219" x2="87.4669" y2="33.3673" gradientUnits="userSpaceOnUse">
<stop stop-color="#DB8016"/>
<stop offset="1" stop-color="#DBAC16"/>
</linearGradient>
<linearGradient id="paint1_linear_1346_27169" x1="15.6364" y1="6.31037" x2="85.5901" y2="33.4355" gradientUnits="userSpaceOnUse">
<stop stop-color="#DB8016"/>
<stop offset="1" stop-color="#DBAC16"/>
</linearGradient>
</defs>
</svg>
