<svg width="40" height="40" viewBox="0 0 40 40" fill="none" xmlns="http://www.w3.org/2000/svg">
<path d="M16.2388 32.5393C16.2388 31.7237 15.5775 31.0625 14.762 31.0625H3.60947C2.79397 31.0625 2.13274 31.7237 2.13274 32.5393C2.13274 32.7963 2.19853 33.0379 2.31411 33.2484H0.193115V36.3102H18.1783V33.2484H16.0574C16.1729 33.0378 16.2388 32.7963 16.2388 32.5393Z" fill="url(#paint0_linear_3001_5775)"/>
<path d="M14.3412 7.29029L23.7644 13.2741C24.4972 13.6476 25.4077 13.4091 25.8573 12.7007L26.3095 11.9889C26.7871 11.2365 26.5646 10.2395 25.8123 9.76173L16.6492 3.94303C15.8969 3.46534 14.8999 3.6879 14.4221 4.44026L13.97 5.15216C13.5203 5.86045 13.6915 6.78582 14.3412 7.29029Z" fill="url(#paint1_linear_3001_5775)"/>
<path d="M39.8024 30.1499L39.7959 30.0075L39.7841 29.873C39.7781 29.7811 39.7652 29.6993 39.7539 29.6153C39.7087 29.2793 39.6316 28.9935 39.5373 28.7349C39.3462 28.2212 39.0758 27.8323 38.7438 27.5409C38.6612 27.4674 38.5728 27.403 38.485 27.3375L38.2219 27.141C38.0472 27.0089 37.869 26.8822 37.6921 26.7538C37.5154 26.6246 37.3366 26.4989 37.1577 26.3734C36.9793 26.247 36.8002 26.122 36.6195 25.9993C36.2601 25.7508 35.897 25.5086 35.5329 25.2671L34.985 24.9081L34.434 24.5538C34.0656 24.3196 33.6967 24.0862 33.3252 23.8567C32.9544 23.6262 32.5821 23.398 32.2076 23.1733L31.0832 22.5007L29.9514 21.8395L28.8133 21.1883L27.6697 20.5459L26.5205 19.912L25.366 19.2868C24.9798 19.0804 24.5939 18.8736 24.2051 18.6712C23.8173 18.4678 23.4297 18.2633 23.039 18.0641L22.6853 18.6213L20.9021 17.7809L22.8953 14.642L13.4722 8.6582L8.57031 16.3776L17.9935 22.3614L19.9867 19.2224L21.5058 20.4789L21.152 21.0362C21.4986 21.3051 21.8483 21.5686 22.1975 21.8333C22.5458 22.0991 22.8971 22.3604 23.2481 22.6222L24.3049 23.4013L25.3675 24.1716L26.4353 24.9336L27.5087 25.6865L28.5883 26.4299L29.6752 27.1614C30.038 27.4048 30.4027 27.6447 30.7693 27.8824C31.135 28.121 31.5031 28.3555 31.8718 28.5895L32.4266 28.9373L32.9845 29.2804C33.3579 29.5071 33.7316 29.7329 34.1093 29.9526C34.2973 30.0639 34.4864 30.1729 34.6767 30.2806C34.8664 30.3891 35.0563 30.4976 35.2483 30.6024C35.44 30.7079 35.6304 30.8152 35.8241 30.917L36.1139 31.0716C36.2105 31.1231 36.3065 31.1758 36.408 31.2193C36.8131 31.3958 37.28 31.4751 37.8261 31.4296C38.1003 31.4051 38.3918 31.3533 38.7152 31.2514C38.7961 31.2259 38.8754 31.2026 38.9614 31.1691L39.088 31.1224L39.2198 31.0677C39.3955 30.9945 39.5836 30.9018 39.7876 30.7845C39.807 30.5498 39.8109 30.3402 39.8024 30.1499Z" fill="url(#paint2_linear_3001_5775)"/>
<path d="M5.65414 21.2579L14.8171 27.0765C15.5695 27.5541 16.5665 27.3316 17.0442 26.5793L17.4963 25.8674C17.9461 25.1589 17.7748 24.2337 17.1251 23.7292L7.70203 17.7455C6.96921 17.3721 6.0588 17.6105 5.60902 18.319L5.15699 19.0308C4.67914 19.7831 4.90178 20.7803 5.65414 21.2579Z" fill="url(#paint3_linear_3001_5775)"/>
<defs>
<linearGradient id="paint0_linear_3001_5775" x1="0.249024" y1="31.4862" x2="12.5061" y2="42.0855" gradientUnits="userSpaceOnUse">
<stop stop-color="#DB8016"/>
<stop offset="1" stop-color="#DBAC16"/>
</linearGradient>
<linearGradient id="paint1_linear_3001_5775" x1="13.7584" y1="4.47934" x2="27.5363" y2="9.05465" gradientUnits="userSpaceOnUse">
<stop stop-color="#DB8016"/>
<stop offset="1" stop-color="#DBAC16"/>
</linearGradient>
<linearGradient id="paint2_linear_3001_5775" x1="8.66741" y1="10.498" x2="41.8977" y2="21.9929" gradientUnits="userSpaceOnUse">
<stop stop-color="#DB8016"/>
<stop offset="1" stop-color="#DBAC16"/>
</linearGradient>
<linearGradient id="paint3_linear_3001_5775" x1="4.9452" y1="18.3582" x2="18.723" y2="22.9336" gradientUnits="userSpaceOnUse">
<stop stop-color="#DB8016"/>
<stop offset="1" stop-color="#DBAC16"/>
</linearGradient>
</defs>
</svg>
