<svg width="24" height="24" viewBox="0 0 24 24" fill="none" xmlns="http://www.w3.org/2000/svg">
<path d="M18.9803 2.39844H5.01662C4.32223 2.39844 3.65629 2.67428 3.16529 3.16529C2.67428 3.65629 2.39844 4.32223 2.39844 5.01662L2.39844 18.9803C2.39844 19.6746 2.67428 20.3406 3.16529 20.8316C3.65629 21.3226 4.32223 21.5984 5.01662 21.5984H18.9803C19.6746 21.5984 20.3406 21.3226 20.8316 20.8316C21.3226 20.3406 21.5984 19.6746 21.5984 18.9803V5.01662C21.5984 4.32223 21.3226 3.65629 20.8316 3.16529C20.3406 2.67428 19.6746 2.39844 18.9803 2.39844ZM8.94389 17.5926C8.94404 17.6459 8.93367 17.6986 8.9134 17.7478C8.89312 17.7971 8.86333 17.8418 8.82574 17.8795C8.78814 17.9172 8.74347 17.9471 8.6943 17.9675C8.64513 17.9879 8.59241 17.9984 8.53917 17.9984H6.81444C6.7611 17.9986 6.70827 17.9882 6.65897 17.9678C6.60967 17.9475 6.56487 17.9176 6.52716 17.8799C6.48945 17.8422 6.45956 17.7974 6.43922 17.7481C6.41887 17.6988 6.40848 17.646 6.40862 17.5926V10.3621C6.40862 10.2544 6.45138 10.1512 6.52748 10.0751C6.60359 9.99901 6.70681 9.95626 6.81444 9.95626H8.53917C8.64661 9.95654 8.74955 9.99943 8.82542 10.0755C8.90129 10.1516 8.94389 10.2546 8.94389 10.3621V17.5926ZM7.67626 9.27117C7.35261 9.27117 7.03624 9.17519 6.76714 8.99539C6.49804 8.81558 6.28831 8.56002 6.16445 8.26101C6.0406 7.962 6.0082 7.63299 6.07133 7.31556C6.13447 6.99814 6.29032 6.70657 6.51917 6.47772C6.74802 6.24887 7.03959 6.09302 7.35702 6.02988C7.67444 5.96674 8.00346 5.99915 8.30247 6.123C8.60147 6.24685 8.85704 6.45659 9.03684 6.72569C9.21665 6.99479 9.31262 7.31116 9.31262 7.6348C9.31262 8.06879 9.14022 8.48501 8.83334 8.79189C8.52646 9.09876 8.11025 9.27117 7.67626 9.27117ZM17.9592 17.621C17.9593 17.67 17.9498 17.7186 17.9311 17.7639C17.9124 17.8093 17.8849 17.8504 17.8502 17.8851C17.8155 17.9198 17.7744 17.9473 17.729 17.966C17.6837 17.9847 17.6351 17.9942 17.5861 17.9941H15.7315C15.6825 17.9942 15.6339 17.9847 15.5886 17.966C15.5433 17.9473 15.5021 17.9198 15.4674 17.8851C15.4327 17.8504 15.4052 17.8093 15.3865 17.7639C15.3678 17.7186 15.3583 17.67 15.3584 17.621V14.2337C15.3584 13.7275 15.5068 12.017 14.0352 12.017C12.8952 12.017 12.6628 13.1875 12.617 13.7133V17.6253C12.617 17.7234 12.5784 17.8174 12.5096 17.8873C12.4409 17.9571 12.3473 17.997 12.2493 17.9984H10.4581C10.4091 17.9984 10.3607 17.9888 10.3155 17.97C10.2703 17.9513 10.2292 17.9238 10.1946 17.8891C10.1601 17.8544 10.1327 17.8133 10.1141 17.768C10.0954 17.7228 10.0859 17.6743 10.0861 17.6253V10.3304C10.0859 10.2815 10.0954 10.233 10.1141 10.1877C10.1327 10.1425 10.1601 10.1013 10.1946 10.0667C10.2292 10.032 10.2703 10.0045 10.3155 9.98577C10.3607 9.967 10.4091 9.95735 10.4581 9.95735H12.2493C12.3483 9.95735 12.4432 9.99665 12.5132 10.0666C12.5831 10.1366 12.6224 10.2315 12.6224 10.3304V10.961C13.0457 10.325 13.673 9.83626 15.0115 9.83626C17.9766 9.83626 17.957 12.605 17.957 14.1257L17.9592 17.621Z" fill="#0A66C2"/>
</svg>
