<svg id="Icon_material-share-location" data-name="Icon material-share-location" xmlns="http://www.w3.org/2000/svg" width="34.885" height="34.814" viewBox="0 0 34.885 34.814">
  <path id="Path_4222" data-name="Path 4222" d="M22.272,34.356V37.89a17.405,17.405,0,0,0,9.307-3.866l-2.484-2.5a13.893,13.893,0,0,1-6.823,2.834ZM6.544,20.482A14.023,14.023,0,0,1,18.7,6.609V3.075a17.505,17.505,0,0,0,0,34.815V34.356A14.023,14.023,0,0,1,6.544,20.482ZM34.4,18.733H37.93a17.405,17.405,0,0,0-3.866-9.307l-2.5,2.5A13.765,13.765,0,0,1,34.4,18.733ZM31.579,6.941a17.462,17.462,0,0,0-9.307-3.866V6.609a13.893,13.893,0,0,1,6.823,2.834l2.484-2.5Zm-.017,22.113,2.5,2.484a17.406,17.406,0,0,0,3.866-9.307H34.4a13.893,13.893,0,0,1-2.834,6.823Z" transform="translate(-3.045 -3.075)" fill="#db8016"/>
  <path id="Path_4223" data-name="Path 4223" d="M26,17.673a7,7,0,1,0-14,0q0,4.356,7,10.322Q26,22.038,26,17.673Zm-7,1.575a1.874,1.874,0,1,1,1.793-1.872A1.874,1.874,0,0,1,19,19.247Z" transform="translate(-1.556 -1.84)" fill="#db8016"/>
</svg>
