<svg width="24" height="24" viewBox="0 0 24 24" fill="none" xmlns="http://www.w3.org/2000/svg">
<path fill-rule="evenodd" clip-rule="evenodd" d="M3 6.8V6.8C3 7.4 3.3 7.9 3.8 8.3L9.8 12.4C11.2 13.3 12.9 13.3 14.3 12.4L20.3 8.4C20.7 7.9 21 7.4 21 6.8V6.8C21 5.8 20.2 5 19.2 5H4.8C3.8 5 3 5.8 3 6.8Z" stroke="url(#paint0_linear_1112_8084)" stroke-width="1.5" stroke-linecap="round" stroke-linejoin="round"/>
<path d="M3 7V17C3 18.1 3.9 19 5 19H19C20.1 19 21 18.1 21 17V7" stroke="url(#paint1_linear_1112_8084)" stroke-width="1.5" stroke-linecap="round" stroke-linejoin="round"/>
<path d="M3.58801 18.4143L9.68201 12.3203" stroke="url(#paint2_linear_1112_8084)" stroke-width="1.5" stroke-linecap="round" stroke-linejoin="round"/>
<path d="M14.36 12.3594L20.412 18.4114" stroke="url(#paint3_linear_1112_8084)" stroke-width="1.5" stroke-linecap="round" stroke-linejoin="round"/>
<defs>
<linearGradient id="paint0_linear_1112_8084" x1="3.05596" y1="5.65204" x2="19.3439" y2="14.813" gradientUnits="userSpaceOnUse">
<stop stop-color="#DB8016"/>
<stop offset="1" stop-color="#DBAC16"/>
</linearGradient>
<linearGradient id="paint1_linear_1112_8084" x1="3.05596" y1="7.96898" x2="21.81" y2="15.0668" gradientUnits="userSpaceOnUse">
<stop stop-color="#DB8016"/>
<stop offset="1" stop-color="#DBAC16"/>
</linearGradient>
<linearGradient id="paint2_linear_1112_8084" x1="3.60696" y1="12.8124" x2="10.4313" y2="14.5343" gradientUnits="userSpaceOnUse">
<stop stop-color="#DB8016"/>
<stop offset="1" stop-color="#DBAC16"/>
</linearGradient>
<linearGradient id="paint3_linear_1112_8084" x1="14.3788" y1="12.8481" x2="21.1561" y2="14.5581" gradientUnits="userSpaceOnUse">
<stop stop-color="#DB8016"/>
<stop offset="1" stop-color="#DBAC16"/>
</linearGradient>
</defs>
</svg>
