<svg width="56" height="57" viewBox="0 0 56 57" fill="none" xmlns="http://www.w3.org/2000/svg">
<g filter="url(#filter0_b_2223_5677)">
<rect y="0.976562" width="56" height="56" rx="28" fill="url(#paint0_linear_2223_5677)" fill-opacity="0.03"/>
<rect y="0.976562" width="56" height="56" rx="28" fill="url(#paint1_linear_2223_5677)" fill-opacity="0.05"/>
<path d="M42.9927 42.313L39.8594 39.1797" stroke="url(#paint2_linear_2223_5677)" stroke-width="2.5" stroke-linecap="round" stroke-linejoin="round"/>
<path d="M39.1763 39.7623C41.803 37.9173 42.0363 34.269 39.873 32.1056C37.9213 30.1523 34.7547 30.1523 32.8013 32.1056C30.638 34.269 30.8697 37.919 33.498 39.7623C35.1697 40.9356 37.5047 40.9356 39.1763 39.7623Z" stroke="url(#paint3_linear_2223_5677)" stroke-width="2.5" stroke-linecap="round" stroke-linejoin="round"/>
<path d="M19.6641 30.6458H26.3307" stroke="url(#paint4_linear_2223_5677)" stroke-width="2.5" stroke-linecap="round" stroke-linejoin="round"/>
<path d="M19.6641 23.974H32.9974" stroke="url(#paint5_linear_2223_5677)" stroke-width="2.5" stroke-linecap="round" stroke-linejoin="round"/>
<path d="M39.6667 25.6406V20.6406C39.6667 17.879 37.4283 15.6406 34.6667 15.6406H18C15.2383 15.6406 13 17.879 13 20.6406V35.6406C13 38.4023 15.2383 40.6406 18 40.6406H26.3333" stroke="url(#paint6_linear_2223_5677)" stroke-width="2.5" stroke-linecap="round" stroke-linejoin="round"/>
</g>
<defs>
<filter id="filter0_b_2223_5677" x="-13.1297" y="-12.1531" width="82.2593" height="82.2593" filterUnits="userSpaceOnUse" color-interpolation-filters="sRGB">
<feFlood flood-opacity="0" result="BackgroundImageFix"/>
<feGaussianBlur in="BackgroundImageFix" stdDeviation="6.56483"/>
<feComposite in2="SourceAlpha" operator="in" result="effect1_backgroundBlur_2223_5677"/>
<feBlend mode="normal" in="SourceGraphic" in2="effect1_backgroundBlur_2223_5677" result="shape"/>
</filter>
<linearGradient id="paint0_linear_2223_5677" x1="53" y1="56.9766" x2="-4.53669" y2="28.9713" gradientUnits="userSpaceOnUse">
<stop stop-color="#DB8016"/>
<stop offset="1" stop-color="#DBAC16"/>
</linearGradient>
<linearGradient id="paint1_linear_2223_5677" x1="28" y1="0.976562" x2="28" y2="56.9766" gradientUnits="userSpaceOnUse">
<stop stop-color="white"/>
<stop offset="1" stop-color="#999999" stop-opacity="0.5"/>
</linearGradient>
<linearGradient id="paint2_linear_2223_5677" x1="39.8691" y1="39.4327" x2="43.3779" y2="40.318" gradientUnits="userSpaceOnUse">
<stop stop-color="#DB8016"/>
<stop offset="1" stop-color="#DBAC16"/>
</linearGradient>
<linearGradient id="paint3_linear_2223_5677" x1="31.367" y1="31.4482" x2="42.5675" y2="34.2744" gradientUnits="userSpaceOnUse">
<stop stop-color="#DB8016"/>
<stop offset="1" stop-color="#DBAC16"/>
</linearGradient>
<linearGradient id="paint4_linear_2223_5677" x1="19.6848" y1="29.9471" x2="23.6186" y2="33.9173" gradientUnits="userSpaceOnUse">
<stop stop-color="#DB8016"/>
<stop offset="1" stop-color="#DBAC16"/>
</linearGradient>
<linearGradient id="paint5_linear_2223_5677" x1="19.7055" y1="23.2752" x2="22.8353" y2="29.5927" gradientUnits="userSpaceOnUse">
<stop stop-color="#DB8016"/>
<stop offset="1" stop-color="#DBAC16"/>
</linearGradient>
<linearGradient id="paint6_linear_2223_5677" x1="13.0829" y1="17.6593" x2="42.701" y2="25.6306" gradientUnits="userSpaceOnUse">
<stop stop-color="#DB8016"/>
<stop offset="1" stop-color="#DBAC16"/>
</linearGradient>
</defs>
</svg>
