<svg width="57" height="57" viewBox="0 0 57 57" fill="none" xmlns="http://www.w3.org/2000/svg">
<g filter="url(#filter0_b_2223_5694)">
<rect x="0.475586" y="0.453125" width="56" height="56" rx="28" fill="url(#paint0_linear_2223_5694)" fill-opacity="0.03"/>
<rect x="0.475586" y="0.453125" width="56" height="56" rx="28" fill="url(#paint1_linear_2223_5694)" fill-opacity="0.05"/>
<path fill-rule="evenodd" clip-rule="evenodd" d="M35.4552 16.4113C30.1334 13.3381 23.2132 14.0726 18.6626 18.6202C15.9455 21.3358 14.5867 24.8924 14.5867 28.4522C14.5867 29.2963 14.6377 30.1128 14.7795 30.905C14.8866 31.503 14.4886 32.0745 13.8906 32.1816C13.2926 32.2887 12.721 31.8907 12.6139 31.2927C12.4424 30.3348 12.3867 29.3813 12.3867 28.4522C12.3867 24.332 13.9613 20.2085 17.1075 17.0641C22.4469 11.7281 30.5962 10.9271 36.7879 14.6431C38.3211 13.5023 40.4987 13.627 41.8909 15.0172C43.4213 16.5452 43.4213 19.0243 41.8909 20.5523C40.3615 22.0794 37.8842 22.0794 36.3548 20.5523C35.2338 19.4331 34.934 17.8035 35.4552 16.4113ZM44.3596 25.6116C44.2525 25.0136 43.6809 24.6157 43.0829 24.7227C42.4849 24.8298 42.0869 25.4014 42.194 25.9994C42.9836 30.4093 41.482 35.1148 38.3109 38.2841C33.7587 42.8317 26.84 43.5662 21.5186 40.4932C22.0398 39.1009 21.7399 37.4714 20.619 36.3521C19.0895 34.825 16.6123 34.825 15.0828 36.3521C13.5527 37.88 13.5525 40.3586 15.0822 41.8867C16.4734 43.2776 18.6526 43.4019 20.1858 42.2614C26.3774 45.9772 34.525 45.1761 39.8659 39.8404C43.54 36.1684 45.2776 30.7391 44.3596 25.6116ZM26.7464 22.2371C27.8635 21.8357 29.0832 21.8357 30.2003 22.2371L33.8473 23.5489C34.2839 23.7059 34.575 24.12 34.575 24.584V28.7073C34.575 31.016 32.9915 32.7971 31.6822 33.8961C31.0007 34.4681 30.3248 34.9132 29.8219 35.2148C29.5692 35.3663 29.3571 35.4833 29.2058 35.5637C29.13 35.6039 29.0692 35.6351 29.0259 35.6569C29.0043 35.6678 28.987 35.6764 28.9744 35.6826L28.9589 35.6901L28.9539 35.6926L28.9521 35.6934C28.9518 35.6936 28.9507 35.6941 28.475 34.7023L27.9986 35.6938L27.9961 35.6926L27.9911 35.6901L27.9756 35.6826C27.963 35.6764 27.9457 35.6678 27.9241 35.6569C27.8808 35.6351 27.82 35.6039 27.7442 35.5637C27.5929 35.4833 27.3808 35.3663 27.1281 35.2148C26.6252 34.9132 25.9493 34.4681 25.2678 33.8961C23.9585 32.7971 22.375 31.016 22.375 28.7073V24.584C22.375 24.1201 22.666 23.7061 23.1024 23.549L26.7464 22.2371ZM27.9986 35.6938C28.2994 35.8381 28.65 35.8384 28.9507 35.6941L28.475 34.7023C27.9993 35.6941 27.999 35.6939 27.9986 35.6938ZM28.475 33.4543C28.5415 33.4162 28.6137 33.374 28.6906 33.3279C29.1252 33.0674 29.6993 32.6882 30.2678 32.211C31.4585 31.2116 32.375 29.9953 32.375 28.7073V25.3573L29.4564 24.3075C28.8205 24.0791 28.1269 24.0789 27.4909 24.3073L24.575 25.357V28.7073C24.575 29.9953 25.4915 31.2116 26.6822 32.211C27.2507 32.6882 27.8248 33.0674 28.2594 33.3279C28.3363 33.374 28.4085 33.4162 28.475 33.4543Z" fill="url(#paint2_linear_2223_5694)"/>
</g>
<defs>
<filter id="filter0_b_2223_5694" x="-12.6541" y="-12.6765" width="82.2593" height="82.2593" filterUnits="userSpaceOnUse" color-interpolation-filters="sRGB">
<feFlood flood-opacity="0" result="BackgroundImageFix"/>
<feGaussianBlur in="BackgroundImageFix" stdDeviation="6.56483"/>
<feComposite in2="SourceAlpha" operator="in" result="effect1_backgroundBlur_2223_5694"/>
<feBlend mode="normal" in="SourceGraphic" in2="effect1_backgroundBlur_2223_5694" result="shape"/>
</filter>
<linearGradient id="paint0_linear_2223_5694" x1="53.4756" y1="56.4531" x2="-4.06111" y2="28.4478" gradientUnits="userSpaceOnUse">
<stop stop-color="#DB8016"/>
<stop offset="1" stop-color="#DBAC16"/>
</linearGradient>
<linearGradient id="paint1_linear_2223_5694" x1="28.4756" y1="0.453125" x2="28.4756" y2="56.4531" gradientUnits="userSpaceOnUse">
<stop stop-color="white"/>
<stop offset="1" stop-color="#999999" stop-opacity="0.5"/>
</linearGradient>
<linearGradient id="paint2_linear_2223_5694" x1="16.6667" y1="17.9898" x2="45.2285" y2="23.7144" gradientUnits="userSpaceOnUse">
<stop stop-color="#DB8016"/>
<stop offset="1" stop-color="#DBAC16"/>
</linearGradient>
</defs>
</svg>
