<svg width="57" height="57" viewBox="0 0 57 57" fill="none" xmlns="http://www.w3.org/2000/svg">
<g filter="url(#filter0_b_2223_5681)">
<rect x="0.475586" y="0.976562" width="56" height="56" rx="28" fill="url(#paint0_linear_2223_5681)" fill-opacity="0.03"/>
<rect x="0.475586" y="0.976562" width="56" height="56" rx="28" fill="url(#paint1_linear_2223_5681)" fill-opacity="0.05"/>
<path fill-rule="evenodd" clip-rule="evenodd" d="M31.5 14.6805V18.4093C31.5 21.3824 33.9041 23.7926 36.8769 23.8009L36.88 23.8009H40.3786V37.6505L40.3786 37.6584C40.3993 40.5512 38.1276 42.9404 35.2403 43.0688H21.9486C21.9368 43.0688 21.9249 43.069 21.9131 43.0694C21.8986 43.0699 21.8943 43.0698 21.8834 43.0696C21.872 43.0693 21.8534 43.0689 21.8084 43.0689C18.8995 42.9981 16.5949 40.5854 16.6583 37.6745L16.6586 37.6505V19.8091C16.7326 16.9492 19.0804 14.6695 21.9443 14.6805H31.5ZM32.6 12.4609C32.671 12.4609 32.7404 12.4677 32.8077 12.4805H33.0369C33.3364 12.4805 33.623 12.6027 33.8304 12.8187L42.2721 21.6121C42.4688 21.8169 42.5786 22.0899 42.5786 22.3738V37.6468C42.6056 41.7316 39.3893 45.1023 35.3082 45.2679C35.2933 45.2685 35.2785 45.2688 35.2636 45.2688H21.9617C21.8953 45.2702 21.8092 45.269 21.7968 45.2689H21.7965L21.7952 45.2688L21.7708 45.2686C17.6459 45.1768 14.3755 41.7621 14.4586 37.639V19.7955C14.4586 19.7869 14.4587 19.7782 14.4589 19.7696C14.5547 15.706 17.8863 12.4661 21.9506 12.4805H32.3923C32.4596 12.4677 32.529 12.4609 32.6 12.4609ZM22.1875 34.5758C22.1875 33.9683 22.68 33.4758 23.2875 33.4758H32.2875C32.895 33.4758 33.3875 33.9683 33.3875 34.5758C33.3875 35.1833 32.895 35.6758 32.2875 35.6758H23.2875C22.68 35.6758 22.1875 35.1833 22.1875 34.5758ZM23.2836 27.22C22.6761 27.22 22.1836 27.7125 22.1836 28.32C22.1836 28.9275 22.6761 29.42 23.2836 29.42H28.8769C29.4844 29.42 29.9769 28.9275 29.9769 28.32C29.9769 27.7125 29.4844 27.22 28.8769 27.22H23.2836Z" fill="url(#paint2_linear_2223_5681)"/>
</g>
<defs>
<filter id="filter0_b_2223_5681" x="-12.6541" y="-12.1531" width="82.2593" height="82.2593" filterUnits="userSpaceOnUse" color-interpolation-filters="sRGB">
<feFlood flood-opacity="0" result="BackgroundImageFix"/>
<feGaussianBlur in="BackgroundImageFix" stdDeviation="6.56483"/>
<feComposite in2="SourceAlpha" operator="in" result="effect1_backgroundBlur_2223_5681"/>
<feBlend mode="normal" in="SourceGraphic" in2="effect1_backgroundBlur_2223_5681" result="shape"/>
</filter>
<linearGradient id="paint0_linear_2223_5681" x1="53.4756" y1="56.9766" x2="-4.06111" y2="28.9713" gradientUnits="userSpaceOnUse">
<stop stop-color="#DB8016"/>
<stop offset="1" stop-color="#DBAC16"/>
</linearGradient>
<linearGradient id="paint1_linear_2223_5681" x1="28.4756" y1="0.976562" x2="28.4756" y2="56.9766" gradientUnits="userSpaceOnUse">
<stop stop-color="white"/>
<stop offset="1" stop-color="#999999" stop-opacity="0.5"/>
</linearGradient>
<linearGradient id="paint2_linear_2223_5681" x1="16.9751" y1="15.4771" x2="47.4675" y2="24.7152" gradientUnits="userSpaceOnUse">
<stop stop-color="#DB8016"/>
<stop offset="1" stop-color="#DBAC16"/>
</linearGradient>
</defs>
</svg>
