<svg width="57" height="57" viewBox="0 0 57 57" fill="none" xmlns="http://www.w3.org/2000/svg">
<g filter="url(#filter0_b_2223_5685)">
<rect x="0.951172" y="0.976562" width="56" height="56" rx="28" fill="url(#paint0_linear_2223_5685)" fill-opacity="0.03"/>
<rect x="0.951172" y="0.976562" width="56" height="56" rx="28" fill="url(#paint1_linear_2223_5685)" fill-opacity="0.05"/>
<path fill-rule="evenodd" clip-rule="evenodd" d="M15.0516 19.8083C15.0516 18.6941 15.0563 17.858 15.1407 17.1886C15.224 16.5278 15.371 16.1691 15.5546 15.9414C15.7258 15.7291 16.0304 15.5059 16.6997 15.3382C17.3865 15.166 18.3679 15.075 19.7849 15.075C21.2019 15.075 22.1833 15.166 22.8701 15.3382C23.5394 15.5059 23.844 15.7291 24.0153 15.9414C24.1988 16.1691 24.3458 16.5278 24.4291 17.1886C24.5135 17.858 24.5182 18.6941 24.5182 19.8083C24.5182 20.9265 24.5176 21.763 24.4374 22.4353C24.3582 23.0992 24.215 23.4554 24.036 23.6799C23.8702 23.8878 23.571 24.1104 22.8986 24.2783C22.2087 24.4505 21.2191 24.5417 19.7849 24.5417C18.3507 24.5417 17.3611 24.4505 16.6712 24.2783C15.9988 24.1104 15.6996 23.8878 15.5338 23.6799C15.3548 23.4554 15.2116 23.0992 15.1324 22.4353C15.0522 21.763 15.0516 20.9265 15.0516 19.8083ZM19.7849 12.875C18.3087 12.875 17.1143 12.9662 16.1648 13.2042C15.1979 13.4465 14.4059 13.8613 13.8421 14.5604C13.2906 15.2442 13.0642 16.0703 12.9579 16.9134C12.8527 17.748 12.8516 18.7349 12.8516 19.8083L12.8516 19.897C12.8515 20.9324 12.8514 21.8874 12.9479 22.6959C13.0481 23.536 13.266 24.3647 13.8138 25.0516C14.3749 25.7551 15.1682 26.1705 16.1382 26.4127C17.0907 26.6505 18.2932 26.7417 19.7849 26.7417C21.2766 26.7417 22.4792 26.6505 23.4316 26.4127C24.4016 26.1705 25.195 25.7551 25.756 25.0516C26.3038 24.3647 26.5217 23.536 26.6219 22.6959C26.7184 21.8874 26.7183 20.9325 26.7182 19.8971V19.8971V19.8971V19.897L26.7182 19.8083C26.7182 18.7349 26.7171 17.748 26.6119 16.9134C26.5056 16.0703 26.2792 15.2442 25.7278 14.5604C25.164 13.8613 24.3719 13.4465 23.405 13.2042C22.4555 12.9662 21.2611 12.875 19.7849 12.875ZM33.3836 19.8083C33.3836 18.6941 33.3883 17.858 33.4727 17.1886C33.556 16.5278 33.703 16.1691 33.8866 15.9414C34.0578 15.7291 34.3624 15.5059 35.0317 15.3382C35.7185 15.166 36.6999 15.075 38.1169 15.075C39.5339 15.075 40.5153 15.166 41.2021 15.3382C41.8715 15.5059 42.1761 15.7291 42.3473 15.9414C42.5308 16.1691 42.6779 16.5278 42.7612 17.1886C42.8456 17.858 42.8503 18.6941 42.8503 19.8083C42.8503 20.9265 42.8497 21.763 42.7695 22.4353C42.6903 23.0992 42.547 23.4554 42.368 23.6799C42.2022 23.8878 41.903 24.1104 41.2306 24.2783C40.5407 24.4505 39.5511 24.5417 38.1169 24.5417C36.6828 24.5417 35.6932 24.4505 35.0032 24.2783C34.3309 24.1104 34.0317 23.8878 33.8658 23.6799C33.6868 23.4554 33.5436 23.0992 33.4644 22.4353C33.3842 21.763 33.3836 20.9265 33.3836 19.8083ZM38.1169 12.875C36.6407 12.875 35.4463 12.9662 34.4969 13.2042C33.53 13.4465 32.7379 13.8613 32.1741 14.5604C31.6226 15.2442 31.3963 16.0703 31.29 16.9134C31.1848 17.748 31.1836 18.7349 31.1836 19.8083L31.1836 19.897C31.1835 20.9324 31.1834 21.8874 31.2799 22.6959C31.3801 23.536 31.598 24.3647 32.1458 25.0516C32.7069 25.7551 33.5003 26.1705 34.4703 26.4127C35.4227 26.6505 36.6252 26.7417 38.1169 26.7417C39.6087 26.7417 40.8112 26.6505 41.7636 26.4127C42.7336 26.1705 43.527 25.7551 44.088 25.0516C44.6359 24.3647 44.8538 23.536 44.954 22.6959C45.0504 21.8874 45.0504 20.9325 45.0503 19.8971V19.897L45.0503 19.8083C45.0503 18.7349 45.0491 17.748 44.9439 16.9134C44.8376 16.0703 44.6112 15.2442 44.0598 14.5604C43.496 13.8613 42.7039 13.4465 41.737 13.2042C40.7876 12.9662 39.5932 12.875 38.1169 12.875ZM15.1407 35.5226C15.0563 36.192 15.0516 37.0281 15.0516 38.1423C15.0516 39.2604 15.0522 40.0969 15.1324 40.7693C15.2116 41.4332 15.3548 41.7894 15.5338 42.0139C15.6996 42.2218 15.9988 42.4444 16.6712 42.6122C17.3611 42.7845 18.3507 42.8757 19.7849 42.8757C21.2191 42.8757 22.2087 42.7845 22.8986 42.6122C23.571 42.4444 23.8702 42.2218 24.036 42.0139C24.215 41.7894 24.3582 41.4332 24.4374 40.7693C24.5176 40.0969 24.5182 39.2604 24.5182 38.1423C24.5182 37.0281 24.5135 36.192 24.4291 35.5226C24.3458 34.8618 24.1988 34.503 24.0153 34.2754C23.844 34.0631 23.5394 33.8399 22.8701 33.6722C22.1833 33.5 21.2019 33.409 19.7849 33.409C18.3679 33.409 17.3865 33.5 16.6997 33.6722C16.0304 33.8399 15.7258 34.0631 15.5546 34.2754C15.371 34.503 15.224 34.8618 15.1407 35.5226ZM16.1648 31.5382C17.1143 31.3002 18.3087 31.209 19.7849 31.209C21.2611 31.209 22.4555 31.3002 23.405 31.5382C24.3719 31.7805 25.164 32.1953 25.7278 32.8944C26.2792 33.5782 26.5056 34.4043 26.6119 35.2474C26.7171 36.082 26.7182 37.0689 26.7182 38.1423L26.7182 38.231C26.7183 39.2664 26.7184 40.2214 26.6219 41.0299C26.5217 41.87 26.3038 42.6986 25.756 43.3856C25.195 44.0891 24.4016 44.5045 23.4316 44.7467C22.4792 44.9845 21.2766 45.0757 19.7849 45.0757C18.2932 45.0757 17.0907 44.9845 16.1382 44.7467C15.1682 44.5045 14.3749 44.0891 13.8138 43.3856C13.266 42.6986 13.0481 41.87 12.9479 41.0299C12.8514 40.2214 12.8515 39.2664 12.8516 38.231L12.8516 38.1423C12.8516 37.0689 12.8527 36.082 12.9579 35.2474C13.0642 34.4043 13.2906 33.5782 13.8421 32.8944C14.4059 32.1953 15.1979 31.7805 16.1648 31.5382ZM34.4969 31.5382C35.4463 31.3002 36.6407 31.209 38.1169 31.209C39.5932 31.209 40.7876 31.3002 41.737 31.5382C42.7039 31.7805 43.496 32.1953 44.0598 32.8944C44.6112 33.5782 44.8376 34.4043 44.9439 35.2474C45.0491 36.082 45.0503 37.0689 45.0503 38.1423L45.0503 38.231V38.2311C45.0504 39.2665 45.0504 40.2214 44.954 41.0299C44.8538 41.87 44.6359 42.6986 44.088 43.3856C43.527 44.0891 42.7336 44.5045 41.7636 44.7467C40.8112 44.9845 39.6087 45.0757 38.1169 45.0757C36.6252 45.0757 35.4227 44.9845 34.4703 44.7467C33.5003 44.5045 32.7069 44.0891 32.1458 43.3856C31.598 42.6986 31.3801 41.87 31.2799 41.0299C31.1834 40.2214 31.1835 39.2664 31.1836 38.231L31.1836 38.1423C31.1836 37.0689 31.1848 36.082 31.29 35.2474C31.3963 34.4043 31.6226 33.5782 32.1741 32.8944C32.7379 32.1953 33.53 31.7805 34.4969 31.5382Z" fill="url(#paint2_linear_2223_5685)"/>
</g>
<defs>
<filter id="filter0_b_2223_5685" x="-12.1785" y="-12.1531" width="82.2593" height="82.2593" filterUnits="userSpaceOnUse" color-interpolation-filters="sRGB">
<feFlood flood-opacity="0" result="BackgroundImageFix"/>
<feGaussianBlur in="BackgroundImageFix" stdDeviation="6.56483"/>
<feComposite in2="SourceAlpha" operator="in" result="effect1_backgroundBlur_2223_5685"/>
<feBlend mode="normal" in="SourceGraphic" in2="effect1_backgroundBlur_2223_5685" result="shape"/>
</filter>
<linearGradient id="paint0_linear_2223_5685" x1="53.9512" y1="56.9766" x2="-3.58552" y2="28.9713" gradientUnits="userSpaceOnUse">
<stop stop-color="#DB8016"/>
<stop offset="1" stop-color="#DBAC16"/>
</linearGradient>
<linearGradient id="paint1_linear_2223_5685" x1="28.9512" y1="0.976562" x2="28.9512" y2="56.9766" gradientUnits="userSpaceOnUse">
<stop stop-color="white"/>
<stop offset="1" stop-color="#999999" stop-opacity="0.5"/>
</linearGradient>
<linearGradient id="paint2_linear_2223_5685" x1="12.6118" y1="14.9751" x2="49.1409" y2="24.3464" gradientUnits="userSpaceOnUse">
<stop stop-color="#DB8016"/>
<stop offset="1" stop-color="#DBAC16"/>
</linearGradient>
</defs>
</svg>
