<svg width="57" height="57" viewBox="0 0 57 57" fill="none" xmlns="http://www.w3.org/2000/svg">
<g filter="url(#filter0_b_2223_5698)">
<rect x="0.951172" y="0.453125" width="56" height="56" rx="28" fill="url(#paint0_linear_2223_5698)" fill-opacity="0.03"/>
<rect x="0.951172" y="0.453125" width="56" height="56" rx="28" fill="url(#paint1_linear_2223_5698)" fill-opacity="0.05"/>
<path fill-rule="evenodd" clip-rule="evenodd" d="M18.9516 12.3516C15.5826 12.3516 12.8516 15.0826 12.8516 18.4516C12.8516 21.8205 15.5826 24.5516 18.9516 24.5516C21.9449 24.5516 24.4347 22.3955 24.9526 19.5516H41.1862V27.3516H15.6195C15.012 27.3516 14.5195 27.8441 14.5195 28.4516V39.2849C14.5195 39.8924 15.012 40.3849 15.6195 40.3849H33.1643C33.9728 42.8062 36.2584 44.5516 38.9516 44.5516C42.3205 44.5516 45.0516 41.8205 45.0516 38.4516C45.0516 35.0826 42.3205 32.3516 38.9516 32.3516C35.672 32.3516 32.9969 34.9397 32.8573 38.1849H16.7195V29.5516H42.2862C42.8937 29.5516 43.3862 29.0591 43.3862 28.4516V18.4516C43.3862 17.844 42.8937 17.3516 42.2862 17.3516H24.9526C24.4347 14.5077 21.9449 12.3516 18.9516 12.3516Z" fill="url(#paint2_linear_2223_5698)"/>
</g>
<defs>
<filter id="filter0_b_2223_5698" x="-12.1785" y="-12.6765" width="82.2593" height="82.2593" filterUnits="userSpaceOnUse" color-interpolation-filters="sRGB">
<feFlood flood-opacity="0" result="BackgroundImageFix"/>
<feGaussianBlur in="BackgroundImageFix" stdDeviation="6.56483"/>
<feComposite in2="SourceAlpha" operator="in" result="effect1_backgroundBlur_2223_5698"/>
<feBlend mode="normal" in="SourceGraphic" in2="effect1_backgroundBlur_2223_5698" result="shape"/>
</filter>
<linearGradient id="paint0_linear_2223_5698" x1="53.9512" y1="56.4531" x2="-3.58552" y2="28.4478" gradientUnits="userSpaceOnUse">
<stop stop-color="#DB8016"/>
<stop offset="1" stop-color="#DBAC16"/>
</linearGradient>
<linearGradient id="paint1_linear_2223_5698" x1="28.9512" y1="0.453125" x2="28.9512" y2="56.4531" gradientUnits="userSpaceOnUse">
<stop stop-color="white"/>
<stop offset="1" stop-color="#999999" stop-opacity="0.5"/>
</linearGradient>
<linearGradient id="paint2_linear_2223_5698" x1="12.9517" y1="14.9517" x2="49.0105" y2="24.0498" gradientUnits="userSpaceOnUse">
<stop stop-color="#DB8016"/>
<stop offset="1" stop-color="#DBAC16"/>
</linearGradient>
</defs>
</svg>
