<svg width="57" height="57" viewBox="0 0 57 57" fill="none" xmlns="http://www.w3.org/2000/svg">
<g filter="url(#filter0_b_2223_5671)">
<rect x="0.951172" y="0.5" width="56" height="56" rx="28" fill="url(#paint0_linear_2223_5671)" fill-opacity="0.03"/>
<rect x="0.951172" y="0.5" width="56" height="56" rx="28" fill="url(#paint1_linear_2223_5671)" fill-opacity="0.05"/>
<path fill-rule="evenodd" clip-rule="evenodd" d="M19.1912 12.7891C15.9029 12.7891 13.2373 15.4547 13.2373 18.7429V38.2638C13.2373 41.552 15.9029 44.2176 19.1912 44.2176H25.6981C26.2911 44.2176 26.7718 43.7369 26.7718 43.144C26.7718 42.551 26.2911 42.0703 25.6981 42.0703H19.1912C17.0889 42.0703 15.3846 40.3661 15.3846 38.2638V18.7429C15.3846 16.6406 17.0889 14.9364 19.1912 14.9364H37.0853C39.1876 14.9364 40.8918 16.6406 40.8918 18.7429V23.6231C40.8918 24.2161 41.3725 24.6968 41.9655 24.6968C42.5585 24.6968 43.0391 24.2161 43.0391 23.6231V18.7429C43.0391 15.4547 40.3735 12.7891 37.0853 12.7891H19.1912ZM28.9517 35.1802C28.9517 39.0102 31.655 42.3077 35.4106 43.0588C35.9792 43.1725 36.565 43.1725 37.1336 43.0587C40.8891 42.3076 43.5923 39.0101 43.5923 35.1802V32.5703C43.5923 30.3242 41.7715 28.5034 39.5255 28.5034H33.0185C30.7725 28.5034 28.9517 30.3242 28.9517 32.5703V35.1802ZM19.7446 21.9966C19.7446 21.4036 20.2253 20.9229 20.8182 20.9229H35.4589C36.0518 20.9229 36.5325 21.4036 36.5325 21.9966C36.5325 22.5895 36.0518 23.0702 35.4589 23.0702H20.8182C20.2253 23.0702 19.7446 22.5895 19.7446 21.9966ZM20.8182 27.4297C20.2253 27.4297 19.7446 27.9104 19.7446 28.5033C19.7446 29.0963 20.2253 29.577 20.8182 29.577H24.0717C24.6647 29.577 25.1453 29.0963 25.1453 28.5033C25.1453 27.9104 24.6647 27.4297 24.0717 27.4297H20.8182ZM19.7446 35.0104C19.7446 34.4174 20.2253 33.9367 20.8182 33.9367H22.445C23.0379 33.9367 23.5186 34.4174 23.5186 35.0104C23.5186 35.6033 23.0379 36.084 22.445 36.084H20.8182C20.2253 36.084 19.7446 35.6033 19.7446 35.0104ZM39.0258 34.9548C39.445 34.5356 39.445 33.8558 39.0258 33.4365C38.6065 33.0172 37.9267 33.0172 37.5074 33.4365L35.8265 35.1174L34.9589 34.2498C34.5396 33.8306 33.8598 33.8306 33.4405 34.2498C33.0213 34.6691 33.0213 35.3489 33.4405 35.7682L35.0673 37.3949C35.2686 37.5963 35.5417 37.7094 35.8265 37.7094C36.1112 37.7094 36.3843 37.5963 36.5856 37.3949L39.0258 34.9548Z" fill="url(#paint2_linear_2223_5671)"/>
</g>
<defs>
<filter id="filter0_b_2223_5671" x="-12.1785" y="-12.6297" width="82.2593" height="82.2593" filterUnits="userSpaceOnUse" color-interpolation-filters="sRGB">
<feFlood flood-opacity="0" result="BackgroundImageFix"/>
<feGaussianBlur in="BackgroundImageFix" stdDeviation="6.56483"/>
<feComposite in2="SourceAlpha" operator="in" result="effect1_backgroundBlur_2223_5671"/>
<feBlend mode="normal" in="SourceGraphic" in2="effect1_backgroundBlur_2223_5671" result="shape"/>
</filter>
<linearGradient id="paint0_linear_2223_5671" x1="53.9512" y1="56.5" x2="-3.58552" y2="28.4947" gradientUnits="userSpaceOnUse">
<stop stop-color="#DB8016"/>
<stop offset="1" stop-color="#DBAC16"/>
</linearGradient>
<linearGradient id="paint1_linear_2223_5671" x1="28.9512" y1="0.5" x2="28.9512" y2="56.5" gradientUnits="userSpaceOnUse">
<stop stop-color="white"/>
<stop offset="1" stop-color="#999999" stop-opacity="0.5"/>
</linearGradient>
<linearGradient id="paint2_linear_2223_5671" x1="14.9554" y1="14.8388" x2="46.5795" y2="27.3355" gradientUnits="userSpaceOnUse">
<stop stop-color="#DB8016"/>
<stop offset="1" stop-color="#DBAC16"/>
</linearGradient>
</defs>
</svg>
