<svg width="56" height="57" viewBox="0 0 56 57" fill="none" xmlns="http://www.w3.org/2000/svg">
<g filter="url(#filter0_b_2223_5690)">
<rect y="0.453125" width="56" height="56" rx="28" fill="url(#paint0_linear_2223_5690)" fill-opacity="0.03"/>
<rect y="0.453125" width="56" height="56" rx="28" fill="url(#paint1_linear_2223_5690)" fill-opacity="0.05"/>
<path fill-rule="evenodd" clip-rule="evenodd" d="M21.1503 36.0566C21.4915 36.0566 21.8326 36.0998 22.1663 36.1892C23.1734 36.4603 24.0479 37.1337 24.5663 38.038C24.903 38.6056 25.0893 39.2685 25.0952 39.9449C25.0952 40.9132 25.8729 41.6894 26.8293 41.6894H28.696C29.6479 41.6894 30.4256 40.9177 30.43 39.9657C30.4241 38.914 30.8353 37.9143 31.5876 37.162C32.3295 36.4201 33.3664 35.9747 34.4032 36.0045C35.0826 36.0208 35.7366 36.2041 36.3131 36.5318C37.1429 37.0071 38.2021 36.724 38.6818 35.9046L39.671 34.2555C39.8915 33.8756 39.9556 33.3989 39.8379 32.9594C39.7217 32.5199 39.4297 32.1385 39.0364 31.9136C38.1157 31.3832 37.4587 30.5281 37.1861 29.5031C36.9165 28.4976 37.064 27.3996 37.5898 26.4953C37.9325 25.8994 38.4345 25.3974 39.0364 25.0517C39.8438 24.5795 40.1269 23.5232 39.6576 22.7009C39.6383 22.6681 39.6204 22.6339 39.6055 22.5981L38.7325 21.0845C38.2572 20.2577 37.1995 19.9731 36.3697 20.4454C35.4729 20.9757 34.4062 21.1277 33.3813 20.8581C32.3578 20.5929 31.4997 19.9448 30.9649 19.0301C30.6222 18.4581 30.436 17.7921 30.43 17.1143C30.4435 16.6048 30.2647 16.1474 29.9399 15.8122C29.6166 15.4785 29.1623 15.2893 28.696 15.2893H26.8293C26.3675 15.2893 25.9354 15.4696 25.6092 15.7944C25.2844 16.1206 25.1071 16.5541 25.1101 17.016C25.0788 19.194 23.2986 20.9474 21.1429 20.9474C20.4516 20.94 19.7857 20.7538 19.2077 20.4082C18.3958 19.9463 17.335 20.2309 16.8598 21.0577L15.8512 22.7158C15.3894 23.5173 15.6725 24.5765 16.4948 25.0547C17.7149 25.7609 18.4762 27.0778 18.4762 28.4901C18.4762 29.9024 17.7149 31.2179 16.4918 31.9255C15.674 32.3992 15.3909 33.4525 15.8647 34.2719L16.8047 35.8927C17.0371 36.3114 17.417 36.6138 17.8565 36.7374C18.2945 36.8596 18.7771 36.8074 19.1794 36.584C19.7708 36.2369 20.4591 36.0566 21.1503 36.0566ZM28.6962 43.924H26.8296C24.6411 43.924 22.8609 42.1453 22.8609 39.9568C22.8579 39.6872 22.7804 39.4071 22.6359 39.1642C22.402 38.7561 22.0236 38.4641 21.5871 38.3479C21.1536 38.2317 20.6783 38.2957 20.288 38.5222C19.3525 39.0436 18.2515 39.1702 17.2445 38.8872C16.2389 38.6026 15.3703 37.9114 14.8608 36.9952L13.9297 35.3907C12.8407 33.5017 13.4888 31.0808 15.3748 29.9903C15.9096 29.6819 16.2418 29.1069 16.2418 28.4901C16.2418 27.8733 15.9096 27.2968 15.3748 26.9884C13.4873 25.892 12.8407 23.4651 13.9282 21.5761L14.9383 19.918C16.0124 18.0499 18.4407 17.3914 20.3342 18.4789C20.5919 18.6324 20.872 18.7098 21.1566 18.7128C22.0847 18.7128 22.8609 17.9471 22.8757 17.0055C22.8698 15.9672 23.2795 14.9705 24.0258 14.2182C24.7752 13.4674 25.7704 13.0547 26.8296 13.0547H28.6962C29.7629 13.0547 30.7998 13.4927 31.5432 14.2539C32.2851 15.0197 32.6948 16.07 32.6635 17.1351C32.6665 17.375 32.7454 17.6521 32.8884 17.8949C33.1253 18.2972 33.4992 18.5802 33.9432 18.6964C34.3871 18.8067 34.8519 18.7471 35.2467 18.5132C37.1536 17.4242 39.5804 18.0767 40.6695 19.9687L41.5976 21.5761C41.6214 21.6193 41.6423 21.661 41.6601 21.7042C42.6464 23.5679 41.9879 25.9143 40.1555 26.9854C39.8888 27.1389 39.6728 27.3534 39.5238 27.6126C39.2929 28.0134 39.2289 28.4901 39.3451 28.9281C39.4642 29.375 39.7488 29.746 40.1495 29.9754C41.0538 30.4953 41.7287 31.3713 41.9983 32.3829C42.268 33.3929 42.1205 34.4894 41.5946 35.3937L40.6054 37.0413C39.5164 38.9125 37.0896 39.5605 35.202 38.47C34.9503 38.3255 34.6598 38.2466 34.3707 38.2391H34.3618C33.9313 38.2391 33.4888 38.4223 33.167 38.7426C32.8408 39.0689 32.662 39.5039 32.665 39.9657C32.6545 42.1542 30.8743 43.924 28.6962 43.924ZM27.6794 21.525C23.8907 21.5721 20.834 24.6579 20.834 28.4578C20.834 32.2869 23.9381 35.3911 27.7673 35.3911C31.5965 35.3911 34.7007 32.2869 34.7007 28.4578C34.7007 24.6581 31.6441 21.5723 27.8556 21.525C28.4219 21.5699 28.8675 22.0436 28.8675 22.6215V27.8893L33.141 30.944C33.6353 31.2973 33.7496 31.9843 33.3963 32.4785C33.043 32.9728 32.356 33.0871 31.8617 32.7338L27.7675 29.8073L23.6733 32.7338C23.1791 33.0871 22.4921 32.9728 22.1388 32.4785C21.7855 31.9843 21.8998 31.2973 22.394 30.944L26.6675 27.8894V22.6215C26.6675 22.0436 27.1131 21.5698 27.6794 21.525Z" fill="url(#paint2_linear_2223_5690)"/>
</g>
<defs>
<filter id="filter0_b_2223_5690" x="-13.1297" y="-12.6765" width="82.2593" height="82.2593" filterUnits="userSpaceOnUse" color-interpolation-filters="sRGB">
<feFlood flood-opacity="0" result="BackgroundImageFix"/>
<feGaussianBlur in="BackgroundImageFix" stdDeviation="6.56483"/>
<feComposite in2="SourceAlpha" operator="in" result="effect1_backgroundBlur_2223_5690"/>
<feBlend mode="normal" in="SourceGraphic" in2="effect1_backgroundBlur_2223_5690" result="shape"/>
</filter>
<linearGradient id="paint0_linear_2223_5690" x1="53" y1="56.4531" x2="-4.53669" y2="28.4478" gradientUnits="userSpaceOnUse">
<stop stop-color="#DB8016"/>
<stop offset="1" stop-color="#DBAC16"/>
</linearGradient>
<linearGradient id="paint1_linear_2223_5690" x1="28" y1="0.453125" x2="28" y2="56.4531" gradientUnits="userSpaceOnUse">
<stop stop-color="white"/>
<stop offset="1" stop-color="#999999" stop-opacity="0.5"/>
</linearGradient>
<linearGradient id="paint2_linear_2223_5690" x1="16.8306" y1="18.4546" x2="43.3718" y2="28.1403" gradientUnits="userSpaceOnUse">
<stop stop-color="#DB8016"/>
<stop offset="1" stop-color="#DBAC16"/>
</linearGradient>
</defs>
</svg>
