<svg width="141" height="40" viewBox="0 0 141 40" fill="none" xmlns="http://www.w3.org/2000/svg">
<g clip-path="url(#clip0_906_19156)">
<path d="M72.2379 20.1112C71.214 20.1112 70.4759 20.4469 69.7275 20.789V28.5289C70.4444 28.5972 70.8553 28.5972 71.5354 28.5972C73.9929 28.5972 74.3298 27.4718 74.3298 25.9004V22.2037C74.3298 21.0433 73.9447 20.1112 72.2379 20.1112ZM55.9167 19.6888C54.2115 19.6888 53.8224 20.6249 53.8224 21.7842V22.4356H58.0086V21.7842C58.0086 20.6249 57.6195 19.6888 55.9167 19.6888ZM24.2993 27.7449C24.2993 28.6621 24.732 29.1384 25.687 29.1384C26.7115 29.1384 27.3181 28.8044 28.0659 28.4612V26.6252H25.8259C24.7653 26.6252 24.2993 26.8227 24.2993 27.7449ZM88.1143 20.1112C86.4063 20.1112 85.8146 21.0433 85.8146 22.2037V26.4387C85.8146 27.602 86.4063 28.537 88.1143 28.537C89.8177 28.537 90.414 27.602 90.414 26.4387V22.2037C90.4134 21.0433 89.8171 20.1112 88.1143 20.1112ZM15.9292 32.4936H10.9085V20.3413H8.3999V16.154H10.9091V13.6391C10.9091 10.2225 12.325 8.19141 16.3493 8.19141H19.6999V12.3799H17.6056C16.0388 12.3799 15.9355 12.9653 15.9355 14.0575L15.9292 16.1534H19.7228L19.2792 20.3408H15.9292V32.4936ZM33.0878 32.5251H28.9033L28.7225 31.4668C26.8119 32.5251 25.1068 32.6968 23.9819 32.6968C20.9131 32.6968 19.2798 30.6467 19.2798 27.8115C19.2798 24.4667 21.1857 23.2729 24.5954 23.2729H28.0659V22.5498C28.0659 20.8424 27.8702 20.3413 25.2445 20.3413H20.9516L21.3711 16.154H26.0635C31.8246 16.154 33.0878 17.9739 33.0878 22.5837V32.5251ZM47.317 20.6484C44.7131 20.2019 43.9653 20.1037 42.7124 20.1037C40.4621 20.1037 39.782 20.6002 39.782 22.5113V26.1265C39.782 28.0376 40.4621 28.5364 42.7124 28.5364C43.9653 28.5364 44.7131 28.4365 47.317 27.9883V32.0729C45.0362 32.5843 43.5504 32.7186 42.2946 32.7186C36.9043 32.7186 34.7619 29.884 34.7619 25.789V22.8557C34.7619 18.7573 36.9043 15.9176 42.2946 15.9176C43.5504 15.9176 45.0362 16.0524 47.317 16.5661V20.6484ZM63.0287 25.789H53.8219V26.1265C53.8219 28.0376 54.5025 28.5364 56.7523 28.5364C58.7748 28.5364 60.0093 28.4365 62.6086 27.9883V32.0729C60.1017 32.5843 58.7955 32.7186 56.3362 32.7186C50.9454 32.7186 48.8018 29.884 48.8018 25.789V22.435C48.8018 18.852 50.3921 15.9176 55.9161 15.9176C61.4401 15.9176 63.0287 18.8182 63.0287 22.435V25.789ZM79.3494 25.8665C79.3494 29.8243 78.2182 32.7111 71.3655 32.7111C68.8908 32.7111 67.4393 32.4936 64.708 32.0735V9.44945L69.727 8.61209V16.5259C70.8117 16.123 72.2155 15.9181 73.493 15.9181C78.5126 15.9181 79.3488 18.1685 79.3488 21.7848V25.8665H79.3494ZM95.4381 25.9526C95.4381 29.3669 94.0286 32.6784 88.131 32.6784C82.2305 32.6784 80.7945 29.3669 80.7945 25.9526V22.656C80.7945 19.24 82.2305 15.9279 88.131 15.9279C94.0286 15.9279 95.4381 19.24 95.4381 22.656V25.9526ZM111.516 25.9526C111.516 29.3669 110.105 32.6784 104.208 32.6784C98.3077 32.6784 96.8718 29.3669 96.8718 25.9526V22.656C96.8718 19.24 98.3077 15.9279 104.208 15.9279C110.105 15.9279 111.516 19.24 111.516 22.656V25.9526ZM128.016 32.4936H122.575L117.974 24.8128V32.4936H112.954V9.44887L117.974 8.61152V23.4468L122.575 16.154H128.016L122.993 24.1126L128.016 32.4936ZM104.191 20.1112C102.486 20.1112 101.894 21.0433 101.894 22.2037V26.4387C101.894 27.602 102.486 28.537 104.191 28.537C105.894 28.537 106.496 27.602 106.496 26.4387V22.2037C106.496 21.0433 105.894 20.1112 104.191 20.1112ZM130.881 29.6274C131.727 29.6274 132.4 30.3167 132.4 31.1776C132.4 32.0517 131.726 32.7335 130.875 32.7335C130.028 32.7335 129.341 32.0517 129.341 31.1776C129.341 30.3167 130.028 29.6274 130.875 29.6274H130.881ZM130.875 29.8685C130.194 29.8685 129.636 30.4544 129.636 31.1776C129.636 31.9139 130.194 32.4924 130.881 32.4924C131.569 32.4993 132.118 31.9139 132.118 31.1845C132.118 30.455 131.569 29.8685 130.881 29.8685H130.875ZM130.586 32.0798H130.311V30.35C130.455 30.3299 130.593 30.3098 130.8 30.3098C131.062 30.3098 131.233 30.3649 131.338 30.4401C131.439 30.5164 131.494 30.6329 131.494 30.7976C131.494 31.0261 131.343 31.1632 131.158 31.2189V31.2321C131.309 31.2602 131.412 31.3968 131.447 31.6511C131.487 31.9202 131.529 32.023 131.556 32.0792H131.267C131.226 32.023 131.184 31.8651 131.15 31.6373C131.11 31.4175 130.998 31.3348 130.778 31.3348H130.587V32.0798H130.586ZM130.586 31.1225H130.786C131.012 31.1225 131.204 31.0393 131.204 30.8252C131.204 30.6737 131.095 30.5227 130.786 30.5227C130.696 30.5227 130.633 30.5296 130.586 30.5359V31.1225Z" fill="#1A1A1A"/>
</g>
<defs>
<clipPath id="clip0_906_19156">
<rect width="140" height="40" fill="white" transform="translate(0.399902)"/>
</clipPath>
</defs>
</svg>
