<svg width="140" height="40" viewBox="0 0 140 40" fill="none" xmlns="http://www.w3.org/2000/svg">
<path d="M60.6161 29.9821L60.5301 30.0653C59.1464 31.4752 57.5445 32.2226 55.8938 32.2226C52.4487 32.2226 49.9478 29.638 49.9478 26.0716C49.9478 22.5121 52.4487 19.9239 55.8939 19.9239C57.5445 19.9239 59.1464 20.6741 60.5303 22.0879L60.6162 22.1735L62.8318 19.4943L62.7726 19.4215C60.9299 17.2443 58.7189 16.184 56.0008 16.184C53.2733 16.184 50.78 17.1019 48.9832 18.7574C47.0307 20.55 46 23.0782 46 26.0718C46 29.0638 47.0307 31.5983 48.9832 33.3914C50.78 35.0544 53.2733 35.9672 56.0008 35.9672C58.7189 35.9672 60.9299 34.9079 62.7726 32.7296L62.8318 32.6619L60.6161 29.9821ZM65.0708 35.6027H68.985V16.4946H65.0708V35.6027ZM84.3175 31.4478C83.2732 32.0835 82.3013 32.4033 81.4285 32.4033C80.164 32.4033 79.5925 31.7358 79.5925 30.2491V20.1104H83.579V16.5119H79.5925V10.5664L75.7559 12.6193V16.5118H72.4461V20.1102H75.7559V30.8956C75.7559 33.8341 77.4966 35.8417 80.095 35.8939C81.8594 35.9285 82.9229 35.4029 83.5688 35.0185L83.6068 34.9905L84.5489 31.3061L84.3175 31.4476V31.4478ZM87.5594 35.6027H91.4764V16.4946H87.5594V35.6027Z" fill="#1E1B18"/>
<path fill-rule="evenodd" clip-rule="evenodd" d="M93.8207 13.1035C90.2377 8.02781 84.2871 5 78.233 5C72.1812 5 66.2294 8.02797 62.6523 13.1035L62.4688 13.3646H66.9804L67.0303 13.3104C70.1011 10.141 74.1097 8.46485 78.2328 8.46485C82.3567 8.46485 86.3645 10.141 89.4411 13.3104L89.4911 13.3646H94.0012L93.8207 13.1035Z" fill="#1E1B18"/>
</svg>
