<svg width="141" height="40" viewBox="0 0 141 40" fill="none" xmlns="http://www.w3.org/2000/svg">
<g clip-path="url(#clip0_906_19126)">
<path d="M36.156 14.2347C35.3055 10.2817 32.8955 7.5 28.359 7.5H28.2172H28.0754C23.1137 7.5 19.286 10.1353 17.3013 14.2347C16.1672 16.2844 15.6001 18.7733 15.6001 21.4086C15.6001 26.5328 18.2936 29.7537 21.8378 30.6322C22.5466 30.7786 23.2554 30.9251 23.9643 30.9251C24.8148 30.9251 25.5237 30.7786 26.2325 30.6322C27.6501 30.1931 28.7843 29.4609 29.7766 28.4362V30.6322C29.7766 30.7786 29.9184 30.7786 29.9184 30.7786H33.0372L33.179 30.6322L35.3055 19.5053C35.3055 19.3589 35.1638 19.2125 35.0219 19.2125H27.3666C27.2248 19.2125 27.2248 19.3589 27.0831 19.3589L26.516 22.287V22.4334C26.516 22.5799 26.6578 22.5799 26.6578 22.5799H30.4854C29.6349 24.9224 27.7919 26.9721 24.6731 26.9721C21.5542 26.9721 19.7113 24.6296 19.7113 20.823C19.7113 18.3341 20.5619 15.8452 21.8378 14.2347C23.1137 12.6242 25.0984 11.453 27.3666 11.453C29.4931 11.453 30.769 12.4778 31.6195 14.2347C31.7614 14.6739 32.0449 15.1131 32.1866 15.6988C32.1866 15.8452 32.3283 15.8452 32.3283 15.8452L36.0143 14.8203L36.156 14.6739V14.2347ZM44.5203 7.79281C44.5203 7.64641 44.3784 7.5 44.2367 7.5H40.6926C40.5508 7.5 40.5508 7.64641 40.4091 7.64641L36.156 30.3394V30.4857C36.156 30.6322 36.2978 30.6322 36.2978 30.6322H39.9838L40.1255 30.4857L44.5203 7.79281ZM55.0108 25.6544C54.1602 26.8256 53.0261 27.4113 51.4668 27.4113C49.6237 27.4113 48.3479 25.8008 48.3479 23.3119C48.3479 21.555 48.7732 20.2374 49.482 19.0661C50.3325 17.8949 51.4668 17.3092 53.0261 17.3092C54.8691 17.3092 56.1449 18.9197 56.1449 21.4086C56.1449 23.3119 55.7197 24.6296 55.0108 25.6544ZM55.4361 14.2347C54.7273 14.0883 54.1602 13.9419 53.3097 13.9419C52.4591 13.9419 51.6085 14.0883 50.7579 14.2347C49.3403 14.5275 48.0644 15.2595 46.7884 16.5772C44.9455 18.4805 44.0949 20.823 44.0949 24.0439C44.0949 27.2648 45.9379 29.9002 48.9149 30.7786C49.6237 30.7786 50.3325 30.9251 51.0413 30.9251C51.892 30.9251 52.7425 30.7786 53.5932 30.6322C55.0108 30.3394 56.2868 29.6074 57.5626 28.2897C59.4056 26.3864 60.2561 24.0439 60.2561 20.823C60.398 17.602 58.5549 14.9667 55.4361 14.2347ZM73.4403 16.5772C72.8733 15.5523 71.7391 14.6739 70.3215 14.2347C69.7545 14.0883 69.1874 13.9419 68.6203 13.9419C67.9114 13.9419 67.2026 14.0883 66.6357 14.2347C64.3673 14.8203 63.0914 16.5772 63.0914 19.0661C63.0914 21.2622 64.509 22.5799 66.3521 23.4583C68.195 24.3367 69.0457 24.9224 69.0457 25.9473C69.0457 27.1185 68.0533 27.7042 67.0609 27.7042C65.5014 27.7042 64.509 26.8256 64.0838 25.0687C64.0838 24.9224 63.9421 24.9224 63.8002 24.9224H63.6585L60.6814 26.2399C60.5397 26.2399 60.5397 26.3864 60.5397 26.3864C60.965 27.9968 62.2409 30.0466 64.6509 30.7786C65.2179 30.9251 65.785 31.0714 66.4938 31.0714C67.3445 31.0714 68.0533 30.9251 68.7621 30.7786C71.1721 30.1931 72.7315 28.4362 72.7315 25.3616C72.7315 23.0191 71.0303 21.9942 69.4709 21.1158C68.3367 20.5302 66.7774 20.091 66.7774 18.9197C66.7774 18.0413 67.4862 17.4556 68.3367 17.4556C69.1874 17.4556 70.0379 17.8949 70.605 18.6269L70.7467 18.7733H70.8886L73.2986 17.0164C73.4403 16.7236 73.4403 16.7236 73.4403 16.5772ZM83.3639 14.2347C82.7968 14.0883 82.2298 13.9419 81.6627 13.9419C80.9539 13.9419 80.2451 14.0883 79.678 14.2347C77.4098 14.8203 76.1339 16.5772 76.1339 19.0661C76.1339 21.2622 77.5515 22.5799 79.3944 23.4583C81.2374 24.3367 82.088 24.9224 82.088 25.9473C82.088 27.1185 81.0956 27.7042 80.1032 27.7042C78.5439 27.7042 77.5515 26.6793 77.1262 25.0687C77.1262 24.9224 76.9844 24.9224 76.9844 24.9224H76.8427L73.7238 25.9473C73.5821 25.9473 73.5821 26.0936 73.5821 26.0936C74.0074 27.7042 75.2833 29.7537 77.6932 30.4857C78.2603 30.6322 78.8274 30.7786 79.5363 30.7786C80.3868 30.7786 81.0956 30.6322 81.8044 30.4857C84.2144 29.9002 85.7739 28.1433 85.7739 25.0687C85.7739 22.7263 84.0727 21.7014 82.5132 20.823C81.3792 20.2374 79.8198 19.7981 79.8198 18.6269C79.8198 17.7484 80.5286 17.1628 81.3792 17.1628C82.2298 17.1628 83.0803 17.602 83.6475 18.3341L83.7892 18.4805H83.931L86.4827 16.5772L86.6244 16.4308V16.2844C85.9156 15.4059 84.7815 14.5275 83.3639 14.2347ZM93.5709 14.2347H90.0268C89.8851 14.2347 89.8851 14.2347 89.7433 14.3811L86.7663 30.3394V30.4857C86.7663 30.6322 86.908 30.6322 86.908 30.6322H90.5939L90.7356 30.4857L93.7128 14.3811C93.8545 14.2347 93.7128 14.2347 93.5709 14.2347ZM99.0998 20.5302C99.8086 18.7733 101.368 17.4556 103.353 17.4556C105.337 17.4556 106.33 18.4805 106.33 20.5302H99.0998ZM105.905 14.2347C105.337 14.0883 104.629 13.9419 103.92 13.9419C103.069 13.9419 102.36 14.0883 101.652 14.2347C97.2569 15.2595 94.4216 19.3589 94.4216 23.7511C94.4216 27.5576 96.4064 30.0466 99.2416 30.7786C99.8086 30.9251 100.518 31.0714 101.226 31.0714C102.077 31.0714 102.927 30.9251 103.636 30.7786C105.905 30.1931 107.464 28.8754 109.023 26.6793V26.5328C109.023 26.3864 109.023 26.3864 108.882 26.3864L106.188 24.9224H106.046C105.905 24.9224 105.905 24.9224 105.905 25.0687C104.77 26.8256 103.495 27.7042 101.652 27.7042C99.5252 27.7042 98.391 26.2399 98.391 24.4832V23.8975H109.874L110.016 23.7511C110.157 23.3119 110.441 22.1406 110.441 20.6766C110.299 17.4556 108.74 14.9667 105.905 14.2347ZM123.058 17.8949H123.342C123.342 17.8949 123.483 17.8949 123.483 17.7484L124.618 14.5275V14.3811C124.618 14.2347 124.618 14.2347 124.476 14.2347C124.334 14.2347 124.334 14.2347 124.192 14.0883C123.767 13.9419 123.342 13.7955 122.491 13.7955C121.924 13.7955 121.357 13.9419 120.79 14.0883C119.656 14.5275 118.522 15.2595 117.529 16.5772L117.955 14.3811C117.955 14.2347 117.813 14.0883 117.671 14.0883H114.127C113.985 14.0883 113.985 14.2347 113.843 14.2347L110.866 30.1931V30.3394C110.866 30.4857 111.008 30.4857 111.008 30.4857H114.694L114.836 30.3394L115.97 24.6296C116.962 19.5053 119.656 17.3092 121.641 17.3092C122.208 17.602 122.633 17.602 123.058 17.8949ZM92.5787 7.79281C91.3028 7.79281 90.3104 8.81766 90.3104 10.1353C90.3104 11.453 91.3028 12.4778 92.5787 12.4778C93.8545 12.4778 94.8469 11.453 94.8469 10.1353C94.8469 8.81766 93.8545 7.79281 92.5787 7.79281ZM123.2 26.2399C121.924 26.2399 120.932 27.2648 120.932 28.5825C120.932 29.4609 121.357 30.1931 122.066 30.6322C122.349 30.7786 122.775 30.9251 123.2 30.9251C123.625 30.9251 124.051 30.7786 124.334 30.6322C125.043 30.1931 125.468 29.4609 125.468 28.5825C125.468 27.2648 124.476 26.2399 123.2 26.2399Z" fill="#1A1919"/>
</g>
<defs>
<clipPath id="clip0_906_19126">
<rect width="140" height="40" fill="white" transform="translate(0.600098)"/>
</clipPath>
</defs>
</svg>
