<svg width="141" height="40" viewBox="0 0 141 40" fill="none" xmlns="http://www.w3.org/2000/svg">
<g clip-path="url(#clip0_906_19169)">
<path d="M118.779 24.8047C117.193 24.8047 115.908 26.1064 115.908 27.7125C115.908 29.3181 117.193 30.6202 118.779 30.6202C120.364 30.6202 121.649 29.3181 121.649 27.7125C121.649 26.1064 120.364 24.8047 118.779 24.8047Z" fill="#1A1A1A"/>
<path d="M109.348 15.8084V14.8184H113.922V30.295H109.348V29.3059C108.056 30.1987 106.496 30.7234 104.814 30.7234C100.361 30.7234 96.752 27.0672 96.752 22.557C96.752 18.0468 100.361 14.3906 104.814 14.3906C106.496 14.3906 108.056 14.9154 109.348 15.8084ZM105.188 26.539C107.477 26.539 109.333 24.7562 109.333 22.557C109.333 20.3579 107.477 18.5755 105.188 18.5755C102.899 18.5755 101.043 20.3579 101.043 22.557C101.043 24.7562 102.899 26.539 105.188 26.539Z" fill="#1A1A1A"/>
<path d="M88.6237 14.4023C86.7964 14.4023 85.0672 14.977 83.911 16.5624V14.8195H79.3564V30.2952H83.9668V22.1622C83.9668 19.8087 85.5248 18.6562 87.4006 18.6562C89.4109 18.6562 90.5668 19.8728 90.5668 22.1301V30.2952H95.1356V20.4533C95.1356 16.8517 92.3087 14.4023 88.6237 14.4023Z" fill="#1A1A1A"/>
<path d="M72.741 16.8399V14.8242H68.0576V30.3006H72.7515V23.0748C72.7515 20.6369 75.3598 19.3265 77.1697 19.3265C77.1881 19.3265 77.2055 19.3283 77.2241 19.3285V14.8251C75.3665 14.8251 73.658 15.6308 72.741 16.8399Z" fill="#1A1A1A"/>
<path d="M61.0901 15.8084V14.8184H65.6645V30.295H61.0901V29.3059C59.7979 30.1987 58.2381 30.7234 56.5558 30.7234C52.1034 30.7234 48.4941 27.0672 48.4941 22.557C48.4941 18.0468 52.1034 14.3906 56.5558 14.3906C58.2381 14.3906 59.7979 14.9154 61.0901 15.8084ZM56.93 26.539C59.2192 26.539 61.0749 24.7562 61.0749 22.557C61.0749 20.3579 59.2192 18.5755 56.93 18.5755C54.6411 18.5755 52.7852 20.3579 52.7852 22.557C52.7852 24.7562 54.6411 26.539 56.93 26.539Z" fill="#1A1A1A"/>
<path d="M41.8315 30.2992H46.6194V7.92578H41.8315V30.2992Z" fill="#1A1A1A"/>
<path d="M38.5316 7.91797H33.5704C33.5704 12.0372 31.7008 15.8179 28.4412 18.2914L26.4756 19.7826L34.0916 30.3027H40.3534L33.3456 20.6225C36.6674 17.2718 38.5316 12.7639 38.5316 7.91797Z" fill="#1A1A1A"/>
<path d="M20.7998 30.3017H25.8696V7.91797H20.7998V30.3017Z" fill="#1A1A1A"/>
</g>
<defs>
<clipPath id="clip0_906_19169">
<rect width="140" height="40" fill="white" transform="translate(0.799805)"/>
</clipPath>
</defs>
</svg>
