<svg width="140" height="40" viewBox="0 0 140 40" fill="none" xmlns="http://www.w3.org/2000/svg">
<mask id="mask0_6274_32876" style="mask-type:luminance" maskUnits="userSpaceOnUse" x="14" y="9" width="112" height="23">
<path d="M126 9H14V31.1982H126V9Z" fill="white"/>
</mask>
<g mask="url(#mask0_6274_32876)">
<path fill-rule="evenodd" clip-rule="evenodd" d="M31.1611 14.1978C31.1611 17.0688 28.8323 19.3963 25.9594 19.3963C23.0864 19.3963 20.7575 17.0688 20.7575 14.1978C20.7575 11.3275 23.0864 9 25.9594 9C28.8323 9 31.1611 11.3275 31.1611 14.1978ZM19.2019 20.6959C16.329 20.6959 14 23.0227 14 25.8936C14 28.7644 16.329 31.0917 19.2019 31.0917C22.0749 31.0917 24.404 28.7644 24.404 25.8936C24.404 23.0227 22.0749 20.6959 19.2019 20.6959ZM32.7168 20.6955C29.8438 20.6955 27.5149 23.0227 27.5149 25.8936C27.5149 28.7644 29.8438 31.0917 32.7168 31.0917C35.5896 31.0917 37.9186 28.7644 37.9186 25.8936C37.9186 23.0227 35.5896 20.6955 32.7168 20.6955Z" fill="#1E1B18"/>
<path fill-rule="evenodd" clip-rule="evenodd" d="M56.2224 25.8339C56.2902 26.6049 56.9075 27.5866 57.9768 27.5866H58.6026C58.845 27.5866 59.0439 27.3879 59.0439 27.1453V13.3946H59.0411C59.0285 13.1629 58.837 12.9774 58.6026 12.9774H56.6638C56.4293 12.9774 56.2377 13.1629 56.2247 13.3946H56.2224V14.5119C55.0345 13.0487 53.1615 12.4414 51.2835 12.4414C47.0145 12.4414 43.5537 15.9022 43.5537 20.1715C43.5537 24.4411 47.0145 27.902 51.2835 27.902V27.9023C53.1615 27.9023 55.2084 27.1738 56.2221 25.8322L56.2224 25.8339ZM51.291 25.1966C48.5759 25.1966 46.3749 22.947 46.3749 20.1715C46.3749 17.3966 48.5759 15.1469 51.291 15.1469C54.006 15.1469 56.2068 17.3966 56.2068 20.1715C56.2068 22.947 54.006 25.1966 51.291 25.1966Z" fill="#1E1B18"/>
<path fill-rule="evenodd" clip-rule="evenodd" d="M87.8113 25.8339C87.8791 26.6049 88.4963 27.5866 89.5657 27.5866H90.1914C90.4341 27.5866 90.6326 27.3879 90.6326 27.1453V13.3946H90.6301C90.6174 13.1629 90.4257 12.9774 90.1914 12.9774H88.2526C88.0182 12.9774 87.8267 13.1629 87.8134 13.3946H87.8113V14.5119C86.6232 13.0487 84.7504 12.4414 82.8722 12.4414C78.6032 12.4414 75.1426 15.9022 75.1426 20.1715C75.1426 24.4411 78.6032 27.902 82.8722 27.902V27.9023C84.7504 27.9023 86.7973 27.1738 87.811 25.8322L87.8113 25.8339ZM82.8797 25.1966C80.1648 25.1966 77.9636 22.947 77.9636 20.1715C77.9636 17.3966 80.1648 15.1469 82.8797 15.1469C85.5949 15.1469 87.7957 17.3966 87.7957 20.1715C87.7957 22.947 85.5949 25.1966 82.8797 25.1966Z" fill="#1E1B18"/>
<path fill-rule="evenodd" clip-rule="evenodd" d="M123.123 25.8339C123.191 26.6049 123.808 27.5866 124.877 27.5866H125.503C125.746 27.5866 125.944 27.3879 125.944 27.1453V13.3946H125.942C125.929 13.1629 125.737 12.9774 125.503 12.9774H123.564C123.33 12.9774 123.138 13.1629 123.125 13.3946H123.123V14.5119C121.935 13.0487 120.062 12.4414 118.184 12.4414C113.915 12.4414 110.454 15.9022 110.454 20.1715C110.454 24.4411 113.915 27.902 118.184 27.902V27.9023C120.062 27.9023 122.109 27.1738 123.123 25.8322L123.123 25.8339ZM118.192 25.1966C115.476 25.1966 113.275 22.947 113.275 20.1715C113.275 17.3966 115.476 15.1469 118.192 15.1469C120.907 15.1469 123.107 17.3966 123.107 20.1715C123.107 22.947 120.907 25.1966 118.192 25.1966Z" fill="#1E1B18"/>
<path fill-rule="evenodd" clip-rule="evenodd" d="M108.004 26.3048L108.003 19.1894H108.003C108.003 15.1785 105.473 12.4727 101.438 12.4727C99.5116 12.4727 97.9326 13.5865 97.375 14.5433C97.2545 13.7951 96.8572 13.0087 95.6255 13.0087H94.9978C94.755 13.0087 94.5566 13.2075 94.5566 13.4501V25.8664V25.8684V27.202H94.5591C94.5719 27.4333 94.7635 27.6191 94.998 27.6191H96.9369C96.9665 27.6191 96.9957 27.6156 97.0239 27.61C97.0367 27.6075 97.0485 27.6026 97.061 27.5991C97.0755 27.5946 97.0905 27.5912 97.1042 27.5855C97.1215 27.5784 97.137 27.5687 97.1532 27.5599C97.1611 27.555 97.1692 27.5516 97.1768 27.5466C97.1962 27.5342 97.214 27.5191 97.2311 27.5038C97.2338 27.5009 97.2372 27.499 97.2402 27.4964C97.2593 27.4777 97.277 27.4572 97.2926 27.436L97.2927 27.4355C97.3413 27.3689 97.3707 27.2886 97.3755 27.202H97.378V19.0791C97.378 16.925 99.1245 15.1785 101.279 15.1785C103.433 15.1785 105.179 16.925 105.179 19.0791L105.181 25.8688L105.182 25.8664C105.182 25.8724 105.183 25.8787 105.183 25.885V27.202H105.185C105.198 27.4333 105.39 27.6191 105.624 27.6191H107.563C107.593 27.6191 107.622 27.6156 107.65 27.61C107.661 27.608 107.672 27.6034 107.683 27.6001C107.699 27.5957 107.715 27.5917 107.731 27.5855C107.746 27.579 107.761 27.5698 107.776 27.5613C107.785 27.5562 107.794 27.5525 107.803 27.5466C107.821 27.5348 107.838 27.5206 107.854 27.5066C107.858 27.5029 107.862 27.4999 107.866 27.4961C107.885 27.4784 107.901 27.4592 107.916 27.4392C107.917 27.4377 107.918 27.4364 107.919 27.435C107.967 27.3689 107.996 27.2892 108.001 27.2032C108.001 27.2026 108.002 27.202 108.002 27.202H108.004V26.3051L108.004 26.3048Z" fill="#1E1B18"/>
<path fill-rule="evenodd" clip-rule="evenodd" d="M63.6762 23.8647C64.9705 24.7614 66.3833 25.1968 67.741 25.1968C69.0345 25.1968 70.3716 24.5263 70.3716 23.3592C70.3716 21.801 67.4578 21.5585 65.6272 20.9363C63.7961 20.3141 62.2192 19.0279 62.2192 16.945C62.2192 13.7578 65.059 12.4414 67.7095 12.4414C69.3889 12.4414 71.1217 12.9952 72.245 13.7885C72.632 14.0817 72.3963 14.4182 72.3963 14.4182L71.324 15.9498C71.2034 16.1223 70.9927 16.2714 70.6902 16.0847C70.3876 15.8981 69.3266 15.147 67.7095 15.147C66.0924 15.147 65.1182 15.8938 65.1182 16.8195C65.1182 17.9296 66.3844 18.2787 67.8672 18.6571C70.4514 19.3537 73.2706 20.191 73.2706 23.3592C73.2706 26.1674 70.644 27.9029 67.741 27.9029C65.541 27.9029 63.668 27.2758 62.0972 26.1228C61.7699 25.7954 61.9986 25.4913 61.9986 25.4913L63.0656 23.9675C63.2827 23.6825 63.5564 23.7819 63.6762 23.8647Z" fill="#1E1B18"/>
</g>
</svg>
