<svg width="140" height="40" viewBox="0 0 140 40" fill="none" xmlns="http://www.w3.org/2000/svg">
<path d="M8 35V4H131.135V34.9213L8 35Z" fill="#1A1A1A"/>
<path d="M8.39062 34.6077H38.2104V4.39453H8.39062V34.6077Z" fill="#414449"/>
<path d="M38.2109 34.6046H130.739V25.3203H38.2109V34.6046Z" fill="#222833"/>
<path d="M68.9726 29.3331H69.4447C69.9955 29.3331 70.3102 29.097 70.3102 28.7036C70.3102 28.3102 69.9955 28.0742 69.5234 28.0742H68.9726V29.3331ZM68.4219 27.5234H69.4447C70.2315 27.5234 71.0183 27.6808 71.0183 28.625C71.0183 29.097 70.6249 29.4904 70.1528 29.5691C70.3102 29.6478 70.3889 29.7265 70.5462 29.9625L71.333 31.6148H70.7036L70.0742 30.1986C69.9168 29.8052 69.6808 29.8052 69.366 29.8052H68.9726V31.6148H68.4219V27.5234Z" fill="white"/>
<path d="M75.1953 27.5234H75.9821L77.7918 30.9067V27.5234H78.4212V31.6935H77.6344L75.8248 28.3102H75.7461V31.6935H75.1953V27.5234Z" fill="white"/>
<path d="M84.1618 28.1529L83.375 30.1986H85.0272L84.1618 28.1529ZM83.9257 27.5234H84.5552L86.2861 31.6935H85.6567L85.2633 30.6706H83.2963L82.9029 31.6935H82.2734L83.9257 27.5234Z" fill="white"/>
<path d="M90.3761 28.0742H89.1172V27.5234H92.2644V28.0742H91.0055V31.6935H90.3761V28.0742Z" fill="white"/>
<path d="M95.9688 31.6935H96.5982V27.5234H95.9688V31.6935Z" fill="white"/>
<path d="M102.576 31.2214C103.521 31.2214 103.914 30.4346 103.914 29.5691C103.914 28.7036 103.442 27.9168 102.576 27.9168C101.711 27.9168 101.239 28.7036 101.239 29.5691C101.239 30.4346 101.632 31.2214 102.576 31.2214ZM102.576 27.5234C103.835 27.5234 104.543 28.4676 104.543 29.6478C104.543 30.9067 103.835 31.7722 102.576 31.7722C101.317 31.7722 100.609 30.9067 100.609 29.6478C100.609 28.3889 101.317 27.5234 102.576 27.5234Z" fill="white"/>
<path d="M108.555 27.5234H109.341L111.151 30.9067V27.5234H111.702V31.6935H110.994L109.105 28.3102V31.6935H108.555V27.5234Z" fill="white"/>
<path d="M117.522 28.1529L116.735 30.1986H118.387L117.522 28.1529ZM117.207 27.5234H117.836L119.567 31.6935H118.938L118.545 30.6706H116.578L116.184 31.6935H115.555L117.207 27.5234Z" fill="white"/>
<path d="M123.344 27.5234H123.895V31.1427H125.625V31.6935H123.344V27.5234Z" fill="white"/>
<path d="M23.3439 8.25C24.4455 9.27284 25.6257 10.3744 26.6485 11.4759L25.4683 13.0495V13.1282L28.6942 14.5444L30.8972 13.0495L29.5597 11.5546V11.4759C30.8972 10.5317 32.0775 9.58756 33.3363 8.72208L32.7069 15.3312H13.981L13.3516 8.72208C14.6891 9.58756 15.7906 10.5317 17.1282 11.4759V11.5546L15.7906 13.0495L17.9937 14.5444L21.2196 13.1282V13.0495L20.0394 11.4759C20.9835 10.3744 22.2424 9.27284 23.3439 8.25Z" fill="#FEFEFE"/>
<path d="M32.5518 16.5078L32.3944 18.7109H25.4706V26.2642H28.8538C29.6406 26.2642 30.4274 25.4774 30.2701 24.9266C30.1127 24.1398 29.4046 23.6677 28.7751 23.2743C28.9325 23.2743 31.2142 21.5433 32.3158 20.8352C32.2371 21.3073 31.529 27.523 31.4503 27.6017L23.3462 30.6702H23.1888L15.2421 27.6017C15.2421 27.523 14.4553 21.3073 14.3767 20.8352C15.4782 21.5433 17.7599 23.2743 17.9173 23.2743C17.2878 23.6677 16.5797 24.1398 16.4224 24.9266C16.265 25.4774 17.0518 26.2642 17.8386 26.2642H21.2218V18.7109H14.298L14.1406 16.5078H32.5518Z" fill="#FEFEFE"/>
<path d="M44.5842 14.3875C45.9217 14.3875 47.4953 13.758 47.4953 12.1844C47.4953 10.5321 46.0791 9.9027 44.5842 9.9027V14.3875ZM43.3253 12.5778C43.3253 10.4535 43.2466 10.0601 41.673 9.98138V9.74534L45.0562 9.66666C48.5968 9.58798 48.8329 11.3189 48.8329 11.9484C48.8329 13.1286 48.1248 13.8367 47.1019 14.2301L47.1806 14.3088C48.2821 16.1971 49.6197 18.6362 51.9014 19.1083L51.8227 19.3443C50.3278 19.2656 49.2263 19.3443 48.4395 18.4788C47.4953 17.5347 46.7872 16.2758 46.4725 15.6464C45.9217 14.4662 45.4496 14.7809 44.4268 14.6235V16.9052C44.4268 18.4788 44.4268 18.7149 46.3938 19.0296V19.2656H41.5156V19.0296C43.1679 18.7936 43.1679 18.4002 43.2466 16.9052L43.3253 12.5778Z" fill="#FEFEFE"/>
<path d="M53.9463 13.2059C52.4514 13.2059 51.8219 14.7795 51.8219 16.1171C51.8219 17.4546 52.5301 19.1069 54.025 19.1069C55.4412 19.1069 56.0707 17.4546 56.0707 16.2744C56.1493 14.9369 55.5199 13.2059 53.9463 13.2059ZM53.9463 19.343C52.058 19.343 50.4844 18.0841 50.4844 16.1171C50.4844 14.1501 52.058 12.8125 53.9463 12.8125C55.8346 12.8125 57.3296 14.0714 57.3296 16.0384C57.4082 18.0054 55.8346 19.343 53.9463 19.343Z" fill="#FEFEFE"/>
<path d="M57.8822 14.3046C57.6462 13.6752 57.5675 13.5178 56.8594 13.4392V13.2031H59.7705V13.4392C58.7477 13.5178 58.9837 14.1473 59.2985 14.8554L60.636 18.4747L61.5015 15.9569C62.1309 14.1473 62.2096 13.5965 61.1868 13.5178V13.2818H63.6259V13.5178C62.9964 13.5965 62.8391 13.8326 62.5244 14.3833L61.9736 15.6422L59.8492 21.0711C59.2985 22.4087 58.9837 22.8021 58.433 22.8021C58.0396 22.8021 57.7249 22.4874 57.7249 22.094C57.7249 21.7793 57.8822 21.5432 58.1969 21.4645C58.3543 21.5432 58.7477 21.8579 58.9051 21.8579C59.2198 21.8579 59.4558 21.0711 59.5345 20.9138L60.0066 19.8123L57.8822 14.3046Z" fill="#FEFEFE"/>
<path d="M64.4938 16.982C64.4151 17.1394 64.4151 17.3754 64.4151 17.5328C64.4151 18.1622 64.7299 18.6343 65.3593 18.6343C65.7527 18.6343 66.1461 18.3982 66.3821 18.0835V15.9592L64.4938 16.982ZM66.3821 15.7231C66.4608 14.1495 66.0674 13.5201 64.9659 13.5201C64.0217 13.5201 64.1004 13.9921 64.1004 14.7789L63.471 14.8576C63.3923 14.8576 63.1562 14.8576 63.1562 14.7003C63.1562 14.3069 64.7299 12.8906 65.8314 12.8906C67.0903 12.8906 67.4837 13.9135 67.4837 15.015V16.982C67.4837 18.2409 67.405 19.0277 68.6639 18.7916V19.1064C68.1131 19.2637 67.641 19.3424 67.2476 19.3424C66.6969 19.3424 66.4608 19.0277 66.3821 18.4769C65.9101 18.949 65.3593 19.4211 64.5725 19.4211C63.707 19.4211 63.1562 18.6343 63.1562 17.8475C63.1562 17.6114 63.1562 17.4541 63.2349 17.218L66.3821 15.7231Z" fill="#FEFEFE"/>
<path d="M68.0312 19.2636V18.9489C68.9754 18.8702 69.1328 18.6342 69.1328 17.69V11.7103C69.1328 11.0809 69.1328 10.9235 68.4247 10.4514V10.2154L69.9983 9.58594L70.1556 9.66462V17.6113C70.1556 18.7915 70.2343 18.8702 71.2571 19.0276V19.2636H68.0312Z" fill="#FEFEFE"/>
<path d="M82.5876 16.982C82.5089 17.1394 82.5089 17.3754 82.5089 17.5328C82.5089 18.1622 82.8236 18.6343 83.453 18.6343C83.8464 18.6343 84.2398 18.3982 84.4759 18.0835V15.9592L82.5876 16.982ZM84.4759 15.7231C84.5546 14.1495 84.1612 13.5201 83.0596 13.5201C82.1155 13.5201 82.1942 13.9921 82.1942 14.7789L81.5647 14.8576C81.486 14.8576 81.25 14.8576 81.25 14.7003C81.25 14.3069 82.7449 12.8906 83.9251 12.8906C85.184 12.8906 85.5774 13.9135 85.5774 15.015V16.982C85.5774 18.2409 85.4201 19.1064 86.7576 18.7916V19.1064C86.2069 19.2637 85.7348 19.3424 85.3414 19.3424C84.7906 19.3424 84.5546 19.0277 84.4759 18.4769C84.0038 18.949 83.453 19.4211 82.6662 19.4211C81.8008 19.4211 81.25 18.6343 81.25 17.8475C81.25 17.6114 81.25 17.4541 81.3287 17.218L84.4759 15.7231Z" fill="#FEFEFE"/>
<path d="M80.3903 12.5763H80.1543C79.9182 11.0027 78.9741 9.82253 77.3218 9.82253C74.804 9.82253 73.3091 11.9469 73.3091 14.386C73.3091 17.1398 75.4335 19.1068 77.4005 19.1068C79.2101 19.1068 79.9182 17.7692 80.5477 16.1956L80.705 16.2743C80.5477 17.1398 80.3116 18.0053 79.9182 18.7921C79.0527 19.2642 78.0299 19.4215 77.0857 19.4215C74.1746 19.4215 71.5781 17.6906 71.5781 14.5433C71.5781 12.0256 73.5451 9.50781 77.1644 9.50781C78.1873 9.50781 79.2888 9.74385 80.2329 10.2946V12.5763H80.3903Z" fill="#FEFEFE"/>
<path d="M115.791 16.982C115.713 17.1394 115.713 17.3754 115.713 17.5328C115.713 18.1622 116.027 18.6343 116.657 18.6343C117.05 18.6343 117.444 18.3982 117.68 18.0835V15.9592L115.791 16.982ZM117.68 15.7231C117.758 14.1495 117.365 13.5201 116.263 13.5201C115.319 13.5201 115.398 13.9921 115.398 14.7789L114.69 14.8576C114.611 14.8576 114.375 14.8576 114.375 14.7003C114.375 14.3069 115.949 12.8906 117.05 12.8906C118.309 12.8906 118.702 13.9135 118.702 15.015V16.982C118.702 18.2409 118.466 19.0277 119.804 18.949V19.185C119.253 19.3424 118.938 19.3424 118.545 19.3424C117.994 19.3424 117.758 19.0277 117.68 18.4769C117.207 18.949 116.657 19.4211 115.87 19.4211C115.004 19.4211 114.454 18.6343 114.454 17.8475C114.454 17.6114 114.454 17.4541 114.532 17.218L117.68 15.7231Z" fill="#FEFEFE"/>
<path d="M88.3347 17.6114C88.3347 18.7916 88.4134 18.8703 89.751 19.0277V19.2637H86.2891V18.949C87.2332 18.8703 87.3119 18.6343 87.3119 17.5328V14.9363C87.3119 14.3069 87.3119 14.1495 86.6038 13.6774V13.5201L88.2561 12.8906L88.4134 12.9693L88.3347 14.6216C88.6495 13.9135 89.4363 12.8906 90.3018 12.8906C90.6952 12.8906 91.0099 13.1267 91.0099 13.5201C91.0099 13.9135 90.6165 14.2282 90.3018 14.3855C90.0657 14.2282 89.751 13.9135 89.4363 13.9135C88.2561 13.9921 88.3347 15.9592 88.3347 16.1165V17.6114Z" fill="#FEFEFE"/>
<path d="M93.688 10.5284C93.688 10.9218 93.3733 11.2366 92.9799 11.2366C92.5865 11.2366 92.2717 10.9218 92.2717 10.5284C92.2717 10.135 92.5865 9.82031 92.9799 9.82031C93.3733 9.82031 93.688 10.135 93.688 10.5284ZM91.4062 19.2619V19.0259C92.4291 18.8685 92.5078 18.7112 92.5078 17.6097V14.9345C92.5078 14.3051 92.5078 14.1477 91.6423 13.6756V13.5183L93.4519 12.8888L93.6093 12.9675V17.6097C93.6093 18.7899 93.688 18.8685 94.7108 19.0259V19.2619H91.4062Z" fill="#FEFEFE"/>
<path d="M96.2784 16.3524C96.2784 17.69 96.4358 18.9489 98.0094 18.9489C98.7962 18.9489 100.055 18.3194 100.055 16.3524C100.055 14.6215 98.9535 13.5986 97.616 13.5986C97.1439 13.5986 96.7505 13.756 96.3571 13.9133L96.2784 16.3524ZM95.1769 11.6316C95.1769 11.0022 95.1769 10.8448 94.4688 10.3727V10.2154L96.0424 9.58594L96.1997 9.66462V13.6773C96.9078 13.2839 97.7733 12.8905 98.5601 12.8905C100.134 12.8905 101.157 14.3068 101.157 15.8017C101.157 18.3194 98.8748 19.421 97.3799 19.421C96.5144 19.421 95.885 19.1849 95.1769 18.8702V11.6316Z" fill="#FEFEFE"/>
<path d="M102.966 16.3524C102.966 17.69 103.123 18.9489 104.697 18.9489C105.484 18.9489 106.743 18.3194 106.743 16.3524C106.743 14.6215 105.641 13.5986 104.303 13.5986C103.831 13.5986 103.438 13.756 103.045 13.9133L102.966 16.3524ZM101.864 11.6316C101.864 11.0022 101.864 10.8448 101.156 10.3727V10.2154L102.73 9.58594L102.887 9.66462V13.6773C103.595 13.2839 104.461 12.8905 105.248 12.8905C106.821 12.8905 107.844 14.3068 107.844 15.8017C107.844 18.3194 105.562 19.421 104.067 19.421C103.202 19.421 102.572 19.1849 101.864 18.8702V11.6316Z" fill="#FEFEFE"/>
<path d="M112.489 14.5429C112.331 13.9135 111.938 13.1267 111.23 13.1267C110.443 13.1267 109.971 13.9135 109.814 14.6216L112.489 14.5429ZM109.735 15.6444C109.656 17.1394 110.6 18.4769 112.174 18.4769C112.882 18.4769 113.433 18.1622 113.826 17.6114L114.062 17.7688C113.512 18.713 112.567 19.4211 111.466 19.4211C109.735 19.4211 108.555 18.0048 108.555 16.2739C108.555 14.4642 109.814 12.8906 111.702 12.8906C112.961 12.8906 113.826 13.6774 113.826 14.9363H109.814L109.735 15.6444Z" fill="#FEFEFE"/>
<path d="M120.43 14.9363C120.43 14.3069 120.43 14.1495 119.722 13.6774V13.5201L121.374 12.8906L121.531 12.9693L121.452 13.9921C122.239 13.3627 123.026 12.8906 123.892 12.8906C125.544 12.8906 125.623 14.3069 125.623 15.0937V17.6114C125.623 18.7916 125.701 18.8703 126.724 19.0277V19.2637H123.498V19.0277C124.521 18.8703 124.6 18.713 124.6 17.6114V15.9592C124.6 14.9363 124.678 13.5987 122.947 13.5987C122.397 13.5987 122.003 13.7561 121.531 14.2282V17.6114C121.531 18.7916 121.61 18.8703 122.633 19.0277V19.2637H119.328V19.0277C120.351 18.949 120.43 18.713 120.43 17.6114V14.9363Z" fill="#FEFEFE"/>
<path d="M43.4062 31.6935H43.957V27.5234H43.4062V31.6935Z" fill="white"/>
<path d="M48.2031 27.5234H48.9899L50.7996 30.9067V27.5234H51.429V31.6935H50.6422L48.7539 28.3102V31.6935H48.2031V27.5234Z" fill="white"/>
<path d="M56.3839 28.0742H55.125V27.5234H58.2722V28.0742H57.0133V31.6935H56.3839V28.0742Z" fill="white"/>
<path d="M62.0547 27.5234H64.3364V28.0742H62.6055V29.2544H64.1791V29.8052H62.6055V31.1427H64.3364V31.6935H62.0547V27.5234Z" fill="white"/>
</svg>
