<svg width="141" height="40" viewBox="0 0 141 40" fill="none" xmlns="http://www.w3.org/2000/svg">
<path d="M11.417 29.824L14.2329 33.9092H14.4454L17.2689 29.824L18.2785 29.8164L14.9464 34.6728H13.7472L10.3999 29.8164L11.417 29.824Z" fill="#1A1A1A"/>
<path d="M26.7742 32.3055H23.4346C22.8956 32.3055 22.5313 32.3589 22.3416 32.4735C22.1518 32.588 22.0607 32.7637 22.0607 33.0156V33.3669C22.0607 33.596 22.167 33.7715 22.3719 33.8938C22.5769 34.0159 22.9336 34.077 23.4421 34.077H26.7818C27.2752 34.077 27.6243 34.0083 27.8369 33.8709C28.0493 33.7334 28.1556 33.5043 28.1556 33.1912C28.1556 32.6033 27.7002 32.3055 26.7818 32.3055H26.7742ZM23.1082 31.7023H26.9943C27.3207 31.7023 27.5863 31.7405 27.7837 31.8168C27.981 31.8931 28.1025 31.9924 28.1481 32.107V31.4197C28.1481 31.1219 28.0341 30.8853 27.7989 30.7096C27.5332 30.5111 27.1385 30.4119 26.6073 30.4119H23.9583C23.4421 30.4119 23.0551 30.4729 22.797 30.5951C22.5389 30.7173 22.4099 30.8853 22.4099 31.0991V31.2136H21.4687V31.0991C21.4687 30.702 21.666 30.3889 22.0607 30.1522C22.4554 29.9231 23.0095 29.8086 23.7306 29.8086H26.7287C27.5484 29.8086 28.1556 29.9613 28.5503 30.2667C28.9146 30.5493 29.0968 30.9616 29.0968 31.5114V34.6573H28.1784V34.2755C28.0493 34.3901 27.8975 34.4893 27.723 34.5581C27.5484 34.6268 27.3207 34.665 27.0474 34.665H23.0702C21.7951 34.665 21.1499 34.2527 21.1499 33.428V32.84C21.1499 32.4964 21.3017 32.2215 21.6053 32.023C21.9393 31.8092 22.4402 31.6946 23.1082 31.6946" fill="#1A1A1A"/>
<path d="M34.2167 27.8477H33.2983V34.674H34.2167V27.8477Z" fill="#1A1A1A"/>
<path d="M43.5313 30.4119H40.6622C40.1993 30.4119 39.8121 30.5264 39.5161 30.7478C39.2201 30.9693 39.0683 31.2594 39.0683 31.6259H45.2163C45.2163 31.2747 45.0645 30.9845 44.7609 30.7554C44.4573 30.5264 44.0474 30.4195 43.5237 30.4195L43.5313 30.4119ZM40.8292 34.6802C39.038 34.6802 38.1499 34.077 38.1499 32.8629V31.7023C38.1499 31.1754 38.3776 30.7402 38.8254 30.3889C39.3188 29.9995 39.9791 29.8086 40.8065 29.8086H43.4402C44.3055 29.8086 44.9734 29.9766 45.4592 30.3202C45.907 30.6333 46.1347 31.0303 46.1347 31.519V32.2291H39.0683V32.7789C39.0683 33.2447 39.2353 33.5807 39.5617 33.8021C39.8501 33.993 40.2676 34.0847 40.8065 34.0847H43.7893C44.2676 34.0847 44.6243 34.0007 44.8596 33.8403C45.0949 33.6799 45.2163 33.4738 45.2163 33.2295V33.1302H46.1347V33.2295C46.1347 33.6036 45.983 33.9167 45.6793 34.1839C45.2846 34.5199 44.6926 34.6879 43.9032 34.6879H40.8368L40.8292 34.6802Z" fill="#1A1A1A"/>
<path d="M54.967 29.8164C55.9233 29.8164 56.6368 30.0226 57.0998 30.4273C57.5021 30.7709 57.6995 31.252 57.6995 31.8552V34.6728H56.7811V31.7483C56.7811 31.3283 56.614 31 56.2801 30.7709C55.9461 30.5418 55.5059 30.4197 54.9594 30.4197H52.5609C52.0144 30.4197 51.5742 30.5418 51.2251 30.7862C50.8835 31.0305 50.7089 31.3512 50.7089 31.7483V34.6728H49.7905V29.8164H50.7089V30.6029C50.8607 30.3433 51.0884 30.1448 51.3769 30.0149C51.6729 29.8851 52.0599 29.8164 52.5533 29.8164H54.9518H54.967Z" fill="#1A1A1A"/>
<path d="M68.3484 32.9581H69.2668C69.2668 33.4697 69.0847 33.8668 68.7204 34.1569C68.2801 34.5005 67.5742 34.6761 66.6027 34.6761H63.7868C62.9443 34.6761 62.3067 34.5158 61.8892 34.2027C61.4718 33.8897 61.2593 33.4468 61.2593 32.8741V31.6676C61.2593 31.1102 61.4718 30.6673 61.8892 30.339C62.3446 29.9801 63.005 29.7969 63.8627 29.7969H66.6027C67.4756 29.7969 68.1359 29.9496 68.5837 30.2474C69.0316 30.5452 69.2593 30.9652 69.2593 31.5226H68.3409C68.3409 31.1713 68.2118 30.8964 67.9537 30.7208C67.6729 30.5147 67.2175 30.4154 66.6027 30.4154H63.8627C63.3238 30.4154 62.9063 30.5147 62.6179 30.7208C62.3295 30.927 62.1852 31.2401 62.1852 31.6676V32.8741C62.1852 33.2483 62.3446 33.546 62.671 33.7675C62.967 33.9737 63.3465 34.0729 63.7944 34.0729H66.6103C67.7716 34.0729 68.3484 33.6988 68.3484 32.9505" fill="#1A1A1A"/>
<path d="M74.0062 28.5577H73.0874V27.8477H74.0062V28.5577ZM74.0062 34.674H73.0874V29.8177H74.0062V34.674Z" fill="#1A1A1A"/>
<path d="M83.4225 32.3055H80.0828C79.5444 32.3055 79.1801 32.3589 78.9899 32.4735C78.8004 32.588 78.7093 32.7637 78.7093 33.0156V33.3669C78.7093 33.596 78.8158 33.7715 79.0207 33.8938C79.2256 34.0159 79.5819 34.077 80.0908 34.077H83.4305C83.9234 34.077 84.273 34.0083 84.4853 33.8709C84.6976 33.7334 84.8041 33.5043 84.8041 33.1912C84.8041 32.6033 84.3487 32.3055 83.4305 32.3055H83.4225ZM79.7567 31.7023H83.6428C83.969 31.7023 84.2348 31.7405 84.4324 31.8168C84.6293 31.8931 84.7511 31.9924 84.7967 32.107V31.4197C84.7967 31.1219 84.6828 30.8853 84.4471 30.7096C84.1819 30.5111 83.7868 30.4119 83.2558 30.4119H80.6065C80.0908 30.4119 79.7038 30.4729 79.4453 30.5951C79.1875 30.7173 79.0508 30.8853 79.0508 31.0991V31.2136H78.1093V31.0991C78.1093 30.702 78.3068 30.3889 78.7019 30.1522C79.0964 29.9231 79.6502 29.8086 80.3714 29.8086H83.3696C84.1893 29.8086 84.7967 29.9613 85.1911 30.2667C85.5554 30.5493 85.7376 30.9616 85.7376 31.5114V34.6573H84.8194V34.2755C84.6902 34.3901 84.5382 34.4893 84.3641 34.5581C84.1893 34.6268 83.9616 34.665 83.6884 34.665H79.7111C78.4361 34.665 77.7905 34.2527 77.7905 33.428V32.84C77.7905 32.4964 77.9425 32.2215 78.2459 32.023C78.5801 31.8092 79.081 31.6946 79.7493 31.6946" fill="#1A1A1A"/>
<path d="M90.3428 32.7711C90.3428 33.6416 90.973 34.0768 92.2407 34.0768H94.5477C95.1551 34.0768 95.6105 33.9776 95.9293 33.7867C96.2782 33.5729 96.4456 33.2369 96.4456 32.7787V31.7098C96.4456 31.2898 96.2782 30.9691 95.9594 30.7476C95.6333 30.5262 95.1625 30.4117 94.5477 30.4117H92.2407C91.6031 30.4117 91.1324 30.5109 90.8136 30.7171C90.5022 30.9232 90.3428 31.2516 90.3428 31.7174V32.7787V32.7711ZM92.1644 29.8008H94.6388C95.6031 29.8008 96.3164 29.9917 96.7718 30.3811C97.1662 30.7095 97.3637 31.1524 97.3637 31.7174V32.7787C97.3637 33.3438 97.1588 33.7867 96.7644 34.115C96.2936 34.4968 95.5878 34.68 94.6388 34.68H92.1644C91.4056 34.68 90.8136 34.535 90.3884 34.2448V36.6501H89.4702V29.8008H90.3884V30.2513C90.5933 30.1062 90.8364 29.9993 91.1398 29.9153C91.4358 29.839 91.7773 29.8008 92.1644 29.8008Z" fill="#1A1A1A"/>
<path d="M101.733 32.7711C101.733 33.6416 102.37 34.0768 103.63 34.0768H105.991C106.598 34.0768 107.053 33.9776 107.372 33.7867C107.721 33.5729 107.896 33.2369 107.896 32.7787V31.7098C107.896 31.2898 107.736 30.9691 107.402 30.7476C107.076 30.5262 106.605 30.4117 105.991 30.4117H103.63C102.985 30.4117 102.507 30.5109 102.196 30.7171C101.884 30.9232 101.733 31.2516 101.733 31.7174V32.7787V32.7711ZM103.554 29.8008H106.082C107.045 29.8008 107.759 29.9917 108.222 30.3811C108.617 30.7095 108.814 31.1524 108.814 31.7174V32.7787C108.814 33.3438 108.609 33.7867 108.207 34.115C107.736 34.4968 107.031 34.68 106.082 34.68H103.554C101.725 34.68 100.814 34.0463 100.814 32.7787V31.7174C100.814 31.1294 101.027 30.6713 101.444 30.3429C101.9 29.984 102.605 29.8008 103.562 29.8008" fill="#1A1A1A"/>
<path d="M115.18 29.8008H117.601C118.565 29.8008 119.278 29.9917 119.734 30.3811C120.128 30.7095 120.326 31.1524 120.326 31.7174H119.407C119.407 31.2898 119.248 30.9691 118.921 30.7476C118.602 30.5262 118.132 30.4117 117.51 30.4117H115.255C114.61 30.4117 114.14 30.5109 113.828 30.7171C113.517 30.9232 113.366 31.2516 113.366 31.7174V34.6724H112.447V29.8008H113.366V30.4193C113.502 30.2132 113.714 30.0604 114.003 29.9612C114.292 29.8543 114.679 29.8008 115.18 29.8008Z" fill="#1A1A1A"/>
<path d="M126.357 34.0753H128.081C128.551 34.0753 128.908 33.9913 129.143 33.8233C129.318 33.6935 129.409 33.5484 129.409 33.3805H130.396C130.396 33.7088 130.229 33.9913 129.902 34.2357C129.5 34.5335 128.923 34.6785 128.164 34.6785H126.35C125.629 34.6785 125.082 34.5335 124.711 34.2433C124.308 33.9378 124.103 33.4797 124.103 32.8688V30.5323H123.322V29.8222H124.103V28.8906H125.022V29.8222H129.735V30.5323H125.022V32.9605C125.022 33.3423 125.143 33.6248 125.386 33.808C125.629 33.9913 125.956 34.0829 126.357 34.0829" fill="#1A1A1A"/>
<path d="M10.9955 16.2256H10.7905C10.7905 16.2256 69.9936 -6.04033 84.7032 11.6747C99.4053 29.3897 80.4226 29.4661 112.331 10.2086C144.24 -9.04119 123.982 16.3554 123.982 16.3554V16.4852" fill="#1A1A1A"/>
</svg>
