<svg width="141" height="40" viewBox="0 0 141 40" fill="none" xmlns="http://www.w3.org/2000/svg">
<g clip-path="url(#clip0_906_19197)">
<path d="M66.6843 39.7277C59.3769 39.1902 52.1443 37.7123 44.9415 35.249C39.9952 33.5621 35.811 31.7408 29.5198 28.5311L25.1413 26.3067L23.6769 27.7697C21.5848 29.8747 19.5973 31.0988 17.296 31.7408C15.9212 32.114 12.7532 32.2036 11.483 31.905C9.34603 31.3974 7.55281 29.9941 6.92519 28.3072C5.17679 23.6344 11.483 20.7681 19.149 22.7537L20.4042 23.0821L21.2112 22.1864C22.2871 20.9921 24.0206 18.8423 24.9022 17.5883C25.6195 16.5731 27.8312 12.8857 27.8312 12.7066C27.8312 12.6469 26.8449 12.5573 25.6345 12.5125C21.4204 12.3632 18.8501 11.4227 17.7443 9.6462C17.1466 8.67583 17.0419 7.12323 17.4903 6.09315C17.8638 5.24221 18.9547 4.06284 19.926 3.45076C21.4055 2.49532 24.0953 1.86831 24.0953 2.48039C24.0953 2.59982 23.916 2.73418 23.6918 2.79389C21.6445 3.24176 20.7181 3.68962 19.8513 4.65999C19.149 5.42136 18.7754 6.25737 18.626 7.28745C18.5363 7.95925 18.5811 8.18318 18.9398 8.89976C19.8663 10.7957 22.5262 11.8109 26.561 11.8109H28.2496L28.8922 10.6614C31.0739 6.66044 33.5695 3.45076 35.5271 2.10717C38.3365 0.181359 41.6987 -0.236647 43.6713 1.09201C45.4496 2.28631 45.2702 5.31685 43.2977 7.60096C41.5493 9.61634 37.7238 11.5421 34.1373 12.199L32.8223 12.4379L31.2383 15.6625C29.5198 19.1409 28.1599 21.6639 26.7702 23.8882C26.277 24.6496 25.8885 25.3363 25.8885 25.396C25.8885 25.5453 31.6268 28.1131 34.7799 29.382C37.9629 30.6659 42.7896 32.2633 45.4645 32.9201C50.6499 34.1891 54.4157 34.6519 59.6907 34.6519C66.7142 34.6519 71.8099 34.0249 85.5879 31.5168C99.6945 28.9491 102.818 28.5908 110.469 28.7252C117.672 28.8446 122.304 29.5313 127.25 31.2033C130.702 32.3678 131.27 32.9201 128.281 32.2036C121.766 30.651 115.878 30.9794 107.211 33.3829C105.926 33.7412 103.117 34.5474 100.98 35.1744C92.417 37.6824 86.8282 38.8319 80.1335 39.5037C77.354 39.7874 69.3144 39.9068 66.6843 39.7277ZM13.2463 27.2621C15.0694 26.7844 17.296 25.605 18.9846 24.2316C19.7766 23.5897 19.7168 23.5449 17.7742 23.1418C16.0557 22.7835 13.6199 22.7537 12.2451 23.0672C9.70468 23.6643 8.15055 24.9482 8.46437 26.2171C8.73335 27.2771 11.1542 27.7996 13.2463 27.2621ZM35.1535 11.154C39.6067 9.92984 43.0586 7.27252 43.746 4.55549C44.0299 3.46569 43.8805 2.58489 43.3425 2.00267C42.8793 1.49509 42.4011 1.33087 41.4597 1.3458C39.3825 1.36073 37.933 3.1074 33.9729 10.3628C33.2258 11.7064 33.2108 11.6914 35.1535 11.154Z" fill="#1A1A1A"/>
<path d="M54.2792 31.2199C51.6342 30.8019 49.6019 29.2493 49.8559 27.861C50.0353 26.9354 51.1859 26.5622 51.8584 27.1892C52.4262 27.7266 52.1274 28.9806 51.425 28.9806C50.9618 28.9806 51.0963 29.2792 51.7089 29.533C53.1734 30.1451 56.2219 30.3391 58.0749 29.951C58.6577 29.8316 59.6738 29.4584 60.3463 29.115L61.5866 28.5029L62.0349 29.0105C62.4533 29.4733 62.4683 29.5181 62.2292 29.7121C61.7809 30.0704 60.1969 30.7422 59.2106 30.996C58.0749 31.2946 55.4448 31.414 54.2792 31.2199Z" fill="#1A1A1A"/>
<path d="M65.2946 30.3822C63.6358 29.9792 62.4403 29.1133 61.8127 27.8593C61.484 27.1726 61.4242 26.8889 61.484 26.1574L61.5437 25.2766L60.9759 25.5752C60.6471 25.7543 60.0942 25.9185 59.7505 25.9484C58.1665 26.1275 57.1503 25.202 55.9698 22.47L55.2077 20.7084L54.9536 21.2906C54.8341 21.6191 54.3709 22.7238 53.9225 23.7539L53.1305 25.62L51.8454 25.6647C50.2614 25.7095 50.1867 25.62 50.7545 24.3361C51.158 23.3956 51.1281 23.3806 50.2166 24.0823C48.6774 25.2766 46.5255 25.814 45.2553 25.3363C44.4932 25.0377 43.6414 24.1868 43.3724 23.4254L43.1782 22.9029L42.2218 23.9181C40.9366 25.2766 39.9802 25.7543 38.71 25.6647C37.9479 25.605 37.7387 25.5304 37.4398 25.187C37.2605 24.9631 37.0961 24.6197 37.0961 24.4107V24.0226L36.349 24.5749C34.4661 25.9484 32.0154 26.0977 31.2084 24.8735C30.9843 24.5451 30.9394 24.2614 30.9992 23.4702C31.059 22.6193 31.313 21.9176 32.7775 18.5288L34.481 14.5727L35.9604 14.5279C37.1111 14.498 37.41 14.5279 37.3502 14.6772C37.3054 14.7817 36.4536 16.7373 35.4673 19.0065C33.689 23.0821 33.435 23.9181 33.8385 24.3212C34.2569 24.7392 35.6466 24.3062 36.4087 23.515C36.6777 23.2314 37.4847 21.5444 38.6652 18.8274L40.4883 14.5727L41.9528 14.5279C43.0885 14.498 43.3874 14.5279 43.3276 14.6772C43.2828 14.7817 42.4758 16.6926 41.5344 18.902C39.5319 23.6195 39.5768 23.5001 39.786 23.9181C40.1446 24.5749 41.37 23.933 42.4459 22.5148C42.8793 21.9326 43.1034 21.4548 43.2828 20.6487C43.9104 17.7824 46.1071 15.3042 48.7073 14.498C50.351 13.9905 51.3224 14.1547 52.0247 15.0355C52.9064 16.1551 51.5914 17.6181 50.4258 16.7971C49.9326 16.4537 49.9625 15.5132 50.4855 15.1101L50.889 14.7966H50.5304C48.4084 14.7966 45.3749 20.5591 46.2266 22.9776C46.5554 23.9479 47.7509 24.2167 48.9314 23.6046C49.6487 23.2314 51.1431 22.0818 51.7707 21.41C52.0247 21.1413 53.1007 18.7826 54.7146 14.9459L57.2549 8.89974L58.6746 8.85496C59.4666 8.84003 60.1092 8.86988 60.1092 8.94453C60.1092 9.01917 59.4367 10.6763 58.5999 12.6469C56.6572 17.2449 56.5078 17.6331 56.6423 17.6331C56.702 17.6331 57.6136 16.9314 58.6596 16.0506L60.5425 14.4831L61.3196 14.5279L62.1116 14.5727L59.8701 16.4836C58.6447 17.5435 57.5837 18.484 57.509 18.5885C57.3894 18.7677 58.6596 21.4698 59.4516 22.7387C59.9747 23.5598 60.692 23.8434 61.6483 23.6195C62.4702 23.4254 64.2933 22.4252 64.2933 22.1565C64.2933 22.052 63.9945 20.4247 63.6209 18.5139C63.2473 16.603 62.9484 14.931 62.9484 14.7667C62.9484 14.5279 63.0979 14.498 64.4428 14.498C65.5187 14.498 65.967 14.5577 66.0119 14.6921C66.0567 14.7817 66.2808 16.2148 66.5349 17.8421C66.9533 20.589 67.043 21.0667 67.1774 20.9025C67.2073 20.8726 67.9246 19.6037 68.7764 18.0809C70.8834 14.3189 70.734 14.498 71.6306 14.498C72.064 14.498 72.3628 14.5577 72.3628 14.6622C72.3628 14.8712 71.0478 17.23 69.419 19.9321C68.7316 21.0667 68.1787 22.0072 68.2085 22.0371C68.2384 22.052 68.6419 22.2461 69.1201 22.4551C69.9271 22.8134 70.2857 23.1866 70.0615 23.4254C70.0018 23.4702 69.5684 23.306 69.0902 23.0373C68.612 22.7686 68.1189 22.5596 67.9844 22.5596C67.8648 22.5596 67.5959 22.8432 67.3867 23.2015C67.1774 23.5449 66.5947 24.3809 66.1015 25.0676C65.3394 26.0977 65.1302 26.2918 64.7715 26.2918C64.5474 26.2918 64.2336 26.2022 64.0991 26.1126C63.86 25.9335 63.8749 25.8738 64.3232 25.3363L64.8014 24.7541L64.6371 23.7987C64.5324 23.2612 64.4278 22.7984 64.383 22.7536C64.2186 22.5894 63.2324 23.4851 62.9484 24.0524C62.5748 24.7839 62.5748 25.187 62.9335 25.7842C63.3668 26.5008 64.3232 26.7993 65.713 26.6948C69.3443 26.3813 72.6617 23.515 75.0527 18.6034C75.4562 17.7824 76.278 16.0506 76.8907 14.7667C78.7288 10.9301 80.2979 8.46681 82.3152 6.30214C83.4061 5.12276 85.5281 3.46567 86.6638 2.91331L87.5156 2.4953L86.7684 2.15194C85.1097 1.4055 82.6141 1.4055 80.3875 2.1818C76.6367 3.46567 73.4089 7.24265 74.1561 9.48196C74.5147 10.5718 75.501 10.8703 77.085 10.3926C78.3701 10.0045 78.9978 10.1985 78.0414 10.6912C77.2643 11.0943 76.0091 11.2585 75.1872 11.0644C72.5721 10.4374 72.9158 6.86943 75.8746 3.95832C76.8758 2.97302 77.3839 2.61473 78.6541 1.98772C80.8358 0.897923 81.7175 0.68892 84.1682 0.703849C86.3948 0.703849 87.4558 0.912852 89.0398 1.67422C92.1331 3.13724 93.6574 6.61564 92.3423 9.21325C91.64 10.6165 89.3835 12.3035 87.5006 12.8708C87.142 12.9753 86.8581 13.0947 86.8581 13.1395C86.8581 13.1843 87.2018 13.4381 87.6202 13.6769C88.5467 14.2293 89.787 15.5281 90.325 16.5283C91.5055 18.7079 91.4457 21.7683 90.1755 24.1271C89.6674 25.0527 88.3524 26.4112 87.396 26.9636C85.4683 28.0981 83.0176 28.5161 81.3887 27.9936C80.2381 27.6353 79.192 26.65 78.938 25.6946C78.5793 24.3361 79.1024 22.7238 80.1783 21.9027C80.8209 21.41 82.0313 20.8726 82.2256 20.992C82.5394 21.1861 82.3302 21.4548 81.4784 21.9923C80.0438 22.888 79.6105 23.8882 80.4025 24.5003C80.7611 24.7989 80.9404 24.8287 82.0761 24.769C83.1222 24.7093 83.5107 24.6197 84.2429 24.2465C86.6787 22.9925 88.0685 20.7681 88.0834 18.066C88.0984 16.394 87.7696 15.558 86.6488 14.4085L85.7373 13.4679L85.0499 13.6023C84.228 13.7665 83.3314 13.5874 82.9279 13.1843C82.5394 12.7961 82.6888 12.4528 83.3463 12.1841C83.959 11.9154 84.3625 11.9154 85.0648 12.1691C85.7971 12.4229 86.6488 12.1244 87.5903 11.2734C88.4421 10.4971 88.995 9.46704 89.249 8.10852C89.5628 6.55593 89.2191 4.54054 88.5168 3.60003L88.2329 3.24174L87.0374 4.42111C86.3799 5.07798 85.4683 6.21256 84.9901 6.92914C83.9291 8.55638 82.1658 12.2139 79.984 17.2599C77.9069 22.0669 77.2344 23.4404 76.2482 24.8586C74.2158 27.7996 71.7502 29.7552 69.2695 30.3972C68.2235 30.6659 66.4452 30.6659 65.2946 30.3822ZM90.6537 25.3512C90.5939 25.187 94.27 15.9013 94.7632 14.9757C94.9276 14.6772 95.0471 14.6473 96.3024 14.6473C97.5726 14.6473 97.6473 14.6622 97.5726 14.9459C97.4829 15.3042 97.6622 15.334 97.9312 15.0056C98.2002 14.6772 98.8876 14.3487 99.3209 14.3487C100.203 14.3487 100.756 14.931 100.756 15.8565C100.756 16.8269 99.4853 17.4091 98.8129 16.7373C98.4841 16.4089 98.4094 15.558 98.6933 15.2743C98.8129 15.1549 98.8278 15.0952 98.7083 15.0952C98.3496 15.0952 97.2886 16.5433 96.6012 17.9914C96.1978 18.8124 95.3759 20.783 94.7781 22.3356C94.1654 23.9032 93.6125 25.2617 93.5378 25.3662C93.3435 25.62 90.7583 25.62 90.6537 25.3512ZM100.965 25.3811C100.352 25.202 99.4704 24.2316 99.2761 23.5001C98.514 20.7681 100.815 15.9461 103.535 14.6473C104.865 13.9905 106.449 14.1248 107.39 14.9608L107.899 15.3938L108.048 14.9459L108.212 14.498H109.483C110.215 14.498 110.768 14.5577 110.768 14.6473C110.768 14.722 109.961 16.7373 108.96 19.1259C107.973 21.5145 107.181 23.6046 107.211 23.7987C107.316 24.5749 108.78 24.0823 109.901 22.9029C110.14 22.6491 110.887 20.992 111.903 18.484L113.517 14.4831L114.877 14.5279C115.669 14.5577 116.207 14.6324 116.207 14.722C116.192 14.8115 116.132 15.0205 116.073 15.2146C115.983 15.543 116.013 15.5281 116.939 15.0355C119.345 13.7665 121.378 14.0502 121.378 15.6625C121.378 16.3492 121.138 17.0658 119.734 20.6188C119.151 22.0968 118.688 23.4553 118.718 23.6344C118.792 24.2316 119.42 24.1569 120.436 23.4105L121.333 22.7387L121.422 21.6489C121.691 18.066 124.755 14.3189 127.579 14.08C128.521 14.0054 129.283 14.2293 129.776 14.722L130.134 15.0803L131.42 11.99L132.705 8.89974L134.139 8.85496C134.931 8.84003 135.574 8.86988 135.574 8.94453C135.574 9.01917 134.319 12.0646 132.794 15.7073C129.866 22.679 129.507 23.7389 129.925 24.142C130.224 24.4555 130.613 24.3212 131.405 23.6643C131.733 23.3806 132.077 23.2015 132.152 23.2463C132.436 23.4105 132.271 23.8882 131.763 24.3361C129.985 25.8887 127.639 25.9783 127.191 24.5152L127.011 23.933L126.324 24.4555C125.412 25.1721 124.785 25.411 123.888 25.4259C122.977 25.4259 122.14 24.9183 121.766 24.1271C121.512 23.6046 121.497 23.5896 121.183 23.8136C119.838 24.7839 117.985 25.5453 116.954 25.5453C116.611 25.5453 116.297 25.411 115.983 25.1273C115.131 24.3659 115.221 23.9778 117.716 17.8869C118.18 16.7523 118.523 15.7222 118.479 15.6028C118.239 14.9757 116.67 15.8118 115.699 17.0807C115.266 17.6629 114.638 18.9916 113.592 21.5295C112.785 23.5299 112.023 25.202 111.918 25.2766C111.829 25.3363 111.216 25.396 110.573 25.396C109.258 25.396 109.139 25.3065 109.483 24.4704L109.707 23.933L108.75 24.5899C107.689 25.2915 106.987 25.5453 106.046 25.5453C105.373 25.5453 104.731 25.1422 104.566 24.6347C104.462 24.351 104.447 24.351 103.938 24.7392C103.401 25.1572 102.28 25.5602 101.742 25.5304C101.562 25.5304 101.219 25.4557 100.965 25.3811ZM103.968 23.5747C104.701 22.9029 105.149 22.0669 106.419 18.9468C107.301 16.7672 107.361 16.1551 106.793 15.7073C106.569 15.5281 106.21 15.3938 106.001 15.3938C104.237 15.3938 101.279 20.7383 101.787 23.0224C102.086 24.3659 102.907 24.5749 103.968 23.5747ZM125.756 23.9032C126.399 23.3956 127.43 21.5593 128.461 19.0662C129.537 16.4836 129.686 15.6774 129.133 15.3788C127.848 14.6921 125.487 17.2897 124.426 20.5442C123.933 22.0669 123.873 23.4404 124.277 23.8882C124.635 24.2913 125.263 24.2913 125.756 23.9032Z" fill="#1A1A1A"/>
</g>
<defs>
<clipPath id="clip0_906_19197">
<rect width="129" height="39.4866" fill="white" transform="translate(6.6001 0.316406)"/>
</clipPath>
</defs>
</svg>
