<svg width="141" height="40" viewBox="0 0 141 40" fill="none" xmlns="http://www.w3.org/2000/svg">
<g clip-path="url(#clip0_906_19150)">
<mask id="mask0_906_19150" style="mask-type:luminance" maskUnits="userSpaceOnUse" x="15" y="9" width="111" height="28">
<path d="M125.11 9H15.2002V37H125.11V9Z" fill="white"/>
</mask>
<g mask="url(#mask0_906_19150)">
<path d="M50.6901 19.9493C50.6901 17.9523 48.7727 15.8313 45.455 15.8313C41.7292 15.8313 37.6364 18.5996 37.0107 24.1225C36.3716 29.7004 39.7983 32.1795 43.2521 32.1795C46.7059 32.1795 48.5145 30.8161 50.3637 28.998C48.7727 26.9734 46.7195 27.91 46.3252 28.1166C45.89 28.3369 45.3325 28.6399 44.1903 28.6399C42.8578 28.6399 41.4981 28.0339 41.4981 25.5135C50.0374 24.6596 50.6901 21.9464 50.6901 19.9493ZM46.4611 20.2799C46.4068 20.8997 46.162 21.9601 41.8379 22.5524C42.749 19.2745 44.4896 19.0266 45.2918 19.0266C46.0396 19.0266 46.5155 19.6188 46.4611 20.2799ZM31.9933 20.817C31.9933 20.817 30.1576 26.6567 30.008 27.1387C29.9536 26.6429 28.6074 16.1618 28.6074 16.1618C25.48 16.1618 23.8075 18.4206 22.9237 20.8032C22.9237 20.8032 20.6936 26.6567 20.5033 27.1525C20.4897 26.698 20.1633 20.8721 20.1633 20.8721C19.973 17.9523 17.335 16.1756 15.2002 16.1756L17.7837 32.0557C21.0608 32.0419 22.8285 29.7968 23.7531 27.4142C23.7531 27.4142 25.7248 22.2494 25.8063 22.0153C25.8199 22.2356 27.2205 32.0557 27.2205 32.0557C30.5111 32.0557 32.2788 29.9483 33.2307 27.6483L37.8402 16.1756C34.5903 16.1756 32.8771 18.4206 31.9933 20.817ZM62.7647 15.8037C60.7387 15.8037 59.1885 16.9193 57.8831 18.5583V18.5445L59.0526 9C56.3602 9 54.1709 11.3689 53.7495 14.8947L51.7098 31.9316C53.26 31.9316 54.9052 31.4772 55.789 30.3203C56.5779 31.3531 57.7608 32.1795 59.5148 32.1795C64.0565 32.1795 67.1703 26.8357 67.1703 21.8224C67.1432 17.2499 64.954 15.8037 62.7647 15.8037ZM62.3432 23.9985C61.8673 26.7944 60.3307 28.6951 58.8485 28.6951C57.3529 28.6951 56.7138 28.0202 56.7138 28.0202C56.9992 25.5686 57.176 24.0674 57.7199 22.7728C58.264 21.4781 59.5557 19.4122 60.9018 19.4122C62.2209 19.4122 62.8191 21.1889 62.3432 23.9985ZM78.5107 16.1756H75.3426L75.3562 16.0103C75.5737 13.9169 76.0632 12.8151 77.6814 12.636C78.7827 12.5258 79.2722 11.9474 79.3945 11.3138C79.4897 10.818 79.789 9.09641 79.789 9.09641C73.4253 9.05509 71.4263 11.8372 70.9097 16.0792L70.8961 16.1756H70.8281C69.7948 16.1756 68.6525 17.3601 68.4621 18.8613L68.3941 19.4122H70.5154L68.7341 34.3143L68.1903 36.9862C68.2582 36.9862 68.3398 37 68.4078 37C71.3856 36.8897 73.2892 34.5072 73.7108 31.0502L75.0978 19.4122H76.0903C77.0693 19.4122 78.2116 18.4206 78.4156 16.7678L78.5107 16.1756ZM94.9911 15.9002C91.3333 15.9002 87.8795 18.6272 86.8188 22.9105C85.7584 27.1938 87.3629 32.2622 92.7475 32.2622C98.1185 32.2622 101.219 26.9872 101.219 22.5937C101.219 18.2277 98.2953 15.9002 94.9911 15.9002ZM96.4733 23.8608C96.2829 25.8028 95.4397 28.7501 93.1282 28.7501C90.803 28.7501 91.1294 25.3069 91.3605 23.668C91.6053 21.9188 92.5707 19.426 94.6511 19.426C96.514 19.426 96.6908 21.6709 96.4733 23.8608ZM119.29 20.817C119.29 20.817 117.454 26.6567 117.305 27.1387C117.25 26.6429 115.904 16.1618 115.904 16.1618C112.777 16.1618 111.104 18.4206 110.22 20.8032C110.22 20.8032 107.99 26.6567 107.8 27.1525C107.786 26.698 107.46 20.8721 107.46 20.8721C107.27 17.9523 104.632 16.1756 102.497 16.1756L105.067 32.0557C108.344 32.0419 110.112 29.7968 111.036 27.4142C111.036 27.4142 113.008 22.2494 113.076 22.0153C113.103 22.2356 114.49 32.0557 114.49 32.0557C117.781 32.0557 119.548 29.9483 120.5 27.6483L125.11 16.1756C121.874 16.1756 120.16 18.4206 119.29 20.817ZM81.5022 9.09641L78.837 30.8711L78.2932 33.5568C78.3611 33.5568 78.4427 33.5706 78.5107 33.5706C81.3799 33.5294 83.4196 30.9814 83.8003 27.7723L85.3368 15.2804C85.7991 11.4653 83.5555 9.09641 81.5022 9.09641Z" fill="#1A1A1A"/>
</g>
</g>
<defs>
<clipPath id="clip0_906_19150">
<rect width="140" height="40" fill="white" transform="translate(0.200195)"/>
</clipPath>
</defs>
</svg>
