<svg width="113" height="40" viewBox="0 0 113 40" fill="none" xmlns="http://www.w3.org/2000/svg">
<g clip-path="url(#clip0_906_19163)">
<path d="M58.1822 16.374C58.1463 19.1488 60.7077 20.6974 62.6373 21.618C64.6199 22.5627 65.2858 23.1684 65.2783 24.0131C65.2631 25.306 63.6967 25.8766 62.2306 25.8988C59.6729 25.9377 58.186 25.2227 57.0036 24.6818L56.0823 28.9033C57.2685 29.4386 59.4648 29.9054 61.7425 29.9258C67.0887 29.9258 70.5866 27.3418 70.6055 23.3351C70.6263 18.2505 63.4224 17.9689 63.4716 15.6961C63.4886 15.007 64.1602 14.2716 65.632 14.0845C66.3604 13.9901 68.3713 13.9178 70.6509 14.9459L71.5457 10.8615C70.3198 10.4243 68.744 10.0057 66.7822 10.0057C61.7501 10.0057 58.2106 12.6249 58.1822 16.374ZM80.1439 10.3576C79.1677 10.3576 78.3448 10.9152 77.9778 11.771L70.3407 29.6257H75.683L76.7462 26.749H83.2747L83.8915 29.6257H88.6001L84.4912 10.3576H80.1439ZM80.8911 15.5627L82.4329 22.798H78.2104L80.8911 15.5627ZM51.7047 10.3576L47.4936 29.6257H52.5844L56.7936 10.3576H51.7047ZM44.1736 10.3576L38.8747 23.4722L36.7313 12.3211C36.4797 11.0763 35.4865 10.3576 34.3836 10.3576H25.7212L25.6001 10.917C27.3784 11.2949 29.3988 11.9043 30.6228 12.5564C31.3719 12.9546 31.5857 13.3029 31.8316 14.2494L35.8914 29.6257H41.2716L49.5197 10.3576H44.1736Z" fill="#1E1B18"/>
</g>
<defs>
<clipPath id="clip0_906_19163">
<rect width="63" height="20" fill="white" transform="translate(25.6001 10)"/>
</clipPath>
</defs>
</svg>
