<svg width="141" height="40" viewBox="0 0 141 40" fill="none" xmlns="http://www.w3.org/2000/svg">
<path d="M14.2465 11.6274H14.4731V8.61271H2.7998V8.81672C4.13714 9.90472 4.34114 10.2221 4.34114 11.4234V25.998C4.34114 27.1994 4.1598 27.5167 2.7998 28.6047V28.8087H8.87447V28.6047C7.51447 27.5847 7.26514 27.1994 7.26514 26.0434V18.8127H8.5798C10.3025 18.8127 10.5971 18.9261 12.0705 20.8074H12.2745V16.0701H12.0705C10.5971 17.9287 10.3025 18.0647 8.5798 18.0647H7.26514V9.36072H9.2598C10.0758 9.36072 10.7558 9.63272 14.2465 11.6274ZM18.8705 20.1954H14.8131L16.7398 14.3247C16.8305 14.5287 16.9211 14.7781 17.0118 15.0501L18.8705 20.1954ZM22.0438 21.918L18.5305 12.2394H15.3571V12.4207C15.8105 12.8287 16.0825 13.146 16.3318 13.5087L13.7025 21.5101C13.2038 22.9381 12.9091 23.3914 11.7078 24.5247V24.7287H15.4025V24.5247C14.3825 23.9127 14.0651 23.5047 14.0651 22.9154C14.0651 22.6207 14.1558 22.2354 14.3598 21.578L14.5865 20.8754H19.0971L19.5051 22.0087C19.7545 22.734 19.7998 23.0287 19.7998 23.3007C19.7998 23.7314 19.5051 24.0714 18.7345 24.502V24.706H23.8798V24.5247C22.7011 23.5274 22.4971 23.1874 22.0438 21.918ZM29.7958 11.6274H30.0225V8.70339C28.8891 8.49939 27.6198 8.34072 26.4638 8.34072C23.0865 8.34072 21.4091 10.6074 21.4091 13.0101C21.4091 15.7981 23.2225 17.4527 25.5118 19.3794C28.0051 21.4647 29.4785 22.7341 29.4785 25.1367C29.4785 27.1314 28.1638 28.3327 26.4185 28.3327C24.8771 28.3327 23.6758 27.7207 20.4571 25.2047H20.1851L21.3638 28.4914C22.7691 28.8994 24.2425 29.1034 25.7158 29.1034C29.5691 29.1034 31.8131 26.7687 31.8131 23.5047C31.8131 20.5127 30.0678 18.9714 27.5745 16.9541C25.2851 15.0954 23.7211 13.5994 23.7211 11.446C23.7211 10.0407 24.6505 9.08871 26.0785 9.08871C27.0531 9.08871 27.7331 9.47405 29.7958 11.6274ZM44.6425 11.6274H44.8691V8.61271H31.0878V11.6274H31.3145C34.5558 9.56472 35.2131 9.29271 35.9838 9.29271H36.5051V26.0434C36.5051 27.1994 36.2785 27.5847 34.8958 28.6047V28.8087H41.0385V28.6047C39.6785 27.5847 39.4291 27.1994 39.4291 26.0434V9.29271H39.9505C40.7211 9.31538 41.3785 9.58738 44.6425 11.6274ZM62.2091 11.0834H62.4358V8.49938C61.0758 8.29538 59.3078 8.13672 57.7211 8.13672C50.5585 8.13672 46.3198 12.126 46.3198 18.7447C46.3198 25.25 50.3771 29.262 57.4491 29.262C59.2851 29.262 60.9398 28.99 62.2545 28.6274L62.7758 25.7487H62.5491C59.8971 27.9927 58.7185 28.514 56.8145 28.514C51.5331 28.514 49.7651 24.5247 49.7651 18.6087C49.7651 12.602 51.5331 8.93005 56.5425 8.93005C58.1065 8.93005 59.2398 9.31539 62.2091 11.0834ZM61.5291 18.6314C61.5291 21.9634 61.2345 24.162 58.8318 24.162C56.4065 24.162 56.1345 21.9634 56.1345 18.6314C56.1345 15.2994 56.4065 13.1007 58.8318 13.1007C61.2571 13.0781 61.5291 15.2767 61.5291 18.6314ZM64.3851 18.6314C64.3851 15.118 62.2998 12.466 58.8318 12.466C55.3638 12.466 53.2785 15.1407 53.2785 18.6314C53.2785 22.122 55.3638 24.7967 58.8318 24.7967C62.2998 24.7741 64.3851 22.0994 64.3851 18.6314ZM76.7838 28.786L82.7905 28.8314V28.6274C81.4531 27.5394 81.2491 27.222 81.2491 26.0207V11.446C81.2491 10.2447 81.4305 9.92738 82.7905 8.86205V8.65805L78.5518 8.63538L73.8371 23.5727L69.0091 8.65805H64.7251V8.86205C65.5411 9.56471 66.0398 10.0181 66.4025 10.4941V24.6154C66.4025 26.2474 66.1985 26.9047 64.6798 28.6501V28.854H69.4851V28.6501C67.4678 26.9727 67.1731 26.3154 67.1731 24.6154V12.0354C67.1958 12.126 67.2411 12.2167 67.2638 12.3301L72.6811 29.0127H72.9078L78.3251 11.8314V26.0207C78.3251 27.222 78.1438 27.5394 76.7838 28.6047C76.7838 28.582 76.7838 28.786 76.7838 28.786ZM94.1238 14.8007C94.1238 18.5861 93.2398 20.1727 90.3385 20.1727H88.6838V9.36072H89.8625C93.0585 9.36072 94.1238 10.7207 94.1238 14.8007ZM97.2745 14.6647C97.2745 10.1087 94.1011 8.61271 89.7718 8.61271H84.2185V8.81672C85.5558 9.90472 85.7598 10.2221 85.7598 11.4234V25.998C85.7598 27.1994 85.5785 27.5167 84.2185 28.6047V28.8087H90.2705V28.6047C88.9105 27.5847 88.6611 27.1994 88.6611 26.0434V20.898H90.2478C94.0558 20.9207 97.2745 19.2887 97.2745 14.6647ZM104.664 21.442H98.9518L101.762 11.2647C101.83 11.446 101.876 11.6274 101.944 11.8314L104.664 21.442ZM138.8 8.81672V8.61271H134.244V8.81672C135.468 9.90472 135.853 10.426 135.853 11.2194C135.853 11.65 135.762 11.9674 135.422 12.7607L132.793 18.8807L129.37 11.2874C129.098 10.6981 129.008 10.3807 129.008 10.086C129.008 9.54205 129.302 9.24739 130.141 8.81672V8.61271H120.032V8.81672C122.298 10.4941 122.593 11.1514 122.593 12.9874V24.6154L114.161 8.63538H109.968V8.83938C110.852 9.58738 111.35 10.0634 111.781 10.6301V24.638C111.781 26.1567 111.622 26.8141 110.398 28.6274C109.469 27.4714 109.265 26.9047 108.789 25.2501L104.029 8.63538H99.9265V8.83938C100.561 9.40605 100.969 9.79138 101.286 10.2447L97.2971 24.502C96.7305 26.5647 96.2771 27.1994 94.7585 28.6274V28.8314H99.6545V28.6274C98.2491 27.562 97.8185 27.018 97.8185 26.1114C97.8185 25.7487 97.9091 25.2274 98.1131 24.502L98.7478 22.2127H104.89L105.752 25.2274C106.024 26.1794 106.114 26.5647 106.114 26.9501C106.114 27.4714 105.888 27.834 104.868 28.6274V28.8314H115.113V28.6274C112.846 26.9501 112.552 26.2927 112.552 24.638V11.8767C112.574 11.8994 112.574 11.9447 112.597 11.9674L121.505 28.8314H123.364V12.9874C123.364 11.3101 123.522 10.6527 124.701 8.83938C125.449 9.76871 125.948 10.5394 126.56 11.922L130.209 19.9687V26.0887C130.209 27.222 129.982 27.6301 128.6 28.6501V28.854H134.742V28.6501C133.382 27.6301 133.133 27.2447 133.133 26.0887V19.878L136.17 12.8287C136.782 11.31 137.281 10.6074 138.8 8.81672Z" fill="black"/>
</svg>
