<svg width="141" height="40" viewBox="0 0 141 40" fill="none" xmlns="http://www.w3.org/2000/svg">
<path d="M42.5122 32.3906H40.6031L39.2869 35.5613C39.0178 34.8422 38.0884 32.3906 38.0884 32.3906H35.8892V33.0004H36.5662V37.0457H35.8892V37.6554H37.6932V37.0457H37.1801V34.203L38.5804 37.7774H39.0893C39.0893 37.7774 40.0943 35.3174 40.5695 34.1652V37.0457H40.0817V37.6554H42.7183V37.0457H42.037V33.0004H42.7183V32.3906H42.5122Z" fill="#1A1A1A"/>
<path d="M80.9917 32.3906H79.1751V33.0004H79.6713C79.3643 33.3704 78.1995 34.5352 78.1196 34.632H77.9556V33.0004H78.4182V32.3906H75.7563V33.0004H76.4754V37.0457H75.7648V37.668H78.4434V37.0373H77.964V35.145H78.1196C78.1995 35.2753 79.0952 36.6756 79.3265 37.0373H78.948V37.6596H81.7781V37.0373H81.1011C81.0085 36.9069 79.3727 34.4722 79.255 34.2997C79.3812 34.1568 80.3946 33.1013 80.4787 33.0004H81.408V32.3906H80.9917Z" fill="#1A1A1A"/>
<path d="M87.6002 32.3906H84.8501V33.0298H85.565V37.0457H84.8501V37.6638H90.0644V35.6159H89.5136V35.7547C89.3832 36.9027 88.4833 37.0163 87.7558 37.0163H87.0536V33.0004H87.739V32.3906H87.6002Z" fill="#1A1A1A"/>
<path d="M68.8501 33.8725C68.8501 35.0121 70.0401 35.3948 70.9989 35.7017C71.8861 35.9877 72.4286 36.1937 72.4286 36.6521C72.4286 37.2997 71.5876 37.3712 71.2302 37.3712C70.8058 37.3897 70.3899 37.2491 70.0639 36.9768C69.7379 36.7045 69.5255 36.3202 69.4682 35.8994V35.7396H68.7407L68.8332 37.5646L68.951 37.6067C69.6568 37.8515 70.399 37.9752 71.146 37.9725C72.6052 37.9725 73.7028 37.1988 73.7028 36.1727C73.7028 34.8649 72.4412 34.4654 71.4488 34.1416C70.6751 33.8935 70.1873 33.7211 70.1873 33.3511C70.1873 32.981 70.5195 32.6951 71.0283 32.6951C71.386 32.6889 71.735 32.8059 72.0167 33.0264C72.2984 33.2468 72.4958 33.5575 72.5758 33.9062L72.6094 34.0407H73.2949L73.2066 32.4722L73.0804 32.4344C72.4683 32.2176 71.8248 32.1025 71.1755 32.0938C70.0527 32.0938 68.8501 32.6446 68.8501 33.8725Z" fill="#1A1A1A"/>
<path d="M45.0135 33.9062C44.6645 33.9357 44.3071 33.9483 43.958 33.9483H43.3735V34.4655H43.8739V37.14H43.3735V37.6572H45.6779V37.1484H45.1817V33.9062H45.0135Z" fill="#1A1A1A"/>
<path d="M43.8267 33.0064C43.8258 33.145 43.8663 33.2807 43.9429 33.3962C44.0194 33.5117 44.1287 33.6019 44.2566 33.6551C44.3846 33.7083 44.5255 33.7222 44.6614 33.6951C44.7973 33.6679 44.9221 33.6009 45.0198 33.5026C45.1175 33.4043 45.1837 33.2792 45.2101 33.1431C45.2364 33.007 45.2216 32.8662 45.1676 32.7386C45.1136 32.6109 45.0228 32.5022 44.9068 32.4264C44.7908 32.3505 44.6549 32.3109 44.5163 32.3126C44.3334 32.3148 44.1586 32.3887 44.0296 32.5185C43.9006 32.6482 43.8278 32.8234 43.8267 33.0064Z" fill="#1A1A1A"/>
<path d="M47.6902 33H46.5338V33.9588H46.0376V34.476H46.5338V36.6879C46.5338 37.6256 47.0594 37.7518 47.5767 37.7518C47.7922 37.7697 48.0091 37.7414 48.2128 37.6689C48.4166 37.5964 48.6025 37.4813 48.7583 37.3313L48.8592 37.2304L48.527 36.8519L48.4135 36.957C48.3667 37.011 48.3093 37.0549 48.245 37.086C48.1806 37.1171 48.1106 37.1347 48.0392 37.1378C47.8836 37.1378 47.8416 37.0579 47.8416 36.7173V34.4466H48.5438V33.9588H47.8416V33H47.6902Z" fill="#1A1A1A"/>
<path d="M49.2095 36.1991V37.4606L49.3188 37.4985C49.7456 37.6649 50.1981 37.756 50.656 37.7676C51.4634 37.7676 52.2792 37.2798 52.2792 36.3547C52.2934 36.1075 52.2323 35.8618 52.1039 35.6501C51.9755 35.4383 51.7859 35.2705 51.5601 35.1688C51.5269 35.1473 51.4917 35.129 51.455 35.1142C51.2784 35.0343 51.0976 34.9712 50.9336 34.9123C50.5341 34.7736 50.286 34.681 50.286 34.4918C50.286 34.2269 50.5677 34.2059 50.656 34.2059C50.8548 34.208 51.0459 34.2834 51.1925 34.4176C51.3392 34.5519 51.4311 34.7355 51.4508 34.9333H51.9975V33.9578L51.8587 33.9073C51.4953 33.7497 51.1026 33.6709 50.7065 33.676C49.8276 33.676 49.2641 34.1806 49.2641 34.9376C49.2641 35.8501 50.0127 36.1192 50.5635 36.3168C50.984 36.4724 51.2574 36.5775 51.2574 36.8172C51.2574 37.1536 50.8369 37.1789 50.6855 37.1789C50.5581 37.1762 50.4325 37.148 50.3163 37.0959C50.2 37.0437 50.0954 36.9688 50.0087 36.8754C49.922 36.782 49.855 36.6722 49.8116 36.5524C49.7682 36.4326 49.7493 36.3053 49.7561 36.1781L49.2095 36.1991Z" fill="#1A1A1A"/>
<path d="M102.499 36.2655V37.527L102.608 37.5649C103.035 37.73 103.487 37.8196 103.945 37.8298C104.752 37.8298 105.572 37.342 105.572 36.4211C105.579 36.1786 105.513 35.9397 105.385 35.7341C105.256 35.5285 105.07 35.3652 104.849 35.2647C104.815 35.2441 104.778 35.2272 104.74 35.2142C104.572 35.1356 104.399 35.0682 104.223 35.0124C103.802 34.8694 103.575 34.7769 103.575 34.5919C103.575 34.3227 103.857 34.3017 103.945 34.3017C104.144 34.3038 104.335 34.3792 104.482 34.5135C104.628 34.6477 104.72 34.8314 104.74 35.0292H105.287V34.0284L105.148 33.9737C104.784 33.8161 104.392 33.7373 103.996 33.7424C103.117 33.7424 102.553 34.247 102.553 35.025C102.553 35.9375 103.302 36.2108 103.848 36.4043C104.269 36.5599 104.546 36.6692 104.546 36.9047C104.546 37.2411 104.126 37.2663 103.975 37.2663C103.847 37.2631 103.722 37.2345 103.605 37.1822C103.489 37.1299 103.385 37.055 103.298 36.9618C103.211 36.8686 103.143 36.7591 103.099 36.6395C103.055 36.5199 103.035 36.3928 103.041 36.2655H102.499Z" fill="#1A1A1A"/>
<path d="M57.1266 37.6909V37.1484H56.6388V33.9062H56.4706C56.1216 33.9357 55.7683 33.9483 55.4151 33.9483H54.8306V34.4655H55.331V36.1476C55.331 36.7489 55.0997 37.1063 54.7128 37.1063C54.4816 37.1063 54.326 37.0769 54.326 36.6564V33.9062H54.183C53.834 33.9357 53.4807 33.9483 53.1275 33.9483H52.522V34.4655H53.0182V36.4419C53.0182 37.3124 53.4597 37.7413 54.368 37.7413C54.7186 37.7461 55.0596 37.627 55.331 37.4049V37.6909H57.1266Z" fill="#1A1A1A"/>
<path d="M59.2557 33.9062C58.9067 33.9357 58.5535 33.9483 58.2002 33.9483H57.6157V34.4655H58.1161V37.14H57.6157V37.6572H59.9201V37.1484H59.4239V33.9062H59.2557Z" fill="#1A1A1A"/>
<path d="M58.0689 33.0064C58.068 33.1448 58.1084 33.2803 58.1847 33.3957C58.2611 33.5112 58.3701 33.6013 58.4978 33.6547C58.6256 33.708 58.7663 33.7222 58.9021 33.6954C59.0378 33.6686 59.1626 33.602 59.2605 33.5041C59.3584 33.4063 59.4249 33.2815 59.4517 33.1457C59.4785 33.0099 59.4644 32.8692 59.411 32.7415C59.3577 32.6138 59.2675 32.5048 59.1521 32.4284C59.0367 32.352 58.9011 32.3117 58.7627 32.3125C58.5787 32.3125 58.4022 32.3856 58.2721 32.5157C58.142 32.6459 58.0689 32.8223 58.0689 33.0064Z" fill="#1A1A1A"/>
<path d="M67.0224 37.1428C67.0249 37.0369 67.0585 36.9341 67.1192 36.8473C67.1798 36.7605 67.2647 36.6934 67.3633 36.6546C67.4618 36.6158 67.5696 36.6069 67.6732 36.6291C67.7767 36.6513 67.8715 36.7035 67.9455 36.7793C68.0195 36.855 68.0695 36.9509 68.0893 37.055C68.1091 37.159 68.0977 37.2666 68.0566 37.3642C68.0155 37.4619 67.9466 37.5452 67.8583 37.6038C67.7701 37.6624 67.6666 37.6937 67.5606 37.6937C67.4886 37.6949 67.417 37.6814 67.3503 37.654C67.2836 37.6265 67.2232 37.5858 67.1728 37.5342C67.1225 37.4826 67.0831 37.4213 67.0573 37.354C67.0314 37.2867 67.0195 37.2149 67.0224 37.1428Z" fill="#1A1A1A"/>
<path d="M73.9752 37.1681C73.9727 37.0611 74.0022 36.9558 74.0598 36.8657C74.1174 36.7755 74.2005 36.7046 74.2986 36.6619C74.3967 36.6192 74.5053 36.6067 74.6106 36.626C74.7158 36.6454 74.8129 36.6956 74.8894 36.7704C74.966 36.8451 75.0185 36.941 75.0403 37.0457C75.0621 37.1504 75.0522 37.2593 75.0119 37.3584C74.9715 37.4575 74.9026 37.5423 74.8138 37.602C74.725 37.6618 74.6205 37.6937 74.5135 37.6937C74.4436 37.6948 74.3741 37.6821 74.3091 37.6562C74.2441 37.6303 74.1849 37.5919 74.1349 37.543C74.0848 37.4941 74.045 37.4358 74.0176 37.3715C73.9902 37.3071 73.9758 37.238 73.9752 37.1681Z" fill="#1A1A1A"/>
<path d="M82.3033 37.1825C82.3041 37.0762 82.3364 36.9726 82.396 36.8846C82.4557 36.7966 82.54 36.7283 82.6385 36.6882C82.7369 36.6481 82.845 36.6381 82.9491 36.6593C83.0532 36.6805 83.1488 36.7321 83.2236 36.8076C83.2985 36.883 83.3493 36.9789 83.3697 37.0832C83.3902 37.1875 83.3793 37.2955 83.3384 37.3936C83.2976 37.4917 83.2286 37.5756 83.1401 37.6345C83.0517 37.6935 82.9478 37.7249 82.8415 37.7249C82.7703 37.7255 82.6997 37.7118 82.6339 37.6847C82.5681 37.6576 82.5083 37.6176 82.4582 37.5671C82.408 37.5165 82.3685 37.4565 82.3419 37.3904C82.3153 37.3244 82.3022 37.2537 82.3033 37.1825Z" fill="#1A1A1A"/>
<path d="M92.299 33.9062C91.95 33.9357 91.5925 33.9483 91.2435 33.9483H90.6548V34.4655H91.1552V37.14H90.6548V37.6909H92.9634V37.1526H92.4546V33.9062H92.299Z" fill="#1A1A1A"/>
<path d="M91.1157 33.0184C91.1157 33.1566 91.1568 33.2917 91.2337 33.4066C91.3106 33.5215 91.4198 33.611 91.5476 33.6637C91.6754 33.7164 91.816 33.73 91.9515 33.7027C92.087 33.6754 92.2114 33.6085 92.3089 33.5105C92.4063 33.4124 92.4725 33.2876 92.4989 33.152C92.5254 33.0163 92.511 32.8758 92.4575 32.7483C92.404 32.6208 92.3139 32.5121 92.1985 32.4359C92.0832 32.3597 91.9478 32.3195 91.8096 32.3203C91.7181 32.3203 91.6275 32.3384 91.5431 32.3735C91.4586 32.4087 91.3819 32.4602 91.3175 32.525C91.253 32.5899 91.202 32.6669 91.1673 32.7516C91.1327 32.8362 91.1152 32.9269 91.1157 33.0184Z" fill="#1A1A1A"/>
<path d="M95.1853 34.1988V33.9087H95.0213C94.6723 33.9381 94.3149 33.9507 93.9617 33.9507H93.3813V34.4679H93.8776V37.1424H93.3813V37.6933H95.4839V37.155H95.2022V35.3258C95.2022 34.8212 95.5175 34.5226 95.8203 34.5226C96.0222 34.5226 96.2072 34.5857 96.2072 35.0398V37.1424H95.9885V37.6933H98.0112V37.155H97.5024V35.1702C97.5153 34.992 97.4887 34.8132 97.4246 34.6465C97.3606 34.4798 97.2605 34.3292 97.1316 34.2056C97.0028 34.0819 96.8482 33.9882 96.679 33.931C96.5097 33.8739 96.33 33.8548 96.1525 33.875C95.8019 33.865 95.4592 33.9797 95.1853 34.1988Z" fill="#1A1A1A"/>
<path d="M63.9914 32.1133C62.2126 32.1133 61.0142 33.2907 61.0142 35.0569C61.0142 36.823 62.2126 38.0004 63.9914 38.0004C65.7701 38.0004 66.9686 36.823 66.9686 35.0569C66.9686 33.2907 65.7701 32.1133 63.9914 32.1133ZM63.9914 37.4285C62.8182 37.4285 62.6668 36.167 62.6668 35.0485C62.6668 33.9299 62.8182 32.6726 63.9914 32.6726C65.1646 32.6726 65.316 33.9341 65.316 35.0485C65.316 36.1628 65.1646 37.4285 63.9914 37.4285Z" fill="#1A1A1A"/>
<path d="M101.887 35.7983V35.6427C101.898 35.4083 101.859 35.1742 101.774 34.9555C101.689 34.7367 101.56 34.5382 101.393 34.3726C101.227 34.2071 101.028 34.0782 100.809 33.9942C100.589 33.9102 100.355 33.873 100.121 33.885C99.8629 33.8745 99.6057 33.9172 99.3651 34.0104C99.1245 34.1036 98.9057 34.2454 98.7222 34.4268C98.5388 34.6083 98.3947 34.8256 98.2989 35.0651C98.2031 35.3047 98.1576 35.5615 98.1653 35.8194C98.1512 36.0791 98.1922 36.3389 98.2856 36.5817C98.3791 36.8244 98.523 37.0446 98.7077 37.2277C98.8924 37.4109 99.1139 37.5528 99.3574 37.6442C99.601 37.7356 99.8611 37.7743 100.121 37.7579C100.486 37.7712 100.846 37.6679 101.148 37.463C101.45 37.2582 101.68 36.9623 101.803 36.6183L101.862 36.4796L101.395 36.2777L101.336 36.4165C101.261 36.633 101.12 36.8207 100.933 36.9533C100.746 37.086 100.522 37.157 100.293 37.1566C99.7759 37.1566 99.5446 36.7823 99.5446 35.9455V35.7983H101.887ZM100.083 34.398C100.356 34.398 100.503 34.6419 100.503 35.1171V35.2853H99.5698C99.5993 34.7891 99.6708 34.398 100.083 34.398Z" fill="#1A1A1A"/>
<path d="M81.6823 2.83203H59.4751V27.6002H81.6823V2.83203Z" fill="white"/>
<path d="M70.5887 7.45703C65.9631 7.45703 62.7251 10.6445 62.7251 15.2029C62.7167 19.8453 65.879 22.9739 70.5887 22.9739C75.2984 22.9739 78.448 19.8537 78.448 15.2113C78.4396 10.6445 75.2143 7.45703 70.5887 7.45703ZM70.5887 21.2204C68.3179 21.2204 67.3087 19.3617 67.3087 15.2029C67.3087 11.044 68.3179 9.20636 70.5887 9.20636C72.8594 9.20636 73.8687 11.0566 73.8687 15.2029C73.8687 19.3491 72.8468 21.2204 70.5887 21.2204Z" fill="#1A1A1A"/>
<path d="M105.144 2H35.6001V28.4418H105.556V2H105.144ZM81.6882 27.6007H59.4725V2.82841H81.6882V27.6007Z" fill="#1A1A1A"/>
<path d="M55.6814 8.51562H50.8245L47.5024 16.56L44.4537 8.51562H38.8735V10.0673H40.5976V20.3278H38.8735V21.8795H43.4529V20.3278H42.1493V13.1244C43.3268 16.1143 45.7111 22.1907 45.7111 22.1907H46.9978L50.753 13.0235V20.3278H49.5167V21.8795H56.2028V20.3278H54.4787V10.0673H56.2028V8.51562H55.6814Z" fill="white"/>
<path d="M93.8636 8.51562H86.6434V10.0505H88.3675V20.3236H86.6392V21.8879H100.516V16.703H99.183L99.141 17.052C98.8046 19.962 96.5296 20.3068 94.6793 20.3068H92.1773V10.0505C92.2109 10.0505 92.4338 10.0505 93.8593 10.0505V8.51562H93.8636Z" fill="white"/>
</svg>
