<svg width="112" height="40" viewBox="0 0 112 40" fill="none" xmlns="http://www.w3.org/2000/svg">
<path d="M100.186 35C104.544 35 108.077 33.6325 108.077 30.0771C108.077 27.4684 106.067 26.5638 103.655 26.0168C101.582 25.554 100.418 25.1543 100.418 24.0813C100.418 22.9874 101.476 22.4404 102.682 22.4404C103.93 22.4404 104.628 22.9663 104.628 23.892C104.628 24.1655 104.565 24.439 104.48 24.6283H109.367C109.409 24.418 109.452 23.9972 109.452 23.6816C109.452 20.7574 106.13 19.9579 103.105 19.9579C99.0011 19.9579 95.5317 21.4095 95.5317 24.7966C95.5317 27.0056 97.1183 27.8261 99.5511 28.4993C102.238 29.2356 103.126 29.6774 103.126 30.7293C103.126 31.8864 102.026 32.4544 100.672 32.4544C99.2972 32.4544 98.3876 31.8654 98.3876 30.8135C98.3876 30.54 98.4087 30.3506 98.4722 30.1403H93.395C93.3316 30.4348 93.3104 30.7714 93.3104 31.0449C93.3104 34.1164 96.7587 35 100.186 35ZM80.5751 34.979C82.7541 34.979 84.5523 34.2216 85.9273 32.6017C85.7581 33.2539 85.6523 33.9271 85.61 34.6844H90.6026C90.7718 33.4853 91.1314 32.223 91.5545 30.8135L92.7815 26.6269C93.0565 25.7013 93.2892 24.7125 93.2892 23.9762C93.2892 20.8626 90.4122 19.9369 86.7524 19.9369C82.6906 19.9369 79.4539 21.136 78.7981 24.3969H83.9388C84.3407 23.1136 85.1023 22.4404 86.435 22.4404C87.6197 22.4404 88.2544 23.0084 88.2544 23.9551C88.2544 24.46 88.064 25.2174 87.8736 25.6802L86.6677 25.7013C80.8925 25.8485 76.1749 26.7952 76.1749 31.1501C76.1961 33.5905 77.9308 34.979 80.5751 34.979ZM83.156 32.223C82.056 32.223 81.2732 31.655 81.2732 30.6031C81.2732 28.4362 83.8541 27.8682 86.4139 27.8682H87.2178L86.9639 28.6676C86.3081 30.6662 84.9965 32.223 83.156 32.223ZM64.9205 25.8275C65.5763 23.8289 66.6129 22.5877 68.5591 22.5877C69.9977 22.5877 70.6746 23.2609 70.6746 24.7125C70.6746 25.0491 70.5688 25.4909 70.4842 25.8275H64.9205ZM66.1475 34.979C70.6112 34.979 73.2555 33.6536 74.5248 29.9299H69.4053C68.7918 31.7181 67.988 32.3492 66.4013 32.3492C64.7724 32.3492 63.8839 31.7181 63.8839 30.1613C63.8839 29.5091 64.032 28.8569 64.2012 28.352H74.9691C75.3076 27.6578 75.5403 26.2062 75.5403 25.1964C75.5403 21.5358 72.769 20.0631 68.9611 20.0631C63.0165 20.0631 58.9125 23.9762 58.9125 29.5933C58.9125 33.3801 61.9376 34.979 66.1475 34.979ZM48.9485 35C53.3064 35 56.8393 33.6325 56.8393 30.0771C56.8393 27.4684 54.8296 26.5638 52.4179 26.0168C50.3447 25.554 49.1812 25.1543 49.1812 24.0813C49.1812 22.9874 50.239 22.4404 51.4448 22.4404C52.6929 22.4404 53.391 22.9663 53.391 23.892C53.391 24.1655 53.3276 24.439 53.243 24.6283H58.1297C58.1721 24.418 58.2144 23.9972 58.2144 23.6816C58.2144 20.7574 54.893 19.9579 51.8679 19.9579C47.7638 19.9579 44.2944 21.4095 44.2944 24.7966C44.2944 27.0056 45.881 27.8261 48.3139 28.4993C51.0005 29.2356 51.889 29.6774 51.889 30.7293C51.889 31.8864 50.789 32.4544 49.4351 32.4544C48.06 32.4544 47.1503 31.8654 47.1503 30.8135C47.1503 30.54 47.1715 30.3506 47.235 30.1403H42.1578C42.0943 30.4348 42.0732 30.7714 42.0732 31.0449C42.0732 34.1164 45.5214 35 48.9485 35ZM33.2516 34.6634H38.4768L44.2944 14.467H39.0903L33.2516 34.6634ZM29.1475 34.6634H29.3167L35.1555 14.467H29.9514L26.3974 26.7532L29.1475 34.6634ZM13.6409 34.6634H23.6895L22.5472 31.108H14.8045L13.6409 34.6634ZM3 34.6634H8.05603L15.6718 14.467H18.1046L15.0583 5H14.8468L3 34.6634Z" fill="#1A1A1A"/>
<path d="M15.875 27.2852H21.8844L19.0412 18.2852H18.7828L15.875 27.2852Z" fill="#1A1A1A"/>
</svg>
