<svg width="141" height="40" viewBox="0 0 141 40" fill="none" xmlns="http://www.w3.org/2000/svg">
<g clip-path="url(#clip0_906_18995)">
<g clip-path="url(#clip1_906_18995)">
<path d="M0.879883 29.5436L3.43768 27.0579C4.80183 28.4294 6.50703 29.2865 8.63853 29.2865C10.429 29.2865 11.5374 28.4294 11.7079 27.4008C11.9637 26.2008 11.0258 25.8579 8.55327 25.2579C5.14287 24.4008 2.7556 23.4579 3.35242 20.1151C3.86398 16.9436 6.84807 14.8008 10.5142 14.8008C13.2426 14.8008 15.2888 15.6579 16.7382 17.1151L14.3509 19.8579C13.072 18.6579 11.4521 17.9722 9.83216 17.9722C8.29749 17.9722 7.18911 18.8294 7.01859 19.7722C6.76281 20.9722 7.70067 21.4008 10.2585 22.0008C13.7541 22.8579 15.9709 23.8865 15.4593 27.0579C14.8625 30.3151 12.0489 32.4579 7.95645 32.4579C4.97235 32.4579 2.58508 31.4293 0.879883 29.5436Z" fill="#1A1A1A"/>
<path d="M29.3574 23.9761L27.908 32.119H24.4123L25.6912 24.7475C25.947 23.2047 25.1797 22.0904 23.7302 22.0904C22.1956 22.0904 20.9167 23.2047 20.6609 24.5761L19.2967 32.119H15.7158L18.7852 14.8047H22.3661L21.343 20.8904C22.3661 19.7761 23.9008 19.0047 25.5207 19.0047C28.249 19.0047 29.8689 21.1475 29.3574 23.9761Z" fill="#1A1A1A"/>
<path d="M32.0022 19.4301H35.5831L33.3664 32.2016H29.7002L32.0022 19.4301ZM32.4285 15.573C32.599 14.5444 33.6221 13.6016 34.7305 13.6016C35.7536 13.6016 36.521 14.5444 36.3505 15.573C36.1799 16.6873 35.1568 17.5444 34.0484 17.5444C33.0253 17.5444 32.258 16.6873 32.4285 15.573Z" fill="#1A1A1A"/>
<path d="M50.0762 25.6878C49.3941 29.6307 46.41 32.3735 42.9996 32.3735C41.2092 32.3735 39.845 31.6021 39.0777 30.2307L38.0545 36.3164H34.4736L37.4577 19.2593H41.0386L40.6976 21.0593C41.9765 19.8593 43.5112 19.0878 45.3016 19.0878C48.7973 19.0021 50.7583 21.8307 50.0762 25.6878ZM46.5805 25.6878C46.9216 23.545 45.8132 22.0878 43.8522 22.0878C42.0618 22.0878 40.6123 23.3735 40.1008 25.2593L39.9303 26.2878C39.7597 28.1735 40.8681 29.4593 42.5733 29.4593C44.5343 29.4593 46.1542 27.8307 46.5805 25.6878Z" fill="#1A1A1A"/>
<path d="M61.0741 23.5443L65.7634 32.1157H61.4151L58.3457 26.5443L53.3154 32.1157H49.1377L56.8111 23.63L52.1218 15.0586H56.3848L59.4541 20.7157L64.4845 15.1443H68.7474L61.0741 23.5443Z" fill="#1A1A1A"/>
<path d="M81.3652 25.6857C80.6832 29.6286 77.6991 32.3714 74.2887 32.3714C72.4982 32.3714 71.1341 31.6 70.3667 30.2286L69.3436 36.3143H65.7627L68.7468 19.2571H72.3277L71.9867 21.0571C73.2656 19.7714 74.8002 19 76.5907 19C80.0863 19 82.0473 21.8286 81.3652 25.6857ZM77.8696 25.6857C78.2106 23.5429 77.1022 22.0857 75.1413 22.0857C73.3508 22.0857 71.9014 23.3714 71.3898 25.2571L71.2193 26.2857C71.0488 28.1714 72.1572 29.4571 73.8624 29.4571C75.8234 29.4571 77.5285 27.8286 77.8696 25.6857Z" fill="#1A1A1A"/>
<path d="M84.6055 14.8906H88.1864L85.117 32.2049H81.5361L84.6055 14.8906Z" fill="#1A1A1A"/>
<path d="M87.4172 25.6857C88.014 22.0857 91.7655 19 95.6021 19C99.3536 19 101.997 22.0857 101.315 25.6857C100.718 29.2857 96.9663 32.3714 93.2149 32.3714C89.4634 32.4571 86.8204 29.4571 87.4172 25.6857ZM97.9042 25.6857C98.2452 23.7143 96.9663 22.0857 95.0053 22.0857C93.0444 22.0857 91.1686 23.7143 90.8276 25.6857C90.4866 27.6571 91.7655 29.3714 93.7264 29.3714C95.6874 29.4571 97.5631 27.7429 97.9042 25.6857Z" fill="#1A1A1A"/>
<path d="M111.72 19L111.209 22.0857C108.566 22.0857 106.605 23.6286 106.179 26.0286L105.07 32.1143H101.489L103.706 19.3429H107.287L106.861 21.7429C107.969 20.1143 109.759 19 111.72 19Z" fill="#1A1A1A"/>
<path d="M119.904 28.1714L121.78 30.4857C120.416 31.6857 118.114 32.4571 116.238 32.4571C112.487 32.4571 110.014 29.6286 110.696 25.6857C111.378 21.8286 114.703 19 118.455 19C122.462 19 124.252 22.0857 123.4 26.8857H114.106C114.277 28.2571 115.215 29.2 116.75 29.2C117.773 29.2857 119.052 28.8571 119.904 28.1714ZM114.618 24.4H120.33C120.245 23.1143 119.393 22.3429 117.943 22.3429C116.579 22.2571 115.3 23.1143 114.618 24.4Z" fill="#1A1A1A"/>
<path d="M133.884 19L133.373 22.0857C130.73 22.0857 128.769 23.6286 128.343 26.0286L127.234 32.1143H123.653L125.87 19.3429H129.451L129.025 21.7429C130.133 20.1143 131.924 19 133.884 19Z" fill="#1A1A1A"/>
<path d="M134.99 19.0007V16.6864H134.138V16.2578H136.354V16.6864H135.502V19.0007H134.99ZM136.61 19.0007V16.2578H137.292L137.974 18.4007L138.656 16.2578H139.339V19.0007H138.912V16.6864L138.23 19.0007H137.804L137.037 16.6864V19.0007H136.61Z" fill="#1A1A1A"/>
</g>
</g>
<defs>
<clipPath id="clip0_906_18995">
<rect width="140" height="40" fill="white" transform="translate(0.200195)"/>
</clipPath>
<clipPath id="clip1_906_18995">
<rect width="139.826" height="24" fill="white" transform="translate(0.200195 13)"/>
</clipPath>
</defs>
</svg>
