<svg width="141" height="40" viewBox="0 0 141 40" fill="none" xmlns="http://www.w3.org/2000/svg">
<path d="M24.0127 29.5398H43.4823V9.88281H24.0127V29.5398Z" fill="#CACACA"/>
<path d="M42.8501 28.9224L35.7811 22.9436C35.7811 22.9436 34.8272 22.0067 33.754 22.0067C32.6639 22.0067 31.71 22.9436 31.71 22.9436L24.641 28.9224L24.6239 28.9054L30.5517 21.7682C30.5517 21.7682 31.4885 20.7973 31.4885 19.7072C31.4885 18.617 30.5517 17.6631 30.5517 17.6631L24.6239 10.5089L24.641 10.4919L31.71 16.4878C31.71 16.4878 32.6639 17.4417 33.754 17.4417C34.8272 17.4417 35.7811 16.4878 35.7811 16.4878L42.8501 10.4919L42.8841 10.5259L36.9394 17.6631C36.9394 17.6631 36.0195 18.634 36.0195 19.7072C36.0195 20.7973 36.9394 21.7682 36.9394 21.7682L42.8841 28.9054L42.8501 28.9224ZM46.1546 19.7072C46.1546 17.7653 46.2398 16.0449 47.6536 12.9958C48.0624 12.1101 48.9652 10.8155 47.6366 9.31655C46.5464 8.22639 45.32 8.39673 44.4853 8.89071C44.9623 8.05605 45.1496 6.79555 44.0595 5.70539C42.5775 4.35972 41.283 5.27954 40.4142 5.68835C37.3993 7.11919 35.6959 7.20436 33.7711 7.20436C31.8463 7.20436 30.1258 7.11919 27.1279 5.68835C26.2592 5.27954 24.9646 4.35972 23.4827 5.70539C22.3925 6.81258 22.5799 8.05605 23.0568 8.89071C22.2222 8.39673 20.9787 8.22639 19.9056 9.31655C18.5599 10.8155 19.4797 12.1101 19.8885 12.9958C21.3194 16.0449 21.4046 17.7823 21.4046 19.7072C21.4046 21.649 21.3194 23.3864 19.8885 26.4355C19.4797 27.3212 18.5769 28.6158 19.9056 30.1148C20.9957 31.2049 22.2392 31.0176 23.0568 30.5406C22.5799 31.3753 22.3925 32.6358 23.4827 33.7259C24.9646 35.0886 26.2592 34.1688 27.1279 33.743C30.1429 32.3121 31.8463 32.227 33.7711 32.227C35.6959 32.227 37.3993 32.2951 40.4142 33.743C41.283 34.1518 42.5775 35.0716 44.0595 33.7259C45.1496 32.6358 44.9623 31.3923 44.4853 30.5406C45.32 31.0176 46.5464 31.2049 47.6366 30.1148C48.9822 28.6158 48.0624 27.3042 47.6536 26.4355C46.2228 23.3864 46.1546 21.649 46.1546 19.7072Z" fill="#1E1B18"/>
<path d="M69.6211 31.1203C72.0399 30.2516 75.0379 26.0783 74.5439 19.5033C74.067 13.1497 71.6652 8.1588 65.2775 7.68185C65.2775 7.68185 64.0681 7.59668 63.0461 7.59668C61.9559 7.59668 61.7345 7.54558 61.6493 8.72091C61.5131 10.9183 61.462 28.0202 61.6153 30.4901C61.6323 30.8307 61.6664 31.6484 63.0631 31.7846C65.6012 32.0231 67.7134 31.8187 69.6211 31.1203ZM67.1512 6.59169C72.551 6.57466 79.6711 10.3051 79.654 19.6736C79.637 27.8158 73.8114 32.8237 68.4458 32.8237H54.8018L54.8188 32.5341C55.5853 32.3979 56.454 31.9209 56.5903 31.3929C57.0502 29.434 56.931 11.4974 56.6584 8.55058C56.5733 7.63075 55.8579 7.03457 54.9721 6.88126L54.938 6.60873C54.938 6.59169 65.9248 6.60872 67.1512 6.59169ZM97.0455 26.3849C97.1477 20.7468 93.0596 19.2478 88.8352 19.0263C88.7501 19.0263 88.7841 18.8049 88.8523 18.8049C90.232 18.7538 95.6998 18.1065 95.4784 12.826C95.257 7.68185 91.3903 7.56262 89.9765 7.54558C88.8182 7.52855 88.5797 7.52855 88.0858 7.56262C87.2681 7.59668 87.0637 7.66482 87.0637 8.55058C87.0637 8.66981 86.8764 17.8169 86.7741 24.2557C86.723 27.7476 86.706 30.439 86.706 30.439C86.723 31.0863 86.6549 31.7335 88.205 31.8017C89.8232 31.8868 91.9013 31.955 93.3492 31.6313C94.6949 31.3588 96.9603 30.3708 97.0455 26.3849ZM95.3762 18.8219C101.73 20.4061 102.122 25.0563 102.036 26.3509C101.747 32.1594 96.8752 32.8237 94.8993 32.8237H79.8925L79.9095 32.5341C80.9997 32.3808 81.8173 31.7846 81.8173 29.8428L81.9025 9.84514C81.9195 7.68185 81.3574 7.01754 80.1821 6.86423L80.148 6.59169H91.4925C93.5706 6.59169 99.8561 6.16585 100.384 11.9914C100.827 16.6586 95.7509 18.6175 95.3762 18.8219ZM119.854 6.67686H120.109L120.194 11.3441H119.905C119.445 9.43633 117.639 7.64779 114.011 7.46041C109.719 7.23898 107.862 9.81107 107.845 12.2639C107.828 15.5174 110.332 16.1817 114.045 17.1015C115.8 17.5274 122.273 18.3961 121.762 25.7547C121.404 30.8989 117.009 33.3347 110.792 33.1473C110.792 33.1473 108.203 33.0622 104.591 32.0572C103.927 31.8698 103.74 32.0912 103.484 32.5852L103.195 32.6023L103.212 27.5603L103.501 27.5773C103.638 28.0883 103.689 29.0422 104.591 29.8428C105.256 30.439 106.823 31.9039 110.264 31.9379C113.636 31.989 116.43 30.5412 116.805 26.7256C116.907 25.7036 116.805 23.3359 114.522 22.2628C112.734 21.4281 107.794 20.866 105.409 18.7538C105.409 18.7538 102.564 16.7609 103.007 13.0134C103.638 7.73295 107.998 6.42135 111.916 6.33618C111.916 6.33618 115.425 6.30212 118.218 7.03457C118.218 7.03457 118.9 7.22194 119.462 7.0005C119.666 6.91533 119.786 6.76203 119.854 6.67686Z" fill="#1E1B18"/>
</svg>
