<svg width="141" height="40" viewBox="0 0 141 40" fill="none" xmlns="http://www.w3.org/2000/svg">
<path fill-rule="evenodd" clip-rule="evenodd" d="M46.6357 25.7569V13.7227H49.8624L53.9509 22.7157L57.9787 13.7227H61.0699V25.7569H58.4091V18.756L55.3392 25.7569H52.503L49.3936 18.7942V25.7569H46.6357Z" fill="#1A1A1A"/>
<path fill-rule="evenodd" clip-rule="evenodd" d="M71.7815 21.0975L69.5552 15.9964L67.38 21.0975H71.7815ZM65.3898 25.7569H62.2607L67.6394 13.7227H71.4917L76.9088 25.7569H73.8202L72.7541 23.3597H66.4231L65.3898 25.7569Z" fill="#1A1A1A"/>
<path fill-rule="evenodd" clip-rule="evenodd" d="M78.1514 25.7569V13.7227H89.729V16.1289H80.9477V18.5191H88.4768V20.8676H80.9477V23.3497H89.7503V25.7569H78.1514Z" fill="#1A1A1A"/>
<path fill-rule="evenodd" clip-rule="evenodd" d="M94.8387 19.2484H100.922V16.1289H94.8387V19.2484ZM92.0029 25.7569V13.7227H101.691C102.985 13.7227 103.737 14.466 103.737 15.7409V19.784C103.737 20.714 102.907 21.5548 101.298 21.5548C101.207 21.5593 101.114 21.5548 101.018 21.5548L103.839 25.7569H100.726L98.0522 21.6421H94.8387V25.7569H92.0029Z" fill="#1A1A1A"/>
<path fill-rule="evenodd" clip-rule="evenodd" d="M108.835 25.7643H107.875C106.622 25.7643 106.019 25.0455 106.019 23.999V22.4269H108.835V23.358H114.82V20.8945C114.82 20.8945 109.051 20.8945 107.955 20.8945C106.859 20.8945 106.07 20.1632 106.07 19.1483V15.5756C106.07 14.4944 106.929 13.7305 107.974 13.7305C109.019 13.7305 115.822 13.7305 115.822 13.7305C116.882 13.7305 117.616 14.516 117.616 15.6519C117.616 16.7862 117.616 17.0879 117.616 17.0879H114.82V16.1367H108.835V18.5068H115.68C116.69 18.5068 117.616 19.1704 117.616 20.4478V23.8825C117.616 25.0525 116.962 25.7643 115.739 25.7643C114.516 25.7643 108.835 25.7643 108.835 25.7643Z" fill="#1A1A1A"/>
<path fill-rule="evenodd" clip-rule="evenodd" d="M120.323 25.7619V13.7266H123.198V18.5401L128.674 13.7266H132.566L126.034 19.3171L132.801 25.7619H128.771L123.198 20.2878V25.7619H120.323Z" fill="#1A1A1A"/>
<path d="M11.9337 6H31.7276C33.4612 6 34.8665 7.39757 34.8665 9.12157V30.2336C34.8665 31.9576 33.4612 33.3552 31.7276 33.3552H11.9337C10.2029 33.3552 8.79982 31.9599 8.79982 30.2387V9.1266C8.79715 8.2983 9.12614 7.50301 9.71414 6.91637C10.3021 6.32972 11.1008 6 11.9337 6Z" fill="#1A1A1A"/>
<path d="M25.9824 18.9107L31.128 12.5206L31.1129 12.5006L23.6775 16.0434L21.8427 8.08203H21.8124L19.9776 16.0434L12.5422 12.5006L12.527 12.5206L17.6726 18.9107L10.2373 22.4535L10.2474 22.4785H18.4966L16.6617 30.4449L16.6819 30.4549L21.8275 24.0648L26.9731 30.4549L26.9984 30.4399L25.1585 22.4785H33.4127L33.4178 22.4535L25.9824 18.9107Z" fill="white"/>
</svg>
