<svg width="140" height="40" viewBox="0 0 140 40" fill="none" xmlns="http://www.w3.org/2000/svg">
<path fill-rule="evenodd" clip-rule="evenodd" d="M59.783 26.7156V20.6397C59.783 19.0032 58.8413 17.6356 57.2047 17.6356C55.5678 17.6356 54.5367 19.0032 54.5367 20.6397V26.7156H52.2275V15.6401H54.3797L54.5367 17.1199C55.1643 15.9092 56.4648 15.4609 57.6307 15.4609C59.0431 15.4609 60.4778 16.0437 61.1057 17.6803C62.0025 16.0437 63.3925 15.4834 64.8945 15.4834C67.9437 15.4834 69.5805 17.4114 69.5805 20.5949V26.7156H67.2488V20.5949C67.2488 18.9583 66.4417 17.6578 64.8049 17.6578C63.1683 17.6578 62.1147 19.0032 62.1147 20.6397V26.7156H59.783Z" fill="#1E1B18"/>
<path fill-rule="evenodd" clip-rule="evenodd" d="M74.1775 21.1995C74.1775 23.1726 75.4555 24.7868 77.5627 24.7868C79.6928 24.7868 80.9708 23.1726 80.9708 21.1995C80.9708 19.249 79.5807 17.5674 77.5627 17.5674C75.4555 17.5674 74.1775 19.249 74.1775 21.1995ZM83.3023 21.1995C83.3023 24.4729 81.0381 26.9391 77.5627 26.9391C74.1102 26.9391 71.8682 24.4729 71.8682 21.1995C71.8682 17.9488 74.1329 15.4375 77.5627 15.4375C80.9708 15.4375 83.3023 17.9488 83.3023 21.1995Z" fill="#1E1B18"/>
<path fill-rule="evenodd" clip-rule="evenodd" d="M92.8097 18.3752C91.9353 17.568 90.9938 17.3438 89.8953 17.3438C88.4827 17.3216 87.541 17.7922 87.541 18.6667C87.5635 19.586 88.5276 19.9447 89.9399 20.0793C91.9801 20.2584 94.6481 20.7068 94.6257 23.5543C94.6034 25.6168 92.7872 27.0518 89.9175 27.0518C88.124 27.0518 86.3303 26.6482 84.873 25.0116L86.0835 23.3749C87.115 24.5184 88.6621 24.9892 89.9623 25.0116C91.061 25.0116 92.294 24.608 92.3164 23.5766C92.3389 22.5901 91.3974 22.2091 89.7605 22.0522C87.6755 21.8504 85.2767 21.1777 85.2542 18.7339C85.2542 16.2902 87.7876 15.3711 89.8502 15.3711C91.5543 15.3711 92.877 15.752 94.1099 16.8507L92.8097 18.3752Z" fill="#1E1B18"/>
<path fill-rule="evenodd" clip-rule="evenodd" d="M98.5719 21.18C98.5719 23.4667 100.186 24.8569 102.159 24.8569C106.935 24.8569 106.935 17.5256 102.159 17.5256C100.186 17.5256 98.5719 18.9156 98.5719 21.18ZM105.814 15.6646H108.056C108.056 19.3416 108.056 23.0408 108.056 26.7178H105.858L105.746 24.9242C105.006 26.3365 103.302 27.0093 101.935 27.0093C98.7063 27.0316 96.2627 24.9464 96.2627 21.18C96.2627 17.4808 98.7961 15.418 101.98 15.418C103.549 15.418 105.051 16.1579 105.746 17.4135L105.814 15.6646Z" fill="#1E1B18"/>
<path fill-rule="evenodd" clip-rule="evenodd" d="M111.195 26.7165H113.504V15.6185H111.195V26.7165ZM113.796 12.4126C113.796 14.3182 110.926 14.3182 110.926 12.4126C110.926 10.5291 113.796 10.5291 113.796 12.4126Z" fill="#1E1B18"/>
<path fill-rule="evenodd" clip-rule="evenodd" d="M125.992 25.2817C124.759 26.4925 123.392 27.0082 121.8 27.0082C118.616 27.0082 115.971 25.0128 115.971 21.2014C115.971 17.3901 118.594 15.3945 121.8 15.3945C123.325 15.3945 124.602 15.8654 125.791 17.0313L124.311 18.5782C123.616 17.9056 122.697 17.5919 121.822 17.5919C119.827 17.5919 118.28 19.0042 118.28 21.2014C118.28 23.533 119.894 24.7662 121.8 24.7662C122.742 24.7662 123.706 24.4747 124.423 23.7349L125.992 25.2817Z" fill="#1E1B18"/>
<path fill-rule="evenodd" clip-rule="evenodd" d="M18.3367 28.361L14.1181 24.1421C13.9606 23.9848 13.9606 23.7299 14.1181 23.5727L18.3367 19.3538C18.5376 19.1529 18.8634 19.1529 19.0643 19.3538L23.2041 23.4935C23.405 23.6944 23.405 24.0202 23.2041 24.2211L19.0643 28.361C18.8634 28.5619 18.5376 28.5619 18.3367 28.361Z" fill="#1E1B18"/>
<path fill-rule="evenodd" clip-rule="evenodd" d="M24.2035 22.4937L20.0638 18.354C19.8629 18.1531 19.8629 17.8273 20.0638 17.6264L24.2035 13.4866C24.4044 13.2857 24.7302 13.2857 24.9311 13.4866L29.0708 17.6264C29.2718 17.8273 29.2718 18.1531 29.0708 18.354L24.9311 22.4937C24.7302 22.6949 24.4044 22.6949 24.2035 22.4937Z" fill="#1E1B18"/>
<path fill-rule="evenodd" clip-rule="evenodd" d="M30.1391 28.2947L25.9993 24.1549C25.7984 23.954 25.7984 23.6282 25.9993 23.4273L30.1391 19.2876C30.34 19.0864 30.6658 19.0864 30.8667 19.2876L35.0064 23.4273C35.2073 23.6282 35.2073 23.954 35.0064 24.1549L30.8667 28.2947C30.6658 28.4956 30.34 28.4956 30.1391 28.2947Z" fill="#1E1B18"/>
<path fill-rule="evenodd" clip-rule="evenodd" d="M36.0072 22.4273L31.8675 18.2876C31.6666 18.0867 31.6666 17.7609 31.8675 17.56L36.0072 13.4202C36.2081 13.2193 36.5339 13.2193 36.7348 13.4202L40.8745 17.56C41.0754 17.7609 41.0754 18.0867 40.8745 18.2876L36.7348 22.4273C36.5339 22.6282 36.2081 22.6282 36.0072 22.4273Z" fill="#1E1B18"/>
<path fill-rule="evenodd" clip-rule="evenodd" d="M41.8578 28.3102L37.7181 24.1703C37.5172 23.9694 37.5172 23.6437 37.7181 23.4428L41.8578 19.303C42.0587 19.1021 42.3845 19.1021 42.5854 19.303L46.7251 23.4428C46.926 23.6437 46.926 23.9694 46.7251 24.1703L42.5854 28.3102C42.3845 28.5111 42.0587 28.5111 41.8578 28.3102Z" fill="#1E1B18"/>
</svg>
