<svg width="141" height="40" viewBox="0 0 141 40" fill="none" xmlns="http://www.w3.org/2000/svg">
<path fill-rule="evenodd" clip-rule="evenodd" d="M125.164 26.3168H130.312V8H125.164V26.3168ZM137.88 8V26.3168H132.733V8H137.88ZM13.3752 15.1148H9.21203V8H2.3999V26.3168H9.21203V17.2344H13.3752V26.3168H20.1866V8H13.3752V15.1148ZM45.3524 14.8121L44.9361 13.6006H39.3354V26.3168H44.9361V18.6719C44.9361 17.007 45.9955 16.0982 46.9043 16.0982C47.6603 16.0982 48.6445 16.2496 48.6445 17.9151V26.3168H54.2451V18.0665C54.2458 13.45 49.0616 11.6331 45.3524 14.8121ZM102.874 20.9805L100.264 13.6013H96.4423L93.8303 21.2839L91.106 13.6013H83.6125L80.9266 20.0731L77.1414 13.6013H70.7457L78.2769 26.4689L77.2928 28.8912C76.9517 29.6479 76.137 29.6855 75.9762 28.9665C75.9762 28.3421 75.7282 27.7433 75.2867 27.3018C74.8452 26.8603 74.2464 26.6122 73.622 26.6122C72.9976 26.6122 72.3988 26.8603 71.9573 27.3018C71.5158 27.7433 71.2678 28.3421 71.2678 28.9665C71.2765 30.3293 72.6386 32.1078 75.326 31.9949C78.0118 31.8812 79.1473 29.6486 79.5268 28.7021L85.7502 13.652L90.2363 26.3182H94.3227L96.8203 19.0144L99.3947 26.3182H103.254L107.607 13.6021H105.373L102.874 20.9805ZM29.8367 12.9547C25.5511 12.9547 22.0766 16.141 22.0766 20.0724C22.0766 24.0038 25.5511 27.1901 29.8367 27.1901C34.1222 27.1901 37.5975 24.0038 37.5975 20.0724C37.5975 16.141 34.123 12.9547 29.8367 12.9547ZM31.7673 23.4013C31.7673 23.9133 31.5639 24.4042 31.2019 24.7662C30.84 25.1282 30.349 25.3316 29.8371 25.3316C29.3251 25.3316 28.8342 25.1282 28.4722 24.7662C28.1102 24.4042 27.9068 23.9133 27.9068 23.4013V16.7427C27.9068 16.2308 28.1102 15.7398 28.4722 15.3778C28.8342 15.0158 29.3251 14.8125 29.8371 14.8125C30.349 14.8125 30.84 15.0158 31.2019 15.3778C31.5639 15.7398 31.7673 16.2308 31.7673 16.7427V23.4013Z" fill="#1E1B18"/>
<path fill-rule="evenodd" clip-rule="evenodd" d="M71.3733 21.088C71.4146 20.7911 71.4356 20.3747 71.4356 20.0669C71.4356 16.1355 67.9619 12.9492 63.6763 12.9492C59.3908 12.9492 55.9155 16.1355 55.9155 20.0669C55.9155 23.9984 59.39 27.1847 63.6763 27.1847C66.6214 27.1847 69.1828 25.6806 70.4978 23.4632L68.7838 22.8281C67.7482 24.4119 65.848 25.4713 63.6763 25.4713C62.6103 25.4713 61.7457 24.4618 61.7457 23.3959V21.088H71.3733ZM61.7457 16.7373C61.7457 16.2253 61.9491 15.7344 62.3111 15.3724C62.673 15.0104 63.164 14.807 63.6759 14.807C64.1879 14.807 64.6788 15.0104 65.0408 15.3724C65.4028 15.7344 65.6062 16.2253 65.6062 16.7373V19.2718H61.7457V16.7373ZM123.22 21.088C123.261 20.7911 123.282 20.3747 123.282 20.0669C123.282 16.1355 119.807 12.9492 115.521 12.9492C111.236 12.9492 107.761 16.1355 107.761 20.0669C107.761 23.9984 111.236 27.1847 115.521 27.1847C118.466 27.1847 121.029 25.6806 122.343 23.4632L120.629 22.8281C119.593 24.4119 117.694 25.4713 115.521 25.4713C114.455 25.4713 113.591 24.4618 113.591 23.3959V21.088H123.22ZM113.591 16.7373C113.591 15.6713 114.455 14.8074 115.521 14.8074C116.588 14.8074 117.452 15.6713 117.452 16.7373V19.2718H113.591V16.7373Z" fill="#1E1B18"/>
</svg>
