<svg width="112" height="82" viewBox="0 0 112 82" fill="none" xmlns="http://www.w3.org/2000/svg">
<path fill-rule="evenodd" clip-rule="evenodd" d="M38.4057 26.1506C42.6023 18.9033 49.7021 10.3763 61.2754 10.3763C74.3686 10.3763 84.9828 20.9905 84.9828 34.0841C84.9828 46.906 74.804 57.35 62.0862 57.7779L62.0537 57.745H42.9757C42.7472 57.745 42.5187 57.745 42.2902 57.9736L37.8024 62.0438C37.3023 61.7806 36.7321 61.6294 36.1216 61.6294C34.0653 61.6294 32.466 63.2286 32.466 65.2852C32.466 67.3412 34.0653 68.9403 36.1216 68.9403C38.1778 68.9403 39.777 67.2268 39.777 65.2852C39.777 64.68 39.6218 64.0971 39.3459 63.5811L43.4326 59.801H52.2217L47.5597 66.4593C47.1347 66.2909 46.6676 66.1988 46.1742 66.1988C44.118 66.1988 42.5187 67.9123 42.5187 69.8546C42.5187 71.7962 44.118 73.5098 46.1742 73.5098C48.2305 73.5098 49.8298 71.9106 49.8298 69.8546C49.8298 69.0575 49.5896 68.3296 49.1758 67.7361L54.7319 59.801H61.2754V59.8473C75.5043 59.8473 87.039 48.3127 87.039 34.0841C87.039 33.2502 86.9994 32.4258 86.9221 31.6125L90.7348 36.033L96.2873 35.6927L96.3219 35.6911L96.3452 35.6888L103.163 35.271L108.509 40.3224C108.758 40.6504 109.1 40.6292 109.328 40.6152L109.556 40.6013C109.784 40.5873 110.012 40.5734 110.226 40.3313C110.54 39.8538 110.505 39.2838 110.135 38.8487L104.063 33.1559L98.9855 33.4671L101.85 30.6592C102.278 30.1756 102.243 29.6056 101.873 29.1705C101.389 28.7421 100.819 28.7773 100.384 29.1471L95.7754 33.6641L91.7491 33.9112L86.189 27.4955C85.9744 26.6822 85.7211 25.8846 85.4311 25.1048L94.1954 19.6836L104.457 19.0539C105.027 19.0187 105.455 18.5351 105.421 17.9651C105.386 17.395 104.901 16.9666 104.331 17.0018L98.1746 17.3794L99.4747 14.3244C99.6748 13.8541 99.4048 13.1842 98.9347 12.9846C98.4646 12.7843 97.7945 13.0543 97.5945 13.5245L95.8941 17.5194L93.4994 17.6661L84.5778 23.0805C80.4506 14.3556 71.5679 8.32031 61.2754 8.32031C49.2033 8.32031 42.5359 15.4483 36.7373 24.9486L36.7445 24.9536L32.284 31.4418H13.0924C12.9517 31.4418 12.8108 31.4853 12.67 31.545C12.5823 31.5824 12.4947 31.6264 12.407 31.6705L6.40774 37.003C6.20854 36.9366 6.00111 36.8864 5.78685 36.854C5.5995 36.8256 5.40699 36.8111 5.21023 36.8111C3.15401 36.8111 1.55469 38.5246 1.55469 40.4669C1.55469 42.4085 3.15401 44.1221 5.21023 44.1221C7.26646 44.1221 8.86578 42.5229 8.86578 40.4669C8.86578 39.6597 8.61958 38.9235 8.19622 38.3266L13.5494 33.4978H23.9145L21.286 36.5975C20.8735 36.4402 20.4222 36.3548 19.9466 36.3548C17.8903 36.3548 16.2911 38.0684 16.2911 40.0106C16.2911 41.9522 17.8903 43.6658 19.9466 43.6658C22.0028 43.6658 23.6021 42.0666 23.6021 40.0106C23.6021 39.1951 23.3507 38.4516 22.9189 37.8508L26.6106 33.4978H32.8552C33.1979 33.4978 33.4264 33.2697 33.6548 33.041L38.3884 26.1378L38.4057 26.1506ZM3.61091 40.3525C3.61091 39.4383 4.29636 38.7533 5.21023 38.7533C6.1241 38.7533 6.80949 39.4383 6.80949 40.3525C6.80949 41.2662 6.1241 41.9517 5.21023 41.9517C4.29636 41.9517 3.61091 41.2662 3.61091 40.3525ZM18.3473 39.8962C18.3473 38.982 19.0327 38.2971 19.9466 38.2971C20.8605 38.2971 21.5459 38.982 21.5459 39.8962C21.5459 40.8099 20.8605 41.4954 19.9466 41.4954C19.0327 41.4954 18.3473 40.8099 18.3473 39.8962ZM46.1742 68.2548C45.2604 68.2548 44.5749 68.9403 44.5749 69.8546C44.5749 70.7682 45.2604 71.4538 46.1742 71.4538C47.0881 71.4538 47.7735 70.7682 47.7735 69.8546C47.7735 68.9403 47.0881 68.2548 46.1742 68.2548ZM36.1216 63.5716C35.2076 63.5716 34.5222 64.2566 34.5222 65.1708C34.5222 66.0845 35.2076 66.77 36.1216 66.77C37.0354 66.77 37.7208 66.0845 37.7208 65.1708C37.7208 64.2566 37.0354 63.5716 36.1216 63.5716ZM65.7537 25.5688L65.7573 25.5722C68.3373 27.9116 71.0052 30.3307 71.0052 35.1238C71.0052 40.5455 66.5947 44.9559 61.1733 44.9559C55.7519 44.9559 51.3413 40.5455 51.3413 35.1238C51.3413 33.1085 52.221 31.444 53.1715 29.9453L53.5782 29.3044L54.1979 29.7428C54.7457 30.131 55.4054 30.3128 56.0811 30.2604C57.492 30.1528 58.6257 29.0059 58.7182 27.5936C58.7238 27.51 58.7256 27.4263 58.724 27.3432C58.7215 27.2048 58.7091 27.0682 58.6872 26.9332C58.3293 24.7344 59.0347 22.5356 60.5741 21.0519L60.6773 20.9531L61.3456 20.3206L61.8006 21.1205C62.8142 22.9026 64.3083 24.258 65.7537 25.5688Z" fill="url(#paint0_linear_1346_27186)"/>
<defs>
<linearGradient id="paint0_linear_1346_27186" x1="9.39262" y1="35.9982" x2="97.1366" y2="37.8995" gradientUnits="userSpaceOnUse">
<stop stop-color="#DB8016"/>
<stop offset="1" stop-color="#DBAC16"/>
</linearGradient>
</defs>
</svg>
