<svg xmlns="http://www.w3.org/2000/svg" width="32.32" height="35.892" viewBox="0 0 32.32 35.892">
  <path id="Union_4" data-name="Union 4" d="M27.805,35.886a29.727,29.727,0,0,1-27.8-27.8,3.472,3.472,0,0,1,3.5-3.621H6.531A3.5,3.5,0,0,1,10,7.579l.508,4.409a3.5,3.5,0,0,1-1,2.869L6.269,18.093A26.328,26.328,0,0,0,17.8,29.622L21.017,26.4a3.485,3.485,0,0,1,2.87-1l4.443.508a3.464,3.464,0,0,1,3.1,3.446v3.026a3.481,3.481,0,0,1-3.415,3.506Q27.909,35.892,27.805,35.886Zm-11.2-10.743q.126.247.269.493A.936.936,0,0,1,16.609,25.142Zm1.549-11.491.128,2.1c-1.63,1.679-2.206,7.566-1.677,9.392A10.609,10.609,0,0,1,18.158,13.651Zm6.089-2.112L20,14.422l.272-5.28L15.678,7.169,32.32,0,28.605,15.676ZM21.78,8l-.308,3.17,7.866-8.9Z" transform="translate(0)" fill="#db8016"/>
</svg>
