<svg width="1440" height="745" viewBox="0 0 1440 745" fill="none" xmlns="http://www.w3.org/2000/svg">
<g filter="url(#filter0_f_3011_7877)">
<circle cx="-478" cy="1011" r="478" fill="#DBAC16"/>
</g>
<g filter="url(#filter1_f_3011_7877)">
<circle cx="823" cy="1126" r="768" fill="#132B1E"/>
</g>
<g filter="url(#filter2_f_3011_7877)">
<circle cx="1711" cy="918" r="478" fill="#22533D"/>
</g>
<g opacity="0.5">
<g opacity="0.3">
<path d="M501.023 77.5064H367.75L289.298 0H16.1354" stroke="url(#paint0_linear_3011_7877)" stroke-width="4"/>
<path d="M578.531 111.531H396.105L369.64 153.12H13.2998" stroke="url(#paint1_linear_3011_7877)" stroke-width="4"/>
<path d="M317.656 193.766H172.094L121.053 133.273H11.4094" stroke="url(#paint2_linear_3011_7877)" stroke-width="4"/>
<path d="M61.4727 193.16H14.8672" stroke="url(#paint3_linear_3011_7877)" stroke-width="4"/>
<path d="M588.926 253.312H17.082" stroke="url(#paint4_linear_3011_7877)" stroke-width="4"/>
<path d="M646.586 366.737H510.477L436.75 293.012H18.0258" stroke="url(#paint5_linear_3011_7877)" stroke-width="4"/>
<path d="M429.426 366.703H20.7148" stroke="url(#paint6_linear_3011_7877)" stroke-width="4"/>
<path d="M726.926 402.656H545.449L518.037 445.19H17.0806" stroke="url(#paint7_linear_3011_7877)" stroke-width="4"/>
<path d="M463.215 483.942H319.543L267.559 422.504H18.0258" stroke="url(#paint8_linear_3011_7877)" stroke-width="4"/>
<path d="M209.902 483.941H16.1367" stroke="url(#paint9_linear_3011_7877)" stroke-width="4"/>
<path d="M208.012 528.367H65.2852L16.1354 586.97" stroke="url(#paint10_linear_3011_7877)" stroke-width="4"/>
<path d="M468.887 609.655H288.352L260.942 568.066H13.2998" stroke="url(#paint11_linear_3011_7877)" stroke-width="4"/>
<path d="M172.094 645.57H15.1914" stroke="url(#paint12_linear_3011_7877)" stroke-width="4"/>
<path d="M391.379 644.625H256.215L179.655 720.241H14.245" stroke="url(#paint13_linear_3011_7877)" stroke-width="4"/>
<path d="M512.1 88.5815C518.204 88.5815 523.176 83.61 523.176 77.5056C523.176 71.4012 518.21 66.4297 512.1 66.4297C505.989 66.4297 501.024 71.4012 501.024 77.5056C501.024 83.61 505.995 88.5815 512.1 88.5815ZM512.1 73.5043C514.305 73.5043 516.101 75.3001 516.101 77.5056C516.101 79.7111 514.305 81.5069 512.1 81.5069C509.894 81.5069 508.099 79.7111 508.099 77.5056C508.099 75.3001 509.894 73.5043 512.1 73.5043Z" fill="#C29152"/>
<path d="M588.924 122.609C595.028 122.609 600 117.637 600 111.533C600 105.429 595.035 100.457 588.924 100.457C582.814 100.457 577.848 105.429 577.848 111.533C577.848 117.637 582.82 122.609 588.924 122.609ZM588.924 107.532C591.13 107.532 592.925 109.327 592.925 111.533C592.925 113.738 591.13 115.534 588.924 115.534C586.719 115.534 584.923 113.738 584.923 111.533C584.923 109.327 586.719 107.532 588.924 107.532Z" fill="#C29152"/>
<path d="M328.733 204.839C334.837 204.839 339.809 199.868 339.809 193.763C339.809 187.659 334.843 182.688 328.733 182.688C322.622 182.688 317.657 187.659 317.657 193.763C317.657 199.868 322.628 204.839 328.733 204.839ZM328.733 189.762C330.938 189.762 332.734 191.558 332.734 193.763C332.734 195.969 330.938 197.765 328.733 197.765C326.527 197.765 324.731 195.969 324.731 193.763C324.731 191.558 326.527 189.762 328.733 189.762Z" fill="#C29152"/>
<path d="M72.5491 204.839C78.6535 204.839 83.625 199.868 83.625 193.763C83.625 187.659 78.6595 182.688 72.5491 182.688C66.4386 182.688 61.4732 187.659 61.4732 193.763C61.4732 199.868 66.4447 204.839 72.5491 204.839ZM72.5491 189.762C74.7546 189.762 76.5504 191.558 76.5504 193.763C76.5504 195.969 74.7546 197.765 72.5491 197.765C70.3435 197.765 68.5478 195.969 68.5478 193.763C68.5478 191.558 70.3435 189.762 72.5491 189.762Z" fill="#C29152"/>
<path d="M600.002 264.39C606.107 264.39 611.078 259.419 611.078 253.314C611.078 247.21 606.113 242.238 600.002 242.238C593.892 242.238 588.926 247.21 588.926 253.314C588.926 259.419 593.898 264.39 600.002 264.39ZM600.002 249.313C602.208 249.313 604.004 251.109 604.004 253.314C604.004 255.52 602.208 257.315 600.002 257.315C597.797 257.315 596.001 255.52 596.001 253.314C596.001 251.109 597.797 249.313 600.002 249.313Z" fill="#C29152"/>
<path d="M440.502 376.98C446.607 376.98 451.578 372.008 451.578 365.904C451.578 359.8 446.613 354.828 440.502 354.828C434.392 354.828 429.426 359.8 429.426 365.904C429.426 372.008 434.398 376.98 440.502 376.98ZM440.502 361.903C442.708 361.903 444.504 363.698 444.504 365.904C444.504 368.11 442.708 369.905 440.502 369.905C438.297 369.905 436.501 368.11 436.501 365.904C436.501 363.698 438.297 361.903 440.502 361.903Z" fill="#C29152"/>
<path d="M657.662 377.816C663.767 377.816 668.738 372.844 668.738 366.74C668.738 360.636 663.773 355.664 657.662 355.664C651.552 355.664 646.586 360.636 646.586 366.74C646.586 372.844 651.558 377.816 657.662 377.816ZM657.662 362.739C659.868 362.739 661.664 364.534 661.664 366.74C661.664 368.946 659.868 370.741 657.662 370.741C655.457 370.741 653.661 368.946 653.661 366.74C653.661 364.534 655.457 362.739 657.662 362.739Z" fill="#C29152"/>
<path d="M738.002 413.73C744.107 413.73 749.078 408.758 749.078 402.654C749.078 396.55 744.113 391.578 738.002 391.578C731.892 391.578 726.926 396.55 726.926 402.654C726.926 408.758 731.898 413.73 738.002 413.73ZM738.002 398.653C740.208 398.653 742.004 400.448 742.004 402.654C742.004 404.86 740.208 406.655 738.002 406.655C735.797 406.655 734.001 404.86 734.001 402.654C734.001 400.448 735.797 398.653 738.002 398.653Z" fill="#C29152"/>
<path d="M474.291 495.019C480.396 495.019 485.367 490.048 485.367 483.943C485.367 477.839 480.402 472.867 474.291 472.867C468.181 472.867 463.215 477.839 463.215 483.943C463.215 490.048 468.187 495.019 474.291 495.019ZM474.291 479.942C476.497 479.942 478.293 481.738 478.293 483.943C478.293 486.149 476.497 487.944 474.291 487.944C472.086 487.944 470.29 486.149 470.29 483.943C470.29 481.738 472.086 479.942 474.291 479.942Z" fill="#C29152"/>
<path d="M220.979 495.019C227.083 495.019 232.055 490.048 232.055 483.943C232.055 477.839 227.089 472.867 220.979 472.867C214.868 472.867 209.903 477.839 209.903 483.943C209.903 490.048 214.874 495.019 220.979 495.019ZM220.979 479.942C223.184 479.942 224.98 481.738 224.98 483.943C224.98 486.149 223.184 487.944 220.979 487.944C218.773 487.944 216.977 486.149 216.977 483.943C216.977 481.738 218.773 479.942 220.979 479.942Z" fill="#C29152"/>
<path d="M220.979 539.441C227.083 539.441 232.055 534.469 232.055 528.365C232.055 522.261 227.089 517.289 220.979 517.289C214.868 517.289 209.903 522.261 209.903 528.365C209.903 534.469 214.874 539.441 220.979 539.441ZM220.979 524.364C223.184 524.364 224.98 526.159 224.98 528.365C224.98 530.571 223.184 532.366 220.979 532.366C218.773 532.366 216.977 530.571 216.977 528.365C216.977 526.159 218.773 524.364 220.979 524.364Z" fill="#C29152"/>
<path d="M479.963 620.73C486.068 620.73 491.039 615.758 491.039 609.654C491.039 603.55 486.074 598.578 479.963 598.578C473.853 598.578 468.887 603.55 468.887 609.654C468.887 615.758 473.859 620.73 479.963 620.73ZM479.963 605.653C482.169 605.653 483.964 607.448 483.964 609.654C483.964 611.86 482.169 613.655 479.963 613.655C477.758 613.655 475.962 611.86 475.962 609.654C475.962 607.448 477.758 605.653 479.963 605.653Z" fill="#C29152"/>
<path d="M402.455 656.648C408.56 656.648 413.531 651.676 413.531 645.572C413.531 639.468 408.566 634.496 402.455 634.496C396.345 634.496 391.379 639.468 391.379 645.572C391.379 651.676 396.351 656.648 402.455 656.648ZM402.455 641.571C404.661 641.571 406.457 643.366 406.457 645.572C406.457 647.778 404.661 649.573 402.455 649.573C400.25 649.573 398.454 647.778 398.454 645.572C398.454 643.366 400.25 641.571 402.455 641.571Z" fill="#C29152"/>
<path d="M183.17 656.648C189.275 656.648 194.246 651.676 194.246 645.572C194.246 639.468 189.281 634.496 183.17 634.496C177.06 634.496 172.094 639.468 172.094 645.572C172.094 651.676 177.066 656.648 183.17 656.648ZM183.17 641.571C185.376 641.571 187.171 643.366 187.171 645.572C187.171 647.778 185.376 649.573 183.17 649.573C180.965 649.573 179.169 647.778 179.169 645.572C179.169 643.366 180.965 641.571 183.17 641.571Z" fill="#C29152"/>
</g>
<g filter="url(#filter3_d_3011_7877)">
<circle cx="296.321" cy="78.184" r="8.95742" fill="#DD9942"/>
</g>
<g filter="url(#filter4_d_3011_7877)">
<circle cx="372.004" cy="548.403" r="8.95742" fill="#DD9942"/>
</g>
<g filter="url(#filter5_d_3011_7877)">
<circle cx="121.977" cy="711.286" r="8.95742" fill="#DD9942"/>
</g>
<g filter="url(#filter6_d_3011_7877)">
<circle cx="9.0668" cy="322.996" r="8.95742" fill="#DD9942"/>
</g>
</g>
<g opacity="0.1">
<g opacity="0.3">
<path d="M631.848 709.712H498.574L420.123 787.219H146.96" stroke="url(#paint14_linear_3011_7877)" stroke-width="4"/>
<path d="M709.355 675.688H526.93L500.465 634.099H144.124" stroke="url(#paint15_linear_3011_7877)" stroke-width="4"/>
<path d="M448.48 593.453H302.918L251.877 653.945H142.234" stroke="url(#paint16_linear_3011_7877)" stroke-width="4"/>
<path d="M192.297 594.059H145.691" stroke="url(#paint17_linear_3011_7877)" stroke-width="4"/>
<path d="M719.75 533.906H147.906" stroke="url(#paint18_linear_3011_7877)" stroke-width="4"/>
<path d="M777.41 420.481H641.301L567.574 494.207H148.85" stroke="url(#paint19_linear_3011_7877)" stroke-width="4"/>
<path d="M560.25 420.516H151.539" stroke="url(#paint20_linear_3011_7877)" stroke-width="4"/>
<path d="M857.75 384.562H676.273L648.861 342.028H147.905" stroke="url(#paint21_linear_3011_7877)" stroke-width="4"/>
<path d="M594.039 303.277H450.367L398.383 364.715H148.85" stroke="url(#paint22_linear_3011_7877)" stroke-width="4"/>
<path d="M340.727 303.277H146.961" stroke="url(#paint23_linear_3011_7877)" stroke-width="4"/>
<path d="M338.836 258.852H196.109L146.96 200.249" stroke="url(#paint24_linear_3011_7877)" stroke-width="4"/>
<path d="M599.711 177.564H419.176L391.767 219.152H144.124" stroke="url(#paint25_linear_3011_7877)" stroke-width="4"/>
<path d="M302.918 141.648H146.016" stroke="url(#paint26_linear_3011_7877)" stroke-width="4"/>
<path d="M522.203 142.594H387.039L310.479 66.9776H145.069" stroke="url(#paint27_linear_3011_7877)" stroke-width="4"/>
<path d="M464.547 29.168H146.961" stroke="url(#paint28_linear_3011_7877)" stroke-width="4"/>
<path d="M642.924 698.637C649.028 698.637 654 703.609 654 709.713C654 715.818 649.035 720.789 642.924 720.789C636.814 720.789 631.848 715.818 631.848 709.713C631.848 703.609 636.82 698.637 642.924 698.637ZM642.924 713.714C645.13 713.714 646.925 711.919 646.925 709.713C646.925 707.508 645.13 705.712 642.924 705.712C640.719 705.712 638.923 707.508 638.923 709.713C638.923 711.919 640.719 713.714 642.924 713.714Z" fill="#C29152"/>
<path d="M719.748 664.61C725.853 664.61 730.824 669.581 730.824 675.686C730.824 681.79 725.859 686.762 719.748 686.762C713.638 686.762 708.672 681.79 708.672 675.686C708.672 669.581 713.644 664.61 719.748 664.61ZM719.748 679.687C721.954 679.687 723.75 677.891 723.75 675.686C723.75 673.48 721.954 671.685 719.748 671.685C717.543 671.685 715.747 673.48 715.747 675.686C715.747 677.891 717.543 679.687 719.748 679.687Z" fill="#C29152"/>
<path d="M459.557 582.379C465.661 582.379 470.633 587.351 470.633 593.455C470.633 599.56 465.667 604.531 459.557 604.531C453.446 604.531 448.481 599.56 448.481 593.455C448.481 587.351 453.452 582.379 459.557 582.379ZM459.557 597.457C461.762 597.457 463.558 595.661 463.558 593.455C463.558 591.25 461.762 589.454 459.557 589.454C457.351 589.454 455.556 591.25 455.556 593.455C455.556 595.661 457.351 597.457 459.557 597.457Z" fill="#C29152"/>
<path d="M203.373 582.379C209.478 582.379 214.449 587.351 214.449 593.455C214.449 599.56 209.484 604.531 203.373 604.531C197.263 604.531 192.297 599.56 192.297 593.455C192.297 587.351 197.269 582.379 203.373 582.379ZM203.373 597.457C205.579 597.457 207.375 595.661 207.375 593.455C207.375 591.25 205.579 589.454 203.373 589.454C201.168 589.454 199.372 591.25 199.372 593.455C199.372 595.661 201.168 597.457 203.373 597.457Z" fill="#C29152"/>
<path d="M730.826 522.829C736.931 522.829 741.902 527.8 741.902 533.905C741.902 540.009 736.937 544.98 730.826 544.98C724.716 544.98 719.751 540.009 719.751 533.905C719.751 527.8 724.722 522.829 730.826 522.829ZM730.826 537.906C733.032 537.906 734.828 536.11 734.828 533.905C734.828 531.699 733.032 529.903 730.826 529.903C728.621 529.903 726.825 531.699 726.825 533.905C726.825 536.11 728.621 537.906 730.826 537.906Z" fill="#C29152"/>
<path d="M571.326 410.239C577.431 410.239 582.402 415.21 582.402 421.315C582.402 427.419 577.437 432.391 571.326 432.391C565.216 432.391 560.251 427.419 560.251 421.315C560.251 415.21 565.222 410.239 571.326 410.239ZM571.326 425.316C573.532 425.316 575.328 423.52 575.328 421.315C575.328 419.109 573.532 417.313 571.326 417.313C569.121 417.313 567.325 419.109 567.325 421.315C567.325 423.52 569.121 425.316 571.326 425.316Z" fill="#C29152"/>
<path d="M788.487 409.403C794.591 409.403 799.562 414.374 799.562 420.479C799.562 426.583 794.597 431.555 788.487 431.555C782.376 431.555 777.411 426.583 777.411 420.479C777.411 414.374 782.382 409.403 788.487 409.403ZM788.487 424.48C790.692 424.48 792.488 422.684 792.488 420.479C792.488 418.273 790.692 416.477 788.487 416.477C786.281 416.477 784.485 418.273 784.485 420.479C784.485 422.684 786.281 424.48 788.487 424.48Z" fill="#C29152"/>
<path d="M868.826 373.489C874.931 373.489 879.902 378.46 879.902 384.565C879.902 390.669 874.937 395.641 868.826 395.641C862.716 395.641 857.751 390.669 857.751 384.565C857.751 378.46 862.722 373.489 868.826 373.489ZM868.826 388.566C871.032 388.566 872.828 386.77 872.828 384.565C872.828 382.359 871.032 380.563 868.826 380.563C866.621 380.563 864.825 382.359 864.825 384.565C864.825 386.77 866.621 388.566 868.826 388.566Z" fill="#C29152"/>
<path d="M605.115 292.2C611.22 292.2 616.191 297.171 616.191 303.276C616.191 309.38 611.226 314.352 605.115 314.352C599.005 314.352 594.04 309.38 594.04 303.276C594.04 297.171 599.011 292.2 605.115 292.2ZM605.115 307.277C607.321 307.277 609.117 305.481 609.117 303.276C609.117 301.07 607.321 299.274 605.115 299.274C602.91 299.274 601.114 301.07 601.114 303.276C601.114 305.481 602.91 307.277 605.115 307.277Z" fill="#C29152"/>
<path d="M351.803 292.2C357.907 292.2 362.879 297.171 362.879 303.276C362.879 309.38 357.913 314.352 351.803 314.352C345.693 314.352 340.727 309.38 340.727 303.276C340.727 297.171 345.699 292.2 351.803 292.2ZM351.803 307.277C354.009 307.277 355.804 305.481 355.804 303.276C355.804 301.07 354.009 299.274 351.803 299.274C349.597 299.274 347.802 301.07 347.802 303.276C347.802 305.481 349.597 307.277 351.803 307.277Z" fill="#C29152"/>
<path d="M351.803 247.778C357.907 247.778 362.879 252.749 362.879 258.854C362.879 264.958 357.913 269.93 351.803 269.93C345.693 269.93 340.727 264.958 340.727 258.854C340.727 252.749 345.699 247.778 351.803 247.778ZM351.803 262.855C354.009 262.855 355.804 261.059 355.804 258.854C355.804 256.648 354.009 254.852 351.803 254.852C349.597 254.852 347.802 256.648 347.802 258.854C347.802 261.059 349.597 262.855 351.803 262.855Z" fill="#C29152"/>
<path d="M610.787 166.489C616.892 166.489 621.863 171.46 621.863 177.565C621.863 183.669 616.898 188.641 610.787 188.641C604.677 188.641 599.711 183.669 599.711 177.565C599.711 171.46 604.683 166.489 610.787 166.489ZM610.787 181.566C612.993 181.566 614.789 179.77 614.789 177.565C614.789 175.359 612.993 173.563 610.787 173.563C608.582 173.563 606.786 175.359 606.786 177.565C606.786 179.77 608.582 181.566 610.787 181.566Z" fill="#C29152"/>
<path d="M533.28 130.571C539.384 130.571 544.355 135.542 544.355 141.647C544.355 147.751 539.39 152.723 533.28 152.723C527.169 152.723 522.204 147.751 522.204 141.647C522.204 135.542 527.175 130.571 533.28 130.571ZM533.28 145.648C535.485 145.648 537.281 143.852 537.281 141.647C537.281 139.441 535.485 137.645 533.28 137.645C531.074 137.645 529.278 139.441 529.278 141.647C529.278 143.852 531.074 145.648 533.28 145.648Z" fill="#C29152"/>
<path d="M313.994 130.571C320.099 130.571 325.07 135.542 325.07 141.647C325.07 147.751 320.105 152.723 313.994 152.723C307.884 152.723 302.918 147.751 302.918 141.647C302.918 135.542 307.89 130.571 313.994 130.571ZM313.994 145.648C316.2 145.648 317.996 143.852 317.996 141.647C317.996 139.441 316.2 137.645 313.994 137.645C311.789 137.645 309.993 139.441 309.993 141.647C309.993 143.852 311.789 145.648 313.994 145.648Z" fill="#C29152"/>
<path d="M475.623 18.0903C481.728 18.0903 486.699 23.0619 486.699 29.1663C486.699 35.2707 481.734 40.2422 475.623 40.2422C469.513 40.2422 464.547 35.2707 464.547 29.1663C464.547 23.0619 469.519 18.0903 475.623 18.0903ZM475.623 33.1676C477.829 33.1676 479.625 31.3718 479.625 29.1663C479.625 26.9607 477.829 25.165 475.623 25.165C473.418 25.165 471.622 26.9607 471.622 29.1663C471.622 31.3718 473.418 33.1676 475.623 33.1676Z" fill="#C29152"/>
</g>
<g filter="url(#filter7_d_3011_7877)">
<circle cx="8.95742" cy="8.95742" r="8.95742" transform="matrix(1 0 0 -1 418.188 717.992)" fill="#DD9942"/>
</g>
<g filter="url(#filter8_d_3011_7877)">
<circle cx="8.95742" cy="8.95742" r="8.95742" transform="matrix(1 0 0 -1 493.871 247.773)" fill="#DD9942"/>
</g>
<g filter="url(#filter9_d_3011_7877)">
<circle cx="8.95742" cy="8.95742" r="8.95742" transform="matrix(1 0 0 -1 130.934 473.18)" fill="#DD9942"/>
</g>
</g>
<defs>
<filter id="filter0_f_3011_7877" x="-1424" y="65" width="1892" height="1892" filterUnits="userSpaceOnUse" color-interpolation-filters="sRGB">
<feFlood flood-opacity="0" result="BackgroundImageFix"/>
<feBlend mode="normal" in="SourceGraphic" in2="BackgroundImageFix" result="shape"/>
<feGaussianBlur stdDeviation="234" result="effect1_foregroundBlur_3011_7877"/>
</filter>
<filter id="filter1_f_3011_7877" x="-413" y="-110" width="2472" height="2472" filterUnits="userSpaceOnUse" color-interpolation-filters="sRGB">
<feFlood flood-opacity="0" result="BackgroundImageFix"/>
<feBlend mode="normal" in="SourceGraphic" in2="BackgroundImageFix" result="shape"/>
<feGaussianBlur stdDeviation="234" result="effect1_foregroundBlur_3011_7877"/>
</filter>
<filter id="filter2_f_3011_7877" x="765" y="-28" width="1892" height="1892" filterUnits="userSpaceOnUse" color-interpolation-filters="sRGB">
<feFlood flood-opacity="0" result="BackgroundImageFix"/>
<feBlend mode="normal" in="SourceGraphic" in2="BackgroundImageFix" result="shape"/>
<feGaussianBlur stdDeviation="234" result="effect1_foregroundBlur_3011_7877"/>
</filter>
<filter id="filter3_d_3011_7877" x="267.898" y="50.8675" width="56.8451" height="56.8441" filterUnits="userSpaceOnUse" color-interpolation-filters="sRGB">
<feFlood flood-opacity="0" result="BackgroundImageFix"/>
<feColorMatrix in="SourceAlpha" type="matrix" values="0 0 0 0 0 0 0 0 0 0 0 0 0 0 0 0 0 0 127 0" result="hardAlpha"/>
<feMorphology radius="2.21194" operator="dilate" in="SourceAlpha" result="effect1_dropShadow_3011_7877"/>
<feOffset dy="1.10597"/>
<feGaussianBlur stdDeviation="8.62655"/>
<feComposite in2="hardAlpha" operator="out"/>
<feColorMatrix type="matrix" values="0 0 0 0 0.429123 0 0 0 0 0.316478 0 0 0 0 0.171649 0 0 0 1 0"/>
<feBlend mode="normal" in2="BackgroundImageFix" result="effect1_dropShadow_3011_7877"/>
<feBlend mode="normal" in="SourceGraphic" in2="effect1_dropShadow_3011_7877" result="shape"/>
</filter>
<filter id="filter4_d_3011_7877" x="343.582" y="521.086" width="56.8451" height="56.8441" filterUnits="userSpaceOnUse" color-interpolation-filters="sRGB">
<feFlood flood-opacity="0" result="BackgroundImageFix"/>
<feColorMatrix in="SourceAlpha" type="matrix" values="0 0 0 0 0 0 0 0 0 0 0 0 0 0 0 0 0 0 127 0" result="hardAlpha"/>
<feMorphology radius="2.21194" operator="dilate" in="SourceAlpha" result="effect1_dropShadow_3011_7877"/>
<feOffset dy="1.10597"/>
<feGaussianBlur stdDeviation="8.62655"/>
<feComposite in2="hardAlpha" operator="out"/>
<feColorMatrix type="matrix" values="0 0 0 0 0.429123 0 0 0 0 0.316478 0 0 0 0 0.171649 0 0 0 1 0"/>
<feBlend mode="normal" in2="BackgroundImageFix" result="effect1_dropShadow_3011_7877"/>
<feBlend mode="normal" in="SourceGraphic" in2="effect1_dropShadow_3011_7877" result="shape"/>
</filter>
<filter id="filter5_d_3011_7877" x="93.5545" y="683.969" width="56.8451" height="56.8441" filterUnits="userSpaceOnUse" color-interpolation-filters="sRGB">
<feFlood flood-opacity="0" result="BackgroundImageFix"/>
<feColorMatrix in="SourceAlpha" type="matrix" values="0 0 0 0 0 0 0 0 0 0 0 0 0 0 0 0 0 0 127 0" result="hardAlpha"/>
<feMorphology radius="2.21194" operator="dilate" in="SourceAlpha" result="effect1_dropShadow_3011_7877"/>
<feOffset dy="1.10597"/>
<feGaussianBlur stdDeviation="8.62655"/>
<feComposite in2="hardAlpha" operator="out"/>
<feColorMatrix type="matrix" values="0 0 0 0 0.429123 0 0 0 0 0.316478 0 0 0 0 0.171649 0 0 0 1 0"/>
<feBlend mode="normal" in2="BackgroundImageFix" result="effect1_dropShadow_3011_7877"/>
<feBlend mode="normal" in="SourceGraphic" in2="effect1_dropShadow_3011_7877" result="shape"/>
</filter>
<filter id="filter6_d_3011_7877" x="-19.3557" y="295.68" width="56.8451" height="56.8441" filterUnits="userSpaceOnUse" color-interpolation-filters="sRGB">
<feFlood flood-opacity="0" result="BackgroundImageFix"/>
<feColorMatrix in="SourceAlpha" type="matrix" values="0 0 0 0 0 0 0 0 0 0 0 0 0 0 0 0 0 0 127 0" result="hardAlpha"/>
<feMorphology radius="2.21194" operator="dilate" in="SourceAlpha" result="effect1_dropShadow_3011_7877"/>
<feOffset dy="1.10597"/>
<feGaussianBlur stdDeviation="8.62655"/>
<feComposite in2="hardAlpha" operator="out"/>
<feColorMatrix type="matrix" values="0 0 0 0 0.429123 0 0 0 0 0.316478 0 0 0 0 0.171649 0 0 0 1 0"/>
<feBlend mode="normal" in2="BackgroundImageFix" result="effect1_dropShadow_3011_7877"/>
<feBlend mode="normal" in="SourceGraphic" in2="effect1_dropShadow_3011_7877" result="shape"/>
</filter>
<filter id="filter7_d_3011_7877" x="398.722" y="681.719" width="56.8451" height="56.8441" filterUnits="userSpaceOnUse" color-interpolation-filters="sRGB">
<feFlood flood-opacity="0" result="BackgroundImageFix"/>
<feColorMatrix in="SourceAlpha" type="matrix" values="0 0 0 0 0 0 0 0 0 0 0 0 0 0 0 0 0 0 127 0" result="hardAlpha"/>
<feMorphology radius="2.21194" operator="dilate" in="SourceAlpha" result="effect1_dropShadow_3011_7877"/>
<feOffset dy="1.10597"/>
<feGaussianBlur stdDeviation="8.62655"/>
<feComposite in2="hardAlpha" operator="out"/>
<feColorMatrix type="matrix" values="0 0 0 0 0.429123 0 0 0 0 0.316478 0 0 0 0 0.171649 0 0 0 1 0"/>
<feBlend mode="normal" in2="BackgroundImageFix" result="effect1_dropShadow_3011_7877"/>
<feBlend mode="normal" in="SourceGraphic" in2="effect1_dropShadow_3011_7877" result="shape"/>
</filter>
<filter id="filter8_d_3011_7877" x="474.406" y="211.5" width="56.8451" height="56.8441" filterUnits="userSpaceOnUse" color-interpolation-filters="sRGB">
<feFlood flood-opacity="0" result="BackgroundImageFix"/>
<feColorMatrix in="SourceAlpha" type="matrix" values="0 0 0 0 0 0 0 0 0 0 0 0 0 0 0 0 0 0 127 0" result="hardAlpha"/>
<feMorphology radius="2.21194" operator="dilate" in="SourceAlpha" result="effect1_dropShadow_3011_7877"/>
<feOffset dy="1.10597"/>
<feGaussianBlur stdDeviation="8.62655"/>
<feComposite in2="hardAlpha" operator="out"/>
<feColorMatrix type="matrix" values="0 0 0 0 0.429123 0 0 0 0 0.316478 0 0 0 0 0.171649 0 0 0 1 0"/>
<feBlend mode="normal" in2="BackgroundImageFix" result="effect1_dropShadow_3011_7877"/>
<feBlend mode="normal" in="SourceGraphic" in2="effect1_dropShadow_3011_7877" result="shape"/>
</filter>
<filter id="filter9_d_3011_7877" x="111.469" y="436.907" width="56.8451" height="56.8441" filterUnits="userSpaceOnUse" color-interpolation-filters="sRGB">
<feFlood flood-opacity="0" result="BackgroundImageFix"/>
<feColorMatrix in="SourceAlpha" type="matrix" values="0 0 0 0 0 0 0 0 0 0 0 0 0 0 0 0 0 0 127 0" result="hardAlpha"/>
<feMorphology radius="2.21194" operator="dilate" in="SourceAlpha" result="effect1_dropShadow_3011_7877"/>
<feOffset dy="1.10597"/>
<feGaussianBlur stdDeviation="8.62655"/>
<feComposite in2="hardAlpha" operator="out"/>
<feColorMatrix type="matrix" values="0 0 0 0 0.429123 0 0 0 0 0.316478 0 0 0 0 0.171649 0 0 0 1 0"/>
<feBlend mode="normal" in2="BackgroundImageFix" result="effect1_dropShadow_3011_7877"/>
<feBlend mode="normal" in="SourceGraphic" in2="effect1_dropShadow_3011_7877" result="shape"/>
</filter>
<linearGradient id="paint0_linear_3011_7877" x1="258.579" y1="0" x2="258.579" y2="77.5064" gradientUnits="userSpaceOnUse">
<stop stop-color="#2F4225"/>
<stop offset="1" stop-color="#B1864C"/>
</linearGradient>
<linearGradient id="paint1_linear_3011_7877" x1="295.916" y1="111.531" x2="295.916" y2="153.12" gradientUnits="userSpaceOnUse">
<stop stop-color="#B1864C"/>
<stop offset="1" stop-color="#2F4225"/>
</linearGradient>
<linearGradient id="paint2_linear_3011_7877" x1="164.533" y1="133.273" x2="164.533" y2="193.766" gradientUnits="userSpaceOnUse">
<stop stop-color="#2F4225"/>
<stop offset="1" stop-color="#B1864C"/>
</linearGradient>
<linearGradient id="paint3_linear_3011_7877" x1="38.1699" y1="193.16" x2="38.1699" y2="194.16" gradientUnits="userSpaceOnUse">
<stop stop-color="#B1864C"/>
<stop offset="1" stop-color="#2F4225"/>
</linearGradient>
<linearGradient id="paint4_linear_3011_7877" x1="303.004" y1="253.312" x2="303.004" y2="254.312" gradientUnits="userSpaceOnUse">
<stop stop-color="#B1864C"/>
<stop offset="1" stop-color="#2F4225"/>
</linearGradient>
<linearGradient id="paint5_linear_3011_7877" x1="332.306" y1="293.012" x2="332.306" y2="366.737" gradientUnits="userSpaceOnUse">
<stop stop-color="#2F4225"/>
<stop offset="1" stop-color="#B1864C"/>
</linearGradient>
<linearGradient id="paint6_linear_3011_7877" x1="225.07" y1="366.703" x2="225.07" y2="367.703" gradientUnits="userSpaceOnUse">
<stop stop-color="#B1864C"/>
<stop offset="1" stop-color="#2F4225"/>
</linearGradient>
<linearGradient id="paint7_linear_3011_7877" x1="372.003" y1="402.656" x2="372.003" y2="445.19" gradientUnits="userSpaceOnUse">
<stop stop-color="#B1864C"/>
<stop offset="1" stop-color="#2F4225"/>
</linearGradient>
<linearGradient id="paint8_linear_3011_7877" x1="240.62" y1="422.504" x2="240.62" y2="483.942" gradientUnits="userSpaceOnUse">
<stop stop-color="#2F4225"/>
<stop offset="1" stop-color="#B1864C"/>
</linearGradient>
<linearGradient id="paint9_linear_3011_7877" x1="113.02" y1="483.941" x2="113.02" y2="484.941" gradientUnits="userSpaceOnUse">
<stop stop-color="#B1864C"/>
<stop offset="1" stop-color="#2F4225"/>
</linearGradient>
<linearGradient id="paint10_linear_3011_7877" x1="112.074" y1="528.367" x2="112.074" y2="586.97" gradientUnits="userSpaceOnUse">
<stop stop-color="#B1864C"/>
<stop offset="1" stop-color="#2F4225"/>
</linearGradient>
<linearGradient id="paint11_linear_3011_7877" x1="241.093" y1="568.066" x2="241.093" y2="609.655" gradientUnits="userSpaceOnUse">
<stop stop-color="#2F4225"/>
<stop offset="1" stop-color="#B1864C"/>
</linearGradient>
<linearGradient id="paint12_linear_3011_7877" x1="93.6426" y1="645.57" x2="93.6426" y2="646.57" gradientUnits="userSpaceOnUse">
<stop stop-color="#B1864C"/>
<stop offset="1" stop-color="#2F4225"/>
</linearGradient>
<linearGradient id="paint13_linear_3011_7877" x1="202.812" y1="644.625" x2="202.812" y2="720.241" gradientUnits="userSpaceOnUse">
<stop stop-color="#B1864C"/>
<stop offset="1" stop-color="#2F4225"/>
</linearGradient>
<linearGradient id="paint14_linear_3011_7877" x1="389.404" y1="787.219" x2="389.404" y2="709.712" gradientUnits="userSpaceOnUse">
<stop stop-color="#2F4225"/>
<stop offset="1" stop-color="#B1864C"/>
</linearGradient>
<linearGradient id="paint15_linear_3011_7877" x1="426.74" y1="675.688" x2="426.74" y2="634.099" gradientUnits="userSpaceOnUse">
<stop stop-color="#B1864C"/>
<stop offset="1" stop-color="#2F4225"/>
</linearGradient>
<linearGradient id="paint16_linear_3011_7877" x1="295.357" y1="653.945" x2="295.357" y2="593.453" gradientUnits="userSpaceOnUse">
<stop stop-color="#2F4225"/>
<stop offset="1" stop-color="#B1864C"/>
</linearGradient>
<linearGradient id="paint17_linear_3011_7877" x1="168.994" y1="594.059" x2="168.994" y2="593.059" gradientUnits="userSpaceOnUse">
<stop stop-color="#B1864C"/>
<stop offset="1" stop-color="#2F4225"/>
</linearGradient>
<linearGradient id="paint18_linear_3011_7877" x1="433.828" y1="533.906" x2="433.828" y2="532.906" gradientUnits="userSpaceOnUse">
<stop stop-color="#B1864C"/>
<stop offset="1" stop-color="#2F4225"/>
</linearGradient>
<linearGradient id="paint19_linear_3011_7877" x1="463.13" y1="494.207" x2="463.13" y2="420.481" gradientUnits="userSpaceOnUse">
<stop stop-color="#2F4225"/>
<stop offset="1" stop-color="#B1864C"/>
</linearGradient>
<linearGradient id="paint20_linear_3011_7877" x1="355.895" y1="420.516" x2="355.895" y2="419.516" gradientUnits="userSpaceOnUse">
<stop stop-color="#B1864C"/>
<stop offset="1" stop-color="#2F4225"/>
</linearGradient>
<linearGradient id="paint21_linear_3011_7877" x1="502.827" y1="384.562" x2="502.827" y2="342.028" gradientUnits="userSpaceOnUse">
<stop stop-color="#B1864C"/>
<stop offset="1" stop-color="#2F4225"/>
</linearGradient>
<linearGradient id="paint22_linear_3011_7877" x1="371.445" y1="364.715" x2="371.445" y2="303.277" gradientUnits="userSpaceOnUse">
<stop stop-color="#2F4225"/>
<stop offset="1" stop-color="#B1864C"/>
</linearGradient>
<linearGradient id="paint23_linear_3011_7877" x1="243.844" y1="303.277" x2="243.844" y2="302.277" gradientUnits="userSpaceOnUse">
<stop stop-color="#B1864C"/>
<stop offset="1" stop-color="#2F4225"/>
</linearGradient>
<linearGradient id="paint24_linear_3011_7877" x1="242.898" y1="258.852" x2="242.898" y2="200.249" gradientUnits="userSpaceOnUse">
<stop stop-color="#B1864C"/>
<stop offset="1" stop-color="#2F4225"/>
</linearGradient>
<linearGradient id="paint25_linear_3011_7877" x1="371.917" y1="219.152" x2="371.917" y2="177.564" gradientUnits="userSpaceOnUse">
<stop stop-color="#2F4225"/>
<stop offset="1" stop-color="#B1864C"/>
</linearGradient>
<linearGradient id="paint26_linear_3011_7877" x1="224.467" y1="141.648" x2="224.467" y2="140.648" gradientUnits="userSpaceOnUse">
<stop stop-color="#B1864C"/>
<stop offset="1" stop-color="#2F4225"/>
</linearGradient>
<linearGradient id="paint27_linear_3011_7877" x1="333.636" y1="142.594" x2="333.636" y2="66.9776" gradientUnits="userSpaceOnUse">
<stop stop-color="#B1864C"/>
<stop offset="1" stop-color="#2F4225"/>
</linearGradient>
<linearGradient id="paint28_linear_3011_7877" x1="305.754" y1="29.168" x2="305.754" y2="28.168" gradientUnits="userSpaceOnUse">
<stop stop-color="#B1864C"/>
<stop offset="1" stop-color="#2F4225"/>
</linearGradient>
</defs>
</svg>
