<svg width="112" height="83" viewBox="0 0 112 83" fill="none" xmlns="http://www.w3.org/2000/svg">
<path fill-rule="evenodd" clip-rule="evenodd" d="M16.1289 16.7899C17.249 16.7899 18.1571 15.8819 18.1571 14.7617C18.1571 13.6416 17.249 12.7336 16.1289 12.7336C15.0088 12.7336 14.1008 13.6416 14.1008 14.7617C14.1008 15.8819 15.0088 16.7899 16.1289 16.7899ZM19.3998 16.7518C19.7534 16.1719 19.9571 15.4906 19.9571 14.7617C19.9571 12.6475 18.2432 10.9336 16.1289 10.9336C14.0147 10.9336 12.3008 12.6475 12.3008 14.7617C12.3008 16.876 14.0147 18.5899 16.1289 18.5899C16.8615 18.5899 17.5461 18.3841 18.1279 18.0272L23.0073 22.5493H13.7773C13.2803 22.5493 12.8773 22.9523 12.8773 23.4493C12.8773 23.9464 13.2803 24.3493 13.7773 24.3493H29.908L27.1464 27.111C26.6 26.8105 25.9723 26.6396 25.3047 26.6396C23.1905 26.6396 21.4766 28.3536 21.4766 30.4678C21.4766 32.582 23.1905 34.2959 25.3047 34.2959C27.4189 34.2959 29.1329 32.582 29.1329 30.4678C29.1329 29.674 28.8913 28.9367 28.4776 28.3253L32.4536 24.3493H36.0322C31.4238 29.1104 28.54 35.5507 28.3876 42.6636L21.6321 48.2798C21.0197 47.864 20.2804 47.6211 19.4844 47.6211C17.3702 47.6211 15.6562 49.335 15.6562 51.4492C15.6562 53.5635 17.3702 55.2774 19.4844 55.2774C21.5986 55.2774 23.3126 53.5635 23.3126 51.4492C23.3126 50.7838 23.1428 50.1581 22.8442 49.6129L29.4191 44.1468C29.8507 44.0805 30.1813 43.7075 30.1813 43.2573C30.1813 29.2351 41.5485 17.8679 55.5707 17.8679C55.6067 17.8679 55.6423 17.8658 55.6772 17.8616C56.0798 19.5447 57.594 20.7959 59.4004 20.7959C61.5146 20.7959 63.2286 19.082 63.2286 16.9678C63.2286 14.8536 61.5146 13.1396 59.4004 13.1396C57.5939 13.1396 56.0797 14.3909 55.6771 16.0741C55.6422 16.07 55.6067 16.0679 55.5707 16.0679C48.8485 16.0679 42.6961 18.5073 37.9504 22.5493H25.6553L19.3998 16.7518ZM19.4844 49.4211C19.7612 49.4211 20.0251 49.4766 20.2656 49.577L21.3371 50.8659L21.4086 50.8064C21.476 51.0084 21.5126 51.2246 21.5126 51.4492C21.5126 52.5694 20.6045 53.4774 19.4844 53.4774C18.3643 53.4774 17.4562 52.5694 17.4562 51.4492C17.4562 50.3291 18.3643 49.4211 19.4844 49.4211ZM93.5131 31.6839C93.9885 31.829 94.2563 32.332 94.1113 32.8074L91.9488 39.8955L102.315 37.3945C102.798 37.2779 103.284 37.5751 103.401 38.0583C103.517 38.5414 103.22 39.0277 102.737 39.1442L97.7657 40.3437L102.919 42.68C103.372 42.8853 103.573 43.4186 103.367 43.8713C103.162 44.324 102.629 44.5247 102.176 44.3194L96.1383 41.5822C95.8389 41.4465 95.6497 41.1671 95.6154 40.8625L82.7514 43.9663C82.7156 45.4138 82.5705 46.833 82.3238 48.2153H89.3132C89.8103 48.2153 90.2132 48.6183 90.2132 49.1153C90.2132 49.6124 89.8103 50.0153 89.3132 50.0153H81.9404C79.088 61.5123 69.0945 70.0607 56.739 70.3893C56.3224 72.0525 54.8177 73.2842 53.0254 73.2842C50.9112 73.2842 49.1973 71.5703 49.1973 69.4561C49.1973 67.3419 50.9112 65.6279 53.0254 65.6279C54.8411 65.6279 56.3616 66.892 56.7547 68.5881C70.3967 68.1905 80.9601 57.0436 80.9601 43.2573C80.9601 43.0794 81.0118 42.9136 81.1008 42.774C81.2215 42.5833 81.4135 42.4375 81.6502 42.3803L90.202 40.317C90.0999 40.1166 90.0723 39.8779 90.1431 39.6457L92.3896 32.2821C92.5347 31.8067 93.0377 31.5389 93.5131 31.6839ZM25.3047 32.4959C26.4248 32.4959 27.3329 31.5879 27.3329 30.4678C27.3329 29.3477 26.4248 28.4396 25.3047 28.4396C24.1846 28.4396 23.2766 29.3477 23.2766 30.4678C23.2766 31.5879 24.1846 32.4959 25.3047 32.4959ZM61.4286 16.9678C61.4286 18.0879 60.5205 18.9959 59.4004 18.9959C58.2803 18.9959 57.3723 18.0879 57.3723 16.9678C57.3723 15.8477 58.2803 14.9396 59.4004 14.9396C60.5205 14.9396 61.4286 15.8477 61.4286 16.9678ZM53.0254 71.4842C54.1455 71.4842 55.0536 70.5762 55.0536 69.4561C55.0536 68.336 54.1455 67.4279 53.0254 67.4279C51.9053 67.4279 50.9973 68.336 50.9973 69.4561C50.9973 70.5762 51.9053 71.4842 53.0254 71.4842ZM67.7059 45.2471C67.4506 44.8528 67.0879 44.4584 66.6178 44.2087C66.2417 44.0247 65.9999 43.7224 65.7849 43.3675C65.0998 42.237 65.5028 40.7517 66.6446 40.0813C67.988 39.3321 68.4178 37.6627 67.6387 36.3614L66.7387 34.8103C65.973 33.509 64.2938 33.049 62.964 33.8114C61.7818 34.4423 60.2639 34.0217 59.5788 32.9044C59.3639 32.5363 59.243 32.142 59.2698 31.7477C59.3101 31.235 59.1489 30.7487 58.9071 30.3543C58.4101 29.5394 57.5101 28.9873 56.516 28.9873H54.622C53.6413 29.0136 52.7413 29.5394 52.2443 30.3543C51.989 30.7487 51.8413 31.235 51.8681 31.7477C51.895 32.142 51.7741 32.5363 51.5592 32.9044C50.8741 34.0217 49.3561 34.4423 48.1875 33.8114C46.8441 33.049 45.1784 33.509 44.3993 34.8103L43.4993 36.3614C42.7336 37.6627 43.1635 39.3321 44.4933 40.0813C45.6352 40.7517 46.0382 42.237 45.3665 43.3675C45.1381 43.7224 44.8963 44.0247 44.5202 44.2087C44.0635 44.4584 43.6605 44.8528 43.4455 45.2471C42.9485 46.0621 42.9754 47.0874 43.4724 47.9418L44.3993 49.5191C44.8963 50.3604 45.8232 50.8861 46.7904 50.8861C47.2471 50.8861 47.7845 50.7547 48.2143 50.4918C48.5502 50.2683 48.9532 50.1895 49.3964 50.1895C50.7263 50.1895 51.8413 51.2805 51.8681 52.5818C51.8681 54.0934 53.104 55.2764 54.6623 55.2764H56.4892C58.034 55.2764 59.2698 54.0934 59.2698 52.5818C59.3101 51.2805 60.4251 50.1895 61.755 50.1895C62.1848 50.1895 62.5878 50.2683 62.9371 50.4918C63.367 50.7547 63.8908 50.8861 64.361 50.8861C65.3148 50.8861 66.2417 50.3604 66.7387 49.5191L67.679 47.9418C68.1626 47.0611 68.2029 46.0621 67.7059 45.2471ZM55.5885 45.8515C53.4795 45.8515 51.7734 44.2084 51.7734 42.1447C51.7734 40.081 53.4795 38.4248 55.5885 38.4248C57.6975 38.4248 59.3632 40.081 59.3632 42.1447C59.3632 44.2084 57.6975 45.8515 55.5885 45.8515Z" fill="url(#paint0_linear_3002_7078)"/>
<defs>
<linearGradient id="paint0_linear_3002_7078" x1="12" y1="16.999" x2="99.0458" y2="36.4679" gradientUnits="userSpaceOnUse">
<stop stop-color="#DB8016"/>
<stop offset="1" stop-color="#DBAC16"/>
</linearGradient>
</defs>
</svg>
