<svg width="40" height="40" viewBox="0 0 40 40" fill="none" xmlns="http://www.w3.org/2000/svg">
<path fill-rule="evenodd" clip-rule="evenodd" d="M16.0847 7.43152C17.8275 4.3884 22.2153 4.39085 23.9557 7.43385L35.9323 28.3754C37.662 31.3993 35.4766 35.1616 31.9958 35.1616H8.02418C4.54068 35.1616 2.35836 31.3968 4.0877 28.3738L16.0847 7.43152ZM22.046 8.5261C21.1498 6.95915 18.891 6.95821 17.9937 8.52495L5.99732 29.4662C5.10666 31.0231 6.23101 32.9616 8.02418 32.9616H31.9958C33.7883 32.9616 34.9129 31.0239 34.0227 29.4678L22.046 8.5261ZM20.0053 16.0918C20.6128 16.0918 21.1053 16.5843 21.1053 17.1918V22.3585C21.1053 22.966 20.6128 23.4585 20.0053 23.4585C19.3978 23.4585 18.9053 22.966 18.9053 22.3585V17.1918C18.9053 16.5843 19.3978 16.0918 20.0053 16.0918ZM19.9931 26.3997C19.3856 26.3997 18.8931 26.8921 18.8931 27.4997C18.8931 28.1072 19.3856 28.5997 19.9931 28.5997H20.0097C20.6172 28.5997 21.1097 28.1072 21.1097 27.4997C21.1097 26.8921 20.6172 26.3997 20.0097 26.3997H19.9931Z" fill="url(#paint0_linear_3001_5999)"/>
<defs>
<linearGradient id="paint0_linear_3001_5999" x1="10" y1="9.50049" x2="40.2737" y2="19.1397" gradientUnits="userSpaceOnUse">
<stop stop-color="#DB8016"/>
<stop offset="1" stop-color="#DBAC16"/>
</linearGradient>
</defs>
</svg>
