<svg xmlns="http://www.w3.org/2000/svg" width="30.001" height="30" viewBox="0 0 30.001 30">
  <path id="Union_8" data-name="Union 8" d="M12254.939-1721.939l-5.512-5.512a13.4,13.4,0,0,1-8.427,2.953,13.409,13.409,0,0,1-9.546-3.956,13.414,13.414,0,0,1-3.956-9.546,13.415,13.415,0,0,1,3.956-9.546,13.407,13.407,0,0,1,9.546-3.953,13.412,13.412,0,0,1,9.546,3.953,13.411,13.411,0,0,1,3.952,9.546,13.4,13.4,0,0,1-2.949,8.426l5.512,5.512a1.5,1.5,0,0,1,0,2.123,1.5,1.5,0,0,1-1.061.44A1.5,1.5,0,0,1,12254.939-1721.939ZM12230.5-1738a10.514,10.514,0,0,0,10.5,10.5,10.464,10.464,0,0,0,7.307-2.966,1.36,1.36,0,0,1,.107-.119,1.511,1.511,0,0,1,.118-.107,10.466,10.466,0,0,0,2.967-7.307,10.511,10.511,0,0,0-10.5-10.5A10.514,10.514,0,0,0,12230.5-1738Z" transform="translate(-12227.499 1751.499)" fill="#fff"/>
</svg>
