<svg width="41" height="40" viewBox="0 0 41 40" fill="none" xmlns="http://www.w3.org/2000/svg">
<path fill-rule="evenodd" clip-rule="evenodd" d="M35.0797 5.79804C35.1593 5.94945 35.2009 6.11794 35.2009 6.289V12.3014C35.2009 17.4157 33.8959 22.4455 31.4095 26.9147C28.923 31.384 25.3372 35.1448 20.9916 37.8414C20.8246 37.9451 20.632 38 20.4354 38C20.2389 38 20.0462 37.9451 19.8792 37.8414C15.5336 35.1448 11.9478 31.384 9.46136 26.9147C6.97489 22.4455 5.66991 17.4157 5.66992 12.3014V6.289C5.66994 6.11788 5.71161 5.94933 5.79131 5.7979C5.87102 5.64647 5.98637 5.51671 6.12742 5.41982C6.26847 5.32292 6.43098 5.26181 6.60092 5.24174C6.77086 5.22167 6.94314 5.24326 7.10288 5.30464C9.23232 6.12886 11.5602 6.29471 13.785 5.78073C16.0098 5.26675 18.029 4.0966 19.5811 2.42185L19.6662 2.33537C19.7649 2.22955 19.8843 2.14516 20.017 2.08747C20.1497 2.02977 20.2928 2 20.4375 2C20.5822 2 20.7254 2.02977 20.8581 2.08747C20.9907 2.14516 21.1102 2.22955 21.2088 2.33537L21.2897 2.42185C22.8419 4.09644 24.8611 5.26647 27.0859 5.78045C29.3106 6.29442 31.6385 6.12866 33.7679 5.30464C33.9278 5.2432 34.1001 5.22159 34.2702 5.24168C34.4402 5.26177 34.6028 5.32295 34.7439 5.41995C34.8848 5.51688 35.0001 5.64664 35.0797 5.79804ZM7.99933 12.3014V8.02008C10.0637 8.51794 12.2241 8.5321 14.3093 8.05036C16.5973 7.52179 18.7047 6.417 20.4355 4.84963C22.1663 6.41684 24.2737 7.52152 26.5616 8.05008C28.6467 8.5318 30.8071 8.5177 32.8715 8.01996V12.3014C32.8715 17.0194 31.6677 21.6593 29.3739 25.7822C27.2096 29.6724 24.1424 32.9808 20.4354 35.4316C16.7284 32.9808 13.6613 29.6724 11.4969 25.7822C9.20316 21.6593 7.99932 17.0194 7.99933 12.3014ZM27.9052 18.9412C27.9052 23.0346 24.5869 26.3529 20.4935 26.3529C16.4 26.3529 13.0817 23.0346 13.0817 18.9412C13.0817 14.8478 16.4 11.5294 20.4935 11.5294C24.5869 11.5294 27.9052 14.8478 27.9052 18.9412ZM23.9161 16.4347C24.2883 16.8068 24.2883 17.4102 23.9161 17.7823L20.2517 21.4468C19.8796 21.8188 19.2764 21.8189 18.9042 21.4469L17.0712 19.6147C16.699 19.2426 16.6989 18.6392 17.0709 18.267C17.443 17.8948 18.0464 17.8947 18.4186 18.2667L19.5777 19.4254L22.5685 16.4347C22.9406 16.0625 23.544 16.0625 23.9161 16.4347Z" fill="url(#paint0_linear_3001_1509)"/>
<defs>
<linearGradient id="paint0_linear_3001_1509" x1="6.01942" y1="6.23529" x2="39.6877" y2="14.4061" gradientUnits="userSpaceOnUse">
<stop stop-color="#DB8016"/>
<stop offset="1" stop-color="#DBAC16"/>
</linearGradient>
</defs>
</svg>
