<svg width="104" height="52" viewBox="0 0 104 52" fill="none" xmlns="http://www.w3.org/2000/svg">
<path d="M23.5266 34.1228L13.7429 38.7656V4.67443L23.5266 0.0314713V34.1228Z" fill="white"/>
<path d="M13.8554 47.2322L4.07178 51.875V43.3195L13.8554 38.6767V47.2322Z" fill="#DBAC16"/>
<path d="M6.96615 27.3025L0.664551 31.9453V22.2291L6.96615 17.5862V27.3025Z" fill="white"/>
<path d="M13.7505 27.9206L13.7407 38.75L0.637207 33.0906L0.64706 22.2611L13.7505 27.9206Z" fill="white"/>
<path d="M43.3749 27.8278H48.9232V25.6018H43.3749V22.4431H49.496V20.2501H41.0181V33.5234H49.5288V31.3302H43.3749V27.8278Z" fill="white"/>
<path d="M50.9182 22.4431H55.3373V33.5234H57.7104V22.4431H62.1293V20.2499H50.9182V22.4431Z" fill="white"/>
<path d="M72.8138 25.602H66.4471V20.2501H64.0903V33.5234H66.4471V27.828H72.8138V33.5234H75.187V20.2501H72.8138V25.602Z" fill="white"/>
<path d="M87.3285 27.7777C87.3285 30.2163 86.4446 31.493 83.9897 31.493C81.5183 31.493 80.6508 30.2163 80.6508 27.7777V20.249H78.2939V28.3177C78.2939 31.3456 79.8489 33.7188 83.9897 33.7188C88.1304 33.7188 89.6853 31.3456 89.6853 28.3177V20.249H87.3285V27.7777Z" fill="white"/>
<path d="M97.2452 26.2402H95.1503V22.4431H97.2452C99.1928 22.4431 100.126 22.9833 100.126 24.3089C100.126 25.8474 98.9801 26.2402 97.2452 26.2402ZM99.913 27.9586C101.893 27.3042 102.614 25.7819 102.614 24.2598C102.614 22.214 101.222 20.2501 97.769 20.2501H92.7935V33.5234H95.1503V28.286H97.4907L100.731 33.5234H103.383L99.913 27.9586Z" fill="white"/>
<path d="M35.4888 29.7532C35.4888 30.8824 35.1779 31.3571 34.2614 31.3571C33.9176 31.3571 33.6068 31.3244 33.1812 31.2098L33.3448 33.5012C33.6231 33.583 34.0815 33.6484 34.507 33.6484C36.8473 33.6484 37.7802 32.3882 37.7802 29.4258V4.11192H35.4888V29.7532Z" fill="white"/>
<path d="M41.9566 8.71352C41.9566 7.32235 43.2496 6.40584 44.6081 6.40584H45.5736V11.0375H44.6081C43.135 11.0375 41.9566 10.2356 41.9566 8.71352ZM45.5408 13.3289C45.3937 14.4746 44.7389 14.6382 43.4787 14.6382C42.7095 14.6382 41.973 14.5073 41.0891 14.229L41.2529 16.5367C42.2513 16.8151 42.7585 16.9297 43.6424 16.9297C46.8667 16.9297 47.8485 15.1947 47.8485 12.7069L47.865 4.11451H45.2789C42.0058 4.11451 39.6653 5.84925 39.6653 8.71352C39.6653 12.0032 42.153 13.3289 45.2789 13.3289H45.5408Z" fill="white"/>
<path d="M53.5254 2.89844C54.2456 2.89844 54.8675 2.47292 54.8675 1.67089C54.8675 0.950807 54.2946 0.459816 53.5254 0.459816C52.7725 0.459816 52.1833 0.950807 52.1833 1.67089C52.1833 2.47292 52.8053 2.89844 53.5254 2.89844Z" fill="white"/>
<path d="M97.1406 15.585C97.1406 16.387 97.7626 16.8125 98.4828 16.8125C99.2027 16.8125 99.8247 16.387 99.8247 15.585C99.8247 14.8649 99.2519 14.3739 98.4828 14.3739C97.7298 14.3739 97.1406 14.8649 97.1406 15.585Z" fill="white"/>
<path d="M94.3335 13.3281H102.566C102.877 12.3788 103.351 10.6113 103.351 8.8764C103.351 7.22334 102.746 5.93045 101.878 5.06295C101.093 4.26092 99.9635 3.80273 98.6214 3.80273C97.2467 3.80273 96.0846 4.21191 95.0207 4.81739L95.97 6.81415C96.821 6.27415 97.4756 6.09407 98.3431 6.09407C99.1615 6.09407 99.8161 6.30683 100.274 6.71601C100.847 7.22334 101.076 8.02536 101.076 8.69631C101.076 9.38373 100.962 10.3167 100.798 11.0368H94.3335H94.006H91.4367H91.1092H88.5399H88.2124H85.6431H85.3156H82.7463H82.4188H79.8494H79.5219H77.5629H77.2354H74.6661H74.3386H70.7929H70.4654H67.8959H67.5686H64.9992H64.6716H62.1023H61.7749H59.1893H58.8781H57.4217V8.63097C57.4217 7.28881 57.1598 6.07773 56.4726 5.34118C55.6541 4.47368 54.5413 4.11364 53.0682 4.11364H52.3153V6.40497H53.2973C53.8865 6.40497 54.4102 6.66687 54.6885 7.02691C54.9831 7.40342 55.1304 7.87808 55.1304 8.53269V11.0368H49.4185V13.3281H58.8781H59.1893H61.7749H62.1023H64.6716H64.9992H67.5686H67.8959H70.4654H70.7929H74.3386H74.6661H77.2354H77.5629H79.5219H79.8494H82.4188H82.7463H85.3156H85.6431H88.2124H88.5399H91.1092H91.4367H94.006H94.3335Z" fill="white"/>
</svg>
