<svg width="579" height="651" viewBox="0 0 579 651" fill="none" xmlns="http://www.w3.org/2000/svg">
<path d="M478.575 293.789H496.434C498.482 293.789 500.507 294.22 502.378 295.054L663.048 366.71C664.544 367.378 666.164 367.723 667.802 367.723H680.92" stroke="url(#paint0_linear_1007_7588)" stroke-width="3.89125" stroke-linecap="round"/>
<path d="M432.857 402.225V435.334V522.887M378.789 373.074H370.874C365.714 373.074 360.765 375.124 357.116 378.773L319.282 416.608L297.515 438.374M189.168 561.8V554.78C189.168 549.62 191.218 544.671 194.867 541.023L246.564 489.325M297.515 438.374L275.748 460.141L246.564 489.325M297.515 438.374L261.156 443.603M297.515 438.374L246.564 489.325M246.564 489.325V522.887" stroke="url(#paint1_linear_1007_7588)" stroke-width="3.89125" stroke-linecap="round"/>
<path d="M257.507 448.957C254.422 448.957 251.911 446.446 251.911 443.361C251.911 440.277 254.419 437.766 257.507 437.766C260.594 437.766 263.102 440.277 263.102 443.361C263.102 446.446 260.591 448.957 257.507 448.957ZM257.507 441.34C256.392 441.34 255.485 442.247 255.485 443.361C255.485 444.476 256.392 445.383 257.507 445.383C258.621 445.383 259.528 444.476 259.528 443.361C259.528 442.247 258.621 441.34 257.507 441.34Z" fill="#C29152"/>
<rect x="405.124" y="523.857" width="55.4503" height="55.4503" rx="18.9698" fill="#1B443C"/>
<rect x="405.124" y="523.857" width="55.4503" height="55.4503" rx="18.9698" fill="black" fill-opacity="0.2"/>
<rect x="405.124" y="523.857" width="55.4503" height="55.4503" rx="18.9698" fill="black" fill-opacity="0.2"/>
<rect x="405.124" y="523.857" width="55.4503" height="55.4503" rx="18.9698" fill="black" fill-opacity="0.2"/>
<rect x="405.124" y="523.857" width="55.4503" height="55.4503" rx="18.9698" fill="black" fill-opacity="0.2"/>
<rect x="405.124" y="523.857" width="55.4503" height="55.4503" rx="18.9698" stroke="url(#paint2_linear_1007_7588)" stroke-width="0.972812"/>
<g opacity="0.8">
<path fill-rule="evenodd" clip-rule="evenodd" d="M426.525 558.601C426.84 558.601 427.155 558.641 427.464 558.724C428.394 558.975 429.203 559.597 429.682 560.433C429.993 560.957 430.165 561.57 430.17 562.195C430.17 563.09 430.889 563.807 431.773 563.807H433.498C434.378 563.807 435.097 563.094 435.101 562.214C435.095 561.242 435.475 560.318 436.171 559.623C436.856 558.937 437.814 558.526 438.773 558.553C439.4 558.568 440.005 558.738 440.538 559.041C441.305 559.48 442.283 559.218 442.727 558.461L443.641 556.937C443.845 556.586 443.904 556.145 443.795 555.739C443.688 555.333 443.418 554.98 443.054 554.773C442.204 554.282 441.596 553.492 441.345 552.545C441.095 551.616 441.232 550.601 441.718 549.765C442.034 549.214 442.498 548.751 443.054 548.431C443.801 547.995 444.062 547.018 443.629 546.259C443.611 546.228 443.594 546.197 443.58 546.164L442.774 544.765C442.334 544.001 441.357 543.738 440.59 544.174C439.761 544.664 438.775 544.805 437.828 544.555C436.882 544.31 436.089 543.711 435.595 542.866C435.278 542.337 435.106 541.722 435.101 541.096C435.113 540.625 434.948 540.202 434.648 539.892C434.349 539.584 433.929 539.409 433.498 539.409H431.773C431.346 539.409 430.947 539.576 430.645 539.876C430.345 540.177 430.181 540.578 430.184 541.005C430.155 543.018 428.51 544.638 426.518 544.638C425.879 544.631 425.264 544.459 424.729 544.14C423.979 543.713 422.999 543.976 422.56 544.74L421.627 546.272C421.201 547.013 421.462 547.992 422.222 548.434C423.35 549.086 424.053 550.304 424.053 551.609C424.053 552.914 423.35 554.13 422.219 554.784C421.464 555.221 421.202 556.195 421.64 556.952L422.509 558.45C422.723 558.837 423.074 559.116 423.481 559.231C423.885 559.344 424.331 559.295 424.703 559.089C425.25 558.768 425.886 558.601 426.525 558.601ZM433.498 565.872H431.773C429.751 565.872 428.106 564.228 428.106 562.206C428.103 561.957 428.031 561.698 427.898 561.473C427.681 561.096 427.332 560.826 426.928 560.719C426.528 560.612 426.089 560.671 425.728 560.88C424.863 561.362 423.846 561.479 422.915 561.217C421.986 560.954 421.183 560.316 420.712 559.469L419.852 557.986C418.845 556.24 419.444 554.003 421.187 552.995C421.681 552.71 421.988 552.179 421.988 551.609C421.988 551.039 421.681 550.506 421.187 550.221C419.443 549.208 418.845 546.965 419.85 545.219L420.784 543.687C421.776 541.96 424.021 541.352 425.77 542.357C426.009 542.498 426.267 542.57 426.53 542.573C427.388 542.573 428.106 541.865 428.119 540.995C428.114 540.035 428.492 539.114 429.182 538.419C429.875 537.725 430.794 537.344 431.773 537.344H433.498C434.484 537.344 435.442 537.749 436.129 538.452C436.815 539.16 437.194 540.13 437.165 541.115C437.168 541.336 437.241 541.593 437.373 541.817C437.592 542.189 437.937 542.45 438.347 542.558C438.758 542.66 439.187 542.604 439.552 542.388C441.314 541.382 443.557 541.985 444.564 543.733L445.421 545.219C445.443 545.259 445.463 545.297 445.479 545.337C446.391 547.06 445.782 549.228 444.089 550.218C443.842 550.36 443.643 550.558 443.505 550.798C443.292 551.168 443.232 551.609 443.34 552.014C443.45 552.427 443.713 552.769 444.083 552.981C444.919 553.462 445.543 554.271 445.792 555.206C446.041 556.14 445.905 557.153 445.419 557.989L444.505 559.512C443.498 561.241 441.255 561.84 439.511 560.832C439.278 560.698 439.01 560.625 438.743 560.618H438.734C438.336 560.618 437.928 560.788 437.63 561.084C437.329 561.385 437.163 561.787 437.166 562.214C437.157 564.237 435.511 565.872 433.498 565.872ZM432.559 545.172C429.057 545.215 426.232 548.067 426.232 551.579C426.232 555.118 429.101 557.986 432.64 557.986C436.179 557.986 439.048 555.118 439.048 551.579C439.048 548.067 436.223 545.215 432.722 545.172C433.245 545.213 433.657 545.651 433.657 546.185V551.053L437.606 553.877C438.063 554.203 438.169 554.838 437.842 555.295C437.516 555.751 436.881 555.857 436.424 555.531L432.64 552.826L428.856 555.531C428.4 555.857 427.765 555.751 427.438 555.295C427.112 554.838 427.217 554.203 427.674 553.877L431.623 551.054V546.185C431.623 545.651 432.035 545.213 432.559 545.172Z" fill="url(#paint3_linear_1007_7588)"/>
</g>
<rect x="160.465" y="562.283" width="55.4503" height="55.4503" rx="18.9698" fill="#1B443C"/>
<rect x="160.465" y="562.283" width="55.4503" height="55.4503" rx="18.9698" fill="black" fill-opacity="0.2"/>
<rect x="160.465" y="562.283" width="55.4503" height="55.4503" rx="18.9698" fill="black" fill-opacity="0.2"/>
<rect x="160.465" y="562.283" width="55.4503" height="55.4503" rx="18.9698" fill="black" fill-opacity="0.2"/>
<rect x="160.465" y="562.283" width="55.4503" height="55.4503" rx="18.9698" fill="black" fill-opacity="0.2"/>
<rect x="160.465" y="562.283" width="55.4503" height="55.4503" rx="18.9698" stroke="url(#paint4_linear_1007_7588)" stroke-width="0.972812"/>
<g opacity="0.8">
<path fill-rule="evenodd" clip-rule="evenodd" d="M177.81 596.246L177.527 595.757C177.089 595 177.35 594.026 178.106 593.588C179.237 592.934 179.94 591.719 179.94 590.413C179.94 589.108 179.237 587.891 178.109 587.239C177.349 586.797 177.087 585.818 177.514 585.077L178.446 583.545C178.885 582.78 179.866 582.517 180.616 582.944C181.15 583.264 181.766 583.436 182.405 583.443C184.397 583.443 186.042 581.822 186.071 579.809C186.068 579.383 186.232 578.982 186.532 578.68C186.834 578.38 187.233 578.214 187.66 578.214H189.385C189.816 578.214 190.236 578.388 190.535 578.697C190.835 579.007 191 579.429 190.987 579.9C190.993 580.527 191.165 581.142 191.482 581.671C191.976 582.516 192.769 583.115 193.715 583.36C194.662 583.609 195.648 583.469 196.477 582.979C197.244 582.542 198.221 582.805 198.66 583.569L199.467 584.968C199.481 585.001 199.497 585.033 199.515 585.063C199.949 585.823 199.687 586.799 198.941 587.236C198.385 587.555 197.921 588.019 197.604 588.57C197.118 589.406 196.982 590.42 197.231 591.35C197.483 592.297 198.09 593.087 198.941 593.577C199.305 593.785 199.575 594.138 199.682 594.544C199.791 594.95 199.731 595.391 199.528 595.742L199.408 595.941L200.763 597.697L201.305 596.793C201.791 595.958 201.928 594.944 201.679 594.011C201.429 593.076 200.806 592.267 199.97 591.786C199.6 591.574 199.337 591.231 199.226 590.818C199.119 590.413 199.178 589.973 199.392 589.602C199.529 589.363 199.729 589.165 199.975 589.023C201.669 588.033 202.277 585.864 201.366 584.142C201.349 584.102 201.33 584.064 201.308 584.024L200.45 582.538C199.444 580.79 197.201 580.187 195.439 581.193C195.074 581.409 194.644 581.464 194.234 581.362C193.824 581.255 193.478 580.993 193.259 580.622C193.127 580.397 193.054 580.141 193.052 579.919C193.08 578.935 192.702 577.964 192.016 577.257C191.329 576.553 190.371 576.148 189.385 576.148H187.66C186.681 576.148 185.761 576.53 185.069 577.224C184.379 577.919 184 578.84 184.006 579.8C183.992 580.67 183.275 581.378 182.417 581.378C182.154 581.375 181.895 581.303 181.657 581.161C179.907 580.156 177.663 580.765 176.67 582.491L175.737 584.024C174.732 585.769 175.329 588.012 177.074 589.026C177.568 589.311 177.875 589.843 177.875 590.413C177.875 590.983 177.568 591.515 177.074 591.8C175.331 592.808 174.732 595.045 175.738 596.791L176.413 597.954L177.81 596.246Z" fill="url(#paint5_linear_1007_7588)"/>
<path fill-rule="evenodd" clip-rule="evenodd" d="M191.495 588.017C190.476 586.235 187.907 586.234 186.887 588.015L179.864 600.275C178.851 602.045 180.129 604.249 182.168 604.249H196.202C198.24 604.249 199.519 602.047 198.506 600.276L191.495 588.017ZM189.826 593.73C189.826 593.374 189.538 593.086 189.182 593.086C188.827 593.086 188.538 593.374 188.538 593.73V596.754C188.538 597.11 188.827 597.398 189.182 597.398C189.538 597.398 189.826 597.11 189.826 596.754V593.73ZM188.531 599.764C188.531 599.409 188.819 599.12 189.175 599.12H189.185C189.541 599.12 189.829 599.409 189.829 599.764C189.829 600.12 189.541 600.408 189.185 600.408H189.175C188.819 600.408 188.531 600.12 188.531 599.764Z" fill="url(#paint6_linear_1007_7588)"/>
</g>
<g opacity="0.4">
<circle cx="434.054" cy="360.175" r="190.092" stroke="#24573A" stroke-width="1.94562"/>
<circle cx="434.392" cy="362.285" r="216.539" stroke="#24573A" stroke-opacity="0.93" stroke-width="1.94562"/>
<circle cx="432.851" cy="363.836" r="240.285" stroke="#24573A" stroke-opacity="0.83" stroke-width="1.94562"/>
<circle cx="434.303" cy="363.345" r="263.146" stroke="#24573A" stroke-opacity="0.71" stroke-width="1.94562"/>
<circle cx="433.824" cy="361.886" r="286.007" stroke="#24573A" stroke-opacity="0.65" stroke-width="1.94562"/>
<circle cx="434.309" cy="360.427" r="311.786" stroke="#24573A" stroke-opacity="0.49" stroke-width="1.94562"/>
<circle cx="434.054" cy="360.174" r="335.853" stroke="#24573A" stroke-opacity="0.39" stroke-width="1.94562"/>
</g>
<path d="M373.028 353.617H356.523C355.207 353.617 353.895 353.751 352.606 354.016L46.8536 416.867C42.3259 417.798 38.2775 420.31 35.4335 423.954L24.2744 438.252" stroke="url(#paint7_linear_1007_7588)" stroke-width="2.91844" stroke-linecap="round"/>
<path d="M188.196 404.206L226.136 394.965L231.973 378.913L257.266 373.563L226.136 359.457" stroke="url(#paint8_linear_1007_7588)" stroke-width="2.91844" stroke-linecap="round"/>
<path d="M382.279 303.516C379.214 303.516 351.809 303.516 337.613 303.516C332.562 303.516 327.718 301.551 324.089 298.037L295.213 270.075M175.557 169.754H183.732C188.784 169.754 193.637 171.719 197.266 175.233L271.865 247.468M295.213 270.075L290.348 251.47L271.865 233.473M295.213 270.075L271.865 247.468M271.865 247.468L246.086 239.31" stroke="url(#paint9_linear_1007_7588)" stroke-width="2.91844" stroke-linecap="round"/>
<path d="M244.346 73.1836V80.3379C244.346 84.8331 245.902 89.1896 248.751 92.667L313.276 171.438M394.159 287.689V277.13C394.159 272.634 392.602 268.278 389.754 264.801L331.604 193.812M313.276 171.438L308.065 150.522M313.276 171.438L331.604 193.812M331.604 193.812L315.361 190.894L302.228 175.815" stroke="url(#paint10_linear_1007_7588)" stroke-width="2.91844" stroke-linecap="round"/>
<path d="M416.523 274.441L409.859 259.747M383.257 204.297L401.925 243.209M401.925 243.209L405.632 220.348M401.925 243.209L409.859 259.747M409.859 259.747L394.931 257.315L383.257 237.372" stroke="url(#paint11_linear_1007_7588)" stroke-width="2.91844" stroke-linecap="round"/>
<path d="M370.348 320.062H354.067M306.399 320.062H334.611M334.611 320.062L324.883 329.79M334.611 320.062H354.067M354.067 320.062L346.771 313.738" stroke="url(#paint12_linear_1007_7588)" stroke-width="2.91844" stroke-linecap="round"/>
<path opacity="0.5" d="M107.452 316.648V325.89C107.452 331.8 112.243 336.591 118.153 336.591H231.486M367.835 336.591H267.966M267.966 336.591L248.51 324.917M267.966 336.591H231.486M231.486 336.591L215.434 349.238" stroke="url(#paint13_linear_1007_7588)" stroke-width="3.89125" stroke-linecap="round"/>
<path opacity="0.5" d="M434.315 274.334V257.309V167.324" stroke="url(#paint14_linear_1007_7588)" stroke-width="3.89125" stroke-linecap="round"/>
<path d="M399.212 392.012L390.203 403.958M344.338 463.543L379.158 418.307M379.158 418.307V449.437M379.158 418.307L390.203 403.958M390.203 403.958H358.931" stroke="url(#paint15_linear_1007_7588)" stroke-width="2.91844" stroke-linecap="round"/>
<path d="M384.386 294.382L377.895 289.166M335.091 281.14L334.39 280.072M335.091 281.14L321.958 274.817L334.39 280.072M335.091 281.14H357.952M313.689 248.551L326.786 268.493M326.786 268.493L329.741 263.143L323.418 252.442M326.786 268.493L334.39 280.072M357.952 281.14H368.653L377.895 289.166M357.952 281.14L348.711 289.895M377.895 289.166L375.949 278.222" stroke="url(#paint16_linear_1007_7588)" stroke-width="2.91844" stroke-linecap="round"/>
<path d="M183.576 411.993C180.491 411.993 177.98 409.481 177.98 406.397C177.98 403.313 180.488 400.801 183.576 400.801C186.663 400.801 189.171 403.313 189.171 406.397C189.171 409.481 186.66 411.993 183.576 411.993ZM183.576 404.375C182.461 404.375 181.554 405.282 181.554 406.397C181.554 407.511 182.461 408.418 183.576 408.418C184.69 408.418 185.597 407.511 185.597 406.397C185.597 405.282 184.69 404.375 183.576 404.375Z" fill="#C29152"/>
<path d="M222.491 363.348C219.407 363.348 216.896 360.836 216.896 357.752C216.896 354.668 219.404 352.156 222.491 352.156C225.579 352.156 228.087 354.668 228.087 357.752C228.087 360.836 225.575 363.348 222.491 363.348ZM222.491 355.731C221.377 355.731 220.47 356.638 220.47 357.752C220.47 358.866 221.377 359.774 222.491 359.774C223.606 359.774 224.513 358.866 224.513 357.752C224.513 356.638 223.606 355.731 222.491 355.731Z" fill="#C29152"/>
<path d="M353.818 410.043C350.733 410.043 348.222 407.532 348.222 404.447C348.222 401.363 350.73 398.852 353.818 398.852C356.905 398.852 359.413 401.363 359.413 404.447C359.413 407.532 356.902 410.043 353.818 410.043ZM353.818 402.426C352.703 402.426 351.796 403.333 351.796 404.447C351.796 405.562 352.703 406.469 353.818 406.469C354.932 406.469 355.839 405.562 355.839 404.447C355.839 403.333 354.932 402.426 353.818 402.426Z" fill="#C29152"/>
<path d="M379.105 458.684C376.021 458.684 373.509 456.172 373.509 453.088C373.509 450.004 376.017 447.492 379.105 447.492C382.192 447.492 384.701 450.004 384.701 453.088C384.701 456.172 382.189 458.684 379.105 458.684ZM379.105 451.066C377.99 451.066 377.083 451.974 377.083 453.088C377.083 454.202 377.99 455.11 379.105 455.11C380.219 455.11 381.126 454.202 381.126 453.088C381.126 451.974 380.219 451.066 379.105 451.066Z" fill="#C29152"/>
<path d="M240.964 244.668C237.88 244.668 235.368 242.157 235.368 239.072C235.368 235.988 237.877 233.477 240.964 233.477C244.051 233.477 246.56 235.988 246.56 239.072C246.56 242.157 244.048 244.668 240.964 244.668ZM240.964 237.051C239.85 237.051 238.942 237.958 238.942 239.072C238.942 240.187 239.85 241.094 240.964 241.094C242.078 241.094 242.986 240.187 242.986 239.072C242.986 237.958 242.078 237.051 240.964 237.051Z" fill="#C29152"/>
<path d="M243.885 327.36C240.801 327.36 238.289 324.848 238.289 321.764C238.289 318.68 240.798 316.168 243.885 316.168C246.972 316.168 249.481 318.68 249.481 321.764C249.481 324.848 246.969 327.36 243.885 327.36ZM243.885 319.742C242.771 319.742 241.863 320.65 241.863 321.764C241.863 322.878 242.771 323.785 243.885 323.785C244.999 323.785 245.907 322.878 245.907 321.764C245.907 320.65 244.999 319.742 243.885 319.742Z" fill="#C29152"/>
<path d="M268.206 234.934C265.122 234.934 262.61 232.422 262.61 229.338C262.61 226.254 265.119 223.742 268.206 223.742C271.293 223.742 273.802 226.254 273.802 229.338C273.802 232.422 271.29 234.934 268.206 234.934ZM268.206 227.316C267.092 227.316 266.185 228.224 266.185 229.338C266.185 230.452 267.092 231.36 268.206 231.36C269.321 231.36 270.228 230.452 270.228 229.338C270.228 228.224 269.321 227.316 268.206 227.316Z" fill="#C29152"/>
<path d="M297.395 180.461C294.311 180.461 291.799 177.95 291.799 174.865C291.799 171.781 294.308 169.27 297.395 169.27C300.482 169.27 302.991 171.781 302.991 174.865C302.991 177.95 300.479 180.461 297.395 180.461ZM297.395 172.844C296.28 172.844 295.373 173.751 295.373 174.865C295.373 175.98 296.28 176.887 297.395 176.887C298.509 176.887 299.416 175.98 299.416 174.865C299.416 173.751 298.509 172.844 297.395 172.844Z" fill="#C29152"/>
<path d="M305.175 154.196C302.091 154.196 299.579 151.684 299.579 148.6C299.579 145.516 302.088 143.004 305.175 143.004C308.262 143.004 310.771 145.516 310.771 148.6C310.771 151.684 308.259 154.196 305.175 154.196ZM305.175 146.578C304.061 146.578 303.153 147.485 303.153 148.6C303.153 149.714 304.061 150.621 305.175 150.621C306.289 150.621 307.196 149.714 307.196 148.6C307.196 147.485 306.289 146.578 305.175 146.578Z" fill="#C29152"/>
<path d="M246.805 533.59C243.721 533.59 241.209 531.078 241.209 527.994C241.209 524.91 243.718 522.398 246.805 522.398C249.892 522.398 252.401 524.91 252.401 527.994C252.401 531.078 249.889 533.59 246.805 533.59ZM246.805 525.973C245.691 525.973 244.783 526.88 244.783 527.994C244.783 529.109 245.691 530.016 246.805 530.016C247.919 530.016 248.826 529.109 248.826 527.994C248.826 526.88 247.919 525.973 246.805 525.973Z" fill="#C29152"/>
<g filter="url(#filter0_d_1007_7588)">
<circle cx="362.179" cy="184.859" r="7.87898" fill="#A18867"/>
</g>
<g filter="url(#filter1_d_1007_7588)">
<circle cx="172.239" cy="339.609" r="7.87898" fill="#A18867"/>
</g>
<g filter="url(#filter2_d_1007_7588)">
<circle cx="235.476" cy="152.824" r="7.87898" fill="#A18867"/>
</g>
<g filter="url(#filter3_d_1007_7588)">
<circle cx="434.306" cy="47.6407" r="7.87898" fill="#A18867"/>
</g>
<g filter="url(#filter4_d_1007_7588)">
<circle cx="223.802" cy="495.258" r="7.87898" fill="#A18867"/>
</g>
<path opacity="0.1" d="M519.444 336.83C519.444 384.647 480.681 423.411 432.864 423.411C385.047 423.411 346.284 384.647 346.284 336.83C346.284 289.013 385.047 250.25 432.864 250.25C480.681 250.25 519.444 289.013 519.444 336.83Z" fill="#DBA716"/>
<circle cx="432.854" cy="336.825" r="61.5726" fill="#1B453C" stroke="url(#paint17_linear_1007_7588)" stroke-width="2.91844"/>
<path d="M441.002 331.712H470.421C471.038 331.712 471.539 331.211 471.539 330.593C471.539 329.976 471.038 329.475 470.421 329.475H454.172L457.734 325.674C458.157 325.222 458.135 324.515 457.683 324.092C457.231 323.669 456.524 323.692 456.101 324.143L451.103 329.475H441C440.382 329.475 439.881 329.976 439.881 330.593C439.881 331.211 440.382 331.712 441 331.712H441.002Z" fill="#DDA02B"/>
<path d="M473.329 350.436H451.69L453.945 348.141L459.716 347.572C460.332 347.511 460.782 346.964 460.721 346.348C460.66 345.732 460.117 345.284 459.497 345.345L453.322 345.955C453.061 345.982 452.819 346.098 452.634 346.285L448.551 350.438H440.214C439.896 350.438 439.593 350.574 439.381 350.81L433.869 356.966C433.564 356.962 433.259 357.081 433.036 357.321C432.617 357.774 432.646 358.482 433.099 358.903L441.097 366.294C441.305 366.485 441.575 366.592 441.855 366.592H450.472L452.396 368.658C452.617 368.894 452.914 369.014 453.215 369.014C453.488 369.014 453.762 368.915 453.978 368.715C454.429 368.294 454.456 367.586 454.035 367.133L451.78 364.71C451.568 364.484 451.271 364.354 450.96 364.354H448.441L451.197 361.39C451.618 360.936 451.591 360.229 451.139 359.808C450.686 359.387 449.979 359.414 449.557 359.865L445.385 364.352H442.296L435.71 358.264L440.717 352.672H459.844L464.826 358.201C465.048 358.447 465.353 358.571 465.657 358.571C465.924 358.571 466.193 358.476 466.407 358.283C466.866 357.87 466.902 357.163 466.488 356.703L462.858 352.674H473.333C473.95 352.674 474.452 352.173 474.452 351.555C474.452 350.938 473.95 350.436 473.333 350.436H473.329Z" fill="#DDA02B"/>
<path d="M441.623 337.852C441.006 337.852 440.504 338.353 440.504 338.97C440.504 339.588 441.006 340.089 441.623 340.089H457.115C457.733 340.089 458.234 339.588 458.234 338.97C458.234 338.353 457.733 337.852 457.115 337.852H441.623Z" fill="#DDA02B"/>
<path d="M394.84 353.608C392.909 353.608 391.337 352.036 391.337 350.105C391.337 348.174 392.909 346.602 394.84 346.602C396.771 346.602 398.343 348.172 398.343 350.105C398.343 352.037 396.771 353.608 394.84 353.608ZM394.84 348.839C394.143 348.839 393.575 349.407 393.575 350.105C393.575 350.802 394.143 351.37 394.84 351.37C395.538 351.37 396.106 350.802 396.106 350.105C396.106 349.407 395.538 348.839 394.84 348.839Z" fill="#DDA02B"/>
<path d="M394.3 334.241C392.369 334.241 390.797 332.668 390.797 330.738C390.797 328.807 392.367 327.234 394.3 327.234C396.233 327.234 397.803 328.807 397.803 330.738C397.803 332.668 396.231 334.241 394.3 334.241ZM394.3 329.472C393.603 329.472 393.035 330.04 393.035 330.738C393.035 331.435 393.603 332.003 394.3 332.003C394.998 332.003 395.566 331.435 395.566 330.738C395.566 330.04 394.998 329.472 394.3 329.472Z" fill="#DDA02B"/>
<path d="M441.834 344.032C442.047 343.819 442.165 343.529 442.162 343.228L442.087 336.631V295.734H415.316L408.81 312.189H425.627L425.579 329.613H416.595L411.639 324.658C411.896 324.172 412.043 323.617 412.043 323.03C412.043 321.099 410.473 319.527 408.54 319.527C406.607 319.527 405.037 321.099 405.037 323.03C405.037 324.961 406.609 326.533 408.54 326.533C409.068 326.533 409.569 326.411 410.019 326.202L413.431 329.613H396.875V331.851H408.976L406.289 334.682C405.818 334.447 405.29 334.31 404.73 334.31C402.799 334.31 401.227 335.88 401.227 337.813C401.227 339.746 402.797 341.316 404.73 341.316C406.662 341.316 408.233 339.744 408.233 337.813C408.233 337.258 408.1 336.734 407.869 336.267L412.062 331.849H425.576L425.564 336.09L419.151 342.445L401.042 342.307L395.36 347.553L396.877 349.198L401.909 344.553L410.665 344.619L409.817 345.399C409.35 345.168 408.83 345.037 408.275 345.037C406.344 345.037 404.772 346.609 404.772 348.54C404.772 350.471 406.342 352.043 408.275 352.043C410.208 352.043 411.778 350.473 411.778 348.54C411.778 347.978 411.643 347.45 411.406 346.977L413.945 344.642L420.065 344.688L427.8 337.024L427.876 309.947H412.106L416.842 297.968H439.855V336.639C439.855 336.639 439.855 336.647 439.855 336.65L439.924 342.776L432.845 349.855C432.83 349.87 432.82 349.888 432.807 349.903L424.243 358.588L410.034 358.716L407.522 361.028C406.962 360.649 406.287 360.426 405.561 360.426C403.63 360.426 402.058 361.998 402.058 363.929C402.058 365.86 403.63 367.432 405.561 367.432C407.492 367.432 409.064 365.862 409.064 363.929C409.064 363.54 408.997 363.169 408.881 362.818L410.917 360.944L416.347 360.897L415.628 361.67C415.348 361.598 415.055 361.554 414.751 361.554C412.821 361.554 411.248 363.127 411.248 365.057C411.248 366.988 412.819 368.561 414.751 368.561C416.684 368.561 418.255 366.99 418.255 365.057C418.255 364.253 417.978 363.514 417.521 362.921L419.429 360.868L425.189 360.817L432.531 353.368L432.523 358.863L425.322 366.062C424.867 365.845 424.358 365.719 423.82 365.719C421.889 365.719 420.317 367.291 420.317 369.222C420.317 371.153 421.888 372.725 423.82 372.725C425.753 372.725 427.323 371.153 427.323 369.222C427.323 368.645 427.18 368.099 426.931 367.617L432.517 362.033L432.504 371.017C431.147 371.5 430.169 372.794 430.169 374.315C430.169 376.246 431.742 377.818 433.672 377.818C435.603 377.818 437.176 376.248 437.176 374.315C437.176 372.756 436.152 371.433 434.742 370.979L434.772 351.088L441.84 344.021L441.834 344.032ZM407.272 323.034C407.272 322.336 407.84 321.768 408.538 321.768C409.236 321.768 409.804 322.336 409.804 323.034C409.804 323.732 409.236 324.3 408.538 324.3C407.84 324.3 407.272 323.732 407.272 323.034ZM404.726 339.082C404.028 339.082 403.46 338.514 403.46 337.817C403.46 337.119 404.028 336.551 404.726 336.551C405.424 336.551 405.992 337.119 405.992 337.817C405.992 338.514 405.424 339.082 404.726 339.082ZM408.271 349.809C407.574 349.809 407.006 349.241 407.006 348.544C407.006 347.846 407.574 347.278 408.271 347.278C408.969 347.278 409.537 347.846 409.537 348.544C409.537 349.241 408.969 349.809 408.271 349.809ZM405.555 365.2C404.857 365.2 404.289 364.632 404.289 363.935C404.289 363.237 404.857 362.669 405.555 362.669C406.253 362.669 406.821 363.237 406.821 363.935C406.821 364.632 406.253 365.2 405.555 365.2ZM414.744 366.331C414.046 366.331 413.478 365.763 413.478 365.065C413.478 364.367 414.046 363.799 414.744 363.799C415.441 363.799 416.009 364.367 416.009 365.065C416.009 365.763 415.441 366.331 414.744 366.331ZM423.815 370.497C423.117 370.497 422.549 369.929 422.549 369.232C422.549 368.534 423.117 367.966 423.815 367.966C424.512 367.966 425.08 368.534 425.08 369.232C425.08 369.929 424.512 370.497 423.815 370.497ZM433.667 375.59C432.969 375.59 432.401 375.022 432.401 374.324C432.401 373.627 432.969 373.059 433.667 373.059C434.364 373.059 434.932 373.627 434.932 374.324C434.932 375.022 434.364 375.59 433.667 375.59Z" fill="#DDA02B"/>
<rect x="82.0925" y="264.119" width="52.5319" height="52.5319" rx="18.9698" fill="#0B1B18"/>
<rect x="82.0925" y="264.119" width="52.5319" height="52.5319" rx="18.9698" stroke="url(#paint18_linear_1007_7588)" stroke-width="0.972812"/>
<g opacity="0.8">
<path fill-rule="evenodd" clip-rule="evenodd" d="M120.615 278.295C120.683 278.424 120.718 278.568 120.718 278.713V283.831C120.718 288.185 119.607 292.466 117.491 296.27C115.374 300.074 112.322 303.276 108.623 305.571C108.481 305.659 108.317 305.706 108.15 305.706C107.982 305.706 107.818 305.659 107.676 305.571C103.977 303.276 100.925 300.074 98.8083 296.27C96.6918 292.466 95.581 288.185 95.581 283.831V278.713C95.581 278.568 95.6165 278.424 95.6843 278.295C95.7522 278.166 95.8504 278.056 95.9704 277.973C96.0905 277.891 96.2288 277.839 96.3735 277.822C96.5181 277.805 96.6648 277.823 96.8007 277.875C98.6133 278.577 100.595 278.718 102.489 278.281C104.382 277.843 106.101 276.847 107.422 275.422L107.495 275.348C107.579 275.258 107.68 275.186 107.793 275.137C107.906 275.088 108.028 275.062 108.151 275.062C108.274 275.062 108.396 275.088 108.509 275.137C108.622 275.186 108.724 275.258 108.808 275.348L108.877 275.422C110.198 276.847 111.917 277.843 113.811 278.28C115.704 278.718 117.686 278.577 119.498 277.875C119.634 277.823 119.781 277.805 119.926 277.822C120.071 277.839 120.209 277.891 120.329 277.974C120.449 278.056 120.547 278.167 120.615 278.295ZM97.5638 283.831V280.187C99.3211 280.611 101.16 280.623 102.935 280.213C104.882 279.763 106.676 278.822 108.15 277.488C109.623 278.822 111.417 279.762 113.364 280.212C115.139 280.622 116.978 280.61 118.735 280.187V283.831C118.735 287.847 117.711 291.797 115.758 295.306C113.916 298.618 111.305 301.434 108.15 303.52C104.994 301.434 102.383 298.618 100.541 295.306C98.5885 291.797 97.5638 287.847 97.5638 283.831ZM114.508 289.483C114.508 292.967 111.683 295.792 108.199 295.792C104.715 295.792 101.89 292.967 101.89 289.483C101.89 285.999 104.715 283.174 108.199 283.174C111.683 283.174 114.508 285.999 114.508 289.483ZM111.112 287.349C111.429 287.666 111.429 288.18 111.112 288.497L107.993 291.616C107.676 291.933 107.163 291.933 106.846 291.616L105.286 290.056C104.969 289.74 104.969 289.226 105.286 288.909C105.602 288.592 106.116 288.592 106.433 288.909L107.419 289.895L109.965 287.349C110.282 287.033 110.796 287.033 111.112 287.349Z" fill="url(#paint19_linear_1007_7588)"/>
</g>
<rect x="1.43184" y="438.74" width="46.3877" height="41.4599" rx="18.9698" fill="#1B443C"/>
<rect x="1.43184" y="438.74" width="46.3877" height="41.4599" rx="18.9698" fill="black" fill-opacity="0.2"/>
<rect x="1.43184" y="438.74" width="46.3877" height="41.4599" rx="18.9698" fill="black" fill-opacity="0.2"/>
<rect x="1.43184" y="438.74" width="46.3877" height="41.4599" rx="18.9698" fill="black" fill-opacity="0.2"/>
<rect x="1.43184" y="438.74" width="46.3877" height="41.4599" rx="18.9698" fill="black" fill-opacity="0.2"/>
<rect x="1.43184" y="438.74" width="46.3877" height="41.4599" rx="18.9698" stroke="url(#paint20_linear_1007_7588)" stroke-width="0.972812"/>
<path opacity="0.8" d="M21.976 468.302C21.976 467.727 21.5102 467.262 20.9358 467.262H13.0799C12.5055 467.262 12.0397 467.727 12.0397 468.302C12.0397 468.483 12.0861 468.653 12.1675 468.801H10.6735V470.958H23.3422V468.801H21.8482C21.9296 468.653 21.976 468.483 21.976 468.302Z" fill="url(#paint21_linear_1007_7588)"/>
<path opacity="0.8" d="M20.6338 450.519L27.2715 454.734C27.7876 454.997 28.4289 454.829 28.7457 454.331L29.0642 453.829C29.4007 453.299 29.2439 452.597 28.714 452.26L22.2595 448.162C21.7296 447.825 21.0273 447.982 20.6908 448.512L20.3722 449.013C20.0555 449.512 20.1761 450.164 20.6338 450.519Z" fill="url(#paint22_linear_1007_7588)"/>
<path opacity="0.8" d="M38.5749 466.623L38.5703 466.523L38.562 466.428C38.5578 466.363 38.5487 466.306 38.5408 466.247C38.5089 466.01 38.4546 465.808 38.3882 465.626C38.2535 465.265 38.0631 464.991 37.8292 464.785C37.771 464.734 37.7088 464.688 37.6469 464.642L37.4616 464.504C37.3385 464.411 37.213 464.321 37.0884 464.231C36.964 464.14 36.838 464.051 36.712 463.963C36.5863 463.874 36.4601 463.786 36.3329 463.699C36.0797 463.524 35.8239 463.354 35.5674 463.184L35.1815 462.931L34.7934 462.681C34.5339 462.516 34.274 462.352 34.0124 462.19C33.7512 462.028 33.4889 461.867 33.2251 461.709L32.4331 461.235L31.6358 460.769L30.8342 460.311L30.0286 459.858L29.2192 459.411L28.4059 458.971C28.1339 458.826 27.8621 458.68 27.5882 458.538C27.315 458.394 27.042 458.25 26.7668 458.11L26.5176 458.502L25.2616 457.91L26.6656 455.699L20.0279 451.484L16.5751 456.922L23.2128 461.137L24.6167 458.926L25.6868 459.811L25.4376 460.203C25.6817 460.393 25.9281 460.578 26.174 460.765C26.4194 460.952 26.6668 461.136 26.914 461.321L27.6585 461.869L28.407 462.412L29.1591 462.949L29.9152 463.479L30.6757 464.003L31.4413 464.518C31.6969 464.689 31.9538 464.858 32.212 465.026C32.4696 465.194 32.7288 465.359 32.9886 465.524L33.3794 465.769L33.7723 466.011C34.0354 466.17 34.2986 466.329 34.5647 466.484C34.6971 466.562 34.8303 466.639 34.9644 466.715C35.098 466.792 35.2318 466.868 35.367 466.942C35.502 467.016 35.6361 467.092 35.7726 467.163L35.9767 467.272C36.0448 467.309 36.1124 467.346 36.1839 467.376C36.4692 467.501 36.7981 467.557 37.1828 467.524C37.3759 467.507 37.5813 467.471 37.809 467.399C37.866 467.381 37.9219 467.365 37.9825 467.341L38.0716 467.308L38.1645 467.27C38.2883 467.218 38.4208 467.153 38.5644 467.07C38.5782 466.905 38.5809 466.757 38.5749 466.623Z" fill="url(#paint23_linear_1007_7588)"/>
<path opacity="0.8" d="M14.5168 460.359L20.9712 464.458C21.5012 464.794 22.2035 464.638 22.54 464.108L22.8584 463.606C23.1753 463.107 23.0546 462.455 22.597 462.1L15.9593 457.885C15.4431 457.622 14.8019 457.79 14.485 458.289L14.1666 458.79C13.83 459.32 13.9869 460.023 14.5168 460.359Z" fill="url(#paint24_linear_1007_7588)"/>
<g filter="url(#filter5_d_1007_7588)">
<rect x="214.476" y="19.457" width="55.4503" height="55.4503" rx="19.4562" fill="#1B443C" shape-rendering="crispEdges"/>
<rect x="214.476" y="19.457" width="55.4503" height="55.4503" rx="19.4562" fill="black" fill-opacity="0.2" shape-rendering="crispEdges"/>
<rect x="214.476" y="19.457" width="55.4503" height="55.4503" rx="19.4562" fill="black" fill-opacity="0.2" shape-rendering="crispEdges"/>
<rect x="214.476" y="19.457" width="55.4503" height="55.4503" rx="19.4562" fill="black" fill-opacity="0.2" shape-rendering="crispEdges"/>
<rect x="214.476" y="19.457" width="55.4503" height="55.4503" rx="19.4562" fill="black" fill-opacity="0.2" shape-rendering="crispEdges"/>
<rect x="214.963" y="19.9434" width="54.4775" height="54.4775" rx="18.9698" stroke="url(#paint25_linear_1007_7588)" stroke-width="0.972812" shape-rendering="crispEdges"/>
<path fill-rule="evenodd" clip-rule="evenodd" d="M238.678 35.8691C240.246 33.1307 244.195 33.1329 245.761 35.8712L256.538 54.7155C258.095 57.4365 256.128 60.8221 252.996 60.8221H231.425C228.29 60.8221 226.327 57.4343 227.883 54.714L238.678 35.8691ZM244.042 36.854C243.236 35.444 241.203 35.4432 240.396 36.853L229.601 55.697C228.8 57.098 229.811 58.8424 231.425 58.8424H252.996C254.609 58.8424 255.621 57.0988 254.82 55.6985L244.042 36.854ZM242.206 43.662C242.753 43.662 243.196 44.1052 243.196 44.6519V49.3011C243.196 49.8478 242.753 50.291 242.206 50.291C241.659 50.291 241.216 49.8478 241.216 49.3011V44.6519C241.216 44.1052 241.659 43.662 242.206 43.662ZM242.195 52.9376C241.648 52.9376 241.205 53.3808 241.205 53.9274C241.205 54.4741 241.648 54.9173 242.195 54.9173H242.21C242.757 54.9173 243.2 54.4741 243.2 53.9274C243.2 53.3808 242.757 52.9376 242.21 52.9376H242.195Z" fill="url(#paint26_linear_1007_7588)"/>
</g>
<rect x="405.716" y="111.389" width="57.3959" height="55.4503" rx="18.9698" fill="#1B443C"/>
<rect x="405.716" y="111.389" width="57.3959" height="55.4503" rx="18.9698" fill="black" fill-opacity="0.2"/>
<rect x="405.716" y="111.389" width="57.3959" height="55.4503" rx="18.9698" fill="black" fill-opacity="0.2"/>
<rect x="405.716" y="111.389" width="57.3959" height="55.4503" rx="18.9698" fill="black" fill-opacity="0.2"/>
<rect x="405.716" y="111.389" width="57.3959" height="55.4503" rx="18.9698" fill="black" fill-opacity="0.2"/>
<rect x="405.716" y="111.389" width="57.3959" height="55.4503" rx="18.9698" stroke="url(#paint27_linear_1007_7588)" stroke-width="0.972812"/>
<g opacity="0.8">
<path fill-rule="evenodd" clip-rule="evenodd" d="M435.575 130.839C435.575 127.672 438.142 125.105 441.308 125.105C444.475 125.105 447.041 127.672 447.041 130.839C447.041 132.093 446.638 133.254 445.954 134.198L447.464 135.708C447.819 136.063 447.819 136.639 447.464 136.994C447.109 137.35 446.533 137.35 446.178 136.994L444.668 135.485C443.724 136.169 442.563 136.572 441.308 136.572C438.142 136.572 435.575 134.005 435.575 130.839ZM422.924 133.595C422.924 130.291 425.602 127.614 428.905 127.614H433.039C433.542 127.614 433.949 127.206 433.949 126.704C433.949 126.202 433.542 125.794 433.039 125.794H428.905C424.597 125.794 421.105 129.287 421.105 133.595V144.62C421.105 148.928 424.597 152.42 428.905 152.42H439.93C444.238 152.42 447.73 148.928 447.73 144.62V141.864C447.73 141.361 447.323 140.954 446.821 140.954C446.319 140.954 445.911 141.361 445.911 141.864V144.62C445.911 147.923 443.233 150.601 439.93 150.601H428.905C425.602 150.601 422.924 147.923 422.924 144.62V133.595ZM440.84 141.864C440.84 141.362 440.433 140.954 439.93 140.954C439.428 140.954 439.021 141.362 439.021 141.864V144.62C439.021 145.122 439.428 145.53 439.93 145.53C440.433 145.53 440.84 145.122 440.84 144.62V141.864ZM434.418 137.509C434.92 137.509 435.327 137.916 435.327 138.418V144.62C435.327 145.122 434.92 145.53 434.418 145.53C433.915 145.53 433.508 145.122 433.508 144.62V138.418C433.508 137.916 433.915 137.509 434.418 137.509ZM429.815 140.486C429.815 139.983 429.407 139.576 428.905 139.576C428.403 139.576 427.996 139.983 427.996 140.486V144.62C427.996 145.122 428.403 145.53 428.905 145.53C429.407 145.53 429.815 145.122 429.815 144.62V140.486Z" fill="url(#paint28_linear_1007_7588)"/>
</g>
<rect x="122.545" y="143.49" width="52.5319" height="52.5319" rx="18.9698" fill="#1B443C"/>
<rect x="122.545" y="143.49" width="52.5319" height="52.5319" rx="18.9698" fill="black" fill-opacity="0.2"/>
<rect x="122.545" y="143.49" width="52.5319" height="52.5319" rx="18.9698" fill="black" fill-opacity="0.2"/>
<rect x="122.545" y="143.49" width="52.5319" height="52.5319" rx="18.9698" fill="black" fill-opacity="0.2"/>
<rect x="122.545" y="143.49" width="52.5319" height="52.5319" rx="18.9698" fill="black" fill-opacity="0.2"/>
<rect x="122.545" y="143.49" width="52.5319" height="52.5319" rx="18.9698" stroke="url(#paint29_linear_1007_7588)" stroke-width="0.972812"/>
<g opacity="0.8">
<path fill-rule="evenodd" clip-rule="evenodd" d="M140.298 156.047C137.431 156.047 135.106 158.372 135.106 161.239V165.495V178.263C135.106 181.131 137.431 183.456 140.298 183.456H145.973C146.49 183.456 146.909 183.037 146.909 182.52C146.909 182.002 146.49 181.583 145.973 181.583H140.298C138.465 181.583 136.979 180.097 136.979 178.263V166.431H160.642V168.333C160.642 168.85 161.061 169.269 161.579 169.269C162.096 169.269 162.515 168.85 162.515 168.333V165.495V161.239C162.515 158.372 160.19 156.047 157.323 156.047H140.298ZM151.165 175.071C151.165 173.826 152.175 172.816 153.421 172.816H158.386C159.632 172.816 160.642 173.826 160.642 175.071V177.055C160.642 179.576 158.864 181.746 156.394 182.243L156.387 182.245C156.068 182.308 155.739 182.309 155.419 182.245C152.945 181.75 151.165 179.578 151.165 177.055V175.071ZM149.292 177.055C149.292 180.471 151.703 183.411 155.052 184.081C155.611 184.193 156.187 184.193 156.747 184.082L156.755 184.081C160.104 183.411 162.514 180.47 162.514 177.055V175.071C162.514 172.791 160.666 170.943 158.386 170.943H153.421C151.141 170.943 149.292 172.791 149.292 175.071V177.055ZM158.339 176.798C158.705 176.432 158.705 175.839 158.339 175.473C157.974 175.108 157.381 175.108 157.015 175.473L155.549 176.939L154.793 176.183C154.427 175.817 153.834 175.817 153.468 176.183C153.103 176.548 153.103 177.141 153.468 177.507L154.887 178.926C155.253 179.291 155.846 179.291 156.211 178.926L158.339 176.798ZM139.636 160.569C140.002 160.203 140.594 160.203 140.96 160.569L140.967 160.576C141.333 160.942 141.333 161.534 140.967 161.9L140.96 161.907C140.594 162.273 140.002 162.273 139.636 161.907L139.629 161.9C139.263 161.534 139.263 160.942 139.629 160.576L139.636 160.569ZM144.508 160.569C144.142 160.203 143.549 160.203 143.184 160.569L143.177 160.576C142.811 160.942 142.811 161.534 143.177 161.9L143.184 161.907C143.549 162.273 144.142 162.273 144.508 161.907L144.515 161.9C144.881 161.534 144.881 160.942 144.515 160.576L144.508 160.569ZM148.054 160.569C147.688 160.203 147.096 160.203 146.73 160.569L146.723 160.576C146.357 160.942 146.357 161.534 146.723 161.9L146.73 161.907C147.096 162.273 147.688 162.273 148.054 161.907L148.061 161.9C148.427 161.534 148.427 160.942 148.061 160.576L148.054 160.569Z" fill="url(#paint30_linear_1007_7588)"/>
</g>
<defs>
<filter id="filter0_d_1007_7588" x="337.178" y="160.832" width="50.0009" height="50.0008" filterUnits="userSpaceOnUse" color-interpolation-filters="sRGB">
<feFlood flood-opacity="0" result="BackgroundImageFix"/>
<feColorMatrix in="SourceAlpha" type="matrix" values="0 0 0 0 0 0 0 0 0 0 0 0 0 0 0 0 0 0 127 0" result="hardAlpha"/>
<feMorphology radius="1.94562" operator="dilate" in="SourceAlpha" result="effect1_dropShadow_1007_7588"/>
<feOffset dy="0.972812"/>
<feGaussianBlur stdDeviation="7.58794"/>
<feComposite in2="hardAlpha" operator="out"/>
<feColorMatrix type="matrix" values="0 0 0 0 0.429123 0 0 0 0 0.316478 0 0 0 0 0.171649 0 0 0 1 0"/>
<feBlend mode="normal" in2="BackgroundImageFix" result="effect1_dropShadow_1007_7588"/>
<feBlend mode="normal" in="SourceGraphic" in2="effect1_dropShadow_1007_7588" result="shape"/>
</filter>
<filter id="filter1_d_1007_7588" x="147.239" y="315.582" width="50.0009" height="50.0008" filterUnits="userSpaceOnUse" color-interpolation-filters="sRGB">
<feFlood flood-opacity="0" result="BackgroundImageFix"/>
<feColorMatrix in="SourceAlpha" type="matrix" values="0 0 0 0 0 0 0 0 0 0 0 0 0 0 0 0 0 0 127 0" result="hardAlpha"/>
<feMorphology radius="1.94562" operator="dilate" in="SourceAlpha" result="effect1_dropShadow_1007_7588"/>
<feOffset dy="0.972812"/>
<feGaussianBlur stdDeviation="7.58794"/>
<feComposite in2="hardAlpha" operator="out"/>
<feColorMatrix type="matrix" values="0 0 0 0 0.429123 0 0 0 0 0.316478 0 0 0 0 0.171649 0 0 0 1 0"/>
<feBlend mode="normal" in2="BackgroundImageFix" result="effect1_dropShadow_1007_7588"/>
<feBlend mode="normal" in="SourceGraphic" in2="effect1_dropShadow_1007_7588" result="shape"/>
</filter>
<filter id="filter2_d_1007_7588" x="210.476" y="128.797" width="50.0009" height="50.0008" filterUnits="userSpaceOnUse" color-interpolation-filters="sRGB">
<feFlood flood-opacity="0" result="BackgroundImageFix"/>
<feColorMatrix in="SourceAlpha" type="matrix" values="0 0 0 0 0 0 0 0 0 0 0 0 0 0 0 0 0 0 127 0" result="hardAlpha"/>
<feMorphology radius="1.94562" operator="dilate" in="SourceAlpha" result="effect1_dropShadow_1007_7588"/>
<feOffset dy="0.972812"/>
<feGaussianBlur stdDeviation="7.58794"/>
<feComposite in2="hardAlpha" operator="out"/>
<feColorMatrix type="matrix" values="0 0 0 0 0.429123 0 0 0 0 0.316478 0 0 0 0 0.171649 0 0 0 1 0"/>
<feBlend mode="normal" in2="BackgroundImageFix" result="effect1_dropShadow_1007_7588"/>
<feBlend mode="normal" in="SourceGraphic" in2="effect1_dropShadow_1007_7588" result="shape"/>
</filter>
<filter id="filter3_d_1007_7588" x="409.306" y="23.613" width="50.0009" height="50.0008" filterUnits="userSpaceOnUse" color-interpolation-filters="sRGB">
<feFlood flood-opacity="0" result="BackgroundImageFix"/>
<feColorMatrix in="SourceAlpha" type="matrix" values="0 0 0 0 0 0 0 0 0 0 0 0 0 0 0 0 0 0 127 0" result="hardAlpha"/>
<feMorphology radius="1.94562" operator="dilate" in="SourceAlpha" result="effect1_dropShadow_1007_7588"/>
<feOffset dy="0.972812"/>
<feGaussianBlur stdDeviation="7.58794"/>
<feComposite in2="hardAlpha" operator="out"/>
<feColorMatrix type="matrix" values="0 0 0 0 0.429123 0 0 0 0 0.316478 0 0 0 0 0.171649 0 0 0 1 0"/>
<feBlend mode="normal" in2="BackgroundImageFix" result="effect1_dropShadow_1007_7588"/>
<feBlend mode="normal" in="SourceGraphic" in2="effect1_dropShadow_1007_7588" result="shape"/>
</filter>
<filter id="filter4_d_1007_7588" x="198.802" y="471.23" width="50.0009" height="50.0008" filterUnits="userSpaceOnUse" color-interpolation-filters="sRGB">
<feFlood flood-opacity="0" result="BackgroundImageFix"/>
<feColorMatrix in="SourceAlpha" type="matrix" values="0 0 0 0 0 0 0 0 0 0 0 0 0 0 0 0 0 0 127 0" result="hardAlpha"/>
<feMorphology radius="1.94562" operator="dilate" in="SourceAlpha" result="effect1_dropShadow_1007_7588"/>
<feOffset dy="0.972812"/>
<feGaussianBlur stdDeviation="7.58794"/>
<feComposite in2="hardAlpha" operator="out"/>
<feColorMatrix type="matrix" values="0 0 0 0 0.429123 0 0 0 0 0.316478 0 0 0 0 0.171649 0 0 0 1 0"/>
<feBlend mode="normal" in2="BackgroundImageFix" result="effect1_dropShadow_1007_7588"/>
<feBlend mode="normal" in="SourceGraphic" in2="effect1_dropShadow_1007_7588" result="shape"/>
</filter>
<filter id="filter5_d_1007_7588" x="210.585" y="19.457" width="63.2328" height="63.2317" filterUnits="userSpaceOnUse" color-interpolation-filters="sRGB">
<feFlood flood-opacity="0" result="BackgroundImageFix"/>
<feColorMatrix in="SourceAlpha" type="matrix" values="0 0 0 0 0 0 0 0 0 0 0 0 0 0 0 0 0 0 127 0" result="hardAlpha"/>
<feOffset dy="3.89125"/>
<feGaussianBlur stdDeviation="1.94562"/>
<feComposite in2="hardAlpha" operator="out"/>
<feColorMatrix type="matrix" values="0 0 0 0 0 0 0 0 0 0 0 0 0 0 0 0 0 0 0.25 0"/>
<feBlend mode="normal" in2="BackgroundImageFix" result="effect1_dropShadow_1007_7588"/>
<feBlend mode="normal" in="SourceGraphic" in2="effect1_dropShadow_1007_7588" result="shape"/>
</filter>
<linearGradient id="paint0_linear_1007_7588" x1="505.205" y1="310.565" x2="652.909" y2="317.237" gradientUnits="userSpaceOnUse">
<stop offset="1" stop-color="#202C1E"/>
<stop offset="1" stop-color="#F5B162"/>
</linearGradient>
<linearGradient id="paint1_linear_1007_7588" x1="405.619" y1="398.854" x2="398.355" y2="667.643" gradientUnits="userSpaceOnUse">
<stop stop-color="#1F2B1E"/>
<stop offset="1" stop-color="#F5B162"/>
</linearGradient>
<linearGradient id="paint2_linear_1007_7588" x1="416.6" y1="565.518" x2="453.388" y2="565.223" gradientUnits="userSpaceOnUse">
<stop stop-color="#DB8016"/>
<stop offset="1" stop-color="#DBAC16"/>
</linearGradient>
<linearGradient id="paint3_linear_1007_7588" x1="422.532" y1="542.334" x2="447.061" y2="551.285" gradientUnits="userSpaceOnUse">
<stop stop-color="#DB8016"/>
<stop offset="1" stop-color="#DBAC16"/>
</linearGradient>
<linearGradient id="paint4_linear_1007_7588" x1="171.941" y1="603.944" x2="208.73" y2="603.649" gradientUnits="userSpaceOnUse">
<stop stop-color="#DB8016"/>
<stop offset="1" stop-color="#DBAC16"/>
</linearGradient>
<linearGradient id="paint5_linear_1007_7588" x1="178.419" y1="581.139" x2="202.948" y2="590.09" gradientUnits="userSpaceOnUse">
<stop stop-color="#DB8016"/>
<stop offset="1" stop-color="#DBAC16"/>
</linearGradient>
<linearGradient id="paint6_linear_1007_7588" x1="183.325" y1="589.226" x2="201.048" y2="594.87" gradientUnits="userSpaceOnUse">
<stop stop-color="#DB8016"/>
<stop offset="1" stop-color="#DBAC16"/>
</linearGradient>
<linearGradient id="paint7_linear_1007_7588" x1="-81.0779" y1="432.348" x2="395.707" y2="350.201" gradientUnits="userSpaceOnUse">
<stop stop-color="#F5B162"/>
<stop offset="1" stop-color="#12231A"/>
</linearGradient>
<linearGradient id="paint8_linear_1007_7588" x1="202.84" y1="392.884" x2="247.87" y2="392.326" gradientUnits="userSpaceOnUse">
<stop stop-color="#C39252"/>
<stop offset="1" stop-color="#1E2A1D"/>
</linearGradient>
<linearGradient id="paint9_linear_1007_7588" x1="153.378" y1="245.937" x2="356.223" y2="255.76" gradientUnits="userSpaceOnUse">
<stop stop-color="#C29152"/>
<stop offset="1" stop-color="#222D1F"/>
</linearGradient>
<linearGradient id="paint10_linear_1007_7588" x1="319.252" y1="19.552" x2="319.252" y2="287.689" gradientUnits="userSpaceOnUse">
<stop stop-color="#D4C15A"/>
<stop offset="1" stop-color="#08120C"/>
</linearGradient>
<linearGradient id="paint11_linear_1007_7588" x1="400.525" y1="204.297" x2="400.525" y2="276.285" gradientUnits="userSpaceOnUse">
<stop stop-color="#A07C47"/>
<stop offset="0.67" stop-color="#242714"/>
</linearGradient>
<linearGradient id="paint12_linear_1007_7588" x1="326.524" y1="306.418" x2="353.375" y2="337.523" gradientUnits="userSpaceOnUse">
<stop stop-color="#A27D47"/>
<stop offset="0.67" stop-color="#1F2B1E"/>
</linearGradient>
<linearGradient id="paint13_linear_1007_7588" x1="162.933" y1="340.992" x2="332.859" y2="330.04" gradientUnits="userSpaceOnUse">
<stop stop-color="#C39252"/>
<stop offset="1" stop-color="#242E1F"/>
</linearGradient>
<linearGradient id="paint14_linear_1007_7588" x1="434.527" y1="247.259" x2="435.179" y2="247.259" gradientUnits="userSpaceOnUse">
<stop stop-color="#DB8016"/>
<stop offset="1" stop-color="#DBAC16"/>
</linearGradient>
<linearGradient id="paint15_linear_1007_7588" x1="327.379" y1="439.15" x2="392.209" y2="435.119" gradientUnits="userSpaceOnUse">
<stop stop-color="#A37D48"/>
<stop offset="1" stop-color="#1F2B1E"/>
</linearGradient>
<linearGradient id="paint16_linear_1007_7588" x1="350.413" y1="248.551" x2="350.413" y2="297.191" gradientUnits="userSpaceOnUse">
<stop stop-color="#A07C47"/>
<stop offset="0.67" stop-color="#242714"/>
</linearGradient>
<linearGradient id="paint17_linear_1007_7588" x1="396.549" y1="367.961" x2="478.743" y2="367.301" gradientUnits="userSpaceOnUse">
<stop stop-color="#DB8016"/>
<stop offset="1" stop-color="#DBAC16"/>
</linearGradient>
<linearGradient id="paint18_linear_1007_7588" x1="92.9497" y1="303.6" x2="127.835" y2="303.32" gradientUnits="userSpaceOnUse">
<stop stop-color="#DB8016"/>
<stop offset="1" stop-color="#DBAC16"/>
</linearGradient>
<linearGradient id="paint19_linear_1007_7588" x1="95.8785" y1="278.668" x2="124.537" y2="285.623" gradientUnits="userSpaceOnUse">
<stop stop-color="#DB8016"/>
<stop offset="1" stop-color="#DBAC16"/>
</linearGradient>
<linearGradient id="paint20_linear_1007_7588" x1="10.9864" y1="469.951" x2="41.8652" y2="469.674" gradientUnits="userSpaceOnUse">
<stop stop-color="#DB8016"/>
<stop offset="1" stop-color="#DBAC16"/>
</linearGradient>
<linearGradient id="paint21_linear_1007_7588" x1="10.7128" y1="467.56" x2="19.3467" y2="475.026" gradientUnits="userSpaceOnUse">
<stop stop-color="#DB8016"/>
<stop offset="1" stop-color="#DBAC16"/>
</linearGradient>
<linearGradient id="paint22_linear_1007_7588" x1="20.2233" y1="448.539" x2="29.9284" y2="451.762" gradientUnits="userSpaceOnUse">
<stop stop-color="#DB8016"/>
<stop offset="1" stop-color="#DBAC16"/>
</linearGradient>
<linearGradient id="paint23_linear_1007_7588" x1="16.6435" y1="452.78" x2="40.0508" y2="460.877" gradientUnits="userSpaceOnUse">
<stop stop-color="#DB8016"/>
<stop offset="1" stop-color="#DBAC16"/>
</linearGradient>
<linearGradient id="paint24_linear_1007_7588" x1="14.0174" y1="458.317" x2="23.7225" y2="461.54" gradientUnits="userSpaceOnUse">
<stop stop-color="#DB8016"/>
<stop offset="1" stop-color="#DBAC16"/>
</linearGradient>
<linearGradient id="paint25_linear_1007_7588" x1="226.232" y1="60.8777" x2="262.386" y2="60.5876" gradientUnits="userSpaceOnUse">
<stop stop-color="#DB8016"/>
<stop offset="1" stop-color="#DBAC16"/>
</linearGradient>
<linearGradient id="paint26_linear_1007_7588" x1="233.203" y1="37.7308" x2="260.445" y2="46.4047" gradientUnits="userSpaceOnUse">
<stop stop-color="#DB8016"/>
<stop offset="1" stop-color="#DBAC16"/>
</linearGradient>
<linearGradient id="paint27_linear_1007_7588" x1="417.604" y1="153.05" x2="455.661" y2="152.734" gradientUnits="userSpaceOnUse">
<stop stop-color="#DB8016"/>
<stop offset="1" stop-color="#DBAC16"/>
</linearGradient>
<linearGradient id="paint28_linear_1007_7588" x1="422.974" y1="128.358" x2="451.085" y2="135.836" gradientUnits="userSpaceOnUse">
<stop stop-color="#DB8016"/>
<stop offset="1" stop-color="#DBAC16"/>
</linearGradient>
<linearGradient id="paint29_linear_1007_7588" x1="133.402" y1="182.971" x2="168.287" y2="182.691" gradientUnits="userSpaceOnUse">
<stop stop-color="#DB8016"/>
<stop offset="1" stop-color="#DBAC16"/>
</linearGradient>
<linearGradient id="paint30_linear_1007_7588" x1="136.323" y1="158.26" x2="166.28" y2="166.589" gradientUnits="userSpaceOnUse">
<stop stop-color="#DB8016"/>
<stop offset="1" stop-color="#DBAC16"/>
</linearGradient>
</defs>
</svg>
