<svg width="41" height="40" viewBox="0 0 41 40" fill="none" xmlns="http://www.w3.org/2000/svg">
<path fill-rule="evenodd" clip-rule="evenodd" d="M13.8198 27.6035C14.1609 27.6035 14.5021 27.6467 14.8358 27.7361C15.8429 28.0072 16.7173 28.6806 17.2358 29.5849C17.5725 30.1525 17.7587 30.8154 17.7646 31.4918C17.7646 32.4601 18.5423 33.2363 19.4987 33.2363H21.3654C22.3174 33.2363 23.095 32.4646 23.0995 31.5126C23.0935 30.4608 23.5047 29.4612 24.257 28.7089C24.9989 27.967 26.0358 27.5215 27.0727 27.5513C27.752 27.5677 28.406 27.751 28.9825 28.0787C29.8123 28.5539 30.8716 28.2709 31.3513 27.4515L32.3405 25.8024C32.561 25.4225 32.625 24.9457 32.5073 24.5063C32.3911 24.0668 32.0991 23.6854 31.7058 23.4605C30.7852 22.9301 30.1282 22.075 29.8555 21.05C29.5859 20.0444 29.7334 18.9465 30.2593 18.0422C30.6019 17.4463 31.104 16.9442 31.7058 16.5986C32.5133 16.1264 32.7963 15.0701 32.3271 14.2478C32.3077 14.215 32.2898 14.1807 32.2749 14.145L31.4019 12.6314C30.9267 11.8046 29.869 11.52 29.0392 11.9923C28.1423 12.5226 27.0757 12.6746 26.0507 12.4049C25.0272 12.1398 24.1691 11.4917 23.6343 10.577C23.2917 10.0049 23.1054 9.339 23.0995 8.66116C23.1129 8.15166 22.9341 7.69431 22.6093 7.35911C22.2861 7.0254 21.8317 6.8362 21.3654 6.8362H19.4987C19.0369 6.8362 18.6049 7.01647 18.2786 7.34123C17.9538 7.66749 17.7766 8.10101 17.7795 8.56284C17.7483 10.7409 15.968 12.4943 13.8123 12.4943C13.1211 12.4869 12.4551 12.3006 11.8771 11.955C11.0652 11.4932 10.0045 11.7777 9.52925 12.6046L8.52068 14.2627C8.05885 15.0642 8.34191 16.1234 9.16425 16.6016C10.3844 17.3077 11.1456 18.6247 11.1456 20.037C11.1456 21.4493 10.3844 22.7647 9.16128 23.4724C8.3434 23.9461 8.06034 24.9994 8.53409 25.8187L9.47413 27.4396C9.70653 27.8582 10.0864 28.1606 10.5259 28.2843C10.9639 28.4065 11.4466 28.3543 11.8488 28.1309C12.4402 27.7837 13.1285 27.6035 13.8198 27.6035ZM21.3657 35.4709H19.499C17.3105 35.4709 15.5303 33.6921 15.5303 31.5037C15.5273 31.234 15.4498 30.954 15.3053 30.7111C15.0714 30.3029 14.693 30.0109 14.2565 29.8947C13.823 29.7785 13.3478 29.8426 12.9575 30.069C12.0219 30.5905 10.921 30.7171 9.91388 30.434C8.9083 30.1495 8.03976 29.4582 7.53027 28.542L6.59917 26.9376C5.51015 25.0485 6.1582 22.6277 8.04423 21.5372C8.57906 21.2288 8.91128 20.6537 8.91128 20.037C8.91128 19.4202 8.57906 18.8437 8.04423 18.5353C6.15671 17.4388 5.51015 15.012 6.59768 13.123L7.60773 11.4649C8.68185 9.59673 11.1102 8.93826 13.0036 10.0258C13.2614 10.1792 13.5415 10.2567 13.826 10.2597C14.7541 10.2597 15.5303 9.49394 15.5452 8.55241C15.5392 7.51405 15.9489 6.5174 16.6953 5.76507C17.4446 5.01423 18.4398 4.60156 19.499 4.60156H21.3657C22.4323 4.60156 23.4692 5.03955 24.2126 5.80082C24.9545 6.56656 25.3642 7.61684 25.3329 8.68202C25.3359 8.92187 25.4148 9.19897 25.5579 9.4418C25.7947 9.84403 26.1687 10.1271 26.6126 10.2433C27.0566 10.3535 27.5214 10.2939 27.9162 10.06C29.8231 8.97103 32.2499 9.62355 33.3389 11.5155L34.267 13.123C34.2908 13.1662 34.3117 13.2079 34.3296 13.2511C35.3158 15.1148 34.6573 17.4612 32.8249 18.5323C32.5583 18.6858 32.3422 18.9003 32.1933 19.1595C31.9623 19.5603 31.8983 20.037 32.0145 20.475C32.1337 20.9219 32.4182 21.2929 32.819 21.5223C33.7232 22.0422 34.3981 22.9182 34.6678 23.9297C34.9374 24.9398 34.7899 26.0362 34.264 26.9405L33.2748 28.5882C32.1858 30.4594 29.759 31.1074 27.8715 30.0169C27.6197 29.8724 27.3292 29.7934 27.0402 29.786H27.0312C26.6007 29.786 26.1582 29.9692 25.8365 30.2895C25.5102 30.6158 25.3314 31.0508 25.3344 31.5126C25.324 33.7011 23.5437 35.4709 21.3657 35.4709ZM20.3488 13.0718C16.5602 13.1189 13.5034 16.2048 13.5034 20.0046C13.5034 23.8338 16.6076 26.938 20.4368 26.938C24.2659 26.938 27.3701 23.8338 27.3701 20.0046C27.3701 16.2049 24.3135 13.1191 20.5251 13.0718C21.0914 13.1168 21.5369 13.5905 21.5369 14.1684V19.4362L25.8105 22.4909C26.3047 22.8441 26.419 23.5312 26.0657 24.0254C25.7124 24.5197 25.0254 24.6339 24.5312 24.2807L20.437 21.3542L16.3428 24.2807C15.8485 24.6339 15.1615 24.5197 14.8082 24.0254C14.4549 23.5312 14.5692 22.8441 15.0635 22.4909L19.3369 19.4362V14.1684C19.3369 13.5905 19.7825 13.1167 20.3488 13.0718Z" fill="url(#paint0_linear_3001_6004)"/>
<defs>
<linearGradient id="paint0_linear_3001_6004" x1="9.5" y1="10.0015" x2="36.0413" y2="19.6872" gradientUnits="userSpaceOnUse">
<stop stop-color="#DB8016"/>
<stop offset="1" stop-color="#DBAC16"/>
</linearGradient>
</defs>
</svg>
