<svg width="375" height="247" viewBox="0 0 375 247" fill="none" xmlns="http://www.w3.org/2000/svg">
<g clip-path="url(#clip0_720_20273)">
<rect width="375" height="247" fill="#1E1E1E"/>
<g opacity="0.02" clip-path="url(#clip1_720_20273)">
<path d="M334.09 36.5945C331.875 36.5945 330.07 34.7936 330.07 32.5824C330.07 30.3712 331.875 28.5703 334.09 28.5703C336.306 28.5703 338.11 30.369 338.11 32.5824C338.11 34.7958 336.306 36.5945 334.09 36.5945ZM334.09 31.133C333.29 31.133 332.638 31.7835 332.638 32.5824C332.638 33.3813 333.29 34.0318 334.09 34.0318C334.891 34.0318 335.543 33.3813 335.543 32.5824C335.543 31.7835 334.891 31.133 334.09 31.133Z" fill="white"/>
<path d="M333.465 14.407C331.25 14.407 329.445 12.6061 329.445 10.3949C329.445 8.18366 331.248 6.38281 333.465 6.38281C335.683 6.38281 337.485 8.18366 337.485 10.3949C337.485 12.6061 335.681 14.407 333.465 14.407ZM333.465 8.94548C332.665 8.94548 332.013 9.59597 332.013 10.3949C332.013 11.1938 332.665 11.8443 333.465 11.8443C334.266 11.8443 334.918 11.1938 334.918 10.3949C334.918 9.59597 334.266 8.94548 333.465 8.94548Z" fill="white"/>
<path d="M388.014 25.6261C388.259 25.3816 388.395 25.0498 388.39 24.7049L388.305 17.15V-29.6875H357.584L350.119 -10.8429H369.416L369.362 9.11277H359.051L353.364 3.43734C353.66 2.88071 353.828 2.2455 353.828 1.57318C353.828 -0.638052 352.026 -2.43891 349.808 -2.43891C347.59 -2.43891 345.788 -0.638052 345.788 1.57318C345.788 3.78442 347.592 5.58527 349.808 5.58527C350.414 5.58527 350.989 5.44556 351.505 5.20545L355.42 9.11277H336.422V11.6754H350.309L347.225 14.917C346.685 14.6485 346.079 14.4913 345.436 14.4913C343.22 14.4913 341.416 16.29 341.416 18.5034C341.416 20.7168 343.218 22.5155 345.436 22.5155C347.654 22.5155 349.456 20.7146 349.456 18.5034C349.456 17.8682 349.303 17.2679 349.038 16.7331L353.85 11.6733H369.357L369.344 16.5301L361.984 23.8078L341.204 23.6506L334.684 29.6578L336.425 31.5416L342.199 26.222L352.247 26.2984L351.274 27.1912C350.738 26.9271 350.141 26.7764 349.504 26.7764C347.288 26.7764 345.484 28.5773 345.484 30.7885C345.484 32.9998 347.286 34.8006 349.504 34.8006C351.722 34.8006 353.524 33.0019 353.524 30.7885C353.524 30.1446 353.369 29.5399 353.098 28.9986L356.011 26.3246L363.034 26.377L371.91 17.5997L371.997 -13.4099H353.9L359.336 -27.1292H385.744V17.1588C385.744 17.1588 385.744 17.1675 385.744 17.1719L385.823 24.1876L377.699 32.2947C377.682 32.3122 377.671 32.3318 377.656 32.3493L367.828 42.2965L351.523 42.4428L348.64 45.0906C347.997 44.6562 347.223 44.4008 346.389 44.4008C344.174 44.4008 342.369 46.2017 342.369 48.4129C342.369 50.6241 344.174 52.425 346.389 52.425C348.605 52.425 350.41 50.6263 350.41 48.4129C350.41 47.9676 350.333 47.5419 350.2 47.1403L352.536 44.9946L358.767 44.94L357.942 45.8262C357.621 45.7433 357.284 45.6931 356.936 45.6931C354.721 45.6931 352.916 47.4939 352.916 49.7052C352.916 51.9164 354.718 53.7172 356.936 53.7172C359.154 53.7172 360.956 51.9186 360.956 49.7052C360.956 48.784 360.639 47.937 360.114 47.2582L362.304 44.9072L368.913 44.8483L377.338 36.3177L377.33 42.6109L369.066 50.8555C368.544 50.6067 367.96 50.4626 367.343 50.4626C365.127 50.4626 363.323 52.2635 363.323 54.4747C363.323 56.6859 365.125 58.4868 367.343 58.4868C369.561 58.4868 371.363 56.6859 371.363 54.4747C371.363 53.8133 371.199 53.189 370.912 52.6367L377.323 46.241L377.308 56.531C375.75 57.0832 374.628 58.5654 374.628 60.3073C374.628 62.5185 376.433 64.3194 378.648 64.3194C380.864 64.3194 382.669 62.5207 382.669 60.3073C382.669 58.5217 381.494 57.0068 379.876 56.4873L379.911 33.707L388.021 25.613L388.014 25.6261ZM348.354 1.57755C348.354 0.77862 349.005 0.128132 349.806 0.128132C350.606 0.128132 351.258 0.77862 351.258 1.57755C351.258 2.37647 350.606 3.02697 349.806 3.02697C349.005 3.02697 348.354 2.37647 348.354 1.57755ZM345.431 19.9572C344.631 19.9572 343.979 19.3067 343.979 18.5078C343.979 17.7089 344.631 17.0584 345.431 17.0584C346.232 17.0584 346.884 17.7089 346.884 18.5078C346.884 19.3067 346.232 19.9572 345.431 19.9572ZM349.5 32.2423C348.699 32.2423 348.047 31.5918 348.047 30.7929C348.047 29.994 348.699 29.3435 349.5 29.3435C350.3 29.3435 350.952 29.994 350.952 30.7929C350.952 31.5918 350.3 32.2423 349.5 32.2423ZM346.383 49.8689C345.582 49.8689 344.931 49.2184 344.931 48.4195C344.931 47.6205 345.582 46.97 346.383 46.97C347.183 46.97 347.835 47.6205 347.835 48.4195C347.835 49.2184 347.183 49.8689 346.383 49.8689ZM356.927 51.1633C356.127 51.1633 355.475 50.5128 355.475 49.7139C355.475 48.915 356.127 48.2645 356.927 48.2645C357.728 48.2645 358.38 48.915 358.38 49.7139C358.38 50.5128 357.728 51.1633 356.927 51.1633ZM367.336 55.935C366.536 55.935 365.884 55.2845 365.884 54.4856C365.884 53.6867 366.536 53.0362 367.336 53.0362C368.137 53.0362 368.789 53.6867 368.789 54.4856C368.789 55.2845 368.137 55.935 367.336 55.935ZM378.642 61.7676C377.841 61.7676 377.19 61.1171 377.19 60.3182C377.19 59.5193 377.841 58.8688 378.642 58.8688C379.442 58.8688 380.094 59.5193 380.094 60.3182C380.094 61.1171 379.442 61.7676 378.642 61.7676Z" fill="white"/>
</g>
<g opacity="0.02" clip-path="url(#clip2_720_20273)">
<path d="M12.6376 11.5115H46.3971C47.1057 11.5115 47.6809 10.9374 47.6809 10.2302C47.6809 9.52291 47.1057 8.94882 46.3971 8.94882H27.7512L31.8391 4.5962C32.3246 4.07887 32.2984 3.26903 31.78 2.78443C31.2616 2.29984 30.4502 2.32603 29.9646 2.84337L24.2298 8.94882H12.6354C11.9268 8.94882 11.3516 9.52291 11.3516 10.2302C11.3516 10.9374 11.9268 11.5115 12.6354 11.5115H12.6376Z" fill="white"/>
<path d="M49.7411 32.954H24.9098L27.4973 30.3258L34.1201 29.6731C34.8266 29.6033 35.3427 28.9768 35.2728 28.2717C35.2028 27.5667 34.5794 27.0537 33.8686 27.1236L26.782 27.8221C26.4824 27.8526 26.2046 27.9858 25.9925 28.1997L21.3075 32.9562H11.7407C11.3754 32.9562 11.0276 33.1111 10.7849 33.3818L4.45948 40.4324C4.10953 40.4281 3.75958 40.5634 3.50368 40.8384C3.02249 41.358 3.05531 42.1678 3.57586 42.6502L12.7533 51.1153C12.9917 51.3336 13.3023 51.4559 13.6239 51.4559H23.5122L25.7191 53.8221C25.9728 54.0927 26.314 54.2303 26.6596 54.2303C26.9723 54.2303 27.2873 54.1167 27.5344 53.8875C28.0528 53.4051 28.0834 52.5953 27.6001 52.0758L25.0126 49.3014C24.7698 49.0416 24.4286 48.8932 24.0721 48.8932H21.1806L24.3433 45.4988C24.8267 44.9793 24.7961 44.1695 24.2777 43.6871C23.7571 43.2047 22.9457 43.2352 22.4623 43.7526L17.6745 48.891H14.1291L6.57231 41.919L12.3181 35.5145H34.2666L39.984 41.8469C40.2377 42.1285 40.5877 42.2704 40.9376 42.2704C41.2438 42.2704 41.5522 42.1613 41.7972 41.9408C42.3243 41.4671 42.3658 40.6573 41.8912 40.1312L37.7246 35.5166H49.7455C50.4541 35.5166 51.0293 34.9425 51.0293 34.2353C51.0293 33.5281 50.4541 32.954 49.7455 32.954H49.7411Z" fill="white"/>
<path d="M13.3464 18.5469C12.6377 18.5469 12.0625 19.121 12.0625 19.8282C12.0625 20.5355 12.6377 21.1095 13.3464 21.1095H31.1239C31.8326 21.1095 32.4078 20.5355 32.4078 19.8282C32.4078 19.121 31.8326 18.5469 31.1239 18.5469H13.3464Z" fill="white"/>
<path d="M13.5932 25.6261C13.8382 25.3816 13.9738 25.0498 13.9694 24.7049L13.8841 17.15V-29.6875H-16.8373L-24.3022 -10.8429H-5.00457L-5.05925 9.11277H-15.3697L-21.0564 3.43734C-20.7612 2.88071 -20.5927 2.2455 -20.5927 1.57318C-20.5927 -0.638052 -22.395 -2.43891 -24.6128 -2.43891C-26.8306 -2.43891 -28.6329 -0.638052 -28.6329 1.57318C-28.6329 3.78442 -26.8284 5.58527 -24.6128 5.58527C-24.007 5.58527 -23.4317 5.44556 -22.9156 5.20545L-19.0005 9.11277H-37.9985V11.6754H-24.1119L-27.1959 14.917C-27.7361 14.6485 -28.342 14.4913 -28.985 14.4913C-31.2007 14.4913 -33.0051 16.29 -33.0051 18.5034C-33.0051 20.7168 -31.2029 22.5155 -28.985 22.5155C-26.7672 22.5155 -24.965 20.7146 -24.965 18.5034C-24.965 17.8682 -25.1181 17.2679 -25.3827 16.7331L-20.5709 11.6733H-5.06363L-5.07675 16.5301L-12.4367 23.8078L-33.2173 23.6506L-39.7373 29.6578L-37.9963 31.5416L-32.2221 26.222L-22.1741 26.2984L-23.1474 27.1912C-23.6833 26.9271 -24.2804 26.7764 -24.9168 26.7764C-27.1325 26.7764 -28.9369 28.5773 -28.9369 30.7885C-28.9369 32.9998 -27.1347 34.8006 -24.9168 34.8006C-22.699 34.8006 -20.8968 33.0019 -20.8968 30.7885C-20.8968 30.1446 -21.0521 29.5399 -21.3233 28.9986L-18.4099 26.3246L-11.3868 26.377L-2.51116 17.5997L-2.42367 -13.4099H-20.5206L-15.0854 -27.1292H11.3229V17.1588C11.3229 17.1588 11.3229 17.1675 11.3229 17.1719L11.4016 24.1876L3.27835 32.2947C3.26085 32.3122 3.24993 32.3318 3.23462 32.3493L-6.59248 42.2965L-22.898 42.4428L-25.7808 45.0906C-26.4238 44.6562 -27.1981 44.4008 -28.0314 44.4008C-30.247 44.4008 -32.0515 46.2017 -32.0515 48.4129C-32.0515 50.6241 -30.247 52.425 -28.0314 52.425C-25.8158 52.425 -24.0113 50.6263 -24.0113 48.4129C-24.0113 47.9676 -24.0879 47.5419 -24.2213 47.1403L-21.8854 44.9946L-15.654 44.94L-16.4786 45.8262C-16.8001 45.7433 -17.137 45.6931 -17.4847 45.6931C-19.7004 45.6931 -21.5048 47.4939 -21.5048 49.7052C-21.5048 51.9164 -19.7026 53.7172 -17.4847 53.7172C-15.2669 53.7172 -13.4647 51.9186 -13.4647 49.7052C-13.4647 48.784 -13.7818 47.937 -14.3067 47.2582L-12.1173 44.9072L-5.50763 44.8483L2.91747 36.3177L2.90871 42.6109L-5.35452 50.8555C-5.87726 50.6067 -6.46125 50.4626 -7.07804 50.4626C-9.29367 50.4626 -11.0981 52.2635 -11.0981 54.4747C-11.0981 56.6859 -9.29586 58.4868 -7.07804 58.4868C-4.86021 58.4868 -3.05796 56.6859 -3.05796 54.4747C-3.05796 53.8133 -3.222 53.189 -3.50853 52.6367L2.90216 46.241L2.88684 56.531C1.32956 57.0832 0.207527 58.5654 0.207527 60.3073C0.207527 62.5185 2.01197 64.3194 4.2276 64.3194C6.44323 64.3194 8.24767 62.5207 8.24767 60.3073C8.24767 58.5217 7.07314 57.0068 5.45462 56.4873L5.48962 33.707L13.5997 25.613L13.5932 25.6261ZM-26.0673 1.57755C-26.0673 0.77862 -25.4155 0.128132 -24.615 0.128132C-23.8145 0.128132 -23.1627 0.77862 -23.1627 1.57755C-23.1627 2.37647 -23.8145 3.02697 -24.615 3.02697C-25.4155 3.02697 -26.0673 2.37647 -26.0673 1.57755ZM-28.9894 19.9572C-29.7899 19.9572 -30.4417 19.3067 -30.4417 18.5078C-30.4417 17.7089 -29.7899 17.0584 -28.9894 17.0584C-28.1889 17.0584 -27.5371 17.7089 -27.5371 18.5078C-27.5371 19.3067 -28.1889 19.9572 -28.9894 19.9572ZM-24.9212 32.2423C-25.7217 32.2423 -26.3735 31.5918 -26.3735 30.7929C-26.3735 29.994 -25.7217 29.3435 -24.9212 29.3435C-24.1207 29.3435 -23.4689 29.994 -23.4689 30.7929C-23.4689 31.5918 -24.1207 32.2423 -24.9212 32.2423ZM-28.038 49.8689C-28.8385 49.8689 -29.4903 49.2184 -29.4903 48.4195C-29.4903 47.6205 -28.8385 46.97 -28.038 46.97C-27.2375 46.97 -26.5857 47.6205 -26.5857 48.4195C-26.5857 49.2184 -27.2375 49.8689 -28.038 49.8689ZM-17.4935 51.1633C-18.294 51.1633 -18.9458 50.5128 -18.9458 49.7139C-18.9458 48.915 -18.294 48.2645 -17.4935 48.2645C-16.693 48.2645 -16.0412 48.915 -16.0412 49.7139C-16.0412 50.5128 -16.693 51.1633 -17.4935 51.1633ZM-7.0846 55.935C-7.88511 55.935 -8.5369 55.2845 -8.5369 54.4856C-8.5369 53.6867 -7.88511 53.0362 -7.0846 53.0362C-6.28408 53.0362 -5.63229 53.6867 -5.63229 54.4856C-5.63229 55.2845 -6.28408 55.935 -7.0846 55.935ZM4.22103 61.7676C3.42052 61.7676 2.76874 61.1171 2.76874 60.3182C2.76874 59.5193 3.42052 58.8688 4.22103 58.8688C5.02155 58.8688 5.67334 59.5193 5.67334 60.3182C5.67334 61.1171 5.02155 61.7676 4.22103 61.7676Z" fill="white"/>
</g>
</g>
<defs>
<clipPath id="clip0_720_20273">
<rect width="375" height="247" fill="white"/>
</clipPath>
<clipPath id="clip1_720_20273">
<rect width="45.7368" height="66" fill="white" transform="translate(329.264 -1.67969)"/>
</clipPath>
<clipPath id="clip2_720_20273">
<rect width="51" height="64" fill="white"/>
</clipPath>
</defs>
</svg>
