<svg width="110" height="107" viewBox="0 0 110 107" fill="none" xmlns="http://www.w3.org/2000/svg">
<path d="M66.4132 46.8772H104.741C105.546 46.8772 106.199 46.2241 106.199 45.4195C106.199 44.615 105.546 43.9619 104.741 43.9619H83.5721L88.2132 39.0104C88.7645 38.4219 88.7347 37.5006 88.1462 36.9494C87.5577 36.3981 86.6364 36.4279 86.0851 37.0164L79.5742 43.9619H66.4108C65.6062 43.9619 64.9531 44.615 64.9531 45.4195C64.9531 46.2241 65.6062 46.8772 66.4108 46.8772H66.4132Z" fill="#DBAC16"/>
<path d="M108.538 71.2649H80.346L83.2836 68.2751L90.8027 67.5326C91.6048 67.4532 92.1909 66.7405 92.1114 65.9384C92.0319 65.1363 91.3242 64.5528 90.5172 64.6322L82.4716 65.4269C82.1314 65.4616 81.8161 65.6131 81.5752 65.8565L76.2562 71.2674H65.3947C64.98 71.2674 64.5851 71.4437 64.3095 71.7516L57.1281 79.7723C56.7308 79.7673 56.3335 79.9213 56.0429 80.2342C55.4966 80.8252 55.5339 81.7464 56.1249 82.2952L66.5444 91.9251C66.815 92.1734 67.1677 92.3125 67.5327 92.3125H78.7592L81.2648 95.0042C81.5528 95.3122 81.9402 95.4686 82.3326 95.4686C82.6877 95.4686 83.0452 95.3395 83.3258 95.0787C83.9144 94.53 83.9491 93.6087 83.4003 93.0177L80.4627 89.8615C80.1871 89.566 79.7997 89.3972 79.3949 89.3972H76.1121L79.7028 85.5358C80.2516 84.9448 80.2169 84.0235 79.6283 83.4748C79.0373 82.926 78.1161 82.9607 77.5673 83.5492L72.1316 89.3947H68.1063L59.5269 81.4634L66.0502 74.1777H90.9691L97.4602 81.3814C97.7482 81.7018 98.1456 81.8632 98.5429 81.8632C98.8905 81.8632 99.2407 81.739 99.5188 81.4882C100.117 80.9493 100.164 80.0281 99.6256 79.4296L94.8951 74.1801H108.543C109.347 74.1801 110 73.5271 110 72.7225C110 71.918 109.347 71.2649 108.543 71.2649H108.538Z" fill="#DBAC16"/>
<path d="M67.2194 54.875C66.4148 54.875 65.7617 55.5281 65.7617 56.3326C65.7617 57.1372 66.4148 57.7903 67.2194 57.7903H87.4028C88.2073 57.7903 88.8604 57.1372 88.8604 56.3326C88.8604 55.5281 88.2073 54.875 87.4028 54.875H67.2194Z" fill="#DBAC16"/>
<path d="M6.09231 74.6825C3.28572 74.6825 1 72.7777 1 70.4389C1 68.1001 3.28572 66.1953 6.09231 66.1953C8.8989 66.1953 11.1846 68.0978 11.1846 70.4389C11.1846 72.78 8.8989 74.6825 6.09231 74.6825ZM6.09231 68.9059C5.07828 68.9059 4.25266 69.5939 4.25266 70.4389C4.25266 71.2839 5.07828 71.9719 6.09231 71.9719C7.10634 71.9719 7.93198 71.2839 7.93198 70.4389C7.93198 69.5939 7.10634 68.9059 6.09231 68.9059Z" fill="#22533D"/>
<path d="M5.5 50C2.46872 50 0 47.7557 0 45C0 42.2443 2.46573 40 5.5 40C8.53428 40 11 42.2443 11 45C11 47.7557 8.53129 50 5.5 50ZM5.5 43.1937C4.40479 43.1937 3.51306 44.0043 3.51306 45C3.51306 45.9956 4.40479 46.8063 5.5 46.8063C6.59522 46.8063 7.48694 45.9956 7.48694 45C7.48694 44.0043 6.59522 43.1937 5.5 43.1937Z" fill="#22533D"/>
<path d="M66.7831 62.9226C67.0541 62.6445 67.2041 62.267 67.1993 61.8747L67.1049 53.2806V0H33.121L24.8633 21.4369H46.2103L46.1498 44.1377H34.7444L28.4538 37.6815C28.7804 37.0483 28.9667 36.3257 28.9667 35.5609C28.9667 33.0455 26.9731 30.9969 24.5197 30.9969C22.0664 30.9969 20.0727 33.0455 20.0727 35.5609C20.0727 38.0764 22.0688 40.1249 24.5197 40.1249C25.1899 40.1249 25.8263 39.966 26.3972 39.6929L30.7281 44.1377H9.71255V47.0529H25.0738L21.6623 50.7403C21.0647 50.4349 20.3945 50.2561 19.6832 50.2561C17.2323 50.2561 15.2362 52.3022 15.2362 54.8201C15.2362 57.338 17.2299 59.3841 19.6832 59.3841C22.1366 59.3841 24.1302 57.3355 24.1302 54.8201C24.1302 54.0975 23.9608 53.4147 23.6681 52.8063L28.9909 47.0504H46.145L46.1305 52.5754L37.989 60.8541L15.0015 60.6753L7.78906 67.5089L9.71497 69.6519L16.1024 63.6005L27.2175 63.6874L26.1408 64.703C25.548 64.4025 24.8875 64.2312 24.1834 64.2312C21.7325 64.2312 19.7364 66.2798 19.7364 68.7952C19.7364 71.3106 21.7301 73.3592 24.1834 73.3592C26.6368 73.3592 28.6304 71.3131 28.6304 68.7952C28.6304 68.0627 28.4586 67.3748 28.1586 66.759L31.3814 63.7172L39.1503 63.7768L48.9685 53.7921L49.0653 18.5167H29.0466L35.059 2.91022H64.2717V53.2905C64.2717 53.2905 64.2717 53.3004 64.2717 53.3054L64.3588 61.2862L55.3729 70.5086C55.3535 70.5284 55.3414 70.5508 55.3245 70.5706L44.4538 81.8863L26.4166 82.0526L23.2277 85.0647C22.5164 84.5705 21.6599 84.28 20.7381 84.28C18.2872 84.28 16.2911 86.3286 16.2911 88.844C16.2911 91.3594 18.2872 93.408 20.7381 93.408C23.189 93.408 25.1851 91.3619 25.1851 88.844C25.1851 88.3374 25.1004 87.8532 24.9528 87.3963L27.5368 84.9554L34.4299 84.8933L33.5178 85.9015C33.1621 85.8071 32.7895 85.75 32.4048 85.75C29.9539 85.75 27.9578 87.7986 27.9578 90.314C27.9578 92.8294 29.9515 94.878 32.4048 94.878C34.8582 94.878 36.8518 92.8319 36.8518 90.314C36.8518 89.2661 36.501 88.3027 35.9203 87.5304L38.3422 84.8561L45.6539 84.789L54.9737 75.085L54.964 82.2438L45.8232 91.6226C45.245 91.3395 44.599 91.1757 43.9167 91.1757C41.4657 91.1757 39.4697 93.2243 39.4697 95.7397C39.4697 98.2551 41.4633 100.304 43.9167 100.304C46.37 100.304 48.3637 98.2551 48.3637 95.7397C48.3637 94.9873 48.1822 94.2771 47.8653 93.6489L54.9567 86.3733L54.9398 98.0788C53.2171 98.707 51.9759 100.393 51.9759 102.375C51.9759 104.89 53.972 106.939 56.4229 106.939C58.8739 106.939 60.8699 104.892 60.8699 102.375C60.8699 100.343 59.5707 98.6201 57.7803 98.0291L57.819 72.1151L66.7904 62.9077L66.7831 62.9226ZM22.9108 35.5659C22.9108 34.6571 23.6318 33.9171 24.5173 33.9171C25.4028 33.9171 26.1238 34.6571 26.1238 35.5659C26.1238 36.4747 25.4028 37.2147 24.5173 37.2147C23.6318 37.2147 22.9108 36.4747 22.9108 35.5659ZM19.6784 56.4739C18.7928 56.4739 18.0718 55.7339 18.0718 54.8251C18.0718 53.9163 18.7928 53.1763 19.6784 53.1763C20.5639 53.1763 21.2849 53.9163 21.2849 54.8251C21.2849 55.7339 20.5639 56.4739 19.6784 56.4739ZM24.1786 70.4489C23.2931 70.4489 22.5721 69.709 22.5721 68.8002C22.5721 67.8913 23.2931 67.1514 24.1786 67.1514C25.0641 67.1514 25.7851 67.8913 25.7851 68.8002C25.7851 69.709 25.0641 70.4489 24.1786 70.4489ZM20.7308 90.5002C19.8453 90.5002 19.1243 89.7603 19.1243 88.8515C19.1243 87.9426 19.8453 87.2027 20.7308 87.2027C21.6164 87.2027 22.3374 87.9426 22.3374 88.8515C22.3374 89.7603 21.6164 90.5002 20.7308 90.5002ZM32.3951 91.9728C31.5096 91.9728 30.7886 91.2328 30.7886 90.324C30.7886 89.4151 31.5096 88.6751 32.3951 88.6751C33.2807 88.6751 34.0017 89.4151 34.0017 90.324C34.0017 91.2328 33.2807 91.9728 32.3951 91.9728ZM43.9094 97.4009C43.0239 97.4009 42.3029 96.6609 42.3029 95.7521C42.3029 94.8432 43.0239 94.1033 43.9094 94.1033C44.7949 94.1033 45.5159 94.8432 45.5159 95.7521C45.5159 96.6609 44.7949 97.4009 43.9094 97.4009ZM56.4157 104.036C55.5301 104.036 54.8092 103.296 54.8092 102.387C54.8092 101.478 55.5301 100.738 56.4157 100.738C57.3012 100.738 58.0222 101.478 58.0222 102.387C58.0222 103.296 57.3012 104.036 56.4157 104.036Z" fill="#22533D"/>
</svg>
