<svg width="304" height="1013" viewBox="0 0 304 1013" fill="none" xmlns="http://www.w3.org/2000/svg">
<path d="M148 0.492187L148 291.992" stroke="#22533D" stroke-width="2.8"/>
<path d="M148 284.983L148.5 443.484" stroke="#22533D" stroke-width="2.8"/>
<path d="M49.1301 337.257V338.657H48.7164L48.3691 338.432L49.1301 337.257ZM39.8375 332.907C39.1885 332.487 39.0031 331.62 39.4234 330.971C39.8437 330.322 40.7105 330.137 41.3595 330.557L39.8375 332.907ZM98.5657 339.824L99.4311 338.724L98.5657 339.824ZM143.916 375.486L144.781 374.385L143.916 375.486ZM14 827.584H136.498V830.384H14V827.584ZM147.098 816.984V384.919H149.898V816.984H147.098ZM143.05 376.586L97.7003 340.925L99.4311 338.724L144.781 374.385L143.05 376.586ZM91.148 338.657H49.1301V335.857H91.148V338.657ZM48.3691 338.432L39.8375 332.907L41.3595 330.557L49.8911 336.082L48.3691 338.432ZM97.7003 340.925C95.8322 339.456 93.5246 338.657 91.148 338.657V335.857C94.1524 335.857 97.0695 336.867 99.4311 338.724L97.7003 340.925ZM147.098 384.919C147.098 381.668 145.606 378.596 143.05 376.586L144.781 374.385C148.012 376.926 149.898 380.809 149.898 384.919H147.098ZM136.498 827.584C142.352 827.584 147.098 822.839 147.098 816.984H149.898C149.898 824.385 143.899 830.384 136.498 830.384V827.584Z" fill="#22533D"/>
<path d="M253.91 512.514V513.914H254.305L254.642 513.708L253.91 512.514ZM263.65 508.186C264.309 507.782 264.516 506.92 264.111 506.26C263.707 505.601 262.845 505.395 262.186 505.799L263.65 508.186ZM153.834 550.727L152.998 549.604L153.834 550.727ZM291 1002.59H161V1005.39H291V1002.59ZM150.4 991.992V560.352H147.6V991.992H150.4ZM154.67 551.85L202.811 516.012L201.139 513.766L152.998 549.604L154.67 551.85ZM209.14 513.914H253.91V511.114H209.14V513.914ZM254.642 513.708L263.65 508.186L262.186 505.799L253.179 511.321L254.642 513.708ZM202.811 516.012C204.64 514.65 206.86 513.914 209.14 513.914V511.114C206.257 511.114 203.451 512.044 201.139 513.766L202.811 516.012ZM150.4 560.352C150.4 557.003 151.983 553.85 154.67 551.85L152.998 549.604C149.602 552.132 147.6 556.118 147.6 560.352H150.4ZM161 1002.59C155.146 1002.59 150.4 997.846 150.4 991.992H147.6C147.6 999.393 153.599 1005.39 161 1005.39V1002.59Z" fill="#22533D"/>
<path d="M252.91 165.514V166.764H253.263L253.564 166.58L252.91 165.514ZM262.571 161.058C263.16 160.697 263.344 159.927 262.984 159.339C262.623 158.75 261.853 158.566 261.265 158.927L262.571 161.058ZM200.975 167.889L201.721 168.891L200.975 167.889ZM152.834 203.727L153.581 204.729L152.834 203.727ZM149.25 257.992V213.352H146.75V257.992H149.25ZM153.581 204.729L201.721 168.891L200.228 166.886L152.088 202.724L153.581 204.729ZM208.14 166.764H252.91V164.264H208.14V166.764ZM253.564 166.58L262.571 161.058L261.265 158.927L252.257 164.449L253.564 166.58ZM201.721 168.891C203.576 167.51 205.828 166.764 208.14 166.764V164.264C205.29 164.264 202.515 165.184 200.228 166.886L201.721 168.891ZM149.25 213.352C149.25 209.955 150.856 206.758 153.581 204.729L152.088 202.724C148.729 205.224 146.75 209.165 146.75 213.352H149.25Z" fill="#22533D"/>
<circle cx="5.5" cy="5.5" r="5.5" transform="matrix(1 0 0 -1 2 834.984)" stroke="#22533D" stroke-width="2.5"/>
<circle cx="5.5" cy="5.5" r="5.5" transform="matrix(1 0 0 -1 291 1010.99)" stroke="#22533D" stroke-width="2.5"/>
</svg>
