<svg width="24" height="24" viewBox="0 0 24 24" fill="none" xmlns="http://www.w3.org/2000/svg">
<path fill-rule="evenodd" clip-rule="evenodd" d="M19.1541 5.76113C17.3765 3.98151 15.0127 3.00103 12.4941 3C7.30464 3 3.08098 7.22331 3.07896 12.4143C3.07823 14.0738 3.51178 15.6934 4.33572 17.1212L3 22L7.99107 20.6908C9.36623 21.4408 10.9145 21.8362 12.4903 21.8367H12.4941C17.683 21.8367 21.907 17.613 21.9092 12.4219C21.9101 9.90613 20.9317 7.54067 19.1541 5.76113ZM12.4941 20.2467H12.4909C11.0868 20.2461 9.70954 19.8689 8.50804 19.1559L8.22233 18.9863L5.26055 19.7632L6.05113 16.8756L5.86504 16.5794C5.08173 15.3335 4.66802 13.8935 4.66863 12.4149C4.67031 8.1003 8.18086 4.59013 12.4973 4.59013C14.5874 4.59078 16.5522 5.40586 18.0297 6.885C19.5071 8.36415 20.3203 10.3303 20.3195 12.4212C20.3177 16.7361 16.8073 20.2467 12.4941 20.2467Z" fill="url(#paint0_linear_1113_11530)"/>
<path fill-rule="evenodd" clip-rule="evenodd" d="M16.7861 14.3818C16.5509 14.2641 15.3943 13.6951 15.1786 13.6165C14.963 13.538 14.8062 13.4987 14.6494 13.7342C14.4926 13.9697 14.0417 14.4996 13.9045 14.6567C13.7673 14.8136 13.63 14.8333 13.3948 14.7155C13.1596 14.5977 12.4015 14.3493 11.503 13.5479C10.8036 12.924 10.3315 12.1537 10.1942 11.9182C10.057 11.6827 10.1796 11.5554 10.2974 11.4381C10.4032 11.3326 10.5327 11.1633 10.6503 11.0259C10.7679 10.8886 10.8071 10.7904 10.8855 10.6335C10.964 10.4765 10.9248 10.3391 10.8659 10.2214C10.8071 10.1036 10.3367 8.94568 10.1406 8.47457C9.94963 8.01591 9.75571 8.07805 9.61129 8.07075C9.47428 8.06391 9.31724 8.0625 9.16043 8.0625C9.00362 8.0625 8.74871 8.12139 8.53312 8.35685C8.3175 8.59239 7.70972 9.16157 7.70972 10.3194C7.70972 11.4773 8.55269 12.596 8.67032 12.7529C8.78792 12.91 10.3292 15.2861 12.6891 16.3051C13.2503 16.5475 13.6885 16.6923 14.0302 16.8006C14.5937 16.9797 15.1066 16.9544 15.5119 16.8939C15.9639 16.8263 16.9038 16.3248 17.0998 15.7753C17.2958 15.2258 17.2958 14.7547 17.237 14.6566C17.1782 14.5585 17.0214 14.4996 16.7861 14.3818Z" fill="url(#paint1_linear_1113_11530)"/>
<defs>
<linearGradient id="paint0_linear_1113_11530" x1="3.05878" y1="4.53422" x2="24.2461" y2="9.85455" gradientUnits="userSpaceOnUse">
<stop stop-color="#DB8016"/>
<stop offset="1" stop-color="#DBAC16"/>
</linearGradient>
<linearGradient id="paint1_linear_1113_11530" x1="7.73944" y1="8.77926" x2="18.3451" y2="11.6617" gradientUnits="userSpaceOnUse">
<stop stop-color="#DB8016"/>
<stop offset="1" stop-color="#DBAC16"/>
</linearGradient>
</defs>
</svg>
